<?xml version="1.0" encoding="UTF-8" standalone="no"?>
<!DOCTYPE svg PUBLIC "-//W3C//DTD SVG 1.1//EN" "http://www.w3.org/Graphics/SVG/1.1/DTD/svg11.dtd">
<svg width="100%" height="100%" viewBox="0 0 2481 3508" version="1.1" xmlns="http://www.w3.org/2000/svg" xmlns:xlink="http://www.w3.org/1999/xlink" xml:space="preserve" xmlns:serif="http://www.serif.com/" style="fill-rule:evenodd;clip-rule:evenodd;stroke-linejoin:round;stroke-miterlimit:1.5;">
    <g transform="matrix(1,0,0,1,-2480.31,0)">
        <g id="HEADLINE" transform="matrix(1.20215e-16,-1.96326,1.96326,1.20215e-16,2369.49,3583.26)">
            <text x="1610.89px" y="131.188px" style="font-family:'NasalizationRg-Regular', 'Nasalization', sans-serif;font-size:21.223px;">PLANET ERDE</text>
        </g>
        <g id="world_map">
        </g>
        <g id="population_growth_continents" transform="matrix(0.481547,0,0,0.481547,1950.21,1865.26)">
            <g id="Europa" transform="matrix(0.932299,0,0,0.932299,3433.58,1537.78)">
                <path d="M417.342,267.945C481.795,267.945 534.122,320.272 534.122,384.725C534.122,449.177 481.795,501.505 417.342,501.505C352.89,501.505 300.563,449.177 300.563,384.725C300.563,320.272 352.89,267.945 417.342,267.945ZM417.342,269.801C480.77,269.801 532.266,321.297 532.266,384.725C532.266,448.153 480.77,499.648 417.342,499.648C353.914,499.648 302.419,448.153 302.419,384.725C302.419,321.297 353.914,269.801 417.342,269.801Z"/>
                <g id="Europa1" serif:id="Europa" transform="matrix(0.970902,0,0,0.959262,12.1437,15.6728)">
                    <path d="M392.213,498.788L393.834,491.225C400.709,492.735 407.825,493.596 415.115,493.742L414.964,501.478C407.171,501.323 399.565,500.403 392.213,498.788ZM459.872,493.505C452.824,496.266 445.443,498.362 437.803,499.714L436.486,492.09C443.624,490.827 450.524,488.868 457.112,486.288L459.872,493.505ZM350.4,480.398L354.755,474.038C360.597,478.135 366.858,481.674 373.46,484.578L370.412,491.676C363.35,488.57 356.652,484.784 350.4,480.398ZM498.369,468.787C492.846,474.112 486.8,478.899 480.321,483.061L476.224,476.526C482.283,472.635 487.934,468.161 493.096,463.184L498.369,468.787ZM318.707,447.231L325.137,443.045C329.008,449.138 333.467,454.82 338.432,460.014L332.938,465.396C327.622,459.837 322.85,453.754 318.707,447.231ZM524.565,431.03C521.48,438.159 517.703,444.921 513.324,451.227L507.068,446.777C511.158,440.888 514.683,434.578 517.563,427.925L524.565,431.03ZM302.191,404.24L309.728,402.939C310.943,410.148 312.867,417.118 315.426,423.774L308.301,426.58C305.556,419.444 303.492,411.971 302.191,404.24ZM534.115,385.928C534.035,393.82 533.172,401.524 531.595,408.969L524.12,407.349C525.589,400.403 526.395,393.213 526.469,385.849L534.115,385.928ZM303.611,358.131L311.052,359.91C309.438,366.828 308.485,373.999 308.261,381.352L300.62,381.114C300.859,373.235 301.88,365.551 303.611,358.131ZM525.499,340.634C528.392,347.716 530.61,355.145 532.07,362.84L524.561,364.301C523.198,357.124 521.13,350.196 518.432,343.591L525.499,340.634ZM322.75,316.267L328.913,320.846C324.702,326.652 321.049,332.889 318.034,339.477L311.097,336.224C314.326,329.168 318.237,322.489 322.75,316.267ZM500.075,302.341C505.503,307.791 510.396,313.774 514.671,320.207L508.327,324.526C504.334,318.517 499.761,312.927 494.69,307.834L500.075,302.341ZM356.387,285.121L360.351,291.738C354.212,295.505 348.473,299.862 343.215,304.73L338.055,299.02C343.68,293.811 349.82,289.149 356.387,285.121ZM462.081,276.837C469.209,279.799 475.981,283.446 482.315,287.7L478.089,294.149C472.169,290.175 465.839,286.764 459.177,283.995L462.081,276.837ZM399.229,269.346L400.394,276.994C393.227,278.112 386.29,279.928 379.654,282.371L377.041,275.098C384.141,272.484 391.563,270.54 399.229,269.346ZM417.342,267.945C425.141,267.945 432.762,268.711 440.142,270.176L438.673,277.77C431.773,276.402 424.641,275.685 417.342,275.685L417.342,267.945Z"/>
                </g>
            </g>
            <g id="Mittel--und-Südamerika" serif:id="Mittel- und Südamerika" transform="matrix(0.932299,0,0,0.932299,2857.56,1351.25)">
                <g transform="matrix(1.25767,0,0,1.25767,-107.515,-109.794)">
                    <path d="M392.487,473.88L395.209,468.644C399.797,471.03 404.82,472.694 410.126,473.486L409.255,479.323C403.289,478.433 397.642,476.562 392.487,473.88ZM443.475,473.094C438.395,475.939 432.808,477.983 426.884,479.054L425.833,473.246C431.103,472.293 436.074,470.475 440.594,467.945L443.475,473.094ZM368.431,448.747L373.781,446.259C376.016,451.064 379.024,455.437 382.645,459.22L378.382,463.301C374.315,459.054 370.937,454.143 368.431,448.747ZM466.752,447.238C464.409,452.714 461.183,457.724 457.25,462.089L452.865,458.14C456.365,454.254 459.239,449.793 461.327,444.916L466.752,447.238ZM364.771,414.155L370.526,415.461C369.749,418.883 369.34,422.443 369.34,426.099C369.34,427.802 369.429,429.484 369.602,431.142L363.733,431.756C363.536,429.895 363.436,428.009 363.436,426.099C363.436,421.994 363.897,417.996 364.771,414.155ZM469.347,412.549C470.473,416.881 471.072,421.421 471.072,426.099C471.072,427.447 471.022,428.784 470.923,430.11L465.037,429.675C465.124,428.494 465.168,427.302 465.168,426.099C465.168,421.932 464.636,417.888 463.634,414.033L469.347,412.549ZM383.05,384.56L386.806,389.114C382.75,392.459 379.251,396.457 376.474,400.947L371.456,397.843C374.572,392.804 378.497,388.316 383.05,384.56ZM450.164,383.53C454.835,387.146 458.895,391.513 462.16,396.451L457.241,399.707C454.329,395.309 450.712,391.417 446.551,388.195L450.164,383.53ZM415.601,372.309L415.779,378.207C410.376,378.37 405.197,379.429 400.385,381.242L398.305,375.721C403.71,373.681 409.53,372.49 415.601,372.309ZM417.254,372.281C423.34,372.281 429.192,373.294 434.648,375.16L432.739,380.745C427.881,379.085 422.672,378.185 417.254,378.185L417.254,372.281Z"/>
                </g>
                <path d="M417.254,372.281C446.957,372.281 471.072,396.396 471.072,426.099C471.072,455.802 446.957,479.916 417.254,479.916C387.551,479.916 363.436,455.802 363.436,426.099C363.436,396.396 387.551,372.281 417.254,372.281ZM417.254,374.137C445.932,374.137 469.215,397.42 469.215,426.099C469.215,454.777 445.932,478.06 417.254,478.06C388.576,478.06 365.293,454.777 365.293,426.099C365.293,397.42 388.576,374.137 417.254,374.137Z"/>
            </g>
            <g id="Ozeanien" transform="matrix(0.932299,0,0,0.932299,2635.13,1013.78)">
                <g transform="matrix(1.7272,0,0,1.7272,-303.151,-220.189)">
                    <path d="M423.773,345.496C421.526,345.857 419.223,346.044 416.876,346.044C414.857,346.044 412.869,345.906 410.924,345.637L411.511,341.379C413.265,341.621 415.056,341.746 416.876,341.746C418.991,341.746 421.067,341.577 423.091,341.252L423.773,345.496ZM387.899,334.89L390.78,331.701C393.641,334.286 396.887,336.454 400.422,338.105L398.603,341.997C394.68,340.164 391.076,337.76 387.899,334.89ZM446.554,334.242C443.439,337.183 439.889,339.667 436.01,341.583L434.105,337.733C437.6,336.005 440.798,333.767 443.604,331.118L446.554,334.242ZM374.857,313.081L379.033,312.06C379.966,315.877 381.462,319.473 383.428,322.757L379.742,324.964C377.556,321.316 375.893,317.32 374.857,313.081ZM459.111,312.151C458.169,316.418 456.595,320.45 454.493,324.14L450.758,322.014C452.65,318.692 454.066,315.064 454.915,311.224L459.111,312.151ZM376.331,287.71L380.358,289.21C379.033,292.767 378.214,296.57 377.987,300.53L373.696,300.285C373.947,295.884 374.858,291.659 376.331,287.71ZM457.079,286.819C458.641,290.741 459.645,294.945 459.992,299.332L455.707,299.672C455.394,295.723 454.491,291.939 453.086,288.409L457.079,286.819ZM391.807,267.551L394.302,271.051C391.142,273.304 388.331,276.017 385.969,279.092L382.562,276.474C385.183,273.062 388.301,270.052 391.807,267.551ZM441.163,267.006C444.725,269.429 447.908,272.37 450.601,275.724L447.253,278.416C444.825,275.395 441.956,272.744 438.745,270.559L441.163,267.006ZM415.922,259.55L416.015,263.847C412.04,263.933 408.211,264.615 404.614,265.809L403.26,261.73C407.257,260.403 411.508,259.645 415.922,259.55ZM416.876,259.539C421.297,259.539 425.564,260.203 429.583,261.439L428.321,265.548C424.702,264.435 420.858,263.837 416.876,263.837L416.876,259.539Z"/>
                </g>
                <path d="M416.876,259.539C440.748,259.539 460.129,278.92 460.129,302.791C460.129,326.663 440.748,346.044 416.876,346.044C393.004,346.044 373.623,326.663 373.623,302.791C373.623,278.92 393.004,259.539 416.876,259.539ZM416.876,261.395C439.724,261.395 458.273,279.944 458.273,302.791C458.273,325.639 439.724,344.188 416.876,344.188C394.029,344.188 375.48,325.639 375.48,302.791C375.48,279.944 394.029,261.395 416.876,261.395Z"/>
            </g>
            <g id="Nordamerika" transform="matrix(0.932299,0,0,0.932299,3891.1,1245.32)">
                <g transform="matrix(1.38507,0,0,1.38507,-160.663,-132.211)">
                    <path d="M438.726,418.952C433.645,420.396 428.356,421.341 422.915,421.729L422.532,416.384C427.601,416.021 432.529,415.141 437.261,413.796L438.726,418.952ZM391.253,417.532L393.026,412.474C397.677,414.105 402.543,415.278 407.569,415.941L406.868,421.254C401.472,420.542 396.247,419.282 391.253,417.532ZM467.018,404.133C462.888,407.522 458.405,410.498 453.635,412.998L451.146,408.251C455.592,405.92 459.769,403.147 463.62,399.989L467.018,404.133ZM363.896,401.048L367.535,397.113C371.196,400.498 375.203,403.515 379.496,406.104L376.729,410.694C372.122,407.916 367.822,404.679 363.896,401.048ZM487.115,379.306C484.645,384.091 481.698,388.591 478.335,392.745L474.169,389.373C477.303,385.503 480.05,381.309 482.352,376.848L487.115,379.306ZM345.313,375.069L350.215,372.901C352.248,377.498 354.74,381.847 357.634,385.89L353.275,389.009C350.17,384.67 347.494,380.003 345.313,375.069ZM495.652,348.531C495.296,353.975 494.385,359.268 492.973,364.36L487.809,362.928C489.123,358.188 489.972,353.255 490.303,348.182L495.652,348.531ZM338.637,343.838L343.996,343.804C344.028,348.902 344.581,353.878 345.606,358.679L340.365,359.798C339.264,354.645 338.67,349.307 338.637,343.838ZM491.253,316.896C493.037,321.879 494.331,327.096 495.076,332.488L489.767,333.222C489.072,328.202 487.868,323.344 486.207,318.701L491.253,316.896ZM344.917,312.523L349.845,314.629C347.905,319.172 346.411,323.95 345.418,328.908L340.163,327.857C341.229,322.532 342.833,317.402 344.917,312.523ZM474.597,289.644C478.254,293.549 481.518,297.828 484.323,302.416L479.751,305.212C477.136,300.936 474.094,296.948 470.685,293.308L474.597,289.644ZM363.17,286.313L366.858,290.202C363.235,293.638 359.962,297.439 357.099,301.548L352.702,298.484C355.773,294.076 359.284,289.997 363.17,286.313ZM448.502,271.226C453.451,273.377 458.136,276.024 462.491,279.1L459.4,283.477C455.339,280.61 450.975,278.145 446.365,276.141L448.502,271.226ZM390.316,269.483L392.153,274.518C387.424,276.244 382.922,278.444 378.705,281.06L375.88,276.506C380.408,273.697 385.241,271.335 390.316,269.483ZM405.883,265.562C409.589,265.024 413.376,264.747 417.228,264.747C422.698,264.747 428.038,265.307 433.199,266.374L432.114,271.623C427.307,270.629 422.328,270.107 417.228,270.107L415.884,270.119C412.755,270.176 409.673,270.428 406.651,270.866L405.883,265.562Z"/>
                </g>
                <path d="M417.228,264.747C460.605,264.747 495.822,299.963 495.822,343.34C495.822,386.717 460.605,421.934 417.228,421.934C373.851,421.934 338.634,386.717 338.634,343.34C338.634,299.963 373.851,264.747 417.228,264.747ZM417.228,266.603C459.58,266.603 493.965,300.988 493.965,343.34C493.965,385.693 459.58,420.078 417.228,420.078C374.875,420.078 340.49,385.693 340.49,343.34C340.49,300.988 374.875,266.603 417.228,266.603Z"/>
            </g>
            <g id="Afrika" transform="matrix(0.932299,0,0,0.932299,2967.95,242.842)">
                <g transform="matrix(2.15576,0,0,2.15576,-482.531,-539.86)">
                    <path d="M409.979,586.16L410.193,582.723C412.61,582.874 415.046,582.95 417.501,582.95C418.412,582.95 419.321,582.94 420.227,582.919L420.306,586.361C419.368,586.384 418.436,586.395 417.501,586.395C414.972,586.395 412.462,586.316 409.979,586.16ZM440.822,584.109C437.467,584.776 434.062,585.302 430.613,585.678L430.238,582.257C433.588,581.89 436.894,581.38 440.152,580.733L440.822,584.109ZM389.569,583.099L390.373,579.752C393.604,580.528 396.888,581.169 400.217,581.668L399.707,585.072C396.28,584.559 392.9,583.9 389.569,583.099ZM460.638,578.341C457.441,579.584 454.178,580.692 450.856,581.658L449.894,578.353C453.12,577.414 456.288,576.339 459.392,575.133L460.638,578.341ZM369.998,576.546L371.372,573.389C374.426,574.718 377.549,575.919 380.734,576.985L379.64,580.249C376.362,579.151 373.147,577.915 369.998,576.546ZM479.154,569.224C476.215,571.004 473.194,572.66 470.094,574.185L468.573,571.097C471.582,569.615 474.516,568.007 477.371,566.279L479.154,569.224ZM351.859,566.701L353.757,563.828C356.542,565.668 359.411,567.392 362.357,568.991L360.715,572.018C357.681,570.371 354.727,568.596 351.859,566.701ZM495.822,557.052C493.227,559.314 490.533,561.466 487.751,563.498L485.72,560.717C488.424,558.742 491.04,556.653 493.56,554.457L495.822,557.052ZM335.684,553.881L338.045,551.377C340.478,553.671 343.01,555.862 345.633,557.941L343.495,560.639C340.795,558.499 338.189,556.245 335.684,553.881ZM510.158,542.204C507.986,544.88 505.7,547.461 503.309,549.936L500.833,547.545C503.156,545.139 505.375,542.633 507.485,540.035L510.158,542.204ZM321.94,538.483L324.697,536.419C326.704,539.1 328.824,541.691 331.049,544.185L328.481,546.477C326.188,543.909 324.005,541.241 321.94,538.483ZM521.737,525.119C520.054,528.134 518.244,531.069 516.317,533.912L513.467,531.98C515.34,529.216 517.097,526.368 518.73,523.441L521.737,525.119ZM311.047,520.952L314.117,519.395C315.634,522.386 317.276,525.301 319.038,528.136L316.114,529.953C314.3,527.034 312.607,524.031 311.047,520.952ZM530.192,506.292C529.055,509.56 527.779,512.763 526.375,515.89L523.234,514.479C524.6,511.44 525.838,508.331 526.941,505.16L530.192,506.292ZM303.347,501.804L306.64,500.803C307.617,504.017 308.73,507.173 309.972,510.262L306.779,511.546C305.499,508.364 304.352,505.114 303.347,501.804ZM535.252,486.284C534.698,489.705 533.999,493.078 533.159,496.398L529.822,495.554C530.637,492.332 531.317,489.056 531.855,485.733L535.252,486.284ZM299.087,481.61L302.504,481.195C302.91,484.539 303.459,487.84 304.144,491.09L300.777,491.8C300.07,488.453 299.504,485.054 299.087,481.61ZM536.782,465.701L536.791,467.104C536.791,470.106 536.68,473.083 536.461,476.025L533.027,475.771C533.239,472.91 533.347,470.019 533.347,467.104C533.347,466.649 533.344,466.195 533.339,465.741L536.782,465.701ZM298.365,460.983L301.805,461.157C301.705,463.127 301.654,465.11 301.654,467.104C301.654,468.473 301.678,469.836 301.725,471.193L298.285,471.312C298.235,469.916 298.21,468.513 298.21,467.104C298.21,465.05 298.262,463.008 298.365,460.983ZM534.771,445.16C535.398,448.523 535.884,451.934 536.22,455.387L532.794,455.722C532.466,452.368 531.995,449.055 531.387,445.79L534.771,445.16ZM301.186,440.538L304.543,441.303C303.805,444.542 303.203,447.833 302.743,451.169L299.332,450.699C299.806,447.261 300.426,443.869 301.186,440.538ZM529.238,425.277C530.442,428.487 531.512,431.762 532.439,435.098L529.123,436.021C528.222,432.783 527.184,429.603 526.015,426.486L529.238,425.277ZM307.507,420.891L310.68,422.227C309.387,425.297 308.223,428.434 307.195,431.631L303.918,430.577C304.977,427.284 306.176,424.054 307.507,420.891ZM520.341,406.655C522.085,409.614 523.705,412.654 525.194,415.773L522.088,417.257C520.642,414.231 519.069,411.278 517.374,408.404L520.341,406.655ZM317.138,402.637L320.032,404.501C318.225,407.308 316.536,410.197 314.971,413.162L311.925,411.554C313.537,408.5 315.277,405.524 317.138,402.637ZM508.364,389.846C510.594,392.466 512.713,395.183 514.716,397.992L511.911,399.99C509.968,397.263 507.909,394.623 505.743,392.078L508.364,389.846ZM329.767,386.313L332.298,388.646C330.033,391.105 327.872,393.662 325.823,396.31L323.101,394.203C325.209,391.478 327.432,388.847 329.767,386.313ZM493.685,375.338C496.334,377.54 498.886,379.854 501.336,382.276L498.917,384.724C496.538,382.373 494.058,380.124 491.484,377.985L493.685,375.338ZM345.004,372.391L347.099,375.124C344.443,377.161 341.877,379.311 339.408,381.566L337.086,379.024C339.628,376.702 342.27,374.489 345.004,372.391ZM476.737,363.559C479.729,365.275 482.639,367.118 485.465,369.082L483.5,371.909C480.758,370.004 477.93,368.213 475.023,366.545L476.737,363.559ZM362.405,361.292L363.998,364.344C361.026,365.895 358.13,367.573 355.316,369.368L353.464,366.465C356.363,364.616 359.346,362.889 362.405,361.292ZM458.011,354.882C461.262,356.057 464.448,357.37 467.563,358.813L466.115,361.936C463.092,360.535 459.998,359.26 456.841,358.119L458.011,354.882ZM381.461,353.366L382.501,356.647C379.299,357.662 376.157,358.812 373.082,360.092L371.76,356.914C374.926,355.596 378.162,354.411 381.461,353.366ZM438.064,349.585C441.477,350.179 444.842,350.918 448.153,351.798L447.27,355.124C444.057,354.271 440.789,353.553 437.474,352.976L438.064,349.585ZM401.603,348.868L402.058,352.28C398.72,352.725 395.426,353.313 392.184,354.037L391.434,350.678C394.772,349.931 398.164,349.325 401.603,348.868ZM411.891,347.946C413.745,347.857 415.618,347.814 417.501,347.814C420.977,347.814 424.419,347.963 427.82,348.256L427.526,351.686C424.222,351.403 420.878,351.258 417.501,351.258L416.132,351.266C414.766,351.282 413.405,351.321 412.05,351.384L411.891,347.946Z"/>
                </g>
                <path d="M417.501,347.814C483.339,347.814 536.791,401.266 536.791,467.104C536.791,532.942 483.339,586.395 417.501,586.395C351.662,586.395 298.21,532.942 298.21,467.104C298.21,401.266 351.662,347.814 417.501,347.814ZM417.501,349.67C482.314,349.67 534.935,402.29 534.935,467.104C534.935,531.918 482.314,584.538 417.501,584.538C352.687,584.538 300.066,531.918 300.066,467.104C300.066,402.29 352.687,349.67 417.501,349.67Z"/>
            </g>
            <g id="Asien" transform="matrix(0.932299,0,0,0.932299,3823,402.302)">
                <g transform="matrix(1.34477,0,0,1.34477,-143.803,-175.22)">
                    <path d="M440.201,682.804C434.779,683.518 429.274,683.983 423.701,684.188L423.498,678.672C428.893,678.473 434.225,678.022 439.483,677.332L440.201,682.804ZM390.674,682.335L391.497,676.878C396.741,677.668 402.063,678.22 407.452,678.521L407.144,684.03C401.581,683.72 396.087,683.15 390.674,682.335ZM472.444,675.42C467.232,677.148 461.913,678.638 456.497,679.877L455.266,674.497C460.509,673.297 465.661,671.854 470.709,670.182L472.444,675.42ZM358.578,674.336L360.415,669.129C365.43,670.899 370.553,672.44 375.771,673.74L374.437,679.095C369.052,677.752 363.764,676.162 358.578,674.336ZM502.72,662.099C497.914,664.782 492.97,667.245 487.897,669.477L485.674,664.425C490.585,662.263 495.375,659.877 500.03,657.279L502.72,662.099ZM328.564,660.432L331.345,655.665C335.951,658.353 340.695,660.83 345.562,663.085L343.243,668.093C338.217,665.765 333.32,663.208 328.564,660.432ZM529.966,643.341C525.736,646.88 521.338,650.224 516.783,653.359L513.653,648.813C518.065,645.776 522.327,642.536 526.426,639.108L529.966,643.341ZM301.678,641.162L305.299,636.996C309.333,640.502 313.533,643.821 317.885,646.942L314.67,651.427C310.176,648.206 305.84,644.778 301.678,641.162ZM553.25,619.844C549.745,624.114 546.043,628.216 542.157,632.136L538.237,628.252C542.001,624.454 545.588,620.479 548.984,616.342L553.25,619.844ZM278.844,617.227L283.176,613.806C286.494,618.008 290.005,622.049 293.696,625.918L289.701,629.729C285.892,625.737 282.269,621.567 278.844,617.227ZM571.756,592.427C569.103,597.286 566.228,602.007 563.148,606.571L558.572,603.482C561.558,599.058 564.342,594.487 566.912,589.782L571.756,592.427ZM260.865,589.462L265.758,586.91C268.237,591.665 270.934,596.288 273.835,600.767L269.203,603.766C266.208,599.143 263.423,594.37 260.865,589.462ZM584.798,562.029C583.103,567.311 581.165,572.484 578.995,577.536L573.925,575.36C576.024,570.468 577.901,565.457 579.543,560.342L584.798,562.029ZM248.407,558.82L253.694,557.234C255.238,562.381 257.018,567.427 259.023,572.357L253.91,574.436C251.84,569.345 250.001,564.135 248.407,558.82ZM591.881,529.719C591.208,535.239 590.279,540.68 589.107,546.042L583.714,544.86C584.851,539.674 585.751,534.401 586.404,529.051L591.881,529.719ZM241.944,526.379L247.435,525.816C247.986,531.179 248.785,536.47 249.821,541.675L244.41,542.752C243.338,537.379 242.512,531.917 241.944,526.379ZM592.809,496.652C593.059,500.481 593.185,504.339 593.185,508.227C593.185,509.889 593.162,511.545 593.114,513.207L587.597,513.054C587.642,511.45 587.664,509.841 587.664,508.227C587.664,504.458 587.542,500.718 587.301,497.01L592.809,496.652ZM241.645,493.301L247.144,493.764C246.743,498.532 246.538,503.356 246.538,508.227C246.538,508.751 246.54,509.274 246.545,509.797L241.027,509.847L241.017,508.227C241.017,503.202 241.228,498.227 241.645,493.301ZM587.571,463.991C588.948,469.299 590.082,474.705 590.959,480.198L585.511,481.071C584.659,475.754 583.56,470.518 582.228,465.376L587.571,463.991ZM247.506,460.747L252.821,462.234C251.389,467.351 250.19,472.565 249.237,477.863L243.804,476.885C244.789,471.415 246.027,466.032 247.506,460.747ZM576.278,432.901C578.637,437.87 580.77,442.967 582.662,448.178L577.475,450.062C575.641,445.015 573.577,440.079 571.293,435.267L576.278,432.901ZM259.391,429.879L264.332,432.34C261.956,437.109 259.797,442.005 257.868,447.015L252.718,445.032C254.71,439.857 256.94,434.8 259.391,429.879ZM559.352,404.481C562.605,408.931 565.654,413.539 568.484,418.293L563.742,421.118C561,416.514 558.046,412.05 554.895,407.739L559.352,404.481ZM276.86,401.789L281.252,405.129C278.02,409.38 274.982,413.788 272.152,418.338L267.465,415.423C270.386,410.725 273.522,406.175 276.86,401.789ZM537.424,379.715C541.452,383.488 545.303,387.448 548.967,391.585L544.834,395.244C541.287,391.238 537.555,387.4 533.651,383.743L537.424,379.715ZM299.252,377.442L302.948,381.54C298.974,385.123 295.17,388.89 291.549,392.828L287.487,389.092C291.224,385.028 295.15,381.14 299.252,377.442ZM511.276,359.454C515.947,362.418 520.469,365.596 524.824,368.972L521.444,373.334C517.222,370.062 512.843,366.984 508.319,364.113L511.276,359.454ZM325.778,357.678L328.647,362.395C324.069,365.18 319.632,368.174 315.35,371.365L312.052,366.939C316.472,363.645 321.052,360.554 325.778,357.678ZM481.806,344.431C486.957,346.47 491.99,348.745 496.896,351.247L494.389,356.164C489.642,353.744 484.766,351.54 479.775,349.564L481.806,344.431ZM355.532,343.227L357.464,348.396C352.435,350.275 347.518,352.386 342.726,354.714L340.314,349.75C345.262,347.345 350.34,345.166 355.532,343.227ZM450.036,335.225C455.494,336.259 460.863,337.546 466.139,339.076L464.603,344.376C459.499,342.897 454.296,341.65 449.008,340.648L450.036,335.225ZM387.474,334.632L388.397,340.073C383.088,340.974 377.863,342.12 372.733,343.501L371.299,338.17C376.596,336.744 381.993,335.56 387.474,334.632ZM403.91,332.632C408.257,332.307 412.66,332.143 417.101,332.143C422.679,332.143 428.198,332.402 433.641,332.914L433.128,338.408C427.851,337.916 422.505,337.664 417.101,337.664C412.801,337.664 408.538,337.823 404.318,338.136L403.91,332.632Z"/>
                </g>
                <path d="M417.101,332.143C514.285,332.143 593.185,411.043 593.185,508.227C593.185,605.41 514.285,684.311 417.101,684.311C319.918,684.311 241.017,605.41 241.017,508.227C241.017,411.043 319.918,332.143 417.101,332.143ZM417.101,333.999C513.26,333.999 591.329,412.068 591.329,508.227C591.329,604.386 513.26,682.455 417.101,682.455C320.942,682.455 242.873,604.386 242.873,508.227C242.873,412.068 320.942,333.999 417.101,333.999Z"/>
            </g>
            <g transform="matrix(4.16667,0,0,4.16667,-4514.95,-444.714)">
                <g transform="matrix(1,0,0,1,1234.13,331.039)">
                    <text x="812.893px" y="267.384px" style="font-family:'OpenSansCondensed-Light', 'Open Sans Condensed', sans-serif;font-weight:300;font-stretch:condensed;font-size:18.69px;">Europa</text>
                </g>
                <g transform="matrix(1,0,0,1,950.601,302.028)">
                    <text x="763.666px" y="267.384px" style="font-family:'OpenSansCondensed-Light', 'Open Sans Condensed', sans-serif;font-weight:300;font-stretch:condensed;font-size:18.69px;">Mittel &amp; Südamerika</text>
                </g>
                <g transform="matrix(1,0,0,1,926.766,152.096)">
                    <text x="780.852px" y="267.384px" style="font-family:'OpenSansCondensed-Light', 'Open Sans Condensed', sans-serif;font-weight:300;font-stretch:condensed;font-size:18.69px;">Ozeanien</text>
                </g>
                <g transform="matrix(1,0,0,1,1364.03,231.249)">
                    <text x="800.278px" y="267.384px" style="font-family:'OpenSansCondensed-Light', 'Open Sans Condensed', sans-serif;font-weight:300;font-stretch:condensed;font-size:18.69px;">Nordamerika</text>
                </g>
                <g transform="matrix(1,0,0,1,991.939,-62.8943)">
                    <text x="800.76px" y="267.384px" style="font-family:'OpenSansCondensed-Light', 'Open Sans Condensed', sans-serif;font-weight:300;font-stretch:condensed;font-size:18.69px;">Afrika</text>
                </g>
                <g transform="matrix(1,0,0,1,1348.21,2.4179)">
                    <text x="818.408px" y="267.384px" style="font-family:'OpenSansCondensed-Light', 'Open Sans Condensed', sans-serif;font-weight:300;font-stretch:condensed;font-size:18.69px;">Asien</text>
                </g>
            </g>
            <g id="Legende" transform="matrix(4.70687,0,0,4.70687,516.512,-1498.56)">
                <g transform="matrix(0.727361,0,0,0.727361,275.561,173.528)">
                    <text x="483.068px" y="640.201px" style="font-family:'OpenSansCondensed-LightItalic', 'Open Sans Condensed', sans-serif;font-weight:300;font-style:italic;font-stretch:condensed;font-size:20.219px;">2020</text>
                </g>
                <g transform="matrix(0.727361,0,0,0.727361,362.579,173.528)">
                    <text x="483.068px" y="640.201px" style="font-family:'OpenSansCondensed-LightItalic', 'Open Sans Condensed', sans-serif;font-weight:300;font-style:italic;font-stretch:condensed;font-size:20.219px;">2050</text>
                </g>
                <g transform="matrix(0.804441,0,0,0.804441,-2277.17,-1396.48)">
                    <path d="M3590.89,2508.91C3583.21,2508.91 3576.97,2515.15 3576.97,2522.83C3576.97,2530.51 3583.21,2536.75 3590.89,2536.75C3598.58,2536.75 3604.81,2530.51 3604.81,2522.83C3604.81,2515.15 3598.58,2508.91 3590.89,2508.91ZM3590.89,2509.94C3598.01,2509.94 3603.78,2515.72 3603.78,2522.83C3603.78,2529.95 3598.01,2535.72 3590.89,2535.72C3583.78,2535.72 3578,2529.95 3578,2522.83C3578,2515.72 3583.78,2509.94 3590.89,2509.94Z"/>
                </g>
                <g transform="matrix(0.804441,0,0,0.804441,-2190.15,-1396.48)">
                    <path d="M3594.77,2535.13L3595.32,2536.87C3594.02,2537.28 3592.64,2537.52 3591.22,2537.55L3591.18,2535.72C3592.43,2535.69 3593.63,2535.49 3594.77,2535.13ZM3584.21,2533.85C3585.24,2534.48 3586.36,2534.97 3587.56,2535.29L3587.09,2537.05C3585.72,2536.69 3584.43,2536.13 3583.26,2535.42L3584.21,2533.85ZM3600.77,2531.12L3602.17,2532.29C3601.27,2533.36 3600.23,2534.29 3599.07,2535.07L3598.06,2533.55C3599.07,2532.87 3599.98,2532.05 3600.77,2531.12ZM3579.33,2528.53C3579.88,2529.63 3580.57,2530.65 3581.39,2531.54L3580.04,2532.78C3579.11,2531.76 3578.31,2530.6 3577.69,2529.35L3579.33,2528.53ZM3603.68,2524.51L3605.49,2524.75C3605.3,2526.16 3604.92,2527.51 3604.37,2528.76L3602.69,2528.02C3603.18,2526.93 3603.51,2525.75 3603.68,2524.51ZM3578.08,2521.43C3578.03,2521.89 3578,2522.36 3578,2522.83C3578,2523.6 3578.07,2524.34 3578.2,2525.07L3576.39,2525.39C3576.25,2524.56 3576.17,2523.7 3576.17,2522.83C3576.17,2522.29 3576.2,2521.76 3576.26,2521.23L3578.08,2521.43ZM3602.58,2517.38L3604.23,2516.61C3604.82,2517.85 3605.23,2519.19 3605.44,2520.59L3603.64,2520.87C3603.45,2519.64 3603.09,2518.47 3602.58,2517.38ZM3580.84,2514.77C3580.08,2515.71 3579.45,2516.76 3578.98,2517.9L3577.29,2517.2C3577.83,2515.9 3578.55,2514.7 3579.41,2513.62L3580.84,2514.77ZM3597.82,2511.96L3598.8,2510.42C3599.98,2511.17 3601.04,2512.08 3601.96,2513.13L3600.58,2514.33C3599.78,2513.42 3598.85,2512.62 3597.82,2511.96ZM3586.75,2510.62C3585.58,2511.02 3584.49,2511.58 3583.5,2512.27L3582.45,2510.78C3583.58,2509.98 3584.83,2509.35 3586.16,2508.89L3586.75,2510.62ZM3590.33,2509.95L3590.25,2508.13C3590.46,2508.12 3590.68,2508.11 3590.89,2508.11L3591.16,2508.11C3592.49,2508.14 3593.79,2508.34 3595.01,2508.7L3594.5,2510.45C3593.36,2510.12 3592.14,2509.94 3590.89,2509.94C3590.7,2509.94 3590.51,2509.94 3590.33,2509.95Z"/>
                </g>
            </g>
            <g transform="matrix(4.16667,0,0,4.16667,1250.5,-595.245)">
                <text x="496.633px" y="437.095px" style="font-family:'NasalizationRg-Regular', 'Nasalization', sans-serif;font-size:18.69px;">eltbe<tspan x="567.225px 579.336px 591.877px 596.699px 607.408px 619.594px " y="437.095px 437.095px 437.095px 437.095px 437.095px 437.095px ">völker</tspan>ung</text>
                <text x="492.34px" y="466.168px" style="font-family:'NasalizationRg-Regular', 'Nasalization', sans-serif;font-size:29.073px;">2<tspan x="513.069px 533.973px 554.702px 576.448px 588.514px 609.243px 630.146px 650.061px " y="466.168px 466.168px 466.168px 466.168px 466.168px 466.168px 466.168px 466.168px ">020-2050</tspan></text>
            </g>
        </g>
        <g id="Anstieg_Weltbevölkerung" transform="matrix(1,0,0,1,0,60)">
            <g id="world_population_growth" transform="matrix(1.15529,0,0,1.15529,-561.507,-164.07)">
                <path d="M3707.45,661.014L3707.42,759.424L3707.42,759.424C3707.08,759.423 3706.75,759.422 3706.42,759.422C3560.4,759.422 3438.84,864.98 3413.95,1003.89L3413.95,1003.89L3317.11,986.282C3350.33,801.435 3512.1,661.013 3706.42,661.013L3707.45,661.014Z" style="fill:none;stroke:black;stroke-width:0.36px;"/>
                <path d="M3413.95,1003.89L3413.95,1003.89C3410.88,1020.98 3409.28,1038.59 3409.28,1056.56C3409.28,1210.85 3527.13,1337.83 3677.63,1352.32L3677.63,1352.32L3668.4,1450.3C3467.91,1431.16 3310.87,1262.05 3310.87,1056.56C3310.87,1032.57 3313.01,1009.07 3317.11,986.282L3413.95,1003.89Z" style="fill:none;stroke:black;stroke-width:0.36px;"/>
                <path d="M4063.89,1226C4000.36,1359.64 3864.11,1452.11 3706.42,1452.11C3693.61,1452.11 3680.93,1451.5 3668.4,1450.3L3677.63,1352.32L3677.63,1352.32C3687.11,1353.23 3696.71,1353.7 3706.42,1353.7C3825.07,1353.7 3927.57,1284 3975.18,1183.36L3975.18,1183.36L4063.89,1226Z" style="fill:none;stroke:black;stroke-width:0.36px;"/>
                <path d="M4101.88,1065.22C4100.64,1122.64 4087.14,1177.06 4063.89,1226L3975.18,1183.36L3975.18,1183.36C3992.43,1146.89 4002.48,1106.37 4003.48,1063.62L4003.48,1063.62L4101.88,1065.22Z" style="fill:none;stroke:black;stroke-width:0.36px;"/>
                <path d="M4089.25,956.781C4097.55,988.642 4101.97,1022.09 4101.97,1056.56C4101.97,1059.46 4101.94,1062.36 4101.88,1065.22L4003.48,1063.62L4003.48,1063.62C4003.53,1061.28 4003.56,1058.92 4003.56,1056.56C4003.56,1030.83 4000.28,1005.86 3994.12,982.024L3994.12,982.023L4089.25,956.781Z" style="fill:none;stroke:black;stroke-width:0.36px;"/>
                <path d="M4069.24,898.867C4077.34,917.47 4084.06,936.817 4089.25,956.781L3994.12,982.023L3994.12,982.023C3990.25,967.09 3985.26,952.611 3979.22,938.666L3979.22,938.665L4069.24,898.867Z" style="fill:none;stroke:black;stroke-width:0.36px;"/>
                <path d="M4040.55,844.896C4051.44,862.04 4061.05,880.077 4069.24,898.867L3979.22,938.665L3979.22,938.665C3973.22,924.823 3966.2,911.525 3958.25,898.868L3958.25,898.867L4040.55,844.896Z" style="fill:none;stroke:black;stroke-width:0.36px;"/>
                <path d="M4016.51,811.088C4025.1,821.914 4033.13,833.199 4040.55,844.896L3958.25,898.867L3958.25,898.867C3952.58,889.833 3946.43,881.125 3939.85,872.781L3939.85,872.78L4016.51,811.088Z" style="fill:none;stroke:black;stroke-width:0.36px;"/>
                <path d="M3990,780.918C3999.33,790.515 4008.18,800.583 4016.51,811.088L3939.85,872.78L3939.85,872.78C3933.63,864.892 3927.02,857.326 3920.05,850.113L3920.05,850.113L3990,780.918Z" style="fill:none;stroke:black;stroke-width:0.36px;"/>
                <path d="M3965.66,757.897C3974.09,765.225 3982.21,772.903 3990,780.918L3920.05,850.113L3920.05,850.113C3914.06,843.918 3907.8,837.983 3901.29,832.319L3901.29,832.318L3965.66,757.897Z" style="fill:none;stroke:black;stroke-width:0.36px;"/>
                <path d="M3940.38,737.675C3949.08,744.077 3957.52,750.827 3965.66,757.897L3901.29,832.318L3901.29,832.318C3895.06,826.898 3888.61,821.733 3881.93,816.84L3881.93,816.84L3940.38,737.675Z" style="fill:none;stroke:black;stroke-width:0.36px;"/>
                <path d="M3926.45,727.893C3931.16,731.053 3935.8,734.312 3940.38,737.675L3881.93,816.84L3881.93,816.84C3878.55,814.356 3875.11,811.943 3871.62,809.602L3871.62,809.602L3926.45,727.893Z" style="fill:none;stroke:black;stroke-width:0.36px;"/>
                <path d="M3911.9,718.58C3916.83,721.581 3921.68,724.686 3926.45,727.893L3871.62,809.602L3871.62,809.602C3867.95,807.137 3864.21,804.752 3860.42,802.446L3860.42,802.446L3911.9,718.58Z" style="fill:none;stroke:black;stroke-width:0.36px;"/>
                <path d="M3707.45,661.014C3782.3,661.209 3852.29,682.235 3911.9,718.58L3860.42,802.446L3860.42,802.446C3815.77,775.311 3763.41,759.608 3707.42,759.424L3707.42,759.424L3707.45,661.014Z" style="fill:none;stroke:black;stroke-width:0.36px;"/>
            </g>
            <g id="bold_lines">
                <path id="outline" d="M3720.47,596.256C3466.42,596.256 3260.17,802.511 3260.17,1056.56C3260.17,1310.61 3466.42,1516.87 3720.47,1516.87C3974.52,1516.87 4180.78,1310.61 4180.78,1056.56C4180.78,802.511 3974.52,596.256 3720.47,596.256ZM3720.47,599.589C3972.68,599.589 4177.44,804.351 4177.44,1056.56C4177.44,1308.77 3972.68,1513.53 3720.47,1513.53C3468.26,1513.53 3263.5,1308.77 3263.5,1056.56C3263.5,804.351 3468.26,599.589 3720.47,599.589ZM3720.47,713.114C3910.03,713.114 4063.92,867.007 4063.92,1056.56C4063.92,1246.11 3910.03,1400.01 3720.47,1400.01C3530.92,1400.01 3377.03,1246.11 3377.03,1056.56C3377.03,867.007 3530.92,713.114 3720.47,713.114ZM3720.47,716.448C3908.19,716.448 4060.59,868.847 4060.59,1056.56C4060.59,1244.27 3908.19,1396.67 3720.47,1396.67C3532.76,1396.67 3380.36,1244.27 3380.36,1056.56C3380.36,868.847 3532.76,716.448 3720.47,716.448Z"/>
                <g transform="matrix(1,0,0,1,0,-60)">
                    <path d="M3721.5,659.59L3721.67,773.116" style="fill:none;stroke:black;stroke-width:4.17px;"/>
                </g>
            </g>
            <g id="beschriftung" transform="matrix(1,0,0,1,59.8138,17.8288)">
                <g transform="matrix(1,0,0,1,1040.07,-1114.91)">
                    <text x="2847.91px" y="1621.15px" style="font-family:'OpenSansCondensed-Light', 'Open Sans Condensed', sans-serif;font-weight:300;font-stretch:condensed;font-size:33.333px;">10’000 v.Chr. -1700 n.Chr.</text>
                </g>
                <g transform="matrix(1,0,0,1,1335.39,-748.905)">
                    <text x="2925.07px" y="1621.15px" style="font-family:'OpenSansCondensed-Light', 'Open Sans Condensed', sans-serif;font-weight:300;font-stretch:condensed;font-size:33.333px;">1900 n.Chr.</text>
                </g>
                <g id="_-1875-n.Chr.-" serif:id="(1875 n.Chr.)" transform="matrix(1,0,0,1,1335.39,-820.247)">
                    <text x="2925.07px" y="1621.15px" style="font-family:'OpenSansCondensed-Light', 'Open Sans Condensed', sans-serif;font-weight:300;font-stretch:condensed;font-size:33.333px;">1875 n.Chr.</text>
                </g>
                <g transform="matrix(1,0,0,1,1335.39,-640.43)">
                    <text x="2925.07px" y="1621.15px" style="font-family:'OpenSansCondensed-Light', 'Open Sans Condensed', sans-serif;font-weight:300;font-stretch:condensed;font-size:33.333px;">1925 n.Chr.</text>
                </g>
                <g transform="matrix(1,0,0,1,1335.39,-451.954)">
                    <text x="2925.07px" y="1621.15px" style="font-family:'OpenSansCondensed-Light', 'Open Sans Condensed', sans-serif;font-weight:300;font-stretch:condensed;font-size:33.333px;">1950 n.Chr.</text>
                </g>
                <g transform="matrix(1,0,0,1,1075.26,-87.1575)">
                    <text x="2925.07px" y="1621.15px" style="font-family:'OpenSansCondensed-Light', 'Open Sans Condensed', sans-serif;font-weight:300;font-stretch:condensed;font-size:33.333px;">1975 n.Chr.</text>
                </g>
                <g transform="matrix(1,0,0,1,145.117,-223.789)">
                    <text x="2925.07px" y="1621.15px" style="font-family:'OpenSansCondensed-Light', 'Open Sans Condensed', sans-serif;font-weight:300;font-stretch:condensed;font-size:33.333px;">2000 n.Chr.</text>
                </g>
                <g transform="matrix(1,0,0,1,1335.39,-1065.35)">
                    <text x="2925.07px" y="1621.15px" style="font-family:'OpenSansCondensed-Light', 'Open Sans Condensed', sans-serif;font-weight:300;font-stretch:condensed;font-size:33.333px;">1725 n.Chr.</text>
                    <text x="2925.07px" y="1658.65px" style="font-family:'OpenSansCondensed-Light', 'Open Sans Condensed', sans-serif;font-weight:300;font-stretch:condensed;font-size:33.333px;">1750 n.Chr.</text>
                    <text x="2925.07px" y="1696.15px" style="font-family:'OpenSansCondensed-Light', 'Open Sans Condensed', sans-serif;font-weight:300;font-stretch:condensed;font-size:33.333px;">1775 n.Chr.</text>
                    <text x="2925.07px" y="1733.65px" style="font-family:'OpenSansCondensed-Light', 'Open Sans Condensed', sans-serif;font-weight:300;font-stretch:condensed;font-size:33.333px;">1800 n.Chr.</text>
                    <text x="2925.07px" y="1771.15px" style="font-family:'OpenSansCondensed-Light', 'Open Sans Condensed', sans-serif;font-weight:300;font-stretch:condensed;font-size:33.333px;">1825 n.Chr.</text>
                    <text x="2925.07px" y="1808.65px" style="font-family:'OpenSansCondensed-Light', 'Open Sans Condensed', sans-serif;font-weight:300;font-stretch:condensed;font-size:33.333px;">1850 n.Chr.</text>
                </g>
                <g transform="matrix(1,0,0,1,189.599,-1019.4)">
                    <text x="2880.59px" y="1621.15px" style="font-family:'OpenSansCondensed-Light', 'Open Sans Condensed', sans-serif;font-weight:300;font-stretch:condensed;font-size:33.333px;">2021 n.Chr. (</text>
                    <text x="3020.79px" y="1621.15px" style="font-family:'OpenSansCondensed-LightItalic', 'Open Sans Condensed', sans-serif;font-weight:300;font-style:italic;font-stretch:condensed;font-size:33.333px;">heute</text>
                    <text x="3076.44px" y="1621.15px" style="font-family:'OpenSansCondensed-Light', 'Open Sans Condensed', sans-serif;font-weight:300;font-stretch:condensed;font-size:33.333px;">)</text>
                </g>
            </g>
            <g id="connection_lines">
                <path d="M3941.41,511.569L3896.58,511.569L3864.92,601.489" style="fill:none;stroke:black;stroke-width:0.42px;"/>
                <path d="M4302.11,562.303L4032.44,562.303L3976.99,654.009" style="fill:none;stroke:black;stroke-width:0.42px;"/>
                <path d="M4302.11,599.22L4036.64,599.22L3995.25,666.277" style="fill:none;stroke:black;stroke-width:0.42px;"/>
                <path d="M4302.11,636.908L4052.06,636.908L4019.2,684.326" style="fill:none;stroke:black;stroke-width:0.42px;"/>
                <path d="M4302.11,672.609L4077.93,672.439L4047.91,709.342" style="fill:none;stroke:black;stroke-width:0.42px;"/>
                <path d="M4302.11,709.342L4112.63,709.342L4079.24,741.803" style="fill:none;stroke:black;stroke-width:0.42px;"/>
                <path d="M4302.11,747.965L4150.93,747.965L4110.19,780.986" style="fill:none;stroke:black;stroke-width:0.42px;"/>
                <path d="M4302.11,806.236L4194.06,806.236L4143.52,835.358" style="fill:none;stroke:black;stroke-width:0.42px;"/>
                <path d="M4172.32,902.323L4233.51,877.578L4302.11,877.578" style="fill:none;stroke:black;stroke-width:0.42px;"/>
                <path d="M4193.67,993.377L4237.22,986.053L4302.11,986.053" style="fill:none;stroke:black;stroke-width:0.42px;"/>
                <path d="M4302.11,1174.53L4221.71,1174.53L4184.48,1169.01" style="fill:none;stroke:black;stroke-width:0.42px;"/>
                <path d="M4054.31,1539.33L4018.74,1539.33L3967.53,1465" style="fill:none;stroke:black;stroke-width:0.42px;"/>
                <path d="M3261.78,1402.69L3274,1402.69L3343.99,1349.93" style="fill:none;stroke:black;stroke-width:0.42px;"/>
                <path d="M3429.99,677.842L3371.63,609.557L3353.49,609.557" style="fill:none;stroke:black;stroke-width:0.42px;"/>
            </g>
            <g id="Titel">
                <g transform="matrix(1,0,0,1,731.899,-426.817)">
                    <text x="2894.12px" y="1621.15px" style="font-family:'OpenSansCondensed-Light', 'Open Sans Condensed', sans-serif;font-weight:300;font-stretch:condensed;font-size:33.333px;">25-Jahre-Schritte,</text>
                    <text x="2954.58px" y="1654.49px" style="font-family:'OpenSansCondensed-Light', 'Open Sans Condensed', sans-serif;font-weight:300;font-stretch:condensed;font-size:33.333px;">global</text>
                </g>
                <g transform="matrix(2.00644,0,0,2.00644,2552.57,135.415)">
                    <text x="460.983px" y="437.095px" style="font-family:'NasalizationRg-Regular', 'Nasalization', sans-serif;font-size:18.69px;">Be<tspan x="486.27px 498.381px 510.922px 515.744px 526.453px 538.639px " y="437.095px 437.095px 437.095px 437.095px 437.095px 437.095px ">völker</tspan>ungswachstum</text>
                    <text x="474.765px" y="466.168px" style="font-family:'NasalizationRg-Regular', 'Nasalization', sans-serif;font-size:29.073px;">10000 v<tspan x="596.727px 603.762px " y="466.168px 466.168px ">. </tspan>Chr<tspan x="662.519px 669.554px " y="466.168px 466.168px ">. </tspan>-</text>
                    <text x="537.185px" y="495.241px" style="font-family:'NasalizationRg-Regular', 'Nasalization', sans-serif;font-size:29.073px;">heute</text>
                </g>
            </g>
        </g>
    </g>
</svg>
