<?xml version="1.0" encoding="UTF-8" standalone="no"?>
<!DOCTYPE svg PUBLIC "-//W3C//DTD SVG 1.1//EN" "http://www.w3.org/Graphics/SVG/1.1/DTD/svg11.dtd">
<svg width="100%" height="100%" viewBox="0 0 2481 3508" version="1.1" xmlns="http://www.w3.org/2000/svg" xmlns:xlink="http://www.w3.org/1999/xlink" xml:space="preserve" xmlns:serif="http://www.serif.com/" style="fill-rule:evenodd;clip-rule:evenodd;stroke-linecap:round;stroke-linejoin:round;stroke-miterlimit:1.5;">
    <g transform="matrix(1,0,0,1,-2480.31,0)">
        <g transform="matrix(0.831114,0,0,0.831114,1993.78,707.205)">
            <g id="Diagram" transform="matrix(1.15716,0,0,1.15716,-656.627,-240.049)">
                <g id="Light_year_distances" transform="matrix(1.40249,0,0,1.40249,-950.774,-261.134)">
                    <g transform="matrix(1,0,0,1,9.09495e-13,-175.526)">
                        <path d="M1851.29,1692.02C1851.29,1410.04 2080.22,1181.1 2362.2,1181.1C2644.19,1181.1 2873.12,1410.04 2873.12,1692.02" style="fill:none;stroke:black;stroke-width:0.62px;stroke-dasharray:9.27,9.27,0,0;"/>
                    </g>
                    <g transform="matrix(1,0,0,1,9.09495e-13,-175.526)">
                        <path d="M2100.03,1692.02C2100.03,1547.32 2217.5,1429.84 2362.2,1429.84C2506.91,1429.84 2624.38,1547.32 2624.38,1692.02" style="fill:none;stroke:black;stroke-width:0.62px;stroke-dasharray:9.27,9.27,0,0;"/>
                    </g>
                    <g transform="matrix(1,0,0,1,9.09495e-13,-175.526)">
                        <path d="M1602.55,1692.02C1602.55,1272.75 1942.94,932.365 2362.2,932.365C2781.47,932.365 3121.86,1272.75 3121.86,1692.02" style="fill:none;stroke:black;stroke-width:0.62px;stroke-dasharray:9.27,9.27,0,0;"/>
                    </g>
                    <g transform="matrix(0.741388,0,0,0.741388,478.765,129.921)">
                        <g transform="matrix(0.0108016,-0.999942,0.999942,0.0108016,-38.8933,3701.19)">
                            <text x="1851.25px" y="1870.25px" style="font-family:'OpenSansCondensed-Light', 'Open Sans Condensed', sans-serif;font-weight:300;font-stretch:condensed;font-size:37.5px;">4</text>
                        </g>
                        <g transform="matrix(0.0412013,-0.999151,0.999151,0.0412013,-71.2717,3622.04)">
                            <text x="1851.6px" y="1848.16px" style="font-family:'OpenSansCondensed-Light', 'Open Sans Condensed', sans-serif;font-weight:300;font-stretch:condensed;font-size:33.333px;">L</text>
                        </g>
                        <g transform="matrix(0.0525736,-0.998617,0.998617,0.0525736,-79.3776,3589.6)">
                            <text x="1852.09px" y="1836.63px" style="font-family:'OpenSansCondensed-Light', 'Open Sans Condensed', sans-serif;font-weight:300;font-stretch:condensed;font-size:33.333px;">i</text>
                        </g>
                        <g transform="matrix(0.0651187,-0.997878,0.997878,0.0651187,-94.7156,3559.65)">
                            <text x="1852.4px" y="1830.38px" style="font-family:'OpenSansCondensed-Light', 'Open Sans Condensed', sans-serif;font-weight:300;font-stretch:condensed;font-size:33.333px;">c</text>
                        </g>
                        <g transform="matrix(0.0821792,-0.996618,0.996618,0.0821792,-113.105,3517.25)">
                            <text x="1853.06px" y="1820.04px" style="font-family:'OpenSansCondensed-Light', 'Open Sans Condensed', sans-serif;font-weight:300;font-stretch:condensed;font-size:33.333px;">h</text>
                        </g>
                        <g transform="matrix(0.097726,-0.995213,0.995213,0.097726,-124.281,3474.84)">
                            <text x="1854.24px" y="1805.96px" style="font-family:'OpenSansCondensed-Light', 'Open Sans Condensed', sans-serif;font-weight:300;font-stretch:condensed;font-size:33.333px;">t</text>
                        </g>
                        <g transform="matrix(0.10578,-0.99439,0.99439,0.10578,-129.834,3452.97)">
                            <text x="1854.96px" y="1798.67px" style="font-family:'OpenSansCondensed-Light', 'Open Sans Condensed', sans-serif;font-weight:300;font-stretch:condensed;font-size:33.333px;">j</text>
                        </g>
                        <g transform="matrix(0.120287,-0.992739,0.992739,0.120287,-147.032,3418.98)">
                            <text x="1855.61px" y="1792.45px" style="font-family:'OpenSansCondensed-Light', 'Open Sans Condensed', sans-serif;font-weight:300;font-stretch:condensed;font-size:33.333px;">a</text>
                        </g>
                        <g transform="matrix(0.14051,-0.990079,0.990079,0.14051,-165.891,3368.4)">
                            <text x="1857.15px" y="1779.75px" style="font-family:'OpenSansCondensed-Light', 'Open Sans Condensed', sans-serif;font-weight:300;font-stretch:condensed;font-size:33.333px;">h</text>
                        </g>
                        <g transform="matrix(0.158701,-0.987327,0.987327,0.158701,-179.238,3321.09)">
                            <text x="1859.15px" y="1765.72px" style="font-family:'OpenSansCondensed-Light', 'Open Sans Condensed', sans-serif;font-weight:300;font-stretch:condensed;font-size:33.333px;">r</text>
                        </g>
                        <g transform="matrix(0.173137,-0.984898,0.984898,0.173137,-191.766,3285.06)">
                            <text x="1860.58px" y="1756.74px" style="font-family:'OpenSansCondensed-Light', 'Open Sans Condensed', sans-serif;font-weight:300;font-stretch:condensed;font-size:33.333px;">e</text>
                        </g>
                    </g>
                    <g transform="matrix(0.741388,0,0,0.741388,543.091,194.247)">
                        <g transform="matrix(0.0182322,-0.999834,0.999834,0.0182322,278.532,3850.55)">
                            <text x="2099.97px" y="1783.44px" style="font-family:'OpenSansCondensed-Light', 'Open Sans Condensed', sans-serif;font-weight:300;font-stretch:condensed;font-size:33.333px;">2</text>
                        </g>
                        <g transform="matrix(0.0736041,-0.997288,0.997288,0.0736041,186.819,3728.83)">
                            <text x="2100.5px" y="1763.86px" style="font-family:'OpenSansCondensed-Light', 'Open Sans Condensed', sans-serif;font-weight:300;font-stretch:condensed;font-size:33.333px;">L</text>
                        </g>
                        <g transform="matrix(0.0958584,-0.995395,0.995395,0.0958584,155.648,3676.06)">
                            <text x="2101.37px" y="1752.35px" style="font-family:'OpenSansCondensed-Light', 'Open Sans Condensed', sans-serif;font-weight:300;font-stretch:condensed;font-size:33.333px;">i</text>
                        </g>
                        <g transform="matrix(0.120385,-0.992727,0.992727,0.120385,115.485,3622.55)">
                            <text x="2101.93px" y="1746.11px" style="font-family:'OpenSansCondensed-Light', 'Open Sans Condensed', sans-serif;font-weight:300;font-stretch:condensed;font-size:33.333px;">c</text>
                        </g>
                        <g transform="matrix(0.153553,-0.98814,0.98814,0.153553,64.9287,3547.5)">
                            <text x="2103.14px" y="1735.85px" style="font-family:'OpenSansCondensed-Light', 'Open Sans Condensed', sans-serif;font-weight:300;font-stretch:condensed;font-size:33.333px;">h</text>
                        </g>
                        <g transform="matrix(0.183951,-0.982935,0.982935,0.183951,25.6222,3474.55)">
                            <text x="2105.37px" y="1721.84px" style="font-family:'OpenSansCondensed-Light', 'Open Sans Condensed', sans-serif;font-weight:300;font-stretch:condensed;font-size:33.333px;">t</text>
                        </g>
                        <g transform="matrix(0.199534,-0.979891,0.979891,0.199534,6.18607,3436.88)">
                            <text x="2106.72px" y="1714.65px" style="font-family:'OpenSansCondensed-Light', 'Open Sans Condensed', sans-serif;font-weight:300;font-stretch:condensed;font-size:33.333px;">j</text>
                        </g>
                        <g transform="matrix(0.227622,-0.97375,0.97375,0.227622,-35.5081,3372.22)">
                            <text x="2107.95px" y="1708.5px" style="font-family:'OpenSansCondensed-Light', 'Open Sans Condensed', sans-serif;font-weight:300;font-stretch:condensed;font-size:33.333px;">a</text>
                        </g>
                        <g transform="matrix(0.266331,-0.963882,0.963882,0.266331,-86.1276,3278.96)">
                            <text x="2110.86px" y="1696.06px" style="font-family:'OpenSansCondensed-Light', 'Open Sans Condensed', sans-serif;font-weight:300;font-stretch:condensed;font-size:33.333px;">h</text>
                        </g>
                        <g transform="matrix(0.300754,-0.953702,0.953702,0.300754,-125.903,3193.19)">
                            <text x="2114.64px" y="1682.45px" style="font-family:'OpenSansCondensed-Light', 'Open Sans Condensed', sans-serif;font-weight:300;font-stretch:condensed;font-size:33.333px;">r</text>
                        </g>
                        <g transform="matrix(0.327912,-0.944708,0.944708,0.327912,-158.197,3125.19)">
                            <text x="2117.33px" y="1673.78px" style="font-family:'OpenSansCondensed-Light', 'Open Sans Condensed', sans-serif;font-weight:300;font-stretch:condensed;font-size:33.333px;">e</text>
                        </g>
                    </g>
                    <g transform="matrix(0.741388,0,0,0.741388,414.439,65.5948)">
                        <g transform="matrix(0.00644159,-0.999979,0.999979,0.00644159,-364.774,3546.91)">
                            <text x="1602.53px" y="1957.02px" style="font-family:'OpenSansCondensed-Light', 'Open Sans Condensed', sans-serif;font-weight:300;font-stretch:condensed;font-size:33.333px;">6</text>
                        </g>
                        <g transform="matrix(0.0252646,-0.999681,0.999681,0.0252646,-374.588,3490.68)">
                            <text x="1602.71px" y="1937.43px" style="font-family:'OpenSansCondensed-Light', 'Open Sans Condensed', sans-serif;font-weight:300;font-stretch:condensed;font-size:33.333px;">L</text>
                        </g>
                        <g transform="matrix(0.0329874,-0.999456,0.999456,0.0329874,-374.62,3464.42)">
                            <text x="1603.01px" y="1925.8px" style="font-family:'OpenSansCondensed-Light', 'Open Sans Condensed', sans-serif;font-weight:300;font-stretch:condensed;font-size:33.333px;">i</text>
                        </g>
                        <g transform="matrix(0.0413992,-0.999143,0.999143,0.0413992,-381.058,3441.91)">
                            <text x="1603.21px" y="1919.54px" style="font-family:'OpenSansCondensed-Light', 'Open Sans Condensed', sans-serif;font-weight:300;font-stretch:condensed;font-size:33.333px;">c</text>
                        </g>
                        <g transform="matrix(0.0527713,-0.998607,0.998607,0.0527713,-387.606,3409.9)">
                            <text x="1603.62px" y="1909.26px" style="font-family:'OpenSansCondensed-Light', 'Open Sans Condensed', sans-serif;font-weight:300;font-stretch:condensed;font-size:33.333px;">h</text>
                        </g>
                        <g transform="matrix(0.0632429,-0.997998,0.997998,0.0632429,-388.403,3376.44)">
                            <text x="1604.39px" y="1895.12px" style="font-family:'OpenSansCondensed-Light', 'Open Sans Condensed', sans-serif;font-weight:300;font-stretch:condensed;font-size:33.333px;">t</text>
                        </g>
                        <g transform="matrix(0.0686717,-0.997639,0.997639,0.0686717,-388.681,3359.21)">
                            <text x="1604.86px" y="1887.78px" style="font-family:'OpenSansCondensed-Light', 'Open Sans Condensed', sans-serif;font-weight:300;font-stretch:condensed;font-size:33.333px;">j</text>
                        </g>
                        <g transform="matrix(0.0784349,-0.996919,0.996919,0.0784349,-396.36,3334.28)">
                            <text x="1605.28px" y="1881.53px" style="font-family:'OpenSansCondensed-Light', 'Open Sans Condensed', sans-serif;font-weight:300;font-stretch:condensed;font-size:33.333px;">a</text>
                        </g>
                        <g transform="matrix(0.0919739,-0.995761,0.995761,0.0919739,-402.365,3296.41)">
                            <text x="1606.28px" y="1868.83px" style="font-family:'OpenSansCondensed-Light', 'Open Sans Condensed', sans-serif;font-weight:300;font-stretch:condensed;font-size:33.333px;">h</text>
                        </g>
                        <g transform="matrix(0.104209,-0.994555,0.994555,0.104209,-404.568,3260.28)">
                            <text x="1607.59px" y="1854.73px" style="font-family:'OpenSansCondensed-Light', 'Open Sans Condensed', sans-serif;font-weight:300;font-stretch:condensed;font-size:33.333px;">r</text>
                        </g>
                        <g transform="matrix(0.113921,-0.99349,0.99349,0.113921,-408.416,3233.49)">
                            <text x="1608.52px" y="1845.7px" style="font-family:'OpenSansCondensed-Light', 'Open Sans Condensed', sans-serif;font-weight:300;font-stretch:condensed;font-size:33.333px;">e</text>
                        </g>
                    </g>
                </g>
                <g id="Oort-Cloud" serif:id="Oort Cloud" transform="matrix(1.40249,0,0,1.40249,-950.774,114.381)">
                    <g id="Ooort_cloud" transform="matrix(1,0,0,1,4.54747e-13,-443.274)">
                        <path d="M2222.75,1692.02C2222.75,1615.05 2285.24,1552.57 2362.2,1552.57C2439.17,1552.57 2501.66,1615.05 2501.66,1692.02" style="fill:none;stroke:black;stroke-width:3.09px;stroke-dasharray:0,24.71,0,0;"/>
                    </g>
                    <g transform="matrix(0.741388,0,0,0.741388,574.83,-41.7622)">
                        <g id="Ooort_cloud1" serif:id="Ooort_cloud">
                            <g transform="matrix(0.0455537,-0.998962,0.998962,0.0455537,382.494,3881.58)">
                                <text x="2222.56px" y="1740.62px" style="font-family:'OpenSansCondensed-Light', 'Open Sans Condensed', sans-serif;font-weight:300;font-stretch:condensed;font-size:33.333px;">O</text>
                            </g>
                            <g transform="matrix(0.127429,-0.991848,0.991848,0.127429,230.775,3709.04)">
                                <text x="2223.41px" y="1723.36px" style="font-family:'OpenSansCondensed-Light', 'Open Sans Condensed', sans-serif;font-weight:300;font-stretch:condensed;font-size:33.333px;">o</text>
                            </g>
                            <g transform="matrix(0.193387,-0.981123,0.981123,0.193387,117.552,3562.22)">
                                <text x="2225.22px" y="1709.62px" style="font-family:'OpenSansCondensed-Light', 'Open Sans Condensed', sans-serif;font-weight:300;font-stretch:condensed;font-size:33.333px;">r</text>
                            </g>
                            <g transform="matrix(0.231613,-0.972808,0.972808,0.231613,56.7486,3473.2)">
                                <text x="2226.98px" y="1700.68px" style="font-family:'OpenSansCondensed-Light', 'Open Sans Condensed', sans-serif;font-weight:300;font-stretch:condensed;font-size:33.333px;">t</text>
                            </g>
                            <g transform="matrix(0.320424,-0.947274,0.947274,0.320424,-82.9407,3259.43)">
                                <text x="2230.22px" y="1687.52px" style="font-family:'OpenSansCondensed-Light', 'Open Sans Condensed', sans-serif;font-weight:300;font-stretch:condensed;font-size:33.333px;">C</text>
                            </g>
                            <g transform="matrix(0.369038,-0.929414,0.929414,0.369038,-146.015,3133.45)">
                                <text x="2234.8px" y="1674.27px" style="font-family:'OpenSansCondensed-Light', 'Open Sans Condensed', sans-serif;font-weight:300;font-stretch:condensed;font-size:33.333px;">l</text>
                            </g>
                            <g transform="matrix(0.41845,-0.90824,0.90824,0.41845,-214.366,3002.01)">
                                <text x="2237.02px" y="1668.4px" style="font-family:'OpenSansCondensed-Light', 'Open Sans Condensed', sans-serif;font-weight:300;font-stretch:condensed;font-size:33.333px;">o</text>
                            </g>
                            <g transform="matrix(0.484841,-0.874602,0.874602,0.484841,-292.791,2814.58)">
                                <text x="2242.8px" y="1655.83px" style="font-family:'OpenSansCondensed-Light', 'Open Sans Condensed', sans-serif;font-weight:300;font-stretch:condensed;font-size:33.333px;">u</text>
                            </g>
                            <g transform="matrix(0.548382,-0.836228,0.836228,0.548382,-358.289,2623.46)">
                                <text x="2249.69px" y="1643.44px" style="font-family:'OpenSansCondensed-Light', 'Open Sans Condensed', sans-serif;font-weight:300;font-stretch:condensed;font-size:33.333px;">d</text>
                            </g>
                        </g>
                    </g>
                </g>
                <g id="other_suns" transform="matrix(1.40249,0,0,1.40249,-950.774,-261.134)">
                    <circle cx="2362.2" cy="1516.49" r="31.722" style="fill:none;stroke:black;stroke-width:3.09px;"/>
                    <g transform="matrix(0.956187,0,0,0.956187,439.134,-385.367)">
                        <circle cx="2362.2" cy="1516.49" r="31.722" style="fill:none;stroke:black;stroke-width:3.23px;"/>
                    </g>
                    <g transform="matrix(0.664305,0,0,0.664305,1173.43,94.2526)">
                        <circle cx="2362.2" cy="1516.49" r="31.722" style="fill:none;stroke:black;stroke-width:4.65px;"/>
                    </g>
                    <g transform="matrix(0.664305,0,0,0.664305,1199.29,-203.526)">
                        <circle cx="2362.2" cy="1516.49" r="31.722" style="fill:none;stroke:black;stroke-width:4.65px;"/>
                    </g>
                    <g transform="matrix(0.664305,0,0,0.664305,1152.93,-224.598)">
                        <circle cx="2362.2" cy="1516.49" r="31.722" style="fill:none;stroke:black;stroke-width:4.65px;"/>
                    </g>
                    <g transform="matrix(0.664305,0,0,0.664305,470.876,-364.784)">
                        <circle cx="2362.2" cy="1516.49" r="31.722" style="fill:none;stroke:black;stroke-width:4.65px;"/>
                    </g>
                    <g transform="matrix(0.664305,0,0,0.664305,283.832,-49.0264)">
                        <circle cx="2362.2" cy="1516.49" r="31.722" style="fill:none;stroke:black;stroke-width:4.65px;"/>
                    </g>
                </g>
                <g id="Beschriftung">
                    <g transform="matrix(1,0,0,1,0.508568,-18.5147)">
                        <text x="2292.01px" y="1999.58px" style="font-family:'NasalizationRg-Regular', 'Nasalization', sans-serif;font-size:38.992px;">Sonne</text>
                    </g>
                    <g transform="matrix(1,0,0,1,708.792,-761.15)">
                        <text x="2207.89px" y="1999.58px" style="font-family:'NasalizationRg-Regular', 'Nasalization', sans-serif;font-size:38.992px;">Alpha Centauri</text>
                    </g>
                    <g transform="matrix(1,0,0,1,724.4,-1184.86)">
                        <text x="2197.34px" y="1999.58px" style="font-family:'NasalizationRg-Regular', 'Nasalization', sans-serif;font-size:38.992px;">ISE 10<tspan x="2360.1px 2387.55px " y="1999.58px 1999.58px ">49</tspan>-5319</text>
                    </g>
                    <g transform="matrix(1,0,0,1,-951.111,-902.534)">
                        <text x="2250.67px" y="1999.58px" style="font-family:'NasalizationRg-Regular', 'Nasalization', sans-serif;font-size:38.992px;">Barnard&apos;<tspan x="2428.71px 2451.56px " y="1999.58px 1999.58px ">s </tspan>Star</text>
                    </g>
                    <g transform="matrix(1,0,0,1,-267,-1343.66)">
                        <text x="2230.26px" y="1999.58px" style="font-family:'NasalizationRg-Regular', 'Nasalization', sans-serif;font-size:38.992px;">ISE 0855-0<tspan x="2505.74px 2531.12px " y="1999.58px 1999.58px ">71</tspan>4</text>
                    </g>
                    <g transform="matrix(1,0,0,1,756.478,-705.282)">
                        <text x="2197.34px" y="1999.58px" style="font-family:'NasalizationRg-Regular', 'Nasalization', sans-serif;font-size:38.992px;">P<tspan x="2223.04px 2241.09px 2266.12px 2292.68px " y="1999.58px 1999.58px 1999.58px 1999.58px ">roxi</tspan>ma Centauri</text>
                    </g>
                </g>
                <path d="M2406.7,1817.11L2866.23,1313.5" style="fill:none;stroke:black;stroke-width:1.73px;"/>
                <g transform="matrix(1.03979,0,0,1.03979,-95.7689,-52.2677)">
                    <g transform="matrix(0.674046,-0.73869,0.73869,0.674046,-393.433,2414.25)">
                        <text x="2538.92px" y="1652.93px" style="font-family:'OpenSansCondensed-Light', 'Open Sans Condensed', sans-serif;font-weight:300;font-stretch:condensed;font-size:33.333px;">6</text>
                    </g>
                    <g transform="matrix(0.674046,-0.73869,0.73869,0.674046,-383.201,2417.69)">
                        <text x="2547.93px" y="1643.06px" style="font-family:'OpenSansCondensed-Light', 'Open Sans Condensed', sans-serif;font-weight:300;font-stretch:condensed;font-size:33.333px;">6</text>
                    </g>
                    <g transform="matrix(0.674046,-0.73869,0.73869,0.674046,-373.006,2421.12)">
                        <text x="2556.91px" y="1633.22px" style="font-family:'OpenSansCondensed-Light', 'Open Sans Condensed', sans-serif;font-weight:300;font-stretch:condensed;font-size:33.333px;">4</text>
                    </g>
                    <g transform="matrix(0.674046,-0.73869,0.73869,0.674046,-362.793,2424.55)">
                        <text x="2565.91px" y="1623.36px" style="font-family:'OpenSansCondensed-Light', 'Open Sans Condensed', sans-serif;font-weight:300;font-stretch:condensed;font-size:33.333px;">1</text>
                    </g>
                    <g transform="matrix(0.674046,-0.73869,0.73869,0.674046,-347.795,2429.59)">
                        <text x="2579.11px" y="1608.89px" style="font-family:'OpenSansCondensed-Light', 'Open Sans Condensed', sans-serif;font-weight:300;font-stretch:condensed;font-size:33.333px;">J</text>
                    </g>
                    <g transform="matrix(0.674046,-0.73869,0.73869,0.674046,-342.818,2431.26)">
                        <text x="2583.49px" y="1604.08px" style="font-family:'OpenSansCondensed-Light', 'Open Sans Condensed', sans-serif;font-weight:300;font-stretch:condensed;font-size:33.333px;">a</text>
                    </g>
                    <g transform="matrix(0.674046,-0.73869,0.73869,0.674046,-333.055,2434.54)">
                        <text x="2592.09px" y="1594.66px" style="font-family:'OpenSansCondensed-Light', 'Open Sans Condensed', sans-serif;font-weight:300;font-stretch:condensed;font-size:33.333px;">h</text>
                    </g>
                    <g transform="matrix(0.674046,-0.73869,0.73869,0.674046,-322.207,2438.18)">
                        <text x="2601.65px" y="1584.19px" style="font-family:'OpenSansCondensed-Light', 'Open Sans Condensed', sans-serif;font-weight:300;font-stretch:condensed;font-size:33.333px;">r</text>
                    </g>
                    <g transform="matrix(0.674046,-0.73869,0.73869,0.674046,-315.242,2440.52)">
                        <text x="2607.78px" y="1577.47px" style="font-family:'OpenSansCondensed-Light', 'Open Sans Condensed', sans-serif;font-weight:300;font-stretch:condensed;font-size:33.333px;">e</text>
                    </g>
                    <g transform="matrix(0.674046,-0.73869,0.73869,0.674046,-300.438,2445.5)">
                        <text x="2620.82px" y="1563.18px" style="font-family:'OpenSansCondensed-Light', 'Open Sans Condensed', sans-serif;font-weight:300;font-stretch:condensed;font-size:33.333px;">P</text>
                    </g>
                    <g transform="matrix(0.674046,-0.73869,0.73869,0.674046,-289.966,2449.02)">
                        <text x="2630.04px" y="1553.07px" style="font-family:'OpenSansCondensed-Light', 'Open Sans Condensed', sans-serif;font-weight:300;font-stretch:condensed;font-size:33.333px;">S</text>
                    </g>
                    <g transform="matrix(0.674046,-0.73869,0.73869,0.674046,-279.916,2452.39)">
                        <text x="2638.89px" y="1543.37px" style="font-family:'OpenSansCondensed-Light', 'Open Sans Condensed', sans-serif;font-weight:300;font-stretch:condensed;font-size:33.333px;">P</text>
                    </g>
                    <g transform="matrix(0.674046,-0.73869,0.73869,0.674046,-269.46,2455.9)">
                        <text x="2648.1px" y="1533.28px" style="font-family:'OpenSansCondensed-Light', 'Open Sans Condensed', sans-serif;font-weight:300;font-stretch:condensed;font-size:33.333px;">*</text>
                    </g>
                </g>
            </g>
            <g id="Headline_anmerkung">
                <g transform="matrix(7.3675e-17,-1.2032,1.2032,7.3675e-17,-115.148,4103.01)">
                    <text x="727.509px" y="722.504px" style="font-family:'OpenSansCondensed-Light', 'Open Sans Condensed', sans-serif;font-weight:300;font-stretch:condensed;font-size:29.167px;">*Parker Solar Probe (PSP)</text>
                    <text x="727.509px" y="751.671px" style="font-family:'OpenSansCondensed-Light', 'Open Sans Condensed', sans-serif;font-weight:300;font-stretch:condensed;font-size:29.167px;">max. ~690&apos;000 km/h = 0,064 % c</text>
                </g>
                <g id="HEADLINE" transform="matrix(1.44643e-16,-2.3622,2.3622,1.44643e-16,452.058,3177.01)">
                    <text x="1446.49px" y="131.188px" style="font-family:'NasalizationRg-Regular', 'Nasalization', sans-serif;font-size:21.223px;">N<tspan x="1464.26px 1480.07px 1494.54px 1510.35px 1525.12px 1541.76px 1556.92px 1571.22px 1583.34px " y="131.188px 131.188px 131.188px 131.188px 131.188px 131.188px 131.188px 131.188px 131.188px ">ACHBARSTE</tspan>RNE</text>
                </g>
            </g>
        </g>
    </g>
</svg>
