<?xml version="1.0" encoding="UTF-8" standalone="no"?>
<!DOCTYPE svg PUBLIC "-//W3C//DTD SVG 1.1//EN" "http://www.w3.org/Graphics/SVG/1.1/DTD/svg11.dtd">
<svg width="100%" height="100%" viewBox="0 0 2481 3508" version="1.1" xmlns="http://www.w3.org/2000/svg" xmlns:xlink="http://www.w3.org/1999/xlink" xml:space="preserve" xmlns:serif="http://www.serif.com/" style="fill-rule:evenodd;clip-rule:evenodd;stroke-linecap:round;stroke-linejoin:round;stroke-miterlimit:1.5;">
    <g id="HEADLINE" transform="matrix(9.03897e-17,-1.47618,1.47618,9.03897e-17,-46.6292,2635.75)">
        <text x="1524.16px" y="131.188px" style="font-family:'NasalizationRg-Regular', 'Nasalization', sans-serif;font-size:28.226px;">K<tspan x="1542.77px 1565.8px 1582.79px 1605.82px " y="131.188px 131.188px 131.188px 131.188px ">OLON</tspan>IEN ?</text>
    </g>
    <g transform="matrix(1,0,0,1,0,32.265)">
        <g id="politik" transform="matrix(1,0,0,1,-3.17823,19.003)">
            <g id="politik1" serif:id="politik" transform="matrix(1,0,0,1,-106.821,-482.531)">
                <g id="specific_year" transform="matrix(2.3622,0,0,2.3622,-2617.23,1495.08)">
                    <text x="1471.71px" y="131.188px" style="font-family:'NasalizationRg-Regular', 'Nasalization', sans-serif;font-size:17.639px;">P<tspan x="1483.47px 1495.31px " y="131.188px 131.188px ">ol</tspan>itik</text>
                </g>
                <g transform="matrix(1,0,0,1,-452.433,1189.68)">
                    <text x="1338.04px" y="689.735px" style="font-family:'OpenSansCondensed-Light', 'Open Sans Condensed', sans-serif;font-weight:300;font-stretch:condensed;font-size:37.5px;">Macht</text>
                    <text x="1244.25px" y="727.235px" style="font-family:'OpenSansCondensed-Light', 'Open Sans Condensed', sans-serif;font-weight:300;font-stretch:condensed;font-size:37.5px;">Territoriale Expansion</text>
                </g>
            </g>
            <g id="regierung" transform="matrix(1.21526,0,0,1.21526,-252.16,-369.935)">
                <path d="M899.437,1062.35L898.316,1033.65" style="fill:none;stroke:black;stroke-width:0.69px;"/>
                <path d="M905.657,1044.18L907.823,1071.84" style="fill:none;stroke:black;stroke-width:0.69px;"/>
                <path d="M777.897,1234.26L980.535,1234.26C991.021,1234.26 992.554,1254.45 980.535,1254.45L777.481,1254.45C766.961,1254.45 767.378,1234.26 777.897,1234.26Z" style="fill:none;stroke:black;stroke-width:0.69px;"/>
                <g transform="matrix(1.14762,0,0,0.472306,-129.819,674.877)">
                    <path d="M777.897,1234.26L980.535,1234.26C988.343,1234.26 988.343,1254.45 980.535,1254.45L777.481,1254.45C770.233,1254.45 770.649,1234.26 777.897,1234.26Z" style="fill:none;stroke:black;stroke-width:0.78px;"/>
                </g>
                <path d="M779.311,1142.2L978.966,1142.2C992.995,1142.2 991.964,1124.38 980.179,1119.92L880.523,1083.49L780.071,1118.86C766.482,1123.99 768.56,1142.2 779.311,1142.2Z" style="fill:none;stroke:black;stroke-width:0.69px;"/>
                <path d="M880.523,1083.49L880.523,1034.33L898.316,1033.65L905.657,1044.18L925.582,1044.5L925.468,1072.25L907.823,1071.84L899.437,1062.35L880.523,1062.52" style="fill:none;stroke:black;stroke-width:0.69px;"/>
                <g transform="matrix(1.0309,0,0,1.0309,-26.4699,-37.3967)">
                    <path d="M880.094,1092.32L785.906,1125.59C778.509,1127.59 775.603,1139.76 785.906,1139.76L969.134,1139.76C985.225,1139.76 979.391,1127.55 969.134,1124.45L880.094,1092.32Z" style="fill:none;stroke:black;stroke-width:0.67px;"/>
                </g>
                <g transform="matrix(1.0793,0,0,1.0793,-69.7524,-91.7137)">
                    <path d="M880.719,1138.97L880.719,1093.81" style="fill:none;stroke:black;stroke-width:0.64px;"/>
                </g>
                <g transform="matrix(1.0793,0,0,0.989173,-58.0219,10.9394)">
                    <path d="M880.719,1138.97L880.719,1093.81" style="fill:none;stroke:black;stroke-width:0.66px;"/>
                </g>
                <g transform="matrix(-1.0793,0,0,0.989173,1819.26,10.9394)">
                    <path d="M880.719,1138.97L880.719,1093.81" style="fill:none;stroke:black;stroke-width:0.66px;"/>
                </g>
                <g transform="matrix(1.0793,0,0,0.89543,-46.2913,117.709)">
                    <path d="M880.719,1138.97L880.719,1093.81" style="fill:none;stroke:black;stroke-width:0.69px;"/>
                </g>
                <g transform="matrix(-1.0793,0,0,0.89543,1807.52,117.709)">
                    <path d="M880.719,1138.97L880.719,1093.81" style="fill:none;stroke:black;stroke-width:0.69px;"/>
                </g>
                <g transform="matrix(1.0793,0,0,0.801688,-34.5608,224.478)">
                    <path d="M880.719,1138.97L880.719,1093.81" style="fill:none;stroke:black;stroke-width:0.72px;"/>
                </g>
                <g transform="matrix(-1.0793,0,0,0.801688,1795.79,224.478)">
                    <path d="M880.719,1138.97L880.719,1093.81" style="fill:none;stroke:black;stroke-width:0.72px;"/>
                </g>
                <g transform="matrix(1.0793,0,0,0.707945,-22.8303,331.248)">
                    <path d="M880.719,1138.97L880.719,1093.81" style="fill:none;stroke:black;stroke-width:0.75px;"/>
                </g>
                <g transform="matrix(-1.0793,0,0,0.707945,1784.06,331.248)">
                    <path d="M880.719,1138.97L880.719,1093.81" style="fill:none;stroke:black;stroke-width:0.75px;"/>
                </g>
                <g transform="matrix(1.0793,0,0,0.614203,-11.0998,438.017)">
                    <path d="M880.719,1138.97L880.719,1093.81" style="fill:none;stroke:black;stroke-width:0.78px;"/>
                </g>
                <g transform="matrix(-1.0793,0,0,0.614203,1772.33,438.017)">
                    <path d="M880.719,1138.97L880.719,1093.81" style="fill:none;stroke:black;stroke-width:0.78px;"/>
                </g>
                <g transform="matrix(1.0793,0,0,0.520461,0.630742,544.786)">
                    <path d="M880.719,1138.97L880.719,1093.81" style="fill:none;stroke:black;stroke-width:0.81px;"/>
                </g>
                <g transform="matrix(-1.0793,0,0,0.520461,1760.6,544.786)">
                    <path d="M880.719,1138.97L880.719,1093.81" style="fill:none;stroke:black;stroke-width:0.81px;"/>
                </g>
                <g transform="matrix(1.0793,0,0,0.426718,12.3613,651.556)">
                    <path d="M880.719,1138.97L880.719,1093.81" style="fill:none;stroke:black;stroke-width:0.84px;"/>
                </g>
                <g transform="matrix(-1.0793,0,0,0.426718,1748.87,651.556)">
                    <path d="M880.719,1138.97L880.719,1093.81" style="fill:none;stroke:black;stroke-width:0.84px;"/>
                </g>
                <g transform="matrix(1.0793,0,0,0.332606,24.0918,758.747)">
                    <path d="M880.719,1138.97L880.719,1093.81" style="fill:none;stroke:black;stroke-width:0.86px;"/>
                </g>
                <g transform="matrix(-1.0793,0,0,0.332606,1737.14,758.747)">
                    <path d="M880.719,1138.97L880.719,1093.81" style="fill:none;stroke:black;stroke-width:0.86px;"/>
                </g>
                <g transform="matrix(1.0793,0,0,1.0793,-69.3001,-91.7137)">
                    <path d="M795.455,1228.55L795.455,1143.26" style="fill:none;stroke:black;stroke-width:0.64px;"/>
                </g>
                <g transform="matrix(1.0793,0,0,1.0793,-15.4662,-91.7137)">
                    <path d="M795.455,1228.55L795.455,1143.26" style="fill:none;stroke:black;stroke-width:0.64px;"/>
                </g>
                <g transform="matrix(1.0793,0,0,1.0793,37.994,-91.7137)">
                    <path d="M795.455,1228.55L795.455,1143.26" style="fill:none;stroke:black;stroke-width:0.64px;"/>
                </g>
                <g transform="matrix(1.0793,0,0,1.0793,91.8279,-91.7137)">
                    <path d="M795.455,1228.55L795.455,1143.26" style="fill:none;stroke:black;stroke-width:0.64px;"/>
                </g>
                <g transform="matrix(1.0793,0,0,1.0793,-49.3023,-91.7137)">
                    <path d="M795.455,1228.55L795.455,1143.26" style="fill:none;stroke:black;stroke-width:0.64px;"/>
                </g>
                <g transform="matrix(1.0793,0,0,1.0793,4.53159,-91.7137)">
                    <path d="M795.455,1228.55L795.455,1143.26" style="fill:none;stroke:black;stroke-width:0.64px;"/>
                </g>
                <g transform="matrix(1.0793,0,0,1.0793,57.9918,-91.7137)">
                    <path d="M795.455,1228.55L795.455,1143.26" style="fill:none;stroke:black;stroke-width:0.64px;"/>
                </g>
                <g transform="matrix(1.0793,0,0,1.0793,111.826,-91.7137)">
                    <path d="M795.455,1228.55L795.455,1143.26" style="fill:none;stroke:black;stroke-width:0.64px;"/>
                </g>
            </g>
        </g>
        <g id="hoffnung" transform="matrix(1,0,0,1,-160.495,-89.6975)">
            <g id="specific_year1" serif:id="specific_year" transform="matrix(2.3622,0,0,2.3622,-1735.32,2231.64)">
                <text x="1454.94px" y="131.188px" style="font-family:'NasalizationRg-Regular', 'Nasalization', sans-serif;font-size:17.639px;">Hof<tspan x="1486.88px 1493.5px " y="131.188px 131.188px ">fn</tspan>ung</text>
            </g>
            <g transform="matrix(1,0,0,1,429.476,1926.25)">
                <text x="1221.23px" y="689.735px" style="font-family:'OpenSansCondensed-Light', 'Open Sans Condensed', sans-serif;font-weight:300;font-stretch:condensed;font-size:37.5px;">Bessere Lebensumstände</text>
            </g>
            <g id="people" transform="matrix(1.1705,0,0,1.1705,-2695.56,903.137)">
                <g transform="matrix(1.54327,0,0,1.54327,1938.71,-1805.85)">
                    <g transform="matrix(1,0,0,1,-0.183208,-0.318587)">
                        <path d="M1235.52,1882.37C1229.08,1882.37 1223.86,1887.6 1223.86,1894.04C1223.86,1900.47 1229.08,1905.7 1235.52,1905.7C1241.95,1905.7 1247.18,1900.47 1247.18,1894.04C1247.18,1887.6 1241.95,1882.37 1235.52,1882.37ZM1235.52,1884.68C1240.68,1884.68 1244.87,1888.87 1244.87,1894.04C1244.87,1899.2 1240.68,1903.39 1235.52,1903.39C1230.35,1903.39 1226.16,1899.2 1226.16,1894.04C1226.16,1888.87 1230.35,1884.68 1235.52,1884.68Z"/>
                    </g>
                    <path d="M1223.76,1946.95L1223.85,1982.98L1223.85,1983.04C1223.97,1986.99 1227.16,1988.96 1230.43,1988.88C1232.36,1988.84 1234.24,1988.07 1235.44,1986.68C1236.65,1988.1 1238.51,1988.84 1240.42,1988.85C1243.54,1988.87 1246.65,1986.92 1246.99,1983.09L1246.99,1982.88L1246.99,1946.96C1248.08,1947.67 1249.4,1948.05 1250.72,1948.06C1253.83,1948.09 1256.91,1946.15 1257.24,1942.27L1257.25,1942.08L1257.25,1912.42L1257.21,1912.02C1256.21,1906.4 1252.8,1903.33 1247.14,1902.64L1246.86,1902.63L1223.95,1902.63L1223.67,1902.64C1220.51,1903.03 1218.19,1904.14 1216.56,1905.77C1214.89,1907.43 1213.91,1909.66 1213.61,1912.42L1213.6,1912.66L1213.6,1941.87C1213.63,1945.89 1216.86,1947.94 1220.19,1947.9C1221.46,1947.89 1222.7,1947.56 1223.76,1946.95ZM1244.69,1913.84L1244.69,1982.88C1244.26,1987.82 1236.55,1987.72 1236.37,1982.88L1236.37,1942.32C1236.36,1941.39 1234.63,1941.41 1234.6,1942.32L1234.49,1982.95C1234.48,1987.62 1226.31,1987.95 1226.16,1982.97L1225.98,1914.09C1225.92,1913.15 1224.36,1913.26 1224.35,1914.09L1224.35,1941.87C1224.4,1946.73 1215.95,1946.94 1215.9,1941.87L1215.9,1912.66C1216.37,1908.31 1218.84,1905.56 1223.95,1904.93L1246.86,1904.93C1251.4,1905.48 1254.14,1907.92 1254.94,1912.42L1254.94,1942.08C1254.52,1947.05 1246.94,1946.91 1246.61,1942.08L1246.61,1913.82C1246.49,1913.23 1244.83,1913.15 1244.69,1913.84Z"/>
                </g>
                <g transform="matrix(1.99084,0,0,0.482359,3180.72,839.045)">
                    <path d="M409.675,415.18C409.675,398.701 406.434,385.322 402.441,385.322L265.194,385.322C261.202,385.322 257.96,398.701 257.96,415.18C257.96,415.18 257.96,460.138 257.96,460.138C257.96,476.617 261.202,489.996 265.194,489.996C265.194,489.996 333.029,489.996 347.019,489.996C347.02,489.996 344.625,518.753 344.625,518.753C344.368,521.838 344.633,525.253 345.275,527.152C345.918,529.051 346.786,528.983 347.411,526.985L358.978,489.996C358.978,489.996 402.441,489.996 402.441,489.996C406.434,489.996 409.675,476.617 409.675,460.138C409.675,460.138 409.675,415.18 409.675,415.18ZM407.887,415.18C407.887,402.774 405.447,392.702 402.441,392.702L265.194,392.702C262.189,392.702 259.748,402.774 259.748,415.18L259.748,460.138C259.748,472.544 262.189,482.616 265.194,482.616L349.525,482.616L346.316,521.151L358.366,482.616L402.441,482.616C405.447,482.616 407.887,472.544 407.887,460.138L407.887,415.18Z"/>
                </g>
                <g transform="matrix(0.694689,0,0,0.694689,3486.42,803.434)">
                    <text x="316.615px" y="368.034px" style="font-family:'NasalizationRg-Regular', 'Nasalization', sans-serif;font-size:41.331px;fill:none;stroke:black;stroke-width:0.77px;stroke-linecap:butt;stroke-miterlimit:2;">IT IL<tspan x="447.509px 473.217px " y="368.034px 368.034px ">L </tspan>BE BET<tspan x="636.432px 660.032px " y="368.034px 368.034px ">TE</tspan>R</text>
                </g>
            </g>
        </g>
        <g id="wirtschaft" transform="matrix(1,0,0,1,-160.495,19.003)">
            <g id="Wirtschaft" transform="matrix(1,0,0,1,881.909,-482.531)">
                <g id="specific_year2" serif:id="specific_year" transform="matrix(2.3622,0,0,2.3622,-2617.23,1495.08)">
                    <text x="1449.42px" y="131.188px" style="font-family:'NasalizationRg-Regular', 'Nasalization', sans-serif;font-size:17.639px;">ir<tspan x="1483px 1489.62px " y="131.188px 131.188px ">ts</tspan>chaf<tspan x="1541.87px " y="131.188px ">t</tspan></text>
                </g>
                <g transform="matrix(1,0,0,1,-452.433,1189.68)">
                    <text x="1298.96px" y="689.735px" style="font-family:'OpenSansCondensed-Light', 'Open Sans Condensed', sans-serif;font-weight:300;font-stretch:condensed;font-size:37.5px;">Arbeitsplätze</text>
                    <text x="1299.16px" y="727.235px" style="font-family:'OpenSansCondensed-Light', 'Open Sans Condensed', sans-serif;font-weight:300;font-stretch:condensed;font-size:37.5px;">Grundstücke</text>
                    <text x="1235.94px" y="764.735px" style="font-family:'OpenSansCondensed-Light', 'Open Sans Condensed', sans-serif;font-weight:300;font-stretch:condensed;font-size:37.5px;">Ressourcen / Rohstoﬀe</text>
                </g>
            </g>
            <g id="geld" transform="matrix(4.93159,0,0,4.93159,367.644,-696.653)">
                <g transform="matrix(0.974102,-0.226108,-0.226108,-0.974102,54.9394,627.952)">
                    <rect x="265.82" y="197.486" width="54.448" height="23.853" style="fill:none;stroke:black;stroke-width:0.17px;stroke-miterlimit:10;"/>
                </g>
                <g transform="matrix(0.97398,-0.226633,-0.226633,-0.97398,55.0836,628.09)">
                    <rect x="267.606" y="199.278" width="50.928" height="20.295" style="fill:none;stroke:black;stroke-width:0.17px;stroke-miterlimit:10;"/>
                </g>
                <g transform="matrix(1,0,0,1,0,148.155)">
                    <path d="M294.628,200.295L314.312,195.717L318.319,212.516L298.631,217.086C302.224,214.441 303.515,209.517 301.468,205.381C300.085,202.584 297.488,200.782 294.628,200.295ZM287.533,201.966C283.912,204.604 282.605,209.547 284.659,213.698C286.017,216.444 288.544,218.231 291.343,218.756L271.689,223.248L267.754,206.468L287.533,201.966ZM307.644,203.231C309.083,202.519 310.83,203.109 311.542,204.548C312.253,205.987 311.663,207.733 310.224,208.445C308.785,209.157 307.039,208.567 306.327,207.128C305.615,205.689 306.205,203.943 307.644,203.231ZM275.136,210.757C276.575,210.045 278.321,210.636 279.033,212.075C279.745,213.514 279.155,215.26 277.716,215.972C276.277,216.684 274.53,216.094 273.818,214.655C273.106,213.216 273.697,211.469 275.136,210.757Z" style="fill:none;fill-rule:nonzero;stroke:black;stroke-width:0.17px;stroke-miterlimit:10;"/>
                </g>
                <g transform="matrix(1,0,0,1,0,147.935)">
                    <path d="M294.765,206.04L296.432,204.861C295.575,203.698 294.23,203.239 292.503,203.328L292.167,202.012L290.128,202.447L290.401,203.769C285.274,205.955 287.399,210.748 290.962,210.426C292.398,210.259 293.705,210.173 294.708,210.283C296.405,210.467 296.589,212.604 294.449,213.35C292.527,214.07 291.147,213.687 290.078,212.671L288.351,213.904C289.417,215.294 290.919,216.025 293.094,215.74L293.495,217.173L295.561,216.79L295.234,215.193C299.862,213.818 298.846,208.11 294.879,208.185C291.609,208.246 289.547,208.758 289.609,207.182C289.93,205.534 292.911,204.694 294.765,206.04Z" style="fill:none;fill-rule:nonzero;stroke:black;stroke-width:0.17px;stroke-miterlimit:10;"/>
                </g>
                <g transform="matrix(0.973355,0.229304,0.229304,-0.973355,-43.3206,494.682)">
                    <rect x="262.813" y="210.694" width="54.447" height="23.853" style="fill:white;stroke:black;stroke-width:0.17px;stroke-miterlimit:10;"/>
                </g>
                <g transform="matrix(0.973484,0.228757,0.228757,-0.973484,-43.2348,494.867)">
                    <rect x="264.595" y="212.475" width="50.927" height="20.295" style="fill:none;stroke:black;stroke-width:0.17px;stroke-miterlimit:10;"/>
                </g>
                <g transform="matrix(1,0,0,1,0,121.773)">
                    <path d="M295.559,215.135L315.232,219.761L311.374,236.595L291.701,231.961C296.095,231.182 299.435,227.342 299.435,222.727C299.435,219.607 297.907,216.84 295.559,215.135ZM288.459,213.486C284.044,214.246 280.68,218.097 280.68,222.727C280.68,225.791 282.153,228.514 284.429,230.226L264.821,225.536L268.735,208.752L288.459,213.486ZM305.924,223.538C307.529,223.538 308.833,224.842 308.833,226.447C308.833,228.053 307.529,229.356 305.924,229.356C304.318,229.356 303.015,228.053 303.015,226.447C303.015,224.842 304.318,223.538 305.924,223.538ZM273.449,215.869C275.054,215.869 276.358,217.172 276.358,218.778C276.358,220.383 275.054,221.687 273.449,221.687C271.843,221.687 270.54,220.383 270.54,218.778C270.54,217.172 271.843,215.869 273.449,215.869Z" style="fill:none;fill-rule:nonzero;stroke:black;stroke-width:0.17px;stroke-miterlimit:10;"/>
                </g>
                <g transform="matrix(1,0,0,1,0,121.433)">
                    <path d="M293.232,220.488L295.249,220.171C294.997,218.748 293.994,217.74 292.407,217.054L292.689,215.726L290.669,215.211L290.328,216.517C284.762,216.203 284.542,221.442 287.878,222.733C289.24,223.22 290.449,223.723 291.3,224.266C292.738,225.183 291.956,227.18 289.708,226.9C287.665,226.693 286.598,225.738 286.091,224.353L283.996,224.692C284.334,226.411 285.357,227.732 287.432,228.441L287.157,229.903L289.178,230.476L289.593,228.9C294.352,229.719 295.972,224.153 292.384,222.461C289.425,221.065 287.35,220.61 288.104,219.225C289.122,217.891 292.167,218.46 293.232,220.488Z" style="fill:none;fill-rule:nonzero;stroke:black;stroke-width:0.17px;stroke-miterlimit:10;"/>
                </g>
            </g>
            <g id="outline" transform="matrix(1,0,0,1,160.495,-51.2679)">
                <path d="M1779.51,1054.37L1785.71,1028.04C1786.24,1025.8 1784.85,1023.56 1782.61,1023.03L1521.25,961.459C1519.01,960.931 1516.77,962.319 1516.24,964.559L1489.27,1079.06C1488.74,1081.3 1490.13,1083.54 1492.37,1084.07L1507.49,1087.63C1507.49,1087.63 1507.3,1087.67 1507.3,1087.67C1505.06,1088.19 1503.66,1090.43 1504.19,1092.67L1530.78,1207.26C1531.3,1209.5 1533.54,1210.89 1535.78,1210.37L1797.35,1149.66C1799.59,1149.14 1800.98,1146.9 1800.46,1144.66L1779.51,1054.37ZM1775.23,1054.36L1796.4,1145.6L1534.84,1206.31L1508.24,1091.73L1525.78,1087.66L1493.32,1080.01L1520.3,965.514L1781.65,1027.09L1775.23,1054.36Z"/>
            </g>
            <g id="outline1" serif:id="outline" transform="matrix(1,0,0,1,160.495,-51.2679)">
                <path d="M669.872,1225.62C669.943,1225.62 670.015,1225.63 670.087,1225.63L955.565,1225.68C955.683,1225.68 955.801,1225.67 955.918,1225.66C963.818,1224.99 966.914,1220.05 966.797,1215.76C966.684,1211.62 963.405,1206.86 956.329,1205.82C956.339,1205.82 948.033,1203.86 948.033,1203.86C949.082,1202.27 949.853,1200.44 950.324,1198.5C952.339,1190.15 948.568,1179.82 938.889,1177.25C938.541,1177.16 938.182,1177.11 937.822,1177.11L928.071,1177.11C928.071,1177.11 928.071,1073.58 928.071,1073.58C928.071,1073.58 934.36,1073.58 934.36,1073.58C934.45,1073.58 934.54,1073.57 934.63,1073.57C944.249,1072.94 949.792,1066.65 950.778,1059.38C951.716,1052.47 948.422,1044.37 939.726,1039.52C939.535,1039.41 939.336,1039.32 939.131,1039.25L818.893,995.149C818.893,995.149 818.893,976.735 818.893,976.735C818.893,976.735 836.014,976.735 836.014,976.735C836.014,976.735 844.781,986.654 844.781,986.654C845.549,987.523 846.645,988.033 847.805,988.06L869.249,988.564C870.368,988.591 871.45,988.166 872.252,987.385C873.054,986.605 873.509,985.535 873.514,984.416L873.652,950.686C873.662,948.404 871.833,946.539 869.551,946.503L847.47,946.157C847.47,946.157 839.768,935.101 839.768,935.101C838.957,933.936 837.608,933.265 836.189,933.319L814.566,934.151C812.329,934.238 810.56,936.076 810.56,938.315L810.56,995.109C810.56,995.109 691.326,1037.09 691.326,1037.09C680.19,1040.66 675.471,1051.13 676.8,1059.81C677.755,1066.05 681.711,1071.39 688.481,1073.22C688.814,1073.31 689.156,1073.36 689.501,1073.36L699.622,1073.51C699.622,1073.51 699.622,1177.11 699.622,1177.11C699.622,1177.11 690.009,1177.11 690.009,1177.11C689.908,1177.11 689.808,1177.12 689.707,1177.12C680.959,1177.76 675.87,1185.61 675.677,1193.65C675.587,1197.41 676.535,1201.1 678.526,1204.03C678.526,1204.03 670.003,1205.85 670.003,1205.85C663.278,1206.67 659.887,1211.37 659.59,1215.6C659.268,1220.19 662.203,1225.22 669.872,1225.62ZM692.652,1041.04C677.749,1045.77 676.972,1065.81 689.564,1069.19L703.789,1069.41L703.789,1181.28L690.009,1181.28C677.025,1182.22 675.883,1205.4 690.009,1205.82L670.682,1209.97C661.994,1210.91 661.073,1220.99 670.088,1221.46L955.565,1221.51C965.275,1220.69 964.698,1211.15 955.565,1209.92L937.822,1205.73C949.226,1204.48 950.061,1184.52 937.822,1181.28L923.904,1181.28L923.904,1069.41L934.36,1069.41C948.88,1068.47 951.5,1050.86 937.696,1043.16L814.726,998.059L692.652,1041.04ZM837.892,972.568L847.903,983.895L869.347,984.399L869.486,950.669L845.271,950.29L836.35,937.483L814.726,938.315L814.726,972.568L837.892,972.568Z"/>
            </g>
        </g>
        <g id="religion" transform="matrix(1,0,0,1,-3.17823,-89.6975)">
            <g id="Religion" transform="matrix(1,0,0,1,-106.821,736.562)">
                <g id="specific_year3" serif:id="specific_year" transform="matrix(2.3622,0,0,2.3622,-2617.23,1495.08)">
                    <text x="1462.13px" y="131.188px" style="font-family:'NasalizationRg-Regular', 'Nasalization', sans-serif;font-size:17.639px;">R<tspan x="1474.11px 1485.61px " y="131.188px 131.188px ">el</tspan>igion</text>
                </g>
                <g transform="matrix(1,0,0,1,-452.433,1189.68)">
                    <text x="1274.88px" y="689.735px" style="font-family:'OpenSansCondensed-Light', 'Open Sans Condensed', sans-serif;font-weight:300;font-stretch:condensed;font-size:37.5px;">Glaubensfreiheit</text>
                    <text x="1218.71px" y="727.235px" style="font-family:'OpenSansCondensed-Light', 'Open Sans Condensed', sans-serif;font-weight:300;font-stretch:condensed;font-size:37.5px;">Verbreitung des Glaubens</text>
                </g>
            </g>
            <g id="bibel" transform="matrix(1,0,0,1,-2039.94,1119.14)">
                <g transform="matrix(0.806881,0,0,0.806881,331.854,372.127)">
                    <path d="M3134.19,999.303L3134.19,914.37L3165.71,914.37L3165.71,896.374L3133.92,896.374L3133.92,859.333L3115.2,859.333L3115.2,896.485L3083.95,896.485L3083.95,914.379L3115.37,914.379L3115.37,999.353L3134.19,999.303Z" style="fill:none;stroke:black;stroke-width:1.24px;"/>
                </g>
                <g transform="matrix(0.806881,0,0,0.806881,331.854,372.127)">
                    <path d="M3033.51,1109.3L3033.51,1152.7L3051.43,1132.67L3069.42,1151.98L3069.42,1109.3" style="fill:none;stroke:black;stroke-width:1.24px;"/>
                </g>
                <g transform="matrix(0.806881,0,0,0.806881,331.854,372.127)">
                    <path d="M3239.08,1071.28L3239.08,1101.32C3237.17,1107.42 3234.19,1109.72 3230.46,1109.3L3010.3,1109.3C3003.6,1108.24 3001.78,1104.96 3002.2,1100.66L3002.2,1043.12C2993.78,1036.48 2995.92,1031.82 3002.2,1027.93L3002.2,975.4C2994.02,970.504 2993.76,965.391 3002.2,960.039L3002.2,905.822C2994.23,901.07 2995.45,895.455 3002.2,889.32L3002.2,837.977C2994.78,833.561 2994.36,828.122 3002.2,821.475L3002.2,797.216C3002.3,778.348 3012.66,766.635 3034.49,762.921L3254.04,762.921C3258.97,763.383 3262.18,765.3 3261.98,770.097L3261.98,1075.52C3262.24,1082.08 3259.31,1085.45 3253.47,1085.94L3239.08,1085.94" style="fill:none;stroke:black;stroke-width:1.24px;"/>
                </g>
                <g transform="matrix(0.806881,0,0,0.806881,331.854,372.127)">
                    <path d="M3023.36,795.312C3022.18,787.68 3027.21,781.336 3037.88,776.163L3246.75,776.163L3246.75,1071.28L3239.08,1071.28L3239.08,795.233L3023.36,795.312Z" style="fill:none;stroke:black;stroke-width:1.24px;"/>
                </g>
                <path d="M2771.34,1013.85L2771.34,1267.2" style="fill:none;stroke:black;stroke-width:0.83px;"/>
                <path d="M2771.34,1013.85C2758.51,1013.85 2754.35,1010.95 2756,1004.79" style="fill:none;stroke:black;stroke-width:0.83px;"/>
            </g>
            <g id="outline2" serif:id="outline" transform="matrix(1,0,0,1,3.17823,57.4325)">
                <path d="M762.345,2366.18C763.512,2367.43 765.327,2367.84 766.92,2367.22C768.512,2366.59 769.56,2365.05 769.56,2363.34L769.56,2333.07C769.56,2333.07 895.332,2333.07 895.332,2333.07C895.592,2333.07 895.851,2333.05 896.107,2333C901.912,2331.9 905.448,2328.7 906.397,2323.17C906.437,2322.94 906.457,2322.7 906.457,2322.47L906.457,2314.23C906.457,2314.23 913.897,2314.23 913.897,2314.23C913.997,2314.23 914.098,2314.22 914.198,2314.22C917.892,2313.95 920.523,2312.49 922.313,2310.24C923.925,2308.21 924.882,2305.37 924.933,2301.71C924.934,2301.69 924.934,2301.67 924.934,2301.65L924.934,2055.32C925.079,2052.26 924.147,2049.85 922.316,2048.09C920.717,2046.55 918.235,2045.41 914.524,2045.26C914.468,2045.25 914.411,2045.25 914.355,2045.25L737.204,2045.25C736.941,2045.25 736.678,2045.28 736.42,2045.33C725.589,2047.4 717.224,2051.65 712.229,2058.61C708.81,2063.37 706.892,2069.43 706.986,2077.13C706.986,2077.12 706.986,2094.66 706.986,2094.66C703.734,2097.51 702.352,2100.51 702.336,2103.3C702.321,2106.11 703.675,2109.14 706.986,2112.01C706.986,2112 706.986,2149.47 706.986,2149.47C703.914,2152.31 702.618,2155.27 702.618,2158.07C702.618,2160.86 703.914,2163.82 706.986,2166.66C706.986,2166.66 706.986,2206.18 706.986,2206.18C702.981,2209.03 701.684,2212.17 701.853,2214.92C702.012,2217.49 703.638,2220.34 706.986,2223C706.986,2223 706.986,2260.98 706.986,2260.98C703.092,2263.81 701.83,2266.9 701.994,2269.63C702.149,2272.18 703.731,2274.99 706.986,2277.62C706.986,2277.62 706.986,2321.8 706.986,2321.8C706.803,2324.7 707.579,2327.16 709.314,2329.13C710.84,2330.87 713.249,2332.31 716.925,2333C717.175,2333.05 717.43,2333.07 717.685,2333.07L732.253,2333.1C732.253,2333.1 732.253,2363.93 732.253,2363.93C732.253,2365.65 733.318,2367.2 734.929,2367.82C736.541,2368.43 738.367,2367.99 739.52,2366.71L750.964,2353.97C750.964,2353.97 762.345,2366.18 762.345,2366.18ZM765.393,2363.34L765.393,2328.9L895.332,2328.9C899.2,2328.17 901.658,2326.15 902.29,2322.47L902.29,2310.06L913.897,2310.06C918.548,2309.72 920.695,2306.77 920.767,2301.65L920.767,2055.21C920.963,2051.75 919.137,2049.61 914.355,2049.42L737.204,2049.42C721.166,2052.49 710.943,2060.43 711.153,2077.09L711.153,2096.66C705.002,2101.1 704.905,2105.54 711.153,2109.98L711.153,2151.41C705.329,2155.85 705.329,2160.28 711.153,2164.72L711.153,2208.47C703.79,2212.6 704.807,2216.73 711.153,2220.86L711.153,2263.25C703.993,2267.33 704.982,2271.42 711.153,2275.51L711.153,2321.94C710.89,2325.45 712.679,2327.96 717.694,2328.9L736.42,2328.94L736.42,2363.93L750.907,2347.8L765.393,2363.34Z"/>
            </g>
        </g>
    </g>
    <g transform="matrix(0.525,0,0,0.525,2480.31,481.751)">
        <g transform="matrix(0.987765,0,0,1,0,0)">
            <g id="line_extend">
                <path d="M936.711,1181.1L0,1181.1" style="fill:none;stroke:black;stroke-width:1.6px;stroke-dasharray:20.76,20.76,0,0;"/>
            </g>
        </g>
        <g id="a.d.">
        </g>
        <g id="years">
        </g>
        <g id="_1492" serif:id="1492">
        </g>
        <g id="_1607" serif:id="1607">
        </g>
        <g id="_1776" serif:id="1776">
        </g>
        <g id="_1585-1587" serif:id="1585-1587">
        </g>
        <g id="_1585-15871" serif:id="1585-1587">
        </g>
    </g>
    <g id="american_flag">
    </g>
    <g id="Überleitung">
    </g>
</svg>
