<?xml version="1.0" encoding="UTF-8" standalone="no"?>
<!DOCTYPE svg PUBLIC "-//W3C//DTD SVG 1.1//EN" "http://www.w3.org/Graphics/SVG/1.1/DTD/svg11.dtd">
<svg width="100%" height="100%" viewBox="0 0 12500 7032" version="1.1" xmlns="http://www.w3.org/2000/svg" xmlns:xlink="http://www.w3.org/1999/xlink" xml:space="preserve" xmlns:serif="http://www.serif.com/" style="fill-rule:evenodd;clip-rule:evenodd;stroke-linecap:round;stroke-linejoin:round;stroke-miterlimit:1.5;">
    <g id="background" transform="matrix(1,0,0,1,-1750,-984.375)">
        <rect x="0" y="0" width="16000" height="9000" style="fill:white;"/>
    </g>
    <g transform="matrix(1,0,0,1,-1750,-1064.38)">
        <g transform="matrix(1.2065,0,0,1.2065,-1666.11,-1004.97)">
            <g id="phone">
                <g id="shape" transform="matrix(0.997389,0,0,1,28,0)">
                    <path d="M5634.97,5263.69C5634.91,5263.78 5634.85,5263.86 5634.8,5263.95L5310.81,5764.35C5310.65,5764.59 5310.51,5764.85 5310.38,5765.11C5267.31,5854.95 5267.59,5931.97 5302.4,5992.1C5354.05,6081.31 5483.24,6133.97 5664.56,6134.69C5664.56,6134.69 10319.7,6154.31 10319.7,6154.31C10319.8,6154.31 10319.8,6154.31 10319.9,6154.31C10446.6,6151.63 10548,6133.28 10618.3,6098.46C10666.3,6074.66 10699.9,6043.14 10717.6,6003.84C10746.8,5939.02 10732.8,5852.26 10665.2,5742.3C10665.2,5742.31 10407.9,5287.23 10407.9,5287.23C10407.8,5287.09 10407.7,5286.94 10407.6,5286.8C10371.1,5231.93 10316.2,5197.55 10229.5,5177.12C10144.4,5157.11 10028.4,5150.48 9868.21,5150.48L6130.44,5150.48C5976.6,5149.27 5852.65,5157.85 5764.55,5183.84C5704.36,5201.6 5660.67,5227.6 5634.97,5263.69ZM5640.61,5267.69C5702.97,5180.14 5875.4,5155.38 6130.42,5157.38L9868.21,5157.38C10187.1,5157.38 10330.5,5183.54 10401.8,5290.62L10659.3,5745.81C10824.2,6014.22 10668.1,6140.05 10319.7,6147.4L5664.59,6127.78C5367.68,6126.6 5212,5986.34 5316.63,5768.09L5640.61,5267.69Z"/>
                </g>
                <g id="screen">
                    <path d="M5703.37,5839.32L10324.5,5847.08C10533.1,5850 10633.5,5806.65 10588.2,5722.71L10317,5251.55C10286.8,5190.57 10155.6,5158.18 9966.93,5158.36L6121.84,5157.28C5944.91,5141.82 5814.8,5166.76 5744.43,5224.35L5715.42,5262.8C5698.84,5285.83 5710.99,5295.82 5751.2,5293.06L5805.4,5293.36C5851.65,5292.18 5856.99,5299.62 5846.99,5320.81L5688.9,5598.67C5672.53,5632.66 5647.13,5642.04 5605.45,5636.89L5541.47,5634.74C5508.07,5635.24 5480.17,5647.15 5465.23,5671.04L5433.37,5724.61C5389.76,5797.57 5511.48,5840.46 5703.37,5839.32Z" style="fill:rgb(255,0,255);"/>
                    <path d="M5703.37,5839.32L10324.5,5847.08C10533.1,5850 10633.5,5806.65 10588.2,5722.71L10317,5251.55C10286.8,5190.57 10155.6,5158.18 9966.93,5158.36L6121.84,5157.28C5944.91,5141.82 5814.8,5166.76 5744.43,5224.35L5715.42,5262.8C5698.84,5285.83 5710.99,5295.82 5751.2,5293.06L5805.4,5293.36C5851.65,5292.18 5856.99,5299.62 5846.99,5320.81L5688.9,5598.67C5672.53,5632.66 5647.13,5642.04 5605.45,5636.89L5541.47,5634.74C5508.07,5635.24 5480.17,5647.15 5465.23,5671.04L5433.37,5724.61C5389.76,5797.57 5511.48,5840.46 5703.37,5839.32ZM5727.8,5275.47C5728.29,5274.62 5728.81,5273.77 5729.33,5273.04C5729.34,5273.02 5756.94,5236.44 5756.94,5236.44C5825.3,5181.72 5950.68,5159.65 6120.34,5174.48C6120.84,5174.53 6121.34,5174.55 6121.84,5174.55L9966.93,5175.62C9966.93,5175.62 9966.94,5175.62 9966.95,5175.62C10077.6,5175.52 10168.1,5186.61 10229.2,5208.6C10265.5,5221.69 10291,5237.92 10301.5,5259.22C10301.7,5259.54 10301.8,5259.86 10302,5260.17L10573.2,5731.11C10581.4,5746.52 10584,5759.93 10579.4,5771.57C10574.5,5783.98 10562.2,5793.57 10544.3,5801.78C10500.4,5822.05 10425.6,5831.23 10324.8,5829.81C10324.7,5829.81 10324.6,5829.81 10324.6,5829.81L5703.4,5822.06C5703.36,5822.06 5703.31,5822.06 5703.27,5822.06C5592.55,5822.71 5505.94,5809.19 5463.57,5782.26C5452.97,5775.53 5445.48,5768.27 5442.78,5759.55C5440.33,5751.65 5442.48,5743.03 5448.2,5733.47C5448.2,5733.46 5448.21,5733.45 5448.22,5733.44L5479.97,5680.05C5491.96,5661.02 5514.67,5652.5 5541.31,5652.02C5541.32,5652.02 5604.12,5654.12 5604.12,5654.12C5633.65,5657.66 5656.18,5654.14 5673.8,5642.82C5685.99,5634.98 5696.1,5623.33 5704.2,5606.7C5711.59,5593.72 5862,5329.35 5862,5329.35C5862.22,5328.96 5862.42,5328.57 5862.61,5328.18C5869.88,5312.77 5869.57,5301.02 5864.94,5293.02C5861.63,5287.29 5855.81,5282.03 5845.35,5279.06C5837.08,5276.72 5824.17,5275.62 5805.22,5276.09C5805.23,5276.09 5751.29,5275.8 5751.29,5275.8C5750.87,5275.79 5750.44,5275.81 5750.02,5275.84C5741.71,5276.41 5734.79,5276.41 5729.27,5275.71C5728.8,5275.65 5728.3,5275.57 5727.8,5275.47Z"/>
                </g>
            </g>
            <g transform="matrix(0.835967,0,0,1,850.305,0)">
                <g transform="matrix(1,0,0,1,0,-24.2586)">
                    <path d="M6605,5994.15C6605,5967.35 6578.97,5945.6 6546.91,5945.6L6312.5,5945.6C6280.44,5945.6 6254.42,5967.35 6254.42,5994.15L6254.42,6049.47C6254.42,6076.27 6280.44,6098.03 6312.5,6098.03L6546.91,6098.03C6578.97,6098.03 6605,6076.27 6605,6049.47L6605,5994.15ZM6596.74,5994.15L6596.74,6049.47C6596.74,6072.46 6574.41,6091.12 6546.91,6091.12L6312.5,6091.12C6285.01,6091.12 6262.68,6072.46 6262.68,6049.47L6262.68,5994.15C6262.68,5971.17 6285.01,5952.5 6312.5,5952.5L6546.91,5952.5C6574.41,5952.5 6596.74,5971.17 6596.74,5994.15Z"/>
                </g>
                <g transform="matrix(0.853493,0,0,0.34353,942,3900.82)">
                    <path d="M6605,5994.15C6605,5967.35 6594.52,5945.6 6581.62,5945.6L6277.8,5945.6C6264.89,5945.6 6254.42,5967.35 6254.42,5994.15L6254.42,6049.47C6254.42,6076.27 6264.89,6098.03 6277.8,6098.03L6581.62,6098.03C6594.52,6098.03 6605,6076.27 6605,6049.47L6605,5994.15ZM6595.32,5994.15L6595.32,6049.47C6595.32,6065.17 6589.18,6077.92 6581.62,6077.92L6277.8,6077.92C6270.24,6077.92 6264.1,6065.17 6264.1,6049.47C6264.1,6049.47 6264.1,5994.15 6264.1,5994.15C6264.1,5978.45 6270.24,5965.7 6277.8,5965.7C6277.8,5965.7 6581.62,5965.7 6581.62,5965.7C6589.18,5965.7 6595.32,5978.45 6595.32,5994.15Z"/>
                </g>
            </g>
            <g transform="matrix(2.79993,0,0,1,-10964.7,0)">
                <g transform="matrix(1,0,0,1,0,-24.2586)">
                    <path d="M6605,5994.15C6605,5967.35 6597.23,5945.6 6587.66,5945.6L6271.76,5945.6C6262.19,5945.6 6254.42,5967.35 6254.42,5994.15L6254.42,6049.47C6254.42,6076.27 6262.19,6098.03 6271.76,6098.03L6587.66,6098.03C6597.23,6098.03 6605,6076.27 6605,6049.47L6605,5994.15ZM6602.53,5994.15L6602.53,6049.47C6602.53,6072.46 6595.87,6091.12 6587.66,6091.12L6271.76,6091.12C6263.55,6091.12 6256.88,6072.46 6256.88,6049.47L6256.88,5994.15C6256.88,5971.17 6263.55,5952.5 6271.76,5952.5L6587.66,5952.5C6595.87,5952.5 6602.53,5971.17 6602.53,5994.15Z"/>
                </g>
                <g transform="matrix(0.448929,0,0,0.578054,3457.9,2516.62)">
                    <path d="M6605,5994.15C6605,5967.35 6594.99,5945.6 6582.67,5945.6L6276.75,5945.6C6264.42,5945.6 6254.42,5967.35 6254.42,5994.15L6254.42,6049.47C6254.42,6076.27 6264.42,6098.03 6276.75,6098.03L6582.67,6098.03C6594.99,6098.03 6605,6076.27 6605,6049.47L6605,5994.15ZM6599.51,5994.15L6599.51,6049.47C6599.51,6069.68 6591.96,6086.08 6582.67,6086.08C6582.67,6086.08 6276.75,6086.08 6276.75,6086.08C6267.46,6086.08 6259.91,6069.68 6259.91,6049.47L6259.91,5994.15C6259.91,5973.95 6267.46,5957.55 6276.75,5957.55C6276.75,5957.55 6582.67,5957.55 6582.67,5957.55C6591.96,5957.55 6599.51,5973.95 6599.51,5994.15Z"/>
                </g>
                <g transform="matrix(0.449003,0,0,0.578054,3628.06,2516.62)">
                    <path d="M6605,5994.15C6605,5967.35 6594.99,5945.6 6582.67,5945.6L6276.74,5945.6C6264.42,5945.6 6254.42,5967.35 6254.42,5994.15L6254.42,6049.47C6254.42,6076.27 6264.42,6098.03 6276.74,6098.03L6582.67,6098.03C6594.99,6098.03 6605,6076.27 6605,6049.47L6605,5994.15ZM6599.51,5994.15L6599.51,6049.47C6599.51,6069.68 6591.96,6086.08 6582.67,6086.08C6582.67,6086.08 6276.74,6086.08 6276.74,6086.08C6267.45,6086.08 6259.91,6069.68 6259.91,6049.47L6259.91,5994.15C6259.91,5973.95 6267.45,5957.55 6276.74,5957.55C6276.74,5957.55 6582.67,5957.55 6582.67,5957.55C6591.96,5957.55 6599.51,5973.95 6599.51,5994.15Z"/>
                </g>
            </g>
        </g>
        <g transform="matrix(1,0,0,1,1916.82,289.252)">
            <text x="5938.61px" y="6575.12px" style="font-family:'RobotoCondensed-Bold', 'Roboto Condensed';font-weight:700;font-size:166.667px;">APP</text>
            <text x="5756.93px" y="6775.12px" style="font-family:'RobotoCondensed-Regular', 'Roboto Condensed';font-size:117.5px;">User Inter<tspan x="6206.68px " y="6775.12px ">f</tspan>ace</text>
        </g>
    </g>
    <g transform="matrix(1,0,0,1,-1750,-1064.38)">
        <g transform="matrix(0.7,0,0,0.7,3613.78,50)">
            <g transform="matrix(1.16875,0,0,1.16875,-647.284,-759.381)">
                <g id="box">
                    <g>
                        <path d="M7787.19,5328.94L8448.12,4945.25" style="fill:none;stroke:rgb(25,25,25);stroke-width:10.19px;stroke-dasharray:30.56,40.74,0,0;"/>
                        <g transform="matrix(1,0,0,1,-739.978,-427.341)">
                            <path d="M7786.18,5328.47L8310.55,5024.06" style="fill:none;stroke:rgb(25,25,25);stroke-width:10.19px;stroke-dasharray:30.56,40.74,0,0;"/>
                        </g>
                        <path d="M7694.78,5328.94L7033.85,4945.25" style="fill:none;stroke:rgb(25,25,25);stroke-width:10.19px;stroke-dasharray:30.56,40.74,0,0;"/>
                        <g transform="matrix(1,0,0,1,318.113,-235.962)">
                            <path d="M8117.65,5137.09L7593.28,4832.68" style="fill:none;stroke:rgb(25,25,25);stroke-width:10.19px;stroke-dasharray:30.56,40.74,0,0;"/>
                        </g>
                    </g>
                </g>
            </g>
            <g>
                <g>
                    <g transform="matrix(-1,0,0,1,17666,-500)">
                        <path d="M8452.12,4929.26L8400,5138.64L8400,5500L8454,5468.82C8454,5468.82 8454,5160.73 8454,5160.73L8452.12,4929.26Z" style="fill:rgb(255,0,255);stroke:rgb(25,25,25);stroke-width:11.9px;"/>
                    </g>
                    <path d="M9227.26,5022.38L9266.02,5000L9266.02,4000L8400,4500L8400,5500L8454,5468.82C8454,5468.82 8454,5160.73 8454,5160.73C8454,5160.73 8402.44,4647.55 8833.01,4400C9263.58,4152.45 9226.46,4741.3 9226.46,4741.3L9226.46,5020.39" style="fill:rgb(254,199,255);stroke:rgb(25,25,25);stroke-width:11.9px;"/>
                    <g transform="matrix(1,0,0,1,-866.025,-500)">
                        <path d="M8454.03,5049.91L8400,5100L8400,5500L8454,5468.82C8454,5468.82 8454,5160.73 8454,5160.73C8454,5160.73 8449.65,5117.43 8454.03,5049.91Z" style="fill:rgb(254,199,255);stroke:rgb(25,25,25);stroke-width:11.9px;"/>
                    </g>
                    <g transform="matrix(-1,0,0,1,16800,2.72848e-12)">
                        <path d="M9227.26,5022.38L9266.02,5000L9266.02,4000L8400,4500L8400,5500L8454,5468.82C8454,5468.82 8454,5160.73 8454,5160.73C8454,5160.73 8402.44,4647.55 8833.01,4400C9263.58,4152.45 9226.46,4741.3 9226.46,4741.3L9226.46,5020.39" style="fill:rgb(255,0,255);stroke:rgb(25,25,25);stroke-width:11.9px;"/>
                    </g>
                    <path d="M8400,4500L7533.98,4000L8400,3500L9266.02,4000L8400,4500Z" style="fill:rgb(255,244,255);stroke:rgb(25,25,25);stroke-width:11.9px;"/>
                </g>
                <path id="outline" d="M7533.98,4029.76L7519.09,3974.22L8385.12,3474.22C8394.33,3468.91 8405.67,3468.91 8414.88,3474.22L9280.91,3974.22C9280.91,3974.22 9266.02,4029.76 9266.02,4029.76L9295.79,4000L9295.79,5000C9295.79,5010.63 9290.11,5020.46 9280.91,5025.78L9242.15,5048.15C9234.68,5052.46 9225.71,5053.32 9217.56,5050.51C9209.41,5047.7 9202.88,5041.49 9199.66,5033.5L9198.86,5031.51C9197.43,5027.97 9196.7,5024.2 9196.7,5020.39L9196.7,4994.32C9187.75,4988.96 9182.26,4979.28 9182.26,4968.82L9182.26,4660.73C9182.26,4660.65 9182.26,4660.57 9182.26,4660.49C9182.26,4660.49 9183.1,4557.21 9183.1,4557.21C9167.18,4480.31 9135.72,4398.97 9061.88,4375.49C9010.81,4359.25 8942.03,4371.65 8847.85,4425.8C8433.67,4663.93 8483.61,5157.76 8483.61,5157.76C8483.71,5158.75 8483.76,5159.74 8483.76,5160.73L8483.76,5468.82C8483.76,5479.46 8478.09,5489.28 8468.88,5494.6L8414.88,5525.78C8414.88,5525.78 8400,5529.76 8400,5529.76L8385.12,5525.78L8331.12,5494.6C8321.91,5489.28 8316.24,5479.46 8316.24,5468.82L8316.24,5160.73C8316.24,5159.74 8316.29,5158.75 8316.39,5157.76C8316.39,5157.76 8366.33,4663.93 7952.15,4425.8C7858.83,4372.15 7790.42,4359.48 7739.47,4375.07C7665.68,4397.64 7633.85,4477.72 7617.56,4554.06C7613.61,4617.32 7617.59,4657.76 7617.59,4657.76C7617.69,4658.75 7617.74,4659.74 7617.74,4660.73C7617.74,4660.73 7617.74,4968.82 7617.74,4968.82C7617.74,4979.28 7612.25,4988.96 7603.3,4994.32L7603.3,5020.39C7603.3,5024.2 7602.57,5027.97 7601.14,5031.51L7600.34,5033.5C7597.12,5041.49 7590.59,5047.7 7582.44,5050.51C7574.29,5053.32 7565.32,5052.46 7557.85,5048.15L7519.09,5025.78C7519.09,5025.78 7533.98,5029.76 7533.98,5029.76L7504.21,5000L7504.21,4600L7533.98,4629.76L7504.21,4600L7504.21,4000L7533.98,4029.76L7533.98,5000L7572.74,5022.38L7573.54,5020.39L7573.54,4977.16L7587.98,4968.82C7587.98,4968.82 7587.98,4660.73 7587.98,4660.73C7587.98,4660.73 7583.63,4617.47 7588,4550.01C7618.61,4404.15 7708.56,4251.42 7966.99,4400C8397.56,4647.55 8346,5160.73 8346,5160.73C8346,5160.73 8346,5468.82 8346,5468.82C8346,5468.82 8400,5500 8400,5500L8454,5468.82L8454,5160.73C8454,5160.73 8402.44,4647.55 8833.01,4400C9093.98,4249.96 9183.14,4407.18 9212.89,4554.32L9212.02,4660.73L9212.02,4968.82L9226.46,4977.16L9226.46,5020.39L9227.26,5022.38L9266.02,5000C9266.02,5000 9266.02,4000 9266.02,4000L8400,3500C8400,3500 7533.98,4000 7533.98,4000L7533.98,4029.76Z" style="fill:rgb(25,25,25);"/>
            </g>
        </g>
        <g transform="matrix(1,0,0,1.22275,0,-1201.89)">
            <path d="M8500,3600C8194.01,3602.39 8000.01,3803.49 8000.01,4200L8000.01,5000" style="fill:none;stroke:black;stroke-width:18.65px;"/>
        </g>
        <g transform="matrix(1,0,0,1,3235.83,-2271)">
            <text x="5930.23px" y="6535.38px" style="font-family:'RobotoCondensed-Bold', 'Roboto Condensed';font-weight:700;font-size:166.667px;">MODULES</text>
            <text x="5660.55px" y="6735.38px" style="font-family:'RobotoCondensed-Regular', 'Roboto Condensed';font-size:117.5px;">Ar<tspan x="5762.9px " y="6735.38px ">c</tspan>hitectur<tspan x="6169.8px " y="6735.38px ">a</tspan>l Components</text>
        </g>
    </g>
    <g transform="matrix(-0.114784,-0.993391,0.993391,-0.114784,2802.38,10644.1)">
        <path d="M7900,4800L8000,4900L8100,4800" style="fill:none;stroke:black;stroke-width:20.83px;"/>
    </g>
    <g transform="matrix(1,0,0,1,-1750,-1064.38)">
        <g id="CA" transform="matrix(2.69159,0,0,2.69159,5045.8,1867.69)">
            <g>
                <g transform="matrix(1.59431,0,0,1.59431,-262.454,-317.129)">
                    <path d="M395.695,655.494L395.695,560.184L478.235,512.53L478.235,608.003L395.695,655.494Z" style="fill:white;stroke:rgb(25,25,25);stroke-width:1.94px;"/>
                </g>
                <g transform="matrix(1.59431,0,0,1.59431,-262.454,-317.129)">
                    <path d="M560.776,655.494L560.776,560.184L643.316,512.53L643.316,607.839L560.776,655.494Z" style="fill:white;stroke:rgb(25,25,25);stroke-width:1.94px;"/>
                </g>
                <g transform="matrix(1.59431,0,0,1.59431,-262.454,-469.082)">
                    <path d="M643.316,607.839L560.776,560.184L643.316,512.53L643.316,607.839Z" style="fill:white;stroke:rgb(25,25,25);stroke-width:1.94px;"/>
                </g>
                <g transform="matrix(1.59431,0,0,1.59431,-262.454,-317.129)">
                    <path d="M313.154,512.53L395.695,464.875L478.235,512.53L395.695,560.184L313.154,512.53Z" style="fill:white;stroke:rgb(25,25,25);stroke-width:1.94px;"/>
                </g>
                <g transform="matrix(1.59431,0,0,1.59431,-262.454,-469.082)">
                    <path d="M313.154,512.53L395.695,464.875L478.235,512.53L395.695,560.184L313.154,512.53Z" style="fill:white;stroke:rgb(25,25,25);stroke-width:1.94px;"/>
                </g>
                <g transform="matrix(1.59431,0,0,1.59431,-262.454,-317.129)">
                    <path d="M478.235,512.53L560.776,464.875L643.316,512.53L560.776,560.184L478.235,512.53Z" style="fill:white;stroke:rgb(25,25,25);stroke-width:1.94px;"/>
                </g>
                <g transform="matrix(1.59431,0,0,1.59431,-262.454,-469.082)">
                    <path d="M478.235,512.53L560.776,464.875L643.316,512.53L560.776,560.184L478.235,512.53Z" style="fill:white;stroke:rgb(25,25,25);stroke-width:1.94px;"/>
                </g>
                <g transform="matrix(1.59431,0,0,1.59431,-262.454,-317.129)">
                    <path d="M395.695,655.494L395.695,560.184L313.154,512.53L313.154,607.839L395.695,655.494Z" style="fill:rgb(230,230,230);stroke:rgb(25,25,25);stroke-width:1.94px;"/>
                </g>
                <g transform="matrix(1.59431,0,0,1.59431,-262.454,-469.082)">
                    <path d="M313.154,607.839L395.695,560.184L313.154,512.53L313.154,607.839Z" style="fill:rgb(230,230,230);stroke:rgb(25,25,25);stroke-width:1.94px;"/>
                </g>
                <g transform="matrix(1.59431,0,0,1.59431,-262.454,-317.129)">
                    <path d="M560.776,655.494L560.776,560.184L478.235,512.53L478.235,607.839L560.776,655.494Z" style="fill:rgb(230,230,230);stroke:rgb(25,25,25);stroke-width:1.94px;"/>
                </g>
            </g>
            <g transform="matrix(1.59431,0,0,1.59431,-130.859,-393.105)">
                <path d="M313.154,512.53L395.695,464.875L478.235,512.53L395.695,560.184L313.154,512.53Z" style="fill:rgb(247,36,255);stroke:rgb(25,25,25);stroke-width:1.94px;"/>
            </g>
            <g id="outline1" serif:id="outline" transform="matrix(0.26319,0,0,0.26319,-842.267,-666.976)">
                <path d="M6114.7,5036.79C6123.8,5031.54 6129.41,5021.83 6129.41,5011.32L6129.41,3856.62C6129.41,3846.12 6123.8,3836.41 6114.7,3831.16L5614.7,3542.48C5605.61,3537.23 5594.4,3537.23 5585.3,3542.48C5585.3,3542.48 5182.61,3774.97 5100,3822.67C5017.39,3774.97 4614.7,3542.48 4614.7,3542.48C4605.61,3537.23 4594.4,3537.23 4585.3,3542.48L4085.3,3831.16C4076.2,3836.41 4070.59,3846.12 4070.59,3856.62L4070.59,4993.94C4070.59,5004.18 4075.91,5013.68 4084.65,5019.02L4584.65,5325.08C4593.82,5330.7 4605.34,5330.86 4614.67,5325.49C4614.67,5325.49 5017.47,5093.73 5100,5046.24C5100,5046.24 5585.33,5325.49 5585.33,5325.49C5594.43,5330.72 5605.62,5330.72 5614.7,5325.47L6114.7,5036.79ZM6100,5011.32L6100,3856.62L5600,3567.95L5100,3856.62L4600,3567.95L4100,3856.62L4100,4993.94L4600,5300L5100,5012.32L5600,5300L6100,5011.32Z" style="fill:rgb(25,25,25);"/>
            </g>
        </g>
        <g transform="matrix(1,0,0,1,0,-88.1529)">
            <g transform="matrix(-1,0,0,1.22275,16000,-1113.74)">
                <path d="M8500.01,3600C8194.97,3602.38 8001.21,3805 8000.01,4196.34C8000.01,4197.56 7999.98,4998.78 7999.98,5000" style="fill:none;stroke:black;stroke-width:18.65px;"/>
            </g>
            <g transform="matrix(0.114784,-0.993391,-0.993391,-0.114784,11449.3,11796.6)">
                <path d="M7900,4800L8000,4900L8100,4800" style="fill:none;stroke:black;stroke-width:20.83px;"/>
            </g>
        </g>
        <g transform="matrix(1,0,0,1,127.427,-2271)">
            <text x="5616.79px" y="6535.38px" style="font-family:'RobotoCondensed-Bold', 'Roboto Condensed';font-weight:700;font-size:166.667px;">CA / GA / K<tspan x="6351.25px " y="6535.38px ">-</tspan>MEANS</text>
            <text x="5749.11px" y="6735.38px" style="font-family:'RobotoCondensed-Regular', 'Roboto Condensed';font-size:117.5px;">Pr<tspan x="5848.82px " y="6735.38px ">o</tspan>cedur<tspan x="6165.64px " y="6735.38px ">a</tspan>l Gener<tspan x="6545.5px " y="6735.38px ">a</tspan>tion</text>
        </g>
    </g>
</svg>
