<?xml version="1.0" encoding="UTF-8" standalone="no"?>
<!DOCTYPE svg PUBLIC "-//W3C//DTD SVG 1.1//EN" "http://www.w3.org/Graphics/SVG/1.1/DTD/svg11.dtd">
<svg width="100%" height="100%" viewBox="0 0 2481 3508" version="1.1" xmlns="http://www.w3.org/2000/svg" xmlns:xlink="http://www.w3.org/1999/xlink" xml:space="preserve" xmlns:serif="http://www.serif.com/" style="fill-rule:evenodd;clip-rule:evenodd;stroke-linecap:round;stroke-linejoin:round;stroke-miterlimit:1.5;">
    <g transform="matrix(1,0,0,1,-594.673,653.272)">
        <g id="meteor" transform="matrix(0.624914,0,0,0.624914,1790.87,724.295)">
            <g transform="matrix(3.78005,0,0,3.78005,-662.893,-1181.33)">
                <text x="395.117px" y="624.638px" style="font-family:'OpenSansCondensed-Light', 'Open Sans Condensed', sans-serif;font-weight:300;font-stretch:condensed;font-size:15.875px;">Meteoriten</text>
            </g>
            <g id="Meteorit" transform="matrix(0.471125,0,0,0.471125,688.669,657.207)">
                <path d="M325.105,434.442L325.058,434.473L325.058,434.473L325.056,434.474C324.686,434.722 324.352,435.008 324.058,435.325C324.302,435.045 324.607,434.778 324.979,434.526L325.058,434.473L324.979,434.526C283.64,462.044 256.422,508.808 256.422,561.814C256.422,646.385 325.726,715.074 411.123,715.074C436.895,715.074 461.202,708.816 482.575,697.758L479.997,698.385L482.587,697.752C486.421,695.769 490.159,693.632 493.794,691.348C493.733,691.386 711.076,567.15 711.076,567.15C711.134,567.117 711.192,567.082 711.249,567.047C728.092,556.605 730.21,540.814 724.546,530.708C718.818,520.49 704.461,514.448 686.383,525.506C673.951,533.111 663.646,532.558 659.238,526.799C655.088,521.376 657.909,512.933 668.431,505.62C668.46,505.6 792.086,433.772 792.086,433.772C792.099,433.765 792.111,433.757 792.123,433.75C806.891,425.017 807.342,406.361 799.076,391.826C790.882,377.418 774.693,367.903 758.412,376.15C758.317,376.198 758.224,376.249 758.132,376.302L637.535,446.153C627.556,451.519 618.295,445.62 616.16,437.659C614.755,432.42 616.699,426.483 623.271,422.369C623.302,422.349 666.109,398.663 666.109,398.663C666.184,398.621 666.258,398.578 666.33,398.534C683.436,388.031 684.383,368.789 676.535,354.409C668.597,339.863 651.92,330.731 634.862,340.054C634.84,340.066 634.818,340.078 634.796,340.09L533.14,397.414C522.681,402.998 513.335,394.116 514.026,385.042C514.331,381.042 516.687,377.12 521.489,374.213C521.514,374.198 579.725,340.147 579.725,340.147C591.383,333.388 592.523,319.647 586.965,309.098C581.417,298.568 569.576,291.666 556.542,298.115C556.419,298.176 556.298,298.242 556.179,298.312L339.454,425.982L339.454,425.982C334.507,428.55 329.719,431.376 325.105,434.442ZM479.229,693.108L479.974,692.73L479.986,692.724C483.694,690.806 487.309,688.738 490.824,686.529L708.266,562.235C735.18,545.551 717.905,512.861 689.337,530.336C657.685,549.697 636.708,520.556 665.422,500.818L789.242,428.877C813.292,414.656 787.718,367.651 760.97,381.2L640.296,451.095C617.198,463.622 597.097,431.85 620.436,417.465L663.368,393.71C691.692,376.319 665.502,329.758 637.577,345.021L535.862,402.378C514.376,413.926 496.168,382.845 518.619,369.333L576.867,335.26C594.489,325.043 578.756,293.439 559.052,303.189L342.199,430.935C337.371,433.435 332.7,436.19 328.203,439.18L328.192,439.187L327.434,439.7C326.911,436.787 326.158,433.814 325.329,434.303L325.058,434.473L326.772,440.147C287.716,466.758 262.083,511.345 262.083,561.814C262.083,643.276 328.866,709.413 411.123,709.413C433.937,709.413 455.562,704.326 474.896,695.232C475.832,697.134 477.783,698.391 479.973,698.391L475.117,695.638L479.974,698.39L479.972,698.373C479.785,698.223 477.77,696.578 476.375,694.528L478.035,693.715L478.76,693.347L479.963,698.29L479.972,698.373L479.976,698.376L479.979,698.355L479.963,698.29C479.907,697.782 479.642,695.449 479.229,693.108Z"/>
                <path d="M346.139,437.903L346.139,437.903L536.936,326.516C546.492,321.264 556.558,337.009 547.158,342.635L411.123,422.197C440.457,422.197 467.71,431.088 490.277,446.293L490.279,446.294L633.608,364.939C647.07,357.695 660.768,376.52 648.117,384.512L509.533,461.879L509.533,461.879C526.367,478.139 539.115,498.534 546.094,521.396L546.095,521.397L723.256,419.721C739.134,411.172 751.595,433.479 737.471,443.914L551.719,551.456L551.719,551.458C551.973,554.877 552.102,558.331 552.102,561.814C552.102,588.445 544.557,613.344 531.466,634.534L531.465,634.536L691.877,541.737C699.573,538.303 707.538,547.744 699.873,553.353L508.233,662.988L508.233,662.988C482.942,686.806 448.743,701.431 411.123,701.431C333.314,701.431 270.144,638.87 270.144,561.814C270.144,507.959 301,461.185 346.139,437.903Z" style="fill:none;stroke:black;stroke-width:5.66px;"/>
                <g transform="matrix(4.76816,0,0,4.76816,-1487.97,-1836.07)">
                    <circle cx="398.286" cy="502.896" r="27.281" style="fill:none;stroke:black;stroke-width:1.19px;"/>
                </g>
                <path d="M438.667,457.121L380.71,457.356C371.225,458.416 363.334,462.135 357.174,468.742L312.757,516.382C296.25,541.06 293.191,565.473 302.162,589.649L327.176,630.993C334.075,644.098 345.127,651.259 359.236,654.045L415.587,671.217C427.956,674.628 438.808,672.146 448.523,665.239L508.431,607.002C526.572,585.075 530.731,560.338 519.258,532.459L479.755,473.392C468.292,462.522 454.461,457.428 438.667,457.121ZM438.617,462.782C452.715,463.068 465.105,467.516 475.402,477.07C475.41,477.077 514.234,535.129 514.234,535.129C524.513,560.535 520.726,583.109 504.278,603.139C504.262,603.16 444.898,660.867 444.898,660.867C436.704,666.572 427.574,668.622 417.189,665.786C417.157,665.778 360.886,648.63 360.886,648.63C360.704,648.574 360.52,648.528 360.333,648.491C347.967,646.049 338.232,639.841 332.185,628.356C332.133,628.257 332.077,628.159 332.019,628.063L307.288,587.185C299.213,564.976 302.183,542.575 317.206,519.914C317.213,519.904 361.315,472.602 361.315,472.602C366.479,467.063 373.101,463.966 381.018,463.019C381.048,463.016 438.617,462.782 438.617,462.782L438.617,462.782Z"/>
                <g>
                    <g transform="matrix(1,0,0,1,3.94535,0.990266)">
                        <circle cx="398.286" cy="502.896" r="27.281" style="fill:none;stroke:black;stroke-width:5.66px;"/>
                    </g>
                    <g transform="matrix(0.715946,0,0,0.715946,197.779,202.863)">
                        <circle cx="398.286" cy="502.896" r="27.281" style="fill:none;stroke:black;stroke-width:7.91px;"/>
                    </g>
                    <g transform="matrix(0.554136,0,0,0.554136,195.398,365)">
                        <circle cx="398.286" cy="502.896" r="27.281" style="fill:none;stroke:black;stroke-width:10.22px;"/>
                    </g>
                    <g transform="matrix(0.902578,0,0,0.902578,-1.66299,115.495)">
                        <circle cx="398.286" cy="502.896" r="27.281" style="fill:none;stroke:black;stroke-width:6.27px;"/>
                    </g>
                </g>
                <path d="M336.937,582.44C327.417,559.368 351.747,540.954 372.882,549.922C353.488,535.591 322.412,555.523 336.937,582.44Z" style="fill:none;stroke:black;stroke-width:5.66px;"/>
                <path d="M467.715,575.15C460.263,557.177 471.624,543.444 491.811,545.511C477.861,537.84 453.404,553.331 467.715,575.15Z" style="fill:none;stroke:black;stroke-width:5.66px;"/>
                <path d="M375.56,509.642C375.878,478.705 408.921,468.876 428.182,495.453C418.555,467.102 372.792,471.2 375.56,509.642Z" style="fill:none;stroke:black;stroke-width:5.66px;"/>
                <path d="M408.931,656.982C391.509,640.352 412.816,623.959 428.182,634.586C416.124,619.185 387.796,638.755 408.931,656.982Z" style="fill:none;stroke:black;stroke-width:5.66px;"/>
                <g>
                    <g transform="matrix(1.02065,0,0,1.02065,304.528,-179.163)">
                        <circle cx="398.286" cy="502.896" r="27.281" style="fill:none;stroke:black;stroke-width:5.55px;"/>
                    </g>
                    <g transform="matrix(0.701397,0,0,0.701397,474.631,162.633)">
                        <circle cx="398.286" cy="502.896" r="27.281" style="fill:none;stroke:black;stroke-width:8.07px;"/>
                    </g>
                    <g transform="matrix(0.344254,0,0,0.344254,467.574,122.267)">
                        <circle cx="398.286" cy="502.896" r="27.281" style="fill:none;stroke:black;stroke-width:16.44px;"/>
                    </g>
                </g>
                <g>
                    <g transform="matrix(0.349743,0,0,0.349743,571.739,158.231)">
                        <circle cx="398.286" cy="502.896" r="27.281" style="fill:none;stroke:black;stroke-width:16.19px;"/>
                    </g>
                    <g transform="matrix(0.0610688,0,0,0.0610688,580.363,264.679)">
                        <circle cx="398.286" cy="502.896" r="27.281" style="fill:none;stroke:black;stroke-width:92.7px;"/>
                    </g>
                    <g transform="matrix(0.221919,0,0,0.221919,665.601,403.761)">
                        <circle cx="398.286" cy="502.896" r="27.281" style="fill:none;stroke:black;stroke-width:25.51px;"/>
                    </g>
                </g>
            </g>
        </g>
        <g transform="matrix(1,0,0,1,1808.59,361.718)">
            <rect x="387.96" y="738.947" width="361.718" height="361.718" style="fill:none;stroke:black;stroke-width:0.83px;"/>
        </g>
    </g>
    <g transform="matrix(1,0,0,1,-2403.26,1014.99)">
        <g id="währung" transform="matrix(0.624914,0,0,0.624914,3237.75,0.859417)">
            <g transform="matrix(3.78005,0,0,3.78005,-662.893,-602.505)">
                <text x="400.066px" y="624.638px" style="font-family:'OpenSansCondensed-Light', 'Open Sans Condensed', sans-serif;font-weight:300;font-stretch:condensed;font-size:15.875px;">Währung</text>
            </g>
            <g transform="matrix(0.486909,0,0,0.486909,695.049,1220.47)">
                <g transform="matrix(0.896306,-0.443436,0.443436,0.896306,-119.459,374.972)">
                    <path d="M237.409,487.381L690.52,594.12L737.729,395.543L284.343,288.72L237.409,487.381Z" style="fill:none;stroke:black;stroke-width:5.48px;"/>
                    <path d="M295.506,307.08L719.76,406.778L680.023,575.842L255.518,476.431L295.506,307.08Z" style="fill:none;stroke:black;stroke-width:5.48px;"/>
                    <path d="M534.833,376.49L703.178,416.074L670.17,560.128L501.821,520.474C539.414,513.812 567.997,480.948 567.997,441.461C567.997,414.755 554.923,391.079 534.833,376.49ZM474.071,362.38C436.29,368.881 407.508,401.836 407.508,441.461C407.508,467.68 420.109,490.978 439.584,505.627L271.793,465.499L305.285,321.865L474.071,362.38ZM623.527,448.402C637.266,448.402 648.42,459.556 648.42,473.295C648.42,487.033 637.266,498.187 623.527,498.187C609.788,498.187 598.634,487.033 598.634,473.295C598.634,459.556 609.788,448.402 623.527,448.402ZM345.624,382.772C359.363,382.772 370.517,393.926 370.517,407.664C370.517,421.403 359.363,432.557 345.624,432.557C331.886,432.557 320.732,421.403 320.732,407.664C320.732,393.926 331.886,382.772 345.624,382.772Z" style="fill:none;stroke:black;stroke-width:5.48px;"/>
                    <path d="M514.921,419.389L532.175,416.675C530.019,404.501 521.44,395.872 507.86,390.002L510.271,378.637L492.982,374.234L490.063,385.409C442.441,382.72 440.558,427.549 469.105,438.6C480.753,442.763 491.103,447.07 498.384,451.715C510.693,459.568 504.002,476.653 484.758,474.259C467.281,472.491 458.151,464.314 453.808,452.462L435.884,455.368C438.776,470.075 447.529,481.378 465.289,487.449L462.931,499.956L480.23,504.862L483.78,491.37C524.499,498.385 538.363,450.755 507.657,436.271C482.342,424.33 464.583,420.433 471.037,408.583C479.75,397.163 505.802,402.032 514.921,419.389Z" style="fill:none;stroke:black;stroke-width:5.48px;"/>
                </g>
                <g>
                    <path d="M237.409,487.381L690.52,594.12L737.729,395.543L284.343,288.72L237.409,487.381Z" style="fill:white;stroke:black;stroke-width:5.48px;"/>
                    <path d="M295.506,307.08L719.76,406.778L680.023,575.842L255.518,476.431L295.506,307.08Z" style="fill:none;stroke:black;stroke-width:5.48px;"/>
                    <path d="M534.833,376.49L703.178,416.074L670.17,560.128L501.821,520.474C539.414,513.812 567.997,480.948 567.997,441.461C567.997,414.755 554.923,391.079 534.833,376.49ZM474.071,362.38C436.29,368.881 407.508,401.836 407.508,441.461C407.508,467.68 420.109,490.978 439.584,505.627L271.793,465.499L305.285,321.865L474.071,362.38ZM623.527,448.402C637.266,448.402 648.42,459.556 648.42,473.295C648.42,487.033 637.266,498.187 623.527,498.187C609.788,498.187 598.634,487.033 598.634,473.295C598.634,459.556 609.788,448.402 623.527,448.402ZM345.624,382.772C359.363,382.772 370.517,393.926 370.517,407.664C370.517,421.403 359.363,432.557 345.624,432.557C331.886,432.557 320.732,421.403 320.732,407.664C320.732,393.926 331.886,382.772 345.624,382.772Z" style="fill:none;stroke:black;stroke-width:5.48px;"/>
                    <path d="M514.921,419.389L532.175,416.675C530.019,404.501 521.44,395.872 507.86,390.002L510.271,378.637L492.982,374.234L490.063,385.409C442.441,382.72 440.558,427.549 469.105,438.6C480.753,442.763 491.103,447.07 498.384,451.715C510.693,459.568 504.002,476.653 484.758,474.259C467.281,472.491 458.151,464.314 453.808,452.462L435.884,455.368C438.776,470.075 447.529,481.378 465.289,487.449L462.931,499.956L480.23,504.862L483.78,491.37C524.499,498.385 538.363,450.755 507.657,436.271C482.342,424.33 464.583,420.433 471.037,408.583C479.75,397.163 505.802,402.032 514.921,419.389Z" style="fill:none;stroke:black;stroke-width:5.48px;"/>
                </g>
            </g>
        </g>
        <g transform="matrix(1,0,0,1,3255.46,0)">
            <rect x="387.96" y="738.947" width="361.718" height="361.718" style="fill:none;stroke:black;stroke-width:0.83px;"/>
        </g>
    </g>
    <g transform="matrix(1,0,0,1,-2041.54,1014.99)">
        <g id="müll" transform="matrix(0.624914,0,0,0.624914,2876.03,362.577)">
            <g transform="matrix(3.78005,0,0,3.78005,-84.0655,-602.505)">
                <text x="411.902px" y="624.638px" style="font-family:'OpenSansCondensed-Light', 'Open Sans Condensed', sans-serif;font-weight:300;font-stretch:condensed;font-size:15.875px;">Müll</text>
            </g>
            <g id="weltraumschrott" transform="matrix(0.46787,0,0,0.46787,1283.25,1236.54)">
                <path d="M411.781,713.264L586.212,713.264C608.098,713.264 622.475,694.992 626.073,673.404L643.5,411.622C645.131,401.624 641.755,397.499 634.129,398.357L368.23,398.357C357.811,398.522 353.765,403.207 355.321,411.865L375.402,674.453C377.523,698.1 388.039,713.264 411.781,713.264ZM566.657,436.858C566.826,431.737 571.106,427.699 576.236,427.836C581.386,427.973 585.456,432.266 585.318,437.417L579.393,659.491C579.256,664.641 574.963,668.711 569.813,668.573C564.662,668.436 560.593,664.143 560.73,658.993L566.655,436.919L566.657,436.858ZM414.833,437.334C414.733,432.211 418.795,427.954 423.926,427.822C429.076,427.689 433.365,431.763 433.498,436.913L439.225,658.992C439.358,664.143 435.284,668.432 430.134,668.565C424.983,668.698 420.694,664.624 420.561,659.474L414.834,437.394L414.833,437.334ZM490.691,436.776C490.724,431.652 494.894,427.501 500.026,427.501C505.178,427.501 509.361,431.684 509.361,436.836L509.361,658.989C509.361,664.141 505.178,668.324 500.026,668.324C494.874,668.324 490.691,664.141 490.691,658.989L490.691,436.836L490.691,436.776Z" style="fill:none;stroke:black;stroke-width:5.7px;"/>
                <path d="M347.68,379.368L651.105,379.368C663.552,368.053 657.216,335.292 635.637,334.916L587.819,334.916L587.819,319.118C587.535,301.099 574.65,287.046 553.978,286.904L452.576,286.904C434.347,287.433 417.173,301.455 416.926,316.973L416.926,335.804L366.527,335.804C346.595,335.905 337.661,367.979 347.68,379.368ZM439.905,334.986L564.382,334.986L564.382,324.119C563.415,315.186 556.717,310.639 549.032,310.581L453.647,310.581C445.877,310.641 439.607,316 439.466,323.129L439.905,334.986Z" style="fill:none;stroke:black;stroke-width:5.7px;"/>
            </g>
        </g>
        <g transform="matrix(1,0,0,1,3255.46,361.718)">
            <rect x="387.96" y="738.947" width="361.718" height="361.718" style="fill:none;stroke:black;stroke-width:0.83px;"/>
        </g>
    </g>
    <g transform="matrix(1,0,0,1,490.48,-70.1632)">
        <g id="Lebensraum" transform="matrix(0.624914,0,0,0.624914,-17.7142,362.577)">
            <g transform="matrix(3.78005,0,0,3.78005,494.762,-602.505)">
                <text x="391.725px" y="624.638px" style="font-family:'OpenSansCondensed-Light', 'Open Sans Condensed', sans-serif;font-weight:300;font-stretch:condensed;font-size:15.875px;">Lebensraum</text>
            </g>
            <g id="lebensraum" transform="matrix(0.476177,0,0,0.476177,1861.91,1234.46)">
                <path d="M534.189,706.851L534.189,582.198L451.139,582.198L451.139,705.588L325.547,705.588C311.829,705.971 303.881,699.902 304.365,684.407L304.365,526.596L490.691,370.967L680.669,526.965L680.669,680.158C680.291,699.056 671.887,708.502 654.022,706.805L534.189,706.851Z" style="fill:none;stroke:black;stroke-width:5.6px;"/>
                <path d="M492.69,342.008L715.216,527.368C721.715,534.662 728.613,536.167 736.175,528.046L751.488,509.352C758.218,502.145 758.605,495.135 750.158,488.402L681.982,431.871L681.982,297.703C681.197,290.337 678.05,286.238 671.616,286.689L606.917,286.689C599.922,287.635 597.044,291.391 597.174,297.201L597.174,360.876L520.487,296.99C501.976,282.82 483.465,282.597 464.954,296.99L233.795,489.457C226.711,493.993 225.973,499.594 230.618,506.096L250.954,530.496C255.707,534.495 260.839,535.067 266.545,530.446L492.69,342.008Z" style="fill:none;stroke:black;stroke-width:5.6px;"/>
            </g>
        </g>
        <g transform="matrix(1,0,0,1,723.435,361.718)">
            <rect x="387.96" y="738.947" width="361.718" height="361.718" style="fill:none;stroke:black;stroke-width:0.83px;"/>
        </g>
    </g>
    <g transform="matrix(1,0,0,1,-956.391,291.555)">
        <g id="Psychologie" transform="matrix(0.624914,0,0,0.624914,-17.7142,362.577)">
            <g transform="matrix(3.78005,0,0,3.78005,1073.59,-602.505)">
                <text x="393.989px" y="624.638px" style="font-family:'OpenSansCondensed-Light', 'Open Sans Condensed', sans-serif;font-weight:300;font-stretch:condensed;font-size:15.875px;">Psychologie</text>
            </g>
            <g id="psychology" transform="matrix(0.4831,0,0,0.4831,2433.14,1229.65)">
                <path d="M437.171,422.262C444.155,413.488 448.484,404.739 447.566,396.04C468.014,408.219 482.456,402.492 492.507,383.673C506.78,394.083 519.085,392.953 530.474,386.446" style="fill:none;stroke:black;stroke-width:5.52px;"/>
                <path d="M510.386,486.086L485.821,486.086C449.998,486.086 454.668,429.592 485.821,429.592L551.896,429.592C562.239,430.067 568.394,434.178 568.719,443.352C566.849,431.941 560.098,429.443 551.896,429.592C559.515,424.901 564.402,418.533 565.75,409.993" style="fill:none;stroke:black;stroke-width:5.52px;"/>
                <path d="M608.167,477.143C648.954,473.249 646.735,419.172 614.469,415.176C623.171,384.546 603.727,360.095 572.929,370.967C559.078,342.361 539.409,338.473 518.784,353.149C499.734,322.086 467.877,329.43 458.107,357.319C430.609,343.238 405.918,366.09 413.67,396.163C374.045,406.541 384.315,453.648 413.155,460.967L459.548,460.967" style="fill:none;stroke:black;stroke-width:5.52px;"/>
                <path d="M568.715,587.754L563.066,553.162C556.847,539.702 545.316,533.864 530.073,533.354C495.267,529.971 498.55,478.261 528.735,474.355L596.286,472.921C622.132,474.311 618.156,509.725 598.55,509.075L557.506,509.075" style="fill:none;stroke:black;stroke-width:5.52px;"/>
                <path d="M342.816,579.007L352.577,579.424" style="fill:none;stroke:black;stroke-width:5.52px;"/>
                <path d="M633.017,706.813C617.108,666.05 608.02,626.513 609.926,588.953C705.884,538.687 738.111,406.455 637.451,332.623C530.728,263.178 368.139,277.125 331.279,420.824C325.348,438.151 330.566,455.033 344.822,471.73C343.283,486.312 329.99,505.654 307.428,541.733C292.49,565.62 313.145,571.461 342.816,579.007C342.049,591.531 340.393,604.074 336.28,616.669L355.29,627.677C350.7,631.659 346.025,637.11 343.172,641.983C348.457,646.454 354.165,652.237 356.511,659.363C357.196,671.883 358.514,681.939 364.019,690.71C370.145,701.874 420.552,695.775 475.241,688.006C500.219,680.327 514.821,643.637 525.245,604.226" style="fill:none;stroke:black;stroke-width:5.52px;"/>
            </g>
        </g>
        <g transform="matrix(1,0,0,1,1085.15,361.718)">
            <rect x="387.96" y="738.947" width="361.718" height="361.718" style="fill:none;stroke:black;stroke-width:0.83px;"/>
        </g>
    </g>
    <g transform="matrix(1,0,0,1,128.762,-70.1632)">
        <g id="Wasser" transform="matrix(0.624914,0,0,0.624914,-379.432,362.577)">
            <g transform="matrix(3.78005,0,0,3.78005,-84.0655,-1181.33)">
                <text x="404.942px" y="624.638px" style="font-family:'OpenSansCondensed-Light', 'Open Sans Condensed', sans-serif;font-weight:300;font-stretch:condensed;font-size:15.875px;">Wasser</text>
            </g>
            <g id="water" transform="matrix(0.447598,0,0,0.447598,1298.25,667.889)">
                <g id="water1" serif:id="water" transform="matrix(0.501742,0,0,0.59358,189.222,347.117)">
                    <path d="M375.299,456.149C375.243,456.252 375.188,456.356 375.136,456.461C331.951,542.839 336.899,608.13 364.481,651.887C393.053,697.214 446.065,720.289 499.13,720.703C552.269,721.117 605.434,698.828 634.217,653.503C661.937,609.853 667.154,543.958 624.342,455.524C624.309,455.456 624.275,455.389 624.241,455.321C592.501,393.651 553.467,337.731 509.662,285.566C507.467,282.953 503.929,281.382 500.138,281.339C496.347,281.296 492.76,282.785 490.483,285.347C443.884,337.782 408.16,396.183 375.299,456.149ZM386.075,460.368C418.584,401.045 453.879,343.249 499.978,291.377C543.318,342.988 581.948,398.31 613.351,459.326C777.235,797.848 220.929,790.694 386.075,460.368Z"/>
                    <g transform="matrix(1.25678,0,0,1.23089,-113.018,-118.138)">
                        <path d="M481.241,383.282C482.469,379.241 479.96,375.052 475.429,373.58C470.898,372.109 465.811,373.831 463.648,377.568L416.787,458.518C416.71,458.652 416.637,458.787 416.568,458.924C383.884,524.1 378.133,568.055 392.872,601.991C402.893,625.064 422.385,643.792 450.323,661.33C453.762,663.488 458.447,663.399 461.772,661.112C465.096,658.825 466.242,654.903 464.57,651.529C431.873,585.527 432.271,557.582 450.731,483.68C450.731,483.68 481.241,383.282 481.241,383.282ZM472.101,381.213L425.24,462.163C373.051,566.236 390.267,613.546 455.882,654.735C422.198,586.741 422.492,557.993 441.538,481.787L472.101,381.213Z"/>
                    </g>
                </g>
                <g id="water2" serif:id="water" transform="matrix(0.501742,0,0,0.59358,358.874,151.57)">
                    <path d="M375.299,456.149C375.243,456.252 375.188,456.356 375.136,456.461C331.951,542.839 336.899,608.13 364.481,651.887C393.053,697.214 446.065,720.289 499.13,720.703C552.269,721.117 605.434,698.828 634.217,653.503C661.937,609.853 667.154,543.958 624.342,455.524C624.309,455.456 624.275,455.389 624.241,455.321C592.501,393.651 553.467,337.731 509.662,285.566C507.467,282.953 503.929,281.382 500.138,281.339C496.347,281.296 492.76,282.785 490.483,285.347C443.884,337.782 408.16,396.183 375.299,456.149ZM386.075,460.368C418.584,401.045 453.879,343.249 499.978,291.377C543.318,342.988 581.948,398.31 613.351,459.326C777.235,797.848 220.929,790.694 386.075,460.368Z"/>
                    <g transform="matrix(1.25678,0,0,1.23089,-113.018,-118.138)">
                        <path d="M481.241,383.282C482.469,379.241 479.96,375.052 475.429,373.58C470.898,372.109 465.811,373.831 463.648,377.568L416.787,458.518C416.71,458.652 416.637,458.787 416.568,458.924C383.884,524.1 378.133,568.055 392.872,601.991C402.893,625.064 422.385,643.792 450.323,661.33C453.762,663.488 458.447,663.399 461.772,661.112C465.096,658.825 466.242,654.903 464.57,651.529C431.873,585.527 432.271,557.582 450.731,483.68C450.731,483.68 481.241,383.282 481.241,383.282ZM472.101,381.213L425.24,462.163C373.051,566.236 390.267,613.546 455.882,654.735C422.198,586.741 422.492,557.993 441.538,481.787L472.101,381.213Z"/>
                    </g>
                </g>
                <g id="water3" serif:id="water" transform="matrix(0.501742,0,0,0.59358,119.169,58.0877)">
                    <path d="M375.299,456.149C375.243,456.252 375.188,456.356 375.136,456.461C331.951,542.839 336.899,608.13 364.481,651.887C393.053,697.214 446.065,720.289 499.13,720.703C552.269,721.117 605.434,698.828 634.217,653.503C661.937,609.853 667.154,543.958 624.342,455.524C624.309,455.456 624.275,455.389 624.241,455.321C592.501,393.651 553.467,337.731 509.662,285.566C507.467,282.953 503.929,281.382 500.138,281.339C496.347,281.296 492.76,282.785 490.483,285.347C443.884,337.782 408.16,396.183 375.299,456.149ZM386.075,460.368C418.584,401.045 453.879,343.249 499.978,291.377C543.318,342.988 581.948,398.31 613.351,459.326C777.235,797.848 220.929,790.694 386.075,460.368Z"/>
                    <g transform="matrix(1.25678,0,0,1.23089,-113.018,-118.138)">
                        <path d="M481.241,383.282C482.469,379.241 479.96,375.052 475.429,373.58C470.898,372.109 465.811,373.831 463.648,377.568L416.787,458.518C416.71,458.652 416.637,458.787 416.568,458.924C383.884,524.1 378.133,568.055 392.872,601.991C402.893,625.064 422.385,643.792 450.323,661.33C453.762,663.488 458.447,663.399 461.772,661.112C465.096,658.825 466.242,654.903 464.57,651.529C431.873,585.527 432.271,557.582 450.731,483.68C450.731,483.68 481.241,383.282 481.241,383.282ZM472.101,381.213L425.24,462.163C373.051,566.236 390.267,613.546 455.882,654.735C422.198,586.741 422.492,557.993 441.538,481.787L472.101,381.213Z"/>
                    </g>
                </g>
            </g>
        </g>
        <rect x="387.96" y="738.947" width="361.718" height="361.718" style="fill:none;stroke:black;stroke-width:0.83px;"/>
    </g>
    <g transform="matrix(1,0,0,1,-956.391,653.272)">
        <g id="Nahrung" transform="matrix(0.624914,0,0,0.624914,1075.72,362.577)">
            <g transform="matrix(3.78005,0,0,3.78005,494.762,-1181.33)">
                <text x="401.248px" y="624.638px" style="font-family:'OpenSansCondensed-Light', 'Open Sans Condensed', sans-serif;font-weight:300;font-stretch:condensed;font-size:15.875px;">Nahrung</text>
            </g>
            <g id="nahrung" transform="matrix(0.617632,0,0,0.617632,1793.29,583.674)">
                <path d="M457.801,351.687C456.051,324.32 455.361,287.412 455.361,287.412C455.317,285.059 453.397,283.175 451.044,283.175L448.205,283.175C445.853,283.175 443.934,285.058 443.888,287.409C443.888,287.409 443.117,327.388 441.127,355.036C439.08,327.38 438.228,287.401 438.228,287.401C438.177,285.053 436.259,283.175 433.911,283.175L431.209,283.175C428.854,283.175 426.933,285.062 426.892,287.417C426.892,287.417 426.217,325.729 424.358,353.229C422.596,325.734 422.056,287.432 422.056,287.432C422.022,285.071 420.099,283.175 417.738,283.175L414.05,283.175C411.799,283.175 409.925,284.905 409.746,287.15C406.271,330.684 401.513,367.865 405.767,395.267C408.653,413.86 415.632,428.135 429.236,437.348C430.114,545.747 428.252,655.191 432.289,694.833C433.076,702.562 434.202,707.865 435.448,710.367C436.941,713.366 439.123,714.228 440.891,714.228C442.657,714.228 444.841,713.366 446.335,710.363C447.582,707.856 448.711,702.545 449.504,694.807C453.574,655.081 451.8,545.434 452.836,437.409C468.705,425.452 475.857,411.425 477.818,388.485C479.737,366.043 476.524,334.607 471.986,287.083C471.775,284.867 469.913,283.175 467.687,283.175L464.588,283.175C462.236,283.175 460.317,285.058 460.271,287.41C460.271,287.41 459.564,324.318 457.801,351.687ZM467.687,287.493L464.588,287.493C464.588,287.493 462.776,381.204 457.794,381.204C452.812,381.204 451.044,287.493 451.044,287.493L448.205,287.493C448.205,287.493 446.376,381.449 441.153,381.449C435.93,381.449 433.911,287.493 433.911,287.493L431.209,287.493C431.209,287.493 429.542,381.235 424.31,381.235C419.078,381.235 417.738,287.493 417.738,287.493L414.05,287.493C408.313,359.376 398.836,413.77 433.533,434.98C434.689,571.217 431.381,709.91 440.891,709.91C450.401,709.91 447.19,570.898 448.539,435.206C480.607,412.266 476.693,381.814 467.687,287.493Z"/>
                <g transform="matrix(1,0,0,1,-19.3766,0)">
                    <path d="M593.501,293.255C593.499,292.181 593.098,291.145 592.374,290.351C587.3,284.785 582.325,282.746 577.896,283.252C574.737,283.613 571.642,285.246 568.782,288.428C564.159,293.571 559.584,303.419 555.622,316.309C549.969,334.702 545.332,359.469 542.7,384.872C538.256,427.756 539.776,472.396 551.056,491.921C554.734,498.29 558.38,503.079 561.509,507.492C568.031,516.69 571.906,524.101 567.673,543.462C567.651,543.564 567.632,543.667 567.618,543.77C563.547,572.095 561.333,607.443 563.726,660.062C563.727,660.077 563.727,660.091 563.728,660.106C565.093,684.54 568.242,701.052 571.71,708.102C574.564,713.903 578.55,714.95 581.571,713.818C582.8,713.357 584.125,712.431 585.342,710.788C586.439,709.306 587.573,707.038 588.616,703.902C592.013,693.69 594.996,672.816 596.295,639.695C596.298,639.625 596.299,639.555 596.298,639.486C595.885,595.107 594.997,556.885 593.764,523.121C593.764,523.121 593.501,293.255 593.501,293.255ZM589.182,293.26L589.446,523.201C590.679,556.951 591.567,595.158 591.98,639.526C588.34,732.384 571.802,727.217 568.04,659.865C565.663,607.614 567.849,572.511 571.892,544.384C578.516,514.081 566.795,510.536 554.795,489.761C532.79,451.67 550.267,315.485 571.994,291.314C577.056,285.682 582.775,286.232 589.182,293.26Z"/>
                </g>
            </g>
        </g>
        <g transform="matrix(1,0,0,1,1808.59,0)">
            <rect x="387.96" y="738.947" width="361.718" height="361.718" style="fill:none;stroke:black;stroke-width:0.83px;"/>
        </g>
    </g>
    <g transform="matrix(1,0,0,1,128.762,-70.1632)">
        <g id="Strahlung" transform="matrix(0.624914,0,0,0.624914,-17.7142,362.577)">
            <g transform="matrix(3.78005,0,0,3.78005,1073.59,-1181.33)">
                <text x="399.105px" y="624.638px" style="font-family:'OpenSansCondensed-Light', 'Open Sans Condensed', sans-serif;font-weight:300;font-stretch:condensed;font-size:15.875px;">Strahlung</text>
            </g>
            <g id="radiation" transform="matrix(0.5082,0,0,0.5082,2420.97,637.588)">
                <path d="M500,460.099C477.978,460.099 460.099,477.978 460.099,500C460.099,522.022 477.978,539.901 500,539.901C522.022,539.901 539.901,522.022 539.901,500C539.901,477.978 522.022,460.099 500,460.099ZM500,465.347C519.126,465.347 534.653,480.874 534.653,500C534.653,519.126 519.126,534.653 500,534.653C480.874,534.653 465.347,519.126 465.347,500C465.347,480.874 480.874,465.347 500,465.347Z"/>
                <path d="M530.32,541.761C529.622,540.554 528.472,539.674 527.124,539.316C525.776,538.958 524.341,539.152 523.136,539.854C516.337,543.814 508.431,546.082 500,546.082C491.614,546.082 483.748,543.838 476.969,539.915C474.461,538.463 471.251,539.319 469.799,541.827L406.404,651.313C405.693,652.542 405.51,654.007 405.897,655.373C406.283,656.739 407.207,657.89 408.457,658.563C469.159,691.26 530.217,691.048 591.624,658.653C592.886,657.987 593.823,656.836 594.218,655.465C594.613,654.093 594.433,652.62 593.718,651.384L530.32,541.761ZM525.778,544.389L589.175,654.012C529.424,685.533 470.011,685.758 410.946,653.943L474.34,544.457C481.893,548.828 490.657,551.33 500,551.33C509.394,551.33 518.202,548.801 525.778,544.389ZM476.976,460.081C478.182,459.384 479.06,458.236 479.419,456.891C479.778,455.546 479.587,454.113 478.889,452.908L415.428,343.359C414.714,342.125 413.528,341.235 412.143,340.894C410.759,340.553 409.295,340.79 408.089,341.55C351.298,377.356 319.34,429.137 316.742,499.807C316.69,501.232 317.219,502.616 318.208,503.642C319.198,504.668 320.561,505.248 321.987,505.248L448.67,505.248C451.568,505.248 453.918,502.898 453.918,500C453.918,482.95 463.199,468.052 476.976,460.081ZM521.152,452.931C519.698,455.438 520.553,458.649 523.06,460.102C536.817,468.078 546.082,482.965 546.082,500C546.082,502.898 548.432,505.248 551.33,505.248L678.519,505.248C679.955,505.248 681.328,504.66 682.319,503.62C683.309,502.58 683.83,501.18 683.761,499.746C680.461,431.689 651.624,377.949 591.923,341.51C590.718,340.774 589.266,340.555 587.897,340.903C586.528,341.251 585.357,342.136 584.649,343.358L521.152,452.931ZM474.348,455.539C459.004,464.416 448.67,481.011 448.67,500L321.987,500C324.515,431.225 355.62,380.835 410.887,345.99L474.348,455.539ZM525.692,455.562L589.189,345.99C647.286,381.45 675.307,433.771 678.519,500L551.33,500C551.33,481.028 541.014,464.445 525.692,455.562Z"/>
                <circle cx="500" cy="500" r="196.262" style="fill:none;stroke:black;stroke-width:5.25px;"/>
            </g>
        </g>
        <g transform="matrix(1,0,0,1,1085.15,0)">
            <rect x="387.96" y="738.947" width="361.718" height="361.718" style="fill:none;stroke:black;stroke-width:0.83px;"/>
        </g>
    </g>
    <g transform="matrix(1,0,0,1,128.762,-70.1632)">
        <g id="Sauerstoff" transform="matrix(0.624914,0,0,0.624914,-741.15,362.577)">
            <g transform="matrix(3.78005,0,0,3.78005,1652.42,-1181.33)">
                <text x="397.76px" y="624.638px" style="font-family:'OpenSansCondensed-Light', 'Open Sans Condensed', sans-serif;font-weight:300;font-stretch:condensed;font-size:15.875px;">Sauerstoﬀ</text>
            </g>
            <g transform="matrix(0.473646,0,0,0.473646,3017.31,655.458)">
                <path d="M570.424,336.064C632.018,315.157 685.658,326.844 728.71,381.923C836.392,369.731 858.343,496.906 780.558,538.196C780.543,653.093 703.383,708.504 594.399,679.87C562.465,716.772 500.459,723.991 460.143,672.479C399.135,700.287 343.152,695.691 293.495,650.302C193.34,694.646 120.349,560.565 218.567,502.487C206.331,408.657 267.937,338.788 362.573,339.134C420.337,269.048 518.371,274.345 570.424,336.064Z" style="fill:none;stroke:black;stroke-width:5.63px;"/>
                <g transform="matrix(0.895583,0,0,0.895583,-61.7978,31.5465)">
                    <text x="445.562px" y="620.381px" style="font-family:'NasalizationRg-Regular', 'Nasalization', sans-serif;font-size:292.465px;fill:none;stroke:black;stroke-width:6.29px;stroke-linecap:butt;stroke-miterlimit:2;">O</text>
                    <text x="684.213px" y="620.381px" style="font-family:'NasalizationRg-Regular', 'Nasalization', sans-serif;font-size:292.465px;fill:none;stroke:black;stroke-width:6.29px;stroke-linecap:butt;stroke-miterlimit:2;">²</text>
                </g>
            </g>
        </g>
        <g transform="matrix(1,0,0,1,723.435,0)">
            <rect x="387.96" y="738.947" width="361.718" height="361.718" style="fill:none;stroke:black;stroke-width:0.83px;"/>
        </g>
    </g>
    <g transform="matrix(1,0,0,1,-1318.11,291.555)">
        <g id="Temperatur" transform="matrix(0.624914,0,0,0.624914,-379.432,362.577)">
            <g transform="matrix(3.78005,0,0,3.78005,2231.25,-1181.33)">
                <text x="393.69px" y="624.638px" style="font-family:'OpenSansCondensed-Light', 'Open Sans Condensed', sans-serif;font-weight:300;font-stretch:condensed;font-size:15.875px;">Temperatur</text>
            </g>
            <g id="temperature" transform="matrix(0.56229,0,0,0.56229,3551.58,614.657)">
                <path d="M456.902,339.217L456.902,551.931C436.029,565.873 422.273,589.648 422.273,616.609C422.273,659.508 457.101,694.336 500,694.336C542.899,694.336 577.727,659.508 577.727,616.609C577.727,590.386 564.714,567.177 544.794,553.096C544.795,553.097 544.795,339.217 544.795,339.217L544.786,339.226L544.794,338.934C544.641,314.81 525.009,295.271 500.848,295.271C476.594,295.271 456.902,314.962 456.902,339.217ZM461.645,554.518L461.645,339.217C461.645,317.58 479.212,300.014 500.848,300.014C522.401,300.014 539.914,317.443 540.051,338.964L540.052,339.217L540.052,555.602C559.884,568.657 572.984,591.116 572.984,616.609C572.984,656.89 540.281,689.593 500,689.593C459.719,689.593 427.016,656.89 427.016,616.609C427.016,590.395 440.867,567.389 461.645,554.518Z"/>
                <path d="M475.356,481.057C475.356,467.455 486.399,456.413 500,456.413C513.601,456.413 524.644,467.455 524.644,481.057L524.644,564.332C544.226,573.588 557.788,593.528 557.788,616.609C557.788,648.503 531.894,674.397 500,674.397C468.106,674.397 442.212,648.503 442.212,616.609C442.212,593.604 455.684,573.721 475.164,564.424L475.164,481.057L475.356,481.057Z" style="fill:none;stroke:black;stroke-width:4.74px;"/>
                <path d="M540.052,426.701L540.052,446.659L503.848,446.659C498.341,446.659 493.869,442.188 493.869,436.68C493.869,431.172 498.341,426.701 503.848,426.701L540.052,426.701ZM540.052,387.661L540.052,407.62L503.848,407.62L503.784,407.62C498.306,407.585 493.869,403.127 493.869,397.64C493.869,392.132 498.341,387.661 503.848,387.661L540.052,387.661ZM540.052,348.621L540.052,368.58L503.848,368.58C498.341,368.58 493.869,364.108 493.869,358.6C493.869,353.093 498.341,348.621 503.848,348.621L540.052,348.621Z" style="fill:none;stroke:black;stroke-width:4.74px;"/>
            </g>
        </g>
        <g transform="matrix(1,0,0,1,1446.87,0)">
            <rect x="387.96" y="738.947" width="361.718" height="361.718" style="fill:none;stroke:black;stroke-width:0.83px;"/>
        </g>
    </g>
    <g transform="matrix(1,0,0,1,-956.391,653.272)">
        <g id="Gravitation" transform="matrix(0.624914,0,0,0.624914,-17.7142,362.577)">
            <g transform="matrix(3.78005,0,0,3.78005,2810.07,-1181.33)">
                <text x="393.605px" y="624.638px" style="font-family:'OpenSansCondensed-Light', 'Open Sans Condensed', sans-serif;font-weight:300;font-stretch:condensed;font-size:15.875px;">Schwerkraft</text>
            </g>
            <g id="gravity" transform="matrix(0.487766,0,0,0.487766,4167.29,645.7)">
                <g id="movement_lines" transform="matrix(1,0,0,1.22603,0,-103.269)">
                    <path d="M368.316,317.675L368.316,301.11" style="fill:none;stroke:black;stroke-width:4.89px;"/>
                    <g transform="matrix(1,0,0,5.07485,78.9674,-1202.32)">
                        <path d="M368.316,317.675L368.316,301.11" style="fill:none;stroke:black;stroke-width:1.23px;"/>
                    </g>
                    <g transform="matrix(1,0,0,2.50789,157.765,-455.318)">
                        <path d="M368.316,317.675L368.316,301.11" style="fill:none;stroke:black;stroke-width:2.39px;"/>
                    </g>
                    <g transform="matrix(1,0,0,3.77756,224.378,-782.853)">
                        <path d="M368.316,317.675L368.316,301.11" style="fill:none;stroke:black;stroke-width:1.63px;"/>
                    </g>
                    <g transform="matrix(1,0,0,0.0272503,224.378,304.524)">
                        <path d="M368.316,317.675L368.316,301.11" style="fill:none;stroke:black;stroke-width:7.73px;"/>
                    </g>
                    <path d="M368.316,352.103L368.316,456.884" style="fill:none;stroke:black;stroke-width:4.89px;"/>
                </g>
                <path d="M544.697,678.247C616.859,712.499 666.811,609.342 635.044,508.457C595.841,426.576 524.027,416.486 476.3,491.45C400.589,469.092 334.524,513.502 363.835,612.231C399.617,692.304 515.343,745.331 544.697,678.247Z" style="fill:none;stroke:black;stroke-width:5.47px;"/>
                <path d="M475.585,489.58C477.187,486.359 479.584,483.156 482.013,479.698C469.341,458.725 453.728,441.323 433.698,438.678C419.322,436.78 413.915,462.118 433.725,465.292C443.907,468.335 451.398,476.707 456.444,485.909C463.602,486.708 469.971,487.914 475.585,489.58Z" style="fill:none;stroke:black;stroke-width:5.47px;"/>
                <path d="M483.159,477.943C505.796,452.765 520.452,428.722 530.409,405.605L505.724,418.83C495.971,420.022 487.665,423.595 482.013,431.533C471.498,450.409 474.164,465.165 483.159,477.943Z" style="fill:none;stroke:black;stroke-width:5.47px;"/>
                <path d="M530.409,405.605C530.409,405.605 493.101,422.264 493.637,422.026C509.471,414.992 544.739,417.14 590.649,447.147C581.238,427.211 551.426,407.133 530.409,405.605Z" style="fill:none;stroke:black;stroke-width:5.47px;"/>
                <g transform="matrix(1,0,0,5.07485,157.765,-1146.53)">
                    <path d="M368.316,317.675L368.316,301.11" style="fill:none;stroke:black;stroke-width:1.49px;"/>
                </g>
            </g>
        </g>
        <g transform="matrix(1,0,0,1,2170.31,0)">
            <rect x="387.96" y="738.947" width="361.718" height="361.718" style="fill:none;stroke:black;stroke-width:0.83px;"/>
        </g>
    </g>
    <g transform="matrix(1,0,0,1,490.48,-70.1632)">
        <g id="Licht" transform="matrix(0.624914,0,0,0.624914,-2188.02,724.295)">
            <g transform="matrix(3.78005,0,0,3.78005,3388.9,-1181.33)">
                <text x="411.844px" y="624.638px" style="font-family:'OpenSansCondensed-Light', 'Open Sans Condensed', sans-serif;font-weight:300;font-stretch:condensed;font-size:15.875px;">Licht</text>
            </g>
            <g id="light-2" serif:id="light#2" transform="matrix(0.590942,0,0,0.590942,4694.91,596.218)">
                <g transform="matrix(1,0,0,1,0,28.055)">
                    <path d="M500,419.752C528.806,419.752 552.193,443.139 552.193,471.945C552.193,500.751 528.806,524.138 500,524.138C471.194,524.138 447.807,500.751 447.807,471.945C447.807,443.139 471.194,419.752 500,419.752ZM500,424.265C526.315,424.265 547.68,445.63 547.68,471.945C547.68,498.26 526.315,519.625 500,519.625C473.685,519.625 452.32,498.26 452.32,471.945C452.32,445.63 473.685,424.265 500,424.265Z"/>
                </g>
                <g>
                    <path d="M500,428.989L500,323.558" style="fill:none;stroke:black;stroke-width:4.51px;"/>
                    <g transform="matrix(1,0,0,1,0,247.453)">
                        <path d="M500,428.989L500,323.558" style="fill:none;stroke:black;stroke-width:4.51px;"/>
                    </g>
                    <g transform="matrix(6.12323e-17,1,-1,6.12323e-17,1000,-5.68434e-14)">
                        <path d="M500,428.989L500,323.558" style="fill:none;stroke:black;stroke-width:4.51px;"/>
                    </g>
                    <g transform="matrix(6.12323e-17,1,-1,6.12323e-17,752.547,-4.16913e-14)">
                        <path d="M500,428.989L500,323.558" style="fill:none;stroke:black;stroke-width:4.51px;"/>
                    </g>
                    <g transform="matrix(0.707107,0.707107,-0.707107,0.707107,500,-207.107)">
                        <path d="M500,428.989L500,323.558" style="fill:none;stroke:black;stroke-width:4.51px;"/>
                    </g>
                    <g transform="matrix(0.707107,0.707107,-0.707107,0.707107,325.024,-32.1309)">
                        <path d="M500,428.989L500,323.558" style="fill:none;stroke:black;stroke-width:4.51px;"/>
                    </g>
                    <g transform="matrix(-0.707107,0.707107,-0.707107,-0.707107,1207.11,500)">
                        <path d="M500,428.989L500,323.558" style="fill:none;stroke:black;stroke-width:4.51px;"/>
                    </g>
                    <g transform="matrix(-0.707107,0.707107,-0.707107,-0.707107,1032.13,325.024)">
                        <path d="M500,428.989L500,323.558" style="fill:none;stroke:black;stroke-width:4.51px;"/>
                    </g>
                </g>
                <g transform="matrix(0.73147,-0.301633,0.301633,0.73147,-16.5515,285.081)">
                    <path d="M500,422.01L500,323.558" style="fill:none;stroke:black;stroke-width:5.7px;"/>
                    <g transform="matrix(1,0,0,1,0,247.453)">
                        <path d="M500,428.989L500,331.237" style="fill:none;stroke:black;stroke-width:5.7px;"/>
                    </g>
                    <g transform="matrix(6.12323e-17,1,-1,6.12323e-17,1000,-5.68434e-14)">
                        <path d="M500,422.115L500,323.558" style="fill:none;stroke:black;stroke-width:5.7px;"/>
                    </g>
                    <g transform="matrix(6.12323e-17,1,-1,6.12323e-17,752.547,-4.16913e-14)">
                        <path d="M500,428.989L500,336.251" style="fill:none;stroke:black;stroke-width:5.7px;"/>
                    </g>
                    <g transform="matrix(0.707107,0.707107,-0.707107,0.707107,500,-207.107)">
                        <path d="M500,421.908L500,323.558" style="fill:none;stroke:black;stroke-width:5.7px;"/>
                    </g>
                    <g transform="matrix(0.707107,0.707107,-0.707107,0.707107,325.024,-32.1309)">
                        <path d="M500,428.989L500,329.944" style="fill:none;stroke:black;stroke-width:5.7px;"/>
                    </g>
                    <g transform="matrix(-0.707107,0.707107,-0.707107,-0.707107,1207.11,500)">
                        <path d="M500,416.931L500,323.558" style="fill:none;stroke:black;stroke-width:5.7px;"/>
                    </g>
                    <g transform="matrix(-0.707107,0.707107,-0.707107,-0.707107,1032.13,325.024)">
                        <path d="M500,428.989L500,336.361" style="fill:none;stroke:black;stroke-width:5.7px;"/>
                    </g>
                </g>
            </g>
        </g>
        <g transform="matrix(1,0,0,1,361.718,361.718)">
            <rect x="387.96" y="738.947" width="361.718" height="361.718" style="fill:none;stroke:black;stroke-width:0.83px;"/>
        </g>
    </g>
    <g transform="matrix(1,0,0,1,128.762,-70.1632)">
        <g id="Resscourcen" transform="matrix(0.624914,0,0,0.624914,-2730.6,362.577)">
            <g transform="matrix(3.78005,0,0,3.78005,4257.14,-1181.33)">
                <text id="_-Materials-" serif:id="(Materials)" x="391.942px" y="624.638px" style="font-family:'OpenSansCondensed-Light', 'Open Sans Condensed', sans-serif;font-weight:300;font-stretch:condensed;font-size:15.875px;">Resscourcen</text>
            </g>
            <g id="materials" transform="matrix(0.764224,0,0,0.764224,5476.49,525.904)">
                <g>
                    <path d="M632.113,465.628L616.405,514.093L628.629,514.093C635.63,513.467 638.815,508.368 639.211,500L639.211,473.814C639.368,468.819 637.165,465.944 632.113,465.628Z" style="fill:none;stroke:black;stroke-width:3.49px;"/>
                    <path d="M556.111,538.073C570.147,538.073 581.543,549.468 581.543,563.505C581.543,577.541 570.147,588.936 556.111,588.936C542.075,588.936 530.679,577.541 530.679,563.505C530.679,549.468 542.075,538.073 556.111,538.073ZM556.111,557.506C559.422,557.506 562.11,560.194 562.11,563.505C562.11,566.815 559.422,569.503 556.111,569.503C552.8,569.503 550.112,566.815 550.112,563.505C550.112,560.194 552.8,557.506 556.111,557.506Z" style="fill:none;stroke:black;stroke-width:3.49px;"/>
                    <g transform="matrix(1,0,0,1,-111.076,0)">
                        <path d="M556.111,538.073C570.147,538.073 581.543,549.468 581.543,563.505C581.543,577.541 570.147,588.936 556.111,588.936C542.075,588.936 530.679,577.541 530.679,563.505C530.679,549.468 542.075,538.073 556.111,538.073ZM556.111,557.506C559.422,557.506 562.11,560.194 562.11,563.505C562.11,566.815 559.422,569.503 556.111,569.503C552.8,569.503 550.112,566.815 550.112,563.505C550.112,560.194 552.8,557.506 556.111,557.506Z" style="fill:none;stroke:black;stroke-width:3.49px;"/>
                    </g>
                    <path d="M414.145,563.505L405.747,563.505L360.829,427.812L639.211,427.812L593.813,563.505L588.125,563.505C588.125,546.012 573.923,531.811 556.431,531.811C538.938,531.811 524.737,546.012 524.737,563.505L477.533,563.505C477.533,546.012 463.332,531.811 445.839,531.811C428.347,531.811 414.145,546.012 414.145,563.505Z" style="fill:none;stroke:black;stroke-width:3.49px;"/>
                </g>
                <path d="M627.812,422.609L368.086,422.609C368.086,422.609 370.853,418.599 372.26,416.61C373.884,414.316 376.073,410.334 377.827,408.841C379.12,407.74 381.09,407.802 382.782,407.652C385.391,407.421 390.386,407.509 393.483,407.454C396.11,407.408 398.874,407.933 401.362,407.324C403.851,406.716 406.116,405.076 408.415,403.804C410.744,402.514 412.947,400.308 415.341,399.586C417.715,398.87 421.205,399.655 422.778,399.472C423.516,399.387 424.264,399.027 424.779,398.491C425.956,397.267 428.174,394.127 429.839,392.128C431.436,390.21 432.86,387.881 434.77,386.495C436.675,385.112 438.954,383.987 441.301,383.81C444.265,383.586 450.082,384.693 452.552,385.154C453.811,385.389 454.976,386.005 456.121,386.579C457.547,387.295 459.309,388.782 461.108,389.448C462.952,390.131 465.122,390.57 467.186,390.675C469.391,390.789 471.987,390.546 474.343,390.127C476.735,389.701 479.937,388.943 481.535,388.122C482.655,387.547 483.319,386.303 483.932,385.203C484.937,383.402 485.533,379.377 487.563,377.313C490.241,374.592 497.049,370.31 500,368.875C501.58,368.107 503.571,368.254 505.269,368.706C507.354,369.262 510.559,371.002 512.512,372.207C514.164,373.227 515.548,374.634 516.986,375.94C518.491,377.306 520.375,378.898 521.54,380.404C522.597,381.772 522.643,383.881 523.976,384.981C525.368,386.13 527.8,386.973 529.894,387.299C533.241,387.82 541.11,387.505 544.056,388.104C545.523,388.401 546.647,389.716 547.575,390.889C548.545,392.115 548.644,394.7 549.875,395.46C551.106,396.221 553.376,396.056 554.959,395.45C556.583,394.829 558.327,392.491 559.621,391.731C560.543,391.188 561.663,391.069 562.718,390.888C565.043,390.487 570.77,389.289 573.575,389.327C575.653,389.354 577.863,390.425 579.548,391.114C581.014,391.713 582.702,392.613 583.681,393.457C584.494,394.158 584.943,395.208 585.417,396.173C586.059,397.484 586.551,399.749 587.537,401.321C588.652,403.098 590.365,405.68 592.105,406.835C593.782,407.948 595.973,408.462 597.975,408.25C600.22,408.013 602.871,405.311 605.572,405.412C609.063,405.542 616.036,407.976 618.92,409.033C620.423,409.584 621.913,410.476 622.876,411.755C624,413.25 624.844,416.193 625.667,418.002C626.368,419.544 627.812,422.609 627.812,422.609Z" style="fill:none;stroke:black;stroke-width:3.49px;"/>
            </g>
        </g>
        <g transform="matrix(1,0,0,1,361.718,0)">
            <rect x="387.96" y="738.947" width="361.718" height="361.718" style="fill:none;stroke:black;stroke-width:0.83px;"/>
        </g>
    </g>
    <g transform="matrix(1,0,0,1,490.48,-70.1632)">
        <g id="Energie" transform="matrix(0.624914,0,0,0.624914,-3273.17,724.295)">
            <g transform="matrix(3.78005,0,0,3.78005,4546.95,-1181.33)">
                <text x="404.484px" y="624.638px" style="font-family:'OpenSansCondensed-Light', 'Open Sans Condensed', sans-serif;font-weight:300;font-stretch:condensed;font-size:15.875px;">Energie</text>
            </g>
            <g id="energy" transform="matrix(0.525531,0,0,0.525531,5880.65,633.199)">
                <path d="M634.046,518.435L677.024,596.023C688.355,620.507 672.139,652.161 648.866,652.161L491.595,652.161L525.368,611.938L491.595,652.161L529.499,689.408" style="fill:none;stroke:black;stroke-width:5.07px;"/>
                <g transform="matrix(-0.5,0.866025,-0.866025,-0.5,1209.06,363.25)">
                    <path d="M634.046,518.435L677.024,596.023C688.355,620.507 672.139,652.161 648.866,652.161L491.595,652.161L525.368,611.938L491.595,652.161L529.499,689.408" style="fill:none;stroke:black;stroke-width:5.07px;"/>
                </g>
                <g transform="matrix(-0.5,-0.866025,0.866025,-0.5,289.238,1229.25)">
                    <path d="M634.046,518.435L677.024,596.023C688.355,620.507 672.139,652.161 648.866,652.161L491.595,652.161L525.368,611.938L491.595,652.161L529.499,689.408" style="fill:none;stroke:black;stroke-width:5.07px;"/>
                </g>
                <path d="M509.716,501.456L552.678,501.456L474.12,606.711L488.359,530.966L447.535,530.966L524.059,404.593L509.716,501.456Z" style="fill:none;stroke:black;stroke-width:5.07px;"/>
            </g>
        </g>
        <g transform="matrix(1,0,0,1,0,361.718)">
            <rect x="387.96" y="738.947" width="361.718" height="361.718" style="fill:none;stroke:black;stroke-width:0.83px;"/>
        </g>
    </g>
    <g transform="matrix(1,0,0,1,-956.391,291.555)">
        <g id="Soziologie" transform="matrix(0.624914,0,0,0.624914,-17.7142,362.577)">
            <g transform="matrix(3.78005,0,0,3.78005,1652.42,-602.505)">
                <text x="398.089px" y="624.638px" style="font-family:'OpenSansCondensed-Light', 'Open Sans Condensed', sans-serif;font-weight:300;font-stretch:condensed;font-size:15.875px;">Soziologie</text>
            </g>
            <g id="Social" transform="matrix(0.694689,0,0,0.694689,2906.55,1137.4)">
                <g transform="matrix(2.22152,0,0,2.22152,-2181.07,-3754.29)">
                    <g transform="matrix(1,0,0,1,-0.183208,-0.318587)">
                        <circle cx="1235.52" cy="1894.04" r="9.355" style="fill:none;stroke:black;stroke-width:1.73px;stroke-linecap:square;stroke-linejoin:bevel;"/>
                    </g>
                    <path d="M1244.69,1913.84L1244.69,1982.88C1244.26,1987.82 1236.55,1987.72 1236.37,1982.88L1236.37,1942.32C1236.36,1941.39 1234.63,1941.41 1234.6,1942.32L1234.49,1982.95C1234.48,1987.62 1226.31,1987.95 1226.16,1982.97L1225.98,1914.09C1225.92,1913.15 1224.36,1913.26 1224.35,1914.09L1224.35,1941.87C1224.4,1946.73 1215.95,1946.94 1215.9,1941.87L1215.9,1912.66C1216.37,1908.31 1218.84,1905.56 1223.95,1904.93L1246.86,1904.93C1251.4,1905.48 1254.14,1907.92 1254.94,1912.42L1254.94,1942.08C1254.52,1947.05 1246.94,1946.91 1246.61,1942.08L1246.61,1913.82C1246.49,1913.23 1244.83,1913.15 1244.69,1913.84Z" style="fill:none;stroke:black;stroke-width:1.73px;stroke-linecap:square;stroke-linejoin:bevel;"/>
                </g>
                <g transform="matrix(2.22152,0,0,2.22152,-2294.52,-3754.29)">
                    <g transform="matrix(1,0,0,1,-0.183208,-0.318587)">
                        <circle cx="1235.52" cy="1894.04" r="9.355" style="fill:none;stroke:black;stroke-width:1.73px;stroke-linecap:square;stroke-linejoin:bevel;"/>
                    </g>
                    <path d="M1244.69,1913.84L1244.69,1982.88C1244.26,1987.82 1236.55,1987.72 1236.37,1982.88L1236.37,1942.32C1236.36,1941.39 1234.63,1941.41 1234.6,1942.32L1234.49,1982.95C1234.48,1987.62 1226.31,1987.95 1226.16,1982.97L1225.98,1914.09C1225.92,1913.15 1224.36,1913.26 1224.35,1914.09L1224.35,1941.87C1224.4,1946.73 1215.95,1946.94 1215.9,1941.87L1215.9,1912.66C1216.37,1908.31 1218.84,1905.56 1223.95,1904.93L1246.86,1904.93C1251.4,1905.48 1254.14,1907.92 1254.94,1912.42L1254.94,1942.08C1254.52,1947.05 1246.94,1946.91 1246.61,1942.08L1246.61,1913.82C1246.49,1913.23 1244.83,1913.15 1244.69,1913.84Z" style="fill:none;stroke:black;stroke-width:1.73px;stroke-linecap:square;stroke-linejoin:bevel;"/>
                </g>
                <g transform="matrix(0.941422,0,0,1,318.916,-91.3583)">
                    <path d="M407.887,415.18C407.887,402.774 397.188,392.702 384.01,392.702L283.625,392.702C270.447,392.702 259.748,402.774 259.748,415.18L259.748,460.138C259.748,472.544 270.447,482.616 283.625,482.616L307.893,482.616L289.376,521.151L330.114,482.616L384.01,482.616C397.188,482.616 407.887,472.544 407.887,460.138L407.887,415.18Z" style="fill:none;stroke:black;stroke-width:3.95px;"/>
                </g>
                <g transform="matrix(-0.941422,0,0,1,681.084,-69.6251)">
                    <path d="M407.887,415.18C407.887,402.774 397.188,392.702 384.01,392.702L283.625,392.702C270.447,392.702 259.748,402.774 259.748,415.18L259.748,460.138C259.748,472.544 270.447,482.616 283.625,482.616L307.893,482.616L287.175,521.151L330.114,482.616L384.01,482.616C397.188,482.616 407.887,472.544 407.887,460.138L407.887,415.18Z" style="fill:none;stroke:black;stroke-width:3.95px;"/>
                </g>
                <g transform="matrix(1,0,0,1,-5.7148,13.1779)">
                    <text x="316.615px" y="368.034px" style="font-family:'NasalizationRg-Regular', 'Nasalization', sans-serif;font-size:41.331px;fill:none;stroke:black;stroke-width:1.92px;stroke-linecap:butt;stroke-miterlimit:2;">#!?...*</text>
                </g>
                <g transform="matrix(1,0,0,1,257.483,-8.0321)">
                    <text x="316.615px" y="368.034px" style="font-family:'NasalizationRg-Regular', 'Nasalization', sans-serif;font-size:41.331px;fill:none;stroke:black;stroke-width:1.92px;stroke-linecap:butt;stroke-miterlimit:2;">L<tspan x="341.496px 373.61px 406.013px " y="368.034px 368.034px 368.034px ">OVE</tspan></text>
                </g>
            </g>
        </g>
        <g transform="matrix(1,0,0,1,1446.87,361.718)">
            <rect x="387.96" y="738.947" width="361.718" height="361.718" style="fill:none;stroke:black;stroke-width:0.83px;"/>
        </g>
    </g>
    <g transform="matrix(1,0,0,1,-2041.54,1014.99)">
        <g id="mikroorganismen" transform="matrix(0.624914,0,0,0.624914,1067.44,362.577)">
            <g transform="matrix(3.78005,0,0,3.78005,2168.84,-602.505)">
                <text x="394.789px" y="624.638px" style="font-family:'OpenSansCondensed-Light', 'Open Sans Condensed', sans-serif;font-weight:300;font-stretch:condensed;font-size:15.875px;">Mikroorganismen</text>
            </g>
            <g id="virus" transform="matrix(0.601041,0,0,0.601041,3532.3,1170.31)">
                <g>
                    <path d="M418.921,440.373L441.036,456.495" style="fill:none;stroke:black;stroke-width:4.44px;"/>
                    <path d="M474.205,320.591L492.968,422.558" style="fill:none;stroke:black;stroke-width:4.44px;"/>
                    <path d="M560.339,367.966L538.104,426.635" style="fill:none;stroke:black;stroke-width:4.44px;"/>
                    <path d="M643.054,423.859L580.34,461.823" style="fill:none;stroke:black;stroke-width:4.44px;"/>
                    <path d="M337.442,523.843L424.404,514.491" style="fill:none;stroke:black;stroke-width:4.44px;"/>
                    <path d="M534.252,641.656L524.053,588.289" style="fill:none;stroke:black;stroke-width:4.44px;"/>
                    <path d="M434.657,682.823L475.92,583.354" style="fill:none;stroke:black;stroke-width:4.44px;"/>
                    <path d="M384.644,599.082L441.036,556.369" style="fill:none;stroke:black;stroke-width:4.44px;"/>
                    <path d="M684.005,534.83L591.384,519.363" style="fill:none;stroke:black;stroke-width:4.44px;"/>
                    <path d="M624.749,583.775L578.19,552.49" style="fill:none;stroke:black;stroke-width:4.44px;"/>
                </g>
                <g>
                    <g transform="matrix(1.03807,0,0,1.03807,-17.509,-25.5269)">
                        <circle cx="506.452" cy="511.528" r="81.207" style="fill:none;stroke:black;stroke-width:4.27px;"/>
                    </g>
                    <g transform="matrix(0.300179,0,0,0.300179,161.177,372.9)">
                        <circle cx="506.452" cy="511.528" r="81.207" style="fill:none;stroke:black;stroke-width:14.78px;"/>
                    </g>
                    <g transform="matrix(0.282194,0,0,0.282194,257.488,282.525)">
                        <circle cx="506.452" cy="511.528" r="81.207" style="fill:none;stroke:black;stroke-width:15.72px;"/>
                    </g>
                    <g transform="matrix(0.253021,0,0,0.253021,532.488,283.791)">
                        <circle cx="506.452" cy="511.528" r="81.207" style="fill:none;stroke:black;stroke-width:17.54px;"/>
                    </g>
                    <g transform="matrix(0.32431,0,0,0.32431,482.359,432.57)">
                        <circle cx="506.452" cy="511.528" r="81.207" style="fill:none;stroke:black;stroke-width:13.68px;"/>
                    </g>
                    <g transform="matrix(0.215731,0,0,0.215731,428.284,548.514)">
                        <circle cx="506.452" cy="511.528" r="81.207" style="fill:none;stroke:black;stroke-width:20.57px;"/>
                    </g>
                    <g transform="matrix(0.166435,0,0,0.166435,613.047,451.92)">
                        <circle cx="506.452" cy="511.528" r="81.207" style="fill:none;stroke:black;stroke-width:26.66px;"/>
                    </g>
                    <g transform="matrix(0.141954,0,0,0.141954,400.225,236.639)">
                        <circle cx="506.452" cy="511.528" r="81.207" style="fill:none;stroke:black;stroke-width:31.26px;"/>
                    </g>
                    <g transform="matrix(0.141954,0,0,0.141954,303.563,533.428)">
                        <circle cx="506.452" cy="511.528" r="81.207" style="fill:none;stroke:black;stroke-width:31.26px;"/>
                    </g>
                    <g transform="matrix(0.113415,0,0,0.113415,506.164,301.337)">
                        <circle cx="506.452" cy="511.528" r="81.207" style="fill:none;stroke:black;stroke-width:39.12px;"/>
                    </g>
                    <g transform="matrix(0.113415,0,0,0.113415,373.397,634.018)">
                        <circle cx="506.452" cy="511.528" r="81.207" style="fill:none;stroke:black;stroke-width:39.12px;"/>
                    </g>
                </g>
            </g>
        </g>
        <g transform="matrix(1,0,0,1,2893.74,361.718)">
            <rect x="387.96" y="738.947" width="361.718" height="361.718" style="fill:none;stroke:black;stroke-width:0.83px;"/>
        </g>
    </g>
    <g transform="matrix(1,0,0,1,-3488.42,1738.43)">
        <g id="ERRORs" transform="matrix(0.624914,0,0,0.624914,1429.16,0.859417)">
            <g transform="matrix(3.78005,0,0,3.78005,2768.02,-602.505)">
                <text x="396.35px" y="624.638px" style="font-family:'OpenSansCondensed-Light', 'Open Sans Condensed', sans-serif;font-weight:300;font-stretch:condensed;font-size:15.875px;">Fehlfunktionen</text>
            </g>
            <g id="technical_issues" transform="matrix(0.566404,0,0,0.566404,4140.82,1188.42)">
                <g transform="matrix(1,0,0,1,-38.7618,0.100689)">
                    <text x="433.518px" y="547.083px" style="font-family:'NasalizationRg-Regular', 'Nasalization', sans-serif;font-size:69.902px;fill:none;stroke:black;stroke-width:2.94px;stroke-linecap:butt;stroke-miterlimit:2;">Error528</text>
                </g>
                <path d="M253.004,563.712L299.637,481.09C309.093,461.301 318.549,461.608 328.006,481.09L372.12,559.22C384.274,578.649 380.014,588 357.077,585.884L269.8,585.884C250.387,586.926 243.897,580.08 253.004,563.712Z" style="fill:none;stroke:black;stroke-width:4.71px;"/>
                <g>
                    <circle cx="313.702" cy="564.837" r="6.732" style="fill:none;stroke:black;stroke-width:4.71px;"/>
                    <path d="M309.1,544.297L306.35,500.952C305.594,490.604 322.018,491.442 321.036,500.952L318.261,544.351C316.871,552.866 309.884,551.853 309.1,544.297Z" style="fill:none;stroke:black;stroke-width:4.71px;"/>
                </g>
                <g transform="matrix(1.00342,0,0,1.00294,-2.67407,-1.93603)">
                    <path d="M781.858,347.119C781.858,342.423 778.048,338.611 773.355,338.611L184.662,338.611C179.969,338.611 176.159,342.423 176.159,347.119L176.159,649.905C176.159,654.6 179.969,658.412 184.662,658.412L773.355,658.412C778.048,658.412 781.858,654.6 781.858,649.905L781.858,347.119Z" style="fill:none;stroke:black;stroke-width:4.69px;"/>
                </g>
                <path d="M781.858,395.703L174.087,395.703" style="fill:none;stroke:black;stroke-width:4.71px;"/>
                <g>
                    <circle cx="287.971" cy="367.839" r="9.819" style="fill:none;stroke:black;stroke-width:4.71px;"/>
                    <g transform="matrix(1,0,0,1,-31.5084,0)">
                        <circle cx="287.971" cy="367.839" r="9.819" style="fill:none;stroke:black;stroke-width:4.71px;"/>
                    </g>
                    <g transform="matrix(1,0,0,1,-64.4051,0)">
                        <circle cx="287.971" cy="367.839" r="9.819" style="fill:none;stroke:black;stroke-width:4.71px;"/>
                    </g>
                </g>
            </g>
        </g>
        <g transform="matrix(1,0,0,1,3617.18,0)">
            <rect x="387.96" y="738.947" width="361.718" height="361.718" style="fill:none;stroke:black;stroke-width:0.83px;"/>
        </g>
    </g>
    <g transform="matrix(1,0,0,1,-2041.54,653.272)">
        <g id="Transport" transform="matrix(0.624914,0,0,0.624914,-17.7142,362.577)">
            <g transform="matrix(3.78005,0,0,3.78005,3388.9,-602.505)">
                <text x="399.171px" y="624.638px" style="font-family:'OpenSansCondensed-Light', 'Open Sans Condensed', sans-serif;font-weight:300;font-stretch:condensed;font-size:15.875px;">Transport</text>
            </g>
            <g id="transportation" transform="matrix(0.595974,0,0,0.595974,4706.53,1159.29)">
                <path d="M464.017,650.384L612.712,502.706C645.307,462.56 651.082,415.049 636.541,361.957C570.195,346.281 522.964,356.956 492.146,390.261L348.135,534.945L464.017,650.384Z" style="fill:none;stroke:black;stroke-width:4.48px;"/>
                <g transform="matrix(1.69398,0,0,1.69398,-393.85,-303.213)">
                    <circle cx="565.945" cy="434.891" r="26.123" style="fill:none;stroke:black;stroke-width:2.64px;"/>
                </g>
                <g transform="matrix(1,0,0,1,-1.0968,-1.40854)">
                    <circle cx="565.945" cy="434.891" r="26.123" style="fill:none;stroke:black;stroke-width:4.48px;"/>
                </g>
                <path d="M395.412,582.041L486.057,491.615L505.727,511.351L414.862,601.417" style="fill:none;stroke:black;stroke-width:4.48px;"/>
                <path d="M482.825,631.704L503.192,689.576L548.195,645.081L568.324,546.79L482.825,631.704Z" style="fill:none;stroke:black;stroke-width:4.48px;"/>
                <path d="M367.526,515.463L308.471,496.344L352.803,450.97L452.643,429.948L367.526,515.463Z" style="fill:none;stroke:black;stroke-width:4.48px;"/>
                <path d="M365.855,552.597L336.746,597.538L369.323,630.353L401.037,661.968L445.911,632.347L365.855,552.597Z" style="fill:none;stroke:black;stroke-width:4.48px;"/>
                <path d="M496.103,502.623L533.508,464.71" style="fill:none;stroke:black;stroke-width:4.48px;"/>
                <path d="M595.839,401.908L636.541,361.957" style="fill:none;stroke:black;stroke-width:4.48px;"/>
                <path d="M369.323,630.353L405.417,592.009" style="fill:none;stroke:black;stroke-width:4.48px;"/>
            </g>
        </g>
        <g transform="matrix(1,0,0,1,2532.02,361.718)">
            <rect x="387.96" y="738.947" width="361.718" height="361.718" style="fill:none;stroke:black;stroke-width:0.83px;"/>
        </g>
    </g>
    <g transform="matrix(1,0,0,1,-2403.26,1014.99)">
        <g id="Atmosphere" transform="matrix(0.392677,0,0,0.392677,2901.74,726.112)">
            <g>
                <g transform="matrix(1,0,0,1,0,-6.73603)">
                    <circle cx="500" cy="500" r="144.568" style="fill:none;stroke:black;stroke-width:2.12px;"/>
                </g>
                <path d="M552.303,362.049L547.594,367.774L544.471,378.949L527.096,384.972L515.855,391.303L521.138,403.207L520.14,413.74L512.404,415.015L498.959,419.152L486.157,420.307L486.106,428.674L489.508,431.219L490.514,436.106L490.109,441.431L487.673,447.16L462.864,457.976L454.891,470.22L450.306,485.33L449.203,491.837L448.814,498.937L454.197,508.564L472.862,511.186L484.016,511.186L497.204,516.571L501.286,536.045L498.624,565.486L498.945,585.918L503.022,593.721L512.578,599.05L530.283,597.477L539.604,584.803L544.622,563.366L552.421,542.083L555.842,523.007L558.122,505.461L562.27,493.452L561.877,488.457L573.428,483.75L597.558,489.387L611.909,497.69L618.432,493.264L630.681,500L641.563,522.7" style="fill:none;stroke:black;stroke-width:2.12px;"/>
                <path d="M430.14,368.98L437.516,372.319L443.464,374.025L442.909,379.753L437.105,384.135L437.103,391.224L428.754,395.879L428.038,407.232L425.516,411.341L419.856,414.255L410.172,424.91L398.785,430.142L390.258,433.758L383.235,439.293L379.855,448.177L378.283,463.832L378.738,471.144L373.642,473.167L369.072,465.34L372.146,455.365L372.291,447.826L363.894,451.975L360.164,461.772L358.365,478.343L360.396,490.107L369.455,489.431L367.867,496.458L365.827,500.878L362.207,505.545L360.88,513.89L362.27,522.367L365.071,528.873L372.626,528.297L380.906,524.256L393.839,524.489L408.03,527.419L414.227,539.806L417.223,547.505L420.061,565.875L416.784,573.183L416.417,585.649L415.737,593.472L416.276,598.486L421.565,604.709L428.811,612.528L437.715,620.219" style="fill:none;stroke:black;stroke-width:2.12px;"/>
                <path d="M491.84,442.028L501.442,440.057L513.421,439.483L516.401,427.583L524.102,422.626L535.096,421.466L544.933,419.381L553.117,430.064L555.451,438.374L557.366,445.849L564.247,448.949L565.779,440.426L561.038,425.788L566.646,418.033L575.44,417.367L583.509,425.441L592.598,438.074L600.462,451.035L601.96,462.834L591.604,465.606L577.104,474.579L566.275,469.118L545.773,462.949L535.782,460.942L528.277,453.143L509.133,453.006L497.57,451.504L491.84,442.028ZM495.212,443.502L501.708,442.169C501.708,442.169 513.523,441.602 513.523,441.602C514.458,441.558 515.253,440.906 515.48,439.998L518.256,428.913C518.256,428.913 524.827,424.684 524.827,424.684C524.827,424.684 535.319,423.576 535.319,423.576C535.392,423.568 535.464,423.557 535.536,423.542L544.063,421.735C544.063,421.735 551.184,431.031 551.184,431.031C551.184,431.031 553.401,438.924 553.401,438.924C553.401,438.924 555.31,446.376 555.31,446.376C555.47,447.001 555.906,447.519 556.494,447.784L563.375,450.884C563.971,451.152 564.658,451.131 565.236,450.826C565.814,450.522 566.22,449.968 566.336,449.324L567.867,440.801C567.929,440.458 567.905,440.104 567.798,439.772L563.388,426.159C563.388,426.159 567.789,420.075 567.789,420.075C567.789,420.075 574.629,419.557 574.629,419.557C574.629,419.557 581.886,426.82 581.886,426.82C581.886,426.82 590.827,439.246 590.827,439.246C590.827,439.246 598.414,451.75 598.414,451.75C598.414,451.75 599.621,461.263 599.621,461.263C599.621,461.263 591.056,463.556 591.056,463.556C590.855,463.609 590.664,463.692 590.488,463.801L576.998,472.149C576.998,472.149 567.231,467.223 567.231,467.223C567.121,467.167 567.005,467.121 566.887,467.086L546.385,460.917C546.321,460.897 546.256,460.881 546.191,460.868L536.851,458.992C536.851,458.992 529.806,451.672 529.806,451.672C529.409,451.26 528.864,451.025 528.292,451.021L509.278,450.885C509.278,450.885 498.857,449.531 498.857,449.531L495.212,443.502Z"/>
                <path d="M557.852,363.906L554.262,370.321L554.262,374.557L561.195,375.63L569.714,373.57L575.47,372.144" style="fill:none;stroke:black;stroke-width:2.12px;"/>
                <path d="M528.341,358.296L528.859,365.137L528.59,373.263L517.508,374.703L518.573,364.74L521.505,355.607L528.341,358.296ZM526.325,359.783L526.734,365.182C526.734,365.182 526.529,371.391 526.529,371.391C526.529,371.391 519.904,372.251 519.904,372.251C519.904,372.252 520.66,365.182 520.66,365.182C520.66,365.182 522.834,358.41 522.834,358.41L526.325,359.783Z"/>
                <path d="M509.773,364.275L501.021,373.369L506.622,376.48L511.8,372.9L509.773,364.275ZM508.599,368.556L509.403,371.977C509.403,371.977 506.499,373.984 506.499,373.984C506.499,373.984 504.463,372.853 504.463,372.853L508.599,368.556Z"/>
            </g>
            <g transform="matrix(1.25809,0,0,1.25809,-129.047,-135.783)">
                <circle cx="500" cy="500" r="144.568" style="fill:none;stroke:black;stroke-width:8.43px;stroke-dasharray:16.87,33.74,0,0;"/>
            </g>
            <g transform="matrix(6.01564,0,0,6.01564,-2048.62,-2805.78)">
                <text x="392.78px" y="624.638px" style="font-family:'OpenSansCondensed-Light', 'Open Sans Condensed', sans-serif;font-weight:300;font-stretch:condensed;font-size:15.875px;">Atmosphäre</text>
            </g>
        </g>
        <g transform="matrix(1,0,0,1,2532.02,0)">
            <rect x="387.96" y="738.947" width="361.718" height="361.718" style="fill:none;stroke:black;stroke-width:0.83px;"/>
        </g>
    </g>
    <g transform="matrix(1,0,0,1,-3488.42,1738.43)">
        <g id="plants" transform="matrix(0.312457,0,0,0.312457,4753.13,763.762)">
            <g>
                <path d="M528.671,445.521C530.146,359.212 588.993,334.596 688.948,369.881C673.459,439.304 627.866,490.217 551.766,465.837" style="fill:none;stroke:black;stroke-width:5.33px;"/>
                <path d="M498.956,518.84C514.359,443.795 461.626,388.921 374.551,344.212" style="fill:none;stroke:black;stroke-width:5.33px;"/>
                <rect x="374.551" y="518.84" width="250.957" height="52.384" style="fill:none;stroke:black;stroke-width:5.33px;"/>
                <path d="M609.221,571.223L581.702,698.38L418.466,698.38L391.134,571.223" style="fill:none;stroke:black;stroke-width:5.33px;"/>
                <path d="M500,518.84C491.648,466.885 533.386,425.615 625.508,395.091" style="fill:none;stroke:black;stroke-width:5.33px;"/>
                <path d="M480.644,427.689C517.963,326.465 441.956,272.78 311.522,314.877C325.9,399.024 376.79,463.153 449.747,441.16" style="fill:none;stroke:black;stroke-width:5.33px;"/>
            </g>
            <g transform="matrix(7.56009,0,0,7.56009,-2702.71,-3646.63)">
                <text x="397.93px" y="624.638px" style="font-family:'OpenSansCondensed-Light', 'Open Sans Condensed', sans-serif;font-weight:300;font-stretch:condensed;font-size:15.875px;">Biosystem</text>
            </g>
        </g>
        <g transform="matrix(1,0,0,1,4340.61,0)">
            <rect x="387.96" y="738.947" width="361.718" height="361.718" style="fill:none;stroke:black;stroke-width:0.83px;"/>
        </g>
    </g>
    <g transform="matrix(1,0,0,1,-2403.26,1376.71)">
        <g id="medical" transform="matrix(0.245456,0,0,0.245456,4061.89,1154.11)">
            <g transform="matrix(1.21364,0,0,1.21364,-106.821,-110.655)">
                <g transform="matrix(0.939355,0,0,0.92746,30.3224,39.9921)">
                    <path d="M710.934,439.452C710.934,414.153 690.655,393.613 665.676,393.613L334.324,393.613C309.345,393.613 289.066,414.153 289.066,439.452L289.066,663.177C289.066,688.476 309.345,709.015 334.324,709.015L665.676,709.015C690.655,709.015 710.934,688.476 710.934,663.177L710.934,439.452Z" style="fill:none;stroke:black;stroke-width:5.99px;"/>
                </g>
                <g transform="matrix(1,0,0,1,-9.09495e-13,38.491)">
                    <path d="M407.946,366.562C403.298,303.632 423.4,300.568 474.588,299.92L529.939,299.92C584.178,298.419 594.271,313.601 592.576,365.833" style="fill:none;stroke:black;stroke-width:5.59px;"/>
                </g>
                <path d="M526.229,525.176L578.308,525.176L578.308,576.952L526.229,576.952L526.229,629.442L474.098,629.442L474.098,576.952L420.865,576.952L420.865,525.176L474.098,525.176L474.098,472.405L526.229,472.405L526.229,525.176ZM520.634,525.176C520.634,528.266 523.139,530.771 526.229,530.771L572.713,530.771C572.713,530.771 572.713,571.358 572.713,571.358C572.713,571.358 526.229,571.358 526.229,571.358C523.139,571.358 520.634,573.862 520.634,576.952L520.634,623.847C520.634,623.847 479.692,623.847 479.692,623.847C479.692,623.847 479.692,576.952 479.692,576.952C479.692,573.862 477.187,571.358 474.098,571.358L426.46,571.358C426.46,571.358 426.46,530.771 426.46,530.771C426.46,530.771 474.098,530.771 474.098,530.771C477.187,530.771 479.692,528.266 479.692,525.176L479.692,478C479.692,478 520.634,478 520.634,478C520.634,478 520.634,525.176 520.634,525.176Z"/>
            </g>
            <g transform="matrix(9.62373,0,0,9.62373,-3701.96,-4758.66)">
                <text x="416.777px" y="624.638px" style="font-family:'OpenSansCondensed-Light', 'Open Sans Condensed', sans-serif;font-weight:300;font-stretch:condensed;font-size:15.875px;">Medizin</text>
            </g>
        </g>
        <g transform="matrix(1,0,0,1,3617.18,361.718)">
            <rect x="387.96" y="738.947" width="361.718" height="361.718" style="fill:none;stroke:black;stroke-width:0.83px;"/>
        </g>
    </g>
    <g transform="matrix(1,0,0,1,-3488.42,1014.99)">
        <g id="work" transform="matrix(0.409101,0,0,0.409101,4343.83,1091.26)">
            <path d="M438.12,412.361L441.916,415.428C445.951,419.588 445.863,423.752 442.815,427.919L436.016,436.253L445.595,444.276C449.715,447.725 450.353,451.797 446.789,456.62L417.317,492.889C413.78,496.078 410.039,496.432 406.058,493.444L341.397,440.559C337.814,437.319 337.943,433.815 340.613,430.129L372.33,391.764C375.241,388.828 378.293,388.517 381.513,391.376L394.075,401.541L401.643,391.993C404.303,388.929 407.764,388.477 412.107,390.893L415.882,393.27" style="fill:none;stroke:black;stroke-width:4.58px;"/>
            <path d="M430.756,417.803L435.673,421.934L428.935,430.369L400.879,407.147L407.307,399.242L409.895,400.568" style="fill:none;stroke:black;stroke-width:4.58px;"/>
            <path d="M522.464,362.277C510.31,340.609 489.245,332.856 465.022,330.036L451.327,317.555L474.884,310.237C503.2,323.353 528.476,338.031 529.874,364.976L522.464,362.277ZM523.293,354.941C510.349,336.112 490.166,328.564 467.024,325.661C467.026,325.662 460.329,319.558 460.329,319.558C460.329,319.558 474.554,315.139 474.554,315.139C487.71,321.286 500.113,327.791 509.475,335.888C515.799,341.356 520.697,347.556 523.293,354.941Z"/>
            <path d="M561.382,409.885L582.737,418.729C590.776,422.313 598.343,422.419 605.253,417.681L653.092,374.828C667.756,360.126 646.958,340.819 631.883,353.397L593.801,384.574L588.236,386.237L477.849,346.024C470.957,343.315 465.162,343.108 461.338,347.387L412.886,396.294C400.392,408.701 420.326,427.764 435.227,414.919L473.153,381.387C475.025,380.195 476.901,380.124 478.778,380.563L500.771,389.054C493.781,416.673 472.479,460.776 442.042,515.401C438.363,520.096 434.457,520.698 430.374,518.141L383.977,494.284C364.963,485.694 348.896,513.851 369.249,525.606L432.903,560.209C443.136,566.066 451.603,565.099 458.375,557.584L494.207,506.617L531.82,565.321L531.054,614.371C531.642,637.98 565.063,638.567 564.693,614.489L564.693,570.109C564.279,555.143 560.166,541.175 551.992,528.301L526.257,488.288C539.062,462.147 550.536,436.014 561.382,409.885ZM563.136,405.651C560.798,404.683 558.119,405.792 557.149,408.128C546.339,434.171 534.904,460.217 522.141,486.272C521.435,487.712 521.534,489.418 522.402,490.767L548.128,530.766C555.826,542.894 559.704,556.051 560.109,570.145C560.11,570.176 560.11,614.489 560.11,614.489C560.11,614.512 560.11,614.536 560.111,614.559C560.219,621.599 556.592,625.897 551.913,627.244C544.822,629.287 535.974,624.803 535.64,614.392C535.639,614.343 536.403,565.392 536.403,565.392C536.417,564.491 536.165,563.607 535.679,562.848L498.066,504.144C497.243,502.858 495.832,502.067 494.306,502.035C492.779,502.002 491.336,502.732 490.458,503.981L454.793,554.71C452.301,557.41 449.558,559.025 446.455,559.353C443.035,559.715 439.304,558.592 435.179,556.232C435.15,556.215 435.121,556.199 435.092,556.183L371.495,521.611C366.98,518.988 364.762,515.365 364.425,511.622C363.649,502.998 372.231,494.108 381.975,498.409C381.993,498.417 428.119,522.135 428.119,522.135C431.24,524.042 434.335,524.612 437.321,523.971C440.134,523.368 442.991,521.62 445.649,518.227C445.797,518.039 445.929,517.84 446.045,517.632C476.743,462.541 498.164,418.033 505.214,390.179C505.783,387.931 504.584,385.613 502.422,384.778L480.429,376.287C480.231,376.211 480.028,376.148 479.821,376.1C476.769,375.387 473.733,375.584 470.691,377.521C470.489,377.65 470.297,377.795 470.117,377.954L432.218,411.462C425.818,416.962 418.113,414.389 414.913,409.426C413.025,406.498 412.952,402.688 416.116,399.546L464.594,350.613C464.649,350.557 464.703,350.5 464.755,350.441C467.391,347.492 471.423,348.423 476.173,350.289C476.209,350.303 476.245,350.317 476.281,350.33L586.667,390.543C587.593,390.881 588.603,390.911 589.547,390.628L595.113,388.966C595.694,388.792 596.235,388.505 596.704,388.121L634.819,356.916C640.234,352.398 646.677,353.514 650.449,357.172C654.041,360.656 654.886,366.448 649.949,371.487C649.931,371.506 602.429,414.057 602.429,414.057C596.948,417.69 590.955,417.375 584.604,414.543C584.566,414.526 584.529,414.51 584.491,414.494L563.136,405.651Z"/>
            <g transform="matrix(1,0,0,1,4.98954,2.95692)">
                <path d="M548.594,294.882C565.769,294.882 579.713,308.826 579.713,326.001C579.713,343.176 565.769,357.12 548.594,357.12C531.419,357.12 517.474,343.176 517.474,326.001C517.474,308.826 531.419,294.882 548.594,294.882ZM548.594,299.465C563.24,299.465 575.13,311.355 575.13,326.001C575.13,340.647 563.24,352.537 548.594,352.537C533.948,352.537 522.058,340.647 522.058,326.001C522.058,311.355 533.948,299.465 548.594,299.465Z"/>
            </g>
            <g transform="matrix(5.77413,0,0,5.77413,-2026.13,-2701.52)">
                <text x="422.086px" y="624.638px" style="font-family:'OpenSansCondensed-Light', 'Open Sans Condensed', sans-serif;font-weight:300;font-stretch:condensed;font-size:15.875px;">Arbeit</text>
            </g>
        </g>
        <g transform="matrix(1,0,0,1,3978.9,361.718)">
            <rect x="387.96" y="738.947" width="361.718" height="361.718" style="fill:none;stroke:black;stroke-width:0.83px;"/>
        </g>
    </g>
    <g transform="matrix(1,0,0,1,-3488.42,1738.43)">
        <g id="education" transform="matrix(0.400952,0,0,0.400952,4347.5,717.512)">
            <g>
                <path d="M658.887,484.12L674.404,478.28L674.404,533.842C691.351,568.873 689.702,579.51 666.742,595.793C648.383,582.439 637.665,573.443 658.807,535.621L658.887,484.12ZM663.039,486.999L670.248,484.286C670.248,484.286 670.248,533.842 670.248,533.842C670.248,534.469 670.39,535.088 670.663,535.653C675.583,545.823 678.911,553.859 680.52,560.565C681.949,566.518 681.992,571.283 680.357,575.554C678.286,580.962 673.711,585.499 666.75,590.656C659.585,585.415 653.869,580.823 651.975,573.8C649.821,565.812 652.668,555.122 662.435,537.649C662.78,537.031 662.962,536.336 662.963,535.628L663.039,486.999Z"/>
                <path d="M379.693,496.567L379.693,575.084C420.032,637.397 577.309,636.48 619.542,575.084L619.542,496.567L526.028,527.698C508.184,533.308 490.644,533.308 473.407,527.698L379.693,496.567ZM383.849,502.328L472.12,531.651C490.187,537.531 508.572,537.543 527.274,531.664C527.297,531.657 527.319,531.65 527.341,531.642L615.385,502.332C615.385,502.332 615.385,573.769 615.385,573.769C594.486,602.859 546.5,617.209 498.898,617.318C451.328,617.428 403.807,603.341 383.85,573.835C383.849,573.833 383.849,502.328 383.849,502.328L383.849,502.328Z"/>
                <path d="M524.756,511.956L684.669,459.18C699.728,454.094 701.524,445.286 684.364,440.436L519.832,390.503C505.461,386.451 492.249,386.747 479.996,390.646L320.755,438.092C298.059,444.002 297.047,452.563 312.514,458.113L477.332,513.686C494.442,518.598 510.25,518.021 524.756,511.956ZM523.453,508.009C523.351,508.042 523.251,508.08 523.152,508.121C509.524,513.82 494.673,514.315 478.603,509.726C478.569,509.716 313.885,454.189 313.885,454.189C311.282,453.252 309.215,452.247 307.754,451.147C307.01,450.586 306.393,450.138 306.268,449.532C306.23,449.347 306.421,449.217 306.563,449.03C306.984,448.473 307.608,447.943 308.4,447.398C311.17,445.491 315.612,443.727 321.803,442.115C321.849,442.102 321.896,442.089 321.942,442.076L481.183,394.63C481.207,394.622 481.232,394.615 481.256,394.607C492.764,390.945 505.173,390.695 518.668,394.493C518.668,394.493 683.156,444.414 683.156,444.414C683.182,444.422 683.207,444.429 683.233,444.436C686.849,445.458 689.498,446.62 691.192,447.958C691.884,448.504 692.48,448.902 692.448,449.495C692.407,450.252 691.675,450.833 690.788,451.544C689.071,452.92 686.552,454.156 683.35,455.238C683.35,455.238 523.453,508.009 523.453,508.009Z"/>
                <g transform="matrix(1,0,0,1,0,4.94419)">
                    <path d="M302.155,450.132C302.579,453.039 306.153,455.83 312.514,458.113L477.332,513.686C494.442,518.598 510.25,518.021 524.756,511.956L684.669,459.18C691.898,456.739 696.071,453.439 696.557,450.132" style="fill:none;stroke:black;stroke-width:4.16px;"/>
                </g>
                <g transform="matrix(1.55858,0,0,1.55858,-11372.6,-885.232)">
                    <path d="M7490.66,856.03L7490.66,859.956" style="fill:none;stroke:black;stroke-width:2.67px;"/>
                </g>
                <g transform="matrix(1.55858,0,0,1.55858,-11372.6,-885.232)">
                    <path d="M7743.71,859.956L7743.71,855.951" style="fill:none;stroke:black;stroke-width:2.67px;"/>
                </g>
            </g>
            <g transform="matrix(5.89149,0,0,5.89149,-1996.67,-2726.43)">
                <text x="404.089px" y="624.638px" style="font-family:'OpenSansCondensed-Light', 'Open Sans Condensed', sans-serif;font-weight:300;font-stretch:condensed;font-size:15.875px;">Bildung</text>
            </g>
        </g>
        <g transform="matrix(1,0,0,1,3978.9,0)">
            <rect x="387.96" y="738.947" width="361.718" height="361.718" style="fill:none;stroke:black;stroke-width:0.83px;"/>
        </g>
    </g>
    <g transform="matrix(1,0,0,1,-2041.54,1014.99)">
        <g id="time" transform="matrix(0.400952,0,0,0.400952,2536.15,1079.23)">
            <g transform="matrix(5.89149,0,0,5.89149,-1996.67,-2726.43)">
                <text x="414.829px" y="624.638px" style="font-family:'OpenSansCondensed-Light', 'Open Sans Condensed', sans-serif;font-weight:300;font-stretch:condensed;font-size:15.875px;">Zeit</text>
            </g>
            <g transform="matrix(0.640526,0,0,0.640526,179.734,178.866)">
                <g transform="matrix(1,0,0,1,-1,-4)">
                    <path d="M500,311.343C604.122,311.343 688.657,395.878 688.657,500C688.657,604.122 604.122,688.657 500,688.657C395.878,688.657 311.343,604.122 311.343,500C311.343,395.878 395.878,311.343 500,311.343ZM500,318.644C600.093,318.644 681.356,399.907 681.356,500C681.356,600.093 600.093,681.356 500,681.356C399.907,681.356 318.644,600.093 318.644,500C318.644,399.907 399.907,318.644 500,318.644Z"/>
                </g>
                <path d="M499,496L499,375.219" style="fill:none;stroke:black;stroke-width:7.3px;"/>
                <path d="M499,496L553.021,524.317" style="fill:none;stroke:black;stroke-width:7.3px;"/>
                <g>
                    <g>
                        <g transform="matrix(1.74534,0,0,1,-512.539,-2.27374e-13)">
                            <path d="M687.657,496L676.733,496" style="fill:none;stroke:black;stroke-width:5.13px;stroke-linecap:butt;"/>
                        </g>
                        <g transform="matrix(1.74534,0,0,1,-231.312,-2.27374e-13)">
                            <path d="M310.343,496L321.267,496" style="fill:none;stroke:black;stroke-width:5.13px;stroke-linecap:butt;"/>
                        </g>
                    </g>
                    <g transform="matrix(-1.83697e-16,1,-1,-1.83697e-16,995,-3)">
                        <g transform="matrix(1.82108,-1.87901e-17,-1.87901e-17,1,-564.619,0)">
                            <path d="M687.657,496L676.733,496" style="fill:none;stroke:black;stroke-width:4.97px;stroke-linecap:butt;"/>
                        </g>
                        <g transform="matrix(1.23619,-5.40508e-18,-5.40508e-18,1,-73.2991,0)">
                            <path d="M310.343,496L321.267,496" style="fill:none;stroke:black;stroke-width:6.49px;stroke-linecap:butt;"/>
                        </g>
                    </g>
                </g>
                <g transform="matrix(0.707107,-0.707107,0.707107,0.707107,-204.571,498.121)">
                    <g>
                        <g transform="matrix(1.74823,0,1.11022e-16,1,-514.527,1.81899e-12)">
                            <path d="M687.657,496L676.733,496" style="fill:none;stroke:black;stroke-width:5.13px;stroke-linecap:butt;"/>
                        </g>
                        <g transform="matrix(1.74823,-1.66533e-16,1.11022e-16,1,-232.209,-3.63798e-12)">
                            <path d="M310.343,496L321.267,496" style="fill:none;stroke:black;stroke-width:5.13px;stroke-linecap:butt;"/>
                        </g>
                    </g>
                    <g transform="matrix(-1.83697e-16,1,-1,-1.83697e-16,995,-3)">
                        <g transform="matrix(1.74823,-1.11022e-16,-2.22045e-16,1,-514.527,-7.27596e-12)">
                            <path d="M687.657,496L676.733,496" style="fill:none;stroke:black;stroke-width:5.13px;stroke-linecap:butt;"/>
                        </g>
                        <g transform="matrix(1.74823,0,0,1,-232.209,-3.63798e-12)">
                            <path d="M310.343,496L321.267,496" style="fill:none;stroke:black;stroke-width:5.13px;stroke-linecap:butt;"/>
                        </g>
                    </g>
                </g>
            </g>
        </g>
        <g transform="matrix(1,0,0,1,2170.31,361.718)">
            <rect x="387.96" y="738.947" width="361.718" height="361.718" style="fill:none;stroke:black;stroke-width:0.83px;"/>
        </g>
    </g>
    <g id="HEADLINE" transform="matrix(9.03897e-17,-1.47618,1.47618,9.03897e-17,-46.9209,2489.97)">
        <text x="1446.49px" y="131.188px" style="font-family:'NasalizationRg-Regular', 'Nasalization', sans-serif;font-size:28.226px;">F<tspan x="1463.82px 1485.95px 1505.94px 1521.49px 1544.52px " y="131.188px 131.188px 131.188px 131.188px 131.188px ">AKTOR</tspan>EN</text>
    </g>
</svg>
