<?xml version="1.0" encoding="UTF-8" standalone="no"?>
<!DOCTYPE svg PUBLIC "-//W3C//DTD SVG 1.1//EN" "http://www.w3.org/Graphics/SVG/1.1/DTD/svg11.dtd">
<svg width="100%" height="100%" viewBox="0 0 500 500" version="1.1" xmlns="http://www.w3.org/2000/svg" xmlns:xlink="http://www.w3.org/1999/xlink" xml:space="preserve" xmlns:serif="http://www.serif.com/" style="fill-rule:evenodd;clip-rule:evenodd;stroke-linecap:round;stroke-linejoin:round;stroke-miterlimit:1.5;">
    <g transform="matrix(0.884972,0,0,0.884972,-192.046,20.6987)">
        <g id="color">
            <g transform="matrix(1,0,0,0.999587,0,0.0165082)">
                <path d="M600,480.195L600,160L720,40L720,360.132L600,480.195Z" style="fill:rgb(204,204,204);"/>
            </g>
            <g transform="matrix(1,0,0,0.99632,0,0.588864)">
                <rect x="280" y="160" width="320" height="321.182" style="fill:rgb(230,230,230);"/>
            </g>
            <path d="M280,160L400,40L720,40L600,160L280,160Z" style="fill:rgb(242,242,242);"/>
        </g>
        <path d="M720,360L700,360" style="fill:none;stroke:white;stroke-width:4.71px;"/>
        <path d="M400,360L386,374" style="fill:none;stroke:white;stroke-width:4.71px;"/>
        <g id="hidden">
            <g transform="matrix(1.57143,0,0,1.57143,-34.2857,-148.571)">
                <path d="M276.364,120L276.364,323.636L200,400" style="fill:none;stroke:white;stroke-width:1.65px;stroke-dasharray:3.3,4.94,0,0;"/>
            </g>
            <g transform="matrix(1.57143,0,0,1.57143,-34.2857,-148.571)">
                <path d="M276.364,323.636L480,323.636" style="fill:none;stroke:white;stroke-width:1.65px;stroke-dasharray:3.3,4.94,0,0;"/>
            </g>
        </g>
        <g id="solid">
            <path d="M280,160L600,160L600,480" style="fill:none;stroke:black;stroke-width:1.41px;"/>
            <path d="M600,160L720,40" style="fill:none;stroke:black;stroke-width:1.41px;"/>
        </g>
        <path id="outline" d="M280,160L400,40L720,40L720,360L600,480L280,480L280,160Z" style="fill:none;stroke:black;stroke-width:1.41px;"/>
        <g>
            <g transform="matrix(0.696537,0,0,0.696537,84.9696,48.5541)">
                <circle cx="280" cy="160" r="7.198" style="fill:rgb(0,0,255);"/>
            </g>
            <g transform="matrix(0.696537,0,0,0.696537,404.97,48.5541)">
                <circle cx="280" cy="160" r="7.198" style="fill:rgb(0,0,255);"/>
            </g>
            <g transform="matrix(0.696537,0,0,0.696537,524.97,-71.4459)">
                <circle cx="280" cy="160" r="7.198" style="fill:rgb(0,0,255);"/>
            </g>
            <g transform="matrix(0.696537,0,0,0.696537,204.97,-71.4459)">
                <circle cx="280" cy="160" r="7.198" style="fill:rgb(0,0,255);"/>
            </g>
            <g transform="matrix(0.696537,0,0,0.696537,524.97,248.554)">
                <circle cx="280" cy="160" r="7.198" style="fill:rgb(0,0,255);"/>
            </g>
            <g transform="matrix(0.696537,0,0,0.696537,404.956,368.568)">
                <circle cx="280" cy="160" r="7.198" style="fill:rgb(0,0,255);"/>
            </g>
            <g transform="matrix(0.696537,0,0,0.696537,84.9832,368.568)">
                <circle cx="280" cy="160" r="7.198" style="fill:rgb(0,0,255);"/>
            </g>
            <g transform="matrix(0.696537,0,0,0.696537,204.97,248.554)">
                <circle cx="280" cy="160" r="7.198" style="fill:white;"/>
            </g>
        </g>
        <g id="vertices">
            <g transform="matrix(1,0,0,1,507.628,381.556)">
                <g transform="matrix(12.5,0,0,12.5,100,110)">
                    <path d="M0.03,-0.547L0.125,-0.547L0.296,-0.088L0.467,-0.547L0.562,-0.547L0.357,-0L0.235,-0L0.03,-0.547Z" style="fill:rgb(0,0,255);fill-rule:nonzero;"/>
                </g>
                <g transform="matrix(12.5,0,0,12.5,107.397,110)">
                    <path d="M0.124,-0.083L0.285,-0.083L0.285,-0.639L0.11,-0.604L0.11,-0.694L0.284,-0.729L0.383,-0.729L0.383,-0.083L0.544,-0.083L0.544,-0L0.124,-0L0.124,-0.083Z" style="fill:rgb(0,0,255);fill-rule:nonzero;"/>
                </g>
            </g>
            <g transform="matrix(1,0,0,1,155.803,366.89)">
                <g transform="matrix(12.5,0,0,12.5,100,110)">
                    <path d="M0.03,-0.547L0.125,-0.547L0.296,-0.088L0.467,-0.547L0.562,-0.547L0.357,-0L0.235,-0L0.03,-0.547Z" style="fill:rgb(0,0,255);fill-rule:nonzero;"/>
                </g>
                <g transform="matrix(12.5,0,0,12.5,107.397,110)">
                    <path d="M0.318,-0.664C0.267,-0.664 0.229,-0.639 0.203,-0.589C0.178,-0.539 0.165,-0.464 0.165,-0.364C0.165,-0.264 0.178,-0.189 0.203,-0.139C0.229,-0.089 0.267,-0.064 0.318,-0.064C0.369,-0.064 0.407,-0.089 0.433,-0.139C0.458,-0.189 0.471,-0.264 0.471,-0.364C0.471,-0.464 0.458,-0.539 0.433,-0.589C0.407,-0.639 0.369,-0.664 0.318,-0.664ZM0.318,-0.742C0.4,-0.742 0.462,-0.71 0.505,-0.645C0.548,-0.581 0.57,-0.487 0.57,-0.364C0.57,-0.241 0.548,-0.147 0.505,-0.083C0.462,-0.018 0.4,0.014 0.318,0.014C0.236,0.014 0.174,-0.018 0.131,-0.083C0.087,-0.147 0.066,-0.241 0.066,-0.364C0.066,-0.487 0.087,-0.581 0.131,-0.645C0.174,-0.71 0.236,-0.742 0.318,-0.742Z" style="fill:rgb(0,0,255);fill-rule:nonzero;"/>
                </g>
            </g>
            <g transform="matrix(1,0,0,1,507.628,61.2045)">
                <g transform="matrix(12.5,0,0,12.5,100,110)">
                    <path d="M0.03,-0.547L0.125,-0.547L0.296,-0.088L0.467,-0.547L0.562,-0.547L0.357,-0L0.235,-0L0.03,-0.547Z" style="fill:rgb(0,0,255);fill-rule:nonzero;"/>
                </g>
                <g transform="matrix(12.5,0,0,12.5,107.397,110)">
                    <path d="M0.108,-0.729L0.495,-0.729L0.495,-0.646L0.198,-0.646L0.198,-0.467C0.213,-0.472 0.227,-0.476 0.241,-0.478C0.256,-0.481 0.27,-0.482 0.284,-0.482C0.366,-0.482 0.43,-0.46 0.478,-0.415C0.525,-0.37 0.549,-0.31 0.549,-0.234C0.549,-0.155 0.524,-0.094 0.476,-0.051C0.427,-0.008 0.358,0.014 0.269,0.014C0.238,0.014 0.207,0.012 0.176,0.006C0.144,0.001 0.111,-0.007 0.077,-0.017L0.077,-0.116C0.106,-0.1 0.137,-0.088 0.168,-0.081C0.199,-0.073 0.232,-0.069 0.267,-0.069C0.323,-0.069 0.368,-0.084 0.401,-0.113C0.434,-0.143 0.45,-0.183 0.45,-0.234C0.45,-0.285 0.434,-0.325 0.401,-0.354C0.368,-0.384 0.323,-0.399 0.267,-0.399C0.241,-0.399 0.214,-0.396 0.188,-0.39C0.162,-0.384 0.135,-0.375 0.108,-0.363L0.108,-0.729Z" style="fill:rgb(0,0,255);fill-rule:nonzero;"/>
                </g>
            </g>
            <g transform="matrix(1,0,0,1,155.803,46.538)">
                <g transform="matrix(12.5,0,0,12.5,100,110)">
                    <path d="M0.03,-0.547L0.125,-0.547L0.296,-0.088L0.467,-0.547L0.562,-0.547L0.357,-0L0.235,-0L0.03,-0.547Z" style="fill:rgb(0,0,255);fill-rule:nonzero;"/>
                </g>
                <g transform="matrix(12.5,0,0,12.5,107.397,110)">
                    <path d="M0.378,-0.643L0.129,-0.254L0.378,-0.254L0.378,-0.643ZM0.352,-0.729L0.476,-0.729L0.476,-0.254L0.58,-0.254L0.58,-0.172L0.476,-0.172L0.476,-0L0.378,-0L0.378,-0.172L0.049,-0.172L0.049,-0.267L0.352,-0.729Z" style="fill:rgb(0,0,255);fill-rule:nonzero;"/>
                </g>
            </g>
            <g transform="matrix(1,0,0,1,628.45,260.734)">
                <g transform="matrix(12.5,0,0,12.5,100,110)">
                    <path d="M0.03,-0.547L0.125,-0.547L0.296,-0.088L0.467,-0.547L0.562,-0.547L0.357,-0L0.235,-0L0.03,-0.547Z" style="fill:rgb(0,0,255);fill-rule:nonzero;"/>
                </g>
                <g transform="matrix(12.5,0,0,12.5,107.397,110)">
                    <path d="M0.192,-0.083L0.536,-0.083L0.536,-0L0.073,-0L0.073,-0.083C0.111,-0.122 0.162,-0.174 0.226,-0.239C0.291,-0.304 0.332,-0.346 0.348,-0.365C0.38,-0.401 0.402,-0.431 0.414,-0.455C0.427,-0.48 0.433,-0.504 0.433,-0.528C0.433,-0.567 0.42,-0.598 0.392,-0.623C0.365,-0.647 0.33,-0.659 0.286,-0.659C0.255,-0.659 0.223,-0.654 0.188,-0.643C0.154,-0.632 0.117,-0.616 0.078,-0.594L0.078,-0.694C0.118,-0.71 0.155,-0.722 0.189,-0.73C0.224,-0.738 0.256,-0.742 0.284,-0.742C0.36,-0.742 0.42,-0.723 0.465,-0.686C0.51,-0.648 0.532,-0.597 0.532,-0.534C0.532,-0.504 0.527,-0.476 0.515,-0.449C0.504,-0.422 0.484,-0.39 0.454,-0.354C0.446,-0.345 0.42,-0.317 0.376,-0.272C0.333,-0.227 0.271,-0.164 0.192,-0.083Z" style="fill:rgb(0,0,255);fill-rule:nonzero;"/>
                </g>
            </g>
            <g transform="matrix(1,0,0,1,276.626,246.067)">
                <g transform="matrix(12.5,0,0,12.5,100,110)">
                    <path d="M0.03,-0.547L0.125,-0.547L0.296,-0.088L0.467,-0.547L0.562,-0.547L0.357,-0L0.235,-0L0.03,-0.547Z" style="fill:white;fill-rule:nonzero;"/>
                </g>
                <g transform="matrix(12.5,0,0,12.5,107.397,110)">
                    <path d="M0.406,-0.393C0.453,-0.383 0.49,-0.362 0.516,-0.33C0.543,-0.298 0.556,-0.259 0.556,-0.212C0.556,-0.14 0.531,-0.084 0.482,-0.045C0.432,-0.006 0.362,0.014 0.271,0.014C0.24,0.014 0.209,0.011 0.177,0.005C0.144,-0.001 0.111,-0.01 0.076,-0.022L0.076,-0.117C0.104,-0.101 0.133,-0.089 0.166,-0.081C0.199,-0.073 0.233,-0.069 0.268,-0.069C0.33,-0.069 0.377,-0.081 0.409,-0.105C0.442,-0.13 0.458,-0.165 0.458,-0.212C0.458,-0.255 0.443,-0.288 0.413,-0.313C0.383,-0.337 0.341,-0.349 0.287,-0.349L0.202,-0.349L0.202,-0.43L0.291,-0.43C0.34,-0.43 0.377,-0.44 0.402,-0.459C0.428,-0.479 0.441,-0.507 0.441,-0.543C0.441,-0.58 0.428,-0.609 0.401,-0.629C0.375,-0.649 0.337,-0.659 0.287,-0.659C0.26,-0.659 0.231,-0.656 0.2,-0.65C0.169,-0.645 0.135,-0.635 0.098,-0.623L0.098,-0.711C0.136,-0.721 0.171,-0.729 0.203,-0.734C0.236,-0.74 0.267,-0.742 0.296,-0.742C0.371,-0.742 0.43,-0.725 0.474,-0.691C0.517,-0.657 0.539,-0.611 0.539,-0.553C0.539,-0.513 0.528,-0.479 0.504,-0.451C0.481,-0.423 0.448,-0.404 0.406,-0.393Z" style="fill:white;fill-rule:nonzero;"/>
                </g>
            </g>
            <g transform="matrix(1,0,0,1,628.45,-59.6182)">
                <g transform="matrix(12.5,0,0,12.5,100,110)">
                    <path d="M0.03,-0.547L0.125,-0.547L0.296,-0.088L0.467,-0.547L0.562,-0.547L0.357,-0L0.235,-0L0.03,-0.547Z" style="fill:rgb(0,0,255);fill-rule:nonzero;"/>
                </g>
                <g transform="matrix(12.5,0,0,12.5,107.397,110)">
                    <path d="M0.33,-0.404C0.286,-0.404 0.251,-0.389 0.225,-0.358C0.199,-0.328 0.186,-0.287 0.186,-0.234C0.186,-0.181 0.199,-0.14 0.225,-0.11C0.251,-0.079 0.286,-0.064 0.33,-0.064C0.374,-0.064 0.409,-0.079 0.435,-0.11C0.461,-0.14 0.474,-0.181 0.474,-0.234C0.474,-0.287 0.461,-0.328 0.435,-0.358C0.409,-0.389 0.374,-0.404 0.33,-0.404ZM0.526,-0.713L0.526,-0.623C0.501,-0.635 0.476,-0.644 0.451,-0.65C0.426,-0.656 0.401,-0.659 0.376,-0.659C0.311,-0.659 0.261,-0.637 0.227,-0.593C0.192,-0.549 0.173,-0.483 0.168,-0.394C0.187,-0.422 0.211,-0.444 0.24,-0.459C0.269,-0.474 0.301,-0.482 0.336,-0.482C0.409,-0.482 0.467,-0.46 0.51,-0.415C0.552,-0.371 0.573,-0.31 0.573,-0.234C0.573,-0.159 0.551,-0.099 0.507,-0.054C0.463,-0.008 0.404,0.014 0.33,0.014C0.246,0.014 0.181,-0.018 0.137,-0.083C0.092,-0.147 0.07,-0.241 0.07,-0.364C0.07,-0.479 0.097,-0.571 0.152,-0.639C0.207,-0.708 0.28,-0.742 0.372,-0.742C0.397,-0.742 0.422,-0.74 0.447,-0.735C0.472,-0.73 0.499,-0.723 0.526,-0.713Z" style="fill:rgb(0,0,255);fill-rule:nonzero;"/>
                </g>
            </g>
            <g transform="matrix(1,0,0,1,276.626,-74.2847)">
                <g transform="matrix(12.5,0,0,12.5,100,110)">
                    <path d="M0.03,-0.547L0.125,-0.547L0.296,-0.088L0.467,-0.547L0.562,-0.547L0.357,-0L0.235,-0L0.03,-0.547Z" style="fill:rgb(0,0,255);fill-rule:nonzero;"/>
                </g>
                <g transform="matrix(12.5,0,0,12.5,107.397,110)">
                    <path d="M0.082,-0.729L0.551,-0.729L0.551,-0.687L0.286,-0L0.183,-0L0.432,-0.646L0.082,-0.646L0.082,-0.729Z" style="fill:rgb(0,0,255);fill-rule:nonzero;"/>
                </g>
            </g>
        </g>
        <g transform="matrix(1,0,0,1,324.832,365.882)">
            <g transform="matrix(8.33333,0,0,8.33333,100,110)">
                <path d="M0.562,-0.296L0.562,-0.252L0.149,-0.252C0.153,-0.19 0.171,-0.143 0.205,-0.111C0.238,-0.078 0.285,-0.062 0.344,-0.062C0.379,-0.062 0.412,-0.066 0.445,-0.075C0.477,-0.083 0.509,-0.096 0.541,-0.113L0.541,-0.028C0.509,-0.014 0.476,-0.004 0.442,0.003C0.408,0.011 0.374,0.014 0.339,0.014C0.252,0.014 0.183,-0.011 0.132,-0.062C0.081,-0.113 0.055,-0.181 0.055,-0.268C0.055,-0.358 0.079,-0.429 0.128,-0.481C0.176,-0.534 0.241,-0.56 0.323,-0.56C0.397,-0.56 0.455,-0.536 0.498,-0.489C0.541,-0.442 0.562,-0.377 0.562,-0.296ZM0.472,-0.322C0.472,-0.371 0.458,-0.411 0.431,-0.44C0.404,-0.469 0.368,-0.484 0.324,-0.484C0.274,-0.484 0.234,-0.47 0.204,-0.441C0.174,-0.413 0.156,-0.373 0.152,-0.322L0.472,-0.322Z" style="fill-rule:nonzero;"/>
            </g>
            <g transform="matrix(8.33333,0,0,8.33333,105.127,110)">
                <path d="M0.378,-0.643L0.129,-0.254L0.378,-0.254L0.378,-0.643ZM0.352,-0.729L0.476,-0.729L0.476,-0.254L0.58,-0.254L0.58,-0.172L0.476,-0.172L0.476,-0L0.378,-0L0.378,-0.172L0.049,-0.172L0.049,-0.267L0.352,-0.729Z" style="fill-rule:nonzero;"/>
            </g>
        </g>
        <g transform="matrix(1,0,0,1,448.817,245.978)">
            <g transform="matrix(8.33333,0,0,8.33333,97.349,110)">
                <path d="M0.562,-0.296L0.562,-0.252L0.149,-0.252C0.153,-0.19 0.171,-0.143 0.205,-0.111C0.238,-0.078 0.285,-0.062 0.344,-0.062C0.379,-0.062 0.412,-0.066 0.445,-0.075C0.477,-0.083 0.509,-0.096 0.541,-0.113L0.541,-0.028C0.509,-0.014 0.476,-0.004 0.442,0.003C0.408,0.011 0.374,0.014 0.339,0.014C0.252,0.014 0.183,-0.011 0.132,-0.062C0.081,-0.113 0.055,-0.181 0.055,-0.268C0.055,-0.358 0.079,-0.429 0.128,-0.481C0.176,-0.534 0.241,-0.56 0.323,-0.56C0.397,-0.56 0.455,-0.536 0.498,-0.489C0.541,-0.442 0.562,-0.377 0.562,-0.296ZM0.472,-0.322C0.472,-0.371 0.458,-0.411 0.431,-0.44C0.404,-0.469 0.368,-0.484 0.324,-0.484C0.274,-0.484 0.234,-0.47 0.204,-0.441C0.174,-0.413 0.156,-0.373 0.152,-0.322L0.472,-0.322Z" style="fill:white;fill-rule:nonzero;"/>
            </g>
            <g transform="matrix(8.33333,0,0,8.33333,102.476,110)">
                <path d="M0.124,-0.083L0.285,-0.083L0.285,-0.639L0.11,-0.604L0.11,-0.694L0.284,-0.729L0.383,-0.729L0.383,-0.083L0.544,-0.083L0.544,-0L0.124,-0L0.124,-0.083Z" style="fill:white;fill-rule:nonzero;"/>
            </g>
            <g transform="matrix(8.33333,0,0,8.33333,107.778,110)">
                <path d="M0.378,-0.643L0.129,-0.254L0.378,-0.254L0.378,-0.643ZM0.352,-0.729L0.476,-0.729L0.476,-0.254L0.58,-0.254L0.58,-0.172L0.476,-0.172L0.476,-0L0.378,-0L0.378,-0.172L0.049,-0.172L0.049,-0.267L0.352,-0.729Z" style="fill:white;fill-rule:nonzero;"/>
            </g>
        </g>
        <g transform="matrix(1,0,0,1,184.79,212.979)">
            <g transform="matrix(8.33333,0,0,8.33333,100,110)">
                <path d="M0.562,-0.296L0.562,-0.252L0.149,-0.252C0.153,-0.19 0.171,-0.143 0.205,-0.111C0.238,-0.078 0.285,-0.062 0.344,-0.062C0.379,-0.062 0.412,-0.066 0.445,-0.075C0.477,-0.083 0.509,-0.096 0.541,-0.113L0.541,-0.028C0.509,-0.014 0.476,-0.004 0.442,0.003C0.408,0.011 0.374,0.014 0.339,0.014C0.252,0.014 0.183,-0.011 0.132,-0.062C0.081,-0.113 0.055,-0.181 0.055,-0.268C0.055,-0.358 0.079,-0.429 0.128,-0.481C0.176,-0.534 0.241,-0.56 0.323,-0.56C0.397,-0.56 0.455,-0.536 0.498,-0.489C0.541,-0.442 0.562,-0.377 0.562,-0.296ZM0.472,-0.322C0.472,-0.371 0.458,-0.411 0.431,-0.44C0.404,-0.469 0.368,-0.484 0.324,-0.484C0.274,-0.484 0.234,-0.47 0.204,-0.441C0.174,-0.413 0.156,-0.373 0.152,-0.322L0.472,-0.322Z" style="fill-rule:nonzero;"/>
            </g>
            <g transform="matrix(8.33333,0,0,8.33333,105.127,110)">
                <path d="M0.108,-0.729L0.495,-0.729L0.495,-0.646L0.198,-0.646L0.198,-0.467C0.213,-0.472 0.227,-0.476 0.241,-0.478C0.256,-0.481 0.27,-0.482 0.284,-0.482C0.366,-0.482 0.43,-0.46 0.478,-0.415C0.525,-0.37 0.549,-0.31 0.549,-0.234C0.549,-0.155 0.524,-0.094 0.476,-0.051C0.427,-0.008 0.358,0.014 0.269,0.014C0.238,0.014 0.207,0.012 0.176,0.006C0.144,0.001 0.111,-0.007 0.077,-0.017L0.077,-0.116C0.106,-0.1 0.137,-0.088 0.168,-0.081C0.199,-0.073 0.232,-0.069 0.267,-0.069C0.323,-0.069 0.368,-0.084 0.401,-0.113C0.434,-0.143 0.45,-0.183 0.45,-0.234C0.45,-0.285 0.434,-0.325 0.401,-0.354C0.368,-0.384 0.323,-0.399 0.267,-0.399C0.241,-0.399 0.214,-0.396 0.188,-0.39C0.162,-0.384 0.135,-0.375 0.108,-0.363L0.108,-0.729Z" style="fill-rule:nonzero;"/>
            </g>
        </g>
        <g transform="matrix(0.751761,-0.716474,0,1,311.851,176.959)">
            <g transform="matrix(8.33333,0,0,8.33333,97.349,110)">
                <path d="M0.562,-0.296L0.562,-0.252L0.149,-0.252C0.153,-0.19 0.171,-0.143 0.205,-0.111C0.238,-0.078 0.285,-0.062 0.344,-0.062C0.379,-0.062 0.412,-0.066 0.445,-0.075C0.477,-0.083 0.509,-0.096 0.541,-0.113L0.541,-0.028C0.509,-0.014 0.476,-0.004 0.442,0.003C0.408,0.011 0.374,0.014 0.339,0.014C0.252,0.014 0.183,-0.011 0.132,-0.062C0.081,-0.113 0.055,-0.181 0.055,-0.268C0.055,-0.358 0.079,-0.429 0.128,-0.481C0.176,-0.534 0.241,-0.56 0.323,-0.56C0.397,-0.56 0.455,-0.536 0.498,-0.489C0.541,-0.442 0.562,-0.377 0.562,-0.296ZM0.472,-0.322C0.472,-0.371 0.458,-0.411 0.431,-0.44C0.404,-0.469 0.368,-0.484 0.324,-0.484C0.274,-0.484 0.234,-0.47 0.204,-0.441C0.174,-0.413 0.156,-0.373 0.152,-0.322L0.472,-0.322Z" style="fill:white;fill-rule:nonzero;"/>
            </g>
            <g transform="matrix(8.33333,0,0,8.33333,102.476,110)">
                <path d="M0.124,-0.083L0.285,-0.083L0.285,-0.639L0.11,-0.604L0.11,-0.694L0.284,-0.729L0.383,-0.729L0.383,-0.083L0.544,-0.083L0.544,-0L0.124,-0L0.124,-0.083Z" style="fill:white;fill-rule:nonzero;"/>
            </g>
            <g transform="matrix(8.33333,0,0,8.33333,107.778,110)">
                <path d="M0.33,-0.404C0.286,-0.404 0.251,-0.389 0.225,-0.358C0.199,-0.328 0.186,-0.287 0.186,-0.234C0.186,-0.181 0.199,-0.14 0.225,-0.11C0.251,-0.079 0.286,-0.064 0.33,-0.064C0.374,-0.064 0.409,-0.079 0.435,-0.11C0.461,-0.14 0.474,-0.181 0.474,-0.234C0.474,-0.287 0.461,-0.328 0.435,-0.358C0.409,-0.389 0.374,-0.404 0.33,-0.404ZM0.526,-0.713L0.526,-0.623C0.501,-0.635 0.476,-0.644 0.451,-0.65C0.426,-0.656 0.401,-0.659 0.376,-0.659C0.311,-0.659 0.261,-0.637 0.227,-0.593C0.192,-0.549 0.173,-0.483 0.168,-0.394C0.187,-0.422 0.211,-0.444 0.24,-0.459C0.269,-0.474 0.301,-0.482 0.336,-0.482C0.409,-0.482 0.467,-0.46 0.51,-0.415C0.552,-0.371 0.573,-0.31 0.573,-0.234C0.573,-0.159 0.551,-0.099 0.507,-0.054C0.463,-0.008 0.404,0.014 0.33,0.014C0.246,0.014 0.181,-0.018 0.137,-0.083C0.092,-0.147 0.07,-0.241 0.07,-0.364C0.07,-0.479 0.097,-0.571 0.152,-0.639C0.207,-0.708 0.28,-0.742 0.372,-0.742C0.397,-0.742 0.422,-0.74 0.447,-0.735C0.472,-0.73 0.499,-0.723 0.526,-0.713Z" style="fill:white;fill-rule:nonzero;"/>
            </g>
        </g>
        <g transform="matrix(0.751761,-0.716474,0,1,630.685,181.581)">
            <g transform="matrix(8.33333,0,0,8.33333,97.349,110)">
                <path d="M0.562,-0.296L0.562,-0.252L0.149,-0.252C0.153,-0.19 0.171,-0.143 0.205,-0.111C0.238,-0.078 0.285,-0.062 0.344,-0.062C0.379,-0.062 0.412,-0.066 0.445,-0.075C0.477,-0.083 0.509,-0.096 0.541,-0.113L0.541,-0.028C0.509,-0.014 0.476,-0.004 0.442,0.003C0.408,0.011 0.374,0.014 0.339,0.014C0.252,0.014 0.183,-0.011 0.132,-0.062C0.081,-0.113 0.055,-0.181 0.055,-0.268C0.055,-0.358 0.079,-0.429 0.128,-0.481C0.176,-0.534 0.241,-0.56 0.323,-0.56C0.397,-0.56 0.455,-0.536 0.498,-0.489C0.541,-0.442 0.562,-0.377 0.562,-0.296ZM0.472,-0.322C0.472,-0.371 0.458,-0.411 0.431,-0.44C0.404,-0.469 0.368,-0.484 0.324,-0.484C0.274,-0.484 0.234,-0.47 0.204,-0.441C0.174,-0.413 0.156,-0.373 0.152,-0.322L0.472,-0.322Z" style="fill-rule:nonzero;"/>
            </g>
            <g transform="matrix(8.33333,0,0,8.33333,102.476,110)">
                <path d="M0.192,-0.083L0.536,-0.083L0.536,-0L0.073,-0L0.073,-0.083C0.111,-0.122 0.162,-0.174 0.226,-0.239C0.291,-0.304 0.332,-0.346 0.348,-0.365C0.38,-0.401 0.402,-0.431 0.414,-0.455C0.427,-0.48 0.433,-0.504 0.433,-0.528C0.433,-0.567 0.42,-0.598 0.392,-0.623C0.365,-0.647 0.33,-0.659 0.286,-0.659C0.255,-0.659 0.223,-0.654 0.188,-0.643C0.154,-0.632 0.117,-0.616 0.078,-0.594L0.078,-0.694C0.118,-0.71 0.155,-0.722 0.189,-0.73C0.224,-0.738 0.256,-0.742 0.284,-0.742C0.36,-0.742 0.42,-0.723 0.465,-0.686C0.51,-0.648 0.532,-0.597 0.532,-0.534C0.532,-0.504 0.527,-0.476 0.515,-0.449C0.504,-0.422 0.484,-0.39 0.454,-0.354C0.446,-0.345 0.42,-0.317 0.376,-0.272C0.333,-0.227 0.271,-0.164 0.192,-0.083Z" style="fill-rule:nonzero;"/>
            </g>
            <g transform="matrix(8.33333,0,0,8.33333,107.778,110)">
                <path d="M0.124,-0.083L0.285,-0.083L0.285,-0.639L0.11,-0.604L0.11,-0.694L0.284,-0.729L0.383,-0.729L0.383,-0.083L0.544,-0.083L0.544,-0L0.124,-0L0.124,-0.083Z" style="fill-rule:nonzero;"/>
            </g>
        </g>
        <g transform="matrix(0.751761,-0.716474,0,1,260.928,376.948)">
            <g transform="matrix(8.33333,0,0,8.33333,97.349,110)">
                <path d="M0.562,-0.296L0.562,-0.252L0.149,-0.252C0.153,-0.19 0.171,-0.143 0.205,-0.111C0.238,-0.078 0.285,-0.062 0.344,-0.062C0.379,-0.062 0.412,-0.066 0.445,-0.075C0.477,-0.083 0.509,-0.096 0.541,-0.113L0.541,-0.028C0.509,-0.014 0.476,-0.004 0.442,0.003C0.408,0.011 0.374,0.014 0.339,0.014C0.252,0.014 0.183,-0.011 0.132,-0.062C0.081,-0.113 0.055,-0.181 0.055,-0.268C0.055,-0.358 0.079,-0.429 0.128,-0.481C0.176,-0.534 0.241,-0.56 0.323,-0.56C0.397,-0.56 0.455,-0.536 0.498,-0.489C0.541,-0.442 0.562,-0.377 0.562,-0.296ZM0.472,-0.322C0.472,-0.371 0.458,-0.411 0.431,-0.44C0.404,-0.469 0.368,-0.484 0.324,-0.484C0.274,-0.484 0.234,-0.47 0.204,-0.441C0.174,-0.413 0.156,-0.373 0.152,-0.322L0.472,-0.322Z" style="fill:white;fill-rule:nonzero;"/>
            </g>
            <g transform="matrix(8.33333,0,0,8.33333,102.476,110)">
                <path d="M0.124,-0.083L0.285,-0.083L0.285,-0.639L0.11,-0.604L0.11,-0.694L0.284,-0.729L0.383,-0.729L0.383,-0.083L0.544,-0.083L0.544,-0L0.124,-0L0.124,-0.083Z" style="fill:white;fill-rule:nonzero;"/>
            </g>
            <g transform="matrix(8.33333,0,0,8.33333,107.778,110)">
                <path d="M0.11,-0.015L0.11,-0.105C0.135,-0.093 0.16,-0.084 0.185,-0.078C0.21,-0.072 0.235,-0.069 0.26,-0.069C0.325,-0.069 0.375,-0.091 0.409,-0.135C0.443,-0.178 0.463,-0.245 0.468,-0.334C0.449,-0.306 0.425,-0.285 0.396,-0.27C0.367,-0.255 0.335,-0.247 0.3,-0.247C0.227,-0.247 0.169,-0.269 0.127,-0.313C0.084,-0.357 0.063,-0.418 0.063,-0.494C0.063,-0.569 0.085,-0.629 0.129,-0.674C0.174,-0.72 0.233,-0.742 0.306,-0.742C0.39,-0.742 0.455,-0.71 0.499,-0.645C0.544,-0.581 0.566,-0.487 0.566,-0.364C0.566,-0.249 0.539,-0.157 0.484,-0.089C0.43,-0.02 0.356,0.014 0.264,0.014C0.239,0.014 0.214,0.012 0.189,0.007C0.164,0.002 0.137,-0.005 0.11,-0.015ZM0.306,-0.324C0.35,-0.324 0.385,-0.339 0.411,-0.37C0.437,-0.4 0.45,-0.441 0.45,-0.494C0.45,-0.547 0.437,-0.588 0.411,-0.618C0.385,-0.649 0.35,-0.664 0.306,-0.664C0.262,-0.664 0.227,-0.649 0.201,-0.618C0.175,-0.588 0.162,-0.547 0.162,-0.494C0.162,-0.441 0.175,-0.4 0.201,-0.37C0.227,-0.339 0.262,-0.324 0.306,-0.324Z" style="fill:white;fill-rule:nonzero;"/>
            </g>
        </g>
        <g transform="matrix(0.751761,-0.716474,0,1,581.325,376.948)">
            <g transform="matrix(8.33333,0,0,8.33333,97.349,110)">
                <path d="M0.562,-0.296L0.562,-0.252L0.149,-0.252C0.153,-0.19 0.171,-0.143 0.205,-0.111C0.238,-0.078 0.285,-0.062 0.344,-0.062C0.379,-0.062 0.412,-0.066 0.445,-0.075C0.477,-0.083 0.509,-0.096 0.541,-0.113L0.541,-0.028C0.509,-0.014 0.476,-0.004 0.442,0.003C0.408,0.011 0.374,0.014 0.339,0.014C0.252,0.014 0.183,-0.011 0.132,-0.062C0.081,-0.113 0.055,-0.181 0.055,-0.268C0.055,-0.358 0.079,-0.429 0.128,-0.481C0.176,-0.534 0.241,-0.56 0.323,-0.56C0.397,-0.56 0.455,-0.536 0.498,-0.489C0.541,-0.442 0.562,-0.377 0.562,-0.296ZM0.472,-0.322C0.472,-0.371 0.458,-0.411 0.431,-0.44C0.404,-0.469 0.368,-0.484 0.324,-0.484C0.274,-0.484 0.234,-0.47 0.204,-0.441C0.174,-0.413 0.156,-0.373 0.152,-0.322L0.472,-0.322Z" style="fill-rule:nonzero;"/>
            </g>
            <g transform="matrix(8.33333,0,0,8.33333,102.476,110)">
                <path d="M0.192,-0.083L0.536,-0.083L0.536,-0L0.073,-0L0.073,-0.083C0.111,-0.122 0.162,-0.174 0.226,-0.239C0.291,-0.304 0.332,-0.346 0.348,-0.365C0.38,-0.401 0.402,-0.431 0.414,-0.455C0.427,-0.48 0.433,-0.504 0.433,-0.528C0.433,-0.567 0.42,-0.598 0.392,-0.623C0.365,-0.647 0.33,-0.659 0.286,-0.659C0.255,-0.659 0.223,-0.654 0.188,-0.643C0.154,-0.632 0.117,-0.616 0.078,-0.594L0.078,-0.694C0.118,-0.71 0.155,-0.722 0.189,-0.73C0.224,-0.738 0.256,-0.742 0.284,-0.742C0.36,-0.742 0.42,-0.723 0.465,-0.686C0.51,-0.648 0.532,-0.597 0.532,-0.534C0.532,-0.504 0.527,-0.476 0.515,-0.449C0.504,-0.422 0.484,-0.39 0.454,-0.354C0.446,-0.345 0.42,-0.317 0.376,-0.272C0.333,-0.227 0.271,-0.164 0.192,-0.083Z" style="fill-rule:nonzero;"/>
            </g>
            <g transform="matrix(8.33333,0,0,8.33333,107.778,110)">
                <path d="M0.192,-0.083L0.536,-0.083L0.536,-0L0.073,-0L0.073,-0.083C0.111,-0.122 0.162,-0.174 0.226,-0.239C0.291,-0.304 0.332,-0.346 0.348,-0.365C0.38,-0.401 0.402,-0.431 0.414,-0.455C0.427,-0.48 0.433,-0.504 0.433,-0.528C0.433,-0.567 0.42,-0.598 0.392,-0.623C0.365,-0.647 0.33,-0.659 0.286,-0.659C0.255,-0.659 0.223,-0.654 0.188,-0.643C0.154,-0.632 0.117,-0.616 0.078,-0.594L0.078,-0.694C0.118,-0.71 0.155,-0.722 0.189,-0.73C0.224,-0.738 0.256,-0.742 0.284,-0.742C0.36,-0.742 0.42,-0.723 0.465,-0.686C0.51,-0.648 0.532,-0.597 0.532,-0.534C0.532,-0.504 0.527,-0.476 0.515,-0.449C0.504,-0.422 0.484,-0.39 0.454,-0.354C0.446,-0.345 0.42,-0.317 0.376,-0.272C0.333,-0.227 0.271,-0.164 0.192,-0.083Z" style="fill-rule:nonzero;"/>
            </g>
        </g>
        <g transform="matrix(0.751761,-0.716474,0,1,260.928,83.1923)">
            <g transform="matrix(8.33333,0,0,8.33333,97.349,110)">
                <path d="M0.562,-0.296L0.562,-0.252L0.149,-0.252C0.153,-0.19 0.171,-0.143 0.205,-0.111C0.238,-0.078 0.285,-0.062 0.344,-0.062C0.379,-0.062 0.412,-0.066 0.445,-0.075C0.477,-0.083 0.509,-0.096 0.541,-0.113L0.541,-0.028C0.509,-0.014 0.476,-0.004 0.442,0.003C0.408,0.011 0.374,0.014 0.339,0.014C0.252,0.014 0.183,-0.011 0.132,-0.062C0.081,-0.113 0.055,-0.181 0.055,-0.268C0.055,-0.358 0.079,-0.429 0.128,-0.481C0.176,-0.534 0.241,-0.56 0.323,-0.56C0.397,-0.56 0.455,-0.536 0.498,-0.489C0.541,-0.442 0.562,-0.377 0.562,-0.296ZM0.472,-0.322C0.472,-0.371 0.458,-0.411 0.431,-0.44C0.404,-0.469 0.368,-0.484 0.324,-0.484C0.274,-0.484 0.234,-0.47 0.204,-0.441C0.174,-0.413 0.156,-0.373 0.152,-0.322L0.472,-0.322Z" style="fill:white;fill-rule:nonzero;"/>
            </g>
            <g transform="matrix(8.33333,0,0,8.33333,102.476,110)">
                <path d="M0.124,-0.083L0.285,-0.083L0.285,-0.639L0.11,-0.604L0.11,-0.694L0.284,-0.729L0.383,-0.729L0.383,-0.083L0.544,-0.083L0.544,-0L0.124,-0L0.124,-0.083Z" style="fill:white;fill-rule:nonzero;"/>
            </g>
            <g transform="matrix(8.33333,0,0,8.33333,107.778,110)">
                <path d="M0.082,-0.729L0.551,-0.729L0.551,-0.687L0.286,-0L0.183,-0L0.432,-0.646L0.082,-0.646L0.082,-0.729Z" style="fill:white;fill-rule:nonzero;"/>
            </g>
        </g>
        <g transform="matrix(0.751761,-0.833484,0,1,581.325,92.7318)">
            <g transform="matrix(8.33333,0,0,8.33333,97.349,110)">
                <path d="M0.562,-0.296L0.562,-0.252L0.149,-0.252C0.153,-0.19 0.171,-0.143 0.205,-0.111C0.238,-0.078 0.285,-0.062 0.344,-0.062C0.379,-0.062 0.412,-0.066 0.445,-0.075C0.477,-0.083 0.509,-0.096 0.541,-0.113L0.541,-0.028C0.509,-0.014 0.476,-0.004 0.442,0.003C0.408,0.011 0.374,0.014 0.339,0.014C0.252,0.014 0.183,-0.011 0.132,-0.062C0.081,-0.113 0.055,-0.181 0.055,-0.268C0.055,-0.358 0.079,-0.429 0.128,-0.481C0.176,-0.534 0.241,-0.56 0.323,-0.56C0.397,-0.56 0.455,-0.536 0.498,-0.489C0.541,-0.442 0.562,-0.377 0.562,-0.296ZM0.472,-0.322C0.472,-0.371 0.458,-0.411 0.431,-0.44C0.404,-0.469 0.368,-0.484 0.324,-0.484C0.274,-0.484 0.234,-0.47 0.204,-0.441C0.174,-0.413 0.156,-0.373 0.152,-0.322L0.472,-0.322Z" style="fill-rule:nonzero;"/>
            </g>
            <g transform="matrix(8.33333,0,0,8.33333,102.476,110)">
                <path d="M0.192,-0.083L0.536,-0.083L0.536,-0L0.073,-0L0.073,-0.083C0.111,-0.122 0.162,-0.174 0.226,-0.239C0.291,-0.304 0.332,-0.346 0.348,-0.365C0.38,-0.401 0.402,-0.431 0.414,-0.455C0.427,-0.48 0.433,-0.504 0.433,-0.528C0.433,-0.567 0.42,-0.598 0.392,-0.623C0.365,-0.647 0.33,-0.659 0.286,-0.659C0.255,-0.659 0.223,-0.654 0.188,-0.643C0.154,-0.632 0.117,-0.616 0.078,-0.594L0.078,-0.694C0.118,-0.71 0.155,-0.722 0.189,-0.73C0.224,-0.738 0.256,-0.742 0.284,-0.742C0.36,-0.742 0.42,-0.723 0.465,-0.686C0.51,-0.648 0.532,-0.597 0.532,-0.534C0.532,-0.504 0.527,-0.476 0.515,-0.449C0.504,-0.422 0.484,-0.39 0.454,-0.354C0.446,-0.345 0.42,-0.317 0.376,-0.272C0.333,-0.227 0.271,-0.164 0.192,-0.083Z" style="fill-rule:nonzero;"/>
            </g>
            <g transform="matrix(8.33333,0,0,8.33333,107.778,110)">
                <path d="M0.318,-0.664C0.267,-0.664 0.229,-0.639 0.203,-0.589C0.178,-0.539 0.165,-0.464 0.165,-0.364C0.165,-0.264 0.178,-0.189 0.203,-0.139C0.229,-0.089 0.267,-0.064 0.318,-0.064C0.369,-0.064 0.407,-0.089 0.433,-0.139C0.458,-0.189 0.471,-0.264 0.471,-0.364C0.471,-0.464 0.458,-0.539 0.433,-0.589C0.407,-0.639 0.369,-0.664 0.318,-0.664ZM0.318,-0.742C0.4,-0.742 0.462,-0.71 0.505,-0.645C0.548,-0.581 0.57,-0.487 0.57,-0.364C0.57,-0.241 0.548,-0.147 0.505,-0.083C0.462,-0.018 0.4,0.014 0.318,0.014C0.236,0.014 0.174,-0.018 0.131,-0.083C0.087,-0.147 0.066,-0.241 0.066,-0.364C0.066,-0.487 0.087,-0.581 0.131,-0.645C0.174,-0.71 0.236,-0.742 0.318,-0.742Z" style="fill-rule:nonzero;"/>
            </g>
        </g>
        <g transform="matrix(0.751761,-0.716474,0,1,211.471,273.659)">
            <g transform="matrix(8.33333,0,0,8.33333,97.349,110)">
                <path d="M0.562,-0.296L0.562,-0.252L0.149,-0.252C0.153,-0.19 0.171,-0.143 0.205,-0.111C0.238,-0.078 0.285,-0.062 0.344,-0.062C0.379,-0.062 0.412,-0.066 0.445,-0.075C0.477,-0.083 0.509,-0.096 0.541,-0.113L0.541,-0.028C0.509,-0.014 0.476,-0.004 0.442,0.003C0.408,0.011 0.374,0.014 0.339,0.014C0.252,0.014 0.183,-0.011 0.132,-0.062C0.081,-0.113 0.055,-0.181 0.055,-0.268C0.055,-0.358 0.079,-0.429 0.128,-0.481C0.176,-0.534 0.241,-0.56 0.323,-0.56C0.397,-0.56 0.455,-0.536 0.498,-0.489C0.541,-0.442 0.562,-0.377 0.562,-0.296ZM0.472,-0.322C0.472,-0.371 0.458,-0.411 0.431,-0.44C0.404,-0.469 0.368,-0.484 0.324,-0.484C0.274,-0.484 0.234,-0.47 0.204,-0.441C0.174,-0.413 0.156,-0.373 0.152,-0.322L0.472,-0.322Z" style="fill:white;fill-rule:nonzero;"/>
            </g>
            <g transform="matrix(8.33333,0,0,8.33333,102.476,110)">
                <path d="M0.124,-0.083L0.285,-0.083L0.285,-0.639L0.11,-0.604L0.11,-0.694L0.284,-0.729L0.383,-0.729L0.383,-0.083L0.544,-0.083L0.544,-0L0.124,-0L0.124,-0.083Z" style="fill:white;fill-rule:nonzero;"/>
            </g>
            <g transform="matrix(8.33333,0,0,8.33333,107.778,110)">
                <path d="M0.318,-0.346C0.271,-0.346 0.234,-0.334 0.207,-0.309C0.18,-0.284 0.167,-0.249 0.167,-0.205C0.167,-0.161 0.18,-0.127 0.207,-0.102C0.234,-0.076 0.271,-0.064 0.318,-0.064C0.365,-0.064 0.402,-0.077 0.429,-0.102C0.456,-0.127 0.469,-0.161 0.469,-0.205C0.469,-0.249 0.456,-0.284 0.429,-0.309C0.402,-0.334 0.365,-0.346 0.318,-0.346ZM0.219,-0.388C0.177,-0.399 0.144,-0.418 0.12,-0.447C0.097,-0.476 0.085,-0.512 0.085,-0.553C0.085,-0.611 0.106,-0.658 0.147,-0.691C0.189,-0.725 0.246,-0.742 0.318,-0.742C0.39,-0.742 0.447,-0.725 0.489,-0.691C0.53,-0.658 0.551,-0.611 0.551,-0.553C0.551,-0.512 0.539,-0.476 0.515,-0.447C0.492,-0.418 0.459,-0.399 0.417,-0.388C0.465,-0.377 0.502,-0.355 0.528,-0.323C0.555,-0.291 0.568,-0.252 0.568,-0.205C0.568,-0.134 0.546,-0.08 0.503,-0.042C0.46,-0.005 0.398,0.014 0.318,0.014C0.237,0.014 0.176,-0.005 0.133,-0.042C0.089,-0.08 0.068,-0.134 0.068,-0.205C0.068,-0.252 0.081,-0.291 0.108,-0.323C0.135,-0.355 0.172,-0.377 0.219,-0.388ZM0.183,-0.544C0.183,-0.506 0.195,-0.477 0.219,-0.456C0.242,-0.434 0.275,-0.424 0.318,-0.424C0.36,-0.424 0.393,-0.434 0.417,-0.456C0.441,-0.477 0.453,-0.506 0.453,-0.544C0.453,-0.582 0.441,-0.611 0.417,-0.632C0.393,-0.653 0.36,-0.664 0.318,-0.664C0.275,-0.664 0.242,-0.653 0.219,-0.632C0.195,-0.611 0.183,-0.582 0.183,-0.544Z" style="fill:white;fill-rule:nonzero;"/>
            </g>
        </g>
        <g transform="matrix(0.751761,-0.716474,0,1,531.868,280.155)">
            <g transform="matrix(8.33333,0,0,8.33333,97.349,110)">
                <path d="M0.562,-0.296L0.562,-0.252L0.149,-0.252C0.153,-0.19 0.171,-0.143 0.205,-0.111C0.238,-0.078 0.285,-0.062 0.344,-0.062C0.379,-0.062 0.412,-0.066 0.445,-0.075C0.477,-0.083 0.509,-0.096 0.541,-0.113L0.541,-0.028C0.509,-0.014 0.476,-0.004 0.442,0.003C0.408,0.011 0.374,0.014 0.339,0.014C0.252,0.014 0.183,-0.011 0.132,-0.062C0.081,-0.113 0.055,-0.181 0.055,-0.268C0.055,-0.358 0.079,-0.429 0.128,-0.481C0.176,-0.534 0.241,-0.56 0.323,-0.56C0.397,-0.56 0.455,-0.536 0.498,-0.489C0.541,-0.442 0.562,-0.377 0.562,-0.296ZM0.472,-0.322C0.472,-0.371 0.458,-0.411 0.431,-0.44C0.404,-0.469 0.368,-0.484 0.324,-0.484C0.274,-0.484 0.234,-0.47 0.204,-0.441C0.174,-0.413 0.156,-0.373 0.152,-0.322L0.472,-0.322Z" style="fill-rule:nonzero;"/>
            </g>
            <g transform="matrix(8.33333,0,0,8.33333,102.476,110)">
                <path d="M0.192,-0.083L0.536,-0.083L0.536,-0L0.073,-0L0.073,-0.083C0.111,-0.122 0.162,-0.174 0.226,-0.239C0.291,-0.304 0.332,-0.346 0.348,-0.365C0.38,-0.401 0.402,-0.431 0.414,-0.455C0.427,-0.48 0.433,-0.504 0.433,-0.528C0.433,-0.567 0.42,-0.598 0.392,-0.623C0.365,-0.647 0.33,-0.659 0.286,-0.659C0.255,-0.659 0.223,-0.654 0.188,-0.643C0.154,-0.632 0.117,-0.616 0.078,-0.594L0.078,-0.694C0.118,-0.71 0.155,-0.722 0.189,-0.73C0.224,-0.738 0.256,-0.742 0.284,-0.742C0.36,-0.742 0.42,-0.723 0.465,-0.686C0.51,-0.648 0.532,-0.597 0.532,-0.534C0.532,-0.504 0.527,-0.476 0.515,-0.449C0.504,-0.422 0.484,-0.39 0.454,-0.354C0.446,-0.345 0.42,-0.317 0.376,-0.272C0.333,-0.227 0.271,-0.164 0.192,-0.083Z" style="fill-rule:nonzero;"/>
            </g>
            <g transform="matrix(8.33333,0,0,8.33333,107.778,110)">
                <path d="M0.406,-0.393C0.453,-0.383 0.49,-0.362 0.516,-0.33C0.543,-0.298 0.556,-0.259 0.556,-0.212C0.556,-0.14 0.531,-0.084 0.482,-0.045C0.432,-0.006 0.362,0.014 0.271,0.014C0.24,0.014 0.209,0.011 0.177,0.005C0.144,-0.001 0.111,-0.01 0.076,-0.022L0.076,-0.117C0.104,-0.101 0.133,-0.089 0.166,-0.081C0.199,-0.073 0.233,-0.069 0.268,-0.069C0.33,-0.069 0.377,-0.081 0.409,-0.105C0.442,-0.13 0.458,-0.165 0.458,-0.212C0.458,-0.255 0.443,-0.288 0.413,-0.313C0.383,-0.337 0.341,-0.349 0.287,-0.349L0.202,-0.349L0.202,-0.43L0.291,-0.43C0.34,-0.43 0.377,-0.44 0.402,-0.459C0.428,-0.479 0.441,-0.507 0.441,-0.543C0.441,-0.58 0.428,-0.609 0.401,-0.629C0.375,-0.649 0.337,-0.659 0.287,-0.659C0.26,-0.659 0.231,-0.656 0.2,-0.65C0.169,-0.645 0.135,-0.635 0.098,-0.623L0.098,-0.711C0.136,-0.721 0.171,-0.729 0.203,-0.734C0.236,-0.74 0.267,-0.742 0.296,-0.742C0.371,-0.742 0.43,-0.725 0.474,-0.691C0.517,-0.657 0.539,-0.611 0.539,-0.553C0.539,-0.513 0.528,-0.479 0.504,-0.451C0.481,-0.423 0.448,-0.404 0.406,-0.393Z" style="fill-rule:nonzero;"/>
            </g>
        </g>
        <g transform="matrix(1,0,0,1,304.506,93.0749)">
            <g transform="matrix(8.33333,0,0,8.33333,100,110)">
                <path d="M0.562,-0.296L0.562,-0.252L0.149,-0.252C0.153,-0.19 0.171,-0.143 0.205,-0.111C0.238,-0.078 0.285,-0.062 0.344,-0.062C0.379,-0.062 0.412,-0.066 0.445,-0.075C0.477,-0.083 0.509,-0.096 0.541,-0.113L0.541,-0.028C0.509,-0.014 0.476,-0.004 0.442,0.003C0.408,0.011 0.374,0.014 0.339,0.014C0.252,0.014 0.183,-0.011 0.132,-0.062C0.081,-0.113 0.055,-0.181 0.055,-0.268C0.055,-0.358 0.079,-0.429 0.128,-0.481C0.176,-0.534 0.241,-0.56 0.323,-0.56C0.397,-0.56 0.455,-0.536 0.498,-0.489C0.541,-0.442 0.562,-0.377 0.562,-0.296ZM0.472,-0.322C0.472,-0.371 0.458,-0.411 0.431,-0.44C0.404,-0.469 0.368,-0.484 0.324,-0.484C0.274,-0.484 0.234,-0.47 0.204,-0.441C0.174,-0.413 0.156,-0.373 0.152,-0.322L0.472,-0.322Z" style="fill:white;fill-rule:nonzero;"/>
            </g>
            <g transform="matrix(8.33333,0,0,8.33333,105.127,110)">
                <path d="M0.124,-0.083L0.285,-0.083L0.285,-0.639L0.11,-0.604L0.11,-0.694L0.284,-0.729L0.383,-0.729L0.383,-0.083L0.544,-0.083L0.544,-0L0.124,-0L0.124,-0.083Z" style="fill:white;fill-rule:nonzero;"/>
            </g>
            <g transform="matrix(8.33333,0,0,8.33333,110.429,110)">
                <path d="M0.406,-0.393C0.453,-0.383 0.49,-0.362 0.516,-0.33C0.543,-0.298 0.556,-0.259 0.556,-0.212C0.556,-0.14 0.531,-0.084 0.482,-0.045C0.432,-0.006 0.362,0.014 0.271,0.014C0.24,0.014 0.209,0.011 0.177,0.005C0.144,-0.001 0.111,-0.01 0.076,-0.022L0.076,-0.117C0.104,-0.101 0.133,-0.089 0.166,-0.081C0.199,-0.073 0.233,-0.069 0.268,-0.069C0.33,-0.069 0.377,-0.081 0.409,-0.105C0.442,-0.13 0.458,-0.165 0.458,-0.212C0.458,-0.255 0.443,-0.288 0.413,-0.313C0.383,-0.337 0.341,-0.349 0.287,-0.349L0.202,-0.349L0.202,-0.43L0.291,-0.43C0.34,-0.43 0.377,-0.44 0.402,-0.459C0.428,-0.479 0.441,-0.507 0.441,-0.543C0.441,-0.58 0.428,-0.609 0.401,-0.629C0.375,-0.649 0.337,-0.659 0.287,-0.659C0.26,-0.659 0.231,-0.656 0.2,-0.65C0.169,-0.645 0.135,-0.635 0.098,-0.623L0.098,-0.711C0.136,-0.721 0.171,-0.729 0.203,-0.734C0.236,-0.74 0.267,-0.742 0.296,-0.742C0.371,-0.742 0.43,-0.725 0.474,-0.691C0.517,-0.657 0.539,-0.611 0.539,-0.553C0.539,-0.513 0.528,-0.479 0.504,-0.451C0.481,-0.423 0.448,-0.404 0.406,-0.393Z" style="fill:white;fill-rule:nonzero;"/>
            </g>
        </g>
        <g transform="matrix(1,0,0,1,484.92,212.979)">
            <g transform="matrix(8.33333,0,0,8.33333,100,110)">
                <path d="M0.562,-0.296L0.562,-0.252L0.149,-0.252C0.153,-0.19 0.171,-0.143 0.205,-0.111C0.238,-0.078 0.285,-0.062 0.344,-0.062C0.379,-0.062 0.412,-0.066 0.445,-0.075C0.477,-0.083 0.509,-0.096 0.541,-0.113L0.541,-0.028C0.509,-0.014 0.476,-0.004 0.442,0.003C0.408,0.011 0.374,0.014 0.339,0.014C0.252,0.014 0.183,-0.011 0.132,-0.062C0.081,-0.113 0.055,-0.181 0.055,-0.268C0.055,-0.358 0.079,-0.429 0.128,-0.481C0.176,-0.534 0.241,-0.56 0.323,-0.56C0.397,-0.56 0.455,-0.536 0.498,-0.489C0.541,-0.442 0.562,-0.377 0.562,-0.296ZM0.472,-0.322C0.472,-0.371 0.458,-0.411 0.431,-0.44C0.404,-0.469 0.368,-0.484 0.324,-0.484C0.274,-0.484 0.234,-0.47 0.204,-0.441C0.174,-0.413 0.156,-0.373 0.152,-0.322L0.472,-0.322Z" style="fill-rule:nonzero;"/>
            </g>
            <g transform="matrix(8.33333,0,0,8.33333,105.127,110)">
                <path d="M0.082,-0.729L0.551,-0.729L0.551,-0.687L0.286,-0L0.183,-0L0.432,-0.646L0.082,-0.646L0.082,-0.729Z" style="fill-rule:nonzero;"/>
            </g>
        </g>
        <g transform="matrix(1,0,0,1,604.636,93.0749)">
            <g transform="matrix(8.33333,0,0,8.33333,94.6981,110)">
                <path d="M0.562,-0.296L0.562,-0.252L0.149,-0.252C0.153,-0.19 0.171,-0.143 0.205,-0.111C0.238,-0.078 0.285,-0.062 0.344,-0.062C0.379,-0.062 0.412,-0.066 0.445,-0.075C0.477,-0.083 0.509,-0.096 0.541,-0.113L0.541,-0.028C0.509,-0.014 0.476,-0.004 0.442,0.003C0.408,0.011 0.374,0.014 0.339,0.014C0.252,0.014 0.183,-0.011 0.132,-0.062C0.081,-0.113 0.055,-0.181 0.055,-0.268C0.055,-0.358 0.079,-0.429 0.128,-0.481C0.176,-0.534 0.241,-0.56 0.323,-0.56C0.397,-0.56 0.455,-0.536 0.498,-0.489C0.541,-0.442 0.562,-0.377 0.562,-0.296ZM0.472,-0.322C0.472,-0.371 0.458,-0.411 0.431,-0.44C0.404,-0.469 0.368,-0.484 0.324,-0.484C0.274,-0.484 0.234,-0.47 0.204,-0.441C0.174,-0.413 0.156,-0.373 0.152,-0.322L0.472,-0.322Z" style="fill:white;fill-rule:nonzero;"/>
            </g>
            <g transform="matrix(8.33333,0,0,8.33333,99.825,110)">
                <path d="M0.124,-0.083L0.285,-0.083L0.285,-0.639L0.11,-0.604L0.11,-0.694L0.284,-0.729L0.383,-0.729L0.383,-0.083L0.544,-0.083L0.544,-0L0.124,-0L0.124,-0.083Z" style="fill:white;fill-rule:nonzero;"/>
            </g>
            <g transform="matrix(8.33333,0,0,8.33333,105.127,110)">
                <path d="M0.108,-0.729L0.495,-0.729L0.495,-0.646L0.198,-0.646L0.198,-0.467C0.213,-0.472 0.227,-0.476 0.241,-0.478C0.256,-0.481 0.27,-0.482 0.284,-0.482C0.366,-0.482 0.43,-0.46 0.478,-0.415C0.525,-0.37 0.549,-0.31 0.549,-0.234C0.549,-0.155 0.524,-0.094 0.476,-0.051C0.427,-0.008 0.358,0.014 0.269,0.014C0.238,0.014 0.207,0.012 0.176,0.006C0.144,0.001 0.111,-0.007 0.077,-0.017L0.077,-0.116C0.106,-0.1 0.137,-0.088 0.168,-0.081C0.199,-0.073 0.232,-0.069 0.267,-0.069C0.323,-0.069 0.368,-0.084 0.401,-0.113C0.434,-0.143 0.45,-0.183 0.45,-0.234C0.45,-0.285 0.434,-0.325 0.401,-0.354C0.368,-0.384 0.323,-0.399 0.267,-0.399C0.241,-0.399 0.214,-0.396 0.188,-0.39C0.162,-0.384 0.135,-0.375 0.108,-0.363L0.108,-0.729Z" style="fill:white;fill-rule:nonzero;"/>
            </g>
        </g>
        <g transform="matrix(1,0,0,1,334.92,59.882)">
            <g transform="matrix(8.33333,0,0,8.33333,100,110)">
                <path d="M0.562,-0.296L0.562,-0.252L0.149,-0.252C0.153,-0.19 0.171,-0.143 0.205,-0.111C0.238,-0.078 0.285,-0.062 0.344,-0.062C0.379,-0.062 0.412,-0.066 0.445,-0.075C0.477,-0.083 0.509,-0.096 0.541,-0.113L0.541,-0.028C0.509,-0.014 0.476,-0.004 0.442,0.003C0.408,0.011 0.374,0.014 0.339,0.014C0.252,0.014 0.183,-0.011 0.132,-0.062C0.081,-0.113 0.055,-0.181 0.055,-0.268C0.055,-0.358 0.079,-0.429 0.128,-0.481C0.176,-0.534 0.241,-0.56 0.323,-0.56C0.397,-0.56 0.455,-0.536 0.498,-0.489C0.541,-0.442 0.562,-0.377 0.562,-0.296ZM0.472,-0.322C0.472,-0.371 0.458,-0.411 0.431,-0.44C0.404,-0.469 0.368,-0.484 0.324,-0.484C0.274,-0.484 0.234,-0.47 0.204,-0.441C0.174,-0.413 0.156,-0.373 0.152,-0.322L0.472,-0.322Z" style="fill-rule:nonzero;"/>
            </g>
            <g transform="matrix(8.33333,0,0,8.33333,105.127,110)">
                <path d="M0.33,-0.404C0.286,-0.404 0.251,-0.389 0.225,-0.358C0.199,-0.328 0.186,-0.287 0.186,-0.234C0.186,-0.181 0.199,-0.14 0.225,-0.11C0.251,-0.079 0.286,-0.064 0.33,-0.064C0.374,-0.064 0.409,-0.079 0.435,-0.11C0.461,-0.14 0.474,-0.181 0.474,-0.234C0.474,-0.287 0.461,-0.328 0.435,-0.358C0.409,-0.389 0.374,-0.404 0.33,-0.404ZM0.526,-0.713L0.526,-0.623C0.501,-0.635 0.476,-0.644 0.451,-0.65C0.426,-0.656 0.401,-0.659 0.376,-0.659C0.311,-0.659 0.261,-0.637 0.227,-0.593C0.192,-0.549 0.173,-0.483 0.168,-0.394C0.187,-0.422 0.211,-0.444 0.24,-0.459C0.269,-0.474 0.301,-0.482 0.336,-0.482C0.409,-0.482 0.467,-0.46 0.51,-0.415C0.552,-0.371 0.573,-0.31 0.573,-0.234C0.573,-0.159 0.551,-0.099 0.507,-0.054C0.463,-0.008 0.404,0.014 0.33,0.014C0.246,0.014 0.181,-0.018 0.137,-0.083C0.092,-0.147 0.07,-0.241 0.07,-0.364C0.07,-0.479 0.097,-0.571 0.152,-0.639C0.207,-0.708 0.28,-0.742 0.372,-0.742C0.397,-0.742 0.422,-0.74 0.447,-0.735C0.472,-0.73 0.499,-0.723 0.526,-0.713Z" style="fill-rule:nonzero;"/>
            </g>
        </g>
        <g transform="matrix(1,0,0,1,459.611,-60.0216)">
            <g transform="matrix(8.33333,0,0,8.33333,100,110)">
                <path d="M0.562,-0.296L0.562,-0.252L0.149,-0.252C0.153,-0.19 0.171,-0.143 0.205,-0.111C0.238,-0.078 0.285,-0.062 0.344,-0.062C0.379,-0.062 0.412,-0.066 0.445,-0.075C0.477,-0.083 0.509,-0.096 0.541,-0.113L0.541,-0.028C0.509,-0.014 0.476,-0.004 0.442,0.003C0.408,0.011 0.374,0.014 0.339,0.014C0.252,0.014 0.183,-0.011 0.132,-0.062C0.081,-0.113 0.055,-0.181 0.055,-0.268C0.055,-0.358 0.079,-0.429 0.128,-0.481C0.176,-0.534 0.241,-0.56 0.323,-0.56C0.397,-0.56 0.455,-0.536 0.498,-0.489C0.541,-0.442 0.562,-0.377 0.562,-0.296ZM0.472,-0.322C0.472,-0.371 0.458,-0.411 0.431,-0.44C0.404,-0.469 0.368,-0.484 0.324,-0.484C0.274,-0.484 0.234,-0.47 0.204,-0.441C0.174,-0.413 0.156,-0.373 0.152,-0.322L0.472,-0.322Z" style="fill:white;fill-rule:nonzero;"/>
            </g>
            <g transform="matrix(8.33333,0,0,8.33333,105.127,110)">
                <path d="M0.124,-0.083L0.285,-0.083L0.285,-0.639L0.11,-0.604L0.11,-0.694L0.284,-0.729L0.383,-0.729L0.383,-0.083L0.544,-0.083L0.544,-0L0.124,-0L0.124,-0.083Z" style="fill:white;fill-rule:nonzero;"/>
            </g>
            <g transform="matrix(8.33333,0,0,8.33333,110.429,110)">
                <path d="M0.192,-0.083L0.536,-0.083L0.536,-0L0.073,-0L0.073,-0.083C0.111,-0.122 0.162,-0.174 0.226,-0.239C0.291,-0.304 0.332,-0.346 0.348,-0.365C0.38,-0.401 0.402,-0.431 0.414,-0.455C0.427,-0.48 0.433,-0.504 0.433,-0.528C0.433,-0.567 0.42,-0.598 0.392,-0.623C0.365,-0.647 0.33,-0.659 0.286,-0.659C0.255,-0.659 0.223,-0.654 0.188,-0.643C0.154,-0.632 0.117,-0.616 0.078,-0.594L0.078,-0.694C0.118,-0.71 0.155,-0.722 0.189,-0.73C0.224,-0.738 0.256,-0.742 0.284,-0.742C0.36,-0.742 0.42,-0.723 0.465,-0.686C0.51,-0.648 0.532,-0.597 0.532,-0.534C0.532,-0.504 0.527,-0.476 0.515,-0.449C0.504,-0.422 0.484,-0.39 0.454,-0.354C0.446,-0.345 0.42,-0.317 0.376,-0.272C0.333,-0.227 0.271,-0.164 0.192,-0.083Z" style="fill:white;fill-rule:nonzero;"/>
            </g>
        </g>
        <g transform="matrix(1,0,-0.962513,1,445.464,365.882)">
            <g transform="matrix(8.33333,0,0,8.33333,100,110)">
                <path d="M0.562,-0.296L0.562,-0.252L0.149,-0.252C0.153,-0.19 0.171,-0.143 0.205,-0.111C0.238,-0.078 0.285,-0.062 0.344,-0.062C0.379,-0.062 0.412,-0.066 0.445,-0.075C0.477,-0.083 0.509,-0.096 0.541,-0.113L0.541,-0.028C0.509,-0.014 0.476,-0.004 0.442,0.003C0.408,0.011 0.374,0.014 0.339,0.014C0.252,0.014 0.183,-0.011 0.132,-0.062C0.081,-0.113 0.055,-0.181 0.055,-0.268C0.055,-0.358 0.079,-0.429 0.128,-0.481C0.176,-0.534 0.241,-0.56 0.323,-0.56C0.397,-0.56 0.455,-0.536 0.498,-0.489C0.541,-0.442 0.562,-0.377 0.562,-0.296ZM0.472,-0.322C0.472,-0.371 0.458,-0.411 0.431,-0.44C0.404,-0.469 0.368,-0.484 0.324,-0.484C0.274,-0.484 0.234,-0.47 0.204,-0.441C0.174,-0.413 0.156,-0.373 0.152,-0.322L0.472,-0.322Z" style="fill:white;fill-rule:nonzero;"/>
            </g>
            <g transform="matrix(8.33333,0,0,8.33333,105.127,110)">
                <path d="M0.318,-0.664C0.267,-0.664 0.229,-0.639 0.203,-0.589C0.178,-0.539 0.165,-0.464 0.165,-0.364C0.165,-0.264 0.178,-0.189 0.203,-0.139C0.229,-0.089 0.267,-0.064 0.318,-0.064C0.369,-0.064 0.407,-0.089 0.433,-0.139C0.458,-0.189 0.471,-0.264 0.471,-0.364C0.471,-0.464 0.458,-0.539 0.433,-0.589C0.407,-0.639 0.369,-0.664 0.318,-0.664ZM0.318,-0.742C0.4,-0.742 0.462,-0.71 0.505,-0.645C0.548,-0.581 0.57,-0.487 0.57,-0.364C0.57,-0.241 0.548,-0.147 0.505,-0.083C0.462,-0.018 0.4,0.014 0.318,0.014C0.236,0.014 0.174,-0.018 0.131,-0.083C0.087,-0.147 0.066,-0.241 0.066,-0.364C0.066,-0.487 0.087,-0.581 0.131,-0.645C0.174,-0.71 0.236,-0.742 0.318,-0.742Z" style="fill:white;fill-rule:nonzero;"/>
            </g>
        </g>
        <g transform="matrix(1,0,-0.962513,1,445.464,45.7283)">
            <g transform="matrix(8.33333,0,0,8.33333,100,110)">
                <path d="M0.562,-0.296L0.562,-0.252L0.149,-0.252C0.153,-0.19 0.171,-0.143 0.205,-0.111C0.238,-0.078 0.285,-0.062 0.344,-0.062C0.379,-0.062 0.412,-0.066 0.445,-0.075C0.477,-0.083 0.509,-0.096 0.541,-0.113L0.541,-0.028C0.509,-0.014 0.476,-0.004 0.442,0.003C0.408,0.011 0.374,0.014 0.339,0.014C0.252,0.014 0.183,-0.011 0.132,-0.062C0.081,-0.113 0.055,-0.181 0.055,-0.268C0.055,-0.358 0.079,-0.429 0.128,-0.481C0.176,-0.534 0.241,-0.56 0.323,-0.56C0.397,-0.56 0.455,-0.536 0.498,-0.489C0.541,-0.442 0.562,-0.377 0.562,-0.296ZM0.472,-0.322C0.472,-0.371 0.458,-0.411 0.431,-0.44C0.404,-0.469 0.368,-0.484 0.324,-0.484C0.274,-0.484 0.234,-0.47 0.204,-0.441C0.174,-0.413 0.156,-0.373 0.152,-0.322L0.472,-0.322Z" style="fill-rule:nonzero;"/>
            </g>
            <g transform="matrix(8.33333,0,0,8.33333,105.127,110)">
                <path d="M0.318,-0.346C0.271,-0.346 0.234,-0.334 0.207,-0.309C0.18,-0.284 0.167,-0.249 0.167,-0.205C0.167,-0.161 0.18,-0.127 0.207,-0.102C0.234,-0.076 0.271,-0.064 0.318,-0.064C0.365,-0.064 0.402,-0.077 0.429,-0.102C0.456,-0.127 0.469,-0.161 0.469,-0.205C0.469,-0.249 0.456,-0.284 0.429,-0.309C0.402,-0.334 0.365,-0.346 0.318,-0.346ZM0.219,-0.388C0.177,-0.399 0.144,-0.418 0.12,-0.447C0.097,-0.476 0.085,-0.512 0.085,-0.553C0.085,-0.611 0.106,-0.658 0.147,-0.691C0.189,-0.725 0.246,-0.742 0.318,-0.742C0.39,-0.742 0.447,-0.725 0.489,-0.691C0.53,-0.658 0.551,-0.611 0.551,-0.553C0.551,-0.512 0.539,-0.476 0.515,-0.447C0.492,-0.418 0.459,-0.399 0.417,-0.388C0.465,-0.377 0.502,-0.355 0.528,-0.323C0.555,-0.291 0.568,-0.252 0.568,-0.205C0.568,-0.134 0.546,-0.08 0.503,-0.042C0.46,-0.005 0.398,0.014 0.318,0.014C0.237,0.014 0.176,-0.005 0.133,-0.042C0.089,-0.08 0.068,-0.134 0.068,-0.205C0.068,-0.252 0.081,-0.291 0.108,-0.323C0.135,-0.355 0.172,-0.377 0.219,-0.388ZM0.183,-0.544C0.183,-0.506 0.195,-0.477 0.219,-0.456C0.242,-0.434 0.275,-0.424 0.318,-0.424C0.36,-0.424 0.393,-0.434 0.417,-0.456C0.441,-0.477 0.453,-0.506 0.453,-0.544C0.453,-0.582 0.441,-0.611 0.417,-0.632C0.393,-0.653 0.36,-0.664 0.318,-0.664C0.275,-0.664 0.242,-0.653 0.219,-0.632C0.195,-0.611 0.183,-0.582 0.183,-0.544Z" style="fill-rule:nonzero;"/>
            </g>
        </g>
        <g transform="matrix(1,0,-0.962513,1,546.426,259.742)">
            <g transform="matrix(8.33333,0,0,8.33333,100,110)">
                <path d="M0.562,-0.296L0.562,-0.252L0.149,-0.252C0.153,-0.19 0.171,-0.143 0.205,-0.111C0.238,-0.078 0.285,-0.062 0.344,-0.062C0.379,-0.062 0.412,-0.066 0.445,-0.075C0.477,-0.083 0.509,-0.096 0.541,-0.113L0.541,-0.028C0.509,-0.014 0.476,-0.004 0.442,0.003C0.408,0.011 0.374,0.014 0.339,0.014C0.252,0.014 0.183,-0.011 0.132,-0.062C0.081,-0.113 0.055,-0.181 0.055,-0.268C0.055,-0.358 0.079,-0.429 0.128,-0.481C0.176,-0.534 0.241,-0.56 0.323,-0.56C0.397,-0.56 0.455,-0.536 0.498,-0.489C0.541,-0.442 0.562,-0.377 0.562,-0.296ZM0.472,-0.322C0.472,-0.371 0.458,-0.411 0.431,-0.44C0.404,-0.469 0.368,-0.484 0.324,-0.484C0.274,-0.484 0.234,-0.47 0.204,-0.441C0.174,-0.413 0.156,-0.373 0.152,-0.322L0.472,-0.322Z" style="fill:white;fill-rule:nonzero;"/>
            </g>
            <g transform="matrix(8.33333,0,0,8.33333,105.127,110)">
                <path d="M0.192,-0.083L0.536,-0.083L0.536,-0L0.073,-0L0.073,-0.083C0.111,-0.122 0.162,-0.174 0.226,-0.239C0.291,-0.304 0.332,-0.346 0.348,-0.365C0.38,-0.401 0.402,-0.431 0.414,-0.455C0.427,-0.48 0.433,-0.504 0.433,-0.528C0.433,-0.567 0.42,-0.598 0.392,-0.623C0.365,-0.647 0.33,-0.659 0.286,-0.659C0.255,-0.659 0.223,-0.654 0.188,-0.643C0.154,-0.632 0.117,-0.616 0.078,-0.594L0.078,-0.694C0.118,-0.71 0.155,-0.722 0.189,-0.73C0.224,-0.738 0.256,-0.742 0.284,-0.742C0.36,-0.742 0.42,-0.723 0.465,-0.686C0.51,-0.648 0.532,-0.597 0.532,-0.534C0.532,-0.504 0.527,-0.476 0.515,-0.449C0.504,-0.422 0.484,-0.39 0.454,-0.354C0.446,-0.345 0.42,-0.317 0.376,-0.272C0.333,-0.227 0.271,-0.164 0.192,-0.083Z" style="fill:white;fill-rule:nonzero;"/>
            </g>
        </g>
        <g transform="matrix(1,0,-0.962513,1,546.108,-60.4115)">
            <g transform="matrix(8.33333,0,0,8.33333,97.349,110)">
                <path d="M0.562,-0.296L0.562,-0.252L0.149,-0.252C0.153,-0.19 0.171,-0.143 0.205,-0.111C0.238,-0.078 0.285,-0.062 0.344,-0.062C0.379,-0.062 0.412,-0.066 0.445,-0.075C0.477,-0.083 0.509,-0.096 0.541,-0.113L0.541,-0.028C0.509,-0.014 0.476,-0.004 0.442,0.003C0.408,0.011 0.374,0.014 0.339,0.014C0.252,0.014 0.183,-0.011 0.132,-0.062C0.081,-0.113 0.055,-0.181 0.055,-0.268C0.055,-0.358 0.079,-0.429 0.128,-0.481C0.176,-0.534 0.241,-0.56 0.323,-0.56C0.397,-0.56 0.455,-0.536 0.498,-0.489C0.541,-0.442 0.562,-0.377 0.562,-0.296ZM0.472,-0.322C0.472,-0.371 0.458,-0.411 0.431,-0.44C0.404,-0.469 0.368,-0.484 0.324,-0.484C0.274,-0.484 0.234,-0.47 0.204,-0.441C0.174,-0.413 0.156,-0.373 0.152,-0.322L0.472,-0.322Z" style="fill-rule:nonzero;"/>
            </g>
            <g transform="matrix(8.33333,0,0,8.33333,102.476,110)">
                <path d="M0.124,-0.083L0.285,-0.083L0.285,-0.639L0.11,-0.604L0.11,-0.694L0.284,-0.729L0.383,-0.729L0.383,-0.083L0.544,-0.083L0.544,-0L0.124,-0L0.124,-0.083Z" style="fill-rule:nonzero;"/>
            </g>
            <g transform="matrix(8.33333,0,0,8.33333,107.778,110)">
                <path d="M0.318,-0.664C0.267,-0.664 0.229,-0.639 0.203,-0.589C0.178,-0.539 0.165,-0.464 0.165,-0.364C0.165,-0.264 0.178,-0.189 0.203,-0.139C0.229,-0.089 0.267,-0.064 0.318,-0.064C0.369,-0.064 0.407,-0.089 0.433,-0.139C0.458,-0.189 0.471,-0.264 0.471,-0.364C0.471,-0.464 0.458,-0.539 0.433,-0.589C0.407,-0.639 0.369,-0.664 0.318,-0.664ZM0.318,-0.742C0.4,-0.742 0.462,-0.71 0.505,-0.645C0.548,-0.581 0.57,-0.487 0.57,-0.364C0.57,-0.241 0.548,-0.147 0.505,-0.083C0.462,-0.018 0.4,0.014 0.318,0.014C0.236,0.014 0.174,-0.018 0.131,-0.083C0.087,-0.147 0.066,-0.241 0.066,-0.364C0.066,-0.487 0.087,-0.581 0.131,-0.645C0.174,-0.71 0.236,-0.742 0.318,-0.742Z" style="fill-rule:nonzero;"/>
            </g>
        </g>
        <g transform="matrix(1,0,-0.962513,1,644.283,313.033)">
            <g transform="matrix(8.33333,0,0,8.33333,100,110)">
                <path d="M0.562,-0.296L0.562,-0.252L0.149,-0.252C0.153,-0.19 0.171,-0.143 0.205,-0.111C0.238,-0.078 0.285,-0.062 0.344,-0.062C0.379,-0.062 0.412,-0.066 0.445,-0.075C0.477,-0.083 0.509,-0.096 0.541,-0.113L0.541,-0.028C0.509,-0.014 0.476,-0.004 0.442,0.003C0.408,0.011 0.374,0.014 0.339,0.014C0.252,0.014 0.183,-0.011 0.132,-0.062C0.081,-0.113 0.055,-0.181 0.055,-0.268C0.055,-0.358 0.079,-0.429 0.128,-0.481C0.176,-0.534 0.241,-0.56 0.323,-0.56C0.397,-0.56 0.455,-0.536 0.498,-0.489C0.541,-0.442 0.562,-0.377 0.562,-0.296ZM0.472,-0.322C0.472,-0.371 0.458,-0.411 0.431,-0.44C0.404,-0.469 0.368,-0.484 0.324,-0.484C0.274,-0.484 0.234,-0.47 0.204,-0.441C0.174,-0.413 0.156,-0.373 0.152,-0.322L0.472,-0.322Z" style="fill:white;fill-rule:nonzero;"/>
            </g>
            <g transform="matrix(8.33333,0,0,8.33333,105.127,110)">
                <path d="M0.124,-0.083L0.285,-0.083L0.285,-0.639L0.11,-0.604L0.11,-0.694L0.284,-0.729L0.383,-0.729L0.383,-0.083L0.544,-0.083L0.544,-0L0.124,-0L0.124,-0.083Z" style="fill:white;fill-rule:nonzero;"/>
            </g>
        </g>
        <g transform="matrix(1,0,-0.962513,1,644.283,-7.12028)">
            <g transform="matrix(8.33333,0,0,8.33333,94.6981,110)">
                <path d="M0.562,-0.296L0.562,-0.252L0.149,-0.252C0.153,-0.19 0.171,-0.143 0.205,-0.111C0.238,-0.078 0.285,-0.062 0.344,-0.062C0.379,-0.062 0.412,-0.066 0.445,-0.075C0.477,-0.083 0.509,-0.096 0.541,-0.113L0.541,-0.028C0.509,-0.014 0.476,-0.004 0.442,0.003C0.408,0.011 0.374,0.014 0.339,0.014C0.252,0.014 0.183,-0.011 0.132,-0.062C0.081,-0.113 0.055,-0.181 0.055,-0.268C0.055,-0.358 0.079,-0.429 0.128,-0.481C0.176,-0.534 0.241,-0.56 0.323,-0.56C0.397,-0.56 0.455,-0.536 0.498,-0.489C0.541,-0.442 0.562,-0.377 0.562,-0.296ZM0.472,-0.322C0.472,-0.371 0.458,-0.411 0.431,-0.44C0.404,-0.469 0.368,-0.484 0.324,-0.484C0.274,-0.484 0.234,-0.47 0.204,-0.441C0.174,-0.413 0.156,-0.373 0.152,-0.322L0.472,-0.322Z" style="fill-rule:nonzero;"/>
            </g>
            <g transform="matrix(8.33333,0,0,8.33333,99.825,110)">
                <path d="M0.124,-0.083L0.285,-0.083L0.285,-0.639L0.11,-0.604L0.11,-0.694L0.284,-0.729L0.383,-0.729L0.383,-0.083L0.544,-0.083L0.544,-0L0.124,-0L0.124,-0.083Z" style="fill-rule:nonzero;"/>
            </g>
            <g transform="matrix(8.33333,0,0,8.33333,105.127,110)">
                <path d="M0.124,-0.083L0.285,-0.083L0.285,-0.639L0.11,-0.604L0.11,-0.694L0.284,-0.729L0.383,-0.729L0.383,-0.083L0.544,-0.083L0.544,-0L0.124,-0L0.124,-0.083Z" style="fill-rule:nonzero;"/>
            </g>
        </g>
        <g transform="matrix(1,0,-0.962513,1,350.351,313.033)">
            <g transform="matrix(8.33333,0,0,8.33333,100,110)">
                <path d="M0.562,-0.296L0.562,-0.252L0.149,-0.252C0.153,-0.19 0.171,-0.143 0.205,-0.111C0.238,-0.078 0.285,-0.062 0.344,-0.062C0.379,-0.062 0.412,-0.066 0.445,-0.075C0.477,-0.083 0.509,-0.096 0.541,-0.113L0.541,-0.028C0.509,-0.014 0.476,-0.004 0.442,0.003C0.408,0.011 0.374,0.014 0.339,0.014C0.252,0.014 0.183,-0.011 0.132,-0.062C0.081,-0.113 0.055,-0.181 0.055,-0.268C0.055,-0.358 0.079,-0.429 0.128,-0.481C0.176,-0.534 0.241,-0.56 0.323,-0.56C0.397,-0.56 0.455,-0.536 0.498,-0.489C0.541,-0.442 0.562,-0.377 0.562,-0.296ZM0.472,-0.322C0.472,-0.371 0.458,-0.411 0.431,-0.44C0.404,-0.469 0.368,-0.484 0.324,-0.484C0.274,-0.484 0.234,-0.47 0.204,-0.441C0.174,-0.413 0.156,-0.373 0.152,-0.322L0.472,-0.322Z" style="fill:white;fill-rule:nonzero;"/>
            </g>
            <g transform="matrix(8.33333,0,0,8.33333,105.127,110)">
                <path d="M0.406,-0.393C0.453,-0.383 0.49,-0.362 0.516,-0.33C0.543,-0.298 0.556,-0.259 0.556,-0.212C0.556,-0.14 0.531,-0.084 0.482,-0.045C0.432,-0.006 0.362,0.014 0.271,0.014C0.24,0.014 0.209,0.011 0.177,0.005C0.144,-0.001 0.111,-0.01 0.076,-0.022L0.076,-0.117C0.104,-0.101 0.133,-0.089 0.166,-0.081C0.199,-0.073 0.233,-0.069 0.268,-0.069C0.33,-0.069 0.377,-0.081 0.409,-0.105C0.442,-0.13 0.458,-0.165 0.458,-0.212C0.458,-0.255 0.443,-0.288 0.413,-0.313C0.383,-0.337 0.341,-0.349 0.287,-0.349L0.202,-0.349L0.202,-0.43L0.291,-0.43C0.34,-0.43 0.377,-0.44 0.402,-0.459C0.428,-0.479 0.441,-0.507 0.441,-0.543C0.441,-0.58 0.428,-0.609 0.401,-0.629C0.375,-0.649 0.337,-0.659 0.287,-0.659C0.26,-0.659 0.231,-0.656 0.2,-0.65C0.169,-0.645 0.135,-0.635 0.098,-0.623L0.098,-0.711C0.136,-0.721 0.171,-0.729 0.203,-0.734C0.236,-0.74 0.267,-0.742 0.296,-0.742C0.371,-0.742 0.43,-0.725 0.474,-0.691C0.517,-0.657 0.539,-0.611 0.539,-0.553C0.539,-0.513 0.528,-0.479 0.504,-0.451C0.481,-0.423 0.448,-0.404 0.406,-0.393Z" style="fill:white;fill-rule:nonzero;"/>
            </g>
        </g>
        <g transform="matrix(1,0,-0.962513,1,350.351,-7.12028)">
            <g transform="matrix(8.33333,0,0,8.33333,100,110)">
                <path d="M0.562,-0.296L0.562,-0.252L0.149,-0.252C0.153,-0.19 0.171,-0.143 0.205,-0.111C0.238,-0.078 0.285,-0.062 0.344,-0.062C0.379,-0.062 0.412,-0.066 0.445,-0.075C0.477,-0.083 0.509,-0.096 0.541,-0.113L0.541,-0.028C0.509,-0.014 0.476,-0.004 0.442,0.003C0.408,0.011 0.374,0.014 0.339,0.014C0.252,0.014 0.183,-0.011 0.132,-0.062C0.081,-0.113 0.055,-0.181 0.055,-0.268C0.055,-0.358 0.079,-0.429 0.128,-0.481C0.176,-0.534 0.241,-0.56 0.323,-0.56C0.397,-0.56 0.455,-0.536 0.498,-0.489C0.541,-0.442 0.562,-0.377 0.562,-0.296ZM0.472,-0.322C0.472,-0.371 0.458,-0.411 0.431,-0.44C0.404,-0.469 0.368,-0.484 0.324,-0.484C0.274,-0.484 0.234,-0.47 0.204,-0.441C0.174,-0.413 0.156,-0.373 0.152,-0.322L0.472,-0.322Z" style="fill-rule:nonzero;"/>
            </g>
            <g transform="matrix(8.33333,0,0,8.33333,105.127,110)">
                <path d="M0.11,-0.015L0.11,-0.105C0.135,-0.093 0.16,-0.084 0.185,-0.078C0.21,-0.072 0.235,-0.069 0.26,-0.069C0.325,-0.069 0.375,-0.091 0.409,-0.135C0.443,-0.178 0.463,-0.245 0.468,-0.334C0.449,-0.306 0.425,-0.285 0.396,-0.27C0.367,-0.255 0.335,-0.247 0.3,-0.247C0.227,-0.247 0.169,-0.269 0.127,-0.313C0.084,-0.357 0.063,-0.418 0.063,-0.494C0.063,-0.569 0.085,-0.629 0.129,-0.674C0.174,-0.72 0.233,-0.742 0.306,-0.742C0.39,-0.742 0.455,-0.71 0.499,-0.645C0.544,-0.581 0.566,-0.487 0.566,-0.364C0.566,-0.249 0.539,-0.157 0.484,-0.089C0.43,-0.02 0.356,0.014 0.264,0.014C0.239,0.014 0.214,0.012 0.189,0.007C0.164,0.002 0.137,-0.005 0.11,-0.015ZM0.306,-0.324C0.35,-0.324 0.385,-0.339 0.411,-0.37C0.437,-0.4 0.45,-0.441 0.45,-0.494C0.45,-0.547 0.437,-0.588 0.411,-0.618C0.385,-0.649 0.35,-0.664 0.306,-0.664C0.262,-0.664 0.227,-0.649 0.201,-0.618C0.175,-0.588 0.162,-0.547 0.162,-0.494C0.162,-0.441 0.175,-0.4 0.201,-0.37C0.227,-0.339 0.262,-0.324 0.306,-0.324Z" style="fill-rule:nonzero;"/>
            </g>
        </g>
        <g id="faces">
            <g transform="matrix(0.760625,-0.77922,2.53473e-17,1.08747,570.579,162.289)">
                <g transform="matrix(16.4604,0,0,16.4604,110,180)">
                    <path d="M0.371,-0.76L0.371,-0.685L0.285,-0.685C0.253,-0.685 0.231,-0.679 0.218,-0.666C0.205,-0.653 0.199,-0.629 0.199,-0.595L0.199,-0.547L0.347,-0.547L0.347,-0.477L0.199,-0.477L0.199,-0L0.109,-0L0.109,-0.477L0.023,-0.477L0.023,-0.547L0.109,-0.547L0.109,-0.585C0.109,-0.646 0.123,-0.69 0.151,-0.718C0.18,-0.746 0.225,-0.76 0.286,-0.76L0.371,-0.76Z" style="fill-rule:nonzero;"/>
                </g>
                <g transform="matrix(16.4604,0,0,16.4604,115.795,180)">
                    <path d="M0.108,-0.729L0.495,-0.729L0.495,-0.646L0.198,-0.646L0.198,-0.467C0.213,-0.472 0.227,-0.476 0.241,-0.478C0.256,-0.481 0.27,-0.482 0.284,-0.482C0.366,-0.482 0.43,-0.46 0.478,-0.415C0.525,-0.37 0.549,-0.31 0.549,-0.234C0.549,-0.155 0.524,-0.094 0.476,-0.051C0.427,-0.008 0.358,0.014 0.269,0.014C0.238,0.014 0.207,0.012 0.176,0.006C0.144,0.001 0.111,-0.007 0.077,-0.017L0.077,-0.116C0.106,-0.1 0.137,-0.088 0.168,-0.081C0.199,-0.073 0.232,-0.069 0.267,-0.069C0.323,-0.069 0.368,-0.084 0.401,-0.113C0.434,-0.143 0.45,-0.183 0.45,-0.234C0.45,-0.285 0.434,-0.325 0.401,-0.354C0.368,-0.384 0.323,-0.399 0.267,-0.399C0.241,-0.399 0.214,-0.396 0.188,-0.39C0.162,-0.384 0.135,-0.375 0.108,-0.363L0.108,-0.729Z" style="fill-rule:nonzero;"/>
                </g>
            </g>
            <g transform="matrix(0.760625,-0.77922,2.53473e-17,1.08747,251.044,161.905)">
                <g transform="matrix(16.4604,0,0,16.4604,110,180)">
                    <path d="M0.371,-0.76L0.371,-0.685L0.285,-0.685C0.253,-0.685 0.231,-0.679 0.218,-0.666C0.205,-0.653 0.199,-0.629 0.199,-0.595L0.199,-0.547L0.347,-0.547L0.347,-0.477L0.199,-0.477L0.199,-0L0.109,-0L0.109,-0.477L0.023,-0.477L0.023,-0.547L0.109,-0.547L0.109,-0.585C0.109,-0.646 0.123,-0.69 0.151,-0.718C0.18,-0.746 0.225,-0.76 0.286,-0.76L0.371,-0.76Z" style="fill:white;fill-rule:nonzero;"/>
                </g>
                <g transform="matrix(16.4604,0,0,16.4604,115.795,180)">
                    <path d="M0.378,-0.643L0.129,-0.254L0.378,-0.254L0.378,-0.643ZM0.352,-0.729L0.476,-0.729L0.476,-0.254L0.58,-0.254L0.58,-0.172L0.476,-0.172L0.476,-0L0.378,-0L0.378,-0.172L0.049,-0.172L0.049,-0.267L0.352,-0.729Z" style="fill:white;fill-rule:nonzero;"/>
                </g>
            </g>
            <g transform="matrix(1.08716,0.0140545,0,1.08716,312.19,129.427)">
                <g transform="matrix(16.4604,0,0,16.4604,110,180)">
                    <path d="M0.371,-0.76L0.371,-0.685L0.285,-0.685C0.253,-0.685 0.231,-0.679 0.218,-0.666C0.205,-0.653 0.199,-0.629 0.199,-0.595L0.199,-0.547L0.347,-0.547L0.347,-0.477L0.199,-0.477L0.199,-0L0.109,-0L0.109,-0.477L0.023,-0.477L0.023,-0.547L0.109,-0.547L0.109,-0.585C0.109,-0.646 0.123,-0.69 0.151,-0.718C0.18,-0.746 0.225,-0.76 0.286,-0.76L0.371,-0.76Z" style="fill-rule:nonzero;"/>
                </g>
                <g transform="matrix(16.4604,0,0,16.4604,115.795,180)">
                    <path d="M0.124,-0.083L0.285,-0.083L0.285,-0.639L0.11,-0.604L0.11,-0.694L0.284,-0.729L0.383,-0.729L0.383,-0.083L0.544,-0.083L0.544,-0L0.124,-0L0.124,-0.083Z" style="fill-rule:nonzero;"/>
                </g>
            </g>
            <g transform="matrix(1.08716,0.0140545,0,1.08716,432.19,9.42651)">
                <g transform="matrix(16.4604,0,0,16.4604,110,180)">
                    <path d="M0.371,-0.76L0.371,-0.685L0.285,-0.685C0.253,-0.685 0.231,-0.679 0.218,-0.666C0.205,-0.653 0.199,-0.629 0.199,-0.595L0.199,-0.547L0.347,-0.547L0.347,-0.477L0.199,-0.477L0.199,-0L0.109,-0L0.109,-0.477L0.023,-0.477L0.023,-0.547L0.109,-0.547L0.109,-0.585C0.109,-0.646 0.123,-0.69 0.151,-0.718C0.18,-0.746 0.225,-0.76 0.286,-0.76L0.371,-0.76Z" style="fill:white;fill-rule:nonzero;"/>
                </g>
                <g transform="matrix(16.4604,0,0,16.4604,115.795,180)">
                    <path d="M0.406,-0.393C0.453,-0.383 0.49,-0.362 0.516,-0.33C0.543,-0.298 0.556,-0.259 0.556,-0.212C0.556,-0.14 0.531,-0.084 0.482,-0.045C0.432,-0.006 0.362,0.014 0.271,0.014C0.24,0.014 0.209,0.011 0.177,0.005C0.144,-0.001 0.111,-0.01 0.076,-0.022L0.076,-0.117C0.104,-0.101 0.133,-0.089 0.166,-0.081C0.199,-0.073 0.233,-0.069 0.268,-0.069C0.33,-0.069 0.377,-0.081 0.409,-0.105C0.442,-0.13 0.458,-0.165 0.458,-0.212C0.458,-0.255 0.443,-0.288 0.413,-0.313C0.383,-0.337 0.341,-0.349 0.287,-0.349L0.202,-0.349L0.202,-0.43L0.291,-0.43C0.34,-0.43 0.377,-0.44 0.402,-0.459C0.428,-0.479 0.441,-0.507 0.441,-0.543C0.441,-0.58 0.428,-0.609 0.401,-0.629C0.375,-0.649 0.337,-0.659 0.287,-0.659C0.26,-0.659 0.231,-0.656 0.2,-0.65C0.169,-0.645 0.135,-0.635 0.098,-0.623L0.098,-0.711C0.136,-0.721 0.171,-0.729 0.203,-0.734C0.236,-0.74 0.267,-0.742 0.296,-0.742C0.371,-0.742 0.43,-0.725 0.474,-0.691C0.517,-0.657 0.539,-0.611 0.539,-0.553C0.539,-0.513 0.528,-0.479 0.504,-0.451C0.481,-0.423 0.448,-0.404 0.406,-0.393Z" style="fill:white;fill-rule:nonzero;"/>
                </g>
            </g>
            <g transform="matrix(1.39172,0.0179919,-0.85876,0.819268,486.717,-44.4989)">
                <g transform="matrix(16.4604,0,0,16.4604,110,180)">
                    <path d="M0.371,-0.76L0.371,-0.685L0.285,-0.685C0.253,-0.685 0.231,-0.679 0.218,-0.666C0.205,-0.653 0.199,-0.629 0.199,-0.595L0.199,-0.547L0.347,-0.547L0.347,-0.477L0.199,-0.477L0.199,-0L0.109,-0L0.109,-0.477L0.023,-0.477L0.023,-0.547L0.109,-0.547L0.109,-0.585C0.109,-0.646 0.123,-0.69 0.151,-0.718C0.18,-0.746 0.225,-0.76 0.286,-0.76L0.371,-0.76Z" style="fill-rule:nonzero;"/>
                </g>
                <g transform="matrix(16.4604,0,0,16.4604,115.795,180)">
                    <path d="M0.192,-0.083L0.536,-0.083L0.536,-0L0.073,-0L0.073,-0.083C0.111,-0.122 0.162,-0.174 0.226,-0.239C0.291,-0.304 0.332,-0.346 0.348,-0.365C0.38,-0.401 0.402,-0.431 0.414,-0.455C0.427,-0.48 0.433,-0.504 0.433,-0.528C0.433,-0.567 0.42,-0.598 0.392,-0.623C0.365,-0.647 0.33,-0.659 0.286,-0.659C0.255,-0.659 0.223,-0.654 0.188,-0.643C0.154,-0.632 0.117,-0.616 0.078,-0.594L0.078,-0.694C0.118,-0.71 0.155,-0.722 0.189,-0.73C0.224,-0.738 0.256,-0.742 0.284,-0.742C0.36,-0.742 0.42,-0.723 0.465,-0.686C0.51,-0.648 0.532,-0.597 0.532,-0.534C0.532,-0.504 0.527,-0.476 0.515,-0.449C0.504,-0.422 0.484,-0.39 0.454,-0.354C0.446,-0.345 0.42,-0.317 0.376,-0.272C0.333,-0.227 0.271,-0.164 0.192,-0.083Z" style="fill-rule:nonzero;"/>
                </g>
            </g>
            <g transform="matrix(1.39172,0.0179919,-0.85876,0.819268,486.717,275.501)">
                <g transform="matrix(16.4604,0,0,16.4604,110,180)">
                    <path d="M0.371,-0.76L0.371,-0.685L0.285,-0.685C0.253,-0.685 0.231,-0.679 0.218,-0.666C0.205,-0.653 0.199,-0.629 0.199,-0.595L0.199,-0.547L0.347,-0.547L0.347,-0.477L0.199,-0.477L0.199,-0L0.109,-0L0.109,-0.477L0.023,-0.477L0.023,-0.547L0.109,-0.547L0.109,-0.585C0.109,-0.646 0.123,-0.69 0.151,-0.718C0.18,-0.746 0.225,-0.76 0.286,-0.76L0.371,-0.76Z" style="fill:white;fill-rule:nonzero;"/>
                </g>
                <g transform="matrix(16.4604,0,0,16.4604,115.795,180)">
                    <path d="M0.318,-0.664C0.267,-0.664 0.229,-0.639 0.203,-0.589C0.178,-0.539 0.165,-0.464 0.165,-0.364C0.165,-0.264 0.178,-0.189 0.203,-0.139C0.229,-0.089 0.267,-0.064 0.318,-0.064C0.369,-0.064 0.407,-0.089 0.433,-0.139C0.458,-0.189 0.471,-0.264 0.471,-0.364C0.471,-0.464 0.458,-0.539 0.433,-0.589C0.407,-0.639 0.369,-0.664 0.318,-0.664ZM0.318,-0.742C0.4,-0.742 0.462,-0.71 0.505,-0.645C0.548,-0.581 0.57,-0.487 0.57,-0.364C0.57,-0.241 0.548,-0.147 0.505,-0.083C0.462,-0.018 0.4,0.014 0.318,0.014C0.236,0.014 0.174,-0.018 0.131,-0.083C0.087,-0.147 0.066,-0.241 0.066,-0.364C0.066,-0.487 0.087,-0.581 0.131,-0.645C0.174,-0.71 0.236,-0.742 0.318,-0.742Z" style="fill:white;fill-rule:nonzero;"/>
                </g>
            </g>
        </g>
        <g id="face-orientation" serif:id="face orientation">
            <g transform="matrix(1,0,0,1,1,0)">
                <g transform="matrix(0.181818,0,0,0.181818,409.091,343.636)">
                    <path d="M280,480C280,480 484.43,479.991 566.504,479.988C587.96,479.987 608.537,471.463 623.708,456.292C643.526,436.474 671.811,408.189 692.6,387.4C697.19,382.81 698.564,375.906 696.079,369.908C693.595,363.911 687.742,360 681.25,360C616.566,360 487.965,360 429.8,360C410.72,360 392.42,367.58 378.928,381.072C358.045,401.955 329.153,430.847 329.153,430.847" style="fill:none;stroke:white;stroke-width:7.77px;"/>
                </g>
                <g transform="matrix(0.5,0,-0.306818,0.306818,365.068,280.864)">
                    <path d="M480,440L490,460L500,440" style="fill:none;stroke:white;stroke-width:5.51px;"/>
                </g>
            </g>
            <g transform="matrix(1,2.46519e-32,2.15417,-1,-904.25,520.091)">
                <g transform="matrix(0.181818,0,0,0.181818,409.091,343.636)">
                    <path d="M280,480C280,480 461.767,479.992 551.321,479.989C558.903,479.988 575.834,475.278 593.785,468.174C611.737,461.071 626.931,453.069 631.896,448.104C650.743,429.257 674.374,405.626 692.417,387.583C710.207,369.793 705.045,360 677.877,360C614.884,360 497.144,360 437.171,360C431.383,360 418.459,363.596 404.754,369.019C391.049,374.442 379.449,380.551 375.659,384.341C355.16,404.84 329.153,430.847 329.153,430.847" style="fill:none;stroke:black;stroke-width:3.32px;"/>
                </g>
                <g transform="matrix(0.5,0,-0.306818,0.306818,365.068,280.864)">
                    <path d="M480,440L490,460L500,440" style="fill:none;stroke:black;stroke-width:2.2px;"/>
                </g>
            </g>
            <g transform="matrix(1.19998,0,0,1.19998,-112.005,-21.9948)">
                <g transform="matrix(0.181818,0,0.181885,-0.181818,283.612,365.455)">
                    <path d="M334.93,525.009C334.93,525.009 467.868,525.004 527.1,525.001C534.499,525.001 544.535,522.061 555,516.828C565.464,511.596 575.5,504.5 582.899,497.101C615.671,464.329 669.307,410.693 698.841,381.159C710.528,369.472 710.528,360 698.841,360C658.033,359.999 568.635,359.997 524.959,359.996C518.325,359.996 509.327,362.632 499.944,367.323C490.561,372.015 481.562,378.377 474.929,385.011C454.538,405.402 429.097,430.842 429.097,430.842" style="fill:none;stroke:black;stroke-width:4.09px;"/>
                </g>
                <g transform="matrix(0.5,0,0.000112007,-0.306818,176.794,428.227)">
                    <path d="M516.342,439.997L526.342,459.997L536.342,439.997" style="fill:none;stroke:black;stroke-width:2.84px;"/>
                </g>
            </g>
            <g transform="matrix(-1.19998,0,0,1.19998,1112,-141.995)">
                <g transform="matrix(0.181818,0,0.181885,-0.181818,283.612,365.455)">
                    <path d="M334.93,525.009C334.93,525.009 467.868,525.004 527.1,525.001C534.499,525.001 544.535,522.061 555,516.828C565.464,511.596 575.5,504.5 582.899,497.101C615.671,464.329 669.307,410.693 698.841,381.159C710.528,369.472 710.528,360 698.841,360C658.033,359.999 568.635,359.997 524.959,359.996C518.325,359.996 509.327,362.632 499.944,367.323C490.561,372.015 481.562,378.377 474.929,385.011C454.538,405.402 429.097,430.842 429.097,430.842" style="fill:none;stroke:white;stroke-width:4.09px;"/>
                </g>
                <g transform="matrix(0.5,0,0.000112007,-0.306818,176.794,428.227)">
                    <path d="M516.342,439.997L526.342,459.997L536.342,439.997" style="fill:none;stroke:white;stroke-width:2.84px;"/>
                </g>
            </g>
            <g transform="matrix(0.746902,-0.626191,1.46955e-16,-1.19998,-3.59255,890.895)">
                <g transform="matrix(0.181818,0,0.181885,-0.181818,283.612,365.455)">
                    <path d="M334.93,525.009C334.93,525.009 473.015,525.003 530.424,525.001C546.002,525 562.31,517.69 574.965,505.035C604.066,475.934 658.279,421.721 691.549,388.451C696.708,383.292 699.105,376.096 697.697,369.997C696.288,363.898 691.329,360 684.979,359.999C640.01,359.998 563.138,359.997 524.15,359.996C508.807,359.996 492.744,367.196 480.279,379.66C459.314,400.626 429.097,430.842 429.097,430.842" style="fill:none;stroke:white;stroke-width:7.35px;"/>
                </g>
                <g transform="matrix(0.5,0,0.000112007,-0.306818,176.794,428.227)">
                    <path d="M516.342,439.997L526.342,459.997L536.342,439.997" style="fill:none;stroke:white;stroke-width:5.29px;"/>
                </g>
            </g>
            <g transform="matrix(-0.745278,0.628123,-0.0030605,-1.182,1003.8,309.146)">
                <g transform="matrix(0.181818,0,0.181885,-0.181818,283.612,365.455)">
                    <path d="M334.93,525.009C334.93,525.009 449.036,525.004 512.92,525.002C520.547,525.001 535.944,520.247 552.403,512.809C568.862,505.372 583.402,496.598 589.69,490.31C622.949,457.051 672.038,407.962 699.492,380.508C712.492,367.508 710.893,360 695.126,360C658.492,359.999 589.477,359.997 544.107,359.997C536.102,359.996 519.943,364.986 502.668,372.792C485.394,380.598 470.133,389.807 463.533,396.406C446.157,413.783 429.097,430.842 429.097,430.842" style="fill:none;stroke:black;stroke-width:3.85px;"/>
                </g>
                <g transform="matrix(0.5,0,0.000112007,-0.306818,176.794,428.227)">
                    <path d="M516.342,439.997L526.342,459.997L536.342,439.997" style="fill:none;stroke:black;stroke-width:2.59px;"/>
                </g>
            </g>
        </g>
        <path d="M280.014,480.014L300,480.014" style="fill:none;stroke:rgb(0,0,255);stroke-width:4.71px;"/>
        <g transform="matrix(6.12323e-17,1,-1,6.12323e-17,1080.01,-120.014)">
            <path d="M280.014,480.014L300,480.014" style="fill:none;stroke:rgb(0,0,255);stroke-width:4.71px;"/>
        </g>
        <g transform="matrix(1,0,0,1,0,-320.014)">
            <path d="M280.014,480.014L300,480.014" style="fill:none;stroke:rgb(0,0,255);stroke-width:4.71px;"/>
        </g>
        <g transform="matrix(1,0,0,1,119.986,-440.014)">
            <path d="M280.014,480.014L300,480.014" style="fill:none;stroke:rgb(0,0,255);stroke-width:4.71px;"/>
        </g>
        <path d="M599.986,480L614,466" style="fill:none;stroke:rgb(0,0,255);stroke-width:4.71px;"/>
        <g transform="matrix(1,0,0,1,106,-426)">
            <path d="M599.986,480L614,466" style="fill:none;stroke:rgb(0,0,255);stroke-width:4.71px;"/>
        </g>
    </g>
</svg>
