<?xml version="1.0" encoding="UTF-8" standalone="no"?>
<!DOCTYPE svg PUBLIC "-//W3C//DTD SVG 1.1//EN" "http://www.w3.org/Graphics/SVG/1.1/DTD/svg11.dtd">
<svg width="100%" height="100%" viewBox="0 0 3840 2160" version="1.1" xmlns="http://www.w3.org/2000/svg" xmlns:xlink="http://www.w3.org/1999/xlink" xml:space="preserve" xmlns:serif="http://www.serif.com/" style="fill-rule:evenodd;clip-rule:evenodd;stroke-linecap:round;stroke-linejoin:round;stroke-miterlimit:1.5;">
    <g id="Basic">
        <g transform="matrix(2.25707,0,0,1.51757,0,0)">
            <rect x="0" y="0" width="1701.32" height="1423.33"/>
        </g>
        <g id="TAG_lines">
            <g transform="matrix(1,0,0,1,2905.9,1752)">
                <text id="TAG" x="342.215px" y="264px" style="font-family:'Poppins-ExtraLightItalic', 'Poppins';font-weight:275;font-style:italic;font-size:20.48px;">Julius_Überall_GeneticMeshGrowth</text>
            </g>
            <g transform="matrix(1,0,0,1,0,1752)">
                <text id="TAG1" serif:id="TAG" x="240px" y="264px" style="font-family:'Poppins-ExtraLightItalic', 'Poppins';font-weight:275;font-style:italic;font-size:20.48px;">Morphogenetic_Programming_2022</text>
            </g>
        </g>
        <g>
            <text x="240px" y="288px" style="font-family:'Poppins-Bold', 'Poppins';font-weight:700;font-size:50px;">PIPELINE</text>
            <text x="240px" y="360px" style="font-family:'Poppins-ExtraLight', 'Poppins';font-weight:275;font-size:50px;">ABSTRACT</text>
        </g>
    </g>
    <g id="connection_lines" transform="matrix(1,0,0,1,24,74.1225)">
        <g transform="matrix(1,0,0,1,-432,0)">
            <path d="M1320,876L1440,876L1440,1080L1536,1080" style="fill:none;stroke:white;stroke-width:2px;stroke-dasharray:10,10,0,0;"/>
            <path d="M1320,1284L1440,1284L1440,1080" style="fill:none;stroke:white;stroke-width:2px;stroke-dasharray:10,10,0,0;"/>
        </g>
        <g transform="matrix(0.9,0,0,1,-156,0)">
            <path d="M2280,1080L2520,1080" style="fill:none;stroke:white;stroke-width:2.1px;stroke-dasharray:10.51,10.51,0,0;"/>
        </g>
        <g transform="matrix(0.833333,0,0,1,420,0)">
            <path d="M2808,1080L3096,1080" style="fill:none;stroke:white;stroke-width:2.17px;stroke-dasharray:10.86,10.86,0,0;"/>
        </g>
    </g>
    <g id="random_mesh" transform="matrix(1,0,0,1,24,74.1225)">
        <g transform="matrix(0.9,0,0,0.7,-840,288)">
            <path d="M1920,794.566C1920,753.412 1894.01,720 1862.01,720L1258,720C1225.99,720 1200,753.412 1200,794.566L1200,885.434C1200,926.588 1225.99,960 1258,960L1862.01,960C1894.01,960 1920,926.588 1920,885.434L1920,794.566Z" style="fill:rgb(27,27,27);stroke:white;stroke-width:6.2px;"/>
        </g>
        <g id="icon" transform="matrix(1,0,0,1,-504,36)">
            <g>
                <g transform="matrix(1,0,0,1,504,-36)">
                    <path d="M336,912L336,864L384,888L336,912Z" style="fill:rgb(204,204,204);stroke:white;stroke-width:2px;"/>
                </g>
                <g transform="matrix(1,0,0,1,504,-36)">
                    <path d="M288,888L336,864L336,912L288,888Z" style="fill:rgb(166,166,166);stroke:white;stroke-width:2px;"/>
                </g>
                <g transform="matrix(1,0,0,1,504,-36)">
                    <path d="M312,840L288,888L336,864L312,840Z" style="fill:rgb(140,140,140);stroke:white;stroke-width:2px;"/>
                </g>
                <g transform="matrix(1,0,0,1,504,-36)">
                    <path d="M336,864L384,864L312,840L336,864Z" style="fill:rgb(179,179,179);stroke:white;stroke-width:2px;"/>
                </g>
                <g transform="matrix(1,0,0,1,504,-36)">
                    <path d="M384,888L336,864L384,864L384,888Z" style="fill:rgb(204,204,204);stroke:white;stroke-width:2px;"/>
                </g>
            </g>
            <g transform="matrix(1,0,0,1,480,12)">
                <g transform="matrix(0.624858,0,0,0.624858,120.055,366.102)">
                    <circle cx="384" cy="720" r="11.396" style="fill:white;"/>
                </g>
                <g transform="matrix(0.624858,0,0,0.624858,168.055,366.102)">
                    <circle cx="384" cy="720" r="11.396" style="fill:white;"/>
                </g>
                <g transform="matrix(0.624858,0,0,0.624858,168.055,390.102)">
                    <circle cx="384" cy="720" r="11.396" style="fill:white;"/>
                </g>
                <g transform="matrix(0.624858,0,0,0.624858,120.055,414.102)">
                    <circle cx="384" cy="720" r="11.396" style="fill:white;"/>
                </g>
                <g transform="matrix(0.624858,0,0,0.624858,96.0546,342.102)">
                    <circle cx="384" cy="720" r="11.396" style="fill:white;"/>
                </g>
                <g transform="matrix(0.624858,0,0,0.624858,72.0546,390.102)">
                    <circle cx="384" cy="720" r="11.396" style="fill:white;"/>
                </g>
            </g>
        </g>
        <g transform="matrix(1,0,0,1,-1893.34,72)">
            <text x="2324.16px" y="792px" style="font-family:'Poppins-SemiBold', 'Poppins';font-weight:600;font-size:32px;fill:rgb(255,0,255);">Random Mesh Generation</text>
            <text x="2324.16px" y="840px" style="font-family:'SourceCodePro-Italic', 'Source Code Pro', monospace;font-style:italic;font-size:25.6px;fill:white;">open</text>
        </g>
    </g>
    <g id="user_input_mesh" transform="matrix(1,0,0,1,24,74.1225)">
        <g transform="matrix(0.7,0,0,0.7,-456,696)">
            <path d="M1920,796.769C1920,754.399 1885.6,720 1843.23,720L1276.77,720C1234.4,720 1200,754.399 1200,796.769L1200,883.231C1200,925.601 1234.4,960 1276.77,960L1843.23,960C1885.6,960 1920,925.601 1920,883.231L1920,796.769Z" style="fill:rgb(27,27,27);stroke:white;stroke-width:7.14px;"/>
        </g>
        <g id="icon1" serif:id="icon" transform="matrix(1,0,0,1,0,-12)">
            <g transform="matrix(1,0,0,1,0,8.78509)">
                <path d="M480,1335.21L480,1287.21L528,1263.21L528,1311.21L480,1335.21Z" style="fill:rgb(166,166,166);stroke:white;stroke-width:2px;"/>
                <path d="M432,1311.21L432,1263.21L480,1287.21L480,1335.21L432,1311.21Z" style="fill:rgb(140,140,140);stroke:white;stroke-width:2px;"/>
                <path d="M480,1239.21L528,1263.21L480,1287.21L432,1263.21L480,1239.21Z" style="fill:rgb(204,204,204);stroke:white;stroke-width:2px;"/>
            </g>
            <g transform="matrix(1,0,0,1,120,463.121)">
                <g transform="matrix(0.624858,0,0,0.624858,120.055,382.981)">
                    <circle cx="384" cy="720" r="11.396" style="fill:white;"/>
                </g>
                <g transform="matrix(0.624858,0,0,0.624858,168.055,358.981)">
                    <circle cx="384" cy="720" r="11.396" style="fill:white;"/>
                </g>
                <g transform="matrix(0.624858,0,0,0.624858,168.055,406.981)">
                    <circle cx="384" cy="720" r="11.396" style="fill:white;"/>
                </g>
                <g transform="matrix(0.624858,0,0,0.624858,120.055,430.981)">
                    <circle cx="384" cy="720" r="11.396" style="fill:white;"/>
                </g>
                <g transform="matrix(0.624858,0,0,0.624858,72.0546,358.981)">
                    <circle cx="384" cy="720" r="11.396" style="fill:white;"/>
                </g>
                <g transform="matrix(0.624858,0,0,0.624858,120.055,334.981)">
                    <circle cx="384" cy="720" r="11.396" style="fill:white;"/>
                </g>
                <g transform="matrix(0.624858,0,0,0.624858,72.0546,406.981)">
                    <circle cx="384" cy="720" r="11.396" style="fill:white;"/>
                </g>
            </g>
        </g>
        <g transform="matrix(1,0,0,1,-1749.21,480)">
            <text x="2324.16px" y="792px" style="font-family:'Poppins-SemiBold', 'Poppins';font-weight:600;font-size:32px;fill:rgb(255,0,255);">User input mesh</text>
            <text x="2324.16px" y="840px" style="font-family:'SourceCodePro-Italic', 'Source Code Pro', monospace;font-style:italic;font-size:25.6px;fill:white;">Open/closed</text>
        </g>
    </g>
    <g transform="matrix(1,0,0,1,-48,74.1225)">
        <g transform="matrix(0.766667,0,0,0.7,2152,492)">
            <path d="M1920,796.769C1920,754.399 1888.59,720 1849.91,720L1270.09,720C1231.41,720 1200,754.399 1200,796.769L1200,883.231C1200,925.601 1231.41,960 1270.09,960L1849.91,960C1888.59,960 1920,925.601 1920,883.231L1920,796.769Z" style="fill:rgb(27,27,27);stroke:white;stroke-width:6.81px;"/>
        </g>
        <g transform="matrix(1,0,0,1,962.458,276)">
            <text x="2324.16px" y="792px" style="font-family:'Poppins-SemiBold', 'Poppins';font-weight:600;font-size:32px;fill:rgb(255,0,255);">Mesh Subdivision</text>
            <text x="2324.16px" y="839.6px" style="font-family:'SourceCodePro-Italic', 'Source Code Pro', monospace;font-style:italic;font-size:25.6px;fill:white;">WB Catmull-Clark</text>
        </g>
        <g id="icon2" serif:id="icon">
            <path d="M3213.77,1101.44C3230.74,1084.4 3218.59,1070.79 3208.77,1058.88C3198.96,1046.96 3169.24,1034.6 3154.77,1034.58C3140.62,1034.56 3123.36,1048.48 3120.2,1067.54C3117.74,1082.31 3138.54,1118.32 3155.37,1122.9C3176.45,1128.62 3204.71,1110.54 3213.77,1101.44Z" style="fill:url(#_Radial1);stroke:white;stroke-width:0.4px;"/>
            <g>
                <g transform="matrix(0.333087,0,0,0.333087,3065.1,825.998)">
                    <circle cx="384" cy="720" r="11.396" style="fill:white;"/>
                </g>
                <g transform="matrix(0.333087,0,0,0.333087,3041.97,811.856)">
                    <circle cx="384" cy="720" r="11.396" style="fill:white;"/>
                </g>
                <g transform="matrix(0.333087,0,0,0.333087,3016.69,812.376)">
                    <circle cx="384" cy="720" r="11.396" style="fill:white;"/>
                </g>
                <g transform="matrix(0.333087,0,0,0.333087,3070.51,849.296)">
                    <circle cx="384" cy="720" r="11.396" style="fill:white;"/>
                </g>
                <g transform="matrix(0.333087,0,0,0.333087,3094.99,841.591)">
                    <circle cx="384" cy="720" r="11.396" style="fill:white;"/>
                </g>
                <g transform="matrix(0.333087,0,0,0.333087,3025.34,836.358)">
                    <circle cx="384" cy="720" r="11.396" style="fill:white;"/>
                </g>
                <g transform="matrix(0.333087,0,0,0.333087,3042.28,844.648)">
                    <circle cx="384" cy="720" r="11.396" style="fill:white;"/>
                </g>
                <g transform="matrix(0.333087,0,0,0.333087,3052.65,834.517)">
                    <circle cx="384" cy="720" r="11.396" style="fill:white;"/>
                </g>
                <g transform="matrix(0.333087,0,0,0.333087,3038.46,826.812)">
                    <circle cx="384" cy="720" r="11.396" style="fill:white;"/>
                </g>
                <g transform="matrix(0.333087,0,0,0.333087,3078.99,817.336)">
                    <circle cx="384" cy="720" r="11.396" style="fill:white;"/>
                </g>
                <g transform="matrix(0.333087,0,0,0.333087,3055.98,802.102)">
                    <circle cx="384" cy="720" r="11.396" style="fill:white;"/>
                </g>
                <g transform="matrix(0.333087,0,0,0.333087,3079.45,841.882)">
                    <circle cx="384" cy="720" r="11.396" style="fill:white;"/>
                </g>
                <g transform="matrix(0.333087,0,0,0.333087,3054.8,861.376)">
                    <circle cx="384" cy="720" r="11.396" style="fill:white;"/>
                </g>
                <g transform="matrix(0.333087,0,0,0.333087,3036.24,861.883)">
                    <circle cx="384" cy="720" r="11.396" style="fill:white;"/>
                </g>
                <g transform="matrix(0.333087,0,0,0.333087,3007.12,829.62)">
                    <circle cx="384" cy="720" r="11.396" style="fill:white;"/>
                </g>
                <g transform="matrix(0.333087,0,0,0.333087,3025.79,794.956)">
                    <circle cx="384" cy="720" r="11.396" style="fill:white;"/>
                </g>
                <g transform="matrix(0.333087,0,0,0.333087,3003.14,806.256)">
                    <circle cx="384" cy="720" r="11.396" style="fill:white;"/>
                </g>
                <g transform="matrix(0.333087,0,0,0.333087,2992.46,829.865)">
                    <circle cx="384" cy="720" r="11.396" style="fill:white;"/>
                </g>
                <g transform="matrix(0.333087,0,0,0.333087,2998.34,850.932)">
                    <circle cx="384" cy="720" r="11.396" style="fill:white;"/>
                </g>
                <g transform="matrix(0.333087,0,0,0.333087,3011.38,871.711)">
                    <circle cx="384" cy="720" r="11.396" style="fill:white;"/>
                </g>
                <g transform="matrix(0.333087,0,0,0.333087,3030.09,883.468)">
                    <circle cx="384" cy="720" r="11.396" style="fill:white;"/>
                </g>
                <g transform="matrix(0.333087,0,0,0.333087,3059.53,878.355)">
                    <circle cx="384" cy="720" r="11.396" style="fill:white;"/>
                </g>
                <g transform="matrix(0.333087,0,0,0.333087,3082.13,865.255)">
                    <circle cx="384" cy="720" r="11.396" style="fill:white;"/>
                </g>
                <g transform="matrix(0.333087,0,0,0.333087,3015.27,849.281)">
                    <circle cx="384" cy="720" r="11.396" style="fill:white;"/>
                </g>
            </g>
            <g>
                <path d="M3187.43,1118.18L3182.71,1101.2L3210.03,1105.08" style="fill:none;stroke:white;stroke-width:1px;"/>
                <path d="M3210.03,1105.08L3198.42,1089.12L3182.71,1101.2" style="fill:none;stroke:white;stroke-width:1px;"/>
                <path d="M3198.42,1089.12L3180.56,1074.34L3182.71,1101.2" style="fill:none;stroke:white;stroke-width:1px;"/>
                <path d="M3187.43,1118.18L3164.15,1101.71L3182.71,1101.71" style="fill:none;stroke:white;stroke-width:1px;"/>
                <path d="M3164.15,1101.71L3158,1123.29" style="fill:none;stroke:white;stroke-width:1px;"/>
                <path d="M3139.29,1111.53L3164.15,1101.71" style="fill:none;stroke:white;stroke-width:1px;"/>
                <path d="M3164.15,1101.71L3170.18,1084.47L3182.71,1101.71" style="fill:none;stroke:white;stroke-width:1px;"/>
                <path d="M3210.03,1105.08L3207.36,1081.7L3198.42,1089.12" style="fill:none;stroke:white;stroke-width:1px;"/>
                <path d="M3198.42,1089.12L3193,1065.82L3207.36,1081.7" style="fill:none;stroke:white;stroke-width:1px;"/>
                <path d="M3207.36,1081.7L3222.9,1081.41" style="fill:none;stroke:white;stroke-width:1px;"/>
                <path d="M3207.36,1081.7L3206.89,1057.16L3193,1065.82" style="fill:none;stroke:white;stroke-width:1px;"/>
                <path d="M3180.56,1074.34L3193,1065.82" style="fill:none;stroke:white;stroke-width:1px;"/>
                <path d="M3193,1065.82L3183.88,1041.92" style="fill:none;stroke:white;stroke-width:1px;"/>
                <path d="M3180.56,1074.34L3169.87,1051.68L3193,1065.82" style="fill:none;stroke:white;stroke-width:1px;"/>
                <path d="M3183.88,1041.92L3169.87,1051.68L3153.7,1034.78" style="fill:none;stroke:white;stroke-width:1px;"/>
                <path d="M3170.18,1084.47L3180.56,1074.34L3166.37,1066.63L3170.18,1084.47Z" style="fill:none;stroke:white;stroke-width:1px;"/>
                <path d="M3164.15,1101.71L3143.17,1089.1L3139.29,1111.53" style="fill:none;stroke:white;stroke-width:1px;"/>
                <path d="M3126.24,1090.76L3143.17,1089.1L3135.03,1069.44L3126.24,1090.76Z" style="fill:none;stroke:white;stroke-width:1px;"/>
                <path d="M3143.17,1089.1L3153.25,1076.18L3170.18,1084.47L3143.17,1089.1Z" style="fill:none;stroke:white;stroke-width:1px;"/>
                <path d="M3166.37,1066.63L3153.25,1076.18L3135.03,1069.44L3166.37,1066.63Z" style="fill:none;stroke:white;stroke-width:1px;"/>
                <path d="M3166.37,1066.63L3144.6,1052.2L3169.87,1051.68L3166.37,1066.63Z" style="fill:none;stroke:white;stroke-width:1px;"/>
                <path d="M3135.03,1069.44L3144.6,1052.2L3120,1069.69L3135.03,1069.44Z" style="fill:none;stroke:white;stroke-width:1px;"/>
                <path d="M3131.04,1046.08L3144.6,1052.2L3153.7,1034.78" style="fill:none;stroke:white;stroke-width:1px;"/>
            </g>
        </g>
    </g>
    <g transform="matrix(1,0,0,1,24,458.123)">
        <g transform="matrix(1.03333,0,0,1.5,-112,-480)">
            <path d="M1920,769.457C1920,742.161 1887.83,720 1848.21,720L1271.79,720C1232.17,720 1200,742.161 1200,769.457L1200,910.543C1200,937.839 1232.17,960 1271.79,960L1848.21,960C1887.83,960 1920,937.839 1920,910.543L1920,769.457Z" style="fill:rgb(27,27,27);stroke:white;stroke-width:3.88px;"/>
        </g>
        <g id="icon3" serif:id="icon" transform="matrix(1,0,0,1,751.121,-440.071)">
            <g>
                <g transform="matrix(1,0,0,1,-1692,372)">
                    <path d="M2172,972L2172,924L2220,948L2172,972Z" style="fill:rgb(153,153,153);stroke:white;stroke-width:2px;"/>
                </g>
                <g transform="matrix(1,0,0,1,-1692,372)">
                    <path d="M2237.35,924L2172,924L2220,948L2237.35,924Z" style="fill:rgb(204,204,204);stroke:white;stroke-width:2px;"/>
                </g>
                <g transform="matrix(1,0,0,1,-1692,372)">
                    <path d="M2220,900L2172,924L2237.35,924.258L2220,900Z" style="fill:rgb(191,191,191);stroke:white;stroke-width:2px;"/>
                </g>
                <g transform="matrix(1,0,0,1,-1692,372)">
                    <path d="M2188.54,896.26L2172,924L2220,900L2188.54,896.26Z" style="fill:rgb(115,115,115);stroke:white;stroke-width:2px;"/>
                </g>
                <g transform="matrix(1,0,0,1,-1692,372)">
                    <path d="M2172,876L2172,924L2188.54,896.26L2172,876Z" style="fill:rgb(89,89,89);stroke:white;stroke-width:2px;"/>
                </g>
                <g transform="matrix(1,0,0,1,-1692,372)">
                    <path d="M2148.07,872.61L2172,924L2172,876L2148.07,872.61Z" style="fill:rgb(64,64,64);stroke:white;stroke-width:2px;"/>
                </g>
                <g transform="matrix(1,0,0,1,-1692,372)">
                    <path d="M2124,900L2172,924L2148.07,872.61L2124,900Z" style="fill:rgb(102,102,102);stroke:white;stroke-width:2px;"/>
                </g>
                <g transform="matrix(1,0,0,1,-1692,372)">
                    <path d="M2144.2,932.181L2172,924L2124,900L2144.2,932.181Z" style="fill:rgb(64,64,64);stroke:white;stroke-width:2px;"/>
                </g>
                <g transform="matrix(1,0,0,1,-1692,372)">
                    <path d="M2124,948L2124,900L2144.2,932.181L2124,948Z" style="fill:rgb(140,140,140);stroke:white;stroke-width:2px;"/>
                </g>
                <g transform="matrix(1,0,0,1,-1692,372)">
                    <path d="M2172,972L2124,948L2144.2,932.181L2172,972Z" style="fill:rgb(204,204,204);stroke:white;stroke-width:2px;"/>
                </g>
                <g transform="matrix(1,0,0,1,-1692,372)">
                    <path d="M2172,924L2172,972L2144.2,932.181L2172,924Z" style="fill:rgb(204,204,204);stroke:white;stroke-width:2px;"/>
                </g>
                <g transform="matrix(1,0,0,1,-1692,372)">
                    <path d="M2188.54,896.26L2172,876L2220,900L2188.54,896.26Z" style="fill:rgb(204,204,204);stroke:white;stroke-width:2px;"/>
                </g>
            </g>
            <g>
                <g transform="matrix(0.624858,0,0,0.624858,240.055,846.102)">
                    <circle cx="384" cy="720" r="11.396" style="fill:white;"/>
                </g>
                <g transform="matrix(0.624858,0,0,0.624858,216.121,794.712)">
                    <circle cx="384" cy="720" r="11.396" style="fill:white;"/>
                </g>
                <g transform="matrix(0.624858,0,0,0.624858,256.596,818.362)">
                    <circle cx="384" cy="720" r="11.396" style="fill:white;"/>
                </g>
                <g transform="matrix(0.624858,0,0,0.624858,305.403,846.361)">
                    <circle cx="384" cy="720" r="11.396" style="fill:white;"/>
                </g>
                <g transform="matrix(0.624858,0,0,0.624858,212.253,854.284)">
                    <circle cx="384" cy="720" r="11.396" style="fill:white;"/>
                </g>
                <g transform="matrix(0.624858,0,0,0.624858,288.055,822.102)">
                    <circle cx="384" cy="720" r="11.396" style="fill:white;"/>
                </g>
                <g transform="matrix(0.624858,0,0,0.624858,288.055,870.102)">
                    <circle cx="384" cy="720" r="11.396" style="fill:white;"/>
                </g>
                <g transform="matrix(0.624858,0,0,0.624858,240.055,894.102)">
                    <circle cx="384" cy="720" r="11.396" style="fill:white;"/>
                </g>
                <g transform="matrix(0.624858,0,0,0.624858,192.055,822.102)">
                    <circle cx="384" cy="720" r="11.396" style="fill:white;"/>
                </g>
                <g transform="matrix(0.624858,0,0,0.624858,240.055,798.102)">
                    <circle cx="384" cy="720" r="11.396" style="fill:white;"/>
                </g>
                <g transform="matrix(0.624858,0,0,0.624858,192.055,870.102)">
                    <circle cx="384" cy="720" r="11.396" style="fill:white;"/>
                </g>
            </g>
        </g>
        <g transform="matrix(1,0,0,1,0.00172897,-354.583)">
            <g>
                <path d="M1272.45,1146.68L1295.75,1146.68" style="fill:none;stroke:white;stroke-width:1.5px;"/>
                <g transform="matrix(0.881652,0,0,1,151.971,-7.10367)">
                    <path d="M1272.45,1146.68L1295.75,1146.68" style="fill:none;stroke:white;stroke-width:1.59px;"/>
                </g>
                <g transform="matrix(0.628477,0,0,1,477.073,-14.2073)">
                    <path d="M1272.45,1146.68L1295.75,1146.68" style="fill:none;stroke:white;stroke-width:1.8px;"/>
                </g>
                <g transform="matrix(0.628477,0,0,1,477.073,-23.7482)">
                    <path d="M1272.45,1146.68L1295.75,1146.68" style="fill:none;stroke:white;stroke-width:1.8px;"/>
                </g>
                <g transform="matrix(0.881652,0,0,1,151.971,-30.8519)">
                    <path d="M1272.45,1146.68L1295.75,1146.68" style="fill:none;stroke:white;stroke-width:1.59px;"/>
                </g>
                <g transform="matrix(1,0,0,1,0.24711,-37.9556)">
                    <path d="M1272.45,1146.68L1295.75,1146.68" style="fill:none;stroke:white;stroke-width:1.5px;"/>
                </g>
            </g>
            <g>
                <g transform="matrix(0.5,0,0,1,636,0)">
                    <path d="M1272,1104C1272,1104 1271.15,1128 1296,1128C1319.91,1128 1320,1152 1320,1152" style="fill:none;stroke:white;stroke-width:3.16px;"/>
                </g>
                <g transform="matrix(-0.5,0,0,1,1932,0)">
                    <path d="M1272,1104C1272,1104 1272.13,1127.35 1296,1128C1318.97,1128.63 1320,1152 1320,1152" style="fill:none;stroke:white;stroke-width:3.16px;"/>
                </g>
            </g>
        </g>
        <g transform="matrix(1,0,0,1,-979.571,-24)">
            <text x="2324.16px" y="792px" style="font-family:'Poppins-SemiBold', 'Poppins';font-weight:600;font-size:32px;fill:rgb(255,0,255);">Genetic Growth</text>
            <text x="2324.16px" y="840px" style="font-family:'SourceCodePro-Italic', 'Source Code Pro', monospace;font-style:italic;font-size:25.6px;fill:rgb(255,189,255);">Genotype</text>
            <text x="2462.4px" y="840px" style="font-family:'SourceCodePro-Italic', 'Source Code Pro', monospace;font-style:italic;font-size:25.6px;fill:white;">= Index for edge split</text>
            <text x="2324.16px" y="888px" style="font-family:'SourceCodePro-Italic', 'Source Code Pro', monospace;font-style:italic;font-size:25.6px;fill:rgb(255,189,255);">Crossover</text>
            <text x="2477.76px" y="888px" style="font-family:'SourceCodePro-Italic', 'Source Code Pro', monospace;font-style:italic;font-size:25.6px;fill:white;">= Sequence ‘10</text>
            <text x="2324.16px" y="936px" style="font-family:'SourceCodePro-Italic', 'Source Code Pro', monospace;font-style:italic;font-size:25.6px;fill:rgb(255,189,255);">Fitness</text>
            <text x="2447.04px" y="936px" style="font-family:'SourceCodePro-Italic', 'Source Code Pro', monospace;font-style:italic;font-size:25.6px;fill:white;">= e.g. volume</text>
        </g>
    </g>
    <g transform="matrix(1,0,0,1,60,290.123)">
        <g transform="matrix(0.933333,0,0,1.1,8,-192)">
            <path d="M1920,769.457C1920,742.161 1893.88,720 1861.71,720L1258.29,720C1226.12,720 1200,742.161 1200,769.457L1200,910.543C1200,937.839 1226.12,960 1258.29,960L1861.71,960C1893.88,960 1920,937.839 1920,910.543L1920,769.457Z" style="fill:rgb(27,27,27);stroke:white;stroke-width:4.9px;"/>
        </g>
        <g id="icon4" serif:id="icon" transform="matrix(1,0,0,1,751.121,-562.305)">
            <g>
                <g transform="matrix(1,0,0,1,-1692,372)">
                    <path d="M2172,972L2172,924L2220,948L2172,972Z" style="fill:rgb(153,153,153);stroke:white;stroke-width:2px;"/>
                </g>
                <g transform="matrix(1,0,0,1,-1692,372)">
                    <path d="M2237.35,924L2172,924L2220,948L2237.35,924Z" style="fill:rgb(204,204,204);stroke:white;stroke-width:2px;"/>
                </g>
                <g transform="matrix(1,0,0,1,-1692,372)">
                    <path d="M2220,900L2172,924L2237.35,924.258L2220,900Z" style="fill:rgb(191,191,191);stroke:white;stroke-width:2px;"/>
                </g>
                <g transform="matrix(1,0,0,1,-1692,372)">
                    <path d="M2188.54,896.26L2172,924L2220,900L2188.54,896.26Z" style="fill:rgb(115,115,115);stroke:white;stroke-width:2px;"/>
                </g>
                <g transform="matrix(1,0,0,1,-1692,372)">
                    <path d="M2172,876L2172,924L2188.54,896.26L2172,876Z" style="fill:rgb(89,89,89);stroke:white;stroke-width:2px;"/>
                </g>
                <g transform="matrix(1,0,0,1,-1692,372)">
                    <path d="M2148.07,872.61L2172,924L2172,876L2148.07,872.61Z" style="fill:rgb(64,64,64);stroke:white;stroke-width:2px;"/>
                </g>
                <g transform="matrix(1,0,0,1,-1692,372)">
                    <path d="M2124,900L2172,924L2148.07,872.61L2124,900Z" style="fill:rgb(102,102,102);stroke:white;stroke-width:2px;"/>
                </g>
                <g transform="matrix(1,0,0,1,-1692,372)">
                    <path d="M2144.2,932.181L2172,924L2124,900L2144.2,932.181Z" style="fill:rgb(64,64,64);stroke:white;stroke-width:2px;"/>
                </g>
                <g transform="matrix(1,0,0,1,-1692,372)">
                    <path d="M2124,948L2124,900L2144.2,932.181L2124,948Z" style="fill:rgb(140,140,140);stroke:white;stroke-width:2px;"/>
                </g>
                <g transform="matrix(1,0,0,1,-1692,372)">
                    <path d="M2172,972L2124,948L2144.2,932.181L2172,972Z" style="fill:rgb(204,204,204);stroke:white;stroke-width:2px;"/>
                </g>
                <g transform="matrix(1,0,0,1,-1692,372)">
                    <path d="M2172,924L2172,972L2144.2,932.181L2172,924Z" style="fill:rgb(204,204,204);stroke:white;stroke-width:2px;"/>
                </g>
                <g transform="matrix(1,0,0,1,-1692,372)">
                    <path d="M2188.54,896.26L2172,876L2220,900L2188.54,896.26Z" style="fill:rgb(204,204,204);stroke:white;stroke-width:2px;"/>
                </g>
            </g>
            <g>
                <g transform="matrix(0.624858,0,0,0.624858,240.055,846.102)">
                    <circle cx="384" cy="720" r="11.396" style="fill:white;"/>
                </g>
                <g transform="matrix(0.624858,0,0,0.624858,216.121,794.712)">
                    <circle cx="384" cy="720" r="11.396" style="fill:white;"/>
                </g>
                <g transform="matrix(0.624858,0,0,0.624858,256.596,818.362)">
                    <circle cx="384" cy="720" r="11.396" style="fill:white;"/>
                </g>
                <g transform="matrix(0.624858,0,0,0.624858,305.403,846.361)">
                    <circle cx="384" cy="720" r="11.396" style="fill:white;"/>
                </g>
                <g transform="matrix(0.624858,0,0,0.624858,212.253,854.284)">
                    <circle cx="384" cy="720" r="11.396" style="fill:white;"/>
                </g>
                <g transform="matrix(0.624858,0,0,0.624858,288.055,822.102)">
                    <circle cx="384" cy="720" r="11.396" style="fill:white;"/>
                </g>
                <g transform="matrix(0.624858,0,0,0.624858,288.055,870.102)">
                    <circle cx="384" cy="720" r="11.396" style="fill:white;"/>
                </g>
                <g transform="matrix(0.624858,0,0,0.624858,240.055,894.102)">
                    <circle cx="384" cy="720" r="11.396" style="fill:white;"/>
                </g>
                <g transform="matrix(0.624858,0,0,0.624858,192.055,822.102)">
                    <circle cx="384" cy="720" r="11.396" style="fill:white;"/>
                </g>
                <g transform="matrix(0.624858,0,0,0.624858,240.055,798.102)">
                    <circle cx="384" cy="720" r="11.396" style="fill:white;"/>
                </g>
                <g transform="matrix(0.624858,0,0,0.624858,192.055,870.102)">
                    <circle cx="384" cy="720" r="11.396" style="fill:white;"/>
                </g>
            </g>
        </g>
        <g transform="matrix(1,0,0,1,-979.571,-120)">
            <text x="2324.16px" y="792px" style="font-family:'Poppins-SemiBold', 'Poppins';font-weight:600;font-size:32px;fill:rgb(255,0,255);">Mesh Growth</text>
            <text x="2324.16px" y="840px" style="font-family:'SourceCodePro-Italic', 'Source Code Pro', monospace;font-style:italic;font-size:25.6px;fill:rgb(255,189,255);">R-Tree</text>
            <text x="2431.68px" y="840px" style="font-family:'SourceCodePro-Italic', 'Source Code Pro', monospace;font-style:italic;font-size:25.6px;fill:white;">(closest neighbors)</text>
            <text x="2324.16px" y="888px" style="font-family:'SourceCodePro-Italic', 'Source Code Pro', monospace;font-style:italic;font-size:25.6px;fill:rgb(255,189,255);">Relax</text>
            <text x="2416.32px" y="888px" style="font-family:'SourceCodePro-Italic', 'Source Code Pro', monospace;font-style:italic;font-size:25.6px;fill:white;">mesh</text>
            <text x="2493.12px" y="888px" style="font-family:'SourceCodePro-Italic', 'Source Code Pro', monospace;font-style:italic;font-size:25.6px;fill:white;">vertices</text>
            <text x="2324.16px" y="934.6px" style="font-family:'SourceCodePro-Italic', 'Source Code Pro', monospace;font-style:italic;font-size:25.6px;fill:rgb(255,189,255);">Mesh-Edge splitting</text>
            <text x="2631.36px" y="934.6px" style="font-family:'SourceCodePro-Italic', 'Source Code Pro', monospace;font-style:italic;font-size:25.6px;fill:white;">to grow</text>
        </g>
    </g>
    <g transform="matrix(1,0,0,1,-48,74.1225)">
        <g transform="matrix(0.9,0,0,0.9,1104,324)">
            <path d="M1920,777.171C1920,745.617 1894.38,720 1862.83,720L1257.17,720C1225.62,720 1200,745.617 1200,777.171L1200,902.829C1200,934.383 1225.62,960 1257.17,960L1862.83,960C1894.38,960 1920,934.383 1920,902.829L1920,777.171Z" style="fill:rgb(27,27,27);stroke:white;stroke-width:5.56px;"/>
        </g>
        <g id="icon5" serif:id="icon" transform="matrix(1,0,0,1,1807.12,-214.305)">
            <g>
                <g transform="matrix(1,0,0,1,-1692,372)">
                    <path d="M2172,972L2172,924L2220,948L2172,972Z" style="fill:rgb(164,0,164);stroke:white;stroke-width:2px;"/>
                </g>
                <g transform="matrix(1,0,0,1,-1692,372)">
                    <path d="M2237.35,924L2172,924L2220,948L2237.35,924Z" style="fill:rgb(255,185,255);stroke:white;stroke-width:2px;"/>
                </g>
                <g transform="matrix(1,0,0,1,-1692,372)">
                    <path d="M2220,900L2172,924L2237.35,924.258L2220,900Z" style="fill:rgb(228,0,228);stroke:white;stroke-width:2px;"/>
                </g>
                <g transform="matrix(1,0,0,1,-1692,372)">
                    <path d="M2188.54,896.26L2172,924L2220,900L2188.54,896.26Z" style="fill:rgb(161,0,161);stroke:white;stroke-width:2px;"/>
                </g>
                <g transform="matrix(1,0,0,1,-1692,372)">
                    <path d="M2172,876L2172,924L2188.54,896.26L2172,876Z" style="fill:rgb(191,0,191);stroke:white;stroke-width:2px;"/>
                </g>
                <g transform="matrix(1,0,0,1,-1692,372)">
                    <path d="M2148.07,872.61L2172,924L2172,876L2148.07,872.61Z" style="fill:rgb(114,8,114);stroke:white;stroke-width:2px;"/>
                </g>
                <g transform="matrix(1,0,0,1,-1692,372)">
                    <path d="M2124,900L2172,924L2148.07,872.61L2124,900Z" style="fill:rgb(143,0,143);stroke:white;stroke-width:2px;"/>
                </g>
                <g transform="matrix(1,0,0,1,-1692,372)">
                    <path d="M2144.2,932.181L2172,924L2124,900L2144.2,932.181Z" style="fill:rgb(190,0,190);stroke:white;stroke-width:2px;"/>
                </g>
                <g transform="matrix(1,0,0,1,-1692,372)">
                    <path d="M2124,948L2124,900L2144.2,932.181L2124,948Z" style="fill:rgb(255,0,255);stroke:white;stroke-width:2px;"/>
                </g>
                <g transform="matrix(1,0,0,1,-1692,372)">
                    <path d="M2172,972L2124,948L2144.2,932.181L2172,972Z" style="fill:rgb(255,156,255);stroke:white;stroke-width:2px;"/>
                </g>
                <g transform="matrix(1,0,0,1,-1692,372)">
                    <path d="M2172,924L2172,972L2144.2,932.181L2172,924Z" style="fill:rgb(255,0,255);stroke:white;stroke-width:2px;"/>
                </g>
                <g transform="matrix(1,0,0,1,-1692,372)">
                    <path d="M2188.54,896.26L2172,876L2220,900L2188.54,896.26Z" style="fill:rgb(255,0,255);stroke:white;stroke-width:2px;"/>
                </g>
            </g>
            <g>
                <g transform="matrix(0.624858,0,0,0.624858,240.055,846.102)">
                    <circle cx="384" cy="720" r="11.396" style="fill:white;"/>
                </g>
                <g transform="matrix(0.624858,0,0,0.624858,216.121,794.712)">
                    <circle cx="384" cy="720" r="11.396" style="fill:white;"/>
                </g>
                <g transform="matrix(0.624858,0,0,0.624858,256.596,818.362)">
                    <circle cx="384" cy="720" r="11.396" style="fill:white;"/>
                </g>
                <g transform="matrix(0.624858,0,0,0.624858,305.403,846.361)">
                    <circle cx="384" cy="720" r="11.396" style="fill:white;"/>
                </g>
                <g transform="matrix(0.624858,0,0,0.624858,212.253,854.284)">
                    <circle cx="384" cy="720" r="11.396" style="fill:white;"/>
                </g>
                <g transform="matrix(0.624858,0,0,0.624858,288.055,822.102)">
                    <circle cx="384" cy="720" r="11.396" style="fill:white;"/>
                </g>
                <g transform="matrix(0.624858,0,0,0.624858,288.055,870.102)">
                    <circle cx="384" cy="720" r="11.396" style="fill:white;"/>
                </g>
                <g transform="matrix(0.624858,0,0,0.624858,240.055,894.102)">
                    <circle cx="384" cy="720" r="11.396" style="fill:white;"/>
                </g>
                <g transform="matrix(0.624858,0,0,0.624858,192.055,822.102)">
                    <circle cx="384" cy="720" r="11.396" style="fill:white;"/>
                </g>
                <g transform="matrix(0.624858,0,0,0.624858,240.055,798.102)">
                    <circle cx="384" cy="720" r="11.396" style="fill:white;"/>
                </g>
                <g transform="matrix(0.624858,0,0,0.624858,192.055,870.102)">
                    <circle cx="384" cy="720" r="11.396" style="fill:white;"/>
                </g>
            </g>
        </g>
        <g transform="matrix(1,0,0,1,76.4288,251.166)">
            <text x="2324.16px" y="792px" style="font-family:'Poppins-SemiBold', 'Poppins';font-weight:600;font-size:32px;fill:rgb(255,0,255);">Mesh Vertex Coloring</text>
            <text x="2324.16px" y="838.6px" style="font-family:'SourceCodePro-Italic', 'Source Code Pro', monospace;font-style:italic;font-size:25.6px;fill:white;">Boundary edge (white)</text>
            <text x="2324.16px" y="885.2px" style="font-family:'SourceCodePro-Italic', 'Source Code Pro', monospace;font-style:italic;font-size:25.6px;fill:white;">Age of vertices (magenta)</text>
        </g>
    </g>
    <g id="simulation" transform="matrix(1,0,0,1,0,74.1225)">
        <g transform="matrix(1,0,0,1,-960.992,-0.3072)">
            <text x="2331.84px" y="792px" style="font-family:'SourceCodePro-Italic', 'Source Code Pro', monospace;font-style:italic;font-size:25.6px;fill:white;">Iterative simulation</text>
        </g>
        <path id="simulation1" serif:id="simulation" d="M1164.61,982.509C1142.64,1000.4 1128.61,1027.67 1128.61,1058.19C1128.61,1058.19 1128.61,1269.81 1128.61,1269.81C1128.61,1323.67 1172.33,1367.39 1226.19,1367.39L1821.81,1367.39C1875.67,1367.39 1919.39,1323.67 1919.39,1269.81L1919.39,1058.19C1919.39,1027.67 1905.36,1000.4 1883.39,982.509C1883.39,982.509 1883.39,825.723 1883.39,825.723C1883.39,782.788 1848.53,747.93 1805.6,747.93C1805.6,747.93 1242.4,747.93 1242.4,747.93C1199.47,747.93 1164.61,782.788 1164.61,825.723L1164.61,982.509Z" style="fill:none;stroke:white;stroke-width:5px;stroke-dasharray:10,15,0,0;"/>
    </g>
    <g transform="matrix(1,0,0,1,0,132.503)">
        <g transform="matrix(1,0,0,1,228,294.359)">
            <text x="284.595px" y="269.138px" style="font-family:'Poppins-Italic', 'Poppins';font-style:italic;font-size:25.6px;fill:white;">START MESH</text>
        </g>
        <g transform="matrix(1,0,0,1,1164,294.359)">
            <text x="282.01px" y="269.138px" style="font-family:'Poppins-Italic', 'Poppins';font-style:italic;font-size:25.6px;fill:white;">GROW MESH</text>
        </g>
        <g transform="matrix(1,0,0,1,2100,294.359)">
            <text x="278.989px" y="269.138px" style="font-family:'Poppins-Italic', 'Poppins';font-style:italic;font-size:25.6px;fill:white;">COLOR MESH</text>
        </g>
        <g transform="matrix(1,0,0,1,2940,294.359)">
            <text x="320.486px" y="269.138px" style="font-family:'Poppins-Italic', 'Poppins';font-style:italic;font-size:25.6px;fill:white;">REFINE</text>
        </g>
    </g>
    <g transform="matrix(1,0,0,1,0,74.1225)">
        <g transform="matrix(0.966667,0,0,1.03448,8,-24.8276)">
            <path d="M960,770.655C960,742.698 935.71,720 905.791,720L294.209,720C264.29,720 240,742.698 240,770.655L240,1365.35C240,1393.3 264.29,1416 294.209,1416L905.791,1416C935.71,1416 960,1393.3 960,1365.35L960,770.655Z" style="fill:none;stroke:white;stroke-width:1px;stroke-dasharray:4.99,4.99,0,0;"/>
        </g>
        <g transform="matrix(1.16667,0,0,1.03448,824,-24.8276)">
            <path d="M960,772.402C960,743.481 939.18,720 913.535,720L286.465,720C260.82,720 240,743.481 240,772.402L240,1363.6C240,1392.52 260.82,1416 286.465,1416L913.535,1416C939.18,1416 960,1392.52 960,1363.6L960,772.402Z" style="fill:none;stroke:white;stroke-width:0.91px;stroke-dasharray:4.53,4.53,0,0;"/>
        </g>
        <g transform="matrix(0.966667,0,0,1.03448,1880,-24.8276)">
            <path d="M960,770.655C960,742.698 935.71,720 905.791,720L294.209,720C264.29,720 240,742.698 240,770.655L240,1365.35C240,1393.3 264.29,1416 294.209,1416L905.791,1416C935.71,1416 960,1393.3 960,1365.35L960,770.655Z" style="fill:none;stroke:white;stroke-width:1px;stroke-dasharray:4.99,4.99,0,0;"/>
        </g>
        <g transform="matrix(0.833333,0,0,1.03448,2800,-24.8276)">
            <path d="M960,763.668C960,739.567 935.71,720 905.791,720L294.209,720C264.29,720 240,739.567 240,763.668L240,1372.33C240,1396.43 264.29,1416 294.209,1416L905.791,1416C935.71,1416 960,1396.43 960,1372.33L960,763.668Z" style="fill:none;stroke:white;stroke-width:1.06px;stroke-dasharray:5.32,5.32,0,0;"/>
        </g>
    </g>
    <g>
        <text x="240px" y="288px" style="font-family:'Poppins-Bold', 'Poppins';font-weight:700;font-size:50px;fill:white;">PIPELINE</text>
        <text x="240px" y="360px" style="font-family:'Poppins-ExtraLight', 'Poppins';font-weight:275;font-size:50px;fill:white;">ABSTRACT</text>
    </g>
    <defs>
        <radialGradient id="_Radial1" cx="0" cy="0" r="1" gradientUnits="userSpaceOnUse" gradientTransform="matrix(68.807,28.6846,-20.3963,48.9254,3167.65,1076.18)"><stop offset="0" style="stop-color:rgb(255,0,255);stop-opacity:1"/><stop offset="0.13" style="stop-color:rgb(255,32,255);stop-opacity:1"/><stop offset="0.28" style="stop-color:rgb(202,22,202);stop-opacity:1"/><stop offset="0.47" style="stop-color:rgb(86,0,86);stop-opacity:1"/><stop offset="0.69" style="stop-color:rgb(255,128,255);stop-opacity:1"/><stop offset="0.83" style="stop-color:rgb(255,164,255);stop-opacity:1"/><stop offset="1" style="stop-color:white;stop-opacity:1"/></radialGradient>
    </defs>
</svg>
