<?xml version="1.0" encoding="UTF-8" standalone="no"?>
<!DOCTYPE svg PUBLIC "-//W3C//DTD SVG 1.1//EN" "http://www.w3.org/Graphics/SVG/1.1/DTD/svg11.dtd">
<svg width="100%" height="100%" viewBox="0 0 2000 2200" version="1.1" xmlns="http://www.w3.org/2000/svg" xmlns:xlink="http://www.w3.org/1999/xlink" xml:space="preserve" xmlns:serif="http://www.serif.com/" style="fill-rule:evenodd;clip-rule:evenodd;stroke-linejoin:round;stroke-miterlimit:2;">
    <rect x="0" y="0" width="2000" height="2200" style="fill:white;"/>
    <g transform="matrix(0.944039,0,0,0.944039,51.6437,1551.83)">
        <path d="M111.247,143.974C116.047,143.974 119.914,147.841 119.914,152.641C119.914,157.441 116.047,161.307 111.247,161.307C106.447,161.307 102.58,157.441 102.58,152.641C102.58,147.841 106.447,143.974 111.247,143.974Z" style="fill-rule:nonzero;"/>
    </g>
    <g transform="matrix(0.944039,0,0,0.944039,238.87,1551.83)">
        <path d="M111.247,94.641C116.047,94.641 119.914,98.507 119.914,103.307C119.914,108.107 116.047,111.974 111.247,111.974C106.58,111.974 102.58,108.107 102.58,103.307C102.58,98.507 106.58,94.641 111.247,94.641ZM111.247,143.974C116.047,143.974 119.914,147.841 119.914,152.641C119.914,157.441 116.047,161.307 111.247,161.307C106.58,161.307 102.58,157.441 102.58,152.641C102.58,147.841 106.58,143.974 111.247,143.974Z" style="fill-rule:nonzero;"/>
    </g>
    <g transform="matrix(0.944039,0,0,0.944039,427.686,1551.83)">
        <path d="M85.247,143.974C90.047,143.974 93.914,147.841 93.914,152.641C93.914,157.441 90.047,161.307 85.247,161.307C80.447,161.307 76.58,157.441 76.58,152.641C76.58,147.841 80.447,143.974 85.247,143.974ZM111.247,143.974C116.047,143.974 119.914,147.841 119.914,152.641C119.914,157.441 116.047,161.307 111.247,161.307C106.447,161.307 102.58,157.441 102.58,152.641C102.58,147.841 106.447,143.974 111.247,143.974ZM137.247,143.974C142.047,143.974 145.914,147.841 145.914,152.641C145.914,157.441 142.047,161.307 137.247,161.307C132.447,161.307 128.58,157.441 128.58,152.641C128.58,147.841 132.447,143.974 137.247,143.974Z" style="fill-rule:nonzero;"/>
    </g>
    <g transform="matrix(0.944039,0,0,0.944039,618.067,1551.83)">
        <path d="M107.914,181.041C104.18,181.041 101.247,177.974 101.247,174.374C101.247,170.641 104.18,167.707 107.914,167.707L107.914,154.374C107.914,150.641 110.847,147.707 114.58,147.707C118.314,147.707 121.247,150.641 121.247,154.374L121.247,171.041C121.247,176.507 116.714,181.041 111.247,181.041L107.914,181.041Z" style="fill-rule:nonzero;"/>
    </g>
    <g transform="matrix(0.944039,0,0,0.944039,806.875,1551.83)">
        <path d="M113.58,94.641C118.247,94.641 122.247,98.507 122.247,103.307C122.247,108.107 118.247,111.974 113.58,111.974C108.78,111.974 104.914,108.107 104.914,103.307C104.914,98.507 108.78,94.641 113.58,94.641ZM106.914,181.307C103.18,181.307 100.247,178.374 100.247,174.641C100.247,170.907 103.18,167.974 106.914,167.974L106.914,154.641C106.914,150.907 109.847,147.974 113.58,147.974C117.18,147.974 120.247,150.907 120.247,154.641L120.247,171.307C120.247,176.774 115.714,181.307 110.247,181.307L106.914,181.307Z" style="fill-rule:nonzero;"/>
    </g>
    <g transform="matrix(0.944039,0,0,0.944039,995.768,1551.83)">
        <path d="M104.447,127.974L104.447,67.974L117.78,67.974L117.78,127.974C117.78,131.707 114.847,134.641 111.114,134.641C107.514,134.641 104.447,131.707 104.447,127.974ZM111.114,143.974C115.914,143.974 119.78,147.841 119.78,152.641C119.78,157.441 115.914,161.307 111.114,161.307C106.314,161.307 102.447,157.441 102.447,152.641C102.447,147.841 106.314,143.974 111.114,143.974Z" style="fill-rule:nonzero;"/>
    </g>
    <g transform="matrix(0.944039,0,0,0.944039,1184.58,1551.83)">
        <path d="M117.514,106.374C109.914,110.107 104.18,119.441 104.58,127.974C104.18,131.307 107.914,134.907 111.247,134.641C114.447,134.907 118.18,131.307 117.914,127.974C117.78,124.107 120.314,119.841 123.78,118.107C131.914,114.107 137.914,104.374 137.914,95.307C138.314,86.241 132.847,76.107 124.98,71.707C117.38,66.907 105.78,66.641 98.047,71.441C90.047,75.574 84.18,85.574 84.58,94.641C84.18,97.841 87.914,101.574 91.247,101.307C94.447,101.574 98.18,97.841 97.914,94.641C97.647,90.107 100.58,85.174 104.58,83.041C108.447,80.641 114.314,80.774 118.047,83.174C122.047,85.441 124.847,90.507 124.58,94.907C124.58,99.441 121.514,104.374 117.514,106.374ZM119.914,152.641C119.914,150.641 118.98,148.241 117.38,146.507C115.647,144.774 113.247,143.974 111.247,143.974C109.114,143.974 106.714,144.774 105.114,146.507C103.38,148.241 102.447,150.641 102.58,152.641C102.447,154.641 103.38,157.041 105.114,158.774C106.714,160.507 109.114,161.307 111.247,161.307C113.247,161.307 115.647,160.507 117.38,158.774C118.98,157.041 119.914,154.641 119.914,152.641Z" style="fill-rule:nonzero;"/>
    </g>
    <g transform="matrix(0.944039,0,0,0.944039,1373.42,1551.83)">
        <path d="M107.18,71.974C107.18,69.707 109.047,67.974 111.18,67.974C113.447,67.974 115.18,69.707 115.18,71.974L115.18,84.374L125.98,78.241L125.98,78.107C127.847,77.041 130.38,77.707 131.447,79.574C132.514,81.574 131.847,83.974 129.98,85.041L119.18,91.307L129.98,97.574C131.847,98.641 132.514,101.041 131.447,102.907C130.38,104.907 127.847,105.574 125.98,104.374L115.18,98.241L115.18,110.641C115.18,112.907 113.447,114.641 111.18,114.641C109.047,114.641 107.18,112.907 107.18,110.641L107.18,98.241L96.514,104.374C94.514,105.574 92.114,104.907 91.047,102.907C89.98,101.041 90.514,98.641 92.514,97.574L103.18,91.307L92.514,85.041C90.514,83.974 89.98,81.574 91.047,79.574C92.114,77.707 94.514,77.041 96.514,78.241L107.18,84.374L107.18,71.974Z" style="fill-rule:nonzero;"/>
    </g>
    <g transform="matrix(0.944039,0,0,0.944039,51.6437,1363.02)">
        <path d="M111.247,67.974C133.38,67.974 151.247,88.907 151.247,114.641C151.247,140.374 133.38,161.307 111.247,161.307C89.114,161.307 71.247,140.374 71.247,114.641C71.247,88.907 89.114,67.974 111.247,67.974ZM132.98,95.174C128.047,86.774 120.18,81.307 111.247,81.307C96.714,81.307 84.847,95.841 84.58,113.974C84.714,116.241 87.114,117.574 88.98,116.907L131.247,99.974C133.247,99.174 133.914,96.907 132.98,95.174ZM137.914,115.041C137.914,112.907 135.514,111.841 133.647,112.374L91.247,129.307C89.247,130.107 88.58,132.374 89.514,134.107C94.447,142.507 102.314,147.974 111.247,147.974C125.914,147.974 137.78,133.307 137.914,115.041Z" style="fill-rule:nonzero;"/>
    </g>
    <g transform="matrix(0.944039,0,0,0.944039,240.452,1363.02)">
        <path d="M104.78,67.974C113.98,67.974 121.447,75.441 121.447,84.641L121.447,161.307L108.114,161.307L108.114,84.641C108.114,82.774 106.514,81.307 104.78,81.307L101.447,81.307C97.714,81.307 94.78,78.374 94.78,74.641C94.78,70.907 97.714,67.974 101.447,67.974L104.78,67.974Z" style="fill-rule:nonzero;"/>
    </g>
    <g transform="matrix(0.944039,0,0,0.944039,427.686,1363.02)">
        <path d="M91.247,67.974L127.914,67.974C140.847,67.974 151.247,78.374 151.247,91.307C151.247,101.441 144.714,110.107 135.647,113.307C135.514,113.307 135.38,113.441 135.38,113.441L91.247,128.507C87.38,129.974 84.58,133.574 84.58,137.974C84.58,143.441 89.114,147.974 94.58,147.974L144.58,147.974C148.314,147.974 151.247,151.041 151.247,154.641C151.247,158.374 148.314,161.307 144.58,161.307L94.58,161.307C81.647,161.307 71.247,150.907 71.247,137.974C71.247,127.707 77.914,118.907 87.114,115.841L131.247,100.774C135.114,99.307 137.914,95.707 137.914,91.307C137.914,85.841 133.514,81.307 127.914,81.307L91.247,81.307C87.514,81.307 84.58,84.241 84.58,87.974C84.58,91.707 81.647,94.641 77.914,94.641C74.18,94.641 71.247,91.707 71.247,87.974C71.247,76.907 80.18,67.974 91.247,67.974Z" style="fill-rule:nonzero;"/>
    </g>
    <g transform="matrix(0.944039,0,0,0.944039,618.067,1363.02)">
        <path d="M122.247,67.974C137.047,67.974 148.914,79.974 148.914,94.641C148.914,102.641 145.447,109.707 139.847,114.641C145.447,119.574 148.914,126.641 148.914,134.641C148.914,149.307 137.047,161.307 122.247,161.307L75.58,161.307C71.98,161.307 68.914,158.374 68.914,154.641C68.914,150.907 71.98,147.974 75.58,147.974L122.247,147.974C129.58,147.974 135.58,141.974 135.58,134.641C135.58,127.307 129.58,121.307 122.247,121.307L82.247,121.307C78.647,121.174 75.714,118.241 75.714,114.641C75.714,111.041 78.647,108.107 82.247,107.974L122.247,107.974C129.58,107.974 135.58,101.974 135.58,94.641C135.58,87.307 129.58,81.307 122.247,81.307L75.58,81.307C71.98,81.307 68.914,78.374 68.914,74.641C68.914,70.907 71.98,67.974 75.58,67.974L122.247,67.974Z" style="fill-rule:nonzero;"/>
    </g>
    <g transform="matrix(0.944039,0,0,0.944039,805.301,1363.02)">
        <path d="M144.58,141.307L141.247,141.307C139.38,141.307 137.914,142.774 137.914,144.641L137.914,161.307L124.58,161.307L124.58,144.641C124.58,142.774 123.114,141.307 121.247,141.307L80.847,141.307C75.514,141.307 71.247,137.041 71.247,131.707C71.247,129.174 72.18,126.907 73.78,125.174C73.78,125.174 73.78,125.041 73.914,125.041L121.247,71.707L121.38,71.574C123.114,69.574 125.647,68.241 128.58,68.241C133.78,68.241 137.914,72.374 137.914,77.574L137.914,124.641C137.914,126.507 139.38,127.974 141.247,127.974L144.58,127.974C148.314,127.974 151.247,130.907 151.247,134.641C151.247,138.374 148.314,141.307 144.58,141.307ZM121.247,127.974C123.114,127.974 124.58,126.507 124.58,124.641L124.58,88.374L89.647,127.974L121.247,127.974Z" style="fill-rule:nonzero;"/>
    </g>
    <g transform="matrix(0.944039,0,0,0.944039,994.109,1363.02)">
        <path d="M137.914,67.974C141.647,67.974 144.58,70.907 144.58,74.641C144.58,78.374 141.647,81.307 137.914,81.307L84.58,81.307L84.58,94.641C84.58,101.974 90.58,107.974 97.914,107.974L124.58,107.974C139.247,107.974 151.247,119.974 151.247,134.641C151.247,149.307 139.247,161.307 124.58,161.307L94.447,161.307C81.647,161.307 71.247,150.774 71.247,137.974L71.247,134.641C71.247,130.907 74.18,127.974 77.914,127.974C81.647,127.974 84.58,130.907 84.58,134.641L84.58,137.974C84.58,143.441 89.114,147.974 94.58,147.974L124.58,147.974C131.914,147.974 137.914,141.974 137.914,134.641C137.914,127.307 131.914,121.307 124.58,121.307L97.78,121.307C83.114,121.307 71.247,109.307 71.247,94.641L71.247,74.641C71.247,70.907 74.18,67.974 77.914,67.974L137.914,67.974Z" style="fill-rule:nonzero;"/>
    </g>
    <g transform="matrix(0.944039,0,0,0.944039,1182.92,1363.02)">
        <path d="M100.247,161.307C85.58,161.307 73.58,149.307 73.58,134.641L73.58,107.974C73.58,85.841 91.58,67.974 113.58,67.974L140.247,67.974C143.98,67.974 146.914,70.907 146.914,74.641C146.914,78.374 143.98,81.307 140.247,81.307L113.58,81.307C101.847,81.307 91.98,88.907 88.38,99.441C87.18,103.174 89.847,107.841 94.78,107.974L127.047,107.974C141.714,107.974 153.58,119.974 153.58,134.641C153.58,149.307 141.714,161.307 126.914,161.307L100.247,161.307ZM100.247,121.307C92.914,121.307 86.914,127.307 86.914,134.641C86.914,141.974 92.914,147.974 100.247,147.974L126.914,147.974C134.247,147.974 140.247,141.974 140.247,134.641C140.247,127.307 134.247,121.307 126.914,121.307L100.247,121.307Z" style="fill-rule:nonzero;"/>
    </g>
    <g transform="matrix(0.944039,0,0,0.944039,1373.28,1363.02)">
        <path d="M71.58,87.974C71.58,76.907 80.514,67.974 91.58,67.974L138.247,67.974C145.18,67.974 150.914,73.574 150.914,80.641C150.914,83.174 150.114,85.707 148.78,87.707C147.047,90.107 145.447,92.641 144.647,93.841L100.914,161.307L84.914,161.307L133.047,87.307L134.647,85.041C135.714,83.441 134.647,81.307 132.647,81.307L91.58,81.307C87.847,81.307 84.914,84.241 84.914,87.974C84.914,91.707 81.98,94.641 78.247,94.641C74.514,94.641 71.58,91.707 71.58,87.974Z" style="fill-rule:nonzero;"/>
    </g>
    <g transform="matrix(0.944039,0,0,0.944039,1562.11,1363.02)">
        <path d="M99.447,161.307C82.914,161.307 69.58,147.841 69.58,131.307C69.58,122.107 73.714,113.841 80.247,108.374C75.714,104.107 72.914,97.974 72.914,91.307C72.914,78.374 83.314,67.974 96.247,67.974L129.58,67.974C142.514,67.974 152.914,78.374 152.914,91.307C152.914,98.774 149.314,105.574 143.847,109.841C149.447,115.307 152.914,122.907 152.914,131.307C152.914,147.841 139.447,161.307 122.914,161.307L99.447,161.307ZM129.58,81.307L96.247,81.307C90.78,81.307 86.247,85.841 86.247,91.307C86.247,96.774 90.78,101.307 96.247,101.307L129.58,101.307C135.047,101.307 139.58,96.774 139.58,91.307C139.58,85.841 135.047,81.307 129.58,81.307ZM99.58,114.641C90.38,114.641 82.914,122.107 82.914,131.307C82.914,140.507 90.38,147.974 99.58,147.974L122.914,147.974C132.114,147.974 139.58,140.507 139.58,131.307C139.58,122.107 132.114,114.641 122.914,114.641L99.58,114.641Z" style="fill-rule:nonzero;"/>
    </g>
    <g transform="matrix(0.944039,0,0,0.944039,1750.91,1363.02)">
        <path d="M122.247,67.974C136.914,67.974 148.914,79.974 148.914,94.641L148.914,121.307C148.914,143.441 131.047,161.307 108.914,161.307L82.247,161.307C78.514,161.307 75.58,158.374 75.58,154.641C75.58,150.907 78.514,147.974 82.247,147.974L108.914,147.974C120.647,147.974 130.647,140.374 134.114,129.841C135.314,126.107 132.647,121.441 127.714,121.307L95.447,121.307C80.78,121.307 68.914,109.307 68.914,94.641C68.914,79.974 80.914,67.974 95.58,67.974L122.247,67.974ZM122.247,107.974C129.58,107.974 135.58,101.974 135.58,94.641C135.58,87.307 129.58,81.307 122.247,81.307L95.58,81.307C88.247,81.307 82.247,87.307 82.247,94.641C82.247,101.974 88.247,107.974 95.58,107.974L122.247,107.974Z" style="fill-rule:nonzero;"/>
    </g>
    <g transform="matrix(0.944039,0,0,0.944039,51.6437,1174.22)">
        <path d="M75.247,65.174C75.247,61.574 78.18,58.507 81.914,58.507C85.647,58.507 88.58,61.574 88.58,65.174L88.58,70.641C88.58,74.374 85.647,77.307 81.914,77.307C78.18,77.307 75.247,74.374 75.247,70.641L75.247,65.174ZM133.914,65.174C133.914,61.574 136.847,58.507 140.58,58.507C144.314,58.507 147.247,61.574 147.247,65.174L147.247,70.641C147.247,74.374 144.314,77.307 140.58,77.307C136.847,77.307 133.914,74.374 133.914,70.641L133.914,65.174ZM111.247,67.974C122.58,67.974 133.247,75.174 136.847,87.307L157.914,161.307L144.58,161.307L139.38,143.707C138.98,142.241 137.78,141.307 136.18,141.307L86.314,141.307C84.714,141.307 83.514,142.241 83.114,143.707L81.78,147.974L77.914,161.307L64.58,161.307L85.647,87.307C89.247,75.174 99.914,67.974 111.247,67.974ZM133.647,123.707L124.18,91.441C122.714,85.574 117.514,81.307 111.247,81.307C104.98,81.307 99.78,85.574 98.314,91.441C98.18,91.841 88.847,123.707 88.847,123.707L88.714,124.641C88.714,126.507 90.314,127.974 92.047,127.974L130.447,127.974C132.18,127.974 133.78,126.507 133.78,124.641L133.647,123.707Z" style="fill-rule:nonzero;"/>
    </g>
    <g transform="matrix(0.944039,0,0,0.944039,240.452,1174.22)">
        <path d="M92.914,78.507C92.914,74.907 95.847,71.841 99.58,71.841C103.314,71.841 106.247,74.907 106.247,78.507L106.247,83.974C106.247,87.707 103.314,90.641 99.58,90.641C95.847,90.641 92.914,87.707 92.914,83.974L92.914,78.507ZM111.58,78.507C111.58,74.907 114.514,71.841 118.247,71.841C121.98,71.841 124.914,74.907 124.914,78.507L124.914,83.974C124.914,87.707 121.98,90.641 118.247,90.641C114.514,90.641 111.58,87.707 111.58,83.974L111.58,78.507ZM128.914,154.641C123.314,158.774 116.38,161.307 108.914,161.307C90.514,161.307 75.58,146.374 75.58,127.974C75.58,109.574 90.514,94.641 108.914,94.641C127.314,94.641 142.247,109.574 142.247,127.974L142.247,161.307L128.914,161.307L128.914,154.641ZM108.914,107.974C97.847,107.974 88.914,116.907 88.914,127.974C88.914,139.041 97.847,147.974 108.914,147.974C119.98,147.974 128.914,139.041 128.914,127.974C128.914,116.907 119.98,107.974 108.914,107.974Z" style="fill-rule:nonzero;"/>
    </g>
    <g transform="matrix(0.944039,0,0,0.944039,427.686,1174.22)">
        <path d="M64.58,65.174C64.58,61.574 67.514,58.507 71.247,58.507C74.847,58.507 77.914,61.574 77.914,65.174L77.914,70.641C77.914,74.374 74.847,77.307 71.247,77.307C67.514,77.307 64.58,74.374 64.58,70.641L64.58,65.174ZM144.58,65.174C144.58,61.574 147.514,58.507 151.247,58.507C154.847,58.507 157.914,61.574 157.914,65.174L157.914,70.641C157.914,74.374 154.847,77.307 151.247,77.307C147.514,77.307 144.58,74.374 144.58,70.641L144.58,65.174ZM111.247,67.974C136.98,67.974 157.914,88.907 157.914,114.641C157.914,140.374 136.98,161.307 111.247,161.307C85.38,161.307 64.58,140.374 64.58,114.641C64.58,88.907 85.38,67.974 111.247,67.974ZM111.247,81.307C92.847,81.307 77.914,96.241 77.914,114.641C77.914,133.041 92.847,147.974 111.247,147.974C129.647,147.974 144.58,133.041 144.58,114.641C144.58,96.241 129.647,81.307 111.247,81.307Z" style="fill-rule:nonzero;"/>
    </g>
    <g transform="matrix(0.944039,0,0,0.944039,618.067,1174.22)">
        <path d="M95.247,78.507C95.247,74.907 98.314,71.841 101.914,71.841C105.647,71.841 108.58,74.907 108.58,78.507L108.58,83.974C108.58,87.707 105.647,90.641 101.914,90.641C98.314,90.641 95.247,87.707 95.247,83.974L95.247,78.507ZM113.914,78.507C113.914,74.907 116.98,71.841 120.58,71.841C124.314,71.841 127.247,74.907 127.247,78.507L127.247,83.974C127.247,87.707 124.314,90.641 120.58,90.641C116.98,90.641 113.914,87.707 113.914,83.974L113.914,78.507ZM111.247,94.641C129.647,94.641 144.58,109.574 144.58,127.974C144.58,146.374 129.647,161.307 111.247,161.307C92.847,161.307 77.914,146.374 77.914,127.974C77.914,109.574 92.847,94.641 111.247,94.641ZM111.247,107.974C100.18,107.974 91.247,116.907 91.247,127.974C91.247,139.041 100.18,147.974 111.247,147.974C122.314,147.974 131.247,139.041 131.247,127.974C131.247,116.907 122.314,107.974 111.247,107.974Z" style="fill-rule:nonzero;"/>
    </g>
    <g transform="matrix(0.944039,0,0,0.944039,805.301,1174.22)">
        <path d="M93.914,65.174C93.914,61.574 96.847,58.507 100.58,58.507C104.18,58.507 107.247,61.574 107.247,65.174L107.247,70.641C107.247,74.374 104.18,77.307 100.58,77.307C96.847,77.307 93.914,74.374 93.914,70.641L93.914,65.174ZM115.247,65.174C115.247,61.574 118.18,58.507 121.914,58.507C125.514,58.507 128.58,61.574 128.58,65.174L128.58,70.641C128.58,74.374 125.514,77.307 121.914,77.307C118.18,77.307 115.247,74.374 115.247,70.641L115.247,65.174ZM137.914,74.641C137.914,70.907 140.847,67.974 144.58,67.974C148.18,67.974 151.247,70.907 151.247,74.641L151.247,121.307C151.247,143.441 133.247,161.307 111.247,161.307C89.114,161.307 71.247,143.441 71.247,121.307L71.247,74.641C71.247,70.907 74.18,67.974 77.914,67.974C81.514,67.974 84.58,70.907 84.58,74.641L84.58,121.307C84.58,135.974 96.447,147.974 111.247,147.974C125.914,147.974 137.914,135.974 137.914,121.307L137.914,74.641Z" style="fill-rule:nonzero;"/>
    </g>
    <g transform="matrix(0.944039,0,0,0.944039,994.109,1174.22)">
        <path d="M93.914,65.174C93.914,61.574 96.847,58.507 100.58,58.507C104.18,58.507 107.247,61.574 107.247,65.174L107.247,70.641C107.247,74.374 104.18,77.307 100.58,77.307C96.847,77.307 93.914,74.374 93.914,70.641L93.914,65.174ZM115.247,65.174C115.247,61.574 118.18,58.507 121.914,58.507C125.514,58.507 128.58,61.574 128.58,65.174L128.58,70.641C128.58,74.374 125.514,77.307 121.914,77.307C118.18,77.307 115.247,74.374 115.247,70.641L115.247,65.174ZM137.914,74.641C137.914,70.907 140.847,67.974 144.58,67.974C148.18,67.974 151.247,70.907 151.247,74.641L151.247,121.307C151.247,143.441 133.247,161.307 111.247,161.307C89.114,161.307 71.247,143.441 71.247,121.307L71.247,74.641C71.247,70.907 74.18,67.974 77.914,67.974C81.514,67.974 84.58,70.907 84.58,74.641L84.58,121.307C84.58,135.974 96.447,147.974 111.247,147.974C125.914,147.974 137.914,135.974 137.914,121.307L137.914,74.641Z" style="fill-rule:nonzero;"/>
    </g>
    <g transform="matrix(0.944039,0,0,0.944039,1182.92,1174.22)">
        <path d="M114.38,81.307C113.314,81.307 112.247,81.307 111.18,81.441C109.314,81.707 107.447,82.107 105.714,82.774C101.98,84.107 98.38,86.241 95.58,89.174C92.647,91.974 90.514,95.574 89.18,99.307C88.514,101.041 88.114,102.907 87.98,104.641C87.847,105.707 87.714,106.774 87.714,107.841L87.714,181.307C87.714,185.041 84.78,187.974 81.047,187.974C77.314,187.974 74.38,185.041 74.38,181.307L74.38,107.841C74.514,85.841 92.38,67.974 114.38,67.974L114.514,67.974C129.18,67.974 141.047,79.974 141.047,94.641C141.047,98.774 140.114,102.641 138.38,106.241C138.38,106.374 138.247,106.507 138.247,106.641C137.58,108.107 138.114,109.974 139.58,110.774C148.38,115.174 154.38,124.241 154.38,134.641C154.38,149.307 142.38,161.307 127.714,161.307L101.047,161.307C97.314,161.307 94.38,158.374 94.38,154.641C94.38,150.907 97.314,147.974 101.047,147.974L127.714,147.974C135.047,147.974 141.047,141.974 141.047,134.641C141.047,127.307 135.047,121.307 127.714,121.307L114.38,121.307C110.647,121.307 107.714,118.374 107.714,114.641C107.714,110.907 110.647,107.974 114.38,107.974L114.514,107.974C121.847,107.974 127.714,101.974 127.714,94.641C127.714,87.307 121.714,81.307 114.38,81.307Z" style="fill-rule:nonzero;"/>
    </g>
    <g transform="matrix(0.944039,0,0,0.944039,51.6437,1740.64)">
        <path d="M131.114,101.174C121.914,93.841 106.58,92.507 96.18,98.241C85.514,103.174 77.38,116.241 77.914,128.107C77.514,139.841 85.647,152.907 96.314,157.841C106.714,163.441 122.047,162.107 131.247,154.641C130.847,160.774 135.914,167.707 141.914,169.441C147.647,171.707 155.78,169.174 159.247,163.974C166.98,153.974 171.914,139.307 171.114,124.907C170.447,110.507 164.047,96.507 155.247,87.307C146.847,77.707 133.247,70.374 118.98,68.507C104.714,66.641 89.78,70.241 79.114,77.307C68.314,83.841 58.58,95.841 54.047,109.574C49.647,123.307 50.58,138.641 55.514,150.374C60.047,162.241 70.18,173.974 82.847,180.774C95.514,187.707 110.847,189.574 123.247,186.774C126.847,185.707 128.847,182.907 128.447,178.907C128.047,175.574 123.647,172.774 120.58,173.707C110.847,175.841 98.98,174.374 89.114,169.041C79.247,163.841 71.514,154.641 67.914,145.441C64.047,136.241 63.38,124.374 66.847,113.707C70.18,103.041 77.78,93.707 86.314,88.507C94.58,83.041 106.18,80.241 117.247,81.707C128.447,83.174 138.98,88.907 145.514,96.374C152.314,103.441 157.247,114.374 157.78,125.574C158.447,136.774 154.58,148.107 148.58,155.974C148.047,156.774 146.847,157.041 146.047,156.774C145.247,156.507 144.58,155.574 144.58,154.641L144.58,127.974C144.847,117.974 139.247,107.041 131.114,101.174ZM91.247,127.974C91.114,123.307 93.247,117.707 97.114,113.841C100.98,109.974 106.58,107.841 111.247,107.974C115.914,107.841 121.514,109.974 125.38,113.841C129.247,117.707 131.38,123.307 131.247,127.974C131.38,132.641 129.247,138.241 125.38,142.107C121.514,145.974 115.914,148.107 111.247,147.974C106.58,148.107 100.98,145.974 97.114,142.107C93.247,138.241 91.114,132.641 91.247,127.974Z" style="fill-rule:nonzero;"/>
    </g>
    <g transform="matrix(0.944039,0,0,0.944039,240.452,1740.64)">
        <path d="M64.58,89.041C64.447,84.107 66.714,78.241 70.714,74.107C74.847,70.107 80.714,67.841 85.647,67.974C90.58,67.841 96.447,70.107 100.58,74.107C104.714,78.241 106.847,84.107 106.714,89.041C106.847,93.974 104.714,99.841 100.58,103.974C96.447,108.107 90.58,110.241 85.647,110.107C80.714,110.241 74.847,108.107 70.714,103.974C66.714,99.841 64.447,93.974 64.58,89.041ZM146.58,69.974C148.58,67.441 153.914,67.441 155.914,69.974C158.447,71.974 158.447,77.307 155.914,79.307L75.914,159.307C73.914,161.974 68.58,161.974 66.58,159.307C64.047,157.307 64.047,151.974 66.58,149.974L146.58,69.974ZM77.914,89.041C77.514,92.907 81.914,97.174 85.647,96.774C89.514,97.174 93.78,92.907 93.38,89.041C93.78,85.307 89.514,80.907 85.647,81.307C81.914,80.907 77.514,85.307 77.914,89.041ZM136.847,161.307C131.914,161.441 126.047,159.174 121.914,155.174C117.78,151.041 115.647,145.174 115.78,140.241C115.647,135.307 117.78,129.441 121.914,125.307C126.047,121.174 131.914,119.041 136.847,119.174C141.78,119.041 147.647,121.174 151.78,125.307C155.78,129.441 158.047,135.307 157.914,140.241C158.047,145.174 155.78,151.041 151.78,155.174C147.647,159.174 141.78,161.441 136.847,161.307ZM136.847,147.974C140.58,148.374 144.98,143.974 144.58,140.241C144.98,136.374 140.58,132.107 136.847,132.507C132.98,132.107 128.714,136.374 129.114,140.241C128.714,143.974 132.98,148.374 136.847,147.974Z" style="fill-rule:nonzero;"/>
    </g>
    <g transform="matrix(0.944039,0,0,0.944039,427.686,1740.64)">
        <path d="M136.447,136.641L133.247,132.774L143.38,118.507C145.514,115.974 144.58,110.774 141.78,109.174C139.247,107.041 134.047,107.841 132.447,110.774L124.314,122.507L113.247,109.707L114.58,108.107L119.78,104.507C125.914,100.641 129.247,92.774 128.58,86.507C128.314,81.974 126.047,76.774 122.18,73.307C118.447,69.841 113.114,67.841 108.58,67.974L103.247,67.974C96.047,67.707 87.914,72.907 85.114,79.574C81.78,86.107 83.114,95.707 88.18,101.041L92.98,106.641L84.447,112.374C78.047,116.507 73.38,124.241 72.714,131.841C71.914,139.441 74.847,147.974 80.314,153.307C85.514,158.774 94.047,161.974 101.514,161.174C109.114,160.641 116.98,156.241 121.247,149.974L125.38,144.107L138.18,158.907C140.047,161.707 145.38,161.974 147.647,159.574C150.314,157.707 150.714,152.507 148.314,150.241L136.447,136.641ZM97.247,85.174C98.18,82.907 100.847,81.174 103.247,81.307L108.58,81.307C111.247,81.174 114.314,83.441 114.98,85.974C115.914,88.507 114.714,92.107 112.314,93.441L104.047,99.041L98.18,92.374C96.58,90.507 96.047,87.307 97.247,85.174ZM110.314,142.241C108.18,145.441 104.314,147.707 100.447,147.841C96.714,148.241 92.447,146.641 89.78,143.974C87.114,141.307 85.514,136.907 86.047,133.174C86.314,129.441 88.714,125.441 91.914,123.441L101.78,116.774L116.314,133.707L110.314,142.241Z" style="fill-rule:nonzero;"/>
    </g>
    <g transform="matrix(0.944039,0,0,0.944039,618.067,1740.64)">
        <path d="M117.914,61.307C118.18,58.107 114.447,54.374 111.247,54.641C107.914,54.374 104.18,58.107 104.58,61.307L104.58,67.974C98.314,67.841 90.847,70.641 85.78,75.841C80.58,80.907 77.78,88.374 77.914,94.641C77.78,100.907 80.58,108.374 85.78,113.441C90.847,118.641 98.314,121.441 104.58,121.307L104.58,147.974C98.58,147.974 92.447,146.907 86.847,144.907C85.247,144.374 83.247,144.374 81.647,145.174C80.18,145.841 78.847,147.307 78.314,149.041C77.647,150.641 77.78,152.507 78.58,154.107C79.247,155.574 80.714,156.907 82.314,157.441C89.38,159.974 97.114,161.307 104.58,161.307L104.58,167.974C104.18,171.174 107.914,174.907 111.247,174.641C114.447,174.907 118.18,171.174 117.914,167.974L117.914,161.307C124.047,161.441 131.647,158.641 136.714,153.441C141.914,148.374 144.714,140.907 144.58,134.641C144.714,128.374 141.914,120.907 136.714,115.841C131.647,110.641 124.047,107.841 117.914,107.974L117.914,81.307C123.914,81.307 130.047,82.374 135.647,84.374C138.58,85.841 143.38,83.574 144.18,80.241C145.514,77.307 143.247,72.641 140.047,71.841C132.98,69.307 125.38,67.974 117.914,67.974L117.914,61.307ZM104.58,107.974C101.514,108.107 97.78,106.641 95.114,104.107C92.58,101.441 91.114,97.707 91.247,94.641C91.114,91.574 92.58,87.841 95.114,85.174C97.78,82.641 101.514,81.174 104.58,81.307L104.58,107.974ZM117.914,121.307C120.98,121.174 124.714,122.641 127.38,125.174C129.914,127.841 131.247,131.574 131.247,134.641C131.247,137.707 129.914,141.441 127.38,144.107C124.714,146.641 120.98,148.107 117.914,147.974L117.914,121.307Z" style="fill-rule:nonzero;"/>
    </g>
    <g transform="matrix(0.944039,0,0,0.944039,805.301,1740.64)">
        <path d="M157.78,83.574C148.18,72.374 130.98,65.974 116.314,68.507C101.647,70.241 86.98,81.174 80.98,94.641L69.78,94.641C66.447,94.641 63.114,98.107 63.114,101.307C63.114,104.641 66.447,107.974 69.78,107.974L76.847,107.974C76.314,112.374 76.314,116.907 76.847,121.307L69.78,121.307C66.447,121.307 63.114,124.641 63.114,127.974C63.114,131.307 66.447,134.641 69.78,134.641L80.98,134.641C86.98,148.107 101.647,159.041 116.314,160.774C130.98,163.307 148.18,157.041 157.78,145.707C160.18,143.441 159.914,138.774 157.247,136.374C154.714,133.841 149.78,134.241 147.78,136.907C141.647,144.107 131.114,148.507 121.647,147.841C112.047,147.707 102.047,142.374 96.447,134.641L129.647,134.641C132.98,134.641 136.314,131.307 136.314,127.974C136.314,124.641 132.98,121.307 129.647,121.307L90.447,121.307C89.514,116.907 89.514,112.374 90.447,107.974L129.647,107.974C132.98,107.974 136.314,104.641 136.314,101.307C136.314,98.107 132.98,94.641 129.647,94.641L96.447,94.641C102.047,86.907 112.047,81.574 121.647,81.441C131.114,80.774 141.647,85.174 147.78,92.507C149.78,95.174 154.98,95.441 157.247,93.041C159.914,91.041 160.18,85.841 157.78,83.574Z" style="fill-rule:nonzero;"/>
    </g>
    <g transform="matrix(0.944039,0,0,0.944039,994.109,1740.64)">
        <path d="M104.58,87.974C104.58,84.241 107.514,81.307 111.247,81.307C114.98,81.307 117.914,84.241 117.914,87.974L117.914,107.974L137.914,107.974C141.647,107.974 144.58,110.907 144.58,114.641C144.58,118.374 141.647,121.307 137.914,121.307L117.914,121.307L117.914,141.307C117.914,145.041 114.98,147.974 111.247,147.974C107.514,147.974 104.58,145.041 104.58,141.307L104.58,121.307L84.58,121.307C80.847,121.307 77.914,118.374 77.914,114.641C77.914,110.907 80.847,107.974 84.58,107.974L104.58,107.974L104.58,87.974Z" style="fill-rule:nonzero;"/>
    </g>
    <g transform="matrix(0.944039,0,0,0.944039,1182.92,1740.64)">
        <path d="M137.914,107.974C141.647,107.974 144.58,110.907 144.58,114.641C144.58,118.374 141.647,121.307 137.914,121.307L84.58,121.307C80.98,121.307 77.914,118.374 77.914,114.641C77.914,110.907 80.98,107.974 84.58,107.974L137.914,107.974Z" style="fill-rule:nonzero;"/>
    </g>
    <g transform="matrix(0.944039,0,0,0.944039,1373.28,1740.64)">
        <path d="M137.914,94.641C141.647,94.641 144.58,97.574 144.58,101.307C144.58,105.041 141.647,107.974 137.914,107.974L84.58,107.974C80.847,107.974 77.914,105.041 77.914,101.307C77.914,97.574 80.847,94.641 84.58,94.641L137.914,94.641ZM137.914,121.307C141.647,121.307 144.58,124.241 144.58,127.974C144.58,131.707 141.647,134.641 137.914,134.641L84.58,134.641C80.847,134.641 77.914,131.707 77.914,127.974C77.914,124.241 80.847,121.307 84.58,121.307L137.914,121.307Z" style="fill-rule:nonzero;"/>
    </g>
    <g transform="matrix(0.944039,0,0,0.944039,51.6437,1929.45)">
        <path d="M106.914,159.307C106.914,160.374 107.847,161.307 108.914,161.307L126.914,161.307C130.647,161.307 133.58,164.241 133.58,167.974C133.58,171.574 130.647,174.641 126.914,174.641L108.914,174.641C100.647,174.641 93.98,168.107 93.58,159.974L93.58,69.307C93.98,61.174 100.647,54.641 108.914,54.641L126.914,54.641C130.647,54.641 133.58,57.574 133.58,61.307C133.58,64.907 130.647,67.974 126.914,67.974L108.914,67.974C107.847,67.974 106.914,68.907 106.914,69.974L106.914,159.307Z" style="fill-rule:nonzero;"/>
    </g>
    <g transform="matrix(0.944039,0,0,0.944039,240.452,1929.45)">
        <path d="M115.58,69.974C115.58,68.907 114.647,67.974 113.58,67.974L95.58,67.974C91.847,67.974 88.914,64.907 88.914,61.307C88.914,57.574 91.847,54.641 95.58,54.641L113.58,54.641C121.847,54.641 128.514,61.174 128.914,69.307L128.914,159.974C128.514,168.107 121.847,174.641 113.58,174.641L95.58,174.641C91.847,174.641 88.914,171.574 88.914,167.974C88.914,164.241 91.847,161.307 95.58,161.307L113.58,161.307C114.647,161.307 115.58,160.374 115.58,159.307L115.58,69.974Z" style="fill-rule:nonzero;"/>
    </g>
    <g transform="matrix(0.944039,0,0,0.944039,427.686,1929.45)">
        <path d="M117.914,154.774C117.647,157.841 121.247,161.574 124.714,161.307C127.78,161.041 131.514,164.641 131.247,167.974C131.514,171.174 127.78,175.041 124.714,174.774C119.514,174.774 114.047,172.374 110.447,168.774C106.714,165.174 104.58,159.707 104.714,154.774L104.714,128.107C104.714,126.374 103.914,124.641 102.714,123.307C101.514,122.107 99.647,121.307 97.914,121.307C94.847,121.707 90.98,118.107 91.247,114.774C90.98,111.441 94.847,107.707 97.914,108.107C99.647,108.107 101.514,107.441 102.714,106.241C103.914,104.907 104.714,103.174 104.714,101.307L104.714,74.907C104.58,69.841 106.714,64.374 110.447,60.774C114.047,57.041 119.514,54.774 124.714,54.907C127.78,54.641 131.514,58.374 131.247,61.574C131.514,64.774 127.78,68.507 124.714,68.241C121.247,67.974 117.647,71.574 117.914,74.907L117.914,101.307C117.914,106.241 116.047,111.307 112.847,114.774C116.047,118.374 117.914,123.174 117.914,128.107L117.914,154.774Z" style="fill-rule:nonzero;"/>
    </g>
    <g transform="matrix(0.944039,0,0,0.944039,618.067,1929.45)">
        <path d="M104.58,128.107C104.58,123.174 106.447,118.374 109.647,114.774C106.447,111.307 104.58,106.241 104.58,101.307L104.58,74.907C104.847,71.574 101.247,67.974 97.78,68.241C94.714,68.507 90.98,64.774 91.247,61.574C90.98,58.374 94.714,54.641 97.78,54.907C102.98,54.774 108.447,57.041 112.047,60.774C115.78,64.374 117.914,69.841 117.78,74.907L117.78,101.307C117.78,103.174 118.58,104.907 119.78,106.241C120.98,107.441 122.847,108.107 124.58,108.107C127.647,107.707 131.514,111.441 131.247,114.774C131.514,118.107 127.647,121.707 124.58,121.307C122.847,121.307 120.98,122.107 119.78,123.307C118.58,124.641 117.78,126.374 117.78,128.107L117.78,154.774C117.914,159.707 115.78,165.174 112.047,168.774C108.447,172.374 102.98,174.774 97.78,174.774C94.714,175.041 90.98,171.174 91.247,167.974C90.98,164.641 94.714,161.041 97.78,161.307C101.247,161.574 104.847,157.841 104.58,154.774L104.58,128.107Z" style="fill-rule:nonzero;"/>
    </g>
    <g transform="matrix(0.944039,0,0,0.944039,805.301,1929.45)">
        <path d="M123.714,56.107C114.914,62.507 107.314,71.574 102.114,81.841C96.914,92.241 94.38,103.707 94.38,114.641C94.38,125.707 96.914,137.174 102.114,147.441C107.314,157.841 114.914,166.774 123.714,173.307C124.914,174.241 126.78,174.907 128.647,174.507C130.514,174.241 132.114,173.307 133.047,171.974C133.98,170.774 134.514,168.774 134.247,167.041C133.98,165.307 133.047,163.574 131.714,162.641C124.514,157.307 118.247,149.974 113.98,141.441C109.847,133.041 107.58,123.574 107.714,114.641C107.58,105.841 109.847,96.241 113.98,87.974C118.247,79.441 124.514,72.107 131.714,66.641C133.047,65.841 133.98,64.107 134.247,62.374C134.514,60.641 133.98,58.641 133.047,57.441C132.114,56.107 130.514,55.041 128.647,54.774C126.78,54.507 124.914,55.174 123.714,56.107Z" style="fill-rule:nonzero;"/>
    </g>
    <g transform="matrix(0.944039,0,0,0.944039,994.109,1929.45)">
        <path d="M98.78,56.107C97.58,55.174 95.714,54.507 93.847,54.774C91.98,55.041 90.38,56.107 89.447,57.441C88.514,58.641 87.98,60.641 88.247,62.374C88.514,64.107 89.447,65.841 90.78,66.641C97.98,72.107 104.247,79.441 108.514,87.974C112.647,96.241 114.914,105.841 114.78,114.641C114.914,123.574 112.647,133.041 108.514,141.441C104.247,149.974 97.98,157.307 90.78,162.641C89.447,163.574 88.514,165.307 88.247,167.041C87.98,168.774 88.514,170.774 89.447,171.974C90.38,173.307 91.98,174.241 93.847,174.507C95.714,174.907 97.58,174.241 98.78,173.307C107.58,166.774 115.18,157.841 120.38,147.441C125.58,137.174 128.114,125.707 128.114,114.641C128.114,103.707 125.58,92.241 120.38,81.841C115.18,71.574 107.58,62.507 98.78,56.107Z" style="fill-rule:nonzero;"/>
    </g>
    <g transform="matrix(0.944039,0,0,0.944039,1182.92,1929.45)">
        <path d="M137.38,63.441C138.18,61.841 137.914,59.841 137.247,58.374C136.447,56.907 135.114,55.707 133.247,55.174C131.78,54.374 129.914,54.507 128.18,55.707C126.714,56.241 125.514,57.707 124.714,59.441L84.847,165.707C83.647,168.641 86.18,173.574 89.114,174.241C92.314,175.441 97.114,173.174 97.647,169.841L137.38,63.441Z" style="fill-rule:nonzero;"/>
    </g>
    <g transform="matrix(0.944039,0,0,0.944039,1373.28,1929.45)">
        <path d="M124.847,169.841C125.38,173.174 130.18,175.441 133.38,174.241C136.314,173.574 138.847,168.641 137.647,165.707L97.78,59.441C96.98,57.707 95.78,56.241 94.314,55.707C92.58,54.507 90.714,54.374 89.247,55.174C87.38,55.707 86.047,56.907 85.247,58.374C84.58,59.841 84.314,61.841 85.114,63.441L124.847,169.841Z" style="fill-rule:nonzero;"/>
    </g>
    <g transform="matrix(0.944039,0,0,0.944039,1562.11,1929.45)">
        <path d="M104.58,154.641C104.58,158.374 101.514,161.307 97.914,161.307C94.18,161.307 91.247,158.374 91.247,154.641L91.247,138.641L77.914,138.641C74.18,138.641 71.247,135.707 71.247,131.974C71.247,128.241 74.18,125.307 77.914,125.307L91.247,125.307L91.247,103.974L77.914,103.974C74.18,103.974 71.247,101.041 71.247,97.307C71.247,93.574 74.18,90.641 77.914,90.641L91.247,90.641L91.247,74.641C91.247,70.907 94.18,67.974 97.914,67.974C101.514,67.974 104.58,70.907 104.58,74.641L104.58,90.641L117.914,90.641L117.914,74.641C117.914,70.907 120.847,67.974 124.58,67.974C128.18,67.974 131.247,70.907 131.247,74.641L131.247,90.641L144.58,90.641C148.18,90.641 151.247,93.574 151.247,97.307C151.247,101.041 148.18,103.974 144.58,103.974L131.247,103.974L131.247,125.307L144.58,125.307C148.18,125.307 151.247,128.241 151.247,131.974C151.247,135.707 148.18,138.641 144.58,138.641L131.247,138.641L131.247,154.641C131.247,158.374 128.18,161.307 124.58,161.307C120.847,161.307 117.914,158.374 117.914,154.641L117.914,138.641L104.58,138.641L104.58,154.641ZM104.58,125.307L117.914,125.307L117.914,103.974L104.58,103.974L104.58,125.307Z" style="fill-rule:nonzero;"/>
    </g>
    <g transform="matrix(0.944039,0,0,0.944039,1750.91,1929.45)">
        <path d="M111.247,161.307C122.18,161.574 135.247,156.641 144.314,147.707C153.247,138.641 158.18,125.574 157.914,114.641C158.18,103.707 153.247,90.641 144.314,81.707C135.247,72.641 122.18,67.707 111.247,67.974C100.447,67.707 87.247,72.641 78.314,81.707C69.247,90.641 64.314,103.707 64.58,114.641C64.314,125.574 69.247,138.641 78.314,147.707C87.247,156.641 100.447,161.574 111.247,161.307ZM111.247,151.974C102.58,152.241 92.047,148.241 84.847,141.041C77.647,133.841 73.647,123.307 73.914,114.641C73.647,105.974 77.647,95.441 84.847,88.241C92.047,81.041 102.58,77.041 111.247,77.307C119.914,77.041 130.447,81.041 137.647,88.241C144.847,95.441 148.847,105.974 148.58,114.641C148.847,123.307 144.847,133.841 137.647,141.041C130.447,148.241 119.914,152.241 111.247,151.974ZM124.047,107.307C124.98,109.441 128.714,110.507 130.714,109.041C132.847,108.107 133.914,104.374 132.447,102.374C127.914,93.307 114.58,87.841 104.847,91.041C94.98,93.041 86.18,104.507 86.847,114.641C86.18,124.774 94.98,136.241 104.98,138.241C114.58,141.574 127.914,135.974 132.447,126.907C133.914,124.907 132.847,121.174 130.714,120.241C128.714,118.774 124.98,119.841 124.047,121.974C121.247,127.441 113.247,130.774 107.514,128.907C101.514,127.574 96.18,120.774 96.58,114.641C96.18,108.641 101.514,101.707 107.514,100.507C113.247,98.507 121.247,101.841 124.047,107.307Z" style="fill-rule:nonzero;"/>
    </g>
    <g transform="matrix(0.944039,0,0,0.944039,51.6437,607.787)">
        <path d="M128.914,154.641C123.314,158.774 116.38,161.307 108.914,161.307C90.514,161.307 75.58,146.374 75.58,127.974C75.58,109.574 90.514,94.641 108.914,94.641C127.314,94.641 142.247,109.574 142.247,127.974L142.247,161.307L128.914,161.307L128.914,154.641ZM108.914,107.974C97.847,107.974 88.914,116.907 88.914,127.974C88.914,139.041 97.847,147.974 108.914,147.974C119.98,147.974 128.914,139.041 128.914,127.974C128.914,116.907 119.98,107.974 108.914,107.974Z" style="fill-rule:nonzero;"/>
    </g>
    <g transform="matrix(0.944039,0,0,0.944039,51.6437,796.595)">
        <path d="M107.314,136.241C109.714,133.841 114.914,134.374 116.78,137.174L134.38,158.907C135.447,160.241 137.18,161.174 138.914,161.307C140.647,161.441 142.514,160.907 143.847,159.841C145.18,158.774 146.114,157.041 146.247,155.307C146.38,153.574 145.847,151.707 144.78,150.374L127.047,128.774C124.78,126.374 125.314,121.174 127.98,119.307L143.847,106.507C146.514,104.641 147.047,99.441 144.78,97.174C142.914,94.374 137.714,93.841 135.314,96.107L95.714,128.507C95.18,128.907 94.38,129.041 93.847,128.774C93.314,128.507 92.914,127.841 92.914,127.307L92.914,74.641C93.314,71.441 89.58,67.707 86.247,67.974C83.047,67.707 79.314,71.441 79.58,74.641L79.58,161.307L92.914,161.307L92.914,151.174C92.914,149.174 93.847,147.174 95.314,145.974L107.314,136.241Z" style="fill-rule:nonzero;"/>
    </g>
    <g transform="matrix(0.944039,0,0,0.944039,50.0624,985.402)">
        <path d="M91.247,127.974C91.247,138.907 100.18,147.974 111.247,147.974C122.314,147.974 131.247,138.907 131.247,127.974L131.247,101.174C131.247,97.574 134.314,94.641 137.914,94.641C141.647,94.641 144.58,97.574 144.58,101.307L144.58,127.974C144.58,146.374 129.647,161.307 111.247,161.307C92.847,161.307 77.914,146.374 77.914,127.974L77.914,101.174C77.914,97.574 80.98,94.641 84.58,94.641C88.314,94.641 91.247,97.574 91.247,101.307L91.247,127.974Z" style="fill-rule:nonzero;"/>
    </g>
    <g transform="matrix(0.944039,0,0,0.944039,240.452,985.402)">
        <path d="M90.78,98.907C89.847,95.707 85.047,93.707 82.114,95.174C78.914,96.107 76.914,100.907 78.38,103.841L95.58,150.374C97.58,156.641 104.78,161.574 111.314,161.307C117.714,161.574 124.914,156.641 126.914,150.374L144.114,103.841C145.58,100.907 143.58,96.107 140.38,95.174C137.447,93.707 132.647,95.707 131.714,98.907L114.38,145.841C113.98,147.041 112.514,148.107 111.314,147.974C109.98,148.107 108.514,147.041 108.114,145.841L90.78,98.907Z" style="fill-rule:nonzero;"/>
    </g>
    <g transform="matrix(0.944039,0,0,0.944039,429.215,985.402)">
        <path d="M116.847,149.041C117.247,152.107 118.98,155.307 121.514,157.707C124.18,159.974 127.514,161.174 130.58,161.307C133.647,161.441 137.247,160.507 140.047,158.507C142.714,156.374 144.714,153.307 145.514,150.374L157.647,103.041C158.847,99.974 156.18,95.441 152.98,94.907C149.78,93.841 145.247,96.507 144.847,99.707L132.58,147.041C132.447,147.574 131.78,148.107 131.247,147.974C130.714,147.974 130.047,147.441 129.914,146.907L121.78,103.441C121.247,98.774 115.914,94.374 111.247,94.774C106.58,94.374 101.38,98.774 100.847,103.441L92.58,146.907C92.58,147.441 91.914,147.974 91.38,147.974C90.847,148.107 90.18,147.574 90.047,147.041L77.78,99.707C77.247,96.507 72.714,93.841 69.647,94.907C66.447,95.441 63.78,99.974 64.847,103.041L77.114,150.374C77.78,153.307 79.78,156.374 82.58,158.507C85.38,160.507 88.847,161.441 91.914,161.307C94.98,161.174 98.447,159.974 100.98,157.707C103.647,155.307 105.247,152.107 105.78,149.041L110.447,120.907C110.447,120.507 110.98,120.241 111.247,120.241C111.647,120.241 112.047,120.507 112.18,120.907L116.847,149.041Z" style="fill-rule:nonzero;"/>
    </g>
    <g transform="matrix(0.944039,0,0,0.944039,618.067,985.402)">
        <path d="M142.58,105.974C143.78,104.907 144.58,103.174 144.58,101.307C144.58,99.441 143.78,97.707 142.58,96.641C141.514,95.441 139.78,94.641 137.914,94.641C136.047,94.641 134.314,95.441 133.247,96.641L111.247,118.507L89.247,96.641C88.18,95.441 86.447,94.641 84.58,94.641C82.714,94.641 80.98,95.441 79.914,96.641C78.714,97.707 77.914,99.441 77.914,101.307C77.914,103.174 78.714,104.907 79.914,105.974L101.78,127.974L79.914,149.974C78.714,151.041 77.914,152.774 77.914,154.641C77.914,156.507 78.714,158.241 79.914,159.307C80.98,160.507 82.714,161.307 84.58,161.307C86.447,161.307 88.18,160.507 89.247,159.307L111.247,137.441L133.247,159.307C134.314,160.507 136.047,161.307 137.914,161.307C139.78,161.307 141.514,160.507 142.58,159.307C143.78,158.241 144.58,156.507 144.58,154.641C144.58,152.774 143.78,151.041 142.58,149.974L120.714,127.974L142.58,105.974Z" style="fill-rule:nonzero;"/>
    </g>
    <g transform="matrix(0.944039,0,0,0.944039,806.876,985.402)">
        <path d="M75.247,104.241C74.58,102.907 74.314,100.907 74.98,99.174C75.514,97.441 76.847,95.974 78.314,95.307C79.647,94.641 81.647,94.374 83.38,95.041C85.114,95.574 86.58,96.907 87.247,98.374L109.78,143.441C110.047,143.974 110.714,144.374 111.247,144.374C111.78,144.374 112.447,143.974 112.714,143.441L135.247,98.374C135.914,96.907 137.38,95.574 139.114,95.041C140.847,94.374 142.847,94.641 144.18,95.307C145.647,95.974 146.98,97.441 147.514,99.174C148.18,100.907 147.914,102.907 147.247,104.241L110.18,178.374C107.647,183.974 100.714,188.241 94.58,187.974L87.914,187.974C86.314,187.974 84.447,187.307 83.247,185.974C81.914,184.774 81.247,182.907 81.247,181.307C81.247,179.707 81.914,177.841 83.247,176.641C84.447,175.307 86.314,174.641 87.914,174.641L94.58,174.641C96.047,174.641 97.647,173.707 98.314,172.374L102.314,164.241C103.247,162.507 103.247,160.107 102.314,158.374L75.247,104.241Z" style="fill-rule:nonzero;"/>
    </g>
    <g transform="matrix(0.944039,0,0,0.944039,995.683,985.402)">
        <path d="M137.914,161.307C139.514,161.307 141.38,160.641 142.58,159.307C143.914,158.107 144.58,156.241 144.58,154.641C144.58,153.041 143.914,151.174 142.58,149.974C141.38,148.641 139.514,147.974 137.914,147.974L100.714,147.974L142.58,105.974C144.447,104.374 145.114,101.041 144.047,98.774C143.247,96.374 140.447,94.507 137.914,94.641L84.58,94.641C82.98,94.641 81.114,95.307 79.914,96.641C78.58,97.841 77.914,99.707 77.914,101.307C77.914,102.907 78.58,104.774 79.914,105.974C81.114,107.307 82.98,107.974 84.58,107.974L121.914,107.974L79.914,149.974C78.047,151.574 77.38,154.907 78.447,157.174C79.247,159.574 82.047,161.441 84.58,161.307L137.914,161.307Z" style="fill-rule:nonzero;"/>
    </g>
    <g transform="matrix(0.944039,0,0,0.944039,238.87,796.595)">
        <rect x="104.58" y="67.974" width="13.333" height="93.333" style="fill-rule:nonzero;"/>
    </g>
    <g transform="matrix(0.944039,0,0,0.944039,427.686,796.595)">
        <path d="M104.58,161.307L104.58,121.174C104.58,113.841 98.58,107.974 91.247,107.974C83.914,107.974 77.914,113.974 77.914,121.307L77.914,161.307L64.58,161.307L64.58,121.307C64.58,106.641 76.58,94.641 91.247,94.641C99.247,94.641 106.314,98.107 111.247,103.707C116.18,98.107 123.247,94.641 131.247,94.641C145.914,94.641 157.914,106.641 157.914,121.307L157.914,161.307L144.58,161.307L144.58,121.174C144.58,113.841 138.58,107.974 131.247,107.974C123.914,107.974 117.914,113.974 117.914,121.307L117.914,161.307L104.58,161.307Z" style="fill-rule:nonzero;"/>
    </g>
    <g transform="matrix(0.944039,0,0,0.944039,618.067,796.595)">
        <path d="M131.247,127.974C131.247,116.907 122.314,107.974 111.247,107.974C100.18,107.974 91.247,116.907 91.247,127.974L91.247,161.307L77.914,161.307L77.914,127.974C77.914,109.574 92.847,94.641 111.247,94.641C129.647,94.641 144.58,109.574 144.58,127.974L144.58,161.307L131.247,161.307L131.247,127.974Z" style="fill-rule:nonzero;"/>
    </g>
    <g transform="matrix(0.944039,0,0,0.944039,806.875,796.595)">
        <path d="M111.247,94.641C129.647,94.641 144.58,109.574 144.58,127.974C144.58,146.374 129.647,161.307 111.247,161.307C92.847,161.307 77.914,146.374 77.914,127.974C77.914,109.574 92.847,94.641 111.247,94.641ZM111.247,107.974C100.18,107.974 91.247,116.907 91.247,127.974C91.247,139.041 100.18,147.974 111.247,147.974C122.314,147.974 131.247,139.041 131.247,127.974C131.247,116.907 122.314,107.974 111.247,107.974Z" style="fill-rule:nonzero;"/>
    </g>
    <g transform="matrix(0.944039,0,0,0.944039,995.683,796.595)">
        <path d="M108.647,147.574C116.247,149.574 126.114,145.307 129.98,138.507C134.38,131.974 133.714,121.307 128.514,115.441C123.847,109.041 113.58,106.107 106.247,109.174C98.78,111.307 92.514,120.107 92.914,127.974L92.914,181.307C93.314,184.641 89.58,188.241 86.247,187.974C82.914,188.241 79.314,184.641 79.58,181.307L79.58,127.974C79.58,121.574 81.714,114.507 85.714,108.774C89.847,103.041 95.847,98.641 101.847,96.507C107.847,94.374 115.314,93.974 121.98,95.974C128.78,97.841 134.914,101.974 138.914,107.041C142.914,111.974 145.714,118.907 146.247,125.841C146.647,132.907 144.647,140.107 141.314,145.441C137.98,150.907 132.38,155.841 125.98,158.641C119.447,161.441 112.114,161.974 105.847,160.507C102.514,160.241 99.714,155.707 100.78,152.641C101.18,149.307 105.58,146.507 108.647,147.574Z" style="fill-rule:nonzero;"/>
    </g>
    <g transform="matrix(0.944039,0,0,0.944039,1184.49,796.595)">
        <path d="M113.847,147.574C106.247,149.574 96.38,145.307 92.514,138.507C88.114,131.974 88.78,121.307 93.98,115.441C98.647,109.041 108.914,106.107 116.247,109.174C123.714,111.307 129.98,120.107 129.58,127.974L129.58,181.307C129.18,184.641 132.914,188.241 136.247,187.974C139.58,188.241 143.18,184.641 142.914,181.307L142.914,127.974C142.914,121.574 140.78,114.507 136.78,108.774C132.647,103.041 126.647,98.641 120.647,96.507C114.647,94.374 107.18,93.974 100.514,95.974C93.714,97.841 87.58,101.974 83.58,107.041C79.58,111.974 76.78,118.907 76.247,125.841C75.847,132.907 77.847,140.107 81.18,145.441C84.514,150.907 90.114,155.841 96.514,158.641C103.047,161.441 110.38,161.974 116.647,160.507C119.98,160.241 122.78,155.707 121.714,152.641C121.314,149.307 116.914,146.507 113.847,147.574Z" style="fill-rule:nonzero;"/>
    </g>
    <g transform="matrix(0.944039,0,0,0.944039,1373.3,796.595)">
        <path d="M131.247,94.641C134.98,94.641 137.914,97.574 137.914,101.307C137.914,105.041 134.98,107.974 131.247,107.974L117.914,107.974C106.847,107.974 97.914,116.907 97.914,127.974L97.914,161.307L84.58,161.307L84.58,127.974C84.58,109.574 99.514,94.641 117.914,94.641L131.247,94.641Z" style="fill-rule:nonzero;"/>
    </g>
    <g transform="matrix(0.944039,0,0,0.944039,1562.11,796.595)">
        <path d="M97.914,107.974C94.18,107.974 91.247,111.041 91.247,114.641C91.247,118.374 94.18,121.307 97.914,121.307L124.58,121.307C135.647,121.307 144.58,130.241 144.58,141.307C144.58,152.107 135.914,161.041 125.114,161.307L84.58,161.307C80.847,161.307 77.914,158.374 77.914,154.641C77.914,150.907 80.847,147.974 84.58,147.974L124.58,147.974C128.314,147.974 131.247,145.041 131.247,141.307C131.247,137.707 128.314,134.641 124.58,134.641L97.38,134.641C86.58,134.374 77.914,125.441 77.914,114.641C77.914,103.841 86.58,94.907 97.38,94.641L131.247,94.641C134.98,94.641 137.914,97.707 137.914,101.307C137.914,105.041 134.98,107.974 131.247,107.974L97.914,107.974Z" style="fill-rule:nonzero;"/>
    </g>
    <g transform="matrix(0.944039,0,0,0.944039,1750.91,796.595)">
        <path d="M124.58,87.974C128.18,87.974 131.247,90.907 131.247,94.641C131.247,98.374 128.18,101.307 124.58,101.307L117.914,101.307L117.914,161.307L104.58,161.307L104.58,101.307L97.914,101.307C94.18,101.307 91.247,98.374 91.247,94.641C91.247,90.907 94.18,87.974 97.914,87.974L104.58,87.974L104.58,71.307C104.58,69.441 106.047,67.974 107.914,67.974L114.58,67.974C116.447,67.974 117.914,69.441 117.914,71.307L117.914,87.974L124.58,87.974Z" style="fill-rule:nonzero;"/>
    </g>
    <g transform="matrix(0.944039,0,0,0.944039,240.452,607.787)">
        <path d="M79.58,74.641C79.58,70.907 82.647,67.974 86.247,67.974C89.98,67.974 92.914,70.907 92.914,74.641L92.914,101.307C98.514,97.174 105.447,94.641 112.914,94.641C131.314,94.641 146.247,109.574 146.247,127.974C146.247,146.374 131.314,161.307 112.914,161.307C105.447,161.307 98.514,158.774 92.914,154.641L92.914,161.307L79.58,161.307L79.58,74.641ZM112.914,107.974C101.847,107.974 92.914,116.907 92.914,127.974C92.914,139.041 101.847,147.974 112.914,147.974C123.98,147.974 132.914,139.041 132.914,127.974C132.914,116.907 123.98,107.974 112.914,107.974Z" style="fill-rule:nonzero;"/>
    </g>
    <g transform="matrix(0.944039,0,0,0.944039,427.686,607.787)">
        <path d="M130.314,117.841C128.314,114.374 124.847,111.174 120.714,109.441C116.447,107.707 111.78,107.441 107.78,108.641C103.914,109.574 99.914,112.107 97.114,115.707C94.447,119.307 92.98,123.841 92.98,127.974C92.98,131.974 94.447,136.507 97.114,140.107C99.914,143.707 103.914,146.241 107.914,147.174C111.78,148.374 116.58,148.107 120.714,146.374C124.847,144.641 128.447,141.441 130.314,137.841C131.114,136.507 132.714,135.307 134.447,134.774C136.18,134.374 138.18,134.641 139.514,135.441C140.847,136.241 142.047,137.707 142.58,139.441C143.114,141.307 142.714,143.174 141.914,144.507C138.58,150.374 132.714,155.841 125.78,158.641C118.847,161.574 110.847,161.974 104.447,160.107C97.914,158.507 91.114,154.107 86.58,148.241C82.047,142.241 79.647,134.641 79.647,127.974C79.647,121.174 82.047,113.574 86.58,107.574C91.114,101.707 97.914,97.307 104.314,95.707C110.847,93.841 118.847,94.241 125.78,97.041C132.714,99.974 138.58,105.307 141.914,111.174C142.714,112.507 142.98,114.507 142.58,116.241C142.047,117.974 140.847,119.574 139.514,120.241C138.18,121.174 136.18,121.441 134.447,121.041C132.58,120.507 131.114,119.307 130.314,117.841Z" style="fill-rule:nonzero;"/>
    </g>
    <g transform="matrix(0.944039,0,0,0.944039,618.067,607.787)">
        <path d="M142.914,74.641C142.914,70.907 139.98,67.974 136.247,67.974C132.647,67.974 129.58,70.907 129.58,74.641L129.58,101.307C124.114,97.174 117.18,94.641 109.58,94.641C91.18,94.641 76.247,109.574 76.247,127.974C76.247,146.374 91.18,161.307 109.58,161.307C117.18,161.307 124.114,158.774 129.58,154.641L129.58,161.307L142.914,161.307L142.914,74.641ZM109.58,107.974C120.647,107.974 129.58,116.907 129.58,127.974C129.58,139.041 120.647,147.974 109.58,147.974C98.647,147.974 89.58,139.041 89.58,127.974C89.58,116.907 98.647,107.974 109.58,107.974Z" style="fill-rule:nonzero;"/>
    </g>
    <g transform="matrix(0.944039,0,0,0.944039,805.301,607.787)">
        <path d="M130.714,134.641C134.847,134.774 139.247,132.374 141.514,129.041C144.047,125.707 144.714,120.774 143.247,116.907C141.114,110.641 136.447,104.374 130.314,100.241C124.314,96.241 116.714,94.241 110.047,94.641C103.514,94.907 96.18,97.707 90.58,102.374C84.847,107.041 80.847,113.707 79.38,120.107C77.78,126.507 78.314,134.374 81.114,141.041C84.047,147.841 89.38,153.574 95.114,156.774C100.847,160.241 108.447,161.974 115.647,161.041C122.98,160.241 129.914,156.774 134.714,152.241C137.38,150.241 137.514,144.907 134.98,142.774C132.98,140.107 127.647,139.974 125.514,142.507C120.98,147.041 113.247,149.041 107.114,147.441C100.847,146.107 94.98,140.774 92.98,134.641L130.714,134.641ZM92.98,121.307C95.247,113.841 104.047,107.574 111.78,107.974C119.647,107.574 128.447,113.841 130.714,121.307L92.98,121.307Z" style="fill-rule:nonzero;"/>
    </g>
    <g transform="matrix(0.944039,0,0,0.944039,994.109,607.787)">
        <path d="M104.58,74.641C104.58,70.907 107.647,67.974 111.247,67.974L124.58,67.974C128.314,67.974 131.247,70.907 131.247,74.641C131.247,78.374 128.314,81.307 124.58,81.307L117.914,81.307L117.914,87.974L124.58,87.974C128.314,87.974 131.247,90.907 131.247,94.641C131.247,98.374 128.314,101.307 124.58,101.307L117.914,101.307L117.914,161.307L104.58,161.307L104.58,101.307L97.914,101.307C94.314,101.307 91.247,98.374 91.247,94.641C91.247,90.907 94.314,87.974 97.914,87.974L104.58,87.974L104.58,74.641Z" style="fill-rule:nonzero;"/>
    </g>
    <g transform="matrix(0.944039,0,0,0.944039,1182.92,607.787)">
        <path d="M90.38,147.974C88.514,147.974 87.047,146.507 87.047,144.641C87.047,142.774 88.514,141.307 90.38,141.307L117.18,141.307C129.98,141.307 140.38,130.774 140.38,117.974C140.38,114.374 139.58,111.041 138.114,107.974L140.38,107.974C144.114,107.974 147.047,105.041 147.047,101.307C147.047,97.574 144.114,94.641 140.38,94.641L97.047,94.641C84.114,94.641 73.714,105.041 73.714,117.974C73.714,123.441 75.714,128.641 78.914,132.641C75.714,135.574 73.714,139.841 73.714,144.641C73.714,148.907 75.314,152.774 77.98,155.707C75.314,159.041 73.714,163.307 73.714,167.974C73.714,179.041 82.647,187.974 93.714,187.974L133.714,187.974C144.78,187.974 153.714,179.041 153.714,167.974C153.714,156.907 144.78,147.974 133.714,147.974L90.38,147.974ZM97.047,107.974L117.047,107.974C122.514,107.974 127.047,112.507 127.047,117.974C127.047,123.441 122.514,127.974 117.047,127.974L97.047,127.974C91.58,127.974 87.047,123.441 87.047,117.974C87.047,112.507 91.58,107.974 97.047,107.974ZM93.714,174.641C89.98,174.641 87.047,171.707 87.047,167.974C87.047,164.241 89.98,161.307 93.714,161.307L133.714,161.307C137.447,161.307 140.38,164.241 140.38,167.974C140.38,171.707 137.447,174.641 133.714,174.641L93.714,174.641Z" style="fill-rule:nonzero;"/>
    </g>
    <g transform="matrix(0.944039,0,0,0.944039,1373.28,607.787)">
        <path d="M132.914,127.974C132.914,116.907 123.98,107.974 112.914,107.974C101.847,107.974 92.914,116.907 92.914,127.974L92.914,161.307L79.58,161.307L79.58,74.641C79.58,70.907 82.514,67.974 86.247,67.974C89.98,67.974 92.914,70.907 92.914,74.641L92.914,101.307C98.514,97.174 105.447,94.641 112.914,94.641C131.314,94.641 146.247,109.574 146.247,127.974L146.247,161.307L132.914,161.307L132.914,127.974Z" style="fill-rule:nonzero;"/>
    </g>
    <g transform="matrix(0.944039,0,0,0.944039,1562.11,607.787)">
        <path d="M111.247,67.974C114.847,67.974 117.914,70.907 117.914,74.641C117.914,78.374 114.847,81.307 111.247,81.307C107.514,81.307 104.58,78.374 104.58,74.641C104.58,70.907 107.514,67.974 111.247,67.974ZM104.58,101.307C104.58,97.574 107.514,94.641 111.247,94.641C114.847,94.641 117.914,97.574 117.914,101.307L117.914,161.307L104.58,161.307L104.58,101.307Z" style="fill-rule:nonzero;"/>
    </g>
    <g transform="matrix(0.944039,0,0,0.944039,1750.91,607.787)">
        <path d="M118.78,67.974C122.38,67.974 125.447,70.907 125.447,74.641C125.447,78.374 122.38,81.307 118.78,81.307C115.047,81.307 112.114,78.374 112.114,74.641C112.114,70.907 115.047,67.974 118.78,67.974ZM125.447,167.974C125.447,178.774 116.78,187.574 106.114,187.974L98.78,187.974C95.047,187.974 92.114,185.041 92.114,181.307C92.114,177.574 95.047,174.641 98.78,174.641L105.447,174.641C109.047,174.641 112.114,171.707 112.114,167.974L112.114,101.307C112.114,97.574 115.047,94.641 118.78,94.641C122.38,94.641 125.447,97.574 125.447,101.307L125.447,167.974Z" style="fill-rule:nonzero;"/>
    </g>
    <g transform="matrix(0.944039,0,0,0.944039,51.6437,41.3731)">
        <path d="M111.247,67.974C122.58,67.974 133.247,75.174 136.847,87.307L157.914,161.307L144.58,161.307L139.38,143.707C138.98,142.241 137.78,141.307 136.18,141.307L86.314,141.307C84.714,141.307 83.514,142.241 83.114,143.707L81.78,147.974L77.914,161.307L64.58,161.307L85.647,87.307C89.247,75.174 99.914,67.974 111.247,67.974ZM133.647,123.707L124.18,91.441C122.714,85.574 117.514,81.307 111.247,81.307C104.98,81.307 99.78,85.574 98.314,91.441L88.847,123.707C88.714,124.107 88.714,124.374 88.714,124.641C88.714,126.507 90.314,127.974 92.047,127.974L130.447,127.974C132.18,127.974 133.78,126.507 133.78,124.641C133.78,124.374 133.78,124.107 133.647,123.707Z" style="fill-rule:nonzero;"/>
    </g>
    <g transform="matrix(0.944039,0,0,0.944039,51.6437,230.181)">
        <path d="M86.247,74.641C86.247,73.041 85.58,71.174 84.247,69.974C83.047,68.641 81.18,67.974 79.58,67.974C77.98,67.974 76.114,68.641 74.914,69.974C73.58,71.174 72.914,73.041 72.914,74.641L72.914,161.307L86.247,161.307L86.247,137.707C86.247,135.841 87.18,133.841 88.647,132.641L100.914,122.107C102.114,121.041 103.98,120.374 105.847,120.507C107.58,120.641 109.314,121.574 110.38,122.907L141.18,158.907C142.114,160.241 143.98,161.174 145.714,161.307C147.58,161.441 149.447,160.774 150.647,159.707C151.847,158.774 152.78,157.041 152.914,155.174C153.047,153.307 152.38,151.441 151.314,150.374L120.514,114.241C119.447,113.041 118.78,111.174 118.914,109.307C119.047,107.574 119.98,105.707 121.18,104.774L150.647,79.707C151.847,78.774 152.78,77.041 152.914,75.174C153.047,73.307 152.38,71.441 151.314,70.374C150.38,69.041 148.647,68.107 146.78,67.974C144.914,67.841 143.047,68.507 141.98,69.574L89.047,114.774C88.514,115.174 87.714,115.307 87.18,115.041C86.647,114.774 86.247,114.107 86.247,113.441L86.247,74.641Z" style="fill-rule:nonzero;"/>
    </g>
    <g transform="matrix(0.944039,0,0,0.944039,50.0624,418.989)">
        <path d="M137.914,74.641C137.914,70.907 140.847,67.974 144.58,67.974C148.314,67.974 151.247,70.907 151.247,74.641L151.247,121.307C151.247,143.441 133.38,161.307 111.247,161.307C89.114,161.307 71.247,143.441 71.247,121.307L71.247,74.641C71.247,70.907 74.18,67.974 77.914,67.974C81.647,67.974 84.58,70.907 84.58,74.641L84.58,121.307C84.58,135.974 96.58,147.974 111.247,147.974C125.914,147.974 137.914,135.974 137.914,121.307L137.914,74.641Z" style="fill-rule:nonzero;"/>
    </g>
    <g transform="matrix(0.944039,0,0,0.944039,240.452,418.989)">
        <path d="M71.514,76.507C71.114,75.041 71.247,73.041 72.047,71.441C72.98,69.841 74.58,68.641 76.047,68.241C77.514,67.707 79.514,67.974 81.114,68.774C82.714,69.707 83.914,71.307 84.314,72.774L104.847,143.174C105.514,145.841 108.58,148.107 111.247,147.974C114.047,148.107 117.114,145.841 117.647,143.174L138.18,72.774C138.58,71.307 139.78,69.707 141.38,68.774C142.98,67.974 144.98,67.707 146.447,68.241C147.914,68.641 149.514,69.841 150.447,71.441C151.38,73.041 151.514,75.041 150.98,76.507L130.447,146.907C129.38,150.774 126.847,154.641 123.247,157.307C119.78,159.974 115.247,161.307 111.247,161.307C107.247,161.307 102.847,159.974 99.247,157.307C95.78,154.641 93.114,150.774 92.047,146.907L71.514,76.507Z" style="fill-rule:nonzero;"/>
    </g>
    <g transform="matrix(0.944039,0,0,0.944039,429.215,418.989)">
        <path d="M139.247,144.241C139.247,146.107 137.114,148.107 135.247,147.974C133.38,148.107 131.247,146.241 131.247,144.241L127.247,93.441C126.98,89.841 125.114,85.707 122.047,82.907C119.114,80.107 114.847,78.641 111.247,78.641C107.647,78.641 103.38,80.107 100.447,82.907C97.38,85.707 95.514,89.841 95.247,93.441L91.247,144.241C91.247,146.241 89.114,148.107 87.247,147.974C85.38,148.107 83.247,146.107 83.247,144.241L78.314,74.241C78.447,70.907 74.58,67.441 71.247,67.974C68.047,67.974 64.58,71.841 65.114,75.174L70.047,145.174C70.18,149.041 72.18,153.574 75.38,156.641C78.714,159.707 83.247,161.441 87.114,161.307C91.114,161.441 95.647,159.841 98.98,156.774C102.314,153.707 104.314,149.307 104.58,145.307L108.58,94.507C108.58,93.174 110.047,91.974 111.247,91.974C112.447,91.974 113.914,93.174 113.914,94.507L117.914,145.307C118.18,149.307 120.18,153.707 123.514,156.774C126.847,159.841 131.38,161.441 135.38,161.307C139.247,161.441 143.78,159.707 147.114,156.641C150.314,153.574 152.314,149.041 152.447,145.174L157.38,75.174C157.914,71.841 154.447,67.974 151.247,67.974C148.047,67.441 144.047,70.907 144.18,74.241L139.247,144.241Z" style="fill-rule:nonzero;"/>
    </g>
    <g transform="matrix(0.944039,0,0,0.944039,618.067,418.989)">
        <path d="M72.714,150.374C71.647,151.707 71.114,153.574 71.247,155.307C71.38,156.907 72.314,158.774 73.647,159.841C74.847,160.907 76.847,161.441 78.447,161.307C80.18,161.174 81.914,160.241 82.98,158.907L106.047,131.174C107.247,129.707 109.38,128.774 111.247,128.774C113.114,128.774 115.114,129.707 116.314,131.174L139.38,158.907C140.447,160.241 142.18,161.174 143.914,161.307C145.647,161.441 147.514,160.907 148.847,159.841C150.18,158.774 151.114,156.907 151.247,155.307C151.38,153.574 150.714,151.707 149.647,150.374L123.38,118.907C121.38,116.774 121.38,112.507 123.38,110.374L149.647,78.907C150.714,77.707 151.38,75.707 151.247,74.107C151.114,72.374 150.18,70.641 148.847,69.574C147.514,68.507 145.647,67.841 143.914,67.974C142.18,68.107 140.447,69.041 139.38,70.374L116.314,98.107C115.114,99.574 113.114,100.507 111.247,100.507C109.38,100.507 107.247,99.574 106.047,98.107L82.98,70.374C81.914,69.041 80.18,68.107 78.447,67.974C76.847,67.841 74.847,68.507 73.647,69.574C72.314,70.641 71.38,72.374 71.247,74.107C71.114,75.707 71.647,77.707 72.714,78.907L98.98,110.374C100.98,112.507 100.98,116.774 98.98,118.907L72.714,150.374Z" style="fill-rule:nonzero;"/>
    </g>
    <g transform="matrix(0.944039,0,0,0.944039,806.876,418.989)">
        <path d="M116.447,99.707C126.314,87.041 138.847,71.174 139.38,70.507C140.714,68.907 142.714,67.841 144.847,67.974C148.58,68.107 151.38,71.307 151.247,74.907C151.247,76.374 150.714,77.707 149.914,78.774C149.247,79.441 143.247,87.174 136.447,95.841C119.78,117.041 117.914,121.574 117.914,134.641L117.914,161.307L104.58,161.307L104.58,134.641C104.58,121.574 102.714,117.041 86.047,95.841C79.38,87.174 73.247,79.441 72.714,78.774C71.914,77.707 71.38,76.374 71.247,74.907C71.114,71.307 73.914,68.107 77.647,67.974C79.78,67.841 81.914,68.907 83.114,70.507C83.647,71.041 96.047,86.907 105.914,99.441L105.914,99.574L106.047,99.707C107.247,101.174 109.114,102.107 111.247,102.107C113.38,102.107 115.247,101.174 116.447,99.707Z" style="fill-rule:nonzero;"/>
    </g>
    <g transform="matrix(0.944039,0,0,0.944039,995.683,418.989)">
        <path d="M91.247,147.974C88.447,148.107 85.38,145.707 84.847,143.041C83.914,140.374 85.514,136.774 87.914,135.574L141.114,105.441C144.58,103.441 147.914,99.974 149.647,95.707C151.38,91.574 151.647,86.774 150.58,82.907C149.647,78.907 146.98,74.907 143.38,72.107C139.914,69.441 135.247,67.974 131.247,67.974L77.914,67.974C76.18,67.974 74.447,68.774 73.247,69.974C71.914,71.174 71.247,72.907 71.247,74.641C71.247,76.374 71.914,78.241 73.247,79.307C74.447,80.641 76.18,81.307 77.914,81.307L131.247,81.307C134.047,81.174 137.114,83.574 137.647,86.241C138.58,88.907 136.98,92.507 134.58,93.841L81.38,123.974C77.78,125.841 74.58,129.441 72.847,133.574C71.114,137.707 70.847,142.507 71.914,146.374C72.847,150.374 75.514,154.374 78.98,157.174C82.58,159.974 87.247,161.307 91.247,161.307L144.58,161.307C147.78,161.574 151.514,157.974 151.247,154.641C151.514,151.307 147.78,147.707 144.58,147.974L91.247,147.974Z" style="fill-rule:nonzero;"/>
    </g>
    <g transform="matrix(0.944039,0,0,0.944039,238.87,230.181)">
        <path d="M99.58,161.307C88.514,161.307 79.58,152.374 79.58,141.307L79.58,74.641C79.58,70.907 82.514,67.974 86.247,67.974C89.98,67.974 92.914,70.907 92.914,74.641L92.914,141.307C92.914,145.041 95.847,147.974 99.58,147.974L139.58,147.974C143.314,147.974 146.247,151.041 146.247,154.641C146.247,158.374 143.314,161.307 139.58,161.307L99.58,161.307Z" style="fill-rule:nonzero;"/>
    </g>
    <g transform="matrix(0.944039,0,0,0.944039,427.686,230.181)">
        <path d="M94.047,137.307C94.58,141.041 96.714,145.041 99.914,147.841C103.247,150.641 107.514,152.107 111.247,151.974C114.98,152.107 119.247,150.641 122.58,147.841C125.78,145.041 127.914,141.041 128.447,137.307L136.58,84.641C136.714,82.774 138.98,81.041 140.847,81.307C142.714,81.307 144.714,83.441 144.58,85.307L144.58,161.307L157.914,161.307L157.914,85.307C158.047,81.441 156.314,76.907 153.247,73.574C150.314,70.241 145.78,68.241 141.914,68.107C138.047,67.707 133.38,68.907 129.78,71.707C126.314,74.507 123.914,78.774 123.514,82.641L115.247,135.307C115.114,137.041 112.98,138.774 111.247,138.641C109.514,138.774 107.38,137.041 107.247,135.307L98.98,82.641C98.58,78.774 96.18,74.507 92.714,71.707C89.114,68.907 84.447,67.707 80.58,68.107C76.714,68.241 72.18,70.241 69.247,73.574C66.18,76.907 64.447,81.441 64.58,85.307L64.58,161.307L77.914,161.307L77.914,85.307C77.78,83.441 79.78,81.307 81.647,81.307C83.514,81.041 85.78,82.774 85.914,84.641L94.047,137.307Z" style="fill-rule:nonzero;"/>
    </g>
    <g transform="matrix(0.944039,0,0,0.944039,618.067,230.181)">
        <path d="M111.78,145.974C112.714,150.241 115.647,154.774 119.78,157.707C123.914,160.641 129.247,161.707 133.514,161.174C137.914,160.774 142.847,158.374 146.18,154.641C149.514,150.907 151.38,145.707 151.247,141.307L151.247,74.641C151.247,73.174 150.58,71.307 149.247,69.974C148.047,68.641 146.18,67.974 144.58,67.974C142.98,67.974 141.114,68.641 139.914,69.974C138.58,71.307 137.914,73.174 137.914,74.641L137.914,141.307C138.18,144.374 135.114,147.841 132.047,147.974C128.98,148.507 125.247,145.841 124.714,142.907L110.714,83.441C109.78,79.041 106.847,74.507 102.714,71.574C98.58,68.774 93.247,67.574 88.98,68.107C84.58,68.507 79.647,70.907 76.314,74.641C72.98,78.507 71.114,83.574 71.247,87.974L71.247,161.307L84.58,161.307L84.58,87.974C84.314,84.907 87.38,81.441 90.447,81.441C93.514,80.774 97.247,83.441 97.78,86.507L111.78,145.974Z" style="fill-rule:nonzero;"/>
    </g>
    <g transform="matrix(0.944039,0,0,0.944039,806.875,230.181)">
        <path d="M111.247,67.974C136.98,67.974 157.914,88.907 157.914,114.641C157.914,140.374 136.98,161.307 111.247,161.307C85.514,161.307 64.58,140.374 64.58,114.641C64.58,88.907 85.514,67.974 111.247,67.974ZM111.247,81.307C92.847,81.307 77.914,96.241 77.914,114.641C77.914,133.041 92.847,147.974 111.247,147.974C129.647,147.974 144.58,133.041 144.58,114.641C144.58,96.241 129.647,81.307 111.247,81.307Z" style="fill-rule:nonzero;"/>
    </g>
    <g transform="matrix(0.944039,0,0,0.944039,995.683,230.181)">
        <path d="M72.914,94.507C72.914,79.841 84.914,67.974 99.58,67.974L126.247,67.974C140.914,67.974 152.914,79.974 152.914,94.641C152.914,109.307 140.914,121.307 126.247,121.307L99.58,121.307C92.247,121.307 86.247,127.307 86.247,134.641L86.247,161.307L72.914,161.307L72.914,134.507C72.914,119.841 84.914,107.974 99.58,107.974L126.247,107.974C133.58,107.974 139.58,101.974 139.58,94.641C139.58,87.307 133.58,81.307 126.247,81.307L99.58,81.307C92.247,81.307 86.247,87.307 86.247,94.641C86.247,98.374 83.18,101.307 79.58,101.307C75.847,101.307 72.914,98.374 72.914,94.641L72.914,94.507Z" style="fill-rule:nonzero;"/>
    </g>
    <g transform="matrix(0.944039,0,0,0.944039,1184.49,230.181)">
        <path d="M123.247,159.707C128.714,158.374 133.78,154.107 136.18,149.041L146.447,159.441C148.58,161.974 153.914,161.974 155.914,159.441C158.447,157.307 158.447,152.107 155.914,149.974L148.58,142.641C154.714,134.774 158.447,123.174 157.78,111.841C157.114,100.641 152.047,89.574 144.98,82.507C138.18,75.041 127.38,69.441 116.18,68.241C104.98,67.041 93.247,70.241 84.98,75.974C76.714,81.441 69.38,91.174 66.314,102.107C63.247,112.907 64.447,125.041 68.714,134.107C72.714,143.174 81.114,152.107 91.38,156.907C101.514,161.707 113.647,162.507 123.247,159.707ZM122.847,135.707C124.447,137.307 125.247,139.974 124.58,142.107C124.047,144.374 122.047,146.374 119.78,146.907C113.114,148.774 104.447,148.241 97.247,144.907C89.914,141.574 84.047,135.441 81.114,128.907C77.914,122.641 76.98,114.107 78.98,106.374C80.98,98.641 85.914,91.707 91.78,87.574C97.38,83.441 105.647,80.907 113.514,81.441C121.514,81.974 129.247,85.707 134.314,90.641C139.514,95.441 143.514,103.041 144.314,111.041C145.247,118.907 142.98,127.174 138.98,133.041L132.18,126.241C130.98,124.907 129.114,124.241 127.38,124.241C125.78,124.241 123.914,124.907 122.714,126.241C121.514,127.441 120.714,129.174 120.714,130.907C120.714,132.641 121.514,134.374 122.714,135.574L122.847,135.707Z" style="fill-rule:nonzero;"/>
    </g>
    <g transform="matrix(0.944039,0,0,0.944039,1373.3,230.181)">
        <path d="M111.914,124.241C110.714,122.507 108.58,121.307 106.314,121.307L97.914,121.307C90.58,121.307 84.58,127.307 84.58,134.641L84.58,161.307L71.247,161.307L71.247,134.507C71.247,119.841 83.247,107.974 97.914,107.974L124.58,107.974C131.914,107.974 137.914,101.974 137.914,94.641C137.914,87.307 131.914,81.307 124.58,81.307L97.914,81.307C90.58,81.307 84.58,87.307 84.58,94.641C84.58,98.374 81.514,101.307 77.914,101.307C74.18,101.307 71.247,98.374 71.247,94.641L71.247,94.507C71.247,79.841 83.247,67.974 97.914,67.974L124.58,67.974C139.247,67.974 151.247,79.974 151.247,94.641C151.247,105.974 144.18,115.574 134.314,119.441C131.914,120.507 130.18,122.907 130.18,125.707C130.18,127.041 130.58,128.241 131.247,129.307L143.647,147.841L145.647,150.907C146.447,151.974 146.847,153.307 146.847,154.641C146.847,158.374 143.78,161.307 140.18,161.307C137.78,161.307 135.78,160.107 134.58,158.374L111.914,124.241Z" style="fill-rule:nonzero;"/>
    </g>
    <g transform="matrix(0.944039,0,0,0.944039,1562.11,230.181)">
        <path d="M97.914,121.307C83.247,121.307 71.247,109.307 71.247,94.641C71.247,79.974 83.247,67.974 97.914,67.974L144.58,67.974C148.314,67.974 151.247,70.907 151.247,74.641C151.247,78.374 148.314,81.307 144.58,81.307L97.914,81.307C90.58,81.307 84.58,87.307 84.58,94.641C84.58,101.974 90.58,107.974 97.914,107.974L124.58,107.974C139.247,107.974 151.247,119.974 151.247,134.641C151.247,149.307 139.247,161.307 124.58,161.307L77.914,161.307C74.18,161.307 71.247,158.241 71.247,154.641C71.247,150.907 74.18,147.974 77.914,147.974L124.58,147.974C131.914,147.974 137.914,141.974 137.914,134.641C137.914,127.307 131.914,121.307 124.58,121.307L97.914,121.307Z" style="fill-rule:nonzero;"/>
    </g>
    <g transform="matrix(0.944039,0,0,0.944039,1750.91,230.181)">
        <path d="M127.914,81.307C122.447,81.307 117.914,85.841 117.914,91.307L117.914,161.307L104.58,161.307L104.58,91.307C104.58,85.841 100.047,81.307 94.58,81.307L77.914,81.307C74.18,81.307 71.247,78.374 71.247,74.641C71.247,70.907 74.18,67.974 77.914,67.974L144.58,67.974C148.314,67.974 151.247,70.907 151.247,74.641C151.247,78.374 148.314,81.307 144.58,81.307L127.914,81.307Z" style="fill-rule:nonzero;"/>
    </g>
    <g transform="matrix(0.944039,0,0,0.944039,240.452,41.3731)">
        <path d="M79.58,161.307C75.847,161.307 72.914,158.374 72.914,154.641L72.914,74.641C72.914,70.907 75.847,67.974 79.58,67.974L113.047,67.974C127.714,67.974 139.58,79.974 139.58,94.641C139.58,98.774 138.647,102.641 136.914,106.241C136.914,106.374 136.78,106.507 136.78,106.641C136.114,108.107 136.647,109.974 138.114,110.774C146.914,115.174 152.914,124.241 152.914,134.641C152.914,149.307 140.914,161.307 126.247,161.307L79.58,161.307ZM86.247,144.641C86.247,146.507 87.714,147.974 89.58,147.974L126.247,147.974C133.58,147.974 139.58,141.974 139.58,134.641C139.58,127.307 133.58,121.307 126.247,121.307L99.58,121.307C95.847,121.307 92.914,118.374 92.914,114.641C92.914,110.907 95.847,107.974 99.58,107.974L112.914,107.974C120.247,107.974 126.247,101.974 126.247,94.641C126.247,87.307 120.38,81.307 113.047,81.307L89.58,81.307C87.714,81.307 86.247,82.774 86.247,84.641L86.247,144.641Z" style="fill-rule:nonzero;"/>
    </g>
    <g transform="matrix(0.944039,0,0,0.944039,427.686,41.3731)">
        <path d="M151.114,145.841C142.58,155.307 130.18,161.307 116.314,161.307C90.58,161.307 69.647,140.374 69.647,114.641C69.647,88.907 90.58,67.974 116.314,67.974C130.18,67.974 142.58,73.974 151.114,83.441C152.18,84.641 152.847,86.241 152.847,87.974C152.847,91.707 149.78,94.641 146.18,94.641C144.18,94.641 142.314,93.707 141.114,92.374C134.98,85.574 126.18,81.307 116.314,81.307C97.914,81.307 82.98,96.241 82.98,114.641C82.98,133.041 97.914,147.974 116.314,147.974C126.18,147.974 134.98,143.707 141.114,136.907C142.314,135.574 144.18,134.641 146.18,134.641C149.78,134.641 152.847,137.574 152.847,141.307C152.847,143.041 152.18,144.641 151.114,145.841Z" style="fill-rule:nonzero;"/>
    </g>
    <g transform="matrix(0.944039,0,0,0.944039,618.067,41.3731)">
        <path d="M79.58,161.307C75.98,161.307 72.914,158.374 72.914,154.641L72.914,74.641C72.914,70.907 75.98,67.974 79.58,67.974L106.247,67.974C132.114,67.974 152.914,88.907 152.914,114.641C152.914,140.374 132.114,161.307 106.247,161.307L79.58,161.307ZM106.247,147.974C124.647,147.974 139.58,133.041 139.58,114.641C139.58,96.241 124.78,81.307 106.38,81.307L86.247,81.307L86.247,147.974L106.247,147.974Z" style="fill-rule:nonzero;"/>
    </g>
    <g transform="matrix(0.944039,0,0,0.944039,805.301,41.3731)">
        <path d="M99.58,81.307C92.247,81.307 86.247,87.307 86.247,94.641C86.247,101.974 92.247,107.974 99.58,107.974L139.58,107.974C143.18,107.974 146.247,110.907 146.247,114.641C146.247,118.374 143.18,121.307 139.58,121.307L99.58,121.307C92.247,121.307 86.247,127.307 86.247,134.641C86.247,141.974 92.247,147.974 99.58,147.974L146.247,147.974C149.847,147.974 152.914,150.907 152.914,154.641C152.914,158.374 149.847,161.307 146.247,161.307L99.58,161.307C84.78,161.307 72.914,149.307 72.914,134.641C72.914,126.641 76.38,119.574 81.98,114.641C76.38,109.707 72.914,102.641 72.914,94.641C72.914,79.974 84.78,67.974 99.58,67.974L146.247,67.974C149.847,67.974 152.914,70.907 152.914,74.641C152.914,78.374 149.847,81.307 146.247,81.307L99.58,81.307Z" style="fill-rule:nonzero;"/>
    </g>
    <g transform="matrix(0.944039,0,0,0.944039,994.109,41.3731)">
        <path d="M99.58,121.307C98.78,121.307 98.114,121.441 97.314,121.707C96.38,121.974 95.58,122.507 94.914,123.174C94.114,123.974 93.58,124.774 93.314,125.707C93.047,126.507 92.914,127.174 92.914,127.974L92.914,161.307L79.58,161.307L79.58,87.441C79.847,76.774 88.38,68.241 98.914,67.974L139.58,67.974C143.18,67.974 146.247,70.907 146.247,74.641C146.247,78.374 143.18,81.307 139.58,81.307L99.58,81.307C95.847,81.307 92.914,84.241 92.914,87.974L92.914,109.174C94.78,108.374 96.78,108.107 98.914,107.974L132.914,107.974C136.514,107.974 139.58,110.907 139.58,114.641C139.58,118.374 136.514,121.307 132.914,121.307L99.58,121.307Z" style="fill-rule:nonzero;"/>
    </g>
    <g transform="matrix(0.944039,0,0,0.944039,1182.92,41.3731)">
        <path d="M111.447,121.307C109.847,121.307 107.98,120.641 106.78,119.307C105.447,118.107 104.78,116.241 104.78,114.641C104.78,113.041 105.447,111.174 106.78,109.974C107.98,108.641 109.847,107.974 111.447,107.974L146.114,107.974C149.314,107.974 152.78,109.574 154.914,111.974C157.047,114.374 158.114,118.107 157.58,121.307C156.38,130.907 151.314,141.307 143.314,148.774C135.314,156.107 124.647,160.641 114.914,161.174C105.314,162.107 93.98,159.307 85.047,153.174C76.114,146.907 69.447,137.441 66.78,128.107C63.847,118.907 64.114,107.307 68.114,97.174C72.247,87.041 80.114,78.507 88.647,73.974C97.047,69.041 108.38,66.774 119.18,68.641C129.847,70.374 139.847,76.241 146.247,83.574C147.314,84.641 147.98,86.507 147.98,88.374C147.847,90.241 146.914,91.974 145.714,92.907C144.647,93.974 142.78,94.774 140.914,94.641C139.047,94.507 137.314,93.574 136.247,92.374C131.847,87.307 124.78,83.174 117.314,81.841C109.847,80.507 101.847,81.974 95.847,85.174C89.714,88.374 84.114,94.107 81.047,101.174C77.847,108.107 77.314,116.241 79.18,122.774C80.78,129.441 85.047,136.374 91.047,141.041C97.18,145.707 104.914,148.107 111.714,147.974C118.514,147.974 126.247,145.441 132.247,140.774C138.247,135.974 142.38,129.041 143.847,122.374C143.98,122.107 143.847,121.841 143.714,121.574C143.58,121.441 143.314,121.307 143.047,121.307L111.447,121.307Z" style="fill-rule:nonzero;"/>
    </g>
    <g transform="matrix(0.944039,0,0,0.944039,1373.28,41.3731)">
        <path d="M97.78,127.974C92.98,127.974 88.447,126.641 84.58,124.374L84.58,161.307L71.247,161.307L71.247,74.641C71.247,70.907 74.314,67.974 77.914,67.974C81.647,67.974 84.58,70.907 84.58,74.641L84.58,101.441C84.58,102.907 84.847,104.374 85.38,105.707C86.047,107.707 87.114,109.441 88.58,110.907C90.047,112.241 91.647,113.307 93.514,113.974C94.98,114.374 96.447,114.641 97.914,114.641L124.714,114.641C126.047,114.641 127.514,114.374 128.98,113.974C130.847,113.307 132.447,112.241 133.914,110.907C135.38,109.441 136.447,107.707 137.114,105.707C137.647,104.374 137.914,102.907 137.914,101.441L137.914,74.641C137.914,70.907 140.98,67.974 144.58,67.974C148.314,67.974 151.247,70.907 151.247,74.641L151.247,161.307L137.914,161.307L137.914,124.374C134.047,126.641 129.38,127.974 124.58,127.974L97.78,127.974Z" style="fill-rule:nonzero;"/>
    </g>
    <g transform="matrix(0.944039,0,0,0.944039,1562.11,41.3731)">
        <path d="M104.58,161.307L104.58,74.641C104.58,70.907 107.514,67.974 111.247,67.974C114.98,67.974 117.914,70.907 117.914,74.641L117.914,161.307L104.58,161.307Z" style="fill-rule:nonzero;"/>
    </g>
    <g transform="matrix(0.944039,0,0,0.944039,1750.91,41.3731)">
        <path d="M137.914,81.307L84.447,81.307C80.847,81.307 77.914,78.241 77.914,74.641C77.914,70.907 80.847,67.974 84.58,67.974L144.58,67.974C148.18,67.974 151.247,70.907 151.247,74.641L151.247,121.307C151.247,143.441 133.247,161.307 111.247,161.307C89.114,161.307 71.247,143.441 71.247,121.307C71.247,117.574 74.18,114.641 77.914,114.641C81.514,114.641 84.58,117.574 84.58,121.307C84.58,135.974 96.447,147.974 111.247,147.974C125.914,147.974 137.914,135.974 137.914,121.307L137.914,81.307Z" style="fill-rule:nonzero;"/>
    </g>
</svg>
