<?xml version="1.0" encoding="UTF-8" standalone="no"?>
<!DOCTYPE svg PUBLIC "-//W3C//DTD SVG 1.1//EN" "http://www.w3.org/Graphics/SVG/1.1/DTD/svg11.dtd">
<svg width="100%" height="100%" viewBox="0 0 2000 2200" version="1.1" xmlns="http://www.w3.org/2000/svg" xmlns:xlink="http://www.w3.org/1999/xlink" xml:space="preserve" xmlns:serif="http://www.serif.com/" style="fill-rule:evenodd;clip-rule:evenodd;stroke-linejoin:round;stroke-miterlimit:2;">
    <rect x="0" y="0" width="2000" height="2200" style="fill:white;"/>
    <g transform="matrix(0.944039,0,0,0.944039,62.2613,55.1945)">
        <g transform="matrix(1,0,0,1,0,200)">
            <g transform="matrix(1,0,0,1,-11.2469,1385.35)">
                <text x="99.247px" y="161.307px" style="font-family:'Uberall-Regular', 'Uberall';font-size:133.333px;">.</text>
            </g>
            <g transform="matrix(1,0,0,1,187.078,1385.35)">
                <text x="99.247px" y="161.307px" style="font-family:'Uberall-Regular', 'Uberall';font-size:133.333px;">:</text>
            </g>
            <g transform="matrix(1,0,0,1,387.086,1385.35)">
                <text x="73.247px" y="161.307px" style="font-family:'Uberall-Regular', 'Uberall';font-size:133.333px;">…</text>
            </g>
            <g transform="matrix(1,0,0,1,588.753,1385.35)">
                <text x="97.914px" y="161.307px" style="font-family:'Uberall-Regular', 'Uberall';font-size:133.333px;">,</text>
            </g>
            <g transform="matrix(1,0,0,1,788.753,1385.35)">
                <text x="96.914px" y="161.307px" style="font-family:'Uberall-Regular', 'Uberall';font-size:133.333px;">;</text>
            </g>
            <g transform="matrix(1,0,0,1,988.843,1385.35)">
                <text x="94.58px" y="161.307px" style="font-family:'Uberall-Regular', 'Uberall';font-size:133.333px;">!</text>
            </g>
            <g transform="matrix(1,0,0,1,1188.84,1385.35)">
                <text x="76.58px" y="161.307px" style="font-family:'Uberall-Regular', 'Uberall';font-size:133.333px;">?</text>
            </g>
            <g transform="matrix(1,0,0,1,1388.88,1385.35)">
                <text x="82.514px" y="161.307px" style="font-family:'Uberall-Regular', 'Uberall';font-size:133.333px;">*</text>
            </g>
        </g>
        <g transform="matrix(1,0,0,1,0,200)">
            <g transform="matrix(1,0,0,1,-11.2469,1185.35)">
                <text x="67.914px" y="161.307px" style="font-family:'Uberall-Regular', 'Uberall';font-size:133.333px;">0</text>
            </g>
            <g transform="matrix(1,0,0,1,188.753,1185.35)">
                <text x="93.047px" y="161.307px" style="font-family:'Uberall-Regular', 'Uberall';font-size:133.333px;">1</text>
            </g>
            <g transform="matrix(1,0,0,1,387.086,1185.35)">
                <text x="63.247px" y="161.307px" style="font-family:'Uberall-Regular', 'Uberall';font-size:133.333px;">2</text>
            </g>
            <g transform="matrix(1,0,0,1,588.753,1185.35)">
                <text x="65.58px" y="161.307px" style="font-family:'Uberall-Regular', 'Uberall';font-size:133.333px;">3</text>
            </g>
            <g transform="matrix(1,0,0,1,787.086,1185.35)">
                <text x="69.514px" y="161.307px" style="font-family:'Uberall-Regular', 'Uberall';font-size:133.333px;">4</text>
            </g>
            <g transform="matrix(1,0,0,1,987.086,1185.35)">
                <text x="63.247px" y="161.307px" style="font-family:'Uberall-Regular', 'Uberall';font-size:133.333px;">5</text>
            </g>
            <g transform="matrix(1,0,0,1,1187.09,1185.35)">
                <text x="65.58px" y="161.307px" style="font-family:'Uberall-Regular', 'Uberall';font-size:133.333px;">6</text>
            </g>
            <g transform="matrix(1,0,0,1,1388.74,1185.35)">
                <text x="69.847px" y="161.307px" style="font-family:'Uberall-Regular', 'Uberall';font-size:133.333px;">7</text>
            </g>
            <g transform="matrix(1,0,0,1,1588.75,1185.35)">
                <text x="61.58px" y="161.307px" style="font-family:'Uberall-Regular', 'Uberall';font-size:133.333px;">8</text>
            </g>
            <g transform="matrix(1,0,0,1,1788.75,1185.35)">
                <text x="65.58px" y="161.307px" style="font-family:'Uberall-Regular', 'Uberall';font-size:133.333px;">9</text>
            </g>
        </g>
        <g transform="matrix(1,0,0,1,0,0.0100677)">
            <g transform="matrix(1,0,0,1,-11.2469,1185.35)">
                <text x="62.847px" y="161.307px" style="font-family:'Uberall-Regular', 'Uberall';font-size:133.333px;">Ä</text>
            </g>
            <g transform="matrix(1,0,0,1,188.753,1185.35)">
                <text x="72.247px" y="161.307px" style="font-family:'Uberall-Regular', 'Uberall';font-size:133.333px;">ä</text>
            </g>
            <g transform="matrix(1,0,0,1,387.086,1185.35)">
                <text x="61.247px" y="161.307px" style="font-family:'Uberall-Regular', 'Uberall';font-size:133.333px;">Ö</text>
            </g>
            <g transform="matrix(1,0,0,1,588.753,1185.35)">
                <text x="74.58px" y="161.307px" style="font-family:'Uberall-Regular', 'Uberall';font-size:133.333px;">ö</text>
            </g>
            <g transform="matrix(1,0,0,1,787.086,1185.35)">
                <text x="64.58px" y="161.307px" style="font-family:'Uberall-Regular', 'Uberall';font-size:133.333px;">Ü</text>
            </g>
            <g transform="matrix(1,0,0,1,987.086,1185.35)">
                <text x="64.58px" y="161.307px" style="font-family:'Uberall-Regular', 'Uberall';font-size:133.333px;">ü</text>
            </g>
            <g transform="matrix(1,0,0,1,1187.09,1185.35)">
                <text x="66.38px" y="161.307px" style="font-family:'Uberall-Regular', 'Uberall';font-size:133.333px;">ß</text>
            </g>
        </g>
        <g transform="matrix(1,0,0,1,0,600.01)">
            <g transform="matrix(1,0,0,1,-11.2469,1185.35)">
                <text x="44.58px" y="161.307px" style="font-family:'Uberall-Regular', 'Uberall';font-size:133.333px;">@</text>
            </g>
            <g transform="matrix(1,0,0,1,188.753,1185.35)">
                <text x="56.58px" y="161.307px" style="font-family:'Uberall-Regular', 'Uberall';font-size:133.333px;">%</text>
            </g>
            <g transform="matrix(1,0,0,1,387.086,1185.35)">
                <text x="64.58px" y="161.307px" style="font-family:'Uberall-Regular', 'Uberall';font-size:133.333px;">&amp;</text>
            </g>
            <g transform="matrix(1,0,0,1,588.753,1185.35)">
                <text x="69.914px" y="161.307px" style="font-family:'Uberall-Regular', 'Uberall';font-size:133.333px;">$</text>
            </g>
            <g transform="matrix(1,0,0,1,787.086,1185.35)">
                <text x="55.114px" y="161.307px" style="font-family:'Uberall-Regular', 'Uberall';font-size:133.333px;">€</text>
            </g>
            <g transform="matrix(1,0,0,1,987.086,1185.35)">
                <text x="69.914px" y="161.307px" style="font-family:'Uberall-Regular', 'Uberall';font-size:133.333px;">+</text>
            </g>
            <g transform="matrix(1,0,0,1,1187.09,1185.35)">
                <text x="69.914px" y="161.307px" style="font-family:'Uberall-Regular', 'Uberall';font-size:133.333px;">-</text>
            </g>
            <g transform="matrix(1,0,0,1,1388.74,1185.35)">
                <text x="69.914px" y="161.307px" style="font-family:'Uberall-Regular', 'Uberall';font-size:133.333px;">=</text>
            </g>
        </g>
        <g transform="matrix(1,0,0,1,0,800.01)">
            <g transform="matrix(1,0,0,1,-11.2469,1185.35)">
                <text x="85.58px" y="161.307px" style="font-family:'Uberall-Regular', 'Uberall';font-size:133.333px;">[</text>
            </g>
            <g transform="matrix(1,0,0,1,188.753,1185.35)">
                <text x="85.58px" y="161.307px" style="font-family:'Uberall-Regular', 'Uberall';font-size:133.333px;">]</text>
            </g>
            <g transform="matrix(1,0,0,1,387.086,1185.35)">
                <text x="87.914px" y="161.307px" style="font-family:'Uberall-Regular', 'Uberall';font-size:133.333px;">{</text>
            </g>
            <g transform="matrix(1,0,0,1,588.753,1185.35)">
                <text x="87.914px" y="161.307px" style="font-family:'Uberall-Regular', 'Uberall';font-size:133.333px;">}</text>
            </g>
            <g transform="matrix(1,0,0,1,787.086,1185.35)">
                <text x="86.38px" y="161.307px" style="font-family:'Uberall-Regular', 'Uberall';font-size:133.333px;">(</text>
            </g>
            <g transform="matrix(1,0,0,1,987.086,1185.35)">
                <text x="86.38px" y="161.307px" style="font-family:'Uberall-Regular', 'Uberall';font-size:133.333px;">)</text>
            </g>
            <g transform="matrix(1,0,0,1,1187.09,1185.35)">
                <text x="82.847px" y="161.307px" style="font-family:'Uberall-Regular', 'Uberall';font-size:133.333px;">/</text>
            </g>
            <g transform="matrix(1,0,0,1,1388.74,1185.35)">
                <text x="82.847px" y="161.307px" style="font-family:'Uberall-Regular', 'Uberall';font-size:133.333px;">\</text>
            </g>
            <g transform="matrix(1,0,0,1,1588.75,1185.35)">
                <text x="63.247px" y="161.307px" style="font-family:'Uberall-Regular', 'Uberall';font-size:133.333px;">#</text>
            </g>
            <g transform="matrix(1,0,0,1,1788.75,1185.35)">
                <text x="61.247px" y="161.307px" style="font-family:'Uberall-Regular', 'Uberall';font-size:133.333px;">©</text>
            </g>
        </g>
        <g id="lowers" transform="matrix(1,0,0,1,0,599.99)">
            <g transform="matrix(1,0,0,1,-11.2469,-14.6408)">
                <text x="72.247px" y="161.307px" style="font-family:'Uberall-Regular', 'Uberall';font-size:133.333px;">a</text>
            </g>
            <g transform="matrix(1,0,0,1,-11.2469,185.359)">
                <text x="72.914px" y="161.307px" style="font-family:'Uberall-Regular', 'Uberall';font-size:133.333px;">k</text>
            </g>
            <g transform="matrix(1,0,0,1,-12.922,385.359)">
                <text x="71.247px" y="161.307px" style="font-family:'Uberall-Regular', 'Uberall';font-size:133.333px;">u</text>
            </g>
            <g transform="matrix(1,0,0,1,188.753,385.359)">
                <text x="76.114px" y="161.307px" style="font-family:'Uberall-Regular', 'Uberall';font-size:133.333px;">v</text>
            </g>
            <g transform="matrix(1,0,0,1,388.706,385.359)">
                <text x="62.847px" y="161.307px" style="font-family:'Uberall-Regular', 'Uberall';font-size:133.333px;">w</text>
            </g>
            <g transform="matrix(1,0,0,1,588.753,385.359)">
                <text x="76.18px" y="161.307px" style="font-family:'Uberall-Regular', 'Uberall';font-size:133.333px;">x</text>
            </g>
            <g transform="matrix(1,0,0,1,788.755,385.359)">
                <text x="72.847px" y="161.307px" style="font-family:'Uberall-Regular', 'Uberall';font-size:133.333px;">y</text>
            </g>
            <g transform="matrix(1,0,0,1,988.753,385.359)">
                <text x="76.18px" y="161.307px" style="font-family:'Uberall-Regular', 'Uberall';font-size:133.333px;">z</text>
            </g>
            <g transform="matrix(1,0,0,1,187.078,185.359)">
                <text x="97.914px" y="161.307px" style="font-family:'Uberall-Regular', 'Uberall';font-size:133.333px;">l</text>
            </g>
            <g transform="matrix(1,0,0,1,387.086,185.359)">
                <text x="56.58px" y="161.307px" style="font-family:'Uberall-Regular', 'Uberall';font-size:133.333px;">m</text>
            </g>
            <g transform="matrix(1,0,0,1,588.753,185.359)">
                <text x="69.914px" y="161.307px" style="font-family:'Uberall-Regular', 'Uberall';font-size:133.333px;">n</text>
            </g>
            <g transform="matrix(1,0,0,1,788.753,185.359)">
                <text x="74.58px" y="161.307px" style="font-family:'Uberall-Regular', 'Uberall';font-size:133.333px;">o</text>
            </g>
            <g transform="matrix(1,0,0,1,988.753,185.359)">
                <text x="72.914px" y="161.307px" style="font-family:'Uberall-Regular', 'Uberall';font-size:133.333px;">p</text>
            </g>
            <g transform="matrix(1,0,0,1,1188.75,185.359)">
                <text x="72.914px" y="161.307px" style="font-family:'Uberall-Regular', 'Uberall';font-size:133.333px;">q</text>
            </g>
            <g transform="matrix(1,0,0,1,1388.75,185.359)">
                <text x="81.247px" y="161.307px" style="font-family:'Uberall-Regular', 'Uberall';font-size:133.333px;">r</text>
            </g>
            <g transform="matrix(1,0,0,1,1588.75,185.359)">
                <text x="74.58px" y="161.307px" style="font-family:'Uberall-Regular', 'Uberall';font-size:133.333px;">s</text>
            </g>
            <g transform="matrix(1,0,0,1,1788.75,185.359)">
                <text x="89.514px" y="161.307px" style="font-family:'Uberall-Regular', 'Uberall';font-size:133.333px;">t</text>
            </g>
            <g transform="matrix(1,0,0,1,188.753,-14.6408)">
                <text x="72.914px" y="161.307px" style="font-family:'Uberall-Regular', 'Uberall';font-size:133.333px;">b</text>
            </g>
            <g transform="matrix(1,0,0,1,387.086,-14.6408)">
                <text x="76.314px" y="161.307px" style="font-family:'Uberall-Regular', 'Uberall';font-size:133.333px;">c</text>
            </g>
            <g transform="matrix(1,0,0,1,588.753,-14.6408)">
                <text x="72.914px" y="161.307px" style="font-family:'Uberall-Regular', 'Uberall';font-size:133.333px;">d</text>
            </g>
            <g transform="matrix(1,0,0,1,787.086,-14.6408)">
                <text x="75.114px" y="161.307px" style="font-family:'Uberall-Regular', 'Uberall';font-size:133.333px;">e</text>
            </g>
            <g transform="matrix(1,0,0,1,987.086,-14.6408)">
                <text x="89.514px" y="161.307px" style="font-family:'Uberall-Regular', 'Uberall';font-size:133.333px;">f</text>
            </g>
            <g transform="matrix(1,0,0,1,1187.09,-14.6408)">
                <text x="67.047px" y="161.307px" style="font-family:'Uberall-Regular', 'Uberall';font-size:133.333px;">g</text>
            </g>
            <g transform="matrix(1,0,0,1,1388.74,-14.6408)">
                <text x="72.914px" y="161.307px" style="font-family:'Uberall-Regular', 'Uberall';font-size:133.333px;">h</text>
            </g>
            <g transform="matrix(1,0,0,1,1588.75,-14.6408)">
                <text x="97.914px" y="161.307px" style="font-family:'Uberall-Regular', 'Uberall';font-size:133.333px;">i</text>
            </g>
            <g transform="matrix(1,0,0,1,1788.75,-14.6408)">
                <text x="90.38px" y="161.307px" style="font-family:'Uberall-Regular', 'Uberall';font-size:133.333px;">j</text>
            </g>
        </g>
        <g id="captials">
            <g transform="matrix(1,0,0,1,-11.2469,-14.6408)">
                <text x="62.847px" y="161.307px" style="font-family:'Uberall-Regular', 'Uberall';font-size:133.333px;">A</text>
            </g>
            <g transform="matrix(1,0,0,1,-11.2469,185.359)">
                <text x="66.247px" y="161.307px" style="font-family:'Uberall-Regular', 'Uberall';font-size:133.333px;">K</text>
            </g>
            <g transform="matrix(1,0,0,1,-12.922,385.359)">
                <text x="64.58px" y="161.307px" style="font-family:'Uberall-Regular', 'Uberall';font-size:133.333px;">U</text>
            </g>
            <g transform="matrix(1,0,0,1,188.753,385.359)">
                <text x="69.514px" y="161.307px" style="font-family:'Uberall-Regular', 'Uberall';font-size:133.333px;">V</text>
            </g>
            <g transform="matrix(1,0,0,1,388.706,385.359)">
                <text x="58.447px" y="161.307px" style="font-family:'Uberall-Regular', 'Uberall';font-size:133.333px;">W</text>
            </g>
            <g transform="matrix(1,0,0,1,588.753,385.359)">
                <text x="69.514px" y="161.307px" style="font-family:'Uberall-Regular', 'Uberall';font-size:133.333px;">X</text>
            </g>
            <g transform="matrix(1,0,0,1,788.755,385.359)">
                <text x="69.514px" y="161.307px" style="font-family:'Uberall-Regular', 'Uberall';font-size:133.333px;">Y</text>
            </g>
            <g transform="matrix(1,0,0,1,988.753,385.359)">
                <text x="64.58px" y="161.307px" style="font-family:'Uberall-Regular', 'Uberall';font-size:133.333px;">Z</text>
            </g>
            <g transform="matrix(1,0,0,1,187.078,185.359)">
                <text x="72.914px" y="161.307px" style="font-family:'Uberall-Regular', 'Uberall';font-size:133.333px;">L</text>
            </g>
            <g transform="matrix(1,0,0,1,387.086,185.359)">
                <text x="57.914px" y="161.307px" style="font-family:'Uberall-Regular', 'Uberall';font-size:133.333px;">M</text>
            </g>
            <g transform="matrix(1,0,0,1,588.753,185.359)">
                <text x="64.58px" y="161.307px" style="font-family:'Uberall-Regular', 'Uberall';font-size:133.333px;">N</text>
            </g>
            <g transform="matrix(1,0,0,1,788.753,185.359)">
                <text x="61.247px" y="161.307px" style="font-family:'Uberall-Regular', 'Uberall';font-size:133.333px;">O</text>
            </g>
            <g transform="matrix(1,0,0,1,988.753,185.359)">
                <text x="66.247px" y="161.307px" style="font-family:'Uberall-Regular', 'Uberall';font-size:133.333px;">P</text>
            </g>
            <g transform="matrix(1,0,0,1,1188.75,185.359)">
                <text x="61.247px" y="161.307px" style="font-family:'Uberall-Regular', 'Uberall';font-size:133.333px;">Q</text>
            </g>
            <g transform="matrix(1,0,0,1,1388.75,185.359)">
                <text x="64.58px" y="161.307px" style="font-family:'Uberall-Regular', 'Uberall';font-size:133.333px;">R</text>
            </g>
            <g transform="matrix(1,0,0,1,1588.75,185.359)">
                <text x="64.58px" y="161.307px" style="font-family:'Uberall-Regular', 'Uberall';font-size:133.333px;">S</text>
            </g>
            <g transform="matrix(1,0,0,1,1788.75,185.359)">
                <text x="69.514px" y="161.307px" style="font-family:'Uberall-Regular', 'Uberall';font-size:133.333px;">T</text>
            </g>
            <g transform="matrix(1,0,0,1,188.753,-14.6408)">
                <text x="66.247px" y="161.307px" style="font-family:'Uberall-Regular', 'Uberall';font-size:133.333px;">B</text>
            </g>
            <g transform="matrix(1,0,0,1,387.086,-14.6408)">
                <text x="66.314px" y="161.307px" style="font-family:'Uberall-Regular', 'Uberall';font-size:133.333px;">C</text>
            </g>
            <g transform="matrix(1,0,0,1,588.753,-14.6408)">
                <text x="66.247px" y="161.307px" style="font-family:'Uberall-Regular', 'Uberall';font-size:133.333px;">D</text>
            </g>
            <g transform="matrix(1,0,0,1,787.086,-14.6408)">
                <text x="66.247px" y="161.307px" style="font-family:'Uberall-Regular', 'Uberall';font-size:133.333px;">E</text>
            </g>
            <g transform="matrix(1,0,0,1,987.086,-14.6408)">
                <text x="72.914px" y="161.307px" style="font-family:'Uberall-Regular', 'Uberall';font-size:133.333px;">F</text>
            </g>
            <g transform="matrix(1,0,0,1,1187.09,-14.6408)">
                <text x="61.447px" y="161.307px" style="font-family:'Uberall-Regular', 'Uberall';font-size:133.333px;">G</text>
            </g>
            <g transform="matrix(1,0,0,1,1388.74,-14.6408)">
                <text x="63.247px" y="161.307px" style="font-family:'Uberall-Regular', 'Uberall';font-size:133.333px;">H</text>
            </g>
            <g transform="matrix(1,0,0,1,1588.75,-14.6408)">
                <text x="97.914px" y="161.307px" style="font-family:'Uberall-Regular', 'Uberall';font-size:133.333px;">I</text>
            </g>
            <g transform="matrix(1,0,0,1,1788.75,-14.6408)">
                <text x="64.58px" y="161.307px" style="font-family:'Uberall-Regular', 'Uberall';font-size:133.333px;">J</text>
            </g>
        </g>
    </g>
</svg>
