<?xml version="1.0" encoding="UTF-8" standalone="no"?>
<!DOCTYPE svg PUBLIC "-//W3C//DTD SVG 1.1//EN" "http://www.w3.org/Graphics/SVG/1.1/DTD/svg11.dtd">
<svg width="100%" height="100%" viewBox="0 0 13334 7500" version="1.1" xmlns="http://www.w3.org/2000/svg" xmlns:xlink="http://www.w3.org/1999/xlink" xml:space="preserve" xmlns:serif="http://www.serif.com/" style="fill-rule:evenodd;clip-rule:evenodd;stroke-linecap:round;stroke-linejoin:round;stroke-miterlimit:1.5;">
    <g id="background" transform="matrix(1,0,0,1,-1333.33,-750)">
        <rect x="0" y="0" width="16000" height="9000" style="fill:white;"/>
    </g>
    <g transform="matrix(1,0,0,1,-1333.33,-1250)">
        <g>
            <g transform="matrix(1,0,0,1,102.609,-356.691)">
                <g transform="matrix(3.29147,0,0,3.29147,259.162,-6708.16)">
                    <path d="M3567.82,3525.5L3688.83,3595.37L3809.85,3525.5L3688.83,3455.63L3567.82,3525.5Z" style="fill:white;stroke:black;stroke-width:2.53px;"/>
                    <path d="M3567.82,3525.5L3567.82,3665.24L3688.83,3735.11L3688.83,3595.37L3567.82,3525.5Z" style="fill:rgb(255,198,255);stroke:black;stroke-width:2.53px;"/>
                    <path d="M3688.83,3595.37L3809.85,3525.5L3809.85,3665.24L3688.83,3735.11L3688.83,3595.37Z" style="fill:rgb(166,166,166);stroke:black;stroke-width:2.53px;"/>
                </g>
                <g transform="matrix(3.29147,0,0,3.29147,657.479,-6478.19)">
                    <path d="M3567.82,3525.5L3688.83,3595.37L3809.85,3525.5L3688.83,3455.63L3567.82,3525.5Z" style="fill:white;stroke:black;stroke-width:2.53px;"/>
                    <path d="M3567.82,3525.5L3567.82,3665.24L3688.83,3735.11L3688.83,3595.37L3567.82,3525.5Z" style="fill:rgb(255,198,255);stroke:black;stroke-width:2.53px;"/>
                    <path d="M3688.83,3595.37L3809.85,3525.5L3809.85,3665.24L3688.83,3735.11L3688.83,3595.37Z" style="fill:rgb(255,0,255);stroke:black;stroke-width:2.53px;"/>
                </g>
                <g transform="matrix(3.29147,0,0,3.29147,259.162,-7168.1)">
                    <path d="M3567.82,3525.5L3688.83,3595.37L3809.85,3525.5L3688.83,3455.63L3567.82,3525.5Z" style="fill:white;stroke:black;stroke-width:2.53px;"/>
                    <path d="M3567.82,3525.5L3567.82,3665.24L3688.83,3735.11L3688.83,3595.37L3567.82,3525.5Z" style="fill:rgb(255,198,255);stroke:black;stroke-width:2.53px;"/>
                    <path d="M3688.83,3595.37L3809.85,3525.5L3809.85,3665.24L3688.83,3735.11L3688.83,3595.37Z" style="fill:rgb(166,166,166);stroke:black;stroke-width:2.53px;"/>
                </g>
                <g transform="matrix(3.29147,0,0,3.29147,657.479,-6938.13)">
                    <path d="M3567.82,3525.5L3688.83,3595.37L3809.85,3525.5L3688.83,3455.63L3567.82,3525.5Z" style="fill:white;stroke:black;stroke-width:2.53px;"/>
                    <path d="M3567.82,3525.5L3567.82,3665.24L3688.83,3735.11L3688.83,3595.37L3567.82,3525.5Z" style="fill:rgb(255,198,255);stroke:black;stroke-width:2.53px;"/>
                    <path d="M3688.83,3595.37L3809.85,3525.5L3809.85,3665.24L3688.83,3735.11L3688.83,3595.37Z" style="fill:rgb(255,0,255);stroke:black;stroke-width:2.53px;"/>
                </g>
                <g transform="matrix(3.29147,0,0,3.29147,259.162,-7628.03)">
                    <path d="M3567.82,3525.5L3688.83,3595.37L3809.85,3525.5L3688.83,3455.63L3567.82,3525.5Z" style="fill:rgb(255,238,255);stroke:black;stroke-width:2.53px;"/>
                    <path d="M3567.82,3525.5L3567.82,3665.24L3688.83,3735.11L3688.83,3595.37L3567.82,3525.5Z" style="fill:rgb(255,198,255);stroke:black;stroke-width:2.53px;"/>
                    <path d="M3688.83,3595.37L3809.85,3525.5L3809.85,3665.24L3688.83,3735.11L3688.83,3595.37Z" style="fill:rgb(166,166,166);stroke:black;stroke-width:2.53px;"/>
                </g>
                <g transform="matrix(3.29147,0,0,3.29147,657.479,-7398.06)">
                    <path d="M3567.82,3525.5L3688.83,3595.37L3809.85,3525.5L3688.83,3455.63L3567.82,3525.5Z" style="fill:white;stroke:black;stroke-width:2.53px;"/>
                    <path d="M3567.82,3525.5L3567.82,3665.24L3688.83,3735.11L3688.83,3595.37L3567.82,3525.5Z" style="fill:rgb(255,198,255);stroke:black;stroke-width:2.53px;"/>
                    <path d="M3688.83,3595.37L3809.85,3525.5L3809.85,3665.24L3688.83,3735.11L3688.83,3595.37Z" style="fill:rgb(255,0,255);stroke:black;stroke-width:2.53px;"/>
                </g>
                <g transform="matrix(3.29147,0,0,3.29147,657.479,-7858)">
                    <path d="M3567.82,3525.5L3688.83,3595.37L3809.85,3525.5L3688.83,3455.63L3567.82,3525.5Z" style="fill:rgb(255,238,255);stroke:black;stroke-width:2.53px;"/>
                    <path d="M3567.82,3525.5L3567.82,3665.24L3688.83,3735.11L3688.83,3595.37L3567.82,3525.5Z" style="fill:rgb(255,198,255);stroke:black;stroke-width:2.53px;"/>
                    <path d="M3688.83,3595.37L3809.85,3525.5L3809.85,3665.24L3688.83,3735.11L3688.83,3595.37Z" style="fill:rgb(255,0,255);stroke:black;stroke-width:2.53px;"/>
                </g>
            </g>
            <path id="outline" d="M13325.1,3389.39C13325.1,3380.46 13320.3,3372.2 13312.6,3367.74L12914.3,3137.77C12906.5,3133.3 12897,3133.3 12889.3,3137.77L12092.6,3597.71C12084.9,3602.17 12080.1,3610.43 12080.1,3619.36L12080.1,4999.17C12080.1,5008.1 12084.9,5016.35 12092.6,5020.82L12889.3,5480.76C12897,5485.22 12906.5,5485.22 12914.3,5480.76L13312.6,5250.79C13320.3,5246.32 13325.1,5238.07 13325.1,5229.14L13325.1,3389.39ZM13300.1,3389.39L12901.8,3159.42L12105.1,3619.36L12105.1,4999.17L12901.8,5459.11L13300.1,5229.14L13300.1,3389.39Z"/>
        </g>
        <g transform="matrix(19.5661,0,0,19.5661,-20772.5,-32869.7)">
            <g transform="matrix(0.0511087,0,0,0.0511087,903.218,1679.93)">
                <path d="M6118.08,5000L6118.08,4553.75C6127.21,4468.58 6175.47,4414.77 6275.57,4402.52L6723.71,4402.52C6812.5,4413.26 6866.24,4461.04 6881.92,4549.01L6881.92,5000L6718.76,5000L6718.76,4576.35C6716.57,4564.84 6683.94,4563.35 6681.24,4576.83L6681.24,5900L6518.53,5900L6518.53,5133.92C6518.26,5115.78 6484.43,5116.18 6483.81,5133.92L6481.84,5900L6318.63,5900L6315.17,4581.69C6314.08,4563.25 6283.55,4565.32 6283.34,4581.69L6283.34,5000L6118.08,5000Z" style="fill:rgb(242,242,242);stroke:black;stroke-width:8.33px;stroke-linecap:square;stroke-linejoin:bevel;"/>
            </g>
            <g transform="matrix(1,0,0,1,-0.183208,-0.318587)">
                <circle cx="1235.52" cy="1894.04" r="9.355" style="fill:none;stroke:black;stroke-width:0.43px;stroke-linecap:square;stroke-linejoin:bevel;"/>
            </g>
            <path d="M1244.69,1913.84L1244.69,1982.88C1244.26,1987.82 1236.55,1987.72 1236.37,1982.88L1236.37,1942.32C1236.36,1941.39 1234.63,1941.41 1234.6,1942.32L1234.49,1982.95C1234.48,1987.62 1226.31,1987.95 1226.16,1982.97L1225.98,1914.09C1225.92,1913.15 1224.36,1913.26 1224.35,1914.09L1224.35,1941.87C1224.4,1946.73 1215.95,1946.94 1215.9,1941.87L1215.9,1912.66C1216.37,1908.31 1218.84,1905.56 1223.95,1904.93L1246.86,1904.93C1251.4,1905.48 1254.14,1907.92 1254.94,1912.42L1254.94,1942.08C1254.52,1947.05 1246.94,1946.91 1246.61,1942.08L1246.61,1913.82C1246.49,1913.23 1244.83,1913.15 1244.69,1913.84Z" style="fill:none;stroke:black;stroke-width:0.43px;stroke-linecap:square;stroke-linejoin:bevel;"/>
        </g>
        <g transform="matrix(19.5661,0,0,19.5661,-14326.7,-32869.7)">
            <g transform="matrix(0.0511087,0,0,0.0511087,903.218,1679.93)">
                <path d="M6118.08,5000L6118.08,4553.75C6127.21,4468.58 6175.47,4414.77 6275.57,4402.52L6723.71,4402.52C6812.5,4413.26 6866.24,4461.04 6881.92,4549.01L6881.92,5000L6718.76,5000L6718.76,4576.35C6716.57,4564.84 6683.94,4563.35 6681.24,4576.83L6681.24,5900L6518.53,5900L6518.53,5133.92C6518.26,5115.78 6484.43,5116.18 6483.81,5133.92L6481.84,5900L6318.63,5900L6315.17,4581.69C6314.08,4563.25 6283.55,4565.32 6283.34,4581.69L6283.34,5000L6118.08,5000Z" style="fill:rgb(242,242,242);stroke:black;stroke-width:8.33px;stroke-linecap:square;stroke-linejoin:bevel;"/>
            </g>
            <g transform="matrix(1,0,0,1,-0.183208,-0.318587)">
                <circle cx="1235.52" cy="1894.04" r="9.355" style="fill:none;stroke:black;stroke-width:0.43px;stroke-linecap:square;stroke-linejoin:bevel;"/>
            </g>
            <path d="M1244.69,1913.84L1244.69,1982.88C1244.26,1987.82 1236.55,1987.72 1236.37,1982.88L1236.37,1942.32C1236.36,1941.39 1234.63,1941.41 1234.6,1942.32L1234.49,1982.95C1234.48,1987.62 1226.31,1987.95 1226.16,1982.97L1225.98,1914.09C1225.92,1913.15 1224.36,1913.26 1224.35,1914.09L1224.35,1941.87C1224.4,1946.73 1215.95,1946.94 1215.9,1941.87L1215.9,1912.66C1216.37,1908.31 1218.84,1905.56 1223.95,1904.93L1246.86,1904.93C1251.4,1905.48 1254.14,1907.92 1254.94,1912.42L1254.94,1942.08C1254.52,1947.05 1246.94,1946.91 1246.61,1942.08L1246.61,1913.82C1246.49,1913.23 1244.83,1913.15 1244.69,1913.84Z" style="fill:none;stroke:black;stroke-width:0.43px;stroke-linecap:square;stroke-linejoin:bevel;"/>
        </g>
        <g transform="matrix(19.5661,0,0,19.5661,-11572.5,-32869.7)">
            <g transform="matrix(1,0,0,1,-0.183208,-0.318587)">
                <circle cx="1235.52" cy="1894.04" r="9.355" style="fill:white;stroke:black;stroke-width:0.43px;stroke-linecap:square;stroke-linejoin:bevel;"/>
            </g>
            <path d="M1244.69,1913.84L1244.69,1982.88C1244.26,1987.82 1236.55,1987.72 1236.37,1982.88L1236.37,1942.32C1236.36,1941.39 1234.63,1941.41 1234.6,1942.32L1234.49,1982.95C1234.48,1987.62 1226.31,1987.95 1226.16,1982.97L1225.98,1914.09C1225.92,1913.15 1224.36,1913.26 1224.35,1914.09L1224.35,1941.87C1224.4,1946.73 1215.95,1946.94 1215.9,1941.87L1215.9,1912.66C1216.37,1908.31 1218.84,1905.56 1223.95,1904.93L1246.86,1904.93C1251.4,1905.48 1254.14,1907.92 1254.94,1912.42L1254.94,1942.08C1254.52,1947.05 1246.94,1946.91 1246.61,1942.08L1246.61,1913.82C1246.49,1913.23 1244.83,1913.15 1244.69,1913.84Z" style="fill:white;stroke:black;stroke-width:0.43px;stroke-linecap:square;stroke-linejoin:bevel;"/>
            <g transform="matrix(0.0511087,0,0,0.0511087,903.218,1679.93)">
                <path d="M6118.08,5000L6118.08,4553.75C6127.21,4468.58 6175.47,4414.77 6275.57,4402.52L6723.71,4402.52C6812.5,4413.26 6866.24,4461.04 6881.92,4549.01L6881.92,5000L6718.76,5000L6718.76,4576.35C6716.57,4564.84 6683.94,4563.35 6681.24,4576.83L6681.24,5900L6518.53,5900L6518.53,5133.92C6518.26,5115.78 6484.43,5116.18 6483.81,5133.92L6481.84,5900L6318.63,5900L6315.17,4581.69C6314.08,4563.25 6283.55,4565.32 6283.34,4581.69L6283.34,5000L6118.08,5000Z" style="fill:rgb(242,242,242);stroke:black;stroke-width:8.33px;stroke-linecap:square;stroke-linejoin:bevel;"/>
            </g>
        </g>
        <g transform="matrix(19.5661,0,0,19.5661,-17990.6,-32869.7)">
            <g transform="matrix(1,0,0,1,-0.183208,-0.318587)">
                <circle cx="1235.52" cy="1894.04" r="9.355" style="fill:none;stroke:black;stroke-width:0.43px;stroke-linecap:square;stroke-linejoin:bevel;"/>
            </g>
            <path d="M1244.69,1913.84L1244.69,1982.88C1244.26,1987.82 1236.55,1987.72 1236.37,1982.88L1236.37,1942.32C1236.36,1941.39 1234.63,1941.41 1234.6,1942.32L1234.49,1982.95C1234.48,1987.62 1226.31,1987.95 1226.16,1982.97L1225.98,1914.09C1225.92,1913.15 1224.36,1913.26 1224.35,1914.09L1224.35,1941.87C1224.4,1946.73 1215.95,1946.94 1215.9,1941.87L1215.9,1912.66C1216.37,1908.31 1218.84,1905.56 1223.95,1904.93L1246.86,1904.93C1251.4,1905.48 1254.14,1907.92 1254.94,1912.42L1254.94,1942.08C1254.52,1947.05 1246.94,1946.91 1246.61,1942.08L1246.61,1913.82C1246.49,1913.23 1244.83,1913.15 1244.69,1913.84Z" style="fill:none;stroke:black;stroke-width:0.43px;stroke-linecap:square;stroke-linejoin:bevel;"/>
            <g transform="matrix(0.0511087,0,0,0.0511087,903.218,1679.93)">
                <path d="M6118.08,5000L6118.08,4553.75C6127.21,4468.58 6175.47,4414.77 6275.57,4402.52L6723.71,4402.52C6812.5,4413.26 6866.24,4461.04 6881.92,4549.01L6881.92,5000L6718.76,5000L6718.76,4576.35C6716.57,4564.84 6683.94,4563.35 6681.24,4576.83L6681.24,5900L6518.53,5900L6518.53,5133.92C6518.26,5115.78 6484.43,5116.18 6483.81,5133.92L6481.84,5900L6318.63,5900L6315.17,4581.69C6314.08,4563.25 6283.55,4565.32 6283.34,4581.69L6283.34,5000L6118.08,5000Z"/>
            </g>
        </g>
        <g transform="matrix(19.5661,0,0,19.5661,-15226.7,-32869.7)">
            <g transform="matrix(1,0,0,1,-0.183208,-0.318587)">
                <circle cx="1235.52" cy="1894.04" r="9.355" style="fill:none;stroke:black;stroke-width:0.43px;stroke-linecap:square;stroke-linejoin:bevel;"/>
            </g>
            <path d="M1244.69,1913.84L1244.69,1982.88C1244.26,1987.82 1236.55,1987.72 1236.37,1982.88L1236.37,1942.32C1236.36,1941.39 1234.63,1941.41 1234.6,1942.32L1234.49,1982.95C1234.48,1987.62 1226.31,1987.95 1226.16,1982.97L1225.98,1914.09C1225.92,1913.15 1224.36,1913.26 1224.35,1914.09L1224.35,1941.87C1224.4,1946.73 1215.95,1946.94 1215.9,1941.87L1215.9,1912.66C1216.37,1908.31 1218.84,1905.56 1223.95,1904.93L1246.86,1904.93C1251.4,1905.48 1254.14,1907.92 1254.94,1912.42L1254.94,1942.08C1254.52,1947.05 1246.94,1946.91 1246.61,1942.08L1246.61,1913.82C1246.49,1913.23 1244.83,1913.15 1244.69,1913.84Z" style="fill:none;stroke:black;stroke-width:0.43px;stroke-linecap:square;stroke-linejoin:bevel;"/>
            <g transform="matrix(0.0511087,0,0,0.0511087,903.218,1679.93)">
                <path d="M6118.08,5000L6118.08,4553.75C6127.21,4468.58 6175.47,4414.77 6275.57,4402.52L6723.71,4402.52C6812.5,4413.26 6866.24,4461.04 6881.92,4549.01L6881.92,5000L6718.76,5000L6718.76,4576.35C6716.57,4564.84 6683.94,4563.35 6681.24,4576.83L6681.24,5900L6518.53,5900L6518.53,5133.92C6518.26,5115.78 6484.43,5116.18 6483.81,5133.92L6481.84,5900L6318.63,5900L6315.17,4581.69C6314.08,4563.25 6283.55,4565.32 6283.34,4581.69L6283.34,5000L6118.08,5000Z"/>
            </g>
        </g>
        <g transform="matrix(1,0,0,1,-1000,3000)">
            <g transform="matrix(1,-0,-0,1,2333.33,-1750)">
                <path d="M4189.44,3687.5L4251.94,3750L4189.44,3812.5" style="fill:none;stroke:rgb(255,0,255);stroke-width:20.83px;stroke-linejoin:miter;stroke-miterlimit:10;"/>
                <path d="M2666.67,3750L4251.94,3750" style="fill:none;stroke:rgb(255,0,255);stroke-width:20.83px;"/>
            </g>
        </g>
        <g transform="matrix(1,0,0,1,1763.84,3000)">
            <g transform="matrix(1,-0,-0,1,-430.504,-1750)">
                <path d="M6953.27,3687.5L7015.77,3750L6953.27,3812.5" style="fill:none;stroke:rgb(255,0,255);stroke-width:20.83px;stroke-linejoin:miter;stroke-miterlimit:10;"/>
                <path d="M5430.5,3750L7015.77,3750" style="fill:none;stroke:rgb(255,0,255);stroke-width:20.83px;"/>
            </g>
        </g>
        <g transform="matrix(1,0,0,1,5421,3000)">
            <g transform="matrix(1,-0,-0,1,-4087.67,-1750)">
                <path d="M10610.4,3687.5L10672.9,3750L10610.4,3812.5" style="fill:none;stroke:rgb(255,0,255);stroke-width:20.83px;stroke-linejoin:miter;stroke-miterlimit:10;"/>
                <path d="M9087.67,3750L10672.9,3750" style="fill:none;stroke:rgb(255,0,255);stroke-width:20.83px;"/>
            </g>
        </g>
        <g transform="matrix(1,0,0,0.88837,0,780.944)">
            <g transform="matrix(1,-0,-0,1.12566,1333.33,527.996)">
                <path d="M4781.29,5028.1L4842.91,4964.73L4906.28,5026.35" style="fill:none;stroke:rgb(255,0,255);stroke-width:20.83px;stroke-linejoin:miter;stroke-miterlimit:10;"/>
                <path d="M8066.67,4950C8066.67,6011.73 4872.45,6016.64 4842.91,4964.73" style="fill:none;stroke:rgb(255,0,255);stroke-width:20.83px;stroke-dasharray:62.5,83.33,0,0;"/>
            </g>
        </g>
        <g transform="matrix(1,0,0,1,0,505.18)">
            <g transform="matrix(0.997921,0.0644434,-0.0644434,0.997921,495.305,-1023.15)">
                <text x="7491.14px" y="6888.4px" style="font-family:'RobotoCondensed-Bold', 'Roboto Condensed';font-weight:700;font-size:235.833px;fill:rgb(255,0,255);">T</text>
            </g>
            <g transform="matrix(0.999698,0.0245821,-0.0245821,0.999698,185.551,-742.069)">
                <text x="7666.44px" y="6898.11px" style="font-family:'RobotoCondensed-Bold', 'Roboto Condensed';font-weight:700;font-size:235.833px;fill:rgb(255,0,255);">I</text>
            </g>
            <g transform="matrix(0.999725,-0.0234478,0.0234478,0.999725,-172.709,-371.29)">
                <text x="7784.3px" y="6901.09px" style="font-family:'RobotoCondensed-Bold', 'Roboto Condensed';font-weight:700;font-size:235.833px;fill:rgb(255,0,255);">M</text>
            </g>
            <g transform="matrix(0.996723,-0.0808868,0.0808868,0.996723,-576.268,117.046)">
                <text x="8017.4px" y="6893.3px" style="font-family:'RobotoCondensed-Bold', 'Roboto Condensed';font-weight:700;font-size:235.833px;fill:rgb(255,0,255);">E</text>
            </g>
        </g>
        <g>
            <g transform="matrix(0.59693,0,0,0.467986,892.882,2130.62)">
                <path d="M3779.88,3897.46C3783.12,3887.7 3793.5,3880.14 3805.51,3880.14C3817.53,3880.14 3827.91,3887.7 3831.14,3897.46C3839.89,3892.06 3852.7,3892.94 3861.91,3900.66C3871.12,3908.39 3874.2,3920.86 3870.41,3930.41C3880.58,3931.9 3889.83,3940.81 3891.92,3952.64C3894.01,3964.48 3888.36,3976.01 3879.31,3980.89C3886.14,3988.57 3887.51,4001.34 3881.5,4011.74C3875.49,4022.15 3863.75,4027.36 3853.68,4025.28C3853.98,4035.55 3846.82,4046.21 3835.52,4050.32C3824.23,4054.43 3811.89,4050.87 3805.51,4042.81C3799.14,4050.87 3786.8,4054.43 3775.51,4050.32C3764.21,4046.21 3757.05,4035.55 3757.35,4025.28C3747.28,4027.36 3735.54,4022.15 3729.53,4011.74C3723.52,4001.34 3724.89,3988.57 3731.72,3980.89C3722.67,3976.01 3717.02,3964.48 3719.11,3952.64C3721.2,3940.81 3730.45,3931.9 3740.62,3930.41C3736.82,3920.86 3739.91,3908.39 3749.12,3900.66C3758.32,3892.94 3771.14,3892.06 3779.88,3897.46Z" style="fill:none;stroke:black;stroke-width:38.84px;"/>
            </g>
            <g transform="matrix(1.39735,0,0,1.05345,-2072.18,-377.143)">
                <path d="M3779.88,3897.46C3783.12,3887.7 3793.5,3880.14 3805.51,3880.14C3817.53,3880.14 3827.91,3887.7 3831.14,3897.46C3839.89,3892.06 3852.7,3892.94 3861.91,3900.66C3871.12,3908.39 3874.2,3920.86 3870.41,3930.41C3880.58,3931.9 3889.83,3940.81 3891.92,3952.64C3894.01,3964.48 3888.36,3976.01 3879.31,3980.89C3886.14,3988.57 3887.51,4001.34 3881.5,4011.74C3875.49,4022.15 3863.75,4027.36 3853.68,4025.28C3853.98,4035.55 3846.82,4046.21 3835.52,4050.32C3824.23,4054.43 3811.89,4050.87 3805.51,4042.81C3799.14,4050.87 3786.8,4054.43 3775.51,4050.32C3764.21,4046.21 3757.05,4035.55 3757.35,4025.28C3747.28,4027.36 3735.54,4022.15 3729.53,4011.74C3723.52,4001.34 3724.89,3988.57 3731.72,3980.89C3722.67,3976.01 3717.02,3964.48 3719.11,3952.64C3721.2,3940.81 3730.45,3931.9 3740.62,3930.41C3736.82,3920.86 3739.91,3908.39 3749.12,3900.66C3758.32,3892.94 3771.14,3892.06 3779.88,3897.46Z" style="fill:none;stroke:black;stroke-width:16.84px;"/>
            </g>
            <g transform="matrix(3.47153,0,0,2.61716,-9522.12,-6771.52)">
                <path d="M3779.88,3897.46C3783.12,3887.7 3793.5,3880.14 3805.51,3880.14C3817.53,3880.14 3827.91,3887.7 3831.14,3897.46C3839.89,3892.06 3852.7,3892.94 3861.91,3900.66C3871.12,3908.39 3874.2,3920.86 3870.41,3930.41C3880.58,3931.9 3889.83,3940.81 3891.92,3952.64C3894.01,3964.48 3888.36,3976.01 3879.31,3980.89C3886.14,3988.57 3887.51,4001.34 3881.5,4011.74C3875.49,4022.15 3863.75,4027.36 3853.68,4025.28C3853.98,4035.55 3846.82,4046.21 3835.52,4050.32C3824.23,4054.43 3811.89,4050.87 3805.51,4042.81C3799.14,4050.87 3786.8,4054.43 3775.51,4050.32C3764.21,4046.21 3757.05,4035.55 3757.35,4025.28C3747.28,4027.36 3735.54,4022.15 3729.53,4011.74C3723.52,4001.34 3724.89,3988.57 3731.72,3980.89C3722.67,3976.01 3717.02,3964.48 3719.11,3952.64C3721.2,3940.81 3730.45,3931.9 3740.62,3930.41C3736.82,3920.86 3739.91,3908.39 3749.12,3900.66C3758.32,3892.94 3771.14,3892.06 3779.88,3897.46Z" style="fill:none;stroke:black;stroke-width:6.78px;"/>
            </g>
        </g>
        <g transform="matrix(1,0,0,1,-676.661,265.925)">
            <text x="4300px" y="3465.59px" style="font-family:'RobotoCondensed-Bold', 'Roboto Condensed';font-weight:700;font-size:340.466px;fill:rgb(255,0,255);">?</text>
        </g>
        <g transform="matrix(1,0,0,1,2942.67,161.035)">
            <path d="M3567.82,3525.5L3688.83,3595.37L3809.85,3525.5L3688.83,3455.63L3567.82,3525.5Z" style="fill:rgb(239,0,239);fill-opacity:0.13;stroke:black;stroke-width:5px;stroke-dasharray:15,20,0,0;"/>
            <path d="M3567.82,3525.5L3567.82,3665.24L3688.83,3735.11L3688.83,3595.37L3567.82,3525.5Z" style="fill:rgb(255,0,255);fill-opacity:0.26;stroke:black;stroke-width:5px;stroke-dasharray:15,20,0,0;"/>
            <path d="M3688.83,3595.37L3809.85,3525.5L3809.85,3665.24L3688.83,3735.11L3688.83,3595.37Z" style="fill:rgb(255,0,255);fill-opacity:0.46;stroke:black;stroke-width:5px;stroke-dasharray:15,20,0,0;"/>
        </g>
        <g transform="matrix(1,0,0,1,5629.07,161.035)">
            <path d="M3567.82,3525.5L3688.83,3595.37L3809.85,3525.5L3688.83,3455.63L3567.82,3525.5Z" style="fill:rgb(239,0,239);fill-opacity:0.13;stroke:black;stroke-width:5px;stroke-dasharray:15,20,0,0;"/>
            <path d="M3567.82,3525.5L3567.82,3665.24L3688.83,3735.11L3688.83,3595.37L3567.82,3525.5Z" style="fill:rgb(255,0,255);fill-opacity:0.26;stroke:black;stroke-width:5px;stroke-dasharray:15,20,0,0;"/>
            <path d="M3688.83,3595.37L3809.85,3525.5L3809.85,3665.24L3688.83,3735.11L3688.83,3595.37Z" style="fill:rgb(255,0,255);fill-opacity:0.46;stroke:black;stroke-width:5px;stroke-dasharray:15,20,0,0;"/>
        </g>
        <g transform="matrix(1,0,0,1,2942.67,18.6384)">
            <path d="M3567.82,3525.5L3688.83,3595.37L3809.85,3525.5L3688.83,3455.63L3567.82,3525.5Z" style="fill:rgb(239,0,239);fill-opacity:0.13;stroke:black;stroke-width:5px;stroke-dasharray:15,20,0,0;"/>
            <path d="M3567.82,3525.5L3567.82,3665.24L3688.83,3735.11L3688.83,3595.37L3567.82,3525.5Z" style="fill:rgb(255,0,255);fill-opacity:0.26;stroke:black;stroke-width:5px;stroke-dasharray:15,20,0,0;"/>
            <path d="M3688.83,3595.37L3809.85,3525.5L3809.85,3665.24L3688.83,3735.11L3688.83,3595.37Z" style="fill:rgb(255,0,255);fill-opacity:0.46;stroke:black;stroke-width:5px;stroke-dasharray:15,20,0,0;"/>
        </g>
        <g transform="matrix(1,0,0,1,5629.07,18.6384)">
            <path d="M3567.82,3525.5L3688.83,3595.37L3809.85,3525.5L3688.83,3455.63L3567.82,3525.5Z" style="fill:rgb(239,0,239);fill-opacity:0.13;stroke:black;stroke-width:5px;stroke-dasharray:15,20,0,0;"/>
            <path d="M3567.82,3525.5L3567.82,3665.24L3688.83,3735.11L3688.83,3595.37L3567.82,3525.5Z" style="fill:rgb(255,0,255);fill-opacity:0.26;stroke:black;stroke-width:5px;stroke-dasharray:15,20,0,0;"/>
            <path d="M3688.83,3595.37L3809.85,3525.5L3809.85,3665.24L3688.83,3735.11L3688.83,3595.37Z" style="fill:rgb(255,0,255);fill-opacity:0.46;stroke:black;stroke-width:5px;stroke-dasharray:15,20,0,0;"/>
        </g>
        <g transform="matrix(1,0,0,1,2942.67,-121.098)">
            <path d="M3567.82,3525.5L3688.83,3595.37L3809.85,3525.5L3688.83,3455.63L3567.82,3525.5Z" style="fill:rgb(239,0,239);fill-opacity:0.13;stroke:black;stroke-width:5px;stroke-dasharray:15,20,0,0;"/>
            <path d="M3567.82,3525.5L3567.82,3665.24L3688.83,3735.11L3688.83,3595.37L3567.82,3525.5Z" style="fill:rgb(255,0,255);fill-opacity:0.26;stroke:black;stroke-width:5px;stroke-dasharray:15,20,0,0;"/>
            <path d="M3688.83,3595.37L3809.85,3525.5L3809.85,3665.24L3688.83,3735.11L3688.83,3595.37Z" style="fill:rgb(255,0,255);fill-opacity:0.46;stroke:black;stroke-width:5px;stroke-dasharray:15,20,0,0;"/>
        </g>
        <g transform="matrix(1,0,0,1,5629.07,-121.098)">
            <path d="M3567.82,3525.5L3688.83,3595.37L3809.85,3525.5L3688.83,3455.63L3567.82,3525.5Z" style="fill:rgb(239,0,239);fill-opacity:0.13;stroke:black;stroke-width:5px;stroke-dasharray:15,20,0,0;"/>
            <path d="M3567.82,3525.5L3567.82,3665.24L3688.83,3735.11L3688.83,3595.37L3567.82,3525.5Z" style="fill:rgb(255,0,255);fill-opacity:0.26;stroke:black;stroke-width:5px;stroke-dasharray:15,20,0,0;"/>
            <path d="M3688.83,3595.37L3809.85,3525.5L3809.85,3665.24L3688.83,3735.11L3688.83,3595.37Z" style="fill:rgb(255,0,255);fill-opacity:0.46;stroke:black;stroke-width:5px;stroke-dasharray:15,20,0,0;"/>
        </g>
        <g transform="matrix(1,0,0,1,2548.83,-267.697)">
            <path d="M3567.82,3525.5L3688.83,3595.37L3809.85,3525.5L3688.83,3455.63L3567.82,3525.5Z" style="fill:rgb(239,0,239);fill-opacity:0.13;stroke:black;stroke-width:5px;stroke-dasharray:15,20,0,0;"/>
            <path d="M3567.82,3525.5L3567.82,3665.24L3688.83,3735.11L3688.83,3595.37L3567.82,3525.5Z" style="fill:rgb(255,0,255);fill-opacity:0.26;stroke:black;stroke-width:5px;stroke-dasharray:15,20,0,0;"/>
            <path d="M3688.83,3595.37L3809.85,3525.5L3809.85,3665.24L3688.83,3735.11L3688.83,3595.37Z" style="fill:rgb(255,0,255);fill-opacity:0.46;stroke:black;stroke-width:5px;stroke-dasharray:15,20,0,0;"/>
        </g>
        <g transform="matrix(1,0,0,1,3238.47,-282.877)">
            <path d="M3567.82,3525.5L3688.83,3595.37L3809.85,3525.5L3688.83,3455.63L3567.82,3525.5Z" style="fill:rgb(239,0,239);fill-opacity:0.13;stroke:black;stroke-width:5px;stroke-dasharray:15,20,0,0;"/>
            <path d="M3567.82,3525.5L3567.82,3665.24L3688.83,3735.11L3688.83,3595.37L3567.82,3525.5Z" style="fill:rgb(255,0,255);fill-opacity:0.26;stroke:black;stroke-width:5px;stroke-dasharray:15,20,0,0;"/>
            <path d="M3688.83,3595.37L3809.85,3525.5L3809.85,3665.24L3688.83,3735.11L3688.83,3595.37Z" style="fill:rgb(255,0,255);fill-opacity:0.46;stroke:black;stroke-width:5px;stroke-dasharray:15,20,0,0;"/>
        </g>
        <g transform="matrix(1,0,0,1,2927.29,-455.633)">
            <path d="M3567.82,3525.5L3688.83,3595.37L3809.85,3525.5L3688.83,3455.63L3567.82,3525.5Z" style="fill:rgb(239,0,239);fill-opacity:0.13;stroke:black;stroke-width:5px;stroke-dasharray:15,20,0,0;"/>
            <path d="M3567.82,3525.5L3567.82,3665.24L3688.83,3735.11L3688.83,3595.37L3567.82,3525.5Z" style="fill:rgb(255,0,255);fill-opacity:0.26;stroke:black;stroke-width:5px;stroke-dasharray:15,20,0,0;"/>
            <path d="M3688.83,3595.37L3809.85,3525.5L3809.85,3665.24L3688.83,3735.11L3688.83,3595.37Z" style="fill:rgb(255,0,255);fill-opacity:0.46;stroke:black;stroke-width:5px;stroke-dasharray:15,20,0,0;"/>
        </g>
        <g transform="matrix(1,0,0,1,3002.13,506.173)">
            <path d="M3567.82,3525.5L3688.83,3595.37L3809.85,3525.5L3688.83,3455.63L3567.82,3525.5Z" style="fill:rgb(239,0,239);fill-opacity:0.13;stroke:black;stroke-width:5px;stroke-dasharray:15,20,0,0;"/>
            <path d="M3567.82,3525.5L3567.82,3665.24L3688.83,3735.11L3688.83,3595.37L3567.82,3525.5Z" style="fill:rgb(255,0,255);fill-opacity:0.26;stroke:black;stroke-width:5px;stroke-dasharray:15,20,0,0;"/>
            <path d="M3688.83,3595.37L3809.85,3525.5L3809.85,3665.24L3688.83,3735.11L3688.83,3595.37Z" style="fill:rgb(255,0,255);fill-opacity:0.46;stroke:black;stroke-width:5px;stroke-dasharray:15,20,0,0;"/>
        </g>
        <g transform="matrix(1,0,0,1,3063.68,226.7)">
            <path d="M3567.82,3525.5L3688.83,3595.37L3809.85,3525.5L3688.83,3455.63L3567.82,3525.5Z" style="fill:rgb(239,0,239);fill-opacity:0.13;stroke:black;stroke-width:5px;stroke-dasharray:15,20,0,0;"/>
            <path d="M3567.82,3525.5L3567.82,3665.24L3688.83,3735.11L3688.83,3595.37L3567.82,3525.5Z" style="fill:rgb(255,0,255);fill-opacity:0.26;stroke:black;stroke-width:5px;stroke-dasharray:15,20,0,0;"/>
            <path d="M3688.83,3595.37L3809.85,3525.5L3809.85,3665.24L3688.83,3735.11L3688.83,3595.37Z" style="fill:rgb(255,0,255);fill-opacity:0.46;stroke:black;stroke-width:5px;stroke-dasharray:15,20,0,0;"/>
        </g>
        <g transform="matrix(1,0,0,1,5750.09,226.7)">
            <path d="M3567.82,3525.5L3688.83,3595.37L3809.85,3525.5L3688.83,3455.63L3567.82,3525.5Z" style="fill:rgb(239,0,239);fill-opacity:0.13;stroke:black;stroke-width:5px;stroke-dasharray:15,20,0,0;"/>
            <path d="M3567.82,3525.5L3567.82,3665.24L3688.83,3735.11L3688.83,3595.37L3567.82,3525.5Z" style="fill:rgb(255,0,255);fill-opacity:0.26;stroke:black;stroke-width:5px;stroke-dasharray:15,20,0,0;"/>
            <path d="M3688.83,3595.37L3809.85,3525.5L3809.85,3665.24L3688.83,3735.11L3688.83,3595.37Z" style="fill:rgb(255,0,255);fill-opacity:0.46;stroke:black;stroke-width:5px;stroke-dasharray:15,20,0,0;"/>
        </g>
        <g transform="matrix(1.09663,0,0,1.09663,316.454,-69.0525)">
            <path d="M5371.85,3589.86L5429.76,3589.86" style="fill:none;stroke:black;stroke-width:19px;"/>
            <g transform="matrix(1,0,0,1,0,17.0876)">
                <path d="M5371.85,3589.86L5429.76,3589.86" style="fill:none;stroke:black;stroke-width:19px;"/>
            </g>
            <g transform="matrix(0.645391,0,0,1,1915.17,33.3417)">
                <path d="M5371.85,3589.86L5429.76,3589.86" style="fill:none;stroke:black;stroke-width:22.57px;"/>
            </g>
            <path d="M5350.41,3451.11C5354.67,3421.71 5370.48,3406.16 5399.44,3406.37" style="fill:none;stroke:black;stroke-width:19px;"/>
            <g transform="matrix(1,0,0,1,16.5704,3.82117)">
                <path d="M5480.32,3528.29L5502.93,3552.85" style="fill:none;stroke:black;stroke-width:19px;"/>
            </g>
            <g transform="matrix(0.663782,-0.747926,0.747926,0.663782,-752.883,5213.37)">
                <path d="M5480.32,3528.29L5502.93,3552.85" style="fill:none;stroke:black;stroke-width:19px;"/>
            </g>
            <g transform="matrix(-0.0293411,-0.999569,0.999569,-0.0293411,2112.42,8949.94)">
                <path d="M5480.32,3528.29L5502.93,3552.85" style="fill:none;stroke:black;stroke-width:19px;"/>
            </g>
            <g transform="matrix(-0.744333,-0.667809,0.667809,-0.744333,7123.07,9621.84)">
                <path d="M5480.32,3528.29L5502.93,3552.85" style="fill:none;stroke:black;stroke-width:19px;"/>
            </g>
            <g transform="matrix(-0.997271,0.0738246,-0.0738246,-0.997271,11036.6,6482.44)">
                <path d="M5480.32,3528.29L5502.93,3552.85" style="fill:none;stroke:black;stroke-width:19px;"/>
            </g>
            <g transform="matrix(-0.660932,0.750446,-0.750446,-0.660932,11545.1,1670.06)">
                <path d="M5480.32,3528.29L5502.93,3552.85" style="fill:none;stroke:black;stroke-width:19px;"/>
            </g>
            <g transform="matrix(0.0576308,0.998338,-0.998338,0.0576308,8510.61,-2139.38)">
                <path d="M5480.32,3528.29L5502.93,3552.85" style="fill:none;stroke:black;stroke-width:19px;"/>
            </g>
            <g transform="matrix(0.99985,0,0,0.997377,-0.0295057,9.11332)">
                <path d="M5370.35,3574.15C5369.9,3554.63 5362.11,3534.85 5347.33,3519.42C5288.33,3453.29 5340.29,3377.09 5400.06,3376.55C5472.15,3375.9 5517.07,3468.04 5445.57,3529.45C5435.12,3538.51 5430.75,3553.73 5431.44,3574.06L5370.35,3574.15Z" style="fill:none;stroke:black;stroke-width:19.02px;"/>
            </g>
        </g>
        <g transform="matrix(1,0,0,1,3202.29,568.578)">
            <path d="M6497.42,3210.07C6494.83,3211.86 6492.4,3213.91 6490.12,3216.22C6480.49,3225.96 6475.35,3238.32 6475.35,3253.55C6475.35,3268.63 6480.45,3280.89 6490.01,3290.57C6499.56,3300.23 6512.01,3305.51 6527.72,3305.51C6543.26,3305.51 6555.65,3300.26 6565.22,3290.57C6574.79,3280.89 6579.88,3268.63 6579.88,3253.55C6579.88,3238.32 6574.75,3225.96 6565.12,3216.22C6562.88,3213.95 6560.49,3211.93 6557.95,3210.16C6566.19,3207.58 6572.25,3200.03 6572.55,3190.96L6579.26,2985.88C6579.45,2980.24 6577.34,2974.76 6573.41,2970.71C6569.49,2966.65 6564.08,2964.37 6558.44,2964.37L6497.2,2964.37C6491.56,2964.37 6486.16,2966.65 6482.23,2970.71C6478.31,2974.76 6476.19,2980.24 6476.38,2985.88L6483.09,3190.96C6483.39,3199.93 6489.32,3207.42 6497.42,3210.07ZM6496.19,3253.55C6496.19,3244.33 6499.1,3236.76 6504.93,3230.86C6510.77,3224.96 6518.36,3222.01 6527.72,3222.01C6536.94,3222.01 6544.47,3224.96 6550.3,3230.86C6556.14,3236.76 6559.05,3244.33 6559.05,3253.55C6559.05,3262.64 6556.17,3270.1 6550.4,3275.93C6544.64,3281.76 6537.08,3284.68 6527.72,3284.68C6518.23,3284.68 6510.6,3281.76 6504.83,3275.93C6499.07,3270.1 6496.19,3262.64 6496.19,3253.55ZM6551.73,3190.28L6503.92,3190.28L6497.2,2985.2L6558.44,2985.2L6551.73,3190.28Z"/>
            <path d="M6605.85,3210.07C6603.26,3211.86 6600.82,3213.91 6598.55,3216.22C6588.92,3225.96 6583.78,3238.32 6583.78,3253.55C6583.78,3268.63 6588.88,3280.89 6598.44,3290.57C6607.99,3300.23 6620.44,3305.51 6636.15,3305.51C6651.69,3305.51 6664.08,3300.26 6673.65,3290.57C6683.22,3280.89 6688.31,3268.63 6688.31,3253.55C6688.31,3238.32 6683.18,3225.96 6673.55,3216.22C6671.31,3213.95 6668.92,3211.93 6666.38,3210.16C6674.62,3207.58 6680.68,3200.03 6680.98,3190.96L6687.69,2985.88C6687.88,2980.24 6685.77,2974.76 6681.84,2970.71C6677.92,2966.65 6672.51,2964.37 6666.87,2964.37L6605.63,2964.37C6599.99,2964.37 6594.59,2966.65 6590.66,2970.71C6586.74,2974.76 6584.62,2980.24 6584.81,2985.88L6591.52,3190.96C6591.82,3199.93 6597.75,3207.42 6605.85,3210.07ZM6604.61,3253.55C6604.61,3244.33 6607.53,3236.76 6613.36,3230.86C6619.19,3224.96 6626.79,3222.01 6636.15,3222.01C6645.37,3222.01 6652.9,3224.96 6658.73,3230.86C6664.57,3236.76 6667.48,3244.33 6667.48,3253.55C6667.48,3262.64 6664.6,3270.1 6658.83,3275.93C6653.07,3281.76 6645.51,3284.68 6636.15,3284.68C6626.65,3284.68 6619.03,3281.76 6613.26,3275.93C6607.5,3270.1 6604.61,3262.64 6604.61,3253.55ZM6660.16,3190.28L6612.35,3190.28L6605.63,2985.2L6666.87,2985.2L6660.16,3190.28Z"/>
            <path d="M6714.28,3210.07C6711.69,3211.86 6709.26,3213.91 6706.98,3216.22C6697.35,3225.96 6692.21,3238.32 6692.21,3253.55C6692.21,3268.63 6697.31,3280.89 6706.87,3290.57C6716.41,3300.23 6728.86,3305.51 6744.58,3305.51C6760.12,3305.51 6772.51,3300.26 6782.08,3290.57C6791.65,3280.89 6796.74,3268.63 6796.74,3253.55C6796.74,3238.32 6791.61,3225.96 6781.98,3216.22C6779.74,3213.95 6777.35,3211.93 6774.81,3210.16C6783.05,3207.58 6789.11,3200.03 6789.41,3190.96C6789.41,3190.96 6796.12,2985.88 6796.12,2985.88C6796.31,2980.24 6794.19,2974.76 6790.27,2970.71C6786.35,2966.65 6780.94,2964.37 6775.3,2964.37L6714.06,2964.37C6708.42,2964.37 6703.02,2966.65 6699.09,2970.71C6695.17,2974.76 6693.06,2980.24 6693.24,2985.88L6699.95,3190.96C6700.25,3199.93 6706.18,3207.42 6714.28,3210.07ZM6713.04,3253.55C6713.04,3244.33 6715.96,3236.76 6721.79,3230.86C6727.62,3224.96 6735.22,3222.01 6744.58,3222.01C6753.8,3222.01 6761.33,3224.96 6767.16,3230.86C6772.99,3236.76 6775.91,3244.33 6775.91,3253.55C6775.91,3262.64 6773.03,3270.1 6767.26,3275.93C6761.5,3281.76 6753.94,3284.68 6744.58,3284.68C6735.09,3284.68 6727.45,3281.76 6721.69,3275.93C6715.93,3270.1 6713.04,3262.64 6713.04,3253.55ZM6768.59,3190.28L6720.78,3190.28L6714.06,2985.2L6775.3,2985.2L6768.59,3190.28Z"/>
            <path d="M6886.48,3297.26C6890.22,3300.46 6895.01,3302.26 6900.01,3302.26L6935.61,3302.26C6945.95,3302.26 6954.73,3294.67 6956.22,3284.44L6965.82,3218.84C6965.82,3218.84 6989.93,3218.84 6989.93,3218.84C7001.44,3218.84 7010.76,3209.51 7010.76,3198.01L7010.76,3162.81C7010.76,3151.3 7001.44,3141.98 6989.93,3141.98L6977.06,3141.98C6977.06,3141.98 6979.42,3126.07 6979.42,3126.07C6979.42,3126.07 7002.95,3126.07 7002.95,3126.07C7014.46,3126.07 7023.78,3116.74 7023.78,3105.23L7023.78,3069.83C7023.78,3058.33 7014.46,3049 7002.95,3049L6990.65,3049C6990.65,3049 6999.56,2988.22 6999.56,2988.22C7000.44,2982.23 6998.67,2976.16 6994.71,2971.58C6990.75,2967 6985,2964.37 6978.94,2964.37L6943.54,2964.37C6938.32,2964.37 6933.5,2966.3 6929.81,2969.54C6926.04,2966.22 6921.16,2964.37 6916.08,2964.37L6880.68,2964.37C6870.34,2964.37 6861.57,2971.95 6860.07,2982.18L6850.27,3049C6850.27,3049 6825.14,3049 6825.14,3049C6813.63,3049 6804.3,3058.33 6804.3,3069.83L6804.3,3105.23C6804.3,3116.74 6813.63,3126.07 6825.14,3126.07L6839.03,3126.07C6839.03,3126.07 6836.67,3141.98 6836.67,3141.98C6836.67,3141.98 6812.32,3141.98 6812.32,3141.98C6800.81,3141.98 6791.49,3151.3 6791.49,3162.81L6791.49,3198.01C6791.49,3209.51 6800.81,3218.84 6812.32,3218.84L6825.45,3218.84C6825.45,3218.84 6816.73,3278.41 6816.73,3278.41C6815.85,3284.39 6817.62,3290.47 6821.58,3295.05C6825.54,3299.62 6831.29,3302.26 6837.34,3302.26L6872.95,3302.26C6878.08,3302.26 6882.82,3300.39 6886.48,3297.26ZM6912.21,3198.01L6884.95,3198.01L6872.95,3281.42L6837.34,3281.42L6849.55,3198.01L6812.32,3198.01L6812.32,3162.81L6854.64,3162.81L6863.18,3105.23L6825.14,3105.23L6825.14,3069.83L6868.27,3069.83L6880.68,2985.2L6916.08,2985.2L6903.67,3069.83L6931.13,3069.83L6943.54,2985.2L6978.94,2985.2L6966.53,3069.83L7002.95,3069.83L7002.95,3105.23L6961.45,3105.23L6952.9,3162.81L6989.93,3162.81L6989.93,3198.01L6947.82,3198.01L6935.61,3281.42L6900.01,3281.42L6912.21,3198.01ZM6890.04,3162.81L6917.5,3162.81L6925.84,3105.23L6898.58,3105.23L6890.04,3162.81Z"/>
            <path d="M7107.88,3052.27C7108.12,3053.06 7108.33,3053.89 7108.45,3054.62C7108.88,3057.26 7109.06,3060.23 7109.06,3063.53C7109.06,3067.87 7107.98,3072.15 7105.97,3076.41C7103.19,3082.28 7097.44,3089.65 7089.16,3098.83C7077.33,3111.37 7069.26,3124.63 7064.66,3138.42C7060.39,3151.25 7058,3168.51 7058,3190.28C7058,3199.86 7064.47,3207.93 7073.28,3210.36C7071.35,3211.8 7069.51,3213.39 7067.74,3215.13C7057.94,3224.83 7052.71,3237.2 7052.71,3252.53C7052.71,3267.27 7057.63,3279.47 7067.02,3289.3C7076.53,3299.26 7089.02,3304.7 7104.87,3304.7C7120.9,3304.7 7133.45,3299.23 7142.93,3289.3C7152.31,3279.47 7157.24,3267.27 7157.24,3252.53C7157.24,3237.48 7152.13,3225.18 7142.47,3215.41C7140.48,3213.39 7138.38,3211.57 7136.15,3209.95C7144.12,3207.17 7149.9,3199.68 7150.11,3190.77C7150.33,3181.69 7151.16,3174.33 7152.97,3168.72C7154.48,3164.05 7157.14,3159.6 7160.75,3155.24C7160.77,3155.22 7177.45,3136.32 7177.45,3136.32C7177.52,3136.24 7177.58,3136.17 7177.65,3136.09C7198.61,3111.67 7208.51,3086.5 7208.51,3061.09C7208.51,3029.45 7199.01,3005.1 7181.49,2987.49C7163.94,2969.86 7139.6,2960.3 7107.92,2960.3C7076.94,2960.3 7052.59,2969.98 7034.46,2988.2C7016.54,3006.21 7006.66,3031.27 7006.32,3063.92C7006.26,3069.48 7008.43,3074.84 7012.35,3078.79C7016.26,3082.75 7021.59,3084.97 7027.15,3084.97L7084.73,3084.97C7096.03,3084.97 7105.27,3075.97 7105.56,3064.67C7105.68,3059.7 7106.21,3055.51 7107.88,3052.27ZM7073.54,3252.53C7073.54,3243.31 7076.49,3235.78 7082.39,3229.95C7088.29,3224.12 7095.78,3221.2 7104.87,3221.2C7114.23,3221.2 7121.82,3224.15 7127.66,3230.05C7133.49,3235.95 7136.41,3243.44 7136.41,3252.53C7136.41,3261.48 7133.56,3268.94 7127.86,3274.91C7122.16,3280.88 7114.5,3283.86 7104.87,3283.86C7095.38,3283.86 7087.78,3280.88 7082.09,3274.91C7076.39,3268.94 7073.54,3261.48 7073.54,3252.53ZM7078.83,3190.28C7078.83,3171.29 7080.69,3156.2 7084.42,3145.01C7088.15,3133.82 7094.83,3123.14 7104.46,3112.97C7114.64,3101.71 7121.42,3092.48 7124.81,3085.3C7128.2,3078.11 7129.9,3070.85 7129.9,3063.53C7129.9,3040.88 7122.57,3029.55 7107.92,3029.55C7101.41,3029.55 7095.99,3032.67 7091.65,3038.91C7087.31,3045.15 7085,3053.56 7084.73,3064.14L7027.15,3064.14C7027.42,3037.82 7034.78,3017.41 7049.23,3002.9C7063.67,2988.39 7083.24,2981.13 7107.92,2981.13C7133.15,2981.13 7152.75,2988.15 7166.72,3002.19C7180.69,3016.22 7187.68,3035.86 7187.68,3061.09C7187.68,3081.97 7179.06,3102.45 7161.84,3122.53L7144.95,3141.65C7139.39,3148.3 7135.46,3155.18 7133.15,3162.3C7130.85,3169.42 7129.56,3178.75 7129.28,3190.28L7078.83,3190.28Z"/>
        </g>
        <g transform="matrix(0.818356,0,0,0.818356,858.694,1520.5)">
            <path d="M5932.23,2883.69L6275.81,2883.69" style="fill:none;stroke:black;stroke-width:25.46px;"/>
            <path d="M6218.98,2627.49L6235.58,2644.47L6142.98,2736.03" style="fill:none;stroke:black;stroke-width:25.46px;"/>
            <path d="M6177.62,2585.49L6218.98,2627.49C6266.93,2583.38 6212.98,2549.64 6177.62,2585.49Z" style="fill:none;stroke:black;stroke-width:25.46px;"/>
            <path d="M5958.25,2804.98L6177.62,2585.49L6218.98,2627.49L6001.34,2844.78" style="fill:none;stroke:black;stroke-width:25.46px;"/>
            <path d="M5944.23,2859.27L5958.25,2804.98L6001.34,2844.78L5944.23,2859.27Z" style="fill:none;stroke:black;stroke-width:25.46px;"/>
        </g>
        <path d="M6631.5,3334.53L6510.48,3404.4L6510.48,3826.27L6752.51,3961.81L6873.53,3891.94L6873.53,3752.2L6752.51,3682.33L6752.51,3404.4L6631.5,3334.53Z" style="fill:none;stroke:black;stroke-width:20.83px;"/>
        <g transform="matrix(1,0,0,1,2686.41,0)">
            <path d="M6631.5,3334.53L6510.48,3404.4L6510.48,3826.27L6752.51,3961.81L6873.53,3891.94L6873.53,3752.2L6752.51,3682.33L6752.51,3404.4L6631.5,3334.53Z" style="fill:none;stroke:black;stroke-width:20.83px;"/>
        </g>
    </g>
</svg>
