<?xml version="1.0" encoding="UTF-8" standalone="no"?>
<!DOCTYPE svg PUBLIC "-//W3C//DTD SVG 1.1//EN" "http://www.w3.org/Graphics/SVG/1.1/DTD/svg11.dtd">
<svg width="100%" height="100%" viewBox="0 0 800 800" version="1.1" xmlns="http://www.w3.org/2000/svg" xmlns:xlink="http://www.w3.org/1999/xlink" xml:space="preserve" xmlns:serif="http://www.serif.com/" style="fill-rule:evenodd;clip-rule:evenodd;stroke-linecap:round;stroke-linejoin:round;stroke-miterlimit:1.5;">
    <rect id="background" x="0" y="0" width="800" height="800"/>
    <g id="rural_hub_sweden-" serif:id="rural_hub_sweden " transform="matrix(0.42515,0,0,0.42515,-271.474,-136.979)">
        <path d="M1267.62,1659.45L1271.48,1681.82L1276.2,1701.49L1276.96,1708.69L1274.89,1709.91L1272.53,1712.59L1273.37,1717.42L1278.28,1715.66C1278.28,1715.66 1283.2,1718.14 1283.26,1719.77C1283.32,1721.39 1285.59,1725.67 1285.59,1725.67L1283.43,1730.49L1282.53,1736.45L1285.36,1739.71L1287.59,1741.98L1289.9,1737.8L1293.51,1738.85L1298.22,1739.93L1299.8,1737.97C1299.8,1737.97 1303.87,1741.97 1301.96,1742.14C1300.05,1742.3 1295.49,1742.58 1295.49,1742.58L1292.71,1744.36L1287.91,1744.37L1287.47,1749.37L1291.77,1753.57C1291.77,1753.57 1294.49,1750.64 1295.86,1749.08C1297.24,1747.52 1298.55,1744.39 1298.55,1744.39L1301.07,1744.95L1302.35,1755.02L1299.87,1756.64L1295.99,1759.73L1296.42,1766.28L1301.28,1768.28L1299.48,1772L1298.05,1776.3L1300.26,1778.56L1303.7,1780.13L1306.26,1786.14C1306.26,1786.14 1305.84,1789.34 1305.45,1792.03C1305.06,1794.71 1307.95,1794.01 1307.95,1794.01L1306.86,1799.31L1306.49,1804.86L1310.38,1805.58L1313.02,1802.09L1313.3,1798.68L1316.41,1801.93L1316.05,1809.13L1316.14,1813.01L1313.81,1814.83L1317.11,1820.62L1320.37,1824.33L1323.68,1831.86L1324.47,1835.8L1327.19,1836.6L1327.68,1843.8L1331.11,1846.89L1334.31,1849.1L1340.45,1856.12L1341.2,1862.96L1347.79,1868.96L1350.69,1867.83L1353.79,1876.93L1353.41,1884.17L1352.9,1887.58L1348.42,1886.31L1344.6,1884.92L1340.46,1888.04L1340.68,1891.1L1345.57,1895.75L1348.18,1898.32L1349.72,1902.66L1347.79,1905.64L1342.71,1903.53L1338.53,1900.21L1335.57,1901.23L1335.82,1908.18L1337.62,1911.09L1341.96,1916.43L1342.24,1919.72L1343.31,1923.1L1346.43,1927.1L1349.12,1932.32C1349.12,1932.32 1349.8,1935.14 1350.3,1936.32C1350.79,1937.49 1355.38,1942.72 1355.38,1942.72L1359,1947.29L1361.45,1953.18L1357.83,1957L1354.05,1962.29L1354.33,1966.76L1356.77,1969.08L1357.52,1973.69L1352.14,1973.84L1349.76,1977.39L1357.38,1975.7C1357.38,1975.7 1360.65,1976.64 1361.82,1977.45C1362.99,1978.26 1364.62,1979.79 1366.68,1979.96C1368.76,1980.13 1376.19,1981.36 1377.16,1981.17C1378.13,1980.98 1384.31,1978.6 1385.55,1977.43C1386.79,1976.27 1387.58,1975.56 1389.47,1974.59C1391.36,1973.61 1395.04,1972.19 1395.04,1972.19L1399.11,1973.75L1404.02,1972.59L1408.81,1975.89L1414.27,1978.06C1414.27,1978.06 1416.26,1976.13 1418.02,1973.4C1419.79,1970.67 1424.68,1963.02 1424.68,1963.02L1420.62,1956.72L1418.6,1952.05L1416.39,1949.89L1415.72,1937.64L1420.32,1932.58C1420.32,1932.58 1423.48,1929.15 1424.41,1927.4C1425.34,1925.65 1426.8,1923.35 1426.8,1923.35L1424.27,1921.09L1423.47,1915.02L1424.29,1911.63L1427.82,1911.44L1431.2,1915.08L1433.58,1921.1L1436.61,1924.61L1440.78,1923.78L1441,1920.31L1439.21,1915.18L1442.19,1913.37L1442.1,1911.04L1447.7,1910.22C1447.7,1910.22 1452.43,1910.71 1453.14,1911.33C1453.84,1911.96 1459.1,1911.65 1459.1,1911.65L1462.68,1910.1L1467.79,1909.77L1469.68,1912.72L1471.35,1913.39L1474.75,1911.82L1479.31,1909.43L1484.91,1908.58L1488.67,1910.09L1489.63,1912.88L1488.07,1914.39L1483.54,1912.71L1483.65,1915.62L1486.03,1918.28L1489.35,1917.75L1490.79,1915.54L1493.1,1917.78L1495.95,1917.39L1496.76,1913.16L1500.06,1908.7L1503.39,1905.92L1504.72,1900.6L1505,1888.35L1508.61,1884.55L1511.25,1879.73L1512.89,1872.07L1514.07,1867.87L1518.59,1867.68L1520.51,1859.3L1521.33,1854.59L1522.32,1849.9L1523.9,1838.28L1527.95,1834.5C1527.95,1834.5 1529.23,1833.43 1529.19,1832.27C1529.15,1831.12 1525.18,1824.55 1525.18,1824.55L1522.93,1818.41L1524.75,1814.48L1530.39,1806.03L1534.69,1799.97L1535.08,1793.11L1532.77,1790.24L1535.12,1787.46L1531.89,1782.36L1531.05,1779.6L1535.59,1779.33L1536.05,1770.34L1534.02,1768.39L1537.77,1767.38L1537.41,1763.42L1534.69,1764.2L1532.1,1767.17L1529,1764.01L1529.14,1760.85L1532.45,1760.13L1534.93,1758.23L1538.73,1759.21L1538.8,1760.95L1540.04,1755.12L1539.06,1747.59L1537.59,1744.55L1540.06,1743.52L1537.66,1740.65L1540.38,1737.58L1542.38,1737.11L1541.99,1731.75L1540.57,1728.43L1538.3,1726.05L1543.67,1724.97L1546.02,1725.02L1542.94,1722.11L1545.62,1721.11L1545.28,1716.32L1542.96,1713.84L1539.84,1714.78L1538.33,1716.91L1535.5,1714.65L1541.68,1710.33L1546.97,1704.01L1545.7,1702.05L1539.22,1695.99L1533.09,1694.18L1527.53,1692.75L1518.92,1693.05L1511.51,1693.76L1504.85,1697.22L1498.42,1695.87L1496.28,1694.38L1496.87,1689.71L1498.97,1687.36L1503,1688.64L1505.24,1693.15C1505.24,1693.15 1511.45,1690.09 1512.33,1690.07C1513.21,1690.05 1525.78,1689.33 1525.78,1689.33L1532.33,1689.07L1540.56,1692.35C1540.56,1692.35 1543.32,1693.51 1544.54,1693.58C1545.76,1693.65 1552.91,1690.27 1552.91,1690.27L1556.39,1686.82L1556.43,1682.65L1560.91,1683.16L1565.05,1680.98L1570.24,1676.86L1574.3,1670.13L1579.01,1663.69L1582.43,1664.55L1583.55,1656.33L1580.4,1651.03L1579.52,1648.68L1581.39,1646.25L1584.82,1648.62C1584.82,1648.62 1586.51,1651.27 1586.51,1652.26C1586.51,1653.25 1586.55,1660.11 1586.42,1661.06C1586.28,1662 1586.37,1667.65 1586.37,1667.65L1590.31,1666.59L1589.57,1670.36L1588.07,1672.53L1588.58,1676.12L1590.89,1677.07L1593.83,1672.35L1592.37,1668.27L1594.4,1665.66L1606.33,1656.29L1599.89,1655.14L1600.03,1652.76L1604.92,1649.61L1606.81,1650.63L1609.36,1651.68L1611.29,1650.12L1612.08,1647.32L1617.95,1644.81L1617.53,1640.08L1612.45,1633.81L1616.32,1633.31L1617.69,1635.15L1620.76,1637.15L1626.77,1635.16L1629.27,1631.12L1627.61,1625.65L1630.74,1627.47L1632.28,1624.97L1626.06,1622.05L1623.02,1619.8L1620.28,1618.79L1618.96,1624.75L1617.14,1626.2L1616.44,1620.32L1612.06,1617.59L1613.45,1613.98L1618.23,1611.3L1621.93,1610.96L1622.99,1615.3L1628.05,1613.68L1629.54,1615.28L1632.21,1614.56L1633.96,1610.13L1636.92,1616.61L1639.5,1621.96L1642.7,1623.62L1642.1,1619.58L1639.13,1615.15L1636.39,1610.34L1632.8,1606.31L1628.81,1606.37L1626.07,1609.4L1622.55,1608.22L1624,1604.61L1628.79,1602.55L1632.01,1599.1L1631.96,1596.28L1640.3,1594.91L1643.09,1593.41L1649.1,1590.11C1649.1,1590.11 1648.81,1589.22 1648.01,1586.93C1647.2,1584.65 1644.85,1582.03 1644.85,1582.03L1645.04,1578.25L1647.81,1579.39L1648.28,1573.93L1643.94,1570.13L1640.3,1568.89L1635.58,1553.85L1635.92,1547.29L1632.16,1541.84L1629.54,1542.49L1631.63,1546.54L1632.77,1551.32L1629.36,1548.81L1623.79,1547.28L1619.27,1546.64L1622.22,1543.06L1626.02,1540.77L1628.66,1537.5L1623.84,1534.4L1625.65,1530.11L1621.43,1526.74L1620.09,1521.48L1619.29,1515.79L1615.71,1515.05L1616.1,1521.73L1617.79,1524.49L1617.24,1529.62L1607.93,1528.78L1598.38,1513.35L1597.78,1508.38L1598.24,1506.32L1591.73,1505.2L1588.52,1507.75L1584.65,1510.12L1577.93,1510.53L1578.29,1504L1582.7,1503.5L1579.79,1500.29L1565.74,1499.74L1563.61,1495.94L1559.76,1495.82L1562.35,1493.69L1566.49,1491.84L1566.14,1485.43L1563.04,1482L1559.43,1474.83L1556.5,1476.95L1554.34,1476.89L1556.23,1473.39L1557.18,1470.62L1560.8,1466.25L1558.1,1463.82L1558.72,1452.14L1555.72,1448.79L1558.46,1440.48L1561.41,1435.37L1555.5,1430.58L1555.07,1424.93L1560.43,1424.24L1556.54,1422.15L1558.78,1419.85L1557.49,1417.79L1554.38,1413.63L1554.17,1408.12L1555.67,1407.87L1556.67,1403.44L1560.52,1401.23L1559.43,1397.45L1556.52,1395.13L1558.65,1393.4L1563.65,1397.37L1564.18,1399.43L1569.12,1399.91L1570.33,1402.46L1572.42,1404.11L1574.09,1394.32L1571.74,1392.74L1567.16,1392.04L1569.99,1385.81L1565.82,1384.7L1565.13,1380.49L1568.91,1379.51L1566.37,1373.56L1566.86,1370.28L1569.1,1369.33L1571.74,1365.22L1571.65,1353.36L1574.76,1348.22L1580.16,1345.27L1580.31,1340.97L1573.87,1339.98L1571.52,1335.33L1570.07,1331.65L1570.76,1327.93L1574.06,1327.86L1574.87,1324.95L1571.42,1319.69L1570.76,1317.05L1567.56,1317.01L1568.22,1314.74L1571.48,1313.56L1573.6,1314.51L1574.45,1317.94L1578.96,1321.46L1584.01,1325.89L1585.1,1322.46L1581.67,1319.15L1582.96,1315.26L1587.01,1313.82L1590.62,1315.2L1592.29,1307.44L1597.98,1307.62L1600.36,1300.82L1596.25,1298.66L1597.61,1286.58L1605.63,1280.63L1616.38,1274.23L1616.52,1262.97L1612.12,1260.3L1622.65,1254.41L1623.61,1258.32L1625.45,1245.79L1632.5,1242.53L1638.11,1240.16L1637.82,1236.06L1642.58,1234.3L1644.57,1240.16L1648.27,1240.16L1651.16,1235.17L1653.19,1228.27L1658.36,1226.7L1659.07,1212.5L1665.12,1213.48L1667.22,1216.77L1669.67,1213.84L1665.12,1206.62L1667.52,1203.04L1674.39,1207.78L1676.41,1214.62L1680.69,1216.39L1683.29,1212.61L1681.7,1207.66L1683.82,1202.2L1689.78,1197.71L1693.93,1192.52L1705.19,1192.85L1710.51,1188.16L1716.97,1177.51L1719.99,1180.88L1725.58,1171.73L1732.36,1165.13L1731.33,1159.08L1738.14,1155.51L1740.02,1134.59L1746.03,1130.53L1758.36,1121.23L1765.88,1110.14L1768.89,1105.72L1762.26,1101.38L1765.17,1097.05L1760.1,1090.8L1751.34,1088.22L1753.94,1073.14L1753.94,1070.3L1746.27,1068.77L1742.55,1063.08L1740.7,1059.55L1746.32,1062.89L1748.95,1057.86L1750.78,1052.47L1753.94,1049.34L1758.87,1048.28L1758.88,1040.73L1765.91,1041.83L1767.65,1030.17L1764.26,1018.06L1769.71,1017.18L1774.91,1020.88L1779.45,1020.52L1772.71,1013.75L1771.33,1007.67L1766.4,1005.72L1762.77,1010.31L1756.73,1005.98L1766.11,1001.21L1774.79,1001.15L1781.6,998.228L1789.16,997.161L1788.8,991.227L1785.88,985.79L1792.93,987.479L1797.17,982.811L1780.11,968.377L1782.37,966.876L1799.77,981.539L1805.83,981.094L1804.61,971.565L1804.87,953.396L1805.24,946.855L1810.7,946.239L1813.84,950.877L1820.68,954.128L1821.6,948.154L1818.5,938.804L1824.12,941.613L1828.29,947.579L1827.71,951.074L1833.62,955.317L1839.99,960.084L1848.31,956.846L1849.7,952.47L1853.51,951.928L1857.01,954.695L1860.61,951.393L1866.06,952.559L1873.24,950.45L1876.81,954.445L1882.65,954.619L1887.49,951.069L1891.14,951.599L1890.84,942.319L1886.06,930.079L1880.35,919.489L1877.68,910.5L1872.12,904.244L1867.76,899.262L1868.16,887.213L1872.26,869.953L1877.3,863.394L1878.66,854.93L1879.39,835.253L1885.1,832.266L1876.17,813.005L1863.92,787.47L1864.79,775.127L1872.23,771.172L1871.05,753.703L1862.33,751.107L1855.76,747.398L1863.12,732.254L1860.3,721.125L1862.14,704.66L1866.08,695.035L1868.69,692.075L1851.69,664.889L1842.21,664.26L1842.81,651.769L1819.7,627.635L1807.28,626.454L1801.52,621.668L1788.89,621.893L1783.95,610.174L1774.43,607.665L1773.42,601.101L1760.73,593.063L1760.41,586.15L1753.94,583.906L1742.28,569.864L1733.66,567.129L1735.1,558.982L1737.44,555.456L1728.51,548.903L1722.47,546.425L1711.99,544.885L1696.08,547.958L1703.59,558.336L1707.05,565.786L1706.63,581.48L1706.35,590.86L1701.58,599.574L1693.78,605.389L1690.21,611.762L1699.85,619.116L1703.19,621.16L1696.19,629.656L1688.42,636.407L1643.77,617.027L1627.84,618.284L1617.68,609.145L1603.76,617.083L1603.66,661.964L1591.72,687.429L1563.28,669.356L1557.58,677.304L1545.86,687.02L1538.07,694.139L1534.94,704.349L1523.2,740.102L1515.04,743.465L1509.12,745.26L1507.32,755.659L1512.34,768.23L1518.94,775.18L1520.97,790.212L1519.78,799.436L1519.74,807.501L1503.7,819.849L1497.81,828.936L1490.91,843.994L1480.02,864.028L1473.89,867.256L1470.35,871.215L1476.13,895.892L1457.16,909.935L1448.74,912.313L1432.47,912.863L1431.91,926.2L1433.05,933.465L1433.74,948.989L1433.31,961.236L1430.35,967.541L1430.86,1009.49L1426.45,1014.04L1422.11,1019.3L1422.69,1029.74L1390.05,1091.73L1410.98,1105.07L1413.43,1135.9L1407.66,1144.74L1405.23,1154.64L1369.8,1145.33L1356.09,1149.5L1350.15,1153.06L1343.55,1161.53L1336.03,1172.9L1329.01,1181.52L1318.05,1200.28L1317.83,1205.69L1321.7,1205.82L1320.26,1215.5L1314.07,1224.77L1310.29,1234.25L1322.02,1263.73L1315.91,1273.81L1314.39,1281.68L1316.74,1290.97L1315.57,1298.07L1312.12,1310.38L1321.01,1329.87L1324.01,1337.78L1322.86,1349.64L1318.89,1375.34L1316.64,1396L1327.82,1404.74L1333,1410.37L1339.08,1409.52L1341.67,1416.06L1351.61,1429.39L1349.72,1446.41L1344.12,1457.31L1336.01,1462.14L1321.67,1463.61L1337.88,1511.3L1338.89,1524.7L1334.8,1534.02L1335.16,1540.95L1336.75,1544.96L1334.37,1552.29L1319.46,1573.12L1307.16,1574.05L1302.92,1578.33L1308.13,1582.78L1307.63,1588.01L1306.73,1595.19L1296.13,1601.95L1298.38,1615.92L1299.95,1619.62L1300.9,1627.13L1299.89,1640.66L1297.52,1650.17L1295.49,1664.14L1284.31,1667.37L1283.31,1654.36L1278.91,1646.04L1271.6,1648.1L1267.72,1654.11L1267.62,1659.45Z" style="fill:none;stroke:white;stroke-width:3.53px;"/>
        <g transform="matrix(1,0,0,1,-0.777393,-0.712265)">
            <path d="M1522.11,1906.4L1521.4,1873L1525.17,1870.09L1527.78,1860.08L1531.24,1850.47L1538.59,1846.68L1539.08,1839.38L1543.61,1829.39L1547.47,1818.74L1549.49,1808.4L1556.92,1808.92L1555.73,1808.84L1552.49,1819.48L1553.88,1827.45L1548.05,1835.28L1545.19,1846.38L1538.55,1861.35L1535.75,1867.86L1532.21,1883.25L1527.78,1894.81L1524.7,1902.75L1522.11,1906.4Z" style="fill:none;stroke:white;stroke-width:3.53px;stroke-linecap:butt;stroke-linejoin:miter;"/>
        </g>
        <g transform="matrix(1,0,0,1,-0.777393,-0.712265)">
            <path d="M1607.75,1846.04L1604.83,1839.17L1610.04,1834.75L1610.87,1831.38L1606.92,1831.37L1604.88,1821.3L1601.91,1814.92L1604.85,1810.75L1607.51,1804.22L1603.1,1799.64L1603.32,1793.76L1605.02,1787.56L1613.15,1780.08L1618.19,1772.69L1617.85,1768.03L1623.49,1763.66L1627.94,1761.28L1630.46,1757.73L1634.44,1756.92L1634.52,1762.53L1638.74,1761.18L1638.9,1756.75L1645.65,1756.73L1648.93,1756.62L1650.78,1751L1656.08,1749.58L1660.07,1751.14L1657.16,1755.44L1653.55,1754.18L1653.76,1758.08L1652.59,1760.97L1648.22,1758.82L1646.57,1760.68L1650.17,1763.29L1647.69,1764.9L1644.8,1765.63L1645.39,1770.4L1643.22,1771.97L1640.51,1773.81L1636.9,1773.57L1636.33,1779.4L1633.65,1780.78L1634.89,1783.66L1637.18,1784.61L1633.23,1789L1634.19,1794.83L1635.2,1798.68L1641.51,1799.47L1640.45,1802.82L1636.12,1805.33L1631.05,1808.4L1629.94,1810.54L1630.62,1812.5L1633.06,1814.32L1629.9,1817.92L1623.53,1818.09L1620.15,1821.97L1617.38,1826.16L1617.57,1828.84L1613.72,1829.78L1613.85,1833.62L1613.83,1838.2L1613.3,1842.8L1610.94,1845.3L1607.75,1846.04Z" style="fill:none;stroke:white;stroke-width:3.53px;stroke-linecap:butt;stroke-linejoin:miter;"/>
        </g>
    </g>
</svg>
