<?xml version="1.0" encoding="UTF-8"?>
<svg id="uuid-06998bed-bc75-49c4-8c24-566e4e59bb57" data-name="Layer 1" xmlns="http://www.w3.org/2000/svg" viewBox="0 0 995 427">
  <defs>
    <style>
      .uuid-f17a3f3e-2bd9-4ec4-8863-63ab28f36898 {
        stroke: #934b00;
      }

      .uuid-f17a3f3e-2bd9-4ec4-8863-63ab28f36898, .uuid-baedfb69-180a-4c1d-91d4-df04803280e8, .uuid-1a8269f9-8220-42cb-9631-fa1124d16653, .uuid-7d486291-31d1-44d9-81c1-04af136d4623, .uuid-3a2d9625-27a4-4ed8-9646-e9725d0ed07f, .uuid-1522dd63-3361-42e3-a445-a00e4ec7ca5d, .uuid-56b702a9-9223-4e0a-b276-711c01d8fb4d, .uuid-0b3c7b18-86f8-4b12-8afb-d97fcf0b3a01, .uuid-40bbffc9-8ecd-45bf-a318-555a34e1a597, .uuid-23d3d8c5-12df-45ba-88a7-e29933733f5f, .uuid-81b5517b-010a-41c6-a685-2776f791579e, .uuid-e7651922-1c6d-4118-b397-847f7d7dde13, .uuid-7665cbbd-d85d-4ca5-985a-165b01da7bd1, .uuid-4b489724-8f1d-4423-9caf-ac6f27f496b5, .uuid-2e0ed045-7821-47cc-aa68-f767e45478ce, .uuid-55db4c86-6e47-4aa8-8806-ca29dc37dc44, .uuid-ac6d74b9-30be-4b4c-9601-42049f53c0f7 {
        stroke-width: 2px;
      }

      .uuid-f17a3f3e-2bd9-4ec4-8863-63ab28f36898, .uuid-baedfb69-180a-4c1d-91d4-df04803280e8, .uuid-1a8269f9-8220-42cb-9631-fa1124d16653, .uuid-7d486291-31d1-44d9-81c1-04af136d4623, .uuid-56b702a9-9223-4e0a-b276-711c01d8fb4d, .uuid-227c0af1-0a76-4131-8118-fe3df83e5a0e, .uuid-0b3c7b18-86f8-4b12-8afb-d97fcf0b3a01, .uuid-40bbffc9-8ecd-45bf-a318-555a34e1a597, .uuid-a019889b-62c5-4546-a11b-17bd768d1822, .uuid-23d3d8c5-12df-45ba-88a7-e29933733f5f, .uuid-81b5517b-010a-41c6-a685-2776f791579e, .uuid-4b489724-8f1d-4423-9caf-ac6f27f496b5, .uuid-2e89e7d4-ae83-4753-ab20-d74067db2c3a, .uuid-ac6d74b9-30be-4b4c-9601-42049f53c0f7 {
        stroke-linecap: round;
      }

      .uuid-f17a3f3e-2bd9-4ec4-8863-63ab28f36898, .uuid-baedfb69-180a-4c1d-91d4-df04803280e8, .uuid-7d486291-31d1-44d9-81c1-04af136d4623, .uuid-1522dd63-3361-42e3-a445-a00e4ec7ca5d, .uuid-56b702a9-9223-4e0a-b276-711c01d8fb4d, .uuid-227c0af1-0a76-4131-8118-fe3df83e5a0e, .uuid-0b3c7b18-86f8-4b12-8afb-d97fcf0b3a01, .uuid-40bbffc9-8ecd-45bf-a318-555a34e1a597, .uuid-81b5517b-010a-41c6-a685-2776f791579e, .uuid-7665cbbd-d85d-4ca5-985a-165b01da7bd1, .uuid-2e89e7d4-ae83-4753-ab20-d74067db2c3a, .uuid-ac6d74b9-30be-4b4c-9601-42049f53c0f7 {
        fill: none;
      }

      .uuid-f17a3f3e-2bd9-4ec4-8863-63ab28f36898, .uuid-1a8269f9-8220-42cb-9631-fa1124d16653, .uuid-7d486291-31d1-44d9-81c1-04af136d4623, .uuid-56b702a9-9223-4e0a-b276-711c01d8fb4d, .uuid-227c0af1-0a76-4131-8118-fe3df83e5a0e, .uuid-40bbffc9-8ecd-45bf-a318-555a34e1a597, .uuid-a019889b-62c5-4546-a11b-17bd768d1822, .uuid-23d3d8c5-12df-45ba-88a7-e29933733f5f, .uuid-81b5517b-010a-41c6-a685-2776f791579e, .uuid-4b489724-8f1d-4423-9caf-ac6f27f496b5, .uuid-2e89e7d4-ae83-4753-ab20-d74067db2c3a, .uuid-ac6d74b9-30be-4b4c-9601-42049f53c0f7 {
        stroke-linejoin: round;
      }

      .uuid-baedfb69-180a-4c1d-91d4-df04803280e8 {
        stroke-dasharray: 2 4 0 0;
      }

      .uuid-baedfb69-180a-4c1d-91d4-df04803280e8, .uuid-0b3c7b18-86f8-4b12-8afb-d97fcf0b3a01, .uuid-ac6d74b9-30be-4b4c-9601-42049f53c0f7 {
        stroke: #d9d9d9;
      }

      .uuid-1a8269f9-8220-42cb-9631-fa1124d16653, .uuid-56b702a9-9223-4e0a-b276-711c01d8fb4d, .uuid-227c0af1-0a76-4131-8118-fe3df83e5a0e, .uuid-a019889b-62c5-4546-a11b-17bd768d1822, .uuid-23d3d8c5-12df-45ba-88a7-e29933733f5f, .uuid-4b489724-8f1d-4423-9caf-ac6f27f496b5, .uuid-2e89e7d4-ae83-4753-ab20-d74067db2c3a, .uuid-55db4c86-6e47-4aa8-8806-ca29dc37dc44 {
        stroke: #000;
      }

      .uuid-1a8269f9-8220-42cb-9631-fa1124d16653, .uuid-e4804509-a69f-48ed-a0da-a6ebed5cbef2 {
        fill: #fff;
      }

      .uuid-7d486291-31d1-44d9-81c1-04af136d4623 {
        stroke: #231f20;
      }

      .uuid-3a2d9625-27a4-4ed8-9646-e9725d0ed07f {
        stroke: #ff8200;
      }

      .uuid-3a2d9625-27a4-4ed8-9646-e9725d0ed07f, .uuid-81ba34bf-9838-4d2d-9ab8-a725bbc3ee29, .uuid-1889927c-06ca-41a1-a9d1-86de259eeb74 {
        fill: #ff8200;
      }

      .uuid-dad9ce10-0b1d-4b1f-a25a-cbd4d1a326d8 {
        fill: #d9d9d9;
      }

      .uuid-1522dd63-3361-42e3-a445-a00e4ec7ca5d {
        stroke: #934b00;
      }

      .uuid-1522dd63-3361-42e3-a445-a00e4ec7ca5d, .uuid-7665cbbd-d85d-4ca5-985a-165b01da7bd1 {
        stroke-miterlimit: 10;
      }

      .uuid-3efd1ca5-a5ea-4a21-a534-302aaaf3511d, .uuid-e9eb2a92-3e15-437a-9ba1-52bafaf4ebd0, .uuid-cf0c854c-9613-4aa3-b0b2-f675b7f14684, .uuid-3e6e22b5-f49c-4aad-89d2-21491f60cbca, .uuid-55db4c86-6e47-4aa8-8806-ca29dc37dc44, .uuid-81ba34bf-9838-4d2d-9ab8-a725bbc3ee29 {
        fill-rule: evenodd;
      }

      .uuid-3efd1ca5-a5ea-4a21-a534-302aaaf3511d, .uuid-2e0ed045-7821-47cc-aa68-f767e45478ce, .uuid-29160e3a-f29d-4306-97b5-a921cdd42782 {
        fill: #00a517;
      }

      .uuid-e9eb2a92-3e15-437a-9ba1-52bafaf4ebd0, .uuid-57612e57-8967-45cb-9b58-f699da2653b7 {
        fill: #934b00;
      }

      .uuid-44e6178c-455d-407c-8393-e4790d855e4e {
        font-size: 15px;
      }

      .uuid-44e6178c-455d-407c-8393-e4790d855e4e, .uuid-addea4c0-3d99-488f-a36e-a41c38b6462b, .uuid-bfa84b3f-649e-4daf-a77f-0d1502f15050, .uuid-f8050985-8fea-479f-b9a1-2a9109fa81a2 {
        font-family: ArialMT, Arial;
      }

      .uuid-3d39d887-256e-4d4c-8ce5-69aef03f7a60 {
        letter-spacing: .26em;
      }

      .uuid-fa7e54d4-cdb2-4510-8c0f-62fc5facc912 {
        letter-spacing: .2601em;
      }

      .uuid-bc4a7f9f-3087-4963-94cf-375ddd73ab23 {
        letter-spacing: .26em;
      }

      .uuid-0f25e8d6-22f9-428d-ab03-70211d71c508 {
        letter-spacing: .26em;
      }

      .uuid-addea4c0-3d99-488f-a36e-a41c38b6462b, .uuid-f8050985-8fea-479f-b9a1-2a9109fa81a2 {
        font-size: 13px;
      }

      .uuid-bfa84b3f-649e-4daf-a77f-0d1502f15050 {
        font-size: 11px;
      }

      .uuid-40bbffc9-8ecd-45bf-a318-555a34e1a597 {
        stroke: #fff;
      }

      .uuid-a019889b-62c5-4546-a11b-17bd768d1822, .uuid-24105483-92df-4385-9f0d-00120399072d, .uuid-55db4c86-6e47-4aa8-8806-ca29dc37dc44 {
        fill: #f5f5f5;
      }

      .uuid-81b5517b-010a-41c6-a685-2776f791579e, .uuid-7665cbbd-d85d-4ca5-985a-165b01da7bd1, .uuid-2e0ed045-7821-47cc-aa68-f767e45478ce {
        stroke: #00a517;
      }

      .uuid-903b6e50-6d30-4757-824c-d021e4a98263 {
        letter-spacing: 0em;
      }

      .uuid-e7651922-1c6d-4118-b397-847f7d7dde13 {
        stroke: #2b6234;
      }

      .uuid-e7651922-1c6d-4118-b397-847f7d7dde13, .uuid-8a925ffd-31fd-4093-90e5-a1b50ee7d286, .uuid-3e6e22b5-f49c-4aad-89d2-21491f60cbca {
        fill: #2b6234;
      }

      .uuid-4b489724-8f1d-4423-9caf-ac6f27f496b5 {
        fill: #020202;
      }

      .uuid-2e89e7d4-ae83-4753-ab20-d74067db2c3a {
        stroke-width: 1.5px;
      }

      .uuid-f8050985-8fea-479f-b9a1-2a9109fa81a2 {
        fill: #bfbfbf;
      }
    </style>
  </defs>
  <g>
    <rect class="uuid-e4804509-a69f-48ed-a0da-a6ebed5cbef2" x="40.0949" y="52.3641" width="282.0293" height="334.5676" rx="10" ry="10"/>
    <rect class="uuid-e4804509-a69f-48ed-a0da-a6ebed5cbef2" x="366.9505" y="52.3641" width="282.0293" height="334.5676" rx="10" ry="10"/>
    <rect class="uuid-e4804509-a69f-48ed-a0da-a6ebed5cbef2" x="694.1456" y="52.3641" width="282.0293" height="334.5676" rx="10" ry="10"/>
  </g>
  <text class="uuid-44e6178c-455d-407c-8393-e4790d855e4e" transform="translate(785.6955 412.0125)"><tspan x="0" y="0">c) Spars</tspan><tspan class="uuid-0f25e8d6-22f9-428d-ab03-70211d71c508" x="55.8477" y="0">e</tspan><tspan x="68.0898" y="0">MoE</tspan></text>
  <text class="uuid-f8050985-8fea-479f-b9a1-2a9109fa81a2" transform="translate(682.6184 368.1482) rotate(-90)"><tspan x="0" y="0">Quer</tspan><tspan class="uuid-fa7e54d4-cdb2-4510-8c0f-62fc5facc912" x="28.9004" y="0">y</tspan><tspan x="38.7812" y="0">Experts</tspan></text>
  <text class="uuid-f8050985-8fea-479f-b9a1-2a9109fa81a2" transform="translate(682.6184 259.5857) rotate(-90)"><tspan x="0" y="0">Mini-batch</tspan></text>
  <text class="uuid-f8050985-8fea-479f-b9a1-2a9109fa81a2" transform="translate(682.6184 178.5965) rotate(-90)"><tspan x="0" y="0">Quer</tspan><tspan class="uuid-bc4a7f9f-3087-4963-94cf-375ddd73ab23" x="28.9014" y="0">y</tspan><tspan class="uuid-903b6e50-6d30-4757-824c-d021e4a98263" x="38.7812" y="0">Gate</tspan></text>
  <path class="uuid-baedfb69-180a-4c1d-91d4-df04803280e8" d="M782.3469,218.975v5.7655c0,1.0613-1.9746,1.9219-4.4101,1.9219h-44.1007c-2.4355,0-4.4101.8605-4.4101,1.9218v5.7655"/>
  <path class="uuid-baedfb69-180a-4c1d-91d4-df04803280e8" d="M888.1886,218.975v5.7655c0,1.0613,1.9746,1.9219,4.4101,1.9219h44.1007c2.4355,0,4.4101.8605,4.4101,1.9218v5.7655"/>
  <path class="uuid-baedfb69-180a-4c1d-91d4-df04803280e8" d="M852.908,218.975v5.7655c0,1.0613,1.9746,1.9219,4.4101,1.9219h8.8201c2.4354,0,4.4101.8605,4.4101,1.9218v5.7655"/>
  <path class="uuid-baedfb69-180a-4c1d-91d4-df04803280e8" d="M817.6275,218.975v5.7655c0,1.0613-1.9746,1.9219-4.4101,1.9219h-8.8201c-2.4354,0-4.4101.8605-4.4101,1.9218v5.7655"/>
  <line class="uuid-0b3c7b18-86f8-4b12-8afb-d97fcf0b3a01" x1="799.9872" y1="251.99" x2="799.9872" y2="266.766"/>
  <polyline class="uuid-0b3c7b18-86f8-4b12-8afb-d97fcf0b3a01" points="804.3973 260.9223 799.9872 267.9784 795.5771 260.9223"/>
  <line class="uuid-0b3c7b18-86f8-4b12-8afb-d97fcf0b3a01" x1="835.1575" y1="101.9435" x2="835.1575" y2="116.7194"/>
  <polyline class="uuid-0b3c7b18-86f8-4b12-8afb-d97fcf0b3a01" points="839.5675 110.8758 835.1575 117.9319 830.7474 110.8758"/>
  <line class="uuid-0b3c7b18-86f8-4b12-8afb-d97fcf0b3a01" x1="835.1575" y1="176.5262" x2="835.1575" y2="191.3021"/>
  <line class="uuid-0b3c7b18-86f8-4b12-8afb-d97fcf0b3a01" x1="870.7596" y1="327.8403" x2="870.7596" y2="345.4806"/>
  <line class="uuid-0b3c7b18-86f8-4b12-8afb-d97fcf0b3a01" x1="941.1094" y1="327.8403" x2="941.1094" y2="345.4806"/>
  <line class="uuid-0b3c7b18-86f8-4b12-8afb-d97fcf0b3a01" x1="799.9872" y1="327.8403" x2="799.9872" y2="345.4806"/>
  <line class="uuid-0b3c7b18-86f8-4b12-8afb-d97fcf0b3a01" x1="729.4261" y1="327.8403" x2="729.4261" y2="345.4806"/>
  <line class="uuid-0b3c7b18-86f8-4b12-8afb-d97fcf0b3a01" x1="508.0821" y1="336.6605" x2="508.0821" y2="345.4806"/>
  <polyline class="uuid-0b3c7b18-86f8-4b12-8afb-d97fcf0b3a01" points="839.5675 185.4585 835.1575 192.5146 830.7474 185.4585"/>
  <line class="uuid-0b3c7b18-86f8-4b12-8afb-d97fcf0b3a01" x1="870.5483" y1="251.99" x2="870.5483" y2="266.766"/>
  <polyline class="uuid-0b3c7b18-86f8-4b12-8afb-d97fcf0b3a01" points="874.9583 260.9223 870.5483 267.9784 866.1382 260.9223"/>
  <line class="uuid-0b3c7b18-86f8-4b12-8afb-d97fcf0b3a01" x1="941.1094" y1="251.99" x2="941.1094" y2="266.766"/>
  <polyline class="uuid-0b3c7b18-86f8-4b12-8afb-d97fcf0b3a01" points="945.5194 260.9223 941.1094 267.9784 936.6993 260.9223"/>
  <line class="uuid-0b3c7b18-86f8-4b12-8afb-d97fcf0b3a01" x1="729.4261" y1="251.99" x2="729.4261" y2="266.766"/>
  <polyline class="uuid-0b3c7b18-86f8-4b12-8afb-d97fcf0b3a01" points="733.8362 260.9223 729.4261 267.9784 725.0161 260.9223"/>
  <text class="uuid-addea4c0-3d99-488f-a36e-a41c38b6462b" transform="translate(788.4192 72.7103)"><tspan x="0" y="0">Batc</tspan><tspan class="uuid-bc4a7f9f-3087-4963-94cf-375ddd73ab23" x="26.0127" y="0">h</tspan><tspan class="uuid-903b6e50-6d30-4757-824c-d021e4a98263" x="36.623" y="0">o</tspan><tspan class="uuid-fa7e54d4-cdb2-4510-8c0f-62fc5facc912" x="43.8525" y="0">f</tspan><tspan class="uuid-903b6e50-6d30-4757-824c-d021e4a98263" x="50.8447" y="0">queries</tspan></text>
  <rect class="uuid-24105483-92df-4385-9f0d-00120399072d" x="782.3469" y="234.3497" width="35.2805" height="17.6403" rx="3.5281" ry="3.5281"/>
  <rect class="uuid-227c0af1-0a76-4131-8118-fe3df83e5a0e" x="782.3469" y="234.3497" width="35.2805" height="17.6403" rx="3.5281" ry="3.5281"/>
  <rect class="uuid-24105483-92df-4385-9f0d-00120399072d" x="852.908" y="234.3497" width="35.2805" height="17.6403" rx="3.5281" ry="3.5281"/>
  <rect class="uuid-227c0af1-0a76-4131-8118-fe3df83e5a0e" x="852.908" y="234.3497" width="35.2805" height="17.6403" rx="3.5281" ry="3.5281"/>
  <rect class="uuid-24105483-92df-4385-9f0d-00120399072d" x="923.4691" y="234.3497" width="35.2805" height="17.6403" rx="3.5281" ry="3.5281"/>
  <rect class="uuid-227c0af1-0a76-4131-8118-fe3df83e5a0e" x="923.4691" y="234.3497" width="35.2805" height="17.6403" rx="3.5281" ry="3.5281"/>
  <rect class="uuid-24105483-92df-4385-9f0d-00120399072d" x="711.7858" y="234.3497" width="35.2805" height="17.6403" rx="3.5281" ry="3.5281"/>
  <rect class="uuid-227c0af1-0a76-4131-8118-fe3df83e5a0e" x="711.7858" y="234.3497" width="35.2805" height="17.6403" rx="3.5281" ry="3.5281"/>
  <line class="uuid-227c0af1-0a76-4131-8118-fe3df83e5a0e" x1="932.2892" y1="280.8753" x2="949.9295" y2="280.8753"/>
  <line class="uuid-227c0af1-0a76-4131-8118-fe3df83e5a0e" x1="923.4691" y1="298.5156" x2="958.7496" y2="298.5156"/>
  <circle class="uuid-8a925ffd-31fd-4093-90e5-a1b50ee7d286" cx="941.1094" cy="316.1559" r="2.8643"/>
  <path class="uuid-3e6e22b5-f49c-4aad-89d2-21491f60cbca" d="M938.98,316.1559c0-1.1753.954-2.1293,2.1293-2.1293s2.1293.954,2.1293,2.1293-.954,2.1293-2.1293,2.1293-2.1293-.954-2.1293-2.1293ZM938.245,316.1559c0-1.581,1.2833-2.8643,2.8644-2.8643s2.8643,1.2833,2.8643,2.8643-1.2833,2.8643-2.8643,2.8643-2.8644-1.2833-2.8644-2.8643Z"/>
  <circle class="uuid-8a925ffd-31fd-4093-90e5-a1b50ee7d286" cx="932.2892" cy="280.8753" r="2.8643"/>
  <path class="uuid-3e6e22b5-f49c-4aad-89d2-21491f60cbca" d="M930.1599,280.8753c0-1.1753.954-2.1293,2.1293-2.1293s2.1293.9541,2.1293,2.1293-.954,2.1293-2.1293,2.1293-2.1293-.954-2.1293-2.1293ZM929.4249,280.8753c0-1.581,1.2833-2.8643,2.8644-2.8643s2.8643,1.2833,2.8643,2.8643-1.2833,2.8643-2.8643,2.8643-2.8644-1.2833-2.8644-2.8643Z"/>
  <circle class="uuid-8a925ffd-31fd-4093-90e5-a1b50ee7d286" cx="949.9295" cy="280.8753" r="2.8643"/>
  <path class="uuid-3e6e22b5-f49c-4aad-89d2-21491f60cbca" d="M947.8002,280.8753c0-1.1753.9541-2.1293,2.1293-2.1293s2.1294.9541,2.1294,2.1293-.9541,2.1293-2.1294,2.1293-2.1293-.954-2.1293-2.1293ZM947.0652,280.8753c0-1.581,1.2833-2.8643,2.8643-2.8643s2.8644,1.2833,2.8644,2.8643-1.2833,2.8643-2.8644,2.8643-2.8643-1.2833-2.8643-2.8643Z"/>
  <circle class="uuid-8a925ffd-31fd-4093-90e5-a1b50ee7d286" cx="958.7496" cy="298.5156" r="2.8643"/>
  <path class="uuid-3e6e22b5-f49c-4aad-89d2-21491f60cbca" d="M956.6203,298.5156c0-1.1753.954-2.1293,2.1293-2.1293s2.1293.9541,2.1293,2.1293-.954,2.1293-2.1293,2.1293-2.1293-.9541-2.1293-2.1293ZM955.8853,298.5156c0-1.581,1.2833-2.8643,2.8643-2.8643s2.8644,1.2833,2.8644,2.8643-1.2833,2.8643-2.8644,2.8643-2.8643-1.2833-2.8643-2.8643Z"/>
  <circle class="uuid-8a925ffd-31fd-4093-90e5-a1b50ee7d286" cx="923.4691" cy="298.5156" r="2.8643"/>
  <path class="uuid-3e6e22b5-f49c-4aad-89d2-21491f60cbca" d="M921.3398,298.5156c0-1.1753.954-2.1293,2.1293-2.1293s2.1293.9541,2.1293,2.1293-.954,2.1293-2.1293,2.1293-2.1293-.9541-2.1293-2.1293ZM920.6047,298.5156c0-1.581,1.2833-2.8643,2.8644-2.8643s2.8644,1.2833,2.8644,2.8643-1.2833,2.8643-2.8644,2.8643-2.8644-1.2833-2.8644-2.8643Z"/>
  <circle class="uuid-8a925ffd-31fd-4093-90e5-a1b50ee7d286" cx="935.2293" cy="298.5156" r="2.8643"/>
  <path class="uuid-3e6e22b5-f49c-4aad-89d2-21491f60cbca" d="M933.0999,298.5156c0-1.1753.9541-2.1293,2.1293-2.1293s2.1294.9541,2.1294,2.1293-.9541,2.1293-2.1294,2.1293-2.1293-.9541-2.1293-2.1293ZM932.3649,298.5156c0-1.581,1.2833-2.8643,2.8643-2.8643s2.8644,1.2833,2.8644,2.8643-1.2833,2.8643-2.8644,2.8643-2.8643-1.2833-2.8643-2.8643Z"/>
  <circle class="uuid-8a925ffd-31fd-4093-90e5-a1b50ee7d286" cx="946.9894" cy="298.5156" r="2.8643"/>
  <path class="uuid-3e6e22b5-f49c-4aad-89d2-21491f60cbca" d="M944.8601,298.5156c0-1.1753.954-2.1293,2.1293-2.1293s2.1293.9541,2.1293,2.1293-.954,2.1293-2.1293,2.1293-2.1293-.9541-2.1293-2.1293ZM944.1251,298.5156c0-1.581,1.2833-2.8643,2.8644-2.8643s2.8643,1.2833,2.8643,2.8643-1.2833,2.8643-2.8643,2.8643-2.8644-1.2833-2.8644-2.8643Z"/>
  <line class="uuid-227c0af1-0a76-4131-8118-fe3df83e5a0e" x1="826.4524" y1="129.5612" x2="844.0926" y2="129.5612"/>
  <circle cx="826.4524" cy="129.5612" r="2.8643"/>
  <path class="uuid-cf0c854c-9613-4aa3-b0b2-f675b7f14684" d="M824.3231,129.5612c0-1.1753.954-2.1293,2.1293-2.1293s2.1293.9541,2.1293,2.1293-.954,2.1293-2.1293,2.1293-2.1293-.954-2.1293-2.1293ZM823.588,129.5612c0-1.581,1.2833-2.8643,2.8644-2.8643s2.8643,1.2833,2.8643,2.8643-1.2833,2.8643-2.8643,2.8643-2.8644-1.2833-2.8644-2.8643Z"/>
  <circle cx="844.0926" cy="129.5612" r="2.8643"/>
  <path class="uuid-cf0c854c-9613-4aa3-b0b2-f675b7f14684" d="M841.9633,129.5612c0-1.1753.9541-2.1293,2.1293-2.1293s2.1294.9541,2.1294,2.1293-.9541,2.1293-2.1294,2.1293-2.1293-.954-2.1293-2.1293ZM841.2283,129.5612c0-1.581,1.2833-2.8643,2.8643-2.8643s2.8644,1.2833,2.8644,2.8643-1.2833,2.8643-2.8644,2.8643-2.8643-1.2833-2.8643-2.8643Z"/>
  <line class="uuid-227c0af1-0a76-4131-8118-fe3df83e5a0e" x1="817.6322" y1="147.2015" x2="852.9128" y2="147.2015"/>
  <circle cx="852.9128" cy="147.2015" r="2.8643"/>
  <path class="uuid-cf0c854c-9613-4aa3-b0b2-f675b7f14684" d="M850.7835,147.2015c0-1.1753.954-2.1293,2.1293-2.1293s2.1293.9541,2.1293,2.1293-.954,2.1293-2.1293,2.1293-2.1293-.9541-2.1293-2.1293ZM850.0485,147.2015c0-1.581,1.2833-2.8643,2.8643-2.8643s2.8644,1.2833,2.8644,2.8643-1.2833,2.8643-2.8644,2.8643-2.8643-1.2833-2.8643-2.8643Z"/>
  <circle cx="817.6322" cy="147.2015" r="2.8643"/>
  <path class="uuid-cf0c854c-9613-4aa3-b0b2-f675b7f14684" d="M815.5029,147.2015c0-1.1753.954-2.1293,2.1293-2.1293s2.1293.9541,2.1293,2.1293-.954,2.1293-2.1293,2.1293-2.1293-.9541-2.1293-2.1293ZM814.7679,147.2015c0-1.581,1.2833-2.8643,2.8644-2.8643s2.8644,1.2833,2.8644,2.8643-1.2833,2.8643-2.8644,2.8643-2.8644-1.2833-2.8644-2.8643Z"/>
  <circle cx="829.3924" cy="147.2015" r="2.8643"/>
  <path class="uuid-cf0c854c-9613-4aa3-b0b2-f675b7f14684" d="M827.2631,147.2015c0-1.1753.9541-2.1293,2.1293-2.1293s2.1294.9541,2.1294,2.1293-.9541,2.1293-2.1294,2.1293-2.1293-.9541-2.1293-2.1293ZM826.5281,147.2015c0-1.581,1.2833-2.8643,2.8643-2.8643s2.8644,1.2833,2.8644,2.8643-1.2833,2.8643-2.8644,2.8643-2.8643-1.2833-2.8643-2.8643Z"/>
  <circle cx="841.1526" cy="147.2015" r="2.8643"/>
  <path class="uuid-cf0c854c-9613-4aa3-b0b2-f675b7f14684" d="M839.0233,147.2015c0-1.1753.954-2.1293,2.1293-2.1293s2.1293.9541,2.1293,2.1293-.954,2.1293-2.1293,2.1293-2.1293-.9541-2.1293-2.1293ZM838.2883,147.2015c0-1.581,1.2833-2.8643,2.8644-2.8643s2.8643,1.2833,2.8643,2.8643-1.2833,2.8643-2.8643,2.8643-2.8644-1.2833-2.8644-2.8643Z"/>
  <line class="uuid-227c0af1-0a76-4131-8118-fe3df83e5a0e" x1="817.6322" y1="164.8417" x2="852.9128" y2="164.8417"/>
  <circle class="uuid-8a925ffd-31fd-4093-90e5-a1b50ee7d286" cx="852.9128" cy="164.8417" r="2.8643"/>
  <circle class="uuid-57612e57-8967-45cb-9b58-f699da2653b7" cx="817.6322" cy="164.8417" r="2.8643"/>
  <circle class="uuid-1889927c-06ca-41a1-a9d1-86de259eeb74" cx="829.3924" cy="164.8417" r="2.8643"/>
  <circle class="uuid-29160e3a-f29d-4306-97b5-a921cdd42782" cx="841.1526" cy="164.8417" r="2.8643"/>
  <line class="uuid-227c0af1-0a76-4131-8118-fe3df83e5a0e" x1="861.7281" y1="280.8753" x2="879.3684" y2="280.8753"/>
  <line class="uuid-227c0af1-0a76-4131-8118-fe3df83e5a0e" x1="852.908" y1="298.5156" x2="888.1886" y2="298.5156"/>
  <circle class="uuid-29160e3a-f29d-4306-97b5-a921cdd42782" cx="870.5483" cy="316.1559" r="2.8643"/>
  <path class="uuid-3efd1ca5-a5ea-4a21-a534-302aaaf3511d" d="M868.419,316.1559c0-1.1753.954-2.1293,2.1293-2.1293s2.1293.954,2.1293,2.1293-.9541,2.1293-2.1293,2.1293-2.1293-.954-2.1293-2.1293ZM867.6839,316.1559c0-1.581,1.2833-2.8643,2.8643-2.8643s2.8643,1.2833,2.8643,2.8643-1.2833,2.8643-2.8643,2.8643-2.8643-1.2833-2.8643-2.8643Z"/>
  <circle class="uuid-29160e3a-f29d-4306-97b5-a921cdd42782" cx="861.7281" cy="280.8753" r="2.8643"/>
  <path class="uuid-3efd1ca5-a5ea-4a21-a534-302aaaf3511d" d="M859.5988,280.8753c0-1.1753.954-2.1293,2.1293-2.1293s2.1293.9541,2.1293,2.1293-.9541,2.1293-2.1293,2.1293-2.1293-.954-2.1293-2.1293ZM858.8638,280.8753c0-1.581,1.2833-2.8643,2.8643-2.8643s2.8643,1.2833,2.8643,2.8643-1.2833,2.8643-2.8643,2.8643-2.8643-1.2833-2.8643-2.8643Z"/>
  <circle class="uuid-29160e3a-f29d-4306-97b5-a921cdd42782" cx="879.3684" cy="280.8753" r="2.8643"/>
  <path class="uuid-3efd1ca5-a5ea-4a21-a534-302aaaf3511d" d="M877.2391,280.8753c0-1.1753.954-2.1293,2.1293-2.1293s2.1293.9541,2.1293,2.1293-.954,2.1293-2.1293,2.1293-2.1293-.954-2.1293-2.1293ZM876.5041,280.8753c0-1.581,1.2833-2.8643,2.8643-2.8643s2.8643,1.2833,2.8643,2.8643-1.2833,2.8643-2.8643,2.8643-2.8643-1.2833-2.8643-2.8643Z"/>
  <circle class="uuid-29160e3a-f29d-4306-97b5-a921cdd42782" cx="888.1886" cy="298.5156" r="2.8643"/>
  <path class="uuid-3efd1ca5-a5ea-4a21-a534-302aaaf3511d" d="M886.0592,298.5156c0-1.1753.9541-2.1293,2.1293-2.1293s2.1293.9541,2.1293,2.1293-.9541,2.1293-2.1293,2.1293-2.1293-.9541-2.1293-2.1293ZM885.3242,298.5156c0-1.581,1.2833-2.8643,2.8643-2.8643s2.8643,1.2833,2.8643,2.8643-1.2833,2.8643-2.8643,2.8643-2.8643-1.2833-2.8643-2.8643Z"/>
  <circle class="uuid-29160e3a-f29d-4306-97b5-a921cdd42782" cx="852.908" cy="298.5156" r="2.8643"/>
  <path class="uuid-3efd1ca5-a5ea-4a21-a534-302aaaf3511d" d="M850.7787,298.5156c0-1.1753.9541-2.1293,2.1293-2.1293s2.1293.9541,2.1293,2.1293-.954,2.1293-2.1293,2.1293-2.1293-.9541-2.1293-2.1293ZM850.0437,298.5156c0-1.581,1.2833-2.8643,2.8643-2.8643s2.8643,1.2833,2.8643,2.8643-1.2833,2.8643-2.8643,2.8643-2.8643-1.2833-2.8643-2.8643Z"/>
  <circle class="uuid-29160e3a-f29d-4306-97b5-a921cdd42782" cx="864.6682" cy="298.5156" r="2.8643"/>
  <path class="uuid-3efd1ca5-a5ea-4a21-a534-302aaaf3511d" d="M862.5389,298.5156c0-1.1753.954-2.1293,2.1293-2.1293s2.1293.9541,2.1293,2.1293-.954,2.1293-2.1293,2.1293-2.1293-.9541-2.1293-2.1293ZM861.8038,298.5156c0-1.581,1.2833-2.8643,2.8643-2.8643s2.8643,1.2833,2.8643,2.8643-1.2833,2.8643-2.8643,2.8643-2.8643-1.2833-2.8643-2.8643Z"/>
  <circle class="uuid-29160e3a-f29d-4306-97b5-a921cdd42782" cx="876.4284" cy="298.5156" r="2.8643"/>
  <path class="uuid-3efd1ca5-a5ea-4a21-a534-302aaaf3511d" d="M874.299,298.5156c0-1.1753.954-2.1293,2.1293-2.1293s2.1293.9541,2.1293,2.1293-.9541,2.1293-2.1293,2.1293-2.1293-.9541-2.1293-2.1293ZM873.564,298.5156c0-1.581,1.2833-2.8643,2.8643-2.8643s2.8643,1.2833,2.8643,2.8643-1.2833,2.8643-2.8643,2.8643-2.8643-1.2833-2.8643-2.8643Z"/>
  <line class="uuid-227c0af1-0a76-4131-8118-fe3df83e5a0e" x1="791.1671" y1="280.8753" x2="808.8073" y2="280.8753"/>
  <line class="uuid-227c0af1-0a76-4131-8118-fe3df83e5a0e" x1="782.3469" y1="298.5156" x2="817.6275" y2="298.5156"/>
  <circle class="uuid-1889927c-06ca-41a1-a9d1-86de259eeb74" cx="799.9872" cy="316.1559" r="2.8643"/>
  <path class="uuid-81ba34bf-9838-4d2d-9ab8-a725bbc3ee29" d="M797.8579,316.1559c0-1.1753.954-2.1293,2.1293-2.1293s2.1293.954,2.1293,2.1293-.954,2.1293-2.1293,2.1293-2.1293-.954-2.1293-2.1293ZM797.1229,316.1559c0-1.581,1.2833-2.8643,2.8643-2.8643s2.8643,1.2833,2.8643,2.8643-1.2833,2.8643-2.8643,2.8643-2.8643-1.2833-2.8643-2.8643Z"/>
  <circle class="uuid-1889927c-06ca-41a1-a9d1-86de259eeb74" cx="791.1671" cy="280.8753" r="2.8643"/>
  <path class="uuid-81ba34bf-9838-4d2d-9ab8-a725bbc3ee29" d="M789.0377,280.8753c0-1.1753.954-2.1293,2.1293-2.1293s2.1293.9541,2.1293,2.1293-.954,2.1293-2.1293,2.1293-2.1293-.954-2.1293-2.1293ZM788.3027,280.8753c0-1.581,1.2833-2.8643,2.8643-2.8643s2.8643,1.2833,2.8643,2.8643-1.2833,2.8643-2.8643,2.8643-2.8643-1.2833-2.8643-2.8643Z"/>
  <circle class="uuid-1889927c-06ca-41a1-a9d1-86de259eeb74" cx="808.8073" cy="280.8753" r="2.8643"/>
  <path class="uuid-81ba34bf-9838-4d2d-9ab8-a725bbc3ee29" d="M806.678,280.8753c0-1.1753.9541-2.1293,2.1293-2.1293s2.1293.9541,2.1293,2.1293-.954,2.1293-2.1293,2.1293-2.1293-.954-2.1293-2.1293ZM805.943,280.8753c0-1.581,1.2833-2.8643,2.8643-2.8643s2.8643,1.2833,2.8643,2.8643-1.2833,2.8643-2.8643,2.8643-2.8643-1.2833-2.8643-2.8643Z"/>
  <circle class="uuid-1889927c-06ca-41a1-a9d1-86de259eeb74" cx="817.6275" cy="298.5156" r="2.8643"/>
  <path class="uuid-81ba34bf-9838-4d2d-9ab8-a725bbc3ee29" d="M815.4981,298.5156c0-1.1753.954-2.1293,2.1293-2.1293s2.1293.9541,2.1293,2.1293-.9541,2.1293-2.1293,2.1293-2.1293-.9541-2.1293-2.1293ZM814.7631,298.5156c0-1.581,1.2833-2.8643,2.8643-2.8643s2.8643,1.2833,2.8643,2.8643-1.2833,2.8643-2.8643,2.8643-2.8643-1.2833-2.8643-2.8643Z"/>
  <circle class="uuid-1889927c-06ca-41a1-a9d1-86de259eeb74" cx="782.3469" cy="298.5156" r="2.8643"/>
  <path class="uuid-81ba34bf-9838-4d2d-9ab8-a725bbc3ee29" d="M780.2176,298.5156c0-1.1753.954-2.1293,2.1293-2.1293s2.1293.9541,2.1293,2.1293-.954,2.1293-2.1293,2.1293-2.1293-.9541-2.1293-2.1293ZM779.4826,298.5156c0-1.581,1.2833-2.8643,2.8643-2.8643s2.8643,1.2833,2.8643,2.8643-1.2833,2.8643-2.8643,2.8643-2.8643-1.2833-2.8643-2.8643Z"/>
  <circle class="uuid-1889927c-06ca-41a1-a9d1-86de259eeb74" cx="794.1071" cy="298.5156" r="2.8643"/>
  <path class="uuid-81ba34bf-9838-4d2d-9ab8-a725bbc3ee29" d="M791.9778,298.5156c0-1.1753.9541-2.1293,2.1293-2.1293s2.1293.9541,2.1293,2.1293-.954,2.1293-2.1293,2.1293-2.1293-.9541-2.1293-2.1293ZM791.2428,298.5156c0-1.581,1.2833-2.8643,2.8643-2.8643s2.8643,1.2833,2.8643,2.8643-1.2833,2.8643-2.8643,2.8643-2.8643-1.2833-2.8643-2.8643Z"/>
  <circle class="uuid-1889927c-06ca-41a1-a9d1-86de259eeb74" cx="805.8673" cy="298.5156" r="2.8643"/>
  <path class="uuid-81ba34bf-9838-4d2d-9ab8-a725bbc3ee29" d="M803.738,298.5156c0-1.1753.954-2.1293,2.1293-2.1293s2.1293.9541,2.1293,2.1293-.954,2.1293-2.1293,2.1293-2.1293-.9541-2.1293-2.1293ZM803.0029,298.5156c0-1.581,1.2833-2.8643,2.8643-2.8643s2.8643,1.2833,2.8643,2.8643-1.2833,2.8643-2.8643,2.8643-2.8643-1.2833-2.8643-2.8643Z"/>
  <line class="uuid-227c0af1-0a76-4131-8118-fe3df83e5a0e" x1="720.606" y1="280.8753" x2="738.2463" y2="280.8753"/>
  <line class="uuid-227c0af1-0a76-4131-8118-fe3df83e5a0e" x1="711.7858" y1="298.5156" x2="747.0664" y2="298.5156"/>
  <circle class="uuid-57612e57-8967-45cb-9b58-f699da2653b7" cx="729.4261" cy="316.1559" r="2.8643"/>
  <path class="uuid-e9eb2a92-3e15-437a-9ba1-52bafaf4ebd0" d="M727.2968,316.1559c0-1.1753.954-2.1293,2.1293-2.1293s2.1293.954,2.1293,2.1293-.954,2.1293-2.1293,2.1293-2.1293-.954-2.1293-2.1293ZM726.5618,316.1559c0-1.581,1.2833-2.8643,2.8643-2.8643s2.8643,1.2833,2.8643,2.8643-1.2833,2.8643-2.8643,2.8643-2.8643-1.2833-2.8643-2.8643Z"/>
  <circle class="uuid-57612e57-8967-45cb-9b58-f699da2653b7" cx="720.606" cy="280.8753" r="2.8643"/>
  <path class="uuid-e9eb2a92-3e15-437a-9ba1-52bafaf4ebd0" d="M718.4767,280.8753c0-1.1753.954-2.1293,2.1293-2.1293s2.1293.9541,2.1293,2.1293-.954,2.1293-2.1293,2.1293-2.1293-.954-2.1293-2.1293ZM717.7416,280.8753c0-1.581,1.2833-2.8643,2.8643-2.8643s2.8643,1.2833,2.8643,2.8643-1.2833,2.8643-2.8643,2.8643-2.8643-1.2833-2.8643-2.8643Z"/>
  <circle class="uuid-57612e57-8967-45cb-9b58-f699da2653b7" cx="738.2463" cy="280.8753" r="2.8643"/>
  <path class="uuid-e9eb2a92-3e15-437a-9ba1-52bafaf4ebd0" d="M736.1169,280.8753c0-1.1753.954-2.1293,2.1293-2.1293s2.1293.9541,2.1293,2.1293-.954,2.1293-2.1293,2.1293-2.1293-.954-2.1293-2.1293ZM735.3819,280.8753c0-1.581,1.2833-2.8643,2.8643-2.8643s2.8643,1.2833,2.8643,2.8643-1.2833,2.8643-2.8643,2.8643-2.8643-1.2833-2.8643-2.8643Z"/>
  <circle class="uuid-57612e57-8967-45cb-9b58-f699da2653b7" cx="747.0664" cy="298.5156" r="2.8643"/>
  <path class="uuid-e9eb2a92-3e15-437a-9ba1-52bafaf4ebd0" d="M744.9371,298.5156c0-1.1753.9541-2.1293,2.1293-2.1293s2.1293.9541,2.1293,2.1293-.954,2.1293-2.1293,2.1293-2.1293-.9541-2.1293-2.1293ZM744.202,298.5156c0-1.581,1.2833-2.8643,2.8643-2.8643s2.8643,1.2833,2.8643,2.8643-1.2833,2.8643-2.8643,2.8643-2.8643-1.2833-2.8643-2.8643Z"/>
  <circle class="uuid-57612e57-8967-45cb-9b58-f699da2653b7" cx="711.7858" cy="298.5156" r="2.8643"/>
  <path class="uuid-e9eb2a92-3e15-437a-9ba1-52bafaf4ebd0" d="M709.6565,298.5156c0-1.1753.954-2.1293,2.1293-2.1293s2.1293.9541,2.1293,2.1293-.954,2.1293-2.1293,2.1293-2.1293-.9541-2.1293-2.1293ZM708.9215,298.5156c0-1.581,1.2833-2.8643,2.8643-2.8643s2.8643,1.2833,2.8643,2.8643-1.2833,2.8643-2.8643,2.8643-2.8643-1.2833-2.8643-2.8643Z"/>
  <circle class="uuid-57612e57-8967-45cb-9b58-f699da2653b7" cx="723.546" cy="298.5156" r="2.8643"/>
  <path class="uuid-e9eb2a92-3e15-437a-9ba1-52bafaf4ebd0" d="M721.4167,298.5156c0-1.1753.954-2.1293,2.1293-2.1293s2.1293.9541,2.1293,2.1293-.954,2.1293-2.1293,2.1293-2.1293-.9541-2.1293-2.1293ZM720.6817,298.5156c0-1.581,1.2833-2.8643,2.8643-2.8643s2.8643,1.2833,2.8643,2.8643-1.2833,2.8643-2.8643,2.8643-2.8643-1.2833-2.8643-2.8643Z"/>
  <circle class="uuid-57612e57-8967-45cb-9b58-f699da2653b7" cx="735.3062" cy="298.5156" r="2.8643"/>
  <path class="uuid-e9eb2a92-3e15-437a-9ba1-52bafaf4ebd0" d="M733.1769,298.5156c0-1.1753.954-2.1293,2.1293-2.1293s2.1293.9541,2.1293,2.1293-.954,2.1293-2.1293,2.1293-2.1293-.9541-2.1293-2.1293ZM732.4419,298.5156c0-1.581,1.2833-2.8643,2.8643-2.8643s2.8643,1.2833,2.8643,2.8643-1.2833,2.8643-2.8643,2.8643-2.8643-1.2833-2.8643-2.8643Z"/>
  <g>
    <rect class="uuid-1522dd63-3361-42e3-a445-a00e4ec7ca5d" x="729.4261" y="354.4718" width="17.6403" height="17.6403" rx="3.5281" ry="3.5281"/>
    <line class="uuid-f17a3f3e-2bd9-4ec4-8863-63ab28f36898" x1="733.6495" y1="358.6951" x2="742.843" y2="367.8887"/>
    <line class="uuid-f17a3f3e-2bd9-4ec4-8863-63ab28f36898" x1="733.6495" y1="367.8887" x2="742.843" y2="358.6951"/>
  </g>
  <g>
    <rect class="uuid-1522dd63-3361-42e3-a445-a00e4ec7ca5d" x="711.7859" y="354.4718" width="17.6403" height="17.6403" rx="3.5281" ry="3.5281"/>
    <line class="uuid-f17a3f3e-2bd9-4ec4-8863-63ab28f36898" x1="716.0092" y1="358.6951" x2="725.2027" y2="367.8887"/>
    <line class="uuid-f17a3f3e-2bd9-4ec4-8863-63ab28f36898" x1="716.0092" y1="367.8887" x2="725.2027" y2="358.6951"/>
  </g>
  <g>
    <rect class="uuid-24105483-92df-4385-9f0d-00120399072d" x="782.3469" y="354.4718" width="17.6403" height="17.6403" rx="3.5281" ry="3.5281"/>
    <rect class="uuid-3a2d9625-27a4-4ed8-9646-e9725d0ed07f" x="782.3469" y="354.4718" width="17.6403" height="17.6403" rx="3.5281" ry="3.5281"/>
    <polyline class="uuid-40bbffc9-8ecd-45bf-a318-555a34e1a597" points="786.5703 364.2114 789.7882 367.8887 795.7638 358.6951"/>
  </g>
  <g>
    <rect class="uuid-24105483-92df-4385-9f0d-00120399072d" x="800.0929" y="354.4718" width="17.6403" height="17.6403" rx="3.5281" ry="3.5281"/>
    <rect class="uuid-3a2d9625-27a4-4ed8-9646-e9725d0ed07f" x="800.0929" y="354.4718" width="17.6403" height="17.6403" rx="3.5281" ry="3.5281"/>
    <polyline class="uuid-40bbffc9-8ecd-45bf-a318-555a34e1a597" points="804.3162 364.2114 807.5341 367.8887 813.5098 358.6951"/>
  </g>
  <g>
    <rect class="uuid-24105483-92df-4385-9f0d-00120399072d" x="870.7596" y="354.4718" width="17.6403" height="17.6403" rx="3.5281" ry="3.5281"/>
    <rect class="uuid-2e0ed045-7821-47cc-aa68-f767e45478ce" x="870.7596" y="354.4718" width="17.6403" height="17.6403" rx="3.5281" ry="3.5281"/>
    <polyline class="uuid-40bbffc9-8ecd-45bf-a318-555a34e1a597" points="874.983 364.2114 878.2009 367.8887 884.1765 358.6951"/>
  </g>
  <g>
    <rect class="uuid-24105483-92df-4385-9f0d-00120399072d" x="923.4691" y="354.4718" width="17.6403" height="17.6403" rx="3.5281" ry="3.5281"/>
    <rect class="uuid-e7651922-1c6d-4118-b397-847f7d7dde13" x="923.4691" y="354.4718" width="17.6403" height="17.6403" rx="3.5281" ry="3.5281"/>
    <polyline class="uuid-40bbffc9-8ecd-45bf-a318-555a34e1a597" points="927.6925 364.2114 930.9104 367.8887 936.886 358.6951"/>
  </g>
  <g>
    <rect class="uuid-24105483-92df-4385-9f0d-00120399072d" x="941.1094" y="354.4718" width="17.6403" height="17.6403" rx="3.5281" ry="3.5281"/>
    <rect class="uuid-e7651922-1c6d-4118-b397-847f7d7dde13" x="941.1094" y="354.4718" width="17.6403" height="17.6403" rx="3.5281" ry="3.5281"/>
    <polyline class="uuid-40bbffc9-8ecd-45bf-a318-555a34e1a597" points="945.3327 364.2114 948.5506 367.8887 954.5263 358.6951"/>
  </g>
  <g>
    <rect class="uuid-7665cbbd-d85d-4ca5-985a-165b01da7bd1" x="853.1193" y="354.4718" width="17.6403" height="17.6403" rx="3.5281" ry="3.5281"/>
    <line class="uuid-81b5517b-010a-41c6-a685-2776f791579e" x1="857.3427" y1="358.6951" x2="866.5362" y2="367.8887"/>
    <line class="uuid-81b5517b-010a-41c6-a685-2776f791579e" x1="857.3427" y1="367.8887" x2="866.5362" y2="358.6951"/>
  </g>
  <text class="uuid-44e6178c-455d-407c-8393-e4790d855e4e" transform="translate(461.7273 412.0125)"><tspan x="0" y="0">b) Dens</tspan><tspan class="uuid-3d39d887-256e-4d4c-8ce5-69aef03f7a60" x="52.522" y="0">e</tspan><tspan x="64.7642" y="0">MoE</tspan></text>
  <text class="uuid-f8050985-8fea-479f-b9a1-2a9109fa81a2" transform="translate(355.6457 298.9354) rotate(-90)"><tspan x="0" y="0">Quer</tspan><tspan class="uuid-fa7e54d4-cdb2-4510-8c0f-62fc5facc912" x="28.9004" y="0">y</tspan><tspan x="38.7812" y="0">Experts</tspan></text>
  <text class="uuid-f8050985-8fea-479f-b9a1-2a9109fa81a2" transform="translate(355.6457 193.3436) rotate(-90)"><tspan x="0" y="0">Quer</tspan><tspan class="uuid-fa7e54d4-cdb2-4510-8c0f-62fc5facc912" x="28.9004" y="0">y</tspan><tspan class="uuid-903b6e50-6d30-4757-824c-d021e4a98263" x="38.7812" y="0">Gate</tspan></text>
  <path class="uuid-0b3c7b18-86f8-4b12-8afb-d97fcf0b3a01" d="M455.2207,101.9435v13.2302c0,2.4355-1.9735,4.4101-4.4101,4.4101h-44.1007c-2.4366,0-4.4101,1.9746-4.4101,4.4101v104.1878"/>
  <path class="uuid-0b3c7b18-86f8-4b12-8afb-d97fcf0b3a01" d="M561.0623,101.9435v13.2302c0,2.4355,1.9735,4.4101,4.4101,4.4101h44.1007c2.4365,0,4.4101,1.9746,4.4101,4.4101v104.1878"/>
  <path class="uuid-0b3c7b18-86f8-4b12-8afb-d97fcf0b3a01" d="M525.7818,101.9435v13.2302c0,2.4355,1.9735,4.4101,4.4101,4.4101h8.8201c2.4366,0,4.4101,1.9746,4.4101,4.4101v104.1878"/>
  <path class="uuid-0b3c7b18-86f8-4b12-8afb-d97fcf0b3a01" d="M490.5012,101.9435v13.2302c0,2.4355-1.9735,4.4101-4.4101,4.4101h-8.8201c-2.4366,0-4.4101,1.9746-4.4101,4.4101v104.1878"/>
  <polyline class="uuid-0b3c7b18-86f8-4b12-8afb-d97fcf0b3a01" points="406.7099 221.1256 402.2998 228.1817 397.8898 221.1256"/>
  <polyline class="uuid-0b3c7b18-86f8-4b12-8afb-d97fcf0b3a01" points="477.0579 221.1256 472.6478 228.1817 468.2377 221.1256"/>
  <polyline class="uuid-0b3c7b18-86f8-4b12-8afb-d97fcf0b3a01" points="547.8321 221.1256 543.422 228.1817 539.0119 221.1256"/>
  <polyline class="uuid-0b3c7b18-86f8-4b12-8afb-d97fcf0b3a01" points="618.3932 221.1256 613.9831 228.1817 609.5731 221.1256"/>
  <path class="uuid-0b3c7b18-86f8-4b12-8afb-d97fcf0b3a01" d="M473.459,287.714v3.8717c0,2.0367,1.9746,3.688,4.4101,3.688h21.4437c2.4336,0,4.4071,1.6482,4.4101,3.6834.0048,3.2808.0118,9.1575.0147,11.243"/>
  <path class="uuid-0b3c7b18-86f8-4b12-8afb-d97fcf0b3a01" d="M402.8979,287.714v8.8294c0,2.0367,1.9746,3.688,4.4101,3.688h87.5274c2.4336,0,4.4071,1.6482,4.4101,3.6834.0048,3.2808.0118,4.1997.0147,6.2853"/>
  <line class="uuid-0b3c7b18-86f8-4b12-8afb-d97fcf0b3a01" x1="507.9652" y1="101.9435" x2="507.9652" y2="137.3419"/>
  <polyline class="uuid-0b3c7b18-86f8-4b12-8afb-d97fcf0b3a01" points="512.3752 130.2858 507.9652 137.3419 503.5551 130.2858"/>
  <line class="uuid-0b3c7b18-86f8-4b12-8afb-d97fcf0b3a01" x1="507.9652" y1="201.2481" x2="507.9652" y2="310.2001"/>
  <path class="uuid-0b3c7b18-86f8-4b12-8afb-d97fcf0b3a01" d="M542.8943,287.714v3.8717c0,2.0367-1.9746,3.688-4.4101,3.688h-21.4437c-2.4336,0-4.4071,1.6482-4.4101,3.6834-.0048,3.2808-.0118,9.1575-.0147,11.243"/>
  <path class="uuid-0b3c7b18-86f8-4b12-8afb-d97fcf0b3a01" d="M613.4553,287.714v8.8294c0,2.0367-1.9746,3.688-4.4101,3.688h-87.5274c-2.4336,0-4.4071,1.6482-4.4101,3.6834-.0048,3.2808-.0118,4.1997-.0147,6.2853"/>
  <text class="uuid-addea4c0-3d99-488f-a36e-a41c38b6462b" transform="translate(461.4529 72.7103)"><tspan x="0" y="0">Batc</tspan><tspan class="uuid-bc4a7f9f-3087-4963-94cf-375ddd73ab23" x="26.0127" y="0">h</tspan><tspan x="36.6226" y="0">o</tspan><tspan class="uuid-bc4a7f9f-3087-4963-94cf-375ddd73ab23" x="43.853" y="0">f</tspan><tspan x="50.8442" y="0">queries</tspan></text>
  <line class="uuid-227c0af1-0a76-4131-8118-fe3df83e5a0e" x1="605.1017" y1="239.8661" x2="622.742" y2="239.8661"/>
  <line class="uuid-227c0af1-0a76-4131-8118-fe3df83e5a0e" x1="596.2816" y1="257.5064" x2="631.5621" y2="257.5064"/>
  <circle class="uuid-8a925ffd-31fd-4093-90e5-a1b50ee7d286" cx="613.9218" cy="275.1467" r="2.8643"/>
  <path class="uuid-3e6e22b5-f49c-4aad-89d2-21491f60cbca" d="M611.7925,275.1467c0-1.1753.954-2.1293,2.1293-2.1293s2.1293.954,2.1293,2.1293-.954,2.1293-2.1293,2.1293-2.1293-.954-2.1293-2.1293ZM611.0575,275.1467c0-1.581,1.2833-2.8643,2.8644-2.8643s2.8643,1.2833,2.8643,2.8643-1.2833,2.8643-2.8643,2.8643-2.8644-1.2833-2.8644-2.8643Z"/>
  <circle class="uuid-8a925ffd-31fd-4093-90e5-a1b50ee7d286" cx="605.1017" cy="239.8661" r="2.8643"/>
  <path class="uuid-3e6e22b5-f49c-4aad-89d2-21491f60cbca" d="M602.9724,239.8661c0-1.1753.954-2.1293,2.1293-2.1293s2.1293.9541,2.1293,2.1293-.954,2.1293-2.1293,2.1293-2.1293-.954-2.1293-2.1293ZM602.2374,239.8661c0-1.581,1.2833-2.8643,2.8644-2.8643s2.8643,1.2833,2.8643,2.8643-1.2833,2.8643-2.8643,2.8643-2.8644-1.2833-2.8644-2.8643Z"/>
  <circle class="uuid-8a925ffd-31fd-4093-90e5-a1b50ee7d286" cx="622.742" cy="239.8661" r="2.8643"/>
  <path class="uuid-3e6e22b5-f49c-4aad-89d2-21491f60cbca" d="M620.6126,239.8661c0-1.1753.9541-2.1293,2.1293-2.1293s2.1294.9541,2.1294,2.1293-.9541,2.1293-2.1294,2.1293-2.1293-.954-2.1293-2.1293ZM619.8776,239.8661c0-1.581,1.2833-2.8643,2.8643-2.8643s2.8644,1.2833,2.8644,2.8643-1.2833,2.8643-2.8644,2.8643-2.8643-1.2833-2.8643-2.8643Z"/>
  <circle class="uuid-8a925ffd-31fd-4093-90e5-a1b50ee7d286" cx="631.5621" cy="257.5064" r="2.8643"/>
  <path class="uuid-3e6e22b5-f49c-4aad-89d2-21491f60cbca" d="M629.4328,257.5064c0-1.1753.954-2.1293,2.1293-2.1293s2.1293.9541,2.1293,2.1293-.954,2.1293-2.1293,2.1293-2.1293-.9541-2.1293-2.1293ZM628.6978,257.5064c0-1.581,1.2833-2.8643,2.8643-2.8643s2.8644,1.2833,2.8644,2.8643-1.2833,2.8643-2.8644,2.8643-2.8643-1.2833-2.8643-2.8643Z"/>
  <circle class="uuid-8a925ffd-31fd-4093-90e5-a1b50ee7d286" cx="596.2816" cy="257.5064" r="2.8643"/>
  <path class="uuid-3e6e22b5-f49c-4aad-89d2-21491f60cbca" d="M594.1522,257.5064c0-1.1753.954-2.1293,2.1293-2.1293s2.1293.9541,2.1293,2.1293-.954,2.1293-2.1293,2.1293-2.1293-.9541-2.1293-2.1293ZM593.4172,257.5064c0-1.581,1.2833-2.8643,2.8644-2.8643s2.8644,1.2833,2.8644,2.8643-1.2833,2.8643-2.8644,2.8643-2.8644-1.2833-2.8644-2.8643Z"/>
  <circle class="uuid-8a925ffd-31fd-4093-90e5-a1b50ee7d286" cx="608.0417" cy="257.5064" r="2.8643"/>
  <path class="uuid-3e6e22b5-f49c-4aad-89d2-21491f60cbca" d="M605.9124,257.5064c0-1.1753.9541-2.1293,2.1293-2.1293s2.1294.9541,2.1294,2.1293-.9541,2.1293-2.1294,2.1293-2.1293-.9541-2.1293-2.1293ZM605.1774,257.5064c0-1.581,1.2833-2.8643,2.8643-2.8643s2.8644,1.2833,2.8644,2.8643-1.2833,2.8643-2.8644,2.8643-2.8643-1.2833-2.8643-2.8643Z"/>
  <circle class="uuid-8a925ffd-31fd-4093-90e5-a1b50ee7d286" cx="619.8019" cy="257.5064" r="2.8643"/>
  <path class="uuid-3e6e22b5-f49c-4aad-89d2-21491f60cbca" d="M617.6726,257.5064c0-1.1753.954-2.1293,2.1293-2.1293s2.1293.9541,2.1293,2.1293-.954,2.1293-2.1293,2.1293-2.1293-.9541-2.1293-2.1293ZM616.9376,257.5064c0-1.581,1.2833-2.8643,2.8644-2.8643s2.8643,1.2833,2.8643,2.8643-1.2833,2.8643-2.8643,2.8643-2.8644-1.2833-2.8644-2.8643Z"/>
  <line class="uuid-227c0af1-0a76-4131-8118-fe3df83e5a0e" x1="534.5406" y1="239.8661" x2="552.1809" y2="239.8661"/>
  <line class="uuid-227c0af1-0a76-4131-8118-fe3df83e5a0e" x1="525.7205" y1="257.5064" x2="561.001" y2="257.5064"/>
  <circle class="uuid-29160e3a-f29d-4306-97b5-a921cdd42782" cx="543.3608" cy="275.1467" r="2.8643"/>
  <path class="uuid-3efd1ca5-a5ea-4a21-a534-302aaaf3511d" d="M541.2314,275.1467c0-1.1753.954-2.1293,2.1293-2.1293s2.1293.954,2.1293,2.1293-.9541,2.1293-2.1293,2.1293-2.1293-.954-2.1293-2.1293ZM540.4964,275.1467c0-1.581,1.2833-2.8643,2.8643-2.8643s2.8643,1.2833,2.8643,2.8643-1.2833,2.8643-2.8643,2.8643-2.8643-1.2833-2.8643-2.8643Z"/>
  <circle class="uuid-29160e3a-f29d-4306-97b5-a921cdd42782" cx="534.5406" cy="239.8661" r="2.8643"/>
  <path class="uuid-3efd1ca5-a5ea-4a21-a534-302aaaf3511d" d="M532.4113,239.8661c0-1.1753.954-2.1293,2.1293-2.1293s2.1293.9541,2.1293,2.1293-.9541,2.1293-2.1293,2.1293-2.1293-.954-2.1293-2.1293ZM531.6763,239.8661c0-1.581,1.2833-2.8643,2.8643-2.8643s2.8643,1.2833,2.8643,2.8643-1.2833,2.8643-2.8643,2.8643-2.8643-1.2833-2.8643-2.8643Z"/>
  <circle class="uuid-29160e3a-f29d-4306-97b5-a921cdd42782" cx="552.1809" cy="239.8661" r="2.8643"/>
  <path class="uuid-3efd1ca5-a5ea-4a21-a534-302aaaf3511d" d="M550.0516,239.8661c0-1.1753.954-2.1293,2.1293-2.1293s2.1293.9541,2.1293,2.1293-.954,2.1293-2.1293,2.1293-2.1293-.954-2.1293-2.1293ZM549.3166,239.8661c0-1.581,1.2833-2.8643,2.8643-2.8643s2.8643,1.2833,2.8643,2.8643-1.2833,2.8643-2.8643,2.8643-2.8643-1.2833-2.8643-2.8643Z"/>
  <circle class="uuid-29160e3a-f29d-4306-97b5-a921cdd42782" cx="561.001" cy="257.5064" r="2.8643"/>
  <path class="uuid-3efd1ca5-a5ea-4a21-a534-302aaaf3511d" d="M558.8717,257.5064c0-1.1753.9541-2.1293,2.1293-2.1293s2.1293.9541,2.1293,2.1293-.9541,2.1293-2.1293,2.1293-2.1293-.9541-2.1293-2.1293ZM558.1367,257.5064c0-1.581,1.2833-2.8643,2.8643-2.8643s2.8643,1.2833,2.8643,2.8643-1.2833,2.8643-2.8643,2.8643-2.8643-1.2833-2.8643-2.8643Z"/>
  <circle class="uuid-29160e3a-f29d-4306-97b5-a921cdd42782" cx="525.7205" cy="257.5064" r="2.8643"/>
  <path class="uuid-3efd1ca5-a5ea-4a21-a534-302aaaf3511d" d="M523.5912,257.5064c0-1.1753.9541-2.1293,2.1293-2.1293s2.1293.9541,2.1293,2.1293-.954,2.1293-2.1293,2.1293-2.1293-.9541-2.1293-2.1293ZM522.8561,257.5064c0-1.581,1.2833-2.8643,2.8643-2.8643s2.8643,1.2833,2.8643,2.8643-1.2833,2.8643-2.8643,2.8643-2.8643-1.2833-2.8643-2.8643Z"/>
  <circle class="uuid-29160e3a-f29d-4306-97b5-a921cdd42782" cx="537.4807" cy="257.5064" r="2.8643"/>
  <path class="uuid-3efd1ca5-a5ea-4a21-a534-302aaaf3511d" d="M535.3513,257.5064c0-1.1753.954-2.1293,2.1293-2.1293s2.1293.9541,2.1293,2.1293-.954,2.1293-2.1293,2.1293-2.1293-.9541-2.1293-2.1293ZM534.6163,257.5064c0-1.581,1.2833-2.8643,2.8643-2.8643s2.8643,1.2833,2.8643,2.8643-1.2833,2.8643-2.8643,2.8643-2.8643-1.2833-2.8643-2.8643Z"/>
  <circle class="uuid-29160e3a-f29d-4306-97b5-a921cdd42782" cx="549.2409" cy="257.5064" r="2.8643"/>
  <path class="uuid-3efd1ca5-a5ea-4a21-a534-302aaaf3511d" d="M547.1115,257.5064c0-1.1753.954-2.1293,2.1293-2.1293s2.1293.9541,2.1293,2.1293-.9541,2.1293-2.1293,2.1293-2.1293-.9541-2.1293-2.1293ZM546.3765,257.5064c0-1.581,1.2833-2.8643,2.8643-2.8643s2.8643,1.2833,2.8643,2.8643-1.2833,2.8643-2.8643,2.8643-2.8643-1.2833-2.8643-2.8643Z"/>
  <line class="uuid-227c0af1-0a76-4131-8118-fe3df83e5a0e" x1="463.9795" y1="239.8661" x2="481.6198" y2="239.8661"/>
  <line class="uuid-227c0af1-0a76-4131-8118-fe3df83e5a0e" x1="455.1594" y1="257.5064" x2="490.44" y2="257.5064"/>
  <circle class="uuid-1889927c-06ca-41a1-a9d1-86de259eeb74" cx="472.7997" cy="275.1467" r="2.8643"/>
  <path class="uuid-81ba34bf-9838-4d2d-9ab8-a725bbc3ee29" d="M470.6704,275.1467c0-1.1753.954-2.1293,2.1293-2.1293s2.1293.954,2.1293,2.1293-.954,2.1293-2.1293,2.1293-2.1293-.954-2.1293-2.1293ZM469.9353,275.1467c0-1.581,1.2833-2.8643,2.8643-2.8643s2.8643,1.2833,2.8643,2.8643-1.2833,2.8643-2.8643,2.8643-2.8643-1.2833-2.8643-2.8643Z"/>
  <circle class="uuid-1889927c-06ca-41a1-a9d1-86de259eeb74" cx="463.9795" cy="239.8661" r="2.8643"/>
  <path class="uuid-81ba34bf-9838-4d2d-9ab8-a725bbc3ee29" d="M461.8502,239.8661c0-1.1753.954-2.1293,2.1293-2.1293s2.1293.9541,2.1293,2.1293-.954,2.1293-2.1293,2.1293-2.1293-.954-2.1293-2.1293ZM461.1152,239.8661c0-1.581,1.2833-2.8643,2.8643-2.8643s2.8643,1.2833,2.8643,2.8643-1.2833,2.8643-2.8643,2.8643-2.8643-1.2833-2.8643-2.8643Z"/>
  <circle class="uuid-1889927c-06ca-41a1-a9d1-86de259eeb74" cx="481.6198" cy="239.8661" r="2.8643"/>
  <path class="uuid-81ba34bf-9838-4d2d-9ab8-a725bbc3ee29" d="M479.4905,239.8661c0-1.1753.9541-2.1293,2.1293-2.1293s2.1293.9541,2.1293,2.1293-.954,2.1293-2.1293,2.1293-2.1293-.954-2.1293-2.1293ZM478.7555,239.8661c0-1.581,1.2833-2.8643,2.8643-2.8643s2.8643,1.2833,2.8643,2.8643-1.2833,2.8643-2.8643,2.8643-2.8643-1.2833-2.8643-2.8643Z"/>
  <circle class="uuid-1889927c-06ca-41a1-a9d1-86de259eeb74" cx="490.44" cy="257.5064" r="2.8643"/>
  <path class="uuid-81ba34bf-9838-4d2d-9ab8-a725bbc3ee29" d="M488.3106,257.5064c0-1.1753.954-2.1293,2.1293-2.1293s2.1293.9541,2.1293,2.1293-.9541,2.1293-2.1293,2.1293-2.1293-.9541-2.1293-2.1293ZM487.5756,257.5064c0-1.581,1.2833-2.8643,2.8643-2.8643s2.8643,1.2833,2.8643,2.8643-1.2833,2.8643-2.8643,2.8643-2.8643-1.2833-2.8643-2.8643Z"/>
  <circle class="uuid-1889927c-06ca-41a1-a9d1-86de259eeb74" cx="455.1594" cy="257.5064" r="2.8643"/>
  <path class="uuid-81ba34bf-9838-4d2d-9ab8-a725bbc3ee29" d="M453.0301,257.5064c0-1.1753.954-2.1293,2.1293-2.1293s2.1293.9541,2.1293,2.1293-.954,2.1293-2.1293,2.1293-2.1293-.9541-2.1293-2.1293ZM452.2951,257.5064c0-1.581,1.2833-2.8643,2.8643-2.8643s2.8643,1.2833,2.8643,2.8643-1.2833,2.8643-2.8643,2.8643-2.8643-1.2833-2.8643-2.8643Z"/>
  <circle class="uuid-1889927c-06ca-41a1-a9d1-86de259eeb74" cx="466.9196" cy="257.5064" r="2.8643"/>
  <path class="uuid-81ba34bf-9838-4d2d-9ab8-a725bbc3ee29" d="M464.7903,257.5064c0-1.1753.9541-2.1293,2.1293-2.1293s2.1293.9541,2.1293,2.1293-.954,2.1293-2.1293,2.1293-2.1293-.9541-2.1293-2.1293ZM464.0552,257.5064c0-1.581,1.2833-2.8643,2.8643-2.8643s2.8643,1.2833,2.8643,2.8643-1.2833,2.8643-2.8643,2.8643-2.8643-1.2833-2.8643-2.8643Z"/>
  <circle class="uuid-1889927c-06ca-41a1-a9d1-86de259eeb74" cx="478.6798" cy="257.5064" r="2.8643"/>
  <path class="uuid-81ba34bf-9838-4d2d-9ab8-a725bbc3ee29" d="M476.5504,257.5064c0-1.1753.954-2.1293,2.1293-2.1293s2.1293.9541,2.1293,2.1293-.954,2.1293-2.1293,2.1293-2.1293-.9541-2.1293-2.1293ZM475.8154,257.5064c0-1.581,1.2833-2.8643,2.8643-2.8643s2.8643,1.2833,2.8643,2.8643-1.2833,2.8643-2.8643,2.8643-2.8643-1.2833-2.8643-2.8643Z"/>
  <line class="uuid-227c0af1-0a76-4131-8118-fe3df83e5a0e" x1="393.4185" y1="239.8661" x2="411.0587" y2="239.8661"/>
  <line class="uuid-227c0af1-0a76-4131-8118-fe3df83e5a0e" x1="384.5983" y1="257.5064" x2="419.8789" y2="257.5064"/>
  <circle class="uuid-57612e57-8967-45cb-9b58-f699da2653b7" cx="402.2386" cy="275.1467" r="2.8643"/>
  <path class="uuid-e9eb2a92-3e15-437a-9ba1-52bafaf4ebd0" d="M400.1093,275.1467c0-1.1753.954-2.1293,2.1293-2.1293s2.1293.954,2.1293,2.1293-.954,2.1293-2.1293,2.1293-2.1293-.954-2.1293-2.1293ZM399.3743,275.1467c0-1.581,1.2833-2.8643,2.8643-2.8643s2.8643,1.2833,2.8643,2.8643-1.2833,2.8643-2.8643,2.8643-2.8643-1.2833-2.8643-2.8643Z"/>
  <circle class="uuid-57612e57-8967-45cb-9b58-f699da2653b7" cx="393.4185" cy="239.8661" r="2.8643"/>
  <path class="uuid-e9eb2a92-3e15-437a-9ba1-52bafaf4ebd0" d="M391.2891,239.8661c0-1.1753.954-2.1293,2.1293-2.1293s2.1293.9541,2.1293,2.1293-.954,2.1293-2.1293,2.1293-2.1293-.954-2.1293-2.1293ZM390.5541,239.8661c0-1.581,1.2833-2.8643,2.8643-2.8643s2.8643,1.2833,2.8643,2.8643-1.2833,2.8643-2.8643,2.8643-2.8643-1.2833-2.8643-2.8643Z"/>
  <circle class="uuid-57612e57-8967-45cb-9b58-f699da2653b7" cx="411.0587" cy="239.8661" r="2.8643"/>
  <path class="uuid-e9eb2a92-3e15-437a-9ba1-52bafaf4ebd0" d="M408.9294,239.8661c0-1.1753.954-2.1293,2.1293-2.1293s2.1293.9541,2.1293,2.1293-.954,2.1293-2.1293,2.1293-2.1293-.954-2.1293-2.1293ZM408.1944,239.8661c0-1.581,1.2833-2.8643,2.8643-2.8643s2.8643,1.2833,2.8643,2.8643-1.2833,2.8643-2.8643,2.8643-2.8643-1.2833-2.8643-2.8643Z"/>
  <circle class="uuid-57612e57-8967-45cb-9b58-f699da2653b7" cx="419.8789" cy="257.5064" r="2.8643"/>
  <path class="uuid-e9eb2a92-3e15-437a-9ba1-52bafaf4ebd0" d="M417.7495,257.5064c0-1.1753.9541-2.1293,2.1293-2.1293s2.1293.9541,2.1293,2.1293-.954,2.1293-2.1293,2.1293-2.1293-.9541-2.1293-2.1293ZM417.0145,257.5064c0-1.581,1.2833-2.8643,2.8643-2.8643s2.8643,1.2833,2.8643,2.8643-1.2833,2.8643-2.8643,2.8643-2.8643-1.2833-2.8643-2.8643Z"/>
  <circle class="uuid-57612e57-8967-45cb-9b58-f699da2653b7" cx="384.5983" cy="257.5064" r="2.8643"/>
  <path class="uuid-e9eb2a92-3e15-437a-9ba1-52bafaf4ebd0" d="M382.469,257.5064c0-1.1753.954-2.1293,2.1293-2.1293s2.1293.9541,2.1293,2.1293-.954,2.1293-2.1293,2.1293-2.1293-.9541-2.1293-2.1293ZM381.734,257.5064c0-1.581,1.2833-2.8643,2.8643-2.8643s2.8643,1.2833,2.8643,2.8643-1.2833,2.8643-2.8643,2.8643-2.8643-1.2833-2.8643-2.8643Z"/>
  <circle class="uuid-57612e57-8967-45cb-9b58-f699da2653b7" cx="396.3585" cy="257.5064" r="2.8643"/>
  <path class="uuid-e9eb2a92-3e15-437a-9ba1-52bafaf4ebd0" d="M394.2292,257.5064c0-1.1753.954-2.1293,2.1293-2.1293s2.1293.9541,2.1293,2.1293-.954,2.1293-2.1293,2.1293-2.1293-.9541-2.1293-2.1293ZM393.4942,257.5064c0-1.581,1.2833-2.8643,2.8643-2.8643s2.8643,1.2833,2.8643,2.8643-1.2833,2.8643-2.8643,2.8643-2.8643-1.2833-2.8643-2.8643Z"/>
  <circle class="uuid-57612e57-8967-45cb-9b58-f699da2653b7" cx="408.1187" cy="257.5064" r="2.8643"/>
  <path class="uuid-e9eb2a92-3e15-437a-9ba1-52bafaf4ebd0" d="M405.9894,257.5064c0-1.1753.954-2.1293,2.1293-2.1293s2.1293.9541,2.1293,2.1293-.954,2.1293-2.1293,2.1293-2.1293-.9541-2.1293-2.1293ZM405.2543,257.5064c0-1.581,1.2833-2.8643,2.8643-2.8643s2.8643,1.2833,2.8643,2.8643-1.2833,2.8643-2.8643,2.8643-2.8643-1.2833-2.8643-2.8643Z"/>
  <g>
    <g>
      <rect class="uuid-23d3d8c5-12df-45ba-88a7-e29933733f5f" x="490.3249" y="354.4718" width="17.6403" height="17.6403" rx="3.5281" ry="3.5281"/>
      <polyline class="uuid-40bbffc9-8ecd-45bf-a318-555a34e1a597" points="494.5475 364.2114 497.7669 367.8887 503.7425 358.6951"/>
    </g>
    <g>
      <rect class="uuid-23d3d8c5-12df-45ba-88a7-e29933733f5f" x="525.8308" y="354.4718" width="17.6403" height="17.6403" rx="3.5281" ry="3.5281"/>
      <polyline class="uuid-40bbffc9-8ecd-45bf-a318-555a34e1a597" points="530.0534 364.2114 533.2728 367.8887 539.2484 358.6951"/>
    </g>
    <g>
      <rect class="uuid-23d3d8c5-12df-45ba-88a7-e29933733f5f" x="543.4711" y="354.4718" width="17.6403" height="17.6403" rx="3.5281" ry="3.5281"/>
      <polyline class="uuid-40bbffc9-8ecd-45bf-a318-555a34e1a597" points="547.6937 364.2114 550.9131 367.8887 556.8887 358.6951"/>
    </g>
    <g>
      <rect class="uuid-23d3d8c5-12df-45ba-88a7-e29933733f5f" x="561.1113" y="354.4718" width="17.6403" height="17.6403" rx="3.5281" ry="3.5281"/>
      <polyline class="uuid-40bbffc9-8ecd-45bf-a318-555a34e1a597" points="565.334 364.2114 568.5534 367.8887 574.529 358.6951"/>
    </g>
    <g>
      <rect class="uuid-23d3d8c5-12df-45ba-88a7-e29933733f5f" x="472.6846" y="354.4718" width="17.6403" height="17.6403" rx="3.5281" ry="3.5281"/>
      <polyline class="uuid-40bbffc9-8ecd-45bf-a318-555a34e1a597" points="476.9073 364.2114 480.1266 367.8887 486.1022 358.6951"/>
    </g>
    <g>
      <rect class="uuid-56b702a9-9223-4e0a-b276-711c01d8fb4d" x="508.1905" y="354.4718" width="17.6403" height="17.6403" rx="3.5281" ry="3.5281"/>
      <line class="uuid-7d486291-31d1-44d9-81c1-04af136d4623" x1="512.4131" y1="358.6951" x2="521.6081" y2="367.8887"/>
      <line class="uuid-7d486291-31d1-44d9-81c1-04af136d4623" x1="512.4131" y1="367.8887" x2="521.6081" y2="358.6951"/>
    </g>
    <g>
      <rect class="uuid-56b702a9-9223-4e0a-b276-711c01d8fb4d" x="455.0443" y="354.4718" width="17.6403" height="17.6403" rx="3.5281" ry="3.5281"/>
      <line class="uuid-7d486291-31d1-44d9-81c1-04af136d4623" x1="459.267" y1="358.6951" x2="468.462" y2="367.8887"/>
      <line class="uuid-7d486291-31d1-44d9-81c1-04af136d4623" x1="459.267" y1="367.8887" x2="468.462" y2="358.6951"/>
    </g>
    <g>
      <rect class="uuid-56b702a9-9223-4e0a-b276-711c01d8fb4d" x="437.4041" y="354.4718" width="17.6403" height="17.6403" rx="3.5281" ry="3.5281"/>
      <line class="uuid-7d486291-31d1-44d9-81c1-04af136d4623" x1="441.6267" y1="358.6951" x2="450.8217" y2="367.8887"/>
      <line class="uuid-7d486291-31d1-44d9-81c1-04af136d4623" x1="441.6267" y1="367.8887" x2="450.8217" y2="358.6951"/>
    </g>
  </g>
  <g>
    <g>
      <rect class="uuid-23d3d8c5-12df-45ba-88a7-e29933733f5f" x="163.3566" y="354.4718" width="17.6403" height="17.6403" rx="3.5281" ry="3.5281"/>
      <polyline class="uuid-40bbffc9-8ecd-45bf-a318-555a34e1a597" points="167.5793 364.2114 170.7987 367.8887 176.7743 358.6951"/>
    </g>
    <g>
      <rect class="uuid-23d3d8c5-12df-45ba-88a7-e29933733f5f" x="198.8625" y="354.4718" width="17.6403" height="17.6403" rx="3.5281" ry="3.5281"/>
      <polyline class="uuid-40bbffc9-8ecd-45bf-a318-555a34e1a597" points="203.0852 364.2114 206.3045 367.8887 212.2801 358.6951"/>
    </g>
    <g>
      <rect class="uuid-23d3d8c5-12df-45ba-88a7-e29933733f5f" x="216.5028" y="354.4718" width="17.6403" height="17.6403" rx="3.5281" ry="3.5281"/>
      <polyline class="uuid-40bbffc9-8ecd-45bf-a318-555a34e1a597" points="220.7254 364.2114 223.9448 367.8887 229.9204 358.6951"/>
    </g>
    <g>
      <rect class="uuid-23d3d8c5-12df-45ba-88a7-e29933733f5f" x="234.1431" y="354.4718" width="17.6403" height="17.6403" rx="3.5281" ry="3.5281"/>
      <polyline class="uuid-40bbffc9-8ecd-45bf-a318-555a34e1a597" points="238.3657 364.2114 241.5851 367.8887 247.5607 358.6951"/>
    </g>
    <g>
      <rect class="uuid-23d3d8c5-12df-45ba-88a7-e29933733f5f" x="145.7163" y="354.4718" width="17.6403" height="17.6403" rx="3.5281" ry="3.5281"/>
      <polyline class="uuid-40bbffc9-8ecd-45bf-a318-555a34e1a597" points="149.939 364.2114 153.1584 367.8887 159.134 358.6951"/>
    </g>
    <g>
      <rect class="uuid-56b702a9-9223-4e0a-b276-711c01d8fb4d" x="181.2222" y="354.4718" width="17.6403" height="17.6403" rx="3.5281" ry="3.5281"/>
      <line class="uuid-7d486291-31d1-44d9-81c1-04af136d4623" x1="185.4449" y1="358.6951" x2="194.6399" y2="367.8887"/>
      <line class="uuid-7d486291-31d1-44d9-81c1-04af136d4623" x1="185.4449" y1="367.8887" x2="194.6399" y2="358.6951"/>
    </g>
    <g>
      <rect class="uuid-56b702a9-9223-4e0a-b276-711c01d8fb4d" x="128.0761" y="354.4718" width="17.6403" height="17.6403" rx="3.5281" ry="3.5281"/>
      <line class="uuid-7d486291-31d1-44d9-81c1-04af136d4623" x1="132.2987" y1="358.6951" x2="141.4937" y2="367.8887"/>
      <line class="uuid-7d486291-31d1-44d9-81c1-04af136d4623" x1="132.2987" y1="367.8887" x2="141.4937" y2="358.6951"/>
    </g>
    <g>
      <rect class="uuid-56b702a9-9223-4e0a-b276-711c01d8fb4d" x="110.4358" y="354.4718" width="17.6403" height="17.6403" rx="3.5281" ry="3.5281"/>
      <line class="uuid-7d486291-31d1-44d9-81c1-04af136d4623" x1="114.6584" y1="358.6951" x2="123.8534" y2="367.8887"/>
      <line class="uuid-7d486291-31d1-44d9-81c1-04af136d4623" x1="114.6584" y1="367.8887" x2="123.8534" y2="358.6951"/>
    </g>
  </g>
  <path class="uuid-e4804509-a69f-48ed-a0da-a6ebed5cbef2" d="M502.7882,310.2001h10.5842c1.9492,0,3.5317,1.5825,3.5317,3.5317v10.5805c0,1.9472-1.5809,3.5281-3.5281,3.5281h-10.5842c-1.9492,0-3.5317-1.5825-3.5317-3.5317v-10.5805c0-1.9472,1.5809-3.5281,3.5281-3.5281Z"/>
  <path class="uuid-56b702a9-9223-4e0a-b276-711c01d8fb4d" d="M502.7882,310.2001h10.5842c1.9492,0,3.5317,1.5825,3.5317,3.5317v10.5805c0,1.9472-1.5809,3.5281-3.5281,3.5281h-10.5842c-1.9492,0-3.5317-1.5825-3.5317-3.5317v-10.5805c0-1.9472,1.5809-3.5281,3.5281-3.5281Z"/>
  <g>
    <polyline class="uuid-2e89e7d4-ae83-4753-ab20-d74067db2c3a" points="512.2404 314.8619 503.9237 314.8619 508.1795 318.9228 503.9237 323.1785 512.2404 323.1785"/>
    <line class="uuid-2e89e7d4-ae83-4753-ab20-d74067db2c3a" x1="512.2404" y1="316.6266" x2="512.2404" y2="314.8619"/>
    <line class="uuid-2e89e7d4-ae83-4753-ab20-d74067db2c3a" x1="512.2404" y1="323.1785" x2="512.2404" y2="321.4138"/>
  </g>
  <line class="uuid-227c0af1-0a76-4131-8118-fe3df83e5a0e" x1="499.2601" y1="149.0264" x2="516.9003" y2="149.0264"/>
  <circle cx="499.2601" cy="149.0264" r="2.8643"/>
  <path class="uuid-cf0c854c-9613-4aa3-b0b2-f675b7f14684" d="M497.1308,149.0264c0-1.1753.954-2.1293,2.1293-2.1293s2.1293.9541,2.1293,2.1293-.954,2.1293-2.1293,2.1293-2.1293-.954-2.1293-2.1293ZM496.3957,149.0264c0-1.581,1.2833-2.8643,2.8644-2.8643s2.8643,1.2833,2.8643,2.8643-1.2833,2.8643-2.8643,2.8643-2.8644-1.2833-2.8644-2.8643Z"/>
  <circle cx="516.9003" cy="149.0264" r="2.8643"/>
  <path class="uuid-cf0c854c-9613-4aa3-b0b2-f675b7f14684" d="M514.771,149.0264c0-1.1753.9541-2.1293,2.1293-2.1293s2.1294.9541,2.1294,2.1293-.9541,2.1293-2.1294,2.1293-2.1293-.954-2.1293-2.1293ZM514.036,149.0264c0-1.581,1.2833-2.8643,2.8643-2.8643s2.8644,1.2833,2.8644,2.8643-1.2833,2.8643-2.8644,2.8643-2.8643-1.2833-2.8643-2.8643Z"/>
  <line class="uuid-227c0af1-0a76-4131-8118-fe3df83e5a0e" x1="490.4399" y1="166.6666" x2="525.7205" y2="166.6666"/>
  <circle cx="525.7205" cy="166.6666" r="2.8643"/>
  <path class="uuid-cf0c854c-9613-4aa3-b0b2-f675b7f14684" d="M523.5912,166.6666c0-1.1753.954-2.1293,2.1293-2.1293s2.1293.9541,2.1293,2.1293-.954,2.1293-2.1293,2.1293-2.1293-.9541-2.1293-2.1293ZM522.8562,166.6666c0-1.581,1.2833-2.8643,2.8643-2.8643s2.8644,1.2833,2.8644,2.8643-1.2833,2.8643-2.8644,2.8643-2.8643-1.2833-2.8643-2.8643Z"/>
  <circle cx="490.4399" cy="166.6666" r="2.8643"/>
  <path class="uuid-cf0c854c-9613-4aa3-b0b2-f675b7f14684" d="M488.3106,166.6666c0-1.1753.954-2.1293,2.1293-2.1293s2.1293.9541,2.1293,2.1293-.954,2.1293-2.1293,2.1293-2.1293-.9541-2.1293-2.1293ZM487.5756,166.6666c0-1.581,1.2833-2.8643,2.8644-2.8643s2.8644,1.2833,2.8644,2.8643-1.2833,2.8643-2.8644,2.8643-2.8644-1.2833-2.8644-2.8643Z"/>
  <circle cx="502.2001" cy="166.6666" r="2.8643"/>
  <path class="uuid-cf0c854c-9613-4aa3-b0b2-f675b7f14684" d="M500.0708,166.6666c0-1.1753.9541-2.1293,2.1293-2.1293s2.1294.9541,2.1294,2.1293-.9541,2.1293-2.1294,2.1293-2.1293-.9541-2.1293-2.1293ZM499.3358,166.6666c0-1.581,1.2833-2.8643,2.8643-2.8643s2.8644,1.2833,2.8644,2.8643-1.2833,2.8643-2.8644,2.8643-2.8643-1.2833-2.8643-2.8643Z"/>
  <circle cx="513.9603" cy="166.6666" r="2.8643"/>
  <path class="uuid-cf0c854c-9613-4aa3-b0b2-f675b7f14684" d="M511.831,166.6666c0-1.1753.954-2.1293,2.1293-2.1293s2.1293.9541,2.1293,2.1293-.954,2.1293-2.1293,2.1293-2.1293-.9541-2.1293-2.1293ZM511.096,166.6666c0-1.581,1.2833-2.8643,2.8644-2.8643s2.8643,1.2833,2.8643,2.8643-1.2833,2.8643-2.8643,2.8643-2.8644-1.2833-2.8644-2.8643Z"/>
  <line class="uuid-227c0af1-0a76-4131-8118-fe3df83e5a0e" x1="490.4399" y1="184.3069" x2="525.7205" y2="184.3069"/>
  <circle class="uuid-8a925ffd-31fd-4093-90e5-a1b50ee7d286" cx="525.7205" cy="184.3069" r="2.8643"/>
  <circle class="uuid-57612e57-8967-45cb-9b58-f699da2653b7" cx="490.4399" cy="184.3069" r="2.8643"/>
  <circle class="uuid-1889927c-06ca-41a1-a9d1-86de259eeb74" cx="502.2001" cy="184.3069" r="2.8643"/>
  <circle class="uuid-29160e3a-f29d-4306-97b5-a921cdd42782" cx="513.9603" cy="184.3069" r="2.8643"/>
  <text class="uuid-f8050985-8fea-479f-b9a1-2a9109fa81a2" transform="translate(28.676 262.8797) rotate(-90)"><tspan x="0" y="0">Quer</tspan><tspan class="uuid-bc4a7f9f-3087-4963-94cf-375ddd73ab23" x="28.9014" y="0">y</tspan><tspan x="38.7812" y="0">Network</tspan></text>
  <text class="uuid-44e6178c-455d-407c-8393-e4790d855e4e" transform="translate(160.1701 412.0125)"><tspan x="0" y="0">a) MLP</tspan></text>
  <line class="uuid-0b3c7b18-86f8-4b12-8afb-d97fcf0b3a01" x1="544.5305" y1="16.1146" x2="544.5305" y2="32.5163"/>
  <rect class="uuid-4b489724-8f1d-4423-9caf-ac6f27f496b5" x="304.1894" y="16.1146" width="17.6403" height="17.6403" rx="3.5281" ry="3.5281"/>
  <polyline class="uuid-40bbffc9-8ecd-45bf-a318-555a34e1a597" points="308.412 25.8542 311.6314 29.5315 317.607 20.338"/>
  <rect class="uuid-1a8269f9-8220-42cb-9631-fa1124d16653" x="430.865" y="16.1146" width="17.6403" height="17.6403" rx="3.5281" ry="3.5281"/>
  <g>
    <line class="uuid-7d486291-31d1-44d9-81c1-04af136d4623" x1="435.0877" y1="20.338" x2="444.2827" y2="29.5315"/>
    <line class="uuid-7d486291-31d1-44d9-81c1-04af136d4623" x1="435.0877" y1="29.5315" x2="444.2827" y2="20.338"/>
  </g>
  <text class="uuid-bfa84b3f-649e-4daf-a77f-0d1502f15050" transform="translate(330.8401 29.0999)"><tspan x="0" y="0">Occupied Space</tspan></text>
  <text class="uuid-bfa84b3f-649e-4daf-a77f-0d1502f15050" transform="translate(457.5139 29.0999)"><tspan x="0" y="0">Empty space</tspan></text>
  <text class="uuid-bfa84b3f-649e-4daf-a77f-0d1502f15050" transform="translate(557.8567 29.0999)"><tspan x="0" y="0">Unconditional</tspan></text>
  <line class="uuid-baedfb69-180a-4c1d-91d4-df04803280e8" x1="643.0767" y1="16.1146" x2="643.077" y2="32.5163"/>
  <text class="uuid-bfa84b3f-649e-4daf-a77f-0d1502f15050" transform="translate(656.4035 29.0999)"><tspan x="0" y="0">Conditional</tspan></text>
  <line class="uuid-0b3c7b18-86f8-4b12-8afb-d97fcf0b3a01" x1="181.1096" y1="101.9435" x2="181.1096" y2="188.4987"/>
  <polyline class="uuid-ac6d74b9-30be-4b4c-9601-42049f53c0f7" points="185.5196 181.4426 181.1096 188.4987 176.6995 181.4426"/>
  <path class="uuid-cf0c854c-9613-4aa3-b0b2-f675b7f14684" d="M266.5887,219.5389c0-1.581,1.2826-2.8643,2.8628-2.8643s2.863,1.2833,2.863,2.8643-1.2826,2.8643-2.863,2.8643-2.8628-1.2833-2.8628-2.8643Z"/>
  <path class="uuid-cf0c854c-9613-4aa3-b0b2-f675b7f14684" d="M267.3237,219.5389c0-1.1753.9518-2.1293,2.1278-2.1293s2.1279.9541,2.1279,2.1293-.9518,2.1293-2.1279,2.1293-2.1278-.9541-2.1278-2.1293ZM266.5887,219.5389c0-1.581,1.2826-2.8643,2.8628-2.8643s2.863,1.2833,2.863,2.8643-1.2826,2.8643-2.863,2.8643-2.8628-1.2833-2.8628-2.8643Z"/>
  <path class="uuid-cf0c854c-9613-4aa3-b0b2-f675b7f14684" d="M243.0683,219.5389c0-1.581,1.2826-2.8643,2.8629-2.8643s2.8628,1.2833,2.8628,2.8643-1.2826,2.8643-2.8628,2.8643-2.8629-1.2833-2.8629-2.8643Z"/>
  <path class="uuid-cf0c854c-9613-4aa3-b0b2-f675b7f14684" d="M243.8033,219.5389c0-1.1753.9518-2.1293,2.1279-2.1293s2.1278.9541,2.1278,2.1293-.9518,2.1293-2.1278,2.1293-2.1279-.9541-2.1279-2.1293ZM243.0683,219.5389c0-1.581,1.2826-2.8643,2.8629-2.8643s2.8628,1.2833,2.8628,2.8643-1.2826,2.8643-2.8628,2.8643-2.8629-1.2833-2.8629-2.8643Z"/>
  <circle cx="281.2117" cy="219.5389" r="2.8636"/>
  <path class="uuid-cf0c854c-9613-4aa3-b0b2-f675b7f14684" d="M279.0839,219.5389c0-1.1753.9518-2.1293,2.1279-2.1293s2.1279.9541,2.1279,2.1293-.9518,2.1293-2.1279,2.1293-2.1279-.9541-2.1279-2.1293ZM278.3489,219.5389c0-1.581,1.2826-2.8643,2.8628-2.8643s2.8628,1.2833,2.8628,2.8643-1.2826,2.8643-2.8628,2.8643-2.8628-1.2833-2.8628-2.8643Z"/>
  <path class="uuid-cf0c854c-9613-4aa3-b0b2-f675b7f14684" d="M290.109,219.5389c0-1.581,1.2826-2.8643,2.863-2.8643s2.8628,1.2833,2.8628,2.8643-1.2826,2.8643-2.8628,2.8643-2.863-1.2833-2.863-2.8643Z"/>
  <path class="uuid-cf0c854c-9613-4aa3-b0b2-f675b7f14684" d="M290.8441,219.5389c0-1.1753.9518-2.1293,2.1279-2.1293s2.1278.9541,2.1278,2.1293-.9518,2.1293-2.1278,2.1293-2.1279-.9541-2.1279-2.1293ZM290.109,219.5389c0-1.581,1.2826-2.8643,2.863-2.8643s2.8628,1.2833,2.8628,2.8643-1.2826,2.8643-2.8628,2.8643-2.863-1.2833-2.863-2.8643Z"/>
  <circle cx="257.6914" cy="219.5389" r="2.8636"/>
  <path class="uuid-cf0c854c-9613-4aa3-b0b2-f675b7f14684" d="M255.5635,219.5389c0-1.1753.9518-2.1293,2.1279-2.1293s2.1279.9541,2.1279,2.1293-.9518,2.1293-2.1279,2.1293-2.1279-.9541-2.1279-2.1293ZM254.8286,219.5389c0-1.581,1.2826-2.8643,2.8628-2.8643s2.8628,1.2833,2.8628,2.8643-1.2826,2.8643-2.8628,2.8643-2.8628-1.2833-2.8628-2.8643Z"/>
  <path class="uuid-cf0c854c-9613-4aa3-b0b2-f675b7f14684" d="M301.8692,219.5389c0-1.581,1.2826-2.8643,2.8628-2.8643s2.863,1.2833,2.863,2.8643-1.2826,2.8643-2.863,2.8643-2.8628-1.2833-2.8628-2.8643Z"/>
  <path class="uuid-cf0c854c-9613-4aa3-b0b2-f675b7f14684" d="M302.6043,219.5389c0-1.1753.9518-2.1293,2.1278-2.1293s2.1279.9541,2.1279,2.1293-.9518,2.1293-2.1279,2.1293-2.1278-.9541-2.1278-2.1293ZM301.8692,219.5389c0-1.581,1.2826-2.8643,2.8628-2.8643s2.863,1.2833,2.863,2.8643-1.2826,2.8643-2.863,2.8643-2.8628-1.2833-2.8628-2.8643Z"/>
  <line class="uuid-227c0af1-0a76-4131-8118-fe3df83e5a0e" x1="57.8445" y1="219.5389" x2="304.8083" y2="219.5389"/>
  <path class="uuid-cf0c854c-9613-4aa3-b0b2-f675b7f14684" d="M178.4635,237.3974c0-1.581,1.2826-2.8643,2.8628-2.8643s2.8629,1.2833,2.8629,2.8643-1.2826,2.8643-2.8629,2.8643-2.8628-1.2833-2.8628-2.8643Z"/>
  <line class="uuid-227c0af1-0a76-4131-8118-fe3df83e5a0e" x1="172.5063" y1="201.8986" x2="190.1465" y2="201.8986"/>
  <path class="uuid-cf0c854c-9613-4aa3-b0b2-f675b7f14684" d="M169.6434,201.8986c0-1.581,1.2826-2.8643,2.8629-2.8643s2.8628,1.2833,2.8628,2.8643-1.2826,2.8643-2.8628,2.8643-2.8629-1.2833-2.8629-2.8643Z"/>
  <path class="uuid-cf0c854c-9613-4aa3-b0b2-f675b7f14684" d="M170.3784,201.8986c0-1.1753.9518-2.1293,2.1279-2.1293s2.1278.9541,2.1278,2.1293-.9518,2.1293-2.1278,2.1293-2.1279-.954-2.1279-2.1293ZM169.6434,201.8986c0-1.581,1.2826-2.8643,2.8629-2.8643s2.8628,1.2833,2.8628,2.8643-1.2826,2.8643-2.8628,2.8643-2.8629-1.2833-2.8629-2.8643Z"/>
  <path class="uuid-cf0c854c-9613-4aa3-b0b2-f675b7f14684" d="M187.2837,201.8986c0-1.581,1.2826-2.8643,2.8628-2.8643s2.8629,1.2833,2.8629,2.8643-1.2826,2.8643-2.8629,2.8643-2.8628-1.2833-2.8628-2.8643Z"/>
  <path class="uuid-cf0c854c-9613-4aa3-b0b2-f675b7f14684" d="M188.0187,201.8986c0-1.1753.9518-2.1293,2.1278-2.1293s2.1279.9541,2.1279,2.1293-.9518,2.1293-2.1279,2.1293-2.1278-.954-2.1278-2.1293ZM187.2837,201.8986c0-1.581,1.2826-2.8643,2.8628-2.8643s2.8629,1.2833,2.8629,2.8643-1.2826,2.8643-2.8629,2.8643-2.8628-1.2833-2.8628-2.8643Z"/>
  <circle cx="93.1251" cy="219.5389" r="2.8636"/>
  <path class="uuid-cf0c854c-9613-4aa3-b0b2-f675b7f14684" d="M90.9972,219.5389c0-1.1753.9518-2.1293,2.1278-2.1293s2.1278.9541,2.1278,2.1293-.9518,2.1293-2.1278,2.1293-2.1278-.9541-2.1278-2.1293ZM90.2622,219.5389c0-1.581,1.2826-2.8643,2.8629-2.8643s2.8629,1.2833,2.8629,2.8643-1.2826,2.8643-2.8629,2.8643-2.8629-1.2833-2.8629-2.8643Z"/>
  <path class="uuid-cf0c854c-9613-4aa3-b0b2-f675b7f14684" d="M196.1038,219.5389c0-1.581,1.2826-2.8643,2.8629-2.8643s2.8628,1.2833,2.8628,2.8643-1.2826,2.8643-2.8628,2.8643-2.8629-1.2833-2.8629-2.8643Z"/>
  <path class="uuid-cf0c854c-9613-4aa3-b0b2-f675b7f14684" d="M196.8388,219.5389c0-1.1753.9518-2.1293,2.1279-2.1293s2.1278.9541,2.1278,2.1293-.9518,2.1293-2.1278,2.1293-2.1279-.9541-2.1279-2.1293ZM196.1038,219.5389c0-1.581,1.2826-2.8643,2.8629-2.8643s2.8628,1.2833,2.8628,2.8643-1.2826,2.8643-2.8628,2.8643-2.8629-1.2833-2.8629-2.8643Z"/>
  <path class="uuid-cf0c854c-9613-4aa3-b0b2-f675b7f14684" d="M160.8233,219.5389c0-1.581,1.2826-2.8643,2.8628-2.8643s2.8629,1.2833,2.8629,2.8643-1.2826,2.8643-2.8629,2.8643-2.8628-1.2833-2.8628-2.8643Z"/>
  <path class="uuid-cf0c854c-9613-4aa3-b0b2-f675b7f14684" d="M161.5583,219.5389c0-1.1753.9518-2.1293,2.1278-2.1293s2.1279.9541,2.1279,2.1293-.9518,2.1293-2.1279,2.1293-2.1278-.9541-2.1278-2.1293ZM160.8233,219.5389c0-1.581,1.2826-2.8643,2.8628-2.8643s2.8629,1.2833,2.8629,2.8643-1.2826,2.8643-2.8629,2.8643-2.8628-1.2833-2.8628-2.8643Z"/>
  <path class="uuid-cf0c854c-9613-4aa3-b0b2-f675b7f14684" d="M125.5427,219.5389c0-1.581,1.2826-2.8643,2.8629-2.8643s2.8628,1.2833,2.8628,2.8643-1.2826,2.8643-2.8628,2.8643-2.8629-1.2833-2.8629-2.8643Z"/>
  <path class="uuid-cf0c854c-9613-4aa3-b0b2-f675b7f14684" d="M126.2777,219.5389c0-1.1753.9518-2.1293,2.1279-2.1293s2.1278.9541,2.1278,2.1293-.9518,2.1293-2.1278,2.1293-2.1279-.9541-2.1279-2.1293ZM125.5427,219.5389c0-1.581,1.2826-2.8643,2.8629-2.8643s2.8628,1.2833,2.8628,2.8643-1.2826,2.8643-2.8628,2.8643-2.8629-1.2833-2.8629-2.8643Z"/>
  <path class="uuid-cf0c854c-9613-4aa3-b0b2-f675b7f14684" d="M231.3844,219.5389c0-1.581,1.2826-2.8643,2.8628-2.8643s2.8629,1.2833,2.8629,2.8643-1.2826,2.8643-2.8629,2.8643-2.8628-1.2833-2.8628-2.8643Z"/>
  <path class="uuid-cf0c854c-9613-4aa3-b0b2-f675b7f14684" d="M232.1194,219.5389c0-1.1753.9518-2.1293,2.1278-2.1293s2.1279.9541,2.1279,2.1293-.9518,2.1293-2.1279,2.1293-2.1278-.9541-2.1278-2.1293ZM231.3844,219.5389c0-1.581,1.2826-2.8643,2.8628-2.8643s2.8629,1.2833,2.8629,2.8643-1.2826,2.8643-2.8629,2.8643-2.8628-1.2833-2.8628-2.8643Z"/>
  <path class="uuid-cf0c854c-9613-4aa3-b0b2-f675b7f14684" d="M66.7418,219.5389c0-1.581,1.2826-2.8643,2.8629-2.8643s2.8628,1.2833,2.8628,2.8643-1.2826,2.8643-2.8628,2.8643-2.8629-1.2833-2.8629-2.8643Z"/>
  <path class="uuid-cf0c854c-9613-4aa3-b0b2-f675b7f14684" d="M67.4768,219.5389c0-1.1753.9518-2.1293,2.1279-2.1293s2.1278.9541,2.1278,2.1293-.9518,2.1293-2.1278,2.1293-2.1279-.9541-2.1279-2.1293ZM66.7418,219.5389c0-1.581,1.2826-2.8643,2.8629-2.8643s2.8628,1.2833,2.8628,2.8643-1.2826,2.8643-2.8628,2.8643-2.8629-1.2833-2.8629-2.8643Z"/>
  <path class="uuid-cf0c854c-9613-4aa3-b0b2-f675b7f14684" d="M54.9817,219.5389c0-1.581,1.2826-2.8643,2.8628-2.8643s2.8629,1.2833,2.8629,2.8643-1.2826,2.8643-2.8629,2.8643-2.8628-1.2833-2.8628-2.8643Z"/>
  <path class="uuid-cf0c854c-9613-4aa3-b0b2-f675b7f14684" d="M55.7167,219.5389c0-1.1753.9518-2.1293,2.1278-2.1293s2.1279.9541,2.1279,2.1293-.9518,2.1293-2.1279,2.1293-2.1278-.9541-2.1278-2.1293ZM54.9817,219.5389c0-1.581,1.2826-2.8643,2.8628-2.8643s2.8629,1.2833,2.8629,2.8643-1.2826,2.8643-2.8629,2.8643-2.8628-1.2833-2.8628-2.8643Z"/>
  <path class="uuid-cf0c854c-9613-4aa3-b0b2-f675b7f14684" d="M137.3029,219.5389c0-1.581,1.2826-2.8643,2.8629-2.8643s2.8628,1.2833,2.8628,2.8643-1.2826,2.8643-2.8628,2.8643-2.8629-1.2833-2.8629-2.8643Z"/>
  <path class="uuid-cf0c854c-9613-4aa3-b0b2-f675b7f14684" d="M138.0379,219.5389c0-1.1753.9518-2.1293,2.1279-2.1293s2.1278.9541,2.1278,2.1293-.9518,2.1293-2.1278,2.1293-2.1279-.9541-2.1279-2.1293ZM137.3029,219.5389c0-1.581,1.2826-2.8643,2.8629-2.8643s2.8628,1.2833,2.8628,2.8643-1.2826,2.8643-2.8628,2.8643-2.8629-1.2833-2.8629-2.8643Z"/>
  <path class="uuid-cf0c854c-9613-4aa3-b0b2-f675b7f14684" d="M102.0224,219.5389c0-1.581,1.2826-2.8643,2.8628-2.8643s2.8629,1.2833,2.8629,2.8643-1.2826,2.8643-2.8629,2.8643-2.8628-1.2833-2.8628-2.8643Z"/>
  <path class="uuid-cf0c854c-9613-4aa3-b0b2-f675b7f14684" d="M102.7574,219.5389c0-1.1753.9518-2.1293,2.1278-2.1293s2.1279.9541,2.1279,2.1293-.9518,2.1293-2.1279,2.1293-2.1278-.9541-2.1278-2.1293ZM102.0224,219.5389c0-1.581,1.2826-2.8643,2.8628-2.8643s2.8629,1.2833,2.8629,2.8643-1.2826,2.8643-2.8629,2.8643-2.8628-1.2833-2.8628-2.8643Z"/>
  <circle cx="210.7269" cy="219.5389" r="2.8636"/>
  <path class="uuid-cf0c854c-9613-4aa3-b0b2-f675b7f14684" d="M208.599,219.5389c0-1.1753.9518-2.1293,2.1278-2.1293s2.1278.9541,2.1278,2.1293-.9518,2.1293-2.1278,2.1293-2.1278-.9541-2.1278-2.1293ZM207.864,219.5389c0-1.581,1.2826-2.8643,2.8629-2.8643s2.8629,1.2833,2.8629,2.8643-1.2826,2.8643-2.8629,2.8643-2.8629-1.2833-2.8629-2.8643Z"/>
  <path class="uuid-cf0c854c-9613-4aa3-b0b2-f675b7f14684" d="M172.5835,219.5389c0-1.581,1.2826-2.8643,2.8628-2.8643s2.8629,1.2833,2.8629,2.8643-1.2826,2.8643-2.8629,2.8643-2.8628-1.2833-2.8628-2.8643Z"/>
  <path class="uuid-cf0c854c-9613-4aa3-b0b2-f675b7f14684" d="M173.3185,219.5389c0-1.1753.9518-2.1293,2.1278-2.1293s2.1279.9541,2.1279,2.1293-.9518,2.1293-2.1279,2.1293-2.1278-.9541-2.1278-2.1293ZM172.5835,219.5389c0-1.581,1.2826-2.8643,2.8628-2.8643s2.8629,1.2833,2.8629,2.8643-1.2826,2.8643-2.8629,2.8643-2.8628-1.2833-2.8628-2.8643Z"/>
  <path class="uuid-cf0c854c-9613-4aa3-b0b2-f675b7f14684" d="M78.502,219.5389c0-1.581,1.2826-2.8643,2.8629-2.8643s2.8628,1.2833,2.8628,2.8643-1.2826,2.8643-2.8628,2.8643-2.8629-1.2833-2.8629-2.8643Z"/>
  <path class="uuid-cf0c854c-9613-4aa3-b0b2-f675b7f14684" d="M79.237,219.5389c0-1.1753.9518-2.1293,2.1279-2.1293s2.1278.9541,2.1278,2.1293-.9518,2.1293-2.1278,2.1293-2.1279-.9541-2.1279-2.1293ZM78.502,219.5389c0-1.581,1.2826-2.8643,2.8629-2.8643s2.8628,1.2833,2.8628,2.8643-1.2826,2.8643-2.8628,2.8643-2.8629-1.2833-2.8629-2.8643Z"/>
  <circle cx="151.926" cy="219.5389" r="2.8636"/>
  <path class="uuid-cf0c854c-9613-4aa3-b0b2-f675b7f14684" d="M149.7981,219.5389c0-1.1753.9518-2.1293,2.1278-2.1293s2.1278.9541,2.1278,2.1293-.9518,2.1293-2.1278,2.1293-2.1278-.9541-2.1278-2.1293ZM149.0631,219.5389c0-1.581,1.2826-2.8643,2.8629-2.8643s2.8629,1.2833,2.8629,2.8643-1.2826,2.8643-2.8629,2.8643-2.8629-1.2833-2.8629-2.8643Z"/>
  <path class="uuid-cf0c854c-9613-4aa3-b0b2-f675b7f14684" d="M113.7826,219.5389c0-1.581,1.2826-2.8643,2.8628-2.8643s2.8629,1.2833,2.8629,2.8643-1.2826,2.8643-2.8629,2.8643-2.8628-1.2833-2.8628-2.8643Z"/>
  <path class="uuid-cf0c854c-9613-4aa3-b0b2-f675b7f14684" d="M114.5176,219.5389c0-1.1753.9518-2.1293,2.1278-2.1293s2.1279.9541,2.1279,2.1293-.9518,2.1293-2.1279,2.1293-2.1278-.9541-2.1278-2.1293ZM113.7826,219.5389c0-1.581,1.2826-2.8643,2.8628-2.8643s2.8629,1.2833,2.8629,2.8643-1.2826,2.8643-2.8629,2.8643-2.8628-1.2833-2.8628-2.8643Z"/>
  <path class="uuid-cf0c854c-9613-4aa3-b0b2-f675b7f14684" d="M219.6242,219.5389c0-1.581,1.2826-2.8643,2.8628-2.8643s2.8629,1.2833,2.8629,2.8643-1.2826,2.8643-2.8629,2.8643-2.8628-1.2833-2.8628-2.8643Z"/>
  <path class="uuid-cf0c854c-9613-4aa3-b0b2-f675b7f14684" d="M220.3592,219.5389c0-1.1753.9518-2.1293,2.1278-2.1293s2.1279.9541,2.1279,2.1293-.9518,2.1293-2.1279,2.1293-2.1278-.9541-2.1278-2.1293ZM219.6242,219.5389c0-1.581,1.2826-2.8643,2.8628-2.8643s2.8629,1.2833,2.8629,2.8643-1.2826,2.8643-2.8629,2.8643-2.8628-1.2833-2.8628-2.8643Z"/>
  <path class="uuid-cf0c854c-9613-4aa3-b0b2-f675b7f14684" d="M184.3436,219.5389c0-1.581,1.2826-2.8643,2.8629-2.8643s2.8628,1.2833,2.8628,2.8643-1.2826,2.8643-2.8628,2.8643-2.8629-1.2833-2.8629-2.8643Z"/>
  <path class="uuid-cf0c854c-9613-4aa3-b0b2-f675b7f14684" d="M185.0786,219.5389c0-1.1753.9518-2.1293,2.1279-2.1293s2.1278.9541,2.1278,2.1293-.9518,2.1293-2.1278,2.1293-2.1279-.9541-2.1279-2.1293ZM184.3436,219.5389c0-1.581,1.2826-2.8643,2.8629-2.8643s2.8628,1.2833,2.8628,2.8643-1.2826,2.8643-2.8628,2.8643-2.8629-1.2833-2.8629-2.8643Z"/>
  <path class="uuid-0b3c7b18-86f8-4b12-8afb-d97fcf0b3a01" d="M181.2198,249.4213s.0053,94.2414.0024,96.2303"/>
  <text class="uuid-addea4c0-3d99-488f-a36e-a41c38b6462b" transform="translate(134.3699 72.097)"><tspan x="0" y="0">Batc</tspan><tspan class="uuid-bc4a7f9f-3087-4963-94cf-375ddd73ab23" x="26.0127" y="0">h</tspan><tspan x="36.6226" y="0">o</tspan><tspan class="uuid-bc4a7f9f-3087-4963-94cf-375ddd73ab23" x="43.8525" y="0">f</tspan><tspan x="50.8442" y="0">queries</tspan></text>
  <rect class="uuid-57612e57-8967-45cb-9b58-f699da2653b7" x="731.0634" y="238.5783" width="10.6209" height="9.1832" rx="1" ry="1"/>
  <rect class="uuid-57612e57-8967-45cb-9b58-f699da2653b7" x="717.168" y="238.5783" width="10.6209" height="9.1832" rx="1" ry="1"/>
  <g>
    <path class="uuid-55db4c86-6e47-4aa8-8806-ca29dc37dc44" d="M243.8368,87.8313c0-1.947-1.4026-3.5281-3.1314-3.5281h-119.1916c-1.7288,0-3.1315,1.581-3.1315,3.5281v10.5842c0,1.947,1.4026,3.5281,3.1315,3.5281h119.1916c1.7288,0,3.1314-1.581,3.1314-3.5281v-10.5842Z"/>
    <rect class="uuid-dad9ce10-0b1d-4b1f-a25a-cbd4d1a326d8" x="123.1521" y="88.5318" width="10.6209" height="9.1832" rx="1" ry="1"/>
    <rect class="uuid-dad9ce10-0b1d-4b1f-a25a-cbd4d1a326d8" x="138.1941" y="88.5318" width="10.6209" height="9.1832" rx="1" ry="1"/>
    <rect class="uuid-dad9ce10-0b1d-4b1f-a25a-cbd4d1a326d8" x="153.2361" y="88.5318" width="10.6209" height="9.1832" rx="1" ry="1"/>
    <rect class="uuid-dad9ce10-0b1d-4b1f-a25a-cbd4d1a326d8" x="168.2781" y="88.5318" width="10.6209" height="9.1832" rx="1" ry="1"/>
    <rect class="uuid-dad9ce10-0b1d-4b1f-a25a-cbd4d1a326d8" x="183.3201" y="88.5318" width="10.6209" height="9.1832" rx="1" ry="1"/>
    <rect class="uuid-dad9ce10-0b1d-4b1f-a25a-cbd4d1a326d8" x="198.3621" y="88.5318" width="10.6209" height="9.1832" rx="1" ry="1"/>
    <rect class="uuid-dad9ce10-0b1d-4b1f-a25a-cbd4d1a326d8" x="213.4041" y="88.5318" width="10.6209" height="9.1832" rx="1" ry="1"/>
    <rect class="uuid-dad9ce10-0b1d-4b1f-a25a-cbd4d1a326d8" x="228.4462" y="88.5318" width="10.6209" height="9.1832" rx="1" ry="1"/>
  </g>
  <g>
    <path class="uuid-55db4c86-6e47-4aa8-8806-ca29dc37dc44" d="M570.6924,87.8313c0-1.947-1.4026-3.5281-3.1314-3.5281h-119.1916c-1.7288,0-3.1315,1.581-3.1315,3.5281v10.5842c0,1.947,1.4026,3.5281,3.1315,3.5281h119.1916c1.7288,0,3.1314-1.581,3.1314-3.5281v-10.5842Z"/>
    <rect class="uuid-dad9ce10-0b1d-4b1f-a25a-cbd4d1a326d8" x="450.0077" y="88.5318" width="10.6209" height="9.1832" rx="1" ry="1"/>
    <rect class="uuid-dad9ce10-0b1d-4b1f-a25a-cbd4d1a326d8" x="465.0497" y="88.5318" width="10.6209" height="9.1832" rx="1" ry="1"/>
    <rect class="uuid-dad9ce10-0b1d-4b1f-a25a-cbd4d1a326d8" x="480.0917" y="88.5318" width="10.6209" height="9.1832" rx="1" ry="1"/>
    <rect class="uuid-dad9ce10-0b1d-4b1f-a25a-cbd4d1a326d8" x="495.1337" y="88.5318" width="10.6209" height="9.1832" rx="1" ry="1"/>
    <rect class="uuid-dad9ce10-0b1d-4b1f-a25a-cbd4d1a326d8" x="510.1757" y="88.5318" width="10.6209" height="9.1832" rx="1" ry="1"/>
    <rect class="uuid-dad9ce10-0b1d-4b1f-a25a-cbd4d1a326d8" x="525.2177" y="88.5318" width="10.6209" height="9.1832" rx="1" ry="1"/>
    <rect class="uuid-dad9ce10-0b1d-4b1f-a25a-cbd4d1a326d8" x="540.2598" y="88.5318" width="10.6209" height="9.1832" rx="1" ry="1"/>
    <rect class="uuid-dad9ce10-0b1d-4b1f-a25a-cbd4d1a326d8" x="555.3018" y="88.5318" width="10.6209" height="9.1832" rx="1" ry="1"/>
  </g>
  <g>
    <path class="uuid-55db4c86-6e47-4aa8-8806-ca29dc37dc44" d="M897.8847,87.8313c0-1.947-1.4026-3.5281-3.1314-3.5281h-119.1916c-1.7288,0-3.1315,1.581-3.1315,3.5281v10.5842c0,1.947,1.4026,3.5281,3.1315,3.5281h119.1916c1.7288,0,3.1314-1.581,3.1314-3.5281v-10.5842Z"/>
    <rect class="uuid-dad9ce10-0b1d-4b1f-a25a-cbd4d1a326d8" x="777.2" y="88.5318" width="10.6209" height="9.1832" rx="1" ry="1"/>
    <rect class="uuid-dad9ce10-0b1d-4b1f-a25a-cbd4d1a326d8" x="792.242" y="88.5318" width="10.6209" height="9.1832" rx="1" ry="1"/>
    <rect class="uuid-dad9ce10-0b1d-4b1f-a25a-cbd4d1a326d8" x="807.284" y="88.5318" width="10.6209" height="9.1832" rx="1" ry="1"/>
    <rect class="uuid-dad9ce10-0b1d-4b1f-a25a-cbd4d1a326d8" x="822.326" y="88.5318" width="10.6209" height="9.1832" rx="1" ry="1"/>
    <rect class="uuid-dad9ce10-0b1d-4b1f-a25a-cbd4d1a326d8" x="837.368" y="88.5318" width="10.6209" height="9.1832" rx="1" ry="1"/>
    <rect class="uuid-dad9ce10-0b1d-4b1f-a25a-cbd4d1a326d8" x="852.41" y="88.5318" width="10.6209" height="9.1832" rx="1" ry="1"/>
    <rect class="uuid-dad9ce10-0b1d-4b1f-a25a-cbd4d1a326d8" x="867.4521" y="88.5318" width="10.6209" height="9.1832" rx="1" ry="1"/>
    <rect class="uuid-dad9ce10-0b1d-4b1f-a25a-cbd4d1a326d8" x="882.4941" y="88.5318" width="10.6209" height="9.1832" rx="1" ry="1"/>
  </g>
  <rect class="uuid-1889927c-06ca-41a1-a9d1-86de259eeb74" x="801.6244" y="238.5783" width="10.6209" height="9.1832" rx="1" ry="1"/>
  <rect class="uuid-1889927c-06ca-41a1-a9d1-86de259eeb74" x="787.7291" y="238.5783" width="10.6209" height="9.1832" rx="1" ry="1"/>
  <rect class="uuid-29160e3a-f29d-4306-97b5-a921cdd42782" x="872.1855" y="238.5783" width="10.6209" height="9.1832" rx="1" ry="1"/>
  <rect class="uuid-29160e3a-f29d-4306-97b5-a921cdd42782" x="858.2901" y="238.5783" width="10.6209" height="9.1832" rx="1" ry="1"/>
  <rect class="uuid-8a925ffd-31fd-4093-90e5-a1b50ee7d286" x="942.7466" y="238.5783" width="10.6209" height="9.1832" rx="1" ry="1"/>
  <rect class="uuid-8a925ffd-31fd-4093-90e5-a1b50ee7d286" x="928.8512" y="238.5783" width="10.6209" height="9.1832" rx="1" ry="1"/>
  <path class="uuid-a019889b-62c5-4546-a11b-17bd768d1822" d="M897.8847,204.8628c0-1.947-1.4026-3.5281-3.1314-3.5281h-119.1916c-1.7288,0-3.1315,1.581-3.1315,3.5281v10.5842c0,1.947,1.4026,3.5281,3.1315,3.5281h119.1916c1.7288,0,3.1314-1.581,3.1314-3.5281v-10.5842Z"/>
  <rect class="uuid-1889927c-06ca-41a1-a9d1-86de259eeb74" x="777.2" y="205.5632" width="10.6209" height="9.1832" rx="1" ry="1"/>
  <rect class="uuid-57612e57-8967-45cb-9b58-f699da2653b7" x="792.242" y="205.5632" width="10.6209" height="9.1832" rx="1" ry="1"/>
  <rect class="uuid-29160e3a-f29d-4306-97b5-a921cdd42782" x="807.284" y="205.5632" width="10.6209" height="9.1832" rx="1" ry="1"/>
  <rect class="uuid-57612e57-8967-45cb-9b58-f699da2653b7" x="822.326" y="205.5632" width="10.6209" height="9.1832" rx="1" ry="1"/>
  <rect class="uuid-29160e3a-f29d-4306-97b5-a921cdd42782" x="837.368" y="205.5632" width="10.6209" height="9.1832" rx="1" ry="1"/>
  <rect class="uuid-1889927c-06ca-41a1-a9d1-86de259eeb74" x="852.41" y="205.5632" width="10.6209" height="9.1832" rx="1" ry="1"/>
  <rect class="uuid-8a925ffd-31fd-4093-90e5-a1b50ee7d286" x="867.4521" y="205.5632" width="10.6209" height="9.1832" rx="1" ry="1"/>
  <rect class="uuid-8a925ffd-31fd-4093-90e5-a1b50ee7d286" x="882.4941" y="205.5632" width="10.6209" height="9.1832" rx="1" ry="1"/>
</svg>