<?xml version="1.0" encoding="UTF-8" standalone="no"?>
<!DOCTYPE svg PUBLIC "-//W3C//DTD SVG 1.1//EN" "http://www.w3.org/Graphics/SVG/1.1/DTD/svg11.dtd">
<svg width="100%" height="100%" viewBox="0 0 3840 2160" version="1.1" xmlns="http://www.w3.org/2000/svg" xmlns:xlink="http://www.w3.org/1999/xlink" xml:space="preserve" xmlns:serif="http://www.serif.com/" style="fill-rule:evenodd;clip-rule:evenodd;stroke-linecap:round;stroke-linejoin:round;stroke-miterlimit:1.5;">
    <g transform="matrix(2.25707,0,0,1.51757,0,0)">
        <rect x="0" y="0" width="1701.32" height="1423.33"/>
    </g>
    <g>
        <text x="240px" y="288px" style="font-family:'Poppins-Bold', 'Poppins';font-weight:700;font-size:50px;fill:white;">LINEAR GROWTH</text>
        <text x="240px" y="360px" style="font-family:'Poppins-ExtraLight', 'Poppins';font-weight:275;font-size:50px;fill:white;">CONCEPT</text>
    </g>
    <g transform="matrix(0.875,0,0,0.875,-330,135)">
        <g>
            <g transform="matrix(0.85,0,0,1,-636,120)">
                <path d="M1920,960L2400,960" style="fill:none;stroke:white;stroke-width:2.46px;"/>
            </g>
            <g transform="matrix(1.5,0,0,1.5,-1236,-180)">
                <circle cx="1488" cy="840" r="24" style="fill:rgb(28,28,28);stroke:white;stroke-width:3.81px;"/>
            </g>
            <g transform="matrix(1.5,0,0,1.5,-828,-180)">
                <circle cx="1488" cy="840" r="24" style="fill:rgb(28,28,28);stroke:white;stroke-width:3.81px;"/>
            </g>
        </g>
        <g transform="matrix(1.14286,0,0,1.14286,377.143,-154.286)">
            <path d="M720,917.402C764.187,868.931 827.818,838.5 898.5,838.5C1031.79,838.5 1140,946.713 1140,1080C1140,1213.29 1031.79,1321.5 898.5,1321.5C827.818,1321.5 764.187,1291.07 720,1242.6M720,1242.6C675.813,1291.07 612.182,1321.5 541.5,1321.5C408.213,1321.5 300,1213.29 300,1080C300,946.713 408.213,838.5 541.5,838.5C612.182,838.5 675.813,868.931 720,917.402" style="fill:none;stroke:white;stroke-width:2px;stroke-dasharray:10,10,0,0;"/>
        </g>
        <g transform="matrix(1.14286,0,0,1.14286,377.143,-154.286)">
            <path d="M720,917.402C759.126,960.322 783,1017.39 783,1080C783,1142.61 759.126,1199.68 720,1242.6C680.874,1199.68 657,1142.61 657,1080C657,1017.39 680.874,960.322 720,917.402Z" style="fill:none;stroke:rgb(255,0,255);stroke-width:2px;stroke-dasharray:10,10,0,0;"/>
        </g>
        <g>
            <g transform="matrix(1.14286,-0,-0,1.14286,377.143,-154.286)">
                <path d="M942.964,1065L957.964,1080L942.964,1095" style="fill:none;stroke:rgb(255,0,255);stroke-width:5px;stroke-linejoin:miter;stroke-miterlimit:10;"/>
                <path d="M898.5,1080L957.964,1080" style="fill:none;stroke:rgb(255,0,255);stroke-width:5px;"/>
            </g>
            <g transform="matrix(-1,-1.22465e-16,1.22465e-16,-1,2400,2160)">
                <g transform="matrix(-1.14286,1.3996e-16,-1.3996e-16,-1.14286,2022.86,2314.29)">
                    <path d="M497.036,1095L482.036,1080L497.036,1065" style="fill:none;stroke:rgb(255,0,255);stroke-width:5px;stroke-linejoin:miter;stroke-miterlimit:10;"/>
                    <path d="M541.5,1080L482.036,1080" style="fill:none;stroke:rgb(255,0,255);stroke-width:5px;"/>
                </g>
            </g>
        </g>
    </g>
    <g transform="matrix(0.875,0,0,0.875,-247.5,135)">
        <g>
            <g transform="matrix(1.15,0,0,1,-84,120)">
                <path d="M1920,960L2400,960" style="fill:none;stroke:rgb(255,0,255);stroke-width:2.12px;"/>
            </g>
            <g transform="matrix(1.5,0,0,1.5,-108,-180)">
                <circle cx="1488" cy="840" r="24" style="fill:rgb(28,28,28);stroke:white;stroke-width:3.81px;"/>
            </g>
            <g transform="matrix(1.5,0,0,1.5,444,-180)">
                <circle cx="1488" cy="840" r="24" style="fill:rgb(28,28,28);stroke:white;stroke-width:3.81px;"/>
            </g>
        </g>
        <g transform="matrix(1.62512,0,0,1.62512,394.335,-675.127)">
            <circle cx="1404" cy="1080" r="169.834" style="fill:none;stroke:white;stroke-width:1.41px;stroke-dasharray:7.03,7.03,0,0;"/>
        </g>
        <g transform="matrix(1.62512,0,0,1.62512,-157.665,-675.127)">
            <circle cx="1404" cy="1080" r="169.834" style="fill:none;stroke:white;stroke-width:1.41px;stroke-dasharray:7.03,7.03,0,0;"/>
        </g>
    </g>
    <g transform="matrix(0.875,0,0,0.875,948,135)">
        <g>
            <g transform="matrix(1.14286,0,0,1.14286,-1083.43,-154.286)">
                <path d="M3168.75,870.851C3240.91,912.628 3289.5,990.684 3289.5,1080C3289.5,1169.32 3240.91,1247.37 3168.75,1289.15C3096.59,1247.37 3048,1169.32 3048,1080C3048,990.684 3096.59,912.628 3168.75,870.851Z" style="fill:none;stroke:rgb(255,0,255);stroke-width:2px;stroke-dasharray:10,10,0,0;"/>
            </g>
            <g transform="matrix(1.14286,0,0,1.14286,-1083.43,-154.286)">
                <path d="M2927.25,870.851C2999.41,912.628 3048,990.684 3048,1080C3048,1169.32 2999.41,1247.37 2927.25,1289.15C2855.09,1247.37 2806.5,1169.32 2806.5,1080C2806.5,990.684 2855.09,912.628 2927.25,870.851Z" style="fill:none;stroke:rgb(255,0,255);stroke-width:2px;stroke-dasharray:10,10,0,0;"/>
            </g>
        </g>
        <g transform="matrix(1.14286,0,0,1.14286,-1083.43,-154.286)">
            <path d="M3168.75,870.851C3204.29,850.277 3245.53,838.5 3289.5,838.5C3422.79,838.5 3531,946.713 3531,1080C3531,1213.29 3422.79,1321.5 3289.5,1321.5C3245.53,1321.5 3204.29,1309.72 3168.75,1289.15C3133.22,1309.72 3091.97,1321.5 3048,1321.5C3004.03,1321.5 2962.79,1309.72 2927.25,1289.15C2891.71,1309.72 2850.47,1321.5 2806.5,1321.5C2673.21,1321.5 2565,1213.29 2565,1080C2565,946.713 2673.21,838.5 2806.5,838.5C2850.47,838.5 2891.71,850.277 2927.25,870.851C2962.79,850.277 3004.03,838.5 3048,838.5C3091.97,838.5 3133.22,850.279 3168.75,870.851" style="fill:none;stroke:white;stroke-width:2px;stroke-dasharray:10,10,0,0;"/>
        </g>
        <g>
            <g transform="matrix(1.15,0,0,1,-84,120)">
                <path d="M1920,960L2400,960" style="fill:none;stroke:white;stroke-width:2.12px;"/>
            </g>
            <g transform="matrix(1.5,0,0,1.5,-108,-180)">
                <circle cx="1488" cy="840" r="24" style="fill:rgb(28,28,28);stroke:white;stroke-width:3.81px;"/>
            </g>
            <g transform="matrix(1.5,0,0,1.5,444,-180)">
                <circle cx="1488" cy="840" r="24" style="fill:rgb(28,28,28);stroke:white;stroke-width:3.81px;"/>
            </g>
            <g transform="matrix(1.5,0,0,1.5,168,-180)">
                <circle cx="1488" cy="840" r="24" style="fill:rgb(28,28,28);stroke:rgb(255,0,255);stroke-width:3.81px;"/>
            </g>
        </g>
    </g>
    <g transform="matrix(1,0,0,1,120,1224.2)">
        <text x="482.928px" y="263.798px" style="font-family:'Poppins-Bold', 'Poppins';font-weight:700;font-size:32px;fill:white;">#1 -COLLISION</text>
        <text x="252.48px" y="311.798px" style="font-family:'Poppins-ExtraLight', 'Poppins';font-weight:275;font-size:32px;fill:white;">If two cells are too close, they will both move</text>
        <text x="259.616px" y="359.798px" style="font-family:'Poppins-ExtraLight', 'Poppins';font-weight:275;font-size:32px;fill:white;">away from each other - reaction detection.</text>
    </g>
    <g transform="matrix(1,0,0,1,1252.5,1224.2)">
        <text x="510.384px" y="263.798px" style="font-family:'Poppins-Bold', 'Poppins';font-weight:700;font-size:32px;fill:white;">#2 - RELAX</text>
        <text x="244.56px" y="311.798px" style="font-family:'Poppins-ExtraLight', 'Poppins';font-weight:275;font-size:32px;fill:white;">If the system of cells is enough distanced, the</text>
        <text x="317.024px" y="359.798px" style="font-family:'Poppins-ExtraLight', 'Poppins';font-weight:275;font-size:32px;fill:white;">system is relaxed and stops moving.</text>
    </g>
    <g transform="matrix(1,0,0,1,2448,1224.2)">
        <text x="507.76px" y="263.798px" style="font-family:'Poppins-Bold', 'Poppins';font-weight:700;font-size:32px;fill:white;">#3 - GROW</text>
        <text x="252.48px" y="311.798px" style="font-family:'Poppins-ExtraLight', 'Poppins';font-weight:275;font-size:32px;fill:white;">If two cells are too close, they will both move</text>
        <text x="421.824px" y="359.798px" style="font-family:'Poppins-ExtraLight', 'Poppins';font-weight:275;font-size:32px;fill:white;">away from each other.</text>
    </g>
</svg>
