<?xml version="1.0" encoding="UTF-8" standalone="no"?>
<!DOCTYPE svg PUBLIC "-//W3C//DTD SVG 1.1//EN" "http://www.w3.org/Graphics/SVG/1.1/DTD/svg11.dtd">
<svg width="100%" height="100%" viewBox="0 0 2000 2200" version="1.1" xmlns="http://www.w3.org/2000/svg" xmlns:xlink="http://www.w3.org/1999/xlink" xml:space="preserve" xmlns:serif="http://www.serif.com/" style="fill-rule:evenodd;clip-rule:evenodd;stroke-linejoin:round;stroke-miterlimit:2;">
    <g transform="matrix(1,0,0,1,0,100)">
        <text x="100px" y="252.5px" style="font-family:'Uberall-Regular', 'Uberall';font-size:75px;">Sed tincidun<tspan x="528.25px " y="252.5px ">t</tspan> varius ar<tspan x="889.675px " y="252.5px ">c</tspan>u. Mauris vitae ar<tspan x="1530.03px " y="252.5px ">c</tspan>u sit</text>
        <text x="100px" y="327.5px" style="font-family:'Uberall-Regular', 'Uberall';font-size:75px;">amet quam condimen<tspan x="836.5px " y="327.5px ">t</tspan>um pulvinar. Aenean ar<tspan x="1675.53px " y="327.5px ">c</tspan>u elit,</text>
        <text x="100px" y="402.5px" style="font-family:'Uberall-Regular', 'Uberall';font-size:75px;">accumsan id, consequat ornar<tspan x="1160.8px " y="402.5px ">e</tspan>, lobortis vitae,</text>
        <text x="100px" y="477.5px" style="font-family:'Uberall-Regular', 'Uberall';font-size:75px;">lig<tspan x="175.975px " y="477.5px ">u</tspan>la. Quisque vitae velit ac sapien placer<tspan x="1534.38px " y="477.5px ">a</tspan>t</text>
        <text x="100px" y="552.5px" style="font-family:'Uberall-Regular', 'Uberall';font-size:75px;">suscipit. Donec mollis justo sed justo pellen<tspan x="1587.1px " y="552.5px ">t</tspan>esque</text>
    </g>
    <g transform="matrix(1,0,0,1,0,572.5)">
        <text x="100px" y="240.833px" style="font-family:'Uberall-Regular', 'Uberall';font-size:58.333px;">Sed tincidun<tspan x="433.083px " y="240.833px ">t</tspan> varius ar<tspan x="714.192px " y="240.833px ">c</tspan>u. Mauris vitae ar<tspan x="1212.24px " y="240.833px ">c</tspan>u sit amet quam</text>
        <text x="100px" y="299.167px" style="font-family:'Uberall-Regular', 'Uberall';font-size:58.333px;">condimen<tspan x="356.142px " y="299.167px ">t</tspan>um pulvinar. Aenean ar<tspan x="1008.72px " y="299.167px ">c</tspan>u elit, accumsan id, consequat</text>
        <text x="100px" y="357.5px" style="font-family:'Uberall-Regular', 'Uberall';font-size:58.333px;">ornar<tspan x="253.125px " y="357.5px ">e</tspan>, lobortis vitae, lig<tspan x="743.125px " y="357.5px ">u</tspan>la. Quisque vitae velit ac sapien placer<tspan x="1799.66px " y="357.5px ">a</tspan>t</text>
        <text x="100px" y="415.833px" style="font-family:'Uberall-Regular', 'Uberall';font-size:58.333px;">suscipit. Donec mollis justo sed justo pellen<tspan x="1256.63px " y="415.833px ">t</tspan>esque sollicitudin. Duis</text>
        <text x="100px" y="474.167px" style="font-family:'Uberall-Regular', 'Uberall';font-size:58.333px;">bibendum adipiscing nibh. Maecenas diam risus, molestie ut, porta</text>
        <text x="100px" y="532.5px" style="font-family:'Uberall-Regular', 'Uberall';font-size:58.333px;">et, malesuada eg<tspan x="557.392px " y="532.5px ">e</tspan>t, nisi. In fermen<tspan x="1009.01px " y="532.5px ">t</tspan>um leo sed turpis. Sed lacus</text>
    </g>
    <g transform="matrix(1,0,0,1,0,1086.06)">
        <text x="100px" y="229.167px" style="font-family:'Uberall-Regular', 'Uberall';font-size:41.667px;">Sed tincidun<tspan x="337.917px " y="229.167px ">t</tspan> varius ar<tspan x="538.708px " y="229.167px ">c</tspan>u. Mauris vitae ar<tspan x="894.458px " y="229.167px ">c</tspan>u sit amet quam condimen<tspan x="1419.29px " y="229.167px ">t</tspan>um pulvinar. Aenean</text>
        <text x="100px" y="270.833px" style="font-family:'Uberall-Regular', 'Uberall';font-size:41.667px;">ar<tspan x="141.875px " y="270.833px ">c</tspan>u elit, accumsan id, consequat ornar<tspan x="863.208px " y="270.833px ">e</tspan>, lobortis vitae, lig<tspan x="1213.21px " y="270.833px ">u</tspan>la. Quisque vitae velit ac sapien</text>
        <text x="100px" y="312.5px" style="font-family:'Uberall-Regular', 'Uberall';font-size:41.667px;">placer<tspan x="218.583px " y="312.5px ">a</tspan>t suscipit. Donec mollis justo sed justo pellen<tspan x="1094.71px " y="312.5px ">t</tspan>esque sollicitudin. Duis bibendum</text>
        <text x="100px" y="354.167px" style="font-family:'Uberall-Regular', 'Uberall';font-size:41.667px;">adipiscing nibh. Maecenas diam risus, molestie ut, porta et, malesuada eg<tspan x="1508.62px " y="354.167px ">e</tspan>t, nisi. In</text>
        <text x="100px" y="395.833px" style="font-family:'Uberall-Regular', 'Uberall';font-size:41.667px;">fermen<tspan x="235px " y="395.833px ">t</tspan>um leo sed turpis. Sed lacus velit, consequat in, ultricies sit amet, malesuada et, diam.</text>
        <text x="100px" y="437.5px" style="font-family:'Uberall-Regular', 'Uberall';font-size:41.667px;">In<tspan x="131.667px " y="437.5px ">t</tspan>eg<tspan x="193.375px " y="437.5px ">e</tspan>r mauris sem, con<tspan x="561.583px " y="437.5px ">v</tspan>allis ut, consequat in, sollicitudin sed, leo. Cr<tspan x="1414.67px " y="437.5px ">a</tspan>s purus elit, hendr<tspan x="1788.58px " y="437.5px ">e</tspan>rit</text>
        <text x="100px" y="479.167px" style="font-family:'Uberall-Regular', 'Uberall';font-size:41.667px;">ut, eg<tspan x="207.042px " y="479.167px ">e</tspan>stas eg<tspan x="373.542px " y="479.167px ">e</tspan>t, sagittis at, nulla. In<tspan x="785.042px " y="479.167px ">t</tspan>eg<tspan x="846.75px " y="479.167px ">e</tspan>r justo dui, faucibus dictum, con<tspan x="1480.71px " y="479.167px ">v</tspan>allis sodales,</text>
        <text x="100px" y="520.833px" style="font-family:'Uberall-Regular', 'Uberall';font-size:41.667px;">accumsan id, risus. Aenean risus. Vestibulum scelerisque placer<tspan x="1335.58px " y="520.833px ">a</tspan>t sem.</text>
    </g>
    <g transform="matrix(1,0,0,1,0,1525.59)">
        <text x="100px" y="217.5px" style="font-family:'Uberall-Regular', 'Uberall';font-size:25px;">Sed tincidun<tspan x="242.75px " y="217.5px ">t</tspan> varius ar<tspan x="363.225px " y="217.5px ">c</tspan>u. Mauris vitae ar<tspan x="576.675px " y="217.5px ">c</tspan>u sit amet quam condimen<tspan x="891.575px " y="217.5px ">t</tspan>um pulvinar. Aenean ar<tspan x="1171.25px " y="217.5px ">c</tspan>u elit, accumsan id, consequat ornar<tspan x="1604.05px " y="217.5px ">e</tspan>, lobortis vitae, lig<tspan x="1814.05px " y="217.5px ">u</tspan>la.</text>
        <text x="100px" y="242.5px" style="font-family:'Uberall-Regular', 'Uberall';font-size:25px;">Quisque vitae velit ac sapien placer<tspan x="506.475px " y="242.5px ">a</tspan>t suscipit. Donec mollis justo sed justo pellen<tspan x="1032.15px " y="242.5px ">t</tspan>esque sollicitudin. Duis bibendum adipiscing nibh. Maecenas diam risus,</text>
        <text x="100px" y="267.5px" style="font-family:'Uberall-Regular', 'Uberall';font-size:25px;">molestie ut, porta et, malesuada eg<tspan x="501.175px " y="267.5px ">e</tspan>t, nisi. In fermen<tspan x="694.725px " y="267.5px ">t</tspan>um leo sed turpis. Sed lacus velit, consequat in, ultricies sit amet, malesuada et, diam. In<tspan x="1705.73px " y="267.5px ">t</tspan>eg<tspan x="1742.75px " y="267.5px ">e</tspan>r mauris</text>
        <text x="100px" y="292.5px" style="font-family:'Uberall-Regular', 'Uberall';font-size:25px;">sem, con<tspan x="201.6px " y="292.5px ">v</tspan>allis ut, consequat in, sollicitudin sed, leo. Cr<tspan x="713.45px " y="292.5px ">a</tspan>s purus elit, hendr<tspan x="937.8px " y="292.5px ">e</tspan>rit ut, eg<tspan x="1047.17px " y="292.5px ">e</tspan>stas eg<tspan x="1147.08px " y="292.5px ">e</tspan>t, sagittis at, nulla. In<tspan x="1393.98px " y="292.5px ">t</tspan>eg<tspan x="1431px " y="292.5px ">e</tspan>r justo dui, faucibus dictum, con<tspan x="1811.38px " y="292.5px ">v</tspan>allis</text>
        <text x="100px" y="317.5px" style="font-family:'Uberall-Regular', 'Uberall';font-size:25px;">sodales, accumsan id, risus. Aenean risus. Vestibulum scelerisque placer<tspan x="942.35px " y="317.5px ">a</tspan>t sem.</text>
        <text x="100px" y="392.5px" style="font-family:'Uberall-Regular', 'Uberall';font-size:25px;">In eg<tspan x="156.575px " y="392.5px ">e</tspan>t sapien vitae massa rhoncus lacinia. Nullam at leo nec metus aliquam semper. Phasellus tincidun<tspan x="1290.15px " y="392.5px ">t</tspan>, an<tspan x="1339.12px " y="392.5px ">t</tspan>e nec lacinia ultrices, quam mi dictum liber<tspan x="1830.58px " y="392.5px ">o</tspan>,</text>
        <text x="100px" y="417.5px" style="font-family:'Uberall-Regular', 'Uberall';font-size:25px;">vitae bibendum turpis elit ut lectus. Sed diam an<tspan x="648.75px " y="417.5px ">t</tspan>e, lobortis sed, dignissim sit amet, condimen<tspan x="1158.3px " y="417.5px ">t</tspan>um in, sapien. Pellen<tspan x="1398.33px " y="417.5px ">t</tspan>esque nec lectus non risus auctor lobortis.</text>
        <text x="100px" y="442.5px" style="font-family:'Uberall-Regular', 'Uberall';font-size:25px;">Vestibulum sit amet dolor a an<tspan x="447.075px " y="442.5px ">t</tspan>e suscipit pulvinar. Sed lacinia. Aliquam er<tspan x="938px " y="442.5px ">a</tspan>t volutpat. In hac habitasse platea dictumst. Vivamus sit amet sem vitae tellus</text>
        <text x="100px" y="467.5px" style="font-family:'Uberall-Regular', 'Uberall';font-size:25px;">ultricies consequat. In<tspan x="349.5px " y="467.5px ">t</tspan>eg<tspan x="386.525px " y="467.5px ">e</tspan>r tincidun<tspan x="508.65px " y="467.5px ">t</tspan> tellus eg<tspan x="620.525px " y="467.5px ">e</tspan>t justo. Class apten<tspan x="855.475px " y="467.5px ">t</tspan> taciti sociosqu ad litor<tspan x="1120.33px " y="467.5px ">a</tspan> tor<tspan x="1174.55px " y="467.5px ">q</tspan>uen<tspan x="1231.48px " y="467.5px ">t</tspan> per conubia nostr<tspan x="1453.4px " y="467.5px ">a</tspan>, per inceptos hymenaeos.</text>
        <text x="100px" y="542.5px" style="font-family:'Uberall-Regular', 'Uberall';font-size:25px;">Morbi pellen<tspan x="237.05px " y="542.5px ">t</tspan>esque, mauris in<tspan x="433.95px " y="542.5px ">t</tspan>er<tspan x="466.15px " y="542.5px ">d</tspan>um porta tincidun<tspan x="682.7px " y="542.5px ">t</tspan>, neque or<tspan x="806.475px " y="542.5px ">c</tspan>i molestie mauris, vitae iaculis dolor felis at nunc. Maecenas eu diam a leo porta in<tspan x="1756.7px " y="542.5px ">t</tspan>er<tspan x="1788.9px " y="542.5px ">d</tspan>um. In</text>
        <text x="100px" y="567.5px" style="font-family:'Uberall-Regular', 'Uberall';font-size:25px;">non massa quis odio feugiat sagittis. Quisque ac lor<tspan x="697.55px " y="567.5px ">e</tspan>m. Maecenas ut sem sed ipsum suscipit malesuada. Nulla quis dui quis an<tspan x="1557.5px " y="567.5px ">t</tspan>e fermen<tspan x="1667.4px " y="567.5px ">t</tspan>um in<tspan x="1737.25px " y="567.5px ">t</tspan>er<tspan x="1769.45px " y="567.5px ">d</tspan>um. Pr<tspan x="1858.4px " y="567.5px ">o</tspan>in</text>
    </g>
    <g transform="matrix(1.081,0,0,1.081,526.902,-16.2215)">
        <text x="-401.519px" y="200px" style="font-family:'Uberall-Regular', 'Uberall';font-size:132.1px;">EXAMPLE TEXT</text>
    </g>
</svg>
