<?xml version="1.0" encoding="UTF-8" standalone="no"?>
<!DOCTYPE svg PUBLIC "-//W3C//DTD SVG 1.1//EN" "http://www.w3.org/Graphics/SVG/1.1/DTD/svg11.dtd">
<svg width="100%" height="100%" viewBox="0 0 4016 6016" version="1.1" xmlns="http://www.w3.org/2000/svg" xmlns:xlink="http://www.w3.org/1999/xlink" xml:space="preserve" xmlns:serif="http://www.serif.com/" style="fill-rule:evenodd;clip-rule:evenodd;stroke-miterlimit:10;">
    <rect x="0" y="0" width="4016" height="6016" style="fill:white;"/>
    <g transform="matrix(2.38511,0,0,2.38511,2008,3173.02)">
        <g transform="matrix(1,0,0,1,-841.89,-1191.97)">
            <clipPath id="_clip1">
                <rect x="0" y="0" width="1683.78" height="2383.94"/>
            </clipPath>
            <g clip-path="url(#_clip1)">
                <g transform="matrix(1,0,0,1,0,-0.0170234)">
                    <rect x="0" y="0.017" width="1683.72" height="2383.92" style="fill:white;"/>
                </g>
                <g transform="matrix(0.12,0,0,-0.12,0,1462.56)">
                    <path d="M755,6153L873,6035L637,6035L755,6153" style="fill-rule:nonzero;stroke:black;stroke-width:1px;"/>
                </g>
                <g transform="matrix(0.12,0,0,-0.12,0,3886.2)">
                    <path d="M3235,16311L3235,16074L3117,16193L3235,16311" style="fill-rule:nonzero;stroke:black;stroke-width:1px;"/>
                </g>
                <g transform="matrix(0.12,0,0,-0.12,0,881.4)">
                    <path d="M3235,3791L3117,3672L3235,3554L3235,3791" style="fill-rule:nonzero;stroke:black;stroke-width:1px;"/>
                </g>
                <g transform="matrix(0.12,0,0,-0.12,0,1462.56)">
                    <path d="M13275,6153L13157,6035L13393,6035L13275,6153" style="fill-rule:nonzero;stroke:black;stroke-width:1px;"/>
                </g>
                <g transform="matrix(0,0.12,-0.12,0,1463.94,-163.02)">
                    <path d="M6755.5,5656.5L6802.5,5656.5L6802.5,5184.5L6755.5,5184.5L6755.5,5656.5" style="fill-rule:nonzero;stroke:black;stroke-width:1px;"/>
                </g>
                <g transform="matrix(0,0.12,-0.12,0,1979.88,693.12)">
                    <path d="M5338,11374L5385,11374L5385,10901L5338,10901L5338,11374" style="fill-rule:nonzero;stroke:black;stroke-width:1px;"/>
                </g>
                <g transform="matrix(0.12,0,0,-0.12,0,2553.84)">
                    <path d="M7827,10745L7586,10570L7620,10537L7827,10745" style="fill-rule:nonzero;stroke:black;stroke-width:1px;"/>
                </g>
                <g transform="matrix(0.12,0,0,-0.12,0,2545.92)">
                    <path d="M7586,10504L7827,10679L7794,10712L7586,10504" style="fill-rule:nonzero;stroke:black;stroke-width:1px;"/>
                </g>
                <g transform="matrix(0.12,0,0,-0.12,0,2396.28)">
                    <path d="M8366,10036L8295,9966L8329,9933L8366,10036" style="fill-rule:nonzero;stroke:black;stroke-width:1px;"/>
                </g>
                <g transform="matrix(0.12,0,0,-0.12,0,2396.28)">
                    <path d="M8329,9933L8432,10036L8366,10036L8329,9933" style="fill-rule:nonzero;stroke:black;stroke-width:1px;"/>
                </g>
                <g transform="matrix(0,0.12,-0.12,0,1753.02,-219.66)">
                    <path d="M7983.5,6412.5L8455.5,6412.5L8455.5,6365.5L7983.5,6365.5L7983.5,6412.5" style="fill-rule:nonzero;stroke:black;stroke-width:1px;"/>
                </g>
                <g transform="matrix(0,0.12,-0.12,0,1577.34,976.5)">
                    <path d="M2267.5,10664.5L2739.5,10664.5L2739.5,10617.5L2267.5,10617.5L2267.5,10664.5" style="fill-rule:nonzero;stroke:black;stroke-width:1px;"/>
                </g>
                <g transform="matrix(0,0.12,-0.12,0,1866.48,806.52)">
                    <path d="M4393,11374L4440,11374L4440,10901L4393,10901L4393,11374" style="fill-rule:nonzero;stroke:black;stroke-width:1px;"/>
                </g>
                <g transform="matrix(0,0.12,-0.12,0,1464,863.16)">
                    <path d="M2267,9720L2740,9720L2740,9673L2267,9673L2267,9720" style="fill-rule:nonzero;stroke:black;stroke-width:1px;"/>
                </g>
                <g transform="matrix(0,0.12,-0.12,0,1866.42,-106.26)">
                    <path d="M7983.5,7357.5L8455.5,7357.5L8455.5,7310.5L7983.5,7310.5L7983.5,7357.5" style="fill-rule:nonzero;stroke:black;stroke-width:1px;"/>
                </g>
                <g transform="matrix(0,0.12,-0.12,0,2093.22,120.54)">
                    <path d="M7983.5,9247.5L8455.5,9247.5L8455.5,9200.5L7983.5,9200.5L7983.5,9247.5" style="fill-rule:nonzero;stroke:black;stroke-width:1px;"/>
                </g>
                <g transform="matrix(0,0.12,-0.12,0,1350.54,-49.62)">
                    <path d="M5810.5,5656.5L5857.5,5656.5L5857.5,5184.5L5810.5,5184.5L5810.5,5656.5" style="fill-rule:nonzero;stroke:black;stroke-width:1px;"/>
                </g>
                <g transform="matrix(0,0.12,-0.12,0,1237.2,636.36)">
                    <path d="M2267,7830L2740,7830L2740,7783L2267,7783L2267,7830" style="fill-rule:nonzero;stroke:black;stroke-width:1px;"/>
                </g>
                <g transform="matrix(0,0.12,-0.12,0,1237.14,63.78)">
                    <path d="M4865.5,5656.5L4912.5,5656.5L4912.5,5184.5L4865.5,5184.5L4865.5,5656.5" style="fill-rule:nonzero;stroke:black;stroke-width:1px;"/>
                </g>
                <g transform="matrix(0,0.12,-0.12,0,1577.28,-276.36)">
                    <path d="M7700,5657L7747,5657L7747,5184L7700,5184L7700,5657" style="fill-rule:nonzero;stroke:black;stroke-width:1px;"/>
                </g>
                <g transform="matrix(0,0.12,-0.12,0,1979.82,7.14)">
                    <path d="M7983.5,8302.5L8455.5,8302.5L8455.5,8255.5L7983.5,8255.5L7983.5,8302.5" style="fill-rule:nonzero;stroke:black;stroke-width:1px;"/>
                </g>
                <g transform="matrix(0,0.12,-0.12,0,1753.08,919.92)">
                    <path d="M3448,11374L3495,11374L3495,10901L3448,10901L3448,11374" style="fill-rule:nonzero;stroke:black;stroke-width:1px;"/>
                </g>
                <g transform="matrix(0,0.12,-0.12,0,2093.28,579.72)">
                    <path d="M6283,11374L6330,11374L6330,10901L6283,10901L6283,11374" style="fill-rule:nonzero;stroke:black;stroke-width:1px;"/>
                </g>
                <g transform="matrix(0.12,0,0,-0.12,0,2711.52)">
                    <path d="M7119,11350L7015,11313L7015,11246L7119,11350" style="fill-rule:nonzero;stroke:black;stroke-width:1px;"/>
                </g>
                <g transform="matrix(0.12,0,0,-0.12,0,2699.52)">
                    <path d="M7015,11213L7119,11250L7085,11283L7015,11213" style="fill-rule:nonzero;stroke:black;stroke-width:1px;"/>
                </g>
                <g transform="matrix(0,0.12,-0.12,0,1350.6,749.76)">
                    <path d="M2267,8775L2740,8775L2740,8728L2267,8728L2267,8775" style="fill-rule:nonzero;stroke:black;stroke-width:1px;"/>
                </g>
                <g transform="matrix(0,0.12,-0.12,0,1108.14,113.46)">
                    <path d="M3790.5,5125.5L4498.5,5125.5L4262.5,5054.5L3790.5,5054.5L3790.5,5125.5" style="fill-rule:nonzero;stroke:black;stroke-width:1px;"/>
                </g>
                <g transform="matrix(0.12,0,0,-0.12,0,1278.24)">
                    <path d="M4109,5208L4180,5208L4180,5444L4109,5208" style="fill-rule:nonzero;stroke:black;stroke-width:1px;"/>
                </g>
                <g transform="matrix(0,0.12,-0.12,0,1296.66,9.9)">
                    <path d="M5125.5,5680.5L5597.5,5680.5L5597.5,5207.5L5125.5,5207.5L5125.5,5680.5" style="fill-rule:nonzero;stroke:black;stroke-width:1px;"/>
                </g>
                <g transform="matrix(0,0.12,-0.12,0,1013.22,66.66)">
                    <path d="M3707.5,4735.5L4180.5,4735.5L4180.5,4263.5L3707.5,4263.5L3707.5,4735.5" style="fill-rule:nonzero;stroke:black;stroke-width:1px;"/>
                </g>
                <g transform="matrix(0,0.12,-0.12,0,1126.62,-46.74)">
                    <path d="M4652.5,4735.5L5125.5,4735.5L5125.5,4263.5L4652.5,4263.5L4652.5,4735.5" style="fill-rule:nonzero;stroke:black;stroke-width:1px;"/>
                </g>
                <g transform="matrix(0,0.12,-0.12,0,1240.02,-160.14)">
                    <path d="M5597.5,4735.5L6070.5,4735.5L6070.5,4263.5L5597.5,4263.5L5597.5,4735.5" style="fill-rule:nonzero;stroke:black;stroke-width:1px;"/>
                </g>
                <g transform="matrix(0,0.12,-0.12,0,1353.42,-273.54)">
                    <path d="M6542.5,4735.5L7015.5,4735.5L7015.5,4263.5L6542.5,4263.5L6542.5,4735.5" style="fill-rule:nonzero;stroke:black;stroke-width:1px;"/>
                </g>
                <g transform="matrix(0,0.12,-0.12,0,1466.76,-386.88)">
                    <path d="M7487,4736L7960,4736L7960,4263L7487,4263L7487,4736" style="fill-rule:nonzero;stroke:black;stroke-width:1px;"/>
                </g>
                <g transform="matrix(0,0.12,-0.12,0,1580.16,-500.28)">
                    <path d="M8432,4736L8905,4736L8905,4263L8432,4263L8432,4736" style="fill-rule:nonzero;stroke:black;stroke-width:1px;"/>
                </g>
                <g transform="matrix(0,0.12,-0.12,0,1410.06,-103.5)">
                    <path d="M6070.5,5680.5L6542.5,5680.5L6542.5,5207.5L6070.5,5207.5L6070.5,5680.5" style="fill-rule:nonzero;stroke:black;stroke-width:1px;"/>
                </g>
                <g transform="matrix(0.12,0,0,-0.12,0,1646.76)">
                    <path d="M1417,7098L1346,7098L1346,6625L1417,7098" style="fill-rule:nonzero;stroke:black;stroke-width:1px;"/>
                </g>
                <g transform="matrix(-0.12,0,0,-0.12,379.68,1646.76)">
                    <path d="M1346,7098L1747,7098L1818,6625L1346,6625L1346,7098" style="fill-rule:nonzero;stroke:black;stroke-width:1px;"/>
                </g>
                <g transform="matrix(0,0.12,-0.12,0,1466.76,1087.08)">
                    <path d="M1346,10877L1818,10877L1818,10405L1346,10405L1346,10877" style="fill-rule:nonzero;stroke:black;stroke-width:1px;"/>
                </g>
                <g transform="matrix(0,0.12,-0.12,0,1580.16,1200.48)">
                    <path d="M1346,11822L1818,11822L1818,11350L1346,11350L1346,11822" style="fill-rule:nonzero;stroke:black;stroke-width:1px;"/>
                </g>
                <g transform="matrix(0,0.12,-0.12,0,1410.12,803.64)">
                    <path d="M2291,9460L2763,9460L2763,8988L2291,8988L2291,9460" style="fill-rule:nonzero;stroke:black;stroke-width:1px;"/>
                </g>
                <g transform="matrix(0,0.12,-0.12,0,1863.6,1030.44)">
                    <path d="M3235,12295L3708,12295L3708,11822L3235,11822L3235,12295" style="fill-rule:nonzero;stroke:black;stroke-width:1px;"/>
                </g>
                <g transform="matrix(0,0.12,-0.12,0,1693.56,1313.88)">
                    <path d="M1346,12767L1818,12767L1818,12295L1346,12295L1346,12767" style="fill-rule:nonzero;stroke:black;stroke-width:1px;"/>
                </g>
                <g transform="matrix(0,0.12,-0.12,0,2600.64,520.2)">
                    <path d="M8550,13122L8787,13122L8787,12885L8550,12885L8550,13122" style="fill-rule:nonzero;stroke:black;stroke-width:1px;"/>
                </g>
                <g transform="matrix(0,0.12,-0.12,0,2260.5,860.34)">
                    <path d="M5715.5,13121.5L5952.5,13121.5L5952.5,12885.5L5715.5,12885.5L5715.5,13121.5" style="fill-rule:nonzero;stroke:black;stroke-width:1px;"/>
                </g>
                <g transform="matrix(0,0.12,-0.12,0,2373.9,746.94)">
                    <path d="M6660.5,13121.5L6897.5,13121.5L6897.5,12885.5L6660.5,12885.5L6660.5,13121.5" style="fill-rule:nonzero;stroke:black;stroke-width:1px;"/>
                </g>
                <g transform="matrix(0,0.12,-0.12,0,2487.3,633.54)">
                    <path d="M7605.5,13121.5L7842.5,13121.5L7842.5,12885.5L7605.5,12885.5L7605.5,13121.5" style="fill-rule:nonzero;stroke:black;stroke-width:1px;"/>
                </g>
                <g transform="matrix(0,0.12,-0.12,0,2770.68,576.84)">
                    <path d="M9023,14066L9259,14066L9259,13830L9023,13830L9023,14066" style="fill-rule:nonzero;stroke:black;stroke-width:1px;"/>
                </g>
                <g transform="matrix(0,0.12,-0.12,0,2147.1,973.74)">
                    <path d="M4770.5,13121.5L5007.5,13121.5L5007.5,12885.5L4770.5,12885.5L4770.5,13121.5" style="fill-rule:nonzero;stroke:black;stroke-width:1px;"/>
                </g>
                <g transform="matrix(0,0.12,-0.12,0,2033.7,1087.14)">
                    <path d="M3825.5,13121.5L4062.5,13121.5L4062.5,12885.5L3825.5,12885.5L3825.5,13121.5" style="fill-rule:nonzero;stroke:black;stroke-width:1px;"/>
                </g>
                <g transform="matrix(0,0.12,-0.12,0,1920.3,1200.54)">
                    <path d="M2880.5,13121.5L3117.5,13121.5L3117.5,12885.5L2880.5,12885.5L2880.5,13121.5" style="fill-rule:nonzero;stroke:black;stroke-width:1px;"/>
                </g>
                <g transform="matrix(0,0.12,-0.12,0,1806.9,1313.94)">
                    <path d="M1935.5,13121.5L2172.5,13121.5L2172.5,12885.5L1935.5,12885.5L1935.5,13121.5" style="fill-rule:nonzero;stroke:black;stroke-width:1px;"/>
                </g>
                <g transform="matrix(0,0.12,-0.12,0,2657.28,690.24)">
                    <path d="M8078,14066L8314,14066L8314,13830L8078,13830L8078,14066" style="fill-rule:nonzero;stroke:black;stroke-width:1px;"/>
                </g>
                <g transform="matrix(0,0.12,-0.12,0,1750.26,1143.78)">
                    <path d="M2290.5,12294.5L2763.5,12294.5L2763.5,11822.5L2290.5,11822.5L2290.5,12294.5" style="fill-rule:nonzero;stroke:black;stroke-width:1px;"/>
                </g>
                <g transform="matrix(0,0.12,-0.12,0,2430.54,463.5)">
                    <path d="M7959.5,12294.5L8432.5,12294.5L8432.5,11822.5L7959.5,11822.5L7959.5,12294.5" style="fill-rule:nonzero;stroke:black;stroke-width:1px;"/>
                </g>
                <g transform="matrix(0,0.12,-0.12,0,2317.14,576.9)">
                    <path d="M7014.5,12294.5L7487.5,12294.5L7487.5,11822.5L7014.5,11822.5L7014.5,12294.5" style="fill-rule:nonzero;stroke:black;stroke-width:1px;"/>
                </g>
                <g transform="matrix(0,0.12,-0.12,0,2203.8,690.24)">
                    <path d="M6070,12295L6543,12295L6543,11822L6070,11822L6070,12295" style="fill-rule:nonzero;stroke:black;stroke-width:1px;"/>
                </g>
                <g transform="matrix(0,0.12,-0.12,0,2090.4,803.64)">
                    <path d="M5125,12295L5598,12295L5598,11822L5125,11822L5125,12295" style="fill-rule:nonzero;stroke:black;stroke-width:1px;"/>
                </g>
                <g transform="matrix(0,0.12,-0.12,0,1977,917.04)">
                    <path d="M4180,12295L4653,12295L4653,11822L4180,11822L4180,12295" style="fill-rule:nonzero;stroke:black;stroke-width:1px;"/>
                </g>
                <g transform="matrix(0,0.12,-0.12,0,2430.48,917.04)">
                    <path d="M6188,14066L6424,14066L6424,13830L6188,13830L6188,14066" style="fill-rule:nonzero;stroke:black;stroke-width:1px;"/>
                </g>
                <g transform="matrix(0,0.12,-0.12,0,2147.1,520.14)">
                    <path d="M6542.5,11349.5L7015.5,11349.5L7015.5,10877.5L6542.5,10877.5L6542.5,11349.5" style="fill-rule:nonzero;stroke:black;stroke-width:1px;"/>
                </g>
                <g transform="matrix(0,0.12,-0.12,0,2033.7,633.54)">
                    <path d="M5597.5,11349.5L6070.5,11349.5L6070.5,10877.5L5597.5,10877.5L5597.5,11349.5" style="fill-rule:nonzero;stroke:black;stroke-width:1px;"/>
                </g>
                <g transform="matrix(0,0.12,-0.12,0,1920.3,746.94)">
                    <path d="M4652.5,11349.5L5125.5,11349.5L5125.5,10877.5L4652.5,10877.5L4652.5,11349.5" style="fill-rule:nonzero;stroke:black;stroke-width:1px;"/>
                </g>
                <g transform="matrix(0,0.12,-0.12,0,1806.9,860.34)">
                    <path d="M3707.5,11349.5L4180.5,11349.5L4180.5,10877.5L3707.5,10877.5L3707.5,11349.5" style="fill-rule:nonzero;stroke:black;stroke-width:1px;"/>
                </g>
                <g transform="matrix(0,0.12,-0.12,0,1693.5,973.74)">
                    <path d="M2762.5,11349.5L3235.5,11349.5L3235.5,10877.5L2762.5,10877.5L2762.5,11349.5" style="fill-rule:nonzero;stroke:black;stroke-width:1px;"/>
                </g>
                <g transform="matrix(0,0.12,-0.12,0,1636.86,1030.38)">
                    <path d="M2290.5,11349.5L2763.5,11349.5L2763.5,10877.5L2290.5,10877.5L2290.5,11349.5" style="fill-rule:nonzero;stroke:black;stroke-width:1px;"/>
                </g>
                <g transform="matrix(0,0.12,-0.12,0,1523.52,917.04)">
                    <path d="M2291,10405L2763,10405L2763,9933L2291,9933L2291,10405" style="fill-rule:nonzero;stroke:black;stroke-width:1px;"/>
                </g>
                <g transform="matrix(0,0.12,-0.12,0,2203.74,1143.78)">
                    <path d="M4298.5,14066.5L4534.5,14066.5L4534.5,13829.5L4298.5,13829.5L4298.5,14066.5" style="fill-rule:nonzero;stroke:black;stroke-width:1px;"/>
                </g>
                <g transform="matrix(0,0.12,-0.12,0,1977,1370.52)">
                    <path d="M2409,14066L2645,14066L2645,13830L2409,13830L2409,14066" style="fill-rule:nonzero;stroke:black;stroke-width:1px;"/>
                </g>
                <g transform="matrix(0,0.12,-0.12,0,1353.42,973.74)">
                    <path d="M1345.5,9932.5L1818.5,9932.5L1818.5,9460.5L1345.5,9460.5L1345.5,9932.5" style="fill-rule:nonzero;stroke:black;stroke-width:1px;"/>
                </g>
                <g transform="matrix(0,0.12,-0.12,0,1240.02,860.34)">
                    <path d="M1345.5,8987.5L1818.5,8987.5L1818.5,8515.5L1345.5,8515.5L1345.5,8987.5" style="fill-rule:nonzero;stroke:black;stroke-width:1px;"/>
                </g>
                <g transform="matrix(0,0.12,-0.12,0,1126.62,746.94)">
                    <path d="M1345.5,8042.5L1818.5,8042.5L1818.5,7570.5L1345.5,7570.5L1345.5,8042.5" style="fill-rule:nonzero;stroke:black;stroke-width:1px;"/>
                </g>
                <g transform="matrix(0,0.12,-0.12,0,851.64,180)">
                    <path d="M2763,5208L2834,5208L2834,3389L2763,3389L2763,5208" style="fill-rule:nonzero;stroke:black;stroke-width:1px;"/>
                </g>
                <g transform="matrix(0,0.12,-0.12,0,819.06,487.5)">
                    <path d="M200.5,5479.5L2562.5,5479.5L2562.5,5408.5L200.5,5408.5L200.5,5479.5" style="fill-rule:nonzero;stroke:black;stroke-width:1px;"/>
                </g>
                <g transform="matrix(0,0.12,-0.12,0,1108.2,586.8)">
                    <path d="M2137,7417L2208,7417L2208,6708L2137,6708L2137,7417" style="fill-rule:nonzero;stroke:black;stroke-width:1px;"/>
                </g>
                <g transform="matrix(0,0.12,-0.12,0,1296.72,690.24)">
                    <path d="M2291,8515L2763,8515L2763,8043L2291,8043L2291,8515" style="fill-rule:nonzero;stroke:black;stroke-width:1px;"/>
                </g>
                <g transform="matrix(0,0.12,-0.12,0,1183.26,123.3)">
                    <path d="M4180.5,5680.5L4652.5,5680.5L4652.5,5207.5L4180.5,5207.5L4180.5,5680.5" style="fill-rule:nonzero;stroke:black;stroke-width:1px;"/>
                </g>
                <g transform="matrix(0,0.12,-0.12,0,1183.32,576.84)">
                    <path d="M2291,7570L2763,7570L2763,7098L2291,7098L2291,7570" style="fill-rule:nonzero;stroke:black;stroke-width:1px;"/>
                </g>
                <g transform="matrix(0,0.12,-0.12,0,1863.6,1483.92)">
                    <path d="M1464,14066L1700,14066L1700,13830L1464,13830L1464,14066" style="fill-rule:nonzero;stroke:black;stroke-width:1px;"/>
                </g>
                <g transform="matrix(0,0.12,-0.12,0,2090.4,1257.12)">
                    <path d="M3354,14066L3590,14066L3590,13830L3354,13830L3354,14066" style="fill-rule:nonzero;stroke:black;stroke-width:1px;"/>
                </g>
                <g transform="matrix(0,0.12,-0.12,0,2317.14,1030.38)">
                    <path d="M5243.5,14066.5L5479.5,14066.5L5479.5,13829.5L5243.5,13829.5L5243.5,14066.5" style="fill-rule:nonzero;stroke:black;stroke-width:1px;"/>
                </g>
                <g transform="matrix(0,0.12,-0.12,0,2543.88,803.64)">
                    <path d="M7133,14066L7369,14066L7369,13830L7133,13830L7133,14066" style="fill-rule:nonzero;stroke:black;stroke-width:1px;"/>
                </g>
                <g transform="matrix(0,0.12,-0.12,0,2544,-103.44)">
                    <path d="M10913,10287L11149,10287L11149,10051L10913,10051L10913,10287" style="fill-rule:nonzero;stroke:black;stroke-width:1px;"/>
                </g>
                <g transform="matrix(0,0.12,-0.12,0,2317.2,-330.24)">
                    <path d="M10913,8397L11149,8397L11149,8161L10913,8161L10913,8397" style="fill-rule:nonzero;stroke:black;stroke-width:1px;"/>
                </g>
                <g transform="matrix(0,0.12,-0.12,0,2090.4,-557.04)">
                    <path d="M10913,6507L11149,6507L11149,6271L10913,6271L10913,6507" style="fill-rule:nonzero;stroke:black;stroke-width:1px;"/>
                </g>
                <g transform="matrix(0,0.12,-0.12,0,1863.6,-783.84)">
                    <path d="M10913,4617L11149,4617L11149,4381L10913,4381L10913,4617" style="fill-rule:nonzero;stroke:black;stroke-width:1px;"/>
                </g>
                <g transform="matrix(0,0.12,-0.12,0,1977,-670.44)">
                    <path d="M10913,5562L11149,5562L11149,5326L10913,5326L10913,5562" style="fill-rule:nonzero;stroke:black;stroke-width:1px;"/>
                </g>
                <g transform="matrix(0,0.12,-0.12,0,2203.8,-443.64)">
                    <path d="M10913,7452L11149,7452L11149,7216L10913,7216L10913,7452" style="fill-rule:nonzero;stroke:black;stroke-width:1px;"/>
                </g>
                <g transform="matrix(0,0.12,-0.12,0,2430.6,-216.84)">
                    <path d="M10913,9342L11149,9342L11149,9106L10913,9106L10913,9342" style="fill-rule:nonzero;stroke:black;stroke-width:1px;"/>
                </g>
                <g transform="matrix(0,0.12,-0.12,0,2657.4,9.96)">
                    <path d="M10913,11232L11149,11232L11149,10996L10913,10996L10913,11232" style="fill-rule:nonzero;stroke:black;stroke-width:1px;"/>
                </g>
                <g transform="matrix(0,0.12,-0.12,0,2770.74,123.3)">
                    <path d="M10912.5,12176.5L11149.5,12176.5L11149.5,11940.5L10912.5,11940.5L10912.5,12176.5" style="fill-rule:nonzero;stroke:black;stroke-width:1px;"/>
                </g>
                <g transform="matrix(0,0.12,-0.12,0,2487.24,66.6)">
                    <path d="M9968,10759L10204,10759L10204,10523L9968,10523L9968,10759" style="fill-rule:nonzero;stroke:black;stroke-width:1px;"/>
                </g>
                <g transform="matrix(0,0.12,-0.12,0,2373.84,-46.8)">
                    <path d="M9968,9814L10204,9814L10204,9578L9968,9578L9968,9814" style="fill-rule:nonzero;stroke:black;stroke-width:1px;"/>
                </g>
                <g transform="matrix(0,0.12,-0.12,0,2260.44,-160.2)">
                    <path d="M9968,8869L10204,8869L10204,8633L9968,8633L9968,8869" style="fill-rule:nonzero;stroke:black;stroke-width:1px;"/>
                </g>
                <g transform="matrix(0,0.12,-0.12,0,2147.1,-273.54)">
                    <path d="M9967.5,7924.5L10204.5,7924.5L10204.5,7688.5L9967.5,7688.5L9967.5,7924.5" style="fill-rule:nonzero;stroke:black;stroke-width:1px;"/>
                </g>
                <g transform="matrix(0,0.12,-0.12,0,2033.7,-386.94)">
                    <path d="M9967.5,6979.5L10204.5,6979.5L10204.5,6743.5L9967.5,6743.5L9967.5,6979.5" style="fill-rule:nonzero;stroke:black;stroke-width:1px;"/>
                </g>
                <g transform="matrix(0,0.12,-0.12,0,1920.36,-500.28)">
                    <path d="M9968,6035L10204,6035L10204,5799L9968,5799L9968,6035" style="fill-rule:nonzero;stroke:black;stroke-width:1px;"/>
                </g>
                <g transform="matrix(0,0.12,-0.12,0,1806.96,-613.68)">
                    <path d="M9968,5090L10204,5090L10204,4854L9968,4854L9968,5090" style="fill-rule:nonzero;stroke:black;stroke-width:1px;"/>
                </g>
                <g transform="matrix(0,0.12,-0.12,0,2600.64,180)">
                    <path d="M9968,11704L10204,11704L10204,11468L9968,11468L9968,11704" style="fill-rule:nonzero;stroke:black;stroke-width:1px;"/>
                </g>
                <g transform="matrix(0,0.12,-0.12,0,1693.56,-613.68)">
                    <path d="M9377,4736L9850,4736L9850,4263L9377,4263L9377,4736" style="fill-rule:nonzero;stroke:black;stroke-width:1px;"/>
                </g>
                <g transform="matrix(0,0.12,-0.12,0,1750.2,-443.64)">
                    <path d="M8905,5680L9377,5680L9377,5208L8905,5208L8905,5680" style="fill-rule:nonzero;stroke:black;stroke-width:1px;"/>
                </g>
                <g transform="matrix(0,0.12,-0.12,0,2430.54,236.7)">
                    <path d="M8904.5,11349.5L9377.5,11349.5L9377.5,10877.5L8904.5,10877.5L8904.5,11349.5" style="fill-rule:nonzero;stroke:black;stroke-width:1px;"/>
                </g>
                <g transform="matrix(0,0.12,-0.12,0,2317.2,123.36)">
                    <path d="M8905,10405L9377,10405L9377,9933L8905,9933L8905,10405" style="fill-rule:nonzero;stroke:black;stroke-width:1px;"/>
                </g>
                <g transform="matrix(0,0.12,-0.12,0,2203.8,9.96)">
                    <path d="M8905,9460L9377,9460L9377,8988L8905,8988L8905,9460" style="fill-rule:nonzero;stroke:black;stroke-width:1px;"/>
                </g>
                <g transform="matrix(0,0.12,-0.12,0,2090.4,-103.44)">
                    <path d="M8905,8515L9377,8515L9377,8043L8905,8043L8905,8515" style="fill-rule:nonzero;stroke:black;stroke-width:1px;"/>
                </g>
                <g transform="matrix(0,0.12,-0.12,0,1977,-216.84)">
                    <path d="M8905,7570L9377,7570L9377,7098L8905,7098L8905,7570" style="fill-rule:nonzero;stroke:black;stroke-width:1px;"/>
                </g>
                <g transform="matrix(0,0.12,-0.12,0,1863.6,-330.24)">
                    <path d="M8905,6625L9377,6625L9377,6153L8905,6153L8905,6625" style="fill-rule:nonzero;stroke:black;stroke-width:1px;"/>
                </g>
                <g transform="matrix(0,0.12,-0.12,0,2147.1,180.06)">
                    <path d="M7959.5,9932.5L8432.5,9932.5L8432.5,9460.5L7959.5,9460.5L7959.5,9932.5" style="fill-rule:nonzero;stroke:black;stroke-width:1px;"/>
                </g>
                <g transform="matrix(0,0.12,-0.12,0,2033.7,66.66)">
                    <path d="M7959.5,8987.5L8432.5,8987.5L8432.5,8515.5L7959.5,8515.5L7959.5,8987.5" style="fill-rule:nonzero;stroke:black;stroke-width:1px;"/>
                </g>
                <g transform="matrix(0,0.12,-0.12,0,1920.3,-46.74)">
                    <path d="M7959.5,8042.5L8432.5,8042.5L8432.5,7570.5L7959.5,7570.5L7959.5,8042.5" style="fill-rule:nonzero;stroke:black;stroke-width:1px;"/>
                </g>
                <g transform="matrix(0,0.12,-0.12,0,1806.9,-160.14)">
                    <path d="M7959.5,7097.5L8432.5,7097.5L8432.5,6625.5L7959.5,6625.5L7959.5,7097.5" style="fill-rule:nonzero;stroke:black;stroke-width:1px;"/>
                </g>
                <g transform="matrix(0,0.12,-0.12,0,1693.5,-273.54)">
                    <path d="M7959.5,6152.5L8432.5,6152.5L8432.5,5680.5L7959.5,5680.5L7959.5,6152.5" style="fill-rule:nonzero;stroke:black;stroke-width:1px;"/>
                </g>
                <g transform="matrix(0,0.12,-0.12,0,1636.8,-330.24)">
                    <path d="M7960,5680L8432,5680L8432,5208L7960,5208L7960,5680" style="fill-rule:nonzero;stroke:black;stroke-width:1px;"/>
                </g>
                <g transform="matrix(0,0.12,-0.12,0,1523.4,-216.84)">
                    <path d="M7015,5680L7487,5680L7487,5208L7015,5208L7015,5680" style="fill-rule:nonzero;stroke:black;stroke-width:1px;"/>
                </g>
                <g transform="matrix(0.12,0,0,-0.12,0,2383.92)">
                    <path d="M1582.45,8515.66L1582.45,8503.84M1582.45,8480.22L1582.45,8456.6M1582.45,8432.98L1582.45,8409.35M1582.45,8385.73L1582.45,8362.11M1582.45,8338.49L1582.45,8314.86M1582.45,8291.24L1582.45,8267.62M1582.45,8244L1582.45,8220.38M1582.45,8196.75L1582.45,8173.13M1582.45,8149.51L1582.45,8125.89M1582.45,8102.26L1582.45,8078.64M1582.45,8055.02L1582.45,8043.21M9850.13,15366.2L9838.32,15366.2M9814.7,15366.2L9791.08,15366.2M9767.46,15366.2L9743.84,15366.2M9720.21,15366.2L9696.59,15366.2M9672.97,15366.2L9649.35,15366.2M9625.73,15366.2L9602.1,15366.2M9578.48,15366.2L9554.86,15366.2M9531.24,15366.2L9507.62,15366.2M9483.99,15366.2L9460.37,15366.2M9436.75,15366.2L9413.13,15366.2M9389.51,15366.2L9377.69,15366.2M1582.45,12295.2L1582.45,12283.4M1582.45,12259.8L1582.45,12236.2M1582.45,12212.6L1582.45,12188.9M1582.45,12165.3L1582.45,12141.7M1582.45,12118.1L1582.45,12094.5M1582.45,12070.8L1582.45,12047.2M1582.45,12023.6L1582.45,12000M1582.45,11976.3L1582.45,11952.7M1582.45,11929.1L1582.45,11905.5M1582.45,11881.8L1582.45,11858.2M1582.45,11834.6L1582.45,11822.8M4180.87,15366.2L4169.06,15366.2M4145.43,15366.2L4121.81,15366.2M4098.19,15366.2L4074.57,15366.2M4050.95,15366.2L4027.32,15366.2M4003.7,15366.2L3980.08,15366.2M3956.46,15366.2L3932.84,15366.2M3909.21,15366.2L3885.59,15366.2M3861.97,15366.2L3838.35,15366.2M3814.73,15366.2L3791.1,15366.2M3767.48,15366.2L3743.86,15366.2M3720.24,15366.2L3708.43,15366.2M5125.74,15366.2L5113.93,15366.2M5090.31,15366.2L5066.69,15366.2M5043.07,15366.2L5019.44,15366.2M4995.82,15366.2L4972.2,15366.2M4948.58,15366.2L4924.96,15366.2M4901.34,15366.2L4877.71,15366.2M4854.09,15366.2L4830.47,15366.2M4806.85,15366.2L4783.23,15366.2M4759.6,15366.2L4735.98,15366.2M4712.36,15366.2L4688.74,15366.2M4665.12,15366.2L4653.31,15366.2M1582.45,9460.55L1582.45,9448.74M1582.45,9425.12L1582.45,9401.5M1582.45,9377.87L1582.45,9354.25M1582.45,9330.63L1582.45,9307.01M1582.45,9283.38L1582.45,9259.76M1582.45,9236.14L1582.45,9212.52M1582.45,9188.89L1582.45,9165.27M1582.45,9141.65L1582.45,9118.03M1582.45,9094.4L1582.45,9070.78M1582.45,9047.16L1582.45,9023.54M1582.45,8999.91L1582.45,8988.1M2527.33,10877.9L2527.33,10866.1M2527.33,10842.5L2527.33,10818.8M2527.33,10795.2L2527.33,10771.6M2527.33,10748L2527.33,10724.4M2527.33,10700.7L2527.33,10677.1M2527.33,10653.5L2527.33,10629.9M2527.33,10606.2L2527.33,10582.6M2527.33,10559L2527.33,10535.4M2527.33,10511.7L2527.33,10488.1M2527.33,10464.5L2527.33,10440.9M2527.33,10417.3L2527.33,10405.4M4180.87,14421.3L4192.68,14421.3M4216.3,14421.3L4239.92,14421.3M4263.54,14421.3L4287.16,14421.3M4310.79,14421.3L4334.41,14421.3M4358.03,14421.3L4381.65,14421.3M4405.27,14421.3L4428.9,14421.3M4452.52,14421.3L4476.14,14421.3M4499.76,14421.3L4523.38,14421.3M4547.01,14421.3L4570.63,14421.3M4594.25,14421.3L4617.87,14421.3M4641.49,14421.3L4653.31,14421.3M1582.45,10405.4L1582.45,10393.6M1582.45,10370L1582.45,10346.4M1582.45,10322.8L1582.45,10299.1M1582.45,10275.5L1582.45,10251.9M1582.45,10228.3L1582.45,10204.7M1582.45,10181L1582.45,10157.4M1582.45,10133.8L1582.45,10110.2M1582.45,10086.5L1582.45,10062.9M1582.45,10039.3L1582.45,10015.7M1582.45,9992.06L1582.45,9968.43M1582.45,9944.81L1582.45,9933M5125.74,14421.3L5137.56,14421.3M5161.18,14421.3L5184.8,14421.3M5208.42,14421.3L5232.04,14421.3M5255.66,14421.3L5279.29,14421.3M5302.91,14421.3L5326.53,14421.3M5350.15,14421.3L5373.78,14421.3M5397.4,14421.3L5421.02,14421.3M5444.64,14421.3L5468.26,14421.3M5491.88,14421.3L5515.51,14421.3M5539.13,14421.3L5562.75,14421.3M5586.37,14421.3L5598.18,14421.3M2054.89,12838.6L2054.89,12814.9M2054.89,12791.3L2054.89,12767.7M2291.11,12838.6L2291.11,12814.9M2291.11,12791.3L2291.11,12767.7M2527.33,9933L2527.33,9921.19M2527.33,9897.57L2527.33,9873.94M2527.33,9850.32L2527.33,9826.7M2527.33,9803.08L2527.33,9779.45M2527.33,9755.83L2527.33,9732.21M2527.33,9708.59L2527.33,9684.96M2527.33,9661.34L2527.33,9637.72M2527.33,9614.1L2527.33,9590.47M2527.33,9566.85L2527.33,9543.23M2527.33,9519.61L2527.33,9495.99M2527.33,9472.36L2527.33,9460.55M1582.45,13240.1L1582.45,13228.3M1582.45,13204.7L1582.45,13181.1M1582.45,13157.5L1582.45,13133.8M1582.45,13110.2L1582.45,13086.6M1582.45,13063L1582.45,13039.3M1582.45,13015.7L1582.45,12992.1M1582.45,12968.5L1582.45,12944.9M1582.45,12921.2L1582.45,12897.6M1582.45,12874L1582.45,12850.4M1582.45,12826.7L1582.45,12803.1M1582.45,12779.5L1582.45,12767.7M7015.5,14421.3L7027.31,14421.3M7050.93,14421.3L7074.56,14421.3M7098.18,14421.3L7121.8,14421.3M7145.42,14421.3L7169.04,14421.3M7192.66,14421.3L7216.29,14421.3M7239.91,14421.3L7263.53,14421.3M7287.15,14421.3L7310.77,14421.3M7334.4,14421.3L7358.02,14421.3M7381.64,14421.3L7405.26,14421.3M7428.88,14421.3L7452.51,14421.3M7476.13,14421.3L7487.94,14421.3M6070.62,15366.2L6058.81,15366.2M6035.19,15366.2L6011.57,15366.2M5987.94,15366.2L5964.32,15366.2M5940.7,15366.2L5917.08,15366.2M5893.46,15366.2L5869.84,15366.2M5846.21,15366.2L5822.59,15366.2M5798.97,15366.2L5775.35,15366.2M5751.73,15366.2L5728.1,15366.2M5704.48,15366.2L5680.86,15366.2M5657.24,15366.2L5633.62,15366.2M5609.99,15366.2L5598.18,15366.2M7015.5,15366.2L7003.69,15366.2M6980.07,15366.2L6956.44,15366.2M6932.82,15366.2L6909.2,15366.2M6885.58,15366.2L6861.96,15366.2M6838.34,15366.2L6814.71,15366.2M6791.09,15366.2L6767.47,15366.2M6743.85,15366.2L6720.23,15366.2M6696.6,15366.2L6672.98,15366.2M6649.36,15366.2L6625.74,15366.2M6602.12,15366.2L6578.49,15366.2M6554.87,15366.2L6543.06,15366.2M4180.87,14893.7L4157.24,14893.7M4133.62,14893.7L4110,14893.7M7960.38,14421.3L7972.19,14421.3M7995.81,14421.3L8019.43,14421.3M8043.06,14421.3L8066.68,14421.3M8090.3,14421.3L8113.92,14421.3M8137.54,14421.3L8161.16,14421.3M8184.79,14421.3L8208.41,14421.3M8232.03,14421.3L8255.65,14421.3M8279.27,14421.3L8302.9,14421.3M8326.52,14421.3L8350.14,14421.3M8373.76,14421.3L8397.38,14421.3M8421.01,14421.3L8432.82,14421.3M2527.33,11822.8L2527.33,11811M2527.33,11787.4L2527.33,11763.7M2527.33,11740.1L2527.33,11716.5M2527.33,11692.9L2527.33,11669.2M2527.33,11645.6L2527.33,11622M2527.33,11598.4L2527.33,11574.8M2527.33,11551.1L2527.33,11527.5M2527.33,11503.9L2527.33,11480.3M2527.33,11456.6L2527.33,11433M2527.33,11409.4L2527.33,11385.8M2527.33,11362.2L2527.33,11350.3M2527.33,12767.7L2527.33,12755.9M2527.33,12732.3L2527.33,12708.6M2527.33,12685L2527.33,12661.4M2527.33,12637.8L2527.33,12614.1M2527.33,12590.5L2527.33,12566.9M2527.33,12543.3L2527.33,12519.7M2527.33,12496L2527.33,12472.4M2527.33,12448.8L2527.33,12425.2M2527.33,12401.5L2527.33,12377.9M2527.33,12354.3L2527.33,12330.7M2527.33,12307.1L2527.33,12295.2M1582.45,11350.3L1582.45,11338.5M1582.45,11314.9L1582.45,11291.3M1582.45,11267.7L1582.45,11244M1582.45,11220.4L1582.45,11196.8M1582.45,11173.2L1582.45,11149.6M1582.45,11125.9L1582.45,11102.3M1582.45,11078.7L1582.45,11055.1M1582.45,11031.4L1582.45,11007.8M1582.45,10984.2L1582.45,10960.6M1582.45,10937L1582.45,10913.3M1582.45,10889.7L1582.45,10877.9M4180.87,14657.5L4157.24,14657.5M4133.62,14657.5L4110,14657.5M8905.26,15366.2L8893.44,15366.2M8869.82,15366.2L8846.2,15366.2M8822.58,15366.2L8798.96,15366.2M8775.34,15366.2L8751.71,15366.2M8728.09,15366.2L8704.47,15366.2M8680.85,15366.2L8657.23,15366.2M8633.6,15366.2L8609.98,15366.2M8586.36,15366.2L8562.74,15366.2M8539.12,15366.2L8515.49,15366.2M8491.87,15366.2L8468.25,15366.2M8444.63,15366.2L8432.82,15366.2M7960.38,15366.2L7948.57,15366.2M7924.95,15366.2L7901.32,15366.2M7877.7,15366.2L7854.08,15366.2M7830.46,15366.2L7806.84,15366.2M7783.21,15366.2L7759.59,15366.2M7735.97,15366.2L7712.35,15366.2M7688.73,15366.2L7665.1,15366.2M7641.48,15366.2L7617.86,15366.2M7594.24,15366.2L7570.62,15366.2M7546.99,15366.2L7523.37,15366.2M7499.75,15366.2L7487.94,15366.2M2527.33,8988.1L2527.33,8976.29M2527.33,8952.67L2527.33,8929.05M2527.33,8905.42L2527.33,8881.8M2527.33,8858.18L2527.33,8834.56M2527.33,8810.94L2527.33,8787.31M2527.33,8763.69L2527.33,8740.07M2527.33,8716.45L2527.33,8692.82M2527.33,8669.2L2527.33,8645.58M2527.33,8621.96L2527.33,8598.33M2527.33,8574.71L2527.33,8551.09M2527.33,8527.47L2527.33,8515.66M2409.22,12838.6L2409.22,12814.9M2409.22,12791.3L2409.22,12767.7M1582.45,7570.76L1582.45,7558.95M1582.45,7535.33L1582.45,7511.7M1582.45,7488.08L1582.45,7464.46M1582.45,7440.84L1582.45,7417.21M1582.45,7393.59L1582.45,7369.97M1582.45,7346.35L1582.45,7322.72M1582.45,7299.1L1582.45,7275.48M1582.45,7251.86L1582.45,7228.23M1582.45,7204.61L1582.45,7180.99M1582.45,7157.37L1582.45,7133.74M1582.45,7110.12L1582.45,7098.31M6070.62,14421.3L6082.43,14421.3M6106.06,14421.3L6129.68,14421.3M6153.3,14421.3L6176.92,14421.3M6200.54,14421.3L6224.16,14421.3M6247.79,14421.3L6271.41,14421.3M6295.03,14421.3L6318.65,14421.3M6342.28,14421.3L6365.9,14421.3M6389.52,14421.3L6413.14,14421.3M6436.76,14421.3L6460.38,14421.3M6484.01,14421.3L6507.63,14421.3M6531.25,14421.3L6543.06,14421.3M4180.87,14539.4L4157.24,14539.4M4133.62,14539.4L4110,14539.4M3235.99,16311.1L3235.99,15720.5M13393.4,13712.6L12802.9,13712.6M1228.12,13712.6L637.573,13712.6M3235.99,16311.1L3235.99,16074.8M3235.99,16074.8L3117.88,16192.9M3117.88,16192.9L3235.99,16311.1M637.573,13712.6L873.793,13712.6L755.683,13830.7L637.573,13712.6M3235.99,3554.95L3235.99,3791.17M3235.99,3791.17L3117.88,3673.06M3117.88,3673.06L3235.99,3554.95M13393.4,13712.6L13157.2,13712.6L13275.3,13830.7L13393.4,13712.6M3235.99,4145.51L3235.99,3554.95M6070.62,14468.5L6070.62,14421.3M6070.62,14421.3L5598.18,14421.3M5598.18,14421.3L5598.18,14468.5M5598.18,14468.5L6070.62,14468.5M8196.6,10877.9L8243.84,10877.9M8243.84,10877.9L8243.84,10405.4M8243.84,10405.4L8196.6,10405.4M8196.6,10405.4L8196.6,10877.9M8196.6,10877.9L8243.84,10877.9M3235.99,8751.88L3235.99,8704.63M8243.84,13240.1L8196.6,13240.1M8196.6,13240.1L8196.6,13712.6M8196.6,13712.6L8243.84,13712.6M8243.84,13712.6L8243.84,13240.1M8366,9933L8432.82,9933M8432.82,9933L8329.04,9829.22M8329.04,9829.22L8295.63,9862.62M8295.63,9862.62L8366,9933M5598.18,8751.88L5598.18,8704.63M5598.18,8704.63L5125.74,8704.63M5125.74,8704.63L5125.74,8751.88M5125.74,8751.88L5598.18,8751.88M3708.43,8751.88L3708.43,8704.63M4653.31,14421.3L4653.31,14468.5M4653.31,14468.5L5125.74,14468.5M5125.74,14468.5L5125.74,14421.3M5125.74,14421.3L4653.31,14421.3M7015.5,14468.5L7015.5,14421.3M7015.5,14421.3L6543.06,14421.3M6543.06,14421.3L6543.06,14468.5M6543.06,14468.5L7015.5,14468.5M8243.84,11350.3L8196.6,11350.3M8196.6,11350.3L8196.6,11822.8M8196.6,11822.8L8243.84,11822.8M8243.84,11822.8L8243.84,11350.3M2527.33,11822.8L2480.09,11822.8M2480.09,11822.8L2480.09,12295.2M2480.09,12295.2L2527.33,12295.2M2527.33,12295.2L2527.33,11822.8M2480.09,10405.4L2527.33,10405.4M2527.33,10405.4L2527.33,9933M2527.33,9933L2480.09,9933M2480.09,9933L2480.09,10405.4M4653.31,8751.88L4653.31,8704.63M4653.31,8704.63L4180.87,8704.63M4180.87,8704.63L4180.87,8751.88M4180.87,8751.88L4653.31,8751.88M6543.06,8751.88L6543.06,8704.63M6543.06,8704.63L6070.62,8704.63M6070.62,8704.63L6070.62,8751.88M6070.62,8751.88L6543.06,8751.88M7586.97,9153.95L7620.38,9120.54M7620.38,9120.54L7827.94,9328.11M7827.94,9328.11L7794.53,9361.52M7794.53,9361.52L7586.97,9153.95M7015.5,8582.47L7015.5,8515.66M7015.5,8515.66L7119.28,8619.44M7119.28,8619.44L7085.87,8652.85M7085.87,8652.85L7015.5,8582.47M2527.33,8988.1L2480.09,8988.1M2480.09,8988.1L2480.09,9460.55M2480.09,9460.55L2527.33,9460.55M2527.33,9460.55L2527.33,8988.1M8196.6,12767.7L8243.84,12767.7M8243.84,12767.7L8243.84,12295.2M8243.84,12295.2L8196.6,12295.2M8196.6,12295.2L8196.6,12767.7M7960.38,14468.5L7960.38,14421.3M7960.38,14421.3L7487.94,14421.3M7487.94,14421.3L7487.94,14468.5M7487.94,14468.5L7960.38,14468.5M2480.09,11350.3L2527.33,11350.3M2527.33,11350.3L2527.33,10877.9M2527.33,10877.9L2480.09,10877.9M2480.09,10877.9L2480.09,11350.3M9968.24,13122L9968.24,12885.8M9968.24,12885.8L10204.5,12885.8M10204.5,12885.8L10204.5,13122M10204.5,13122L9968.24,13122M9968.24,15011.8L9968.24,14775.6M9968.24,14775.6L10204.5,14775.6M10204.5,14775.6L10204.5,15011.8M10204.5,15011.8L9968.24,15011.8M9377.69,13240.1L9377.69,13712.6M9377.69,13712.6L8905.26,13712.6M8905.26,13712.6L8905.26,13240.1M8905.26,13240.1L9377.69,13240.1M8905.26,15129.9L8905.26,15602.4M8905.26,15602.4L8432.82,15602.4M8432.82,15602.4L8432.82,15129.9M8432.82,15129.9L8905.26,15129.9M4180.87,15129.9L4110,15129.9M4110,15129.9L4110,14421.3M4110,14421.3L4180.87,14421.3M4180.87,14421.3L4180.87,14657.5M4180.87,14657.5L4180.87,15129.9M8432.82,9933L8432.82,10405.4M8432.82,10405.4L7960.38,10405.4M7960.38,10405.4L7960.38,9933M7960.38,9933L8432.82,9933M9377.69,8515.66L9377.69,8988.1M9377.69,8988.1L8905.26,8988.1M8905.26,8988.1L8905.26,8515.66M8905.26,8515.66L9377.69,8515.66M8432.82,14185L7960.38,14185M7960.38,14185L7960.38,13712.6M7960.38,13712.6L8432.82,13712.6M8432.82,13712.6L8432.82,14185M10913.1,15484.3L10913.1,15248M10913.1,15248L11149.3,15248M11149.3,15248L11149.3,15484.3M11149.3,15484.3L10913.1,15484.3M10913.1,7925.09L10913.1,7688.87M10913.1,7688.87L11149.3,7688.87M11149.3,7688.87L11149.3,7925.09M11149.3,7925.09L10913.1,7925.09M9968.24,11232.2L9968.24,10996M9968.24,10996L10204.5,10996M10204.5,10996L10204.5,11232.2M10204.5,11232.2L9968.24,11232.2M7487.94,14185L7487.94,14657.5M7487.94,14657.5L7015.5,14657.5M7015.5,14657.5L7015.5,14185M7015.5,14185L7487.94,14185M2763.55,7570.76L2291.11,7570.76M2291.11,7570.76L2291.11,8043.21M2291.11,8043.21L2763.55,8043.21M2763.55,8043.21L2763.55,7570.76M3708.43,7570.76L3235.99,7570.76M3235.99,7570.76L3235.99,8043.21M3235.99,8043.21L3708.43,8043.21M3708.43,8043.21L3708.43,7570.76M4180.87,8515.66L3708.43,8515.66M3708.43,8515.66L3708.43,8988.1M3708.43,8988.1L4180.87,8988.1M4180.87,8988.1L4180.87,8515.66M7606.05,6980.2L7842.27,6980.2M7842.27,6980.2L7842.27,6743.97M7842.27,6743.97L7606.05,6743.97M7606.05,6743.97L7606.05,6980.2M9023.37,6035.3L9259.59,6035.3M9259.59,6035.3L9259.59,5799.08M9259.59,5799.08L9023.37,5799.08M9023.37,5799.08L9023.37,6035.3M2763.55,9460.55L2291.11,9460.55M2291.11,9460.55L2291.11,9933M2291.11,9933L2763.55,9933M2763.55,9933L2763.55,9460.55M4653.31,7570.76L4180.87,7570.76M4180.87,7570.76L4180.87,8043.21M4180.87,8043.21L4653.31,8043.21M4653.31,8043.21L4653.31,7570.76M4298.98,6035.3L4535.19,6035.3M4535.19,6035.3L4535.19,5799.08M4535.19,5799.08L4298.98,5799.08M4298.98,5799.08L4298.98,6035.3M7133.61,6035.3L7369.83,6035.3M7369.83,6035.3L7369.83,5799.08M7369.83,5799.08L7133.61,5799.08M7133.61,5799.08L7133.61,6035.3M10913.1,9814.89L10913.1,9578.66M10913.1,9578.66L11149.3,9578.66M11149.3,9578.66L11149.3,9814.89M11149.3,9814.89L10913.1,9814.89M3708.43,15602.4L3708.43,15531.5M3708.43,15531.5L3708.43,15129.9M3708.43,15129.9L4180.87,15129.9M4180.87,15129.9L4180.87,15602.4M4180.87,15602.4L3708.43,15602.4M6070.62,15129.9L6070.62,15602.4M6070.62,15602.4L5598.18,15602.4M5598.18,15602.4L5598.18,15129.9M5598.18,15129.9L6070.62,15129.9M6543.06,14185L6543.06,14657.5M6543.06,14657.5L6070.62,14657.5M6070.62,14657.5L6070.62,14185M6070.62,14185L6543.06,14185M8432.82,12767.7L8432.82,13240.1M8432.82,13240.1L7960.38,13240.1M7960.38,13240.1L7960.38,12767.7M7960.38,12767.7L8432.82,12767.7M7960.38,15129.9L7960.38,15602.4M7960.38,15602.4L7487.94,15602.4M7487.94,15602.4L7487.94,15129.9M7487.94,15129.9L7960.38,15129.9M9377.69,11350.3L9377.69,11822.8M9377.69,11822.8L8905.26,11822.8M8905.26,11822.8L8905.26,11350.3M8905.26,11350.3L9377.69,11350.3M9377.69,14185L9377.69,14657.5M9377.69,14657.5L8905.26,14657.5M8905.26,14657.5L8905.26,14185M8905.26,14185L9377.69,14185M9377.69,9460.55L9377.69,9933M9377.69,9933L8905.26,9933M8905.26,9933L8905.26,9460.55M8905.26,9460.55L9377.69,9460.55M9968.24,8397.54L9968.24,8161.32M9968.24,8161.32L10204.5,8161.32M10204.5,8161.32L10204.5,8397.54M10204.5,8397.54L9968.24,8397.54M9968.24,10287.3L9968.24,10051.1M9968.24,10051.1L10204.5,10051.1M10204.5,10051.1L10204.5,10287.3M10204.5,10287.3L9968.24,10287.3M10913.1,13594.5L10913.1,13358.2M10913.1,13358.2L11149.3,13358.2M11149.3,13358.2L11149.3,13594.5M11149.3,13594.5L10913.1,13594.5M9968.24,9342.44L9968.24,9106.22M9968.24,9106.22L10204.5,9106.22M10204.5,9106.22L10204.5,9342.44M10204.5,9342.44L9968.24,9342.44M1464.34,6035.3L1700.56,6035.3M1700.56,6035.3L1700.56,5799.08M1700.56,5799.08L1464.34,5799.08M1464.34,5799.08L1464.34,6035.3M9968.24,14066.9L9968.24,13830.7M9968.24,13830.7L10204.5,13830.7M10204.5,13830.7L10204.5,14066.9M10204.5,14066.9L9968.24,14066.9M2409.22,6035.3L2645.44,6035.3M2645.44,6035.3L2645.44,5799.08M2645.44,5799.08L2409.22,5799.08M2409.22,5799.08L2409.22,6035.3M8078.49,6035.3L8314.71,6035.3M8314.71,6035.3L8314.71,5799.08M8314.71,5799.08L8078.49,5799.08M8078.49,5799.08L8078.49,6035.3M1936.78,6980.2L2173,6980.2M2173,6980.2L2173,6743.97M2173,6743.97L1936.78,6743.97M1936.78,6743.97L1936.78,6980.2M8432.82,7570.76L7960.38,7570.76M7960.38,7570.76L7960.38,8043.21M7960.38,8043.21L8432.82,8043.21M8432.82,8043.21L8432.82,7570.76M6543.06,7570.76L6070.62,7570.76M6070.62,7570.76L6070.62,8043.21M6070.62,8043.21L6543.06,8043.21M6543.06,8043.21L6543.06,7570.76M7015.5,8515.66L6543.06,8515.66M6543.06,8515.66L6543.06,8988.1M6543.06,8988.1L7015.5,8988.1M7015.5,8988.1L7015.5,8515.66M5125.74,8515.66L4653.31,8515.66M4653.31,8515.66L4653.31,8988.1M4653.31,8988.1L5125.74,8988.1M5125.74,8988.1L5125.74,8515.66M2763.55,8515.66L2763.55,8988.1M2763.55,8988.1L3235.99,8988.1M3235.99,8988.1L3235.99,8515.66M3235.99,8515.66L2763.55,8515.66M1818.67,8043.21L1346.23,8043.21M1346.23,8043.21L1346.23,8515.66M1346.23,8515.66L1818.67,8515.66M1818.67,8515.66L1818.67,8043.21M1818.67,9933L1346.23,9933M1346.23,9933L1346.23,10405.4M1346.23,10405.4L1818.67,10405.4M1818.67,10405.4L1818.67,9933M1818.67,11822.8L1346.23,11822.8M1346.23,11822.8L1346.23,12295.2M1346.23,12295.2L1818.67,12295.2M1818.67,12295.2L1818.67,11822.8M1818.67,12767.7L1818.67,12838.6M1818.67,12838.6L2527.33,12838.6M2527.33,12838.6L2527.33,12767.7M2527.33,12767.7L2291.11,12767.7M2291.11,12767.7L1818.67,12767.7M1818.67,7098.31L1346.23,7098.31M1346.23,7098.31L1346.23,7570.76M1346.23,7570.76L1818.67,7570.76M1818.67,7570.76L1818.67,7098.31M1346.23,13240.1L1417.1,13240.1M1417.1,13240.1L1818.67,13240.1M1818.67,13240.1L1818.67,12767.7M1818.67,12767.7L1346.23,12767.7M1346.23,12767.7L1346.23,13240.1M3708.43,15531.5L3708.43,15602.4M3708.43,15602.4L1889.54,15602.4M1889.54,15602.4L1889.54,15531.5M1889.54,15531.5L3708.43,15531.5M1417.1,13240.1L1346.23,13240.1M1346.23,13240.1L1346.23,15602.4M1346.23,15602.4L1417.1,15602.4M1417.1,15602.4L1417.1,13240.1M2763.55,11350.3L2291.11,11350.3M2291.11,11350.3L2291.11,11822.8M2291.11,11822.8L2763.55,11822.8M2763.55,11822.8L2763.55,11350.3M1818.67,10877.9L1346.23,10877.9M1346.23,10877.9L1346.23,11350.3M1346.23,11350.3L1818.67,11350.3M1818.67,11350.3L1818.67,10877.9M6070.62,8515.66L5598.18,8515.66M5598.18,8515.66L5598.18,8988.1M5598.18,8988.1L6070.62,8988.1M6070.62,8988.1L6070.62,8515.66M5598.18,7570.76L5125.74,7570.76M5125.74,7570.76L5125.74,8043.21M5125.74,8043.21L5598.18,8043.21M5598.18,8043.21L5598.18,7570.76M2763.55,8988.1L2763.55,8515.66M2763.55,8515.66L2291.11,8515.66M2291.11,8515.66L2291.11,8988.1M2291.11,8988.1L2763.55,8988.1M7487.94,7570.76L7015.5,7570.76M7015.5,7570.76L7015.5,8043.21M7015.5,8043.21L7487.94,8043.21M7487.94,8043.21L7487.94,7570.76M2881.66,6980.2L3117.88,6980.2M3117.88,6980.2L3117.88,6743.97M3117.88,6743.97L2881.66,6743.97M2881.66,6743.97L2881.66,6980.2M3826.54,6980.2L4062.76,6980.2M4062.76,6980.2L4062.76,6743.97M4062.76,6743.97L3826.54,6743.97M3826.54,6743.97L3826.54,6980.2M8550.93,6980.2L8787.15,6980.2M8787.15,6980.2L8787.15,6743.97M8787.15,6743.97L8550.93,6743.97M8550.93,6743.97L8550.93,6980.2M6661.17,6980.2L6897.39,6980.2M6897.39,6980.2L6897.39,6743.97M6897.39,6743.97L6661.17,6743.97M6661.17,6743.97L6661.17,6980.2M6188.73,6035.3L6424.95,6035.3M6424.95,6035.3L6424.95,5799.08M6424.95,5799.08L6188.73,5799.08M6188.73,5799.08L6188.73,6035.3M5716.29,6980.2L5952.51,6980.2M5952.51,6980.2L5952.51,6743.97M5952.51,6743.97L5716.29,6743.97M5716.29,6743.97L5716.29,6980.2M5243.85,6035.3L5480.07,6035.3M5480.07,6035.3L5480.07,5799.08M5480.07,5799.08L5243.85,5799.08M5243.85,5799.08L5243.85,6035.3M10913.1,11704.7L10913.1,11468.5M10913.1,11468.5L11149.3,11468.5M11149.3,11468.5L11149.3,11704.7M11149.3,11704.7L10913.1,11704.7M3354.1,6035.3L3590.32,6035.3M3590.32,6035.3L3590.32,5799.08M3590.32,5799.08L3354.1,5799.08M3354.1,5799.08L3354.1,6035.3M4771.41,6980.2L5007.63,6980.2M5007.63,6980.2L5007.63,6743.97M5007.63,6743.97L4771.41,6743.97M4771.41,6743.97L4771.41,6980.2M2763.55,10405.4L2291.11,10405.4M2291.11,10405.4L2291.11,10877.9M2291.11,10877.9L2763.55,10877.9M2763.55,10877.9L2763.55,10405.4M10913.1,8869.99L10913.1,8633.77M10913.1,8633.77L11149.3,8633.77M11149.3,8633.77L11149.3,8869.99M11149.3,8869.99L10913.1,8869.99M9968.24,12177.1L9968.24,11940.9M9968.24,11940.9L10204.5,11940.9M10204.5,11940.9L10204.5,12177.1M10204.5,12177.1L9968.24,12177.1M10913.1,10759.8L10913.1,10523.6M10913.1,10523.6L11149.3,10523.6M11149.3,10523.6L11149.3,10759.8M11149.3,10759.8L10913.1,10759.8M9377.69,10405.4L9377.69,10877.9M9377.69,10877.9L8905.26,10877.9M8905.26,10877.9L8905.26,10405.4M8905.26,10405.4L9377.69,10405.4M9377.69,12295.2L9377.69,12767.7M9377.69,12767.7L8905.26,12767.7M8905.26,12767.7L8905.26,12295.2M8905.26,12295.2L9377.69,12295.2M9850.13,15129.9L9850.13,15602.4M9850.13,15602.4L9377.69,15602.4M9377.69,15602.4L9377.69,15129.9M9377.69,15129.9L9850.13,15129.9M10913.1,12649.6L10913.1,12413.4M10913.1,12413.4L11149.3,12413.4M11149.3,12413.4L11149.3,12649.6M11149.3,12649.6L10913.1,12649.6M7960.38,14185L8432.82,14185M8432.82,14185L8432.82,14657.5M8432.82,14657.5L7960.38,14657.5M7960.38,14657.5L7960.38,14185M7015.5,15129.9L7015.5,15602.4M7015.5,15602.4L6543.06,15602.4M6543.06,15602.4L6543.06,15129.9M6543.06,15129.9L7015.5,15129.9M8432.82,11822.8L8432.82,12295.2M8432.82,12295.2L7960.38,12295.2M7960.38,12295.2L7960.38,11822.8M7960.38,11822.8L8432.82,11822.8M5598.18,14185L5598.18,14657.5M5598.18,14657.5L5125.74,14657.5M5125.74,14657.5L5125.74,14185M5125.74,14185L5598.18,14185M5125.74,15129.9L5125.74,15602.4M5125.74,15602.4L4653.31,15602.4M4653.31,15602.4L4653.31,15129.9M4653.31,15129.9L5125.74,15129.9M8432.82,10877.9L8432.82,11350.3M8432.82,11350.3L7960.38,11350.3M7960.38,11350.3L7960.38,10877.9M7960.38,10877.9L8432.82,10877.9M10913.1,14539.4L10913.1,14303.1M10913.1,14303.1L11149.3,14303.1M11149.3,14303.1L11149.3,14539.4M11149.3,14539.4L10913.1,14539.4M1818.67,8988.1L1346.23,8988.1M1346.23,8988.1L1346.23,9460.55M1346.23,9460.55L1818.67,9460.55M1818.67,9460.55L1818.67,8988.1M9968.24,10996L9968.24,11232.2M10204.5,11940.9L9968.24,11940.9M2054.89,7570.76L2291.11,7570.76M10204.5,12177.1L10204.5,11940.9M9968.24,12177.1L10204.5,12177.1M2763.55,7570.76L3235.99,7570.76M9968.24,11940.9L9968.24,12177.1M3708.43,7570.76L4180.87,7570.76M4653.31,7570.76L5125.74,7570.76M9968.24,13122L10204.5,13122M9968.24,12885.8L9968.24,13122M10204.5,13830.7L9968.24,13830.7M5598.18,7570.76L6070.62,7570.76M10204.5,14066.9L10204.5,13830.7M9968.24,14066.9L10204.5,14066.9M6543.06,7570.76L7015.5,7570.76M9968.24,13830.7L9968.24,14066.9M7960.38,13240.1L8432.82,13240.1M7487.94,7570.76L7960.38,7570.76M7960.38,12767.7L7960.38,13240.1M8432.82,12767.7L8243.84,12767.7M9377.69,8988.1L9377.69,9460.55M8196.6,12767.7L7960.38,12767.7M8432.82,13240.1L8432.82,12767.7M9377.69,9933L9377.69,10405.4M7960.38,11350.3L8432.82,11350.3M7960.38,10877.9L7960.38,11350.3M9377.69,10877.9L9377.69,11350.3M8432.82,10877.9L8243.84,10877.9M8196.6,10877.9L7960.38,10877.9M9377.69,11822.8L9377.69,12295.2M8432.82,11350.3L8432.82,10877.9M7960.38,12295.2L8196.6,12295.2M9377.69,12767.7L9377.69,13240.1M8243.84,12295.2L8432.82,12295.2M7960.38,11822.8L7960.38,12295.2M9377.69,13712.6L9377.69,14185M8432.82,11822.8L7960.38,11822.8M8432.82,12295.2L8432.82,11822.8M9377.69,14657.5L9377.69,14893.7M7960.38,13712.6L7960.38,14185M8432.82,13712.6L7960.38,13712.6M2054.89,13003.9L2054.89,12838.6M8432.82,14185L8432.82,13712.6M8905.26,13712.6L9377.69,13712.6M8905.26,13240.1L8905.26,13712.6M9377.69,13240.1L8905.26,13240.1M2054.89,12767.7L2054.89,7570.76M9377.69,13712.6L9377.69,13240.1M8905.26,11822.8L9377.69,11822.8M2173,14775.6L2173,13003.9M8905.26,11350.3L8905.26,11822.8M9377.69,11350.3L8905.26,11350.3M2173,13003.9L2054.89,13003.9M9377.69,11822.8L9377.69,11350.3M8905.26,9933L9377.69,9933M8432.82,7806.98L9141.48,7806.98M8905.26,9460.55L8905.26,9933M9377.69,9460.55L8905.26,9460.55M9141.48,7806.98L9141.48,8515.66M9377.69,9933L9377.69,9460.55M8905.26,8988.1L9377.69,8988.1M3944.65,14893.7L3944.65,14775.6M8905.26,8515.66L8905.26,8988.1M9377.69,8515.66L8905.26,8515.66M3944.65,14775.6L2173,14775.6M9377.69,8988.1L9377.69,8515.66M8905.26,10877.9L9377.69,10877.9M7251.72,9696.78L3472.21,9696.78M8905.26,10405.4L8905.26,10877.9M9377.69,10405.4L8905.26,10405.4M3472.21,9696.78L3472.21,13476.4M9377.69,10877.9L9377.69,10405.4M8905.26,12767.7L9377.69,12767.7M3472.21,13476.4L7251.72,13476.4M8905.26,12295.2L8905.26,12767.7M9377.69,12295.2L8905.26,12295.2M7251.72,13476.4L7251.72,9696.78M9377.69,12767.7L9377.69,12295.2M8905.26,14657.5L9377.69,14657.5M9377.69,14893.7L4180.87,14893.7M10204.5,13122L10204.5,12885.8L9968.24,12885.8M8905.26,14185L8905.26,14657.5M9377.69,14185L8905.26,14185M9377.69,14657.5L9377.69,14185M11149.3,8633.77L10913.1,8633.77M4110,14893.7L3944.65,14893.7M11149.3,8869.99L11149.3,8633.77M10913.1,8869.99L11149.3,8869.99M1818.67,7098.31L8787.15,7098.31M10913.1,8633.77L10913.1,8869.99M11149.3,10523.6L10913.1,10523.6M1818.67,12767.7L1818.67,12295.2M11149.3,10759.8L11149.3,10523.6M10913.1,10759.8L11149.3,10759.8M1818.67,11822.8L1818.67,11350.3M10913.1,10523.6L10913.1,10759.8M11149.3,12413.4L10913.1,12413.4M1818.67,10877.9L1818.67,10405.4M11149.3,12649.6L11149.3,12413.4M10913.1,12649.6L11149.3,12649.6M1818.67,9933L1818.67,9460.55M10913.1,12413.4L10913.1,12649.6M11149.3,14303.1L10913.1,14303.1M1818.67,8988.1L1818.67,8515.66M11149.3,14539.4L11149.3,14303.1M10913.1,14539.4L11149.3,14539.4M1818.67,8043.21L1818.67,7570.76M10913.1,14303.1L10913.1,14539.4M11149.3,15248L10913.1,15248M1936.78,15011.8L1936.78,13240.1M11149.3,15484.3L11149.3,15248M10913.1,15484.3L11149.3,15484.3M1936.78,13240.1L1818.67,13240.1M10913.1,15248L10913.1,15484.3M11149.3,11468.5L10913.1,11468.5M8787.15,7334.53L8787.15,7098.31M11149.3,11704.7L11149.3,11468.5M10913.1,11704.7L11149.3,11704.7M9613.92,7334.53L8787.15,7334.53M10913.1,11468.5L10913.1,11704.7M11149.3,9578.66L10913.1,9578.66M9613.92,8161.32L9613.92,7334.53M11149.3,9814.89L11149.3,9578.66M10913.1,9814.89L11149.3,9814.89M9850.13,8161.32L9613.92,8161.32M10913.1,9578.66L10913.1,9814.89M11149.3,7688.87L10913.1,7688.87M3708.43,15129.9L3708.43,15011.8M11149.3,7925.09L11149.3,7688.87M10913.1,7925.09L11149.3,7925.09M3708.43,15011.8L1936.78,15011.8M10913.1,7688.87L10913.1,7925.09M10204.5,14775.6L9968.24,14775.6M7015.5,9935.66L5007.63,9935.66M10204.5,15011.8L10204.5,14775.6M9968.24,15011.8L10204.5,15011.8M3708.43,11232.2L3708.43,13240.1M9968.24,14775.6L9968.24,15011.8M10204.5,10051.1L9968.24,10051.1M3708.43,13240.1L5716.29,13240.1M10204.5,10287.3L10204.5,10051.1M9968.24,10287.3L10204.5,10287.3M7015.5,11940.9L7015.5,9935.66M9968.24,10051.1L9968.24,10287.3M8905.26,15129.9L8432.82,15129.9M9850.13,8161.32L9850.13,15129.9M8905.26,15602.4L8905.26,15129.9M8432.82,15602.4L8905.26,15602.4M9377.69,15129.9L8905.26,15129.9M8432.82,15129.9L8432.82,15602.4M7015.5,15129.9L6543.06,15129.9M8432.82,15129.9L7960.38,15129.9M7015.5,15602.4L7015.5,15129.9M6543.06,15602.4L7015.5,15602.4M7487.94,15129.9L7015.5,15129.9M6543.06,15129.9L6543.06,15602.4M5125.74,15129.9L4653.31,15129.9M6543.06,15129.9L6070.62,15129.9M5125.74,15602.4L5125.74,15129.9M4653.31,15602.4L5125.74,15602.4M5598.18,15129.9L5125.74,15129.9M4653.31,15129.9L4653.31,15602.4M5598.18,14185L5125.74,14185M4653.31,15129.9L4180.87,15129.9M5598.18,14657.5L5598.18,14468.5M5598.18,14421.3L5598.18,14185M1582.45,6153.41L9259.59,6153.41M5125.74,14657.5L5598.18,14657.5M5125.74,14185L5125.74,14657.5M7487.94,14185L7015.5,14185M7487.94,14657.5L7487.94,14468.5M1582.45,12767.7L1582.45,12295.2M7487.94,14421.3L7487.94,14185M7015.5,14657.5L7487.94,14657.5M7015.5,14185L7015.5,14657.5M4653.31,14421.3L4653.31,14468.5M1582.45,11822.8L1582.45,11350.3M4653.31,14185L4180.87,14185M4653.31,14657.5L4653.31,14468.5M4653.31,14421.3L4653.31,14185M4180.87,14657.5L4653.31,14657.5M1582.45,10877.9L1582.45,10405.4M4180.87,14185L4180.87,14421.3M1582.45,9933L1582.45,9460.55M8432.82,13712.6L8432.82,13240.1M8432.82,12767.7L8432.82,12295.2M1582.45,8988.1L1582.45,8515.66M8432.82,11822.8L8432.82,11350.3M8432.82,10877.9L8432.82,10405.4M3235.99,8988.1L3708.43,8988.1M4180.87,8988.1L4653.31,8988.1M1582.45,8043.21L1582.45,7570.76M5125.74,8988.1L5598.18,8988.1M6070.62,8988.1L6543.06,8988.1M2763.55,12295.2L2763.55,11822.8M2763.55,11350.3L2763.55,10877.9M1582.45,7098.31L1582.45,6153.41M2763.55,10405.4L2763.55,9933M2763.55,9460.55L2763.55,8988.1M3708.43,15248L1700.56,15248M7015.5,9224.33L7015.5,8988.1M2763.55,12767.7L2999.77,12767.7M1700.56,15248L1700.56,13240.1M2999.77,12767.7L2999.77,9224.33L7015.5,9224.33M9259.59,6625.86L9259.59,6153.41M7960.38,14185L7487.94,14185M7015.5,14185L6543.06,14185M10322.6,6625.86L9259.59,6625.86M6070.62,14185L5598.18,14185M5125.74,14185L4653.31,14185M10322.6,7688.87L10322.6,6625.86M7724.16,13948.8L4180.87,13948.8M7724.16,9933L7724.16,13948.8M10795,7688.87L10322.6,7688.87M7960.38,9933L7724.16,9933M7960.38,10405.4L7960.38,10877.9M6779.28,10164.3L3944.65,10164.3M7960.38,11350.3L7960.38,11822.8M7960.38,12295.2L7960.38,12767.7M3944.65,10164.3L3944.65,13003.9M7960.38,13240.1L7960.38,13712.6M4180.87,13948.8L4180.87,14185M3944.65,13003.9L6779.28,13003.9M7015.5,8515.66L8432.82,8515.66L8432.82,9933M6779.28,13003.9L6779.28,10164.3M4110,14421.3L2527.33,14421.3L2527.33,12838.6M10795,7688.87L10795,15366.2M3117.88,13830.7L3117.88,9342.44M7606.05,13830.7L3117.88,13830.7M10795,15366.2L9850.13,15366.2M7606.05,9342.44L7606.05,13830.7M3117.88,9342.44L7606.05,9342.44M8432.82,8043.21L8905.26,8043.21L8905.26,8515.66M9377.69,15366.2L8905.26,15366.2M4110,14657.5L2291.11,14657.5L2291.11,12838.6M8432.82,15366.2L7960.38,15366.2M7369.83,9581.32L3354.1,9581.32L3354.1,13594.5L7369.83,13594.5L7369.83,9581.32M7487.94,15366.2L7015.5,15366.2M8787.15,7098.31L9850.13,7098.31L9850.13,8161.32M3708.43,15129.9L1818.67,15129.9L1818.67,13240.1M6543.06,15366.2L6070.62,15366.2M6897.39,10046.1L3826.54,10046.1L3826.54,13122L6897.39,13122L6897.39,10046.1M5598.18,15366.2L5125.74,15366.2M9259.59,6153.41L10795,6153.41L10795,7688.87M3708.43,15366.2L1582.45,15366.2L1582.45,13240.1M4653.31,15366.2L4180.87,15366.2M6661.17,10282.4L4062.76,10282.4L4062.76,12885.8L6661.17,12885.8L6661.17,10282.4M1346.23,4263.62L12684.8,4263.62L12684.8,15602.4M1889.54,15602.4L1417.1,15602.4M3235.99,8515.66L3708.43,8515.66M1346.23,12767.7L1346.23,12295.2M4180.87,8515.66L4653.31,8515.66M5125.74,8515.66L5598.18,8515.66M1346.23,11822.8L1346.23,11350.3M6070.62,8515.66L6543.06,8515.66M1346.23,10877.9L1346.23,10405.4M1346.23,9933L1346.23,9460.55M1346.23,8988.1L1346.23,8515.66M8432.82,7570.76L9377.69,7570.76L9377.69,8515.66M1346.23,8043.21L1346.23,7570.76M3944.65,14893.7L2054.89,14893.7L2054.89,13003.9M1346.23,7098.31L1346.23,4263.62M5007.63,9935.66L3708.43,9935.66L3708.43,11232.2M1889.54,15531.5L1417.1,15531.5M3708.43,11232.2L3590.32,11232.2L3590.32,13358.2M9259.59,5208.52L9259.59,4263.62M3590.32,13358.2L5716.29,13358.2L5716.29,13240.1M11739.9,5208.52L9259.59,5208.52M5716.29,13240.1L7015.5,13240.1L7015.5,11940.9M11739.9,7688.87L11739.9,5208.52M7015.5,11940.9L7133.61,11940.9L7133.61,9814.89M12684.8,7688.87L11739.9,7688.87M7133.61,9814.89L5007.63,9814.89L5007.63,9935.66M4180.87,10400.5L4180.87,12767.7M2763.55,8043.21L3235.99,8043.21M3708.43,8043.21L4180.87,8043.21M4180.87,12767.7L6543.06,12767.7M4653.31,8043.21L5125.74,8043.21M5598.18,8043.21L6070.62,8043.21M6543.06,12767.7L6543.06,10400.5M6543.06,8043.21L7015.5,8043.21M7960.38,10405.4L8432.82,10405.4M7487.94,8043.21L7960.38,8043.21M6543.06,10400.5L4180.87,10400.5M7960.38,9933L7960.38,10405.4M8432.82,9933L7960.38,9933M2291.11,12295.2L2291.11,11822.8M8432.82,10405.4L8432.82,9933M3708.43,8704.63L3235.99,8704.63M2291.11,11350.3L2291.11,10877.9M12684.8,15602.4L9850.13,15602.4M3235.99,8751.88L3708.43,8751.88M8196.6,12767.7L8243.84,12767.7M2291.11,10405.4L2291.11,9933M8243.84,12295.2L8196.6,12295.2M7487.94,14421.3L7487.94,14468.5M2291.11,9460.55L2291.11,8988.1M9377.69,15602.4L8905.26,15602.4M7960.38,14468.5L7960.38,14421.3M5598.18,14421.3L5598.18,14468.5M2291.11,8515.66L2291.11,8043.21M6070.62,14468.5L6070.62,14421.3M11149.3,13358.2L10913.1,13358.2M2409.22,14539.4L2409.22,12838.6M8432.82,15602.4L7960.38,15602.4M11149.3,13594.5L11149.3,13358.2M10913.1,13594.5L11149.3,13594.5M10913.1,13358.2L10913.1,13594.5M4110,15129.9L4180.87,15129.9M7960.38,8279.43L7960.38,8043.21M7487.94,15602.4L7015.5,15602.4M4110,14421.3L4110,15129.9M8669.04,8279.43L7960.38,8279.43M4180.87,14421.3L4110,14421.3M4180.87,15129.9L4180.87,14421.3M8432.82,14185L7960.38,14185M8669.04,8988.1L8669.04,8279.43M6543.06,15602.4L6070.62,15602.4M8432.82,14657.5L8432.82,14185M7960.38,14657.5L8432.82,14657.5M8905.26,8988.1L8669.04,8988.1M7960.38,14185L7960.38,14421.3M7960.38,14468.5L7960.38,14657.5M5598.18,15602.4L5125.74,15602.4M4653.31,14185L4653.31,14657.5M4653.31,14657.5L4180.87,14657.5M4180.87,14657.5L4180.87,14185M4180.87,14185L4653.31,14185M6543.06,14185L6070.62,14185M6543.06,14657.5L6543.06,14185M4110,14539.4L2409.22,14539.4M6070.62,14657.5L6543.06,14657.5M6070.62,14185L6070.62,14421.3M3235.99,13712.6L3235.99,9460.55M4653.31,15602.4L4180.87,15602.4M6070.62,14468.5L6070.62,14657.5M4110,15129.9L3708.43,15129.9M7487.94,13712.6L3235.99,13712.6M4180.87,15602.4L4180.87,15129.9M3708.43,15602.4L4180.87,15602.4M7487.94,9460.55L7487.94,13712.6M3708.43,15129.9L3708.43,15602.4M6070.62,15129.9L5598.18,15129.9M3235.99,9460.55L7487.94,9460.55M6070.62,15602.4L6070.62,15129.9M5598.18,15602.4L6070.62,15602.4M8905.26,8988.1L8905.26,9460.55M5598.18,15129.9L5598.18,15602.4M7960.38,15129.9L7487.94,15129.9M8905.26,9933L8905.26,10405.4M7960.38,15602.4L7960.38,15129.9M2763.55,12295.2L2291.11,12295.2M2291.11,12295.2L2291.11,12767.7M2291.11,12767.7L2763.55,12767.7M2763.55,12767.7L2763.55,12295.2M7487.94,15602.4L7960.38,15602.4M8905.26,10877.9L8905.26,11350.3M7487.94,15129.9L7487.94,15602.4M9850.13,15129.9L9377.69,15129.9M8905.26,11822.8L8905.26,12295.2M9850.13,15602.4L9850.13,15129.9M9377.69,15602.4L9850.13,15602.4M8905.26,12767.7L8905.26,13240.1M9377.69,15129.9L9377.69,15602.4M10204.5,8161.32L9968.24,8161.32M8905.26,13712.6L8905.26,14185M10204.5,8397.54L10204.5,8161.32M9968.24,8397.54L10204.5,8397.54M8905.26,14657.5L8432.82,14657.5M9968.24,8161.32L9968.24,8397.54M10204.5,9106.22L9968.24,9106.22M7960.38,14657.5L7487.94,14657.5M10204.5,9342.44L10204.5,9106.22M9968.24,9342.44L10204.5,9342.44M7015.5,14657.5L6543.06,14657.5M9968.24,9106.22L9968.24,9342.44M10204.5,10996L9968.24,10996M6070.62,14657.5L5598.18,14657.5M10204.5,11232.2L10204.5,10996M9968.24,11232.2L10204.5,11232.2M5125.74,14657.5L4653.31,14657.5" style="fill:none;fill-rule:nonzero;stroke:black;stroke-width:1px;"/>
                </g>
            </g>
        </g>
    </g>
</svg>
