<?xml version="1.0" encoding="UTF-8" standalone="no"?>
<!DOCTYPE svg PUBLIC "-//W3C//DTD SVG 1.1//EN" "http://www.w3.org/Graphics/SVG/1.1/DTD/svg11.dtd">
<svg width="100%" height="100%" viewBox="0 0 1215 1215" version="1.1" xmlns="http://www.w3.org/2000/svg" xmlns:xlink="http://www.w3.org/1999/xlink" xml:space="preserve" xmlns:serif="http://www.serif.com/" style="fill-rule:evenodd;clip-rule:evenodd;stroke-linecap:round;stroke-linejoin:round;stroke-miterlimit:10;">
    <g transform="matrix(1.52689,0,0,1.52689,135.663,487.295)">
        <g>
            <g transform="matrix(0,-0.346331,0.346331,0,121.79,729.373)">
                <path d="M1528.52,1092.05L1979.6,1092.05" style="fill:none;fill-rule:nonzero;stroke:black;stroke-width:2.36px;stroke-dasharray:7.09,9.46,0,0;"/>
            </g>
            <g transform="matrix(-0.299931,-0.173165,0.173165,-0.299931,904.64,1005.63)">
                <path d="M1723.84,1430.36L2174.93,1430.36" style="fill:none;fill-rule:nonzero;stroke:black;stroke-width:2.36px;stroke-dasharray:7.09,9.46,0,0;"/>
            </g>
            <g transform="matrix(0.346331,0,0,-0.346331,-107.485,812.546)">
                <path d="M1754.06,1768.67L1363.41,1543.13" style="fill:none;fill-rule:nonzero;stroke:black;stroke-width:2.36px;stroke-dasharray:7.09,9.46,0,0;"/>
            </g>
        </g>
        <g>
            <g>
                <path d="M432.353,239.056L500,121.888L567.647,239.056L432.353,239.056Z" style="fill:rgb(230,230,230);"/>
                <path d="M500,121.888L567.647,160.944L567.647,239.056L500,121.888Z" style="fill:rgb(204,204,204);"/>
                <path d="M432.353,160.944L500,121.889L432.353,239.056L432.353,160.944Z" style="fill:rgb(242,242,242);"/>
                <path d="M432.353,239.056L567.647,239.056L500,279.116L432.353,239.056Z" style="fill:rgb(204,204,204);"/>
            </g>
            <g transform="matrix(0.795237,0,0,0.795237,-73.3806,40.9525)">
                <path d="M635.953,249.112L721.02,101.778" style="fill:none;stroke:rgb(0,0,255);stroke-width:3.43px;stroke-miterlimit:1.5;"/>
            </g>
            <g transform="matrix(0.795237,0,0,0.795237,-73.3806,40.9525)">
                <path d="M806.083,249.112L635.953,249.112" style="fill:none;stroke:rgb(255,221,0);stroke-width:3.43px;stroke-miterlimit:1.5;"/>
            </g>
            <g transform="matrix(0.795237,0,0,0.795237,-73.3806,40.9525)">
                <path d="M721.023,101.778L806.083,249.112" style="fill:none;stroke:rgb(255,0,194);stroke-width:3.43px;stroke-miterlimit:1.5;"/>
            </g>
            <path d="M499.999,121.889L432.353,160.944L432.353,239.056L500,279.116L567.647,239.056L567.647,160.944L499.999,121.889Z" style="fill:none;stroke:black;stroke-width:2.73px;stroke-miterlimit:1.5;"/>
        </g>
        <g>
            <g transform="matrix(0,-0.346331,0.346331,0,-91.6162,672.191)">
                <path d="M1137.87,1317.59L1588.95,1317.59" style="fill:none;fill-rule:nonzero;stroke:black;stroke-width:2.36px;stroke-dasharray:7.09,9.46,0,0;"/>
            </g>
            <g transform="matrix(0,-0.346331,0.346331,0,178.972,942.779)">
                <path d="M1919.17,1317.59L2370.25,1317.59" style="fill:none;fill-rule:nonzero;stroke:black;stroke-width:2.36px;stroke-dasharray:7.09,9.46,0,0;"/>
            </g>
            <g transform="matrix(0.346331,0,0,-0.346331,-107.485,812.546)">
                <path d="M1363.41,1543.13L1754.06,1317.59" style="fill:none;fill-rule:nonzero;stroke:black;stroke-width:2.36px;stroke-dasharray:7.09,9.46,0,0;"/>
            </g>
            <g transform="matrix(0.299931,-0.173165,0.173165,0.299931,-303.779,158.076)">
                <path d="M1723.84,1655.9L2174.93,1655.9" style="fill:none;fill-rule:nonzero;stroke:black;stroke-width:2.36px;stroke-dasharray:7.09,9.46,0,0;"/>
            </g>
            <g transform="matrix(0,-0.346331,0.346331,0,-34.4342,885.597)">
                <path d="M1528.52,1543.13L1979.6,1543.13" style="fill:none;fill-rule:nonzero;stroke:black;stroke-width:2.36px;stroke-dasharray:7.09,9.46,0,0;"/>
            </g>
            <g transform="matrix(-0.299931,-0.173165,0.173165,-0.299931,982.752,714.114)">
                <path d="M1723.84,979.278L2174.93,979.278" style="fill:none;fill-rule:nonzero;stroke:black;stroke-width:2.36px;stroke-dasharray:7.09,9.46,0,0;"/>
            </g>
            <g transform="matrix(-0.299931,0.173166,-0.173166,-0.299931,1069.44,106.628)">
                <path d="M1333.19,979.278L1784.28,979.278" style="fill:none;fill-rule:nonzero;stroke:black;stroke-width:2.36px;stroke-dasharray:7.09,9.46,0,0;"/>
            </g>
            <g transform="matrix(0.299931,0.173165,-0.173165,0.299931,173.473,-470.338)">
                <path d="M1333.19,1204.82L1784.28,1204.82" style="fill:none;fill-rule:nonzero;stroke:black;stroke-width:2.36px;stroke-dasharray:7.09,9.46,0,0;"/>
            </g>
            <g transform="matrix(0.299931,-0.173165,0.173165,0.299931,-225.667,137.146)">
                <path d="M1723.84,1204.82L2174.93,1204.82" style="fill:none;fill-rule:nonzero;stroke:black;stroke-width:2.36px;stroke-dasharray:7.09,9.46,0,0;"/>
            </g>
        </g>
    </g>
    <g transform="matrix(1.5269,0,0,1.5269,46.1444,487.294)">
        <g>
            <path d="M175.294,200L310.588,121.888L310.588,278.112L175.294,356.224L175.294,200Z" style="fill:rgb(0,0,255);"/>
            <path d="M175.294,200L40,121.888L40,278.112L175.294,356.224L175.294,200Z" style="fill:rgb(255,0,194);"/>
            <path d="M40,121.888L175.294,43.776L310.588,121.888L175.294,200L40,121.888Z" style="fill:rgb(255,221,0);"/>
        </g>
        <path d="M175.294,43.776L40,121.888L40,278.112L175.294,356.224L310.588,278.112L310.588,121.888L175.294,43.776Z" style="fill:none;stroke:black;stroke-width:2.73px;stroke-miterlimit:1.5;"/>
        <g>
            <path d="M40,121.888L175.294,200L310.588,121.888" style="fill:none;stroke:black;stroke-width:0.82px;stroke-miterlimit:1.5;"/>
            <path d="M175.294,200L175.294,356.224" style="fill:none;stroke:black;stroke-width:0.82px;stroke-miterlimit:1.5;"/>
        </g>
    </g>
    <g transform="matrix(1.7215,0,0,1.7215,21.1452,482.803)">
        <g transform="matrix(-6.43114e-16,0.59999,0.368176,0.000134406,191.318,-135.859)">
            <path d="M516.342,439.997L526.342,459.997L536.342,439.997" style="fill:none;stroke:black;stroke-width:4.86px;stroke-miterlimit:1.5;"/>
        </g>
        <path d="M320,180L360,180" style="fill:none;stroke:black;stroke-width:2.42px;stroke-miterlimit:1.5;"/>
    </g>
    <g transform="matrix(1.47801,0,0,1.47801,588.558,615.827)">
        <circle cx="280" cy="160" r="7.198" style="fill:rgb(0,0,255);"/>
    </g>
    <g transform="matrix(1.47801,0,0,1.47801,-100.042,556.192)">
        <circle cx="280" cy="160" r="7.198" style="fill:rgb(230,230,230);stroke:black;stroke-width:0.85px;stroke-miterlimit:1.5;"/>
    </g>
    <g transform="matrix(1.47801,0,0,1.47801,-100.042,794.73)">
        <circle cx="280" cy="160" r="7.198" style="fill:rgb(204,204,204);stroke:black;stroke-width:0.85px;stroke-miterlimit:1.5;"/>
    </g>
    <g transform="matrix(1.47801,0,0,1.47801,106.538,436.924)">
        <circle cx="280" cy="160" r="7.198" style="fill:rgb(204,204,204);stroke:black;stroke-width:0.85px;stroke-miterlimit:1.5;"/>
    </g>
    <g transform="matrix(1.47801,0,0,1.47801,-306.621,436.924)">
        <circle cx="280" cy="160" r="7.198" style="fill:rgb(242,242,242);stroke:black;stroke-width:0.85px;stroke-miterlimit:1.5;"/>
    </g>
    <g transform="matrix(1.47801,0,0,1.47801,381.978,615.827)">
        <circle cx="280" cy="160" r="7.198" style="fill:rgb(255,0,194);"/>
    </g>
    <g transform="matrix(1.21424,0,0,1.21424,121.933,493.095)">
        <path d="M228.151,188.986L243.079,197.605L243.079,214.803" style="fill:none;stroke:rgb(255,0,194);stroke-width:6.86px;stroke-miterlimit:1.5;"/>
    </g>
    <g transform="matrix(-1.21424,0,0,1.21424,526.339,493.095)">
        <path d="M245.175,188.986L260.103,197.605L260.103,214.803" style="fill:none;stroke:rgb(0,0,255);stroke-width:6.86px;stroke-miterlimit:1.5;"/>
    </g>
    <g transform="matrix(-0.607122,1.05157,-1.05157,-0.607122,669.184,782.062)">
        <path d="M224.053,191.381L238.982,200L238.982,217.198" style="fill:none;stroke:rgb(255,221,0);stroke-width:6.86px;stroke-miterlimit:1.5;"/>
    </g>
    <g transform="matrix(1.47801,0,0,1.47801,485.268,436.927)">
        <circle cx="280" cy="160" r="7.198" style="fill:rgb(255,221,0);"/>
    </g>
    <g transform="matrix(1.00606,0,0,1.00606,104.469,104.579)">
        <g transform="matrix(0.95826,0,0,0.95826,20.8696,-39.0389)">
            <g>
                <g transform="matrix(0,-0.346331,0.346331,0,121.79,729.373)">
                    <path d="M1528.52,1092.05L1979.6,1092.05" style="fill:none;fill-rule:nonzero;stroke:black;stroke-width:3.74px;stroke-dasharray:11.23,14.98,0,0;"/>
                </g>
                <g transform="matrix(-0.299931,-0.173165,0.173165,-0.299931,904.64,1005.63)">
                    <path d="M1723.84,1430.36L2174.93,1430.36" style="fill:none;fill-rule:nonzero;stroke:black;stroke-width:3.74px;stroke-dasharray:11.23,14.98,0,0;"/>
                </g>
                <g transform="matrix(0.346331,0,0,-0.346331,-107.485,812.546)">
                    <path d="M1754.06,1768.67L1363.41,1543.13" style="fill:none;fill-rule:nonzero;stroke:black;stroke-width:3.74px;stroke-dasharray:11.23,14.98,0,0;"/>
                </g>
            </g>
            <g>
                <g>
                    <path d="M432.353,239.056L500,121.888L567.647,239.056L432.353,239.056Z" style="fill:rgb(230,230,230);"/>
                    <path d="M500,121.888L567.647,160.944L567.647,239.056L500,121.888Z" style="fill:rgb(204,204,204);"/>
                    <path d="M432.353,160.944L500,121.889L432.353,239.056L432.353,160.944Z" style="fill:rgb(242,242,242);"/>
                    <path d="M432.353,239.056L567.647,239.056L500,279.116L432.353,239.056Z" style="fill:rgb(204,204,204);"/>
                </g>
                <path d="M499.999,121.889L432.353,160.944L432.353,239.056L500,279.116L567.647,239.056L567.647,160.944L499.999,121.889Z" style="fill:none;stroke:black;stroke-width:4.32px;stroke-miterlimit:1.5;"/>
                <path d="M500.001,121.89L432.353,239.056L567.647,239.056L500.001,121.89Z" style="fill:none;stroke:black;stroke-width:1.3px;stroke-miterlimit:1.5;"/>
            </g>
            <g>
                <g transform="matrix(0,-0.346331,0.346331,0,-91.6162,672.191)">
                    <path d="M1137.87,1317.59L1588.95,1317.59" style="fill:none;fill-rule:nonzero;stroke:black;stroke-width:3.74px;stroke-dasharray:11.23,14.98,0,0;"/>
                </g>
                <g transform="matrix(0,-0.346331,0.346331,0,178.972,942.779)">
                    <path d="M1919.17,1317.59L2370.25,1317.59" style="fill:none;fill-rule:nonzero;stroke:black;stroke-width:3.74px;stroke-dasharray:11.23,14.98,0,0;"/>
                </g>
                <g transform="matrix(0.346331,0,0,-0.346331,-107.485,812.546)">
                    <path d="M1363.41,1543.13L1754.06,1317.59" style="fill:none;fill-rule:nonzero;stroke:black;stroke-width:3.74px;stroke-dasharray:11.23,14.98,0,0;"/>
                </g>
                <g transform="matrix(0.299931,-0.173165,0.173165,0.299931,-303.779,158.076)">
                    <path d="M1723.84,1655.9L2174.93,1655.9" style="fill:none;fill-rule:nonzero;stroke:black;stroke-width:3.74px;stroke-dasharray:11.23,14.98,0,0;"/>
                </g>
                <g transform="matrix(0,-0.346331,0.346331,0,-34.4342,885.597)">
                    <path d="M1528.52,1543.13L1979.6,1543.13" style="fill:none;fill-rule:nonzero;stroke:black;stroke-width:3.74px;stroke-dasharray:11.23,14.98,0,0;"/>
                </g>
                <g transform="matrix(-0.299931,-0.173165,0.173165,-0.299931,982.752,714.114)">
                    <path d="M1723.84,979.278L2174.93,979.278" style="fill:none;fill-rule:nonzero;stroke:black;stroke-width:3.74px;stroke-dasharray:11.23,14.98,0,0;"/>
                </g>
                <g transform="matrix(-0.299931,0.173166,-0.173166,-0.299931,1069.44,106.628)">
                    <path d="M1333.19,979.278L1784.28,979.278" style="fill:none;fill-rule:nonzero;stroke:black;stroke-width:3.74px;stroke-dasharray:11.23,14.98,0,0;"/>
                </g>
                <g transform="matrix(0.299931,0.173165,-0.173165,0.299931,173.473,-470.338)">
                    <path d="M1333.19,1204.82L1784.28,1204.82" style="fill:none;fill-rule:nonzero;stroke:black;stroke-width:3.74px;stroke-dasharray:11.23,14.98,0,0;"/>
                </g>
                <g transform="matrix(0.299931,-0.173165,0.173165,0.299931,-225.667,137.146)">
                    <path d="M1723.84,1204.82L2174.93,1204.82" style="fill:none;fill-rule:nonzero;stroke:black;stroke-width:3.74px;stroke-dasharray:11.23,14.98,0,0;"/>
                </g>
            </g>
        </g>
        <g transform="matrix(0.95826,0,0,0.95826,-35.311,-39.039)">
            <g>
                <path d="M175.294,200L310.588,121.888L310.588,278.112L175.294,356.224L175.294,200Z" style="fill:rgb(204,204,204);"/>
                <path d="M175.294,200L40,121.888L40,278.112L175.294,356.224L175.294,200Z" style="fill:rgb(230,230,230);"/>
                <path d="M40,121.888L175.294,43.776L310.588,121.888L175.294,200L40,121.888Z" style="fill:rgb(242,242,242);"/>
            </g>
            <path d="M175.294,43.776L40,121.888L40,278.112L175.294,356.224L310.588,278.112L310.588,121.888L175.294,43.776Z" style="fill:none;stroke:black;stroke-width:4.32px;stroke-miterlimit:1.5;"/>
            <g>
                <path d="M40,121.888L175.294,200L310.588,121.888" style="fill:none;stroke:black;stroke-width:1.3px;stroke-miterlimit:1.5;"/>
                <path d="M175.294,200L175.294,356.224" style="fill:none;stroke:black;stroke-width:1.3px;stroke-miterlimit:1.5;"/>
            </g>
        </g>
        <g transform="matrix(0.95826,0,0,0.95826,77.0509,-39.0389)">
            <g transform="matrix(1,0,0,1,324.706,0)">
                <g transform="matrix(0,-0.346331,0.346331,0,121.79,729.373)">
                    <path d="M1528.52,1092.05L1979.6,1092.05" style="fill:none;fill-rule:nonzero;stroke:rgb(191,191,191);stroke-width:3.74px;stroke-dasharray:11.23,14.98,0,0;"/>
                </g>
                <g transform="matrix(-0.299931,-0.173165,0.173165,-0.299931,904.64,1005.63)">
                    <path d="M1723.84,1430.36L2174.93,1430.36" style="fill:none;fill-rule:nonzero;stroke:rgb(191,191,191);stroke-width:3.74px;stroke-dasharray:11.23,14.98,0,0;"/>
                </g>
                <g transform="matrix(0.346331,0,0,-0.346331,-107.485,812.546)">
                    <path d="M1754.06,1768.67L1363.41,1543.13" style="fill:none;fill-rule:nonzero;stroke:rgb(191,191,191);stroke-width:3.74px;stroke-dasharray:11.23,14.98,0,0;"/>
                </g>
            </g>
            <g transform="matrix(1,0,0,1,324.706,0)">
                <g transform="matrix(0,-0.346331,0.346331,0,-91.6162,672.191)">
                    <path d="M1137.87,1317.59L1588.95,1317.59" style="fill:none;fill-rule:nonzero;stroke:rgb(191,191,191);stroke-width:3.74px;stroke-dasharray:11.23,14.98,0,0;"/>
                </g>
                <g transform="matrix(0,-0.346331,0.346331,0,178.972,942.779)">
                    <path d="M1919.17,1317.59L2370.25,1317.59" style="fill:none;fill-rule:nonzero;stroke:rgb(191,191,191);stroke-width:3.74px;stroke-dasharray:11.23,14.98,0,0;"/>
                </g>
                <g transform="matrix(0.346331,0,0,-0.346331,-107.485,812.546)">
                    <path d="M1363.41,1543.13L1754.06,1317.59" style="fill:none;fill-rule:nonzero;stroke:rgb(191,191,191);stroke-width:3.74px;stroke-dasharray:11.23,14.98,0,0;"/>
                </g>
                <g transform="matrix(0.299931,-0.173165,0.173165,0.299931,-303.779,158.076)">
                    <path d="M1723.84,1655.9L2174.93,1655.9" style="fill:none;fill-rule:nonzero;stroke:rgb(191,191,191);stroke-width:3.74px;stroke-dasharray:11.23,14.98,0,0;"/>
                </g>
                <g transform="matrix(0,-0.346331,0.346331,0,-34.4342,885.597)">
                    <path d="M1528.52,1543.13L1979.6,1543.13" style="fill:none;fill-rule:nonzero;stroke:rgb(191,191,191);stroke-width:3.74px;stroke-dasharray:11.23,14.98,0,0;"/>
                </g>
                <g transform="matrix(-0.299931,-0.173165,0.173165,-0.299931,982.752,714.114)">
                    <path d="M1723.84,979.278L2174.93,979.278" style="fill:none;fill-rule:nonzero;stroke:rgb(191,191,191);stroke-width:3.74px;stroke-dasharray:11.23,14.98,0,0;"/>
                </g>
                <g transform="matrix(-0.299931,0.173166,-0.173166,-0.299931,1069.44,106.628)">
                    <path d="M1333.19,979.278L1784.28,979.278" style="fill:none;fill-rule:nonzero;stroke:rgb(191,191,191);stroke-width:3.74px;stroke-dasharray:11.23,14.98,0,0;"/>
                </g>
                <g transform="matrix(0.299931,0.173165,-0.173165,0.299931,173.473,-470.338)">
                    <path d="M1333.19,1204.82L1784.28,1204.82" style="fill:none;fill-rule:nonzero;stroke:rgb(191,191,191);stroke-width:3.74px;stroke-dasharray:11.23,14.98,0,0;"/>
                </g>
                <g transform="matrix(0.299931,-0.173165,0.173165,0.299931,-225.667,137.146)">
                    <path d="M1723.84,1204.82L2174.93,1204.82" style="fill:none;fill-rule:nonzero;stroke:rgb(191,191,191);stroke-width:3.74px;stroke-dasharray:11.23,14.98,0,0;"/>
                </g>
            </g>
        </g>
        <g transform="matrix(0.31942,0,0,0.31942,811.341,88.7289)">
            <g>
                <path d="M175.294,200L310.588,121.888L310.588,278.112L175.294,356.224L175.294,200Z" style="fill:rgb(204,204,204);"/>
                <path d="M175.294,200L40,121.888L40,278.112L175.294,356.224L175.294,200Z" style="fill:rgb(230,230,230);"/>
                <path d="M40,121.888L175.294,43.776L310.588,121.888L175.294,200L40,121.888Z" style="fill:rgb(242,242,242);"/>
            </g>
            <path d="M175.294,43.776L40,121.888L40,278.112L175.294,356.224L310.588,278.112L310.588,121.888L175.294,43.776Z" style="fill:none;stroke:black;stroke-width:12.97px;stroke-miterlimit:1.5;"/>
            <g>
                <path d="M40,121.888L175.294,200L310.588,121.888" style="fill:none;stroke:black;stroke-width:3.89px;stroke-miterlimit:1.5;"/>
                <path d="M175.294,200L175.294,356.224" style="fill:none;stroke:black;stroke-width:3.89px;stroke-miterlimit:1.5;"/>
            </g>
        </g>
        <g transform="matrix(0.95826,0,0,0.95826,77.0509,-39.0389)">
            <g transform="matrix(1,0,0,1,324.706,0)">
                <path d="M499.999,121.889L432.353,160.944L432.353,239.056L500,279.116L567.647,239.056L567.647,160.944L499.999,121.889Z" style="fill:none;stroke:black;stroke-width:1.3px;stroke-miterlimit:1.5;stroke-dasharray:3.89,6.48,0,0;"/>
            </g>
            <path d="M826.402,278.112L892.353,160.944L757.059,160.944L826.402,278.112Z" style="fill:none;stroke:black;stroke-width:1.3px;stroke-miterlimit:1.5;stroke-dasharray:3.89,5.19,0,0;"/>
            <g transform="matrix(1,0,0,1,324.706,0)">
                <path d="M500.001,121.89L432.353,239.056L567.647,239.056L500.001,121.89Z" style="fill:none;stroke:black;stroke-width:1.3px;stroke-miterlimit:1.5;stroke-dasharray:3.89,6.48,0,0;"/>
            </g>
        </g>
        <g transform="matrix(1.08039,0,0,1.08039,-51.0001,-41.8575)">
            <g transform="matrix(-6.43114e-16,0.59999,0.368176,0.000134406,191.318,-135.859)">
                <path d="M516.342,439.997L526.342,459.997L536.342,439.997" style="fill:none;stroke:black;stroke-width:7.31px;stroke-miterlimit:1.5;"/>
            </g>
            <path d="M320,180L360,180" style="fill:none;stroke:black;stroke-width:3.64px;stroke-miterlimit:1.5;"/>
        </g>
        <g transform="matrix(1.08039,0,0,1.08039,316.333,-41.8575)">
            <g transform="matrix(-6.43114e-16,0.59999,0.368176,0.000134406,191.318,-135.859)">
                <path d="M516.342,439.997L526.342,459.997L536.342,439.997" style="fill:none;stroke:black;stroke-width:7.31px;stroke-miterlimit:1.5;"/>
            </g>
            <path d="M320,180L360,180" style="fill:none;stroke:black;stroke-width:3.64px;stroke-miterlimit:1.5;"/>
        </g>
    </g>
    <g transform="matrix(1.08716,0.0140545,0,1.08716,63.2222,275.779)">
        <g transform="matrix(30.6634,0,0,30.6634,120.091,180)">
            <path d="M0.098,-0.729L0.245,-0.729L0.431,-0.233L0.618,-0.729L0.765,-0.729L0.765,-0L0.669,-0L0.669,-0.64L0.481,-0.14L0.382,-0.14L0.194,-0.64L0.194,-0L0.098,-0L0.098,-0.729Z" style="fill-rule:nonzero;"/>
        </g>
        <g transform="matrix(30.6634,0,0,30.6634,146.548,180)">
            <path d="M0.562,-0.296L0.562,-0.252L0.149,-0.252C0.153,-0.19 0.171,-0.143 0.205,-0.111C0.238,-0.078 0.285,-0.062 0.344,-0.062C0.379,-0.062 0.412,-0.066 0.445,-0.075C0.477,-0.083 0.509,-0.096 0.541,-0.113L0.541,-0.028C0.509,-0.014 0.476,-0.004 0.442,0.003C0.408,0.011 0.374,0.014 0.339,0.014C0.252,0.014 0.183,-0.011 0.132,-0.062C0.081,-0.113 0.055,-0.181 0.055,-0.268C0.055,-0.358 0.079,-0.429 0.128,-0.481C0.176,-0.534 0.241,-0.56 0.323,-0.56C0.397,-0.56 0.455,-0.536 0.498,-0.489C0.541,-0.442 0.562,-0.377 0.562,-0.296ZM0.472,-0.322C0.472,-0.371 0.458,-0.411 0.431,-0.44C0.404,-0.469 0.368,-0.484 0.324,-0.484C0.274,-0.484 0.234,-0.47 0.204,-0.441C0.174,-0.413 0.156,-0.373 0.152,-0.322L0.472,-0.322Z" style="fill-rule:nonzero;"/>
        </g>
        <g transform="matrix(30.6634,0,0,30.6634,165.413,180)">
            <path d="M0.443,-0.531L0.443,-0.446C0.417,-0.459 0.391,-0.469 0.364,-0.475C0.336,-0.482 0.308,-0.485 0.279,-0.485C0.234,-0.485 0.201,-0.478 0.178,-0.464C0.156,-0.451 0.145,-0.43 0.145,-0.403C0.145,-0.382 0.153,-0.366 0.169,-0.354C0.185,-0.342 0.217,-0.331 0.265,-0.32L0.296,-0.313C0.36,-0.299 0.405,-0.28 0.432,-0.255C0.459,-0.23 0.472,-0.195 0.472,-0.151C0.472,-0.1 0.452,-0.06 0.412,-0.03C0.372,-0.001 0.316,0.014 0.246,0.014C0.217,0.014 0.186,0.011 0.155,0.006C0.123,-0 0.089,-0.009 0.054,-0.02L0.054,-0.113C0.087,-0.096 0.12,-0.083 0.152,-0.074C0.185,-0.065 0.216,-0.061 0.248,-0.061C0.29,-0.061 0.323,-0.068 0.346,-0.083C0.368,-0.097 0.38,-0.118 0.38,-0.144C0.38,-0.168 0.372,-0.187 0.355,-0.2C0.339,-0.213 0.303,-0.226 0.247,-0.238L0.216,-0.245C0.16,-0.257 0.12,-0.275 0.095,-0.299C0.07,-0.323 0.058,-0.357 0.058,-0.399C0.058,-0.45 0.076,-0.49 0.113,-0.518C0.149,-0.546 0.201,-0.56 0.268,-0.56C0.301,-0.56 0.333,-0.558 0.362,-0.553C0.391,-0.548 0.418,-0.541 0.443,-0.531Z" style="fill-rule:nonzero;"/>
        </g>
        <g transform="matrix(30.6634,0,0,30.6634,181.388,180)">
            <path d="M0.549,-0.33L0.549,-0L0.459,-0L0.459,-0.327C0.459,-0.379 0.449,-0.418 0.429,-0.443C0.409,-0.469 0.378,-0.482 0.338,-0.482C0.289,-0.482 0.251,-0.466 0.223,-0.436C0.195,-0.405 0.181,-0.362 0.181,-0.309L0.181,-0L0.091,-0L0.091,-0.76L0.181,-0.76L0.181,-0.462C0.203,-0.495 0.228,-0.519 0.257,-0.536C0.286,-0.552 0.32,-0.56 0.358,-0.56C0.421,-0.56 0.468,-0.541 0.5,-0.502C0.533,-0.463 0.549,-0.406 0.549,-0.33Z" style="fill-rule:nonzero;"/>
        </g>
    </g>
    <g transform="matrix(1.08716,0.0140545,0,1.08716,139.138,908.9)">
        <g transform="matrix(30.6634,0,0,30.6634,120.091,180)">
            <path d="M0.098,-0.729L0.245,-0.729L0.431,-0.233L0.618,-0.729L0.765,-0.729L0.765,-0L0.669,-0L0.669,-0.64L0.481,-0.14L0.382,-0.14L0.194,-0.64L0.194,-0L0.098,-0L0.098,-0.729Z" style="fill-rule:nonzero;"/>
        </g>
        <g transform="matrix(30.6634,0,0,30.6634,146.548,180)">
            <path d="M0.562,-0.296L0.562,-0.252L0.149,-0.252C0.153,-0.19 0.171,-0.143 0.205,-0.111C0.238,-0.078 0.285,-0.062 0.344,-0.062C0.379,-0.062 0.412,-0.066 0.445,-0.075C0.477,-0.083 0.509,-0.096 0.541,-0.113L0.541,-0.028C0.509,-0.014 0.476,-0.004 0.442,0.003C0.408,0.011 0.374,0.014 0.339,0.014C0.252,0.014 0.183,-0.011 0.132,-0.062C0.081,-0.113 0.055,-0.181 0.055,-0.268C0.055,-0.358 0.079,-0.429 0.128,-0.481C0.176,-0.534 0.241,-0.56 0.323,-0.56C0.397,-0.56 0.455,-0.536 0.498,-0.489C0.541,-0.442 0.562,-0.377 0.562,-0.296ZM0.472,-0.322C0.472,-0.371 0.458,-0.411 0.431,-0.44C0.404,-0.469 0.368,-0.484 0.324,-0.484C0.274,-0.484 0.234,-0.47 0.204,-0.441C0.174,-0.413 0.156,-0.373 0.152,-0.322L0.472,-0.322Z" style="fill-rule:nonzero;"/>
        </g>
        <g transform="matrix(30.6634,0,0,30.6634,165.413,180)">
            <path d="M0.443,-0.531L0.443,-0.446C0.417,-0.459 0.391,-0.469 0.364,-0.475C0.336,-0.482 0.308,-0.485 0.279,-0.485C0.234,-0.485 0.201,-0.478 0.178,-0.464C0.156,-0.451 0.145,-0.43 0.145,-0.403C0.145,-0.382 0.153,-0.366 0.169,-0.354C0.185,-0.342 0.217,-0.331 0.265,-0.32L0.296,-0.313C0.36,-0.299 0.405,-0.28 0.432,-0.255C0.459,-0.23 0.472,-0.195 0.472,-0.151C0.472,-0.1 0.452,-0.06 0.412,-0.03C0.372,-0.001 0.316,0.014 0.246,0.014C0.217,0.014 0.186,0.011 0.155,0.006C0.123,-0 0.089,-0.009 0.054,-0.02L0.054,-0.113C0.087,-0.096 0.12,-0.083 0.152,-0.074C0.185,-0.065 0.216,-0.061 0.248,-0.061C0.29,-0.061 0.323,-0.068 0.346,-0.083C0.368,-0.097 0.38,-0.118 0.38,-0.144C0.38,-0.168 0.372,-0.187 0.355,-0.2C0.339,-0.213 0.303,-0.226 0.247,-0.238L0.216,-0.245C0.16,-0.257 0.12,-0.275 0.095,-0.299C0.07,-0.323 0.058,-0.357 0.058,-0.399C0.058,-0.45 0.076,-0.49 0.113,-0.518C0.149,-0.546 0.201,-0.56 0.268,-0.56C0.301,-0.56 0.333,-0.558 0.362,-0.553C0.391,-0.548 0.418,-0.541 0.443,-0.531Z" style="fill-rule:nonzero;"/>
        </g>
        <g transform="matrix(30.6634,0,0,30.6634,181.388,180)">
            <path d="M0.549,-0.33L0.549,-0L0.459,-0L0.459,-0.327C0.459,-0.379 0.449,-0.418 0.429,-0.443C0.409,-0.469 0.378,-0.482 0.338,-0.482C0.289,-0.482 0.251,-0.466 0.223,-0.436C0.195,-0.405 0.181,-0.362 0.181,-0.309L0.181,-0L0.091,-0L0.091,-0.76L0.181,-0.76L0.181,-0.462C0.203,-0.495 0.228,-0.519 0.257,-0.536C0.286,-0.552 0.32,-0.56 0.358,-0.56C0.421,-0.56 0.468,-0.541 0.5,-0.502C0.533,-0.463 0.549,-0.406 0.549,-0.33Z" style="fill-rule:nonzero;"/>
        </g>
    </g>
    <g transform="matrix(1.08716,0.0140545,0,1.08716,724.448,908.9)">
        <g transform="matrix(30.6634,0,0,30.6634,125.279,180)">
            <path d="M0.197,-0.648L0.197,-0.081L0.316,-0.081C0.417,-0.081 0.49,-0.104 0.537,-0.149C0.584,-0.195 0.607,-0.267 0.607,-0.365C0.607,-0.463 0.584,-0.534 0.537,-0.58C0.49,-0.625 0.417,-0.648 0.316,-0.648L0.197,-0.648ZM0.098,-0.729L0.301,-0.729C0.442,-0.729 0.546,-0.7 0.612,-0.641C0.678,-0.582 0.711,-0.49 0.711,-0.365C0.711,-0.24 0.678,-0.147 0.611,-0.088C0.545,-0.029 0.441,-0 0.301,-0L0.098,-0L0.098,-0.729Z" style="fill-rule:nonzero;"/>
        </g>
        <g transform="matrix(30.6634,0,0,30.6634,148.891,180)">
            <path d="M0.085,-0.216L0.085,-0.547L0.175,-0.547L0.175,-0.219C0.175,-0.167 0.185,-0.129 0.205,-0.103C0.225,-0.077 0.256,-0.064 0.296,-0.064C0.344,-0.064 0.383,-0.079 0.411,-0.11C0.439,-0.141 0.453,-0.183 0.453,-0.237L0.453,-0.547L0.543,-0.547L0.543,-0L0.453,-0L0.453,-0.084C0.431,-0.051 0.406,-0.026 0.377,-0.01C0.348,0.006 0.315,0.014 0.277,0.014C0.214,0.014 0.166,-0.005 0.134,-0.044C0.101,-0.083 0.085,-0.141 0.085,-0.216ZM0.311,-0.56" style="fill-rule:nonzero;"/>
        </g>
        <g transform="matrix(30.6634,0,0,30.6634,168.325,180)">
            <path d="M0.343,-0.275C0.27,-0.275 0.22,-0.267 0.192,-0.25C0.164,-0.233 0.15,-0.205 0.15,-0.165C0.15,-0.133 0.16,-0.108 0.181,-0.089C0.202,-0.07 0.231,-0.061 0.267,-0.061C0.317,-0.061 0.357,-0.079 0.387,-0.114C0.417,-0.149 0.432,-0.196 0.432,-0.255L0.432,-0.275L0.343,-0.275ZM0.522,-0.312L0.522,-0L0.432,-0L0.432,-0.083C0.412,-0.05 0.386,-0.025 0.355,-0.01C0.325,0.006 0.287,0.014 0.243,0.014C0.187,0.014 0.143,-0.002 0.11,-0.033C0.077,-0.064 0.06,-0.106 0.06,-0.159C0.06,-0.221 0.081,-0.267 0.122,-0.298C0.163,-0.33 0.224,-0.345 0.306,-0.345L0.432,-0.345L0.432,-0.354C0.432,-0.395 0.419,-0.427 0.391,-0.45C0.364,-0.473 0.326,-0.484 0.277,-0.484C0.246,-0.484 0.215,-0.48 0.186,-0.473C0.156,-0.465 0.127,-0.454 0.1,-0.439L0.1,-0.522C0.133,-0.535 0.165,-0.544 0.196,-0.551C0.227,-0.557 0.257,-0.56 0.286,-0.56C0.365,-0.56 0.424,-0.54 0.463,-0.499C0.502,-0.458 0.522,-0.395 0.522,-0.312Z" style="fill-rule:nonzero;"/>
        </g>
        <g transform="matrix(30.6634,0,0,30.6634,187.115,180)">
            <rect x="0.094" y="-0.76" width="0.09" height="0.76" style="fill-rule:nonzero;"/>
        </g>
    </g>
    <g transform="matrix(1.08716,0.0140545,0,1.08716,432.838,280.557)">
        <g transform="matrix(30.6634,0,0,30.6634,125.279,180)">
            <path d="M0.197,-0.648L0.197,-0.081L0.316,-0.081C0.417,-0.081 0.49,-0.104 0.537,-0.149C0.584,-0.195 0.607,-0.267 0.607,-0.365C0.607,-0.463 0.584,-0.534 0.537,-0.58C0.49,-0.625 0.417,-0.648 0.316,-0.648L0.197,-0.648ZM0.098,-0.729L0.301,-0.729C0.442,-0.729 0.546,-0.7 0.612,-0.641C0.678,-0.582 0.711,-0.49 0.711,-0.365C0.711,-0.24 0.678,-0.147 0.611,-0.088C0.545,-0.029 0.441,-0 0.301,-0L0.098,-0L0.098,-0.729Z" style="fill-rule:nonzero;"/>
        </g>
        <g transform="matrix(30.6634,0,0,30.6634,148.891,180)">
            <path d="M0.085,-0.216L0.085,-0.547L0.175,-0.547L0.175,-0.219C0.175,-0.167 0.185,-0.129 0.205,-0.103C0.225,-0.077 0.256,-0.064 0.296,-0.064C0.344,-0.064 0.383,-0.079 0.411,-0.11C0.439,-0.141 0.453,-0.183 0.453,-0.237L0.453,-0.547L0.543,-0.547L0.543,-0L0.453,-0L0.453,-0.084C0.431,-0.051 0.406,-0.026 0.377,-0.01C0.348,0.006 0.315,0.014 0.277,0.014C0.214,0.014 0.166,-0.005 0.134,-0.044C0.101,-0.083 0.085,-0.141 0.085,-0.216ZM0.311,-0.56" style="fill-rule:nonzero;"/>
        </g>
        <g transform="matrix(30.6634,0,0,30.6634,168.325,180)">
            <path d="M0.343,-0.275C0.27,-0.275 0.22,-0.267 0.192,-0.25C0.164,-0.233 0.15,-0.205 0.15,-0.165C0.15,-0.133 0.16,-0.108 0.181,-0.089C0.202,-0.07 0.231,-0.061 0.267,-0.061C0.317,-0.061 0.357,-0.079 0.387,-0.114C0.417,-0.149 0.432,-0.196 0.432,-0.255L0.432,-0.275L0.343,-0.275ZM0.522,-0.312L0.522,-0L0.432,-0L0.432,-0.083C0.412,-0.05 0.386,-0.025 0.355,-0.01C0.325,0.006 0.287,0.014 0.243,0.014C0.187,0.014 0.143,-0.002 0.11,-0.033C0.077,-0.064 0.06,-0.106 0.06,-0.159C0.06,-0.221 0.081,-0.267 0.122,-0.298C0.163,-0.33 0.224,-0.345 0.306,-0.345L0.432,-0.345L0.432,-0.354C0.432,-0.395 0.419,-0.427 0.391,-0.45C0.364,-0.473 0.326,-0.484 0.277,-0.484C0.246,-0.484 0.215,-0.48 0.186,-0.473C0.156,-0.465 0.127,-0.454 0.1,-0.439L0.1,-0.522C0.133,-0.535 0.165,-0.544 0.196,-0.551C0.227,-0.557 0.257,-0.56 0.286,-0.56C0.365,-0.56 0.424,-0.54 0.463,-0.499C0.502,-0.458 0.522,-0.395 0.522,-0.312Z" style="fill-rule:nonzero;"/>
        </g>
        <g transform="matrix(30.6634,0,0,30.6634,187.115,180)">
            <rect x="0.094" y="-0.76" width="0.09" height="0.76" style="fill-rule:nonzero;"/>
        </g>
    </g>
    <g transform="matrix(1.08716,0.0140545,0,1.08716,802.545,285.337)">
        <g transform="matrix(30.6634,0,0,30.6634,66.0785,180)">
            <path d="M0.197,-0.648L0.197,-0.081L0.316,-0.081C0.417,-0.081 0.49,-0.104 0.537,-0.149C0.584,-0.195 0.607,-0.267 0.607,-0.365C0.607,-0.463 0.584,-0.534 0.537,-0.58C0.49,-0.625 0.417,-0.648 0.316,-0.648L0.197,-0.648ZM0.098,-0.729L0.301,-0.729C0.442,-0.729 0.546,-0.7 0.612,-0.641C0.678,-0.582 0.711,-0.49 0.711,-0.365C0.711,-0.24 0.678,-0.147 0.611,-0.088C0.545,-0.029 0.441,-0 0.301,-0L0.098,-0L0.098,-0.729Z" style="fill-rule:nonzero;"/>
        </g>
        <g transform="matrix(30.6634,0,0,30.6634,89.69,180)">
            <path d="M0.306,-0.484C0.258,-0.484 0.22,-0.465 0.192,-0.427C0.164,-0.39 0.15,-0.338 0.15,-0.273C0.15,-0.208 0.164,-0.156 0.192,-0.118C0.219,-0.081 0.258,-0.062 0.306,-0.062C0.354,-0.062 0.392,-0.081 0.42,-0.119C0.448,-0.156 0.462,-0.208 0.462,-0.273C0.462,-0.338 0.448,-0.389 0.42,-0.427C0.392,-0.465 0.354,-0.484 0.306,-0.484ZM0.306,-0.56C0.384,-0.56 0.446,-0.535 0.49,-0.484C0.535,-0.433 0.557,-0.363 0.557,-0.273C0.557,-0.183 0.535,-0.113 0.49,-0.062C0.446,-0.011 0.384,0.014 0.306,0.014C0.228,0.014 0.166,-0.011 0.122,-0.062C0.077,-0.113 0.055,-0.183 0.055,-0.273C0.055,-0.363 0.077,-0.433 0.122,-0.484C0.166,-0.535 0.228,-0.56 0.306,-0.56Z" style="fill-rule:nonzero;"/>
        </g>
        <g transform="matrix(30.6634,0,0,30.6634,108.45,180)">
            <path d="M0.085,-0.216L0.085,-0.547L0.175,-0.547L0.175,-0.219C0.175,-0.167 0.185,-0.129 0.205,-0.103C0.225,-0.077 0.256,-0.064 0.296,-0.064C0.344,-0.064 0.383,-0.079 0.411,-0.11C0.439,-0.141 0.453,-0.183 0.453,-0.237L0.453,-0.547L0.543,-0.547L0.543,-0L0.453,-0L0.453,-0.084C0.431,-0.051 0.406,-0.026 0.377,-0.01C0.348,0.006 0.315,0.014 0.277,0.014C0.214,0.014 0.166,-0.005 0.134,-0.044C0.101,-0.083 0.085,-0.141 0.085,-0.216ZM0.311,-0.56" style="fill-rule:nonzero;"/>
        </g>
        <g transform="matrix(30.6634,0,0,30.6634,127.885,180)">
            <path d="M0.487,-0.273C0.487,-0.339 0.473,-0.391 0.446,-0.428C0.419,-0.466 0.382,-0.485 0.334,-0.485C0.286,-0.485 0.249,-0.466 0.222,-0.428C0.195,-0.391 0.181,-0.339 0.181,-0.273C0.181,-0.207 0.195,-0.155 0.222,-0.117C0.249,-0.08 0.286,-0.061 0.334,-0.061C0.382,-0.061 0.419,-0.08 0.446,-0.117C0.473,-0.155 0.487,-0.207 0.487,-0.273ZM0.181,-0.464C0.2,-0.496 0.224,-0.521 0.253,-0.536C0.281,-0.552 0.316,-0.56 0.356,-0.56C0.422,-0.56 0.476,-0.534 0.518,-0.481C0.559,-0.428 0.58,-0.359 0.58,-0.273C0.58,-0.187 0.559,-0.118 0.518,-0.065C0.476,-0.012 0.422,0.014 0.356,0.014C0.316,0.014 0.281,0.006 0.253,-0.01C0.224,-0.025 0.2,-0.049 0.181,-0.082L0.181,-0L0.091,-0L0.091,-0.76L0.181,-0.76L0.181,-0.464Z" style="fill-rule:nonzero;"/>
        </g>
        <g transform="matrix(30.6634,0,0,30.6634,147.349,180)">
            <rect x="0.094" y="-0.76" width="0.09" height="0.76" style="fill-rule:nonzero;"/>
        </g>
        <g transform="matrix(30.6634,0,0,30.6634,155.868,180)">
            <path d="M0.562,-0.296L0.562,-0.252L0.149,-0.252C0.153,-0.19 0.171,-0.143 0.205,-0.111C0.238,-0.078 0.285,-0.062 0.344,-0.062C0.379,-0.062 0.412,-0.066 0.445,-0.075C0.477,-0.083 0.509,-0.096 0.541,-0.113L0.541,-0.028C0.509,-0.014 0.476,-0.004 0.442,0.003C0.408,0.011 0.374,0.014 0.339,0.014C0.252,0.014 0.183,-0.011 0.132,-0.062C0.081,-0.113 0.055,-0.181 0.055,-0.268C0.055,-0.358 0.079,-0.429 0.128,-0.481C0.176,-0.534 0.241,-0.56 0.323,-0.56C0.397,-0.56 0.455,-0.536 0.498,-0.489C0.541,-0.442 0.562,-0.377 0.562,-0.296ZM0.472,-0.322C0.472,-0.371 0.458,-0.411 0.431,-0.44C0.404,-0.469 0.368,-0.484 0.324,-0.484C0.274,-0.484 0.234,-0.47 0.204,-0.441C0.174,-0.413 0.156,-0.373 0.152,-0.322L0.472,-0.322Z" style="fill-rule:nonzero;"/>
        </g>
        <g transform="matrix(30.6634,0,0,30.6634,184.48,180)">
            <path d="M0.197,-0.648L0.197,-0.081L0.316,-0.081C0.417,-0.081 0.49,-0.104 0.537,-0.149C0.584,-0.195 0.607,-0.267 0.607,-0.365C0.607,-0.463 0.584,-0.534 0.537,-0.58C0.49,-0.625 0.417,-0.648 0.316,-0.648L0.197,-0.648ZM0.098,-0.729L0.301,-0.729C0.442,-0.729 0.546,-0.7 0.612,-0.641C0.678,-0.582 0.711,-0.49 0.711,-0.365C0.711,-0.24 0.678,-0.147 0.611,-0.088C0.545,-0.029 0.441,-0 0.301,-0L0.098,-0L0.098,-0.729Z" style="fill-rule:nonzero;"/>
        </g>
        <g transform="matrix(30.6634,0,0,30.6634,208.092,180)">
            <path d="M0.085,-0.216L0.085,-0.547L0.175,-0.547L0.175,-0.219C0.175,-0.167 0.185,-0.129 0.205,-0.103C0.225,-0.077 0.256,-0.064 0.296,-0.064C0.344,-0.064 0.383,-0.079 0.411,-0.11C0.439,-0.141 0.453,-0.183 0.453,-0.237L0.453,-0.547L0.543,-0.547L0.543,-0L0.453,-0L0.453,-0.084C0.431,-0.051 0.406,-0.026 0.377,-0.01C0.348,0.006 0.315,0.014 0.277,0.014C0.214,0.014 0.166,-0.005 0.134,-0.044C0.101,-0.083 0.085,-0.141 0.085,-0.216ZM0.311,-0.56" style="fill-rule:nonzero;"/>
        </g>
        <g transform="matrix(30.6634,0,0,30.6634,227.526,180)">
            <path d="M0.343,-0.275C0.27,-0.275 0.22,-0.267 0.192,-0.25C0.164,-0.233 0.15,-0.205 0.15,-0.165C0.15,-0.133 0.16,-0.108 0.181,-0.089C0.202,-0.07 0.231,-0.061 0.267,-0.061C0.317,-0.061 0.357,-0.079 0.387,-0.114C0.417,-0.149 0.432,-0.196 0.432,-0.255L0.432,-0.275L0.343,-0.275ZM0.522,-0.312L0.522,-0L0.432,-0L0.432,-0.083C0.412,-0.05 0.386,-0.025 0.355,-0.01C0.325,0.006 0.287,0.014 0.243,0.014C0.187,0.014 0.143,-0.002 0.11,-0.033C0.077,-0.064 0.06,-0.106 0.06,-0.159C0.06,-0.221 0.081,-0.267 0.122,-0.298C0.163,-0.33 0.224,-0.345 0.306,-0.345L0.432,-0.345L0.432,-0.354C0.432,-0.395 0.419,-0.427 0.391,-0.45C0.364,-0.473 0.326,-0.484 0.277,-0.484C0.246,-0.484 0.215,-0.48 0.186,-0.473C0.156,-0.465 0.127,-0.454 0.1,-0.439L0.1,-0.522C0.133,-0.535 0.165,-0.544 0.196,-0.551C0.227,-0.557 0.257,-0.56 0.286,-0.56C0.365,-0.56 0.424,-0.54 0.463,-0.499C0.502,-0.458 0.522,-0.395 0.522,-0.312Z" style="fill-rule:nonzero;"/>
        </g>
        <g transform="matrix(30.6634,0,0,30.6634,246.316,180)">
            <rect x="0.094" y="-0.76" width="0.09" height="0.76" style="fill-rule:nonzero;"/>
        </g>
    </g>
</svg>
